<?xml version="1.0" encoding="UTF-8"?>
<svg id="Capa_2" data-name="Capa 2" xmlns="http://www.w3.org/2000/svg" xmlns:xlink="http://www.w3.org/1999/xlink" viewBox="0 0 71.1 85">
  <defs>
    <style>
      .cls-1 {
        clip-path: url(#clippath-1);
      }

      .cls-2 {
        clip-path: url(#clippath);
      }

      .cls-3 {
        fill: none;
      }

      .cls-4 {
        fill: #515151;
      }
    </style>
    <clipPath id="clippath">
      <rect class="cls-3" width="71.1" height="85"/>
    </clipPath>
    <clipPath id="clippath-1">
      <rect class="cls-3" width="71.1" height="85"/>
    </clipPath>
  </defs>
  <g id="Layer_1" data-name="Layer 1">
    <g id="NewGroupe32">
      <g id="NewGroup0-27">
        <g>
          <g class="cls-2">
            <path class="cls-4" d="m35.7,14.48c1.14,0,2.27.05,3.39.16v-6.46h-8.06v6.6c1.54-.19,3.1-.29,4.67-.29h0Z"/>
            <path class="cls-4" d="m.34,25.14c.19.16.43.23.68.21.25-.02.47-.14.63-.33l.13-.16s0,0,0,0l4.07-4.95s0,0,0,0l.13-.16c.16-.19.23-.43.21-.68-.02-.25-.14-.47-.33-.63-.17-.14-.38-.21-.59-.21-.27,0-.53.12-.72.34L.21,23.84c-.16.19-.23.43-.21.68.02.25.14.47.33.63H.34Z"/>
          </g>
          <path class="cls-4" d="m35.7,43.84c2.03,0,3.92.82,5.3,2.25l9.43-6.27c.67-.45,1.58-.26,2.02.41.45.67.26,1.58-.41,2.02l-9.47,6.3c.32.84.49,1.73.49,2.65,0,4.06-3.3,7.36-7.36,7.36s-7.36-3.3-7.36-7.36,3.3-7.36,7.36-7.36h0Zm0,33.86c14.61,0,26.5-11.89,26.5-26.5s-11.89-26.5-26.5-26.5-26.5,11.89-26.5,26.5,11.89,26.5,26.5,26.5h0Z"/>
          <polygon class="cls-4" points="7.12 27.37 9.34 24.67 7.17 22.89 6.5 23.71 4.95 25.59 7.12 27.37 7.12 27.37"/>
          <path class="cls-4" d="m29.22,5.25h11.68c.7,0,1.36-.27,1.86-.77.5-.5.77-1.16.77-1.86,0-1.45-1.18-2.63-2.63-2.63h-11.68c-.7,0-1.36.27-1.86.77s-.77,1.16-.77,1.86c0,1.45,1.18,2.63,2.63,2.63h0Z"/>
          <g class="cls-1">
            <polygon class="cls-4" points="66.3 25.15 64.42 23.32 63.8 22.71 61.84 24.72 64.34 27.16 66.3 25.15 66.3 25.15"/>
            <path class="cls-4" d="m69.53,24.22c.18.17.41.27.66.26.25,0,.48-.1.65-.28h0c.36-.37.35-.95-.02-1.31l-4.88-4.76c-.17-.17-.4-.26-.65-.26,0,0,0,0-.01,0-.25,0-.48.1-.65.28-.17.18-.27.41-.26.66,0,.25.1.48.28.65l4.88,4.76h0Z"/>
          </g>
          <path class="cls-4" d="m35.7,55.64c2.45,0,4.44-1.99,4.44-4.44,0-.84-.24-1.66-.68-2.37-.82-1.29-2.22-2.07-3.75-2.07-2.45,0-4.44,1.99-4.44,4.44s1.99,4.44,4.44,4.44h0Z"/>
          <path class="cls-4" d="m14.89,30.39c5.56-5.56,12.95-8.62,20.81-8.62s15.25,3.06,20.81,8.62c5.56,5.56,8.62,12.95,8.62,20.81s-3.06,15.25-8.62,20.81c-5.56,5.56-12.95,8.62-20.81,8.62s-15.25-3.06-20.81-8.62c-5.56-5.56-8.62-12.95-8.62-20.81s3.06-15.25,8.62-20.81h0Zm20.81,54.61c18.64,0,33.8-15.16,33.8-33.8s-15.16-33.8-33.8-33.8S1.9,32.56,1.9,51.2s15.16,33.8,33.8,33.8h0Z"/>
        </g>
      </g>
    </g>
  </g>
</svg>