<?xml version="1.0" encoding="UTF-8"?>
<svg id="Capa_2" data-name="Capa 2" xmlns="http://www.w3.org/2000/svg" xmlns:xlink="http://www.w3.org/1999/xlink" viewBox="0 0 85 43.55">
  <defs>
    <style>
      .cls-1 {
        clip-path: url(#clippath);
      }

      .cls-2 {
        fill: none;
      }

      .cls-3 {
        fill: #515151;
      }
    </style>
    <clipPath id="clippath">
      <rect class="cls-2" width="85" height="43.55"/>
    </clipPath>
  </defs>
  <g id="Layer_1" data-name="Layer 1">
    <g id="NewGroupe35">
      <g id="NewGroup0-24">
        <g class="cls-1">
          <path class="cls-3" d="m10.57,23.19c1.43,0,2.67-1.01,2.96-2.4.04-.2.06-.41.06-.62,0-1.67-1.36-3.02-3.02-3.02-.27,0-.53.03-.78.1-1.32.35-2.24,1.55-2.24,2.92,0,1.67,1.36,3.02,3.02,3.02h0Z"/>
          <path class="cls-3" d="m9.08,14.58c.48-.13.99-.2,1.5-.2,3.19,0,5.79,2.6,5.79,5.79,0,.4-.04.79-.12,1.18-.56,2.67-2.94,4.61-5.67,4.61-3.19,0-5.79-2.6-5.79-5.79,0-2.62,1.77-4.92,4.29-5.6h0ZM22.37,3.65c.79-.83,1.99-1.1,3.06-.7l49.21,18.7c.61.23,1.13.68,1.46,1.25l5.76,10.14c.77,1.36.3,3.09-1.06,3.87,0,0,0,0,0,0-.37.21-.76.33-1.18.36-1.09.08-2.14-.48-2.68-1.43l-5.01-8.82c-.16-.28-.41-.5-.71-.61L26.04,9.25c-.16-.06-.33-.09-.49-.09-.37,0-.74.15-1,.43l-4.9,5.14s0-.01-.01-.02c-.05-.09-.11-.18-.16-.26,0,0-.01-.02-.02-.02-.06-.1-.13-.19-.19-.28-.02-.03-.04-.05-.06-.08-.05-.07-.09-.13-.14-.2-.02-.03-.05-.06-.07-.1-.04-.06-.09-.12-.13-.17-.03-.03-.05-.07-.08-.1-.04-.06-.09-.11-.14-.16-.03-.03-.06-.07-.08-.1-.05-.06-.1-.11-.15-.16-.03-.03-.05-.06-.08-.09-.06-.06-.11-.12-.17-.18-.02-.02-.04-.05-.07-.07-.16-.16-.33-.32-.5-.47-.02-.02-.04-.03-.06-.05-.07-.06-.13-.12-.2-.17-.03-.02-.05-.04-.08-.07-.06-.05-.12-.1-.19-.15-.03-.02-.06-.05-.09-.07-.06-.05-.12-.09-.19-.14-.03-.02-.06-.04-.09-.06-.07-.05-.13-.09-.2-.14-.03-.02-.05-.04-.08-.06-.08-.05-.15-.1-.23-.15-.02-.01-.04-.02-.06-.04-.2-.12-.4-.24-.6-.35,0,0,0,0-.01,0l6.84-7.18h0Zm32.34,27.33h-23.16V14.31l23.16,8.8v7.87h0Zm-44.14-.23c5.83,0,10.57-4.74,10.57-10.57,0-.9-.11-1.79-.34-2.65l5.1-5.36,2.87,1.09v28.85c0,.77.62,1.39,1.39,1.39s1.39-.62,1.39-1.39v-4.61h23.16v4.66c0,.77.62,1.39,1.39,1.39s1.39-.62,1.39-1.39v-17.99l12.27,4.66,4.77,8.38c1,1.75,2.88,2.84,4.88,2.84.14,0,.28,0,.42-.02.83-.06,1.61-.3,2.34-.72h0c2.69-1.53,3.63-4.96,2.1-7.64l-5.76-10.14c-.64-1.13-1.67-2.01-2.88-2.47L26.41.37c-2.11-.8-4.49-.26-6.05,1.38l-7.68,8.07c-.69-.14-1.4-.21-2.11-.21C4.74,9.6,0,14.34,0,20.17s4.74,10.57,10.57,10.57h0Z"/>
        </g>
      </g>
    </g>
  </g>
</svg>