<?xml version="1.0" encoding="UTF-8"?>
<svg id="Capa_2" data-name="Capa 2" xmlns="http://www.w3.org/2000/svg" xmlns:xlink="http://www.w3.org/1999/xlink" viewBox="0 0 74.86 84.99">
  <defs>
    <style>
      .cls-1 {
        clip-path: url(#clippath);
      }

      .cls-2 {
        fill: none;
      }

      .cls-3 {
        fill: #515151;
      }
    </style>
    <clipPath id="clippath">
      <rect class="cls-2" width="74.86" height="84.99"/>
    </clipPath>
  </defs>
  <g id="Layer_1" data-name="Layer 1">
    <g id="NewGroupe47">
      <g id="NewGroup0-12">
        <g class="cls-1">
          <path class="cls-3" d="m36.77,80.42c2.93,0,5.32-2.38,5.32-5.31s-2.39-5.31-5.32-5.31-5.32,2.38-5.32,5.31,2.39,5.31,5.32,5.31h0Z"/>
          <path class="cls-3" d="m49.37,5.95l-3.56,19.48c-.01.06-.02.11-.02.17l-1.31,25.38c-.03.53.26,1.02.74,1.25s1.04.16,1.44-.19l9.01-7.82c.31-.27.64-.32.86-.32.44,0,.85.2,1.15.56.65.97.57,2.47-.17,3.31,0,0-.02.02-.02.03l-10.66,12.74c-1.06,1.27-2.43,1.97-3.86,1.97h-11.76c-1.37,0-2.69-.65-3.74-1.83l-11.56-13.07c-.71-.81-.74-2.26-.05-3.12l.14-.18c.23-.29.55-.47.9-.5.04,0,.07,0,.1,0,.27,0,.52.09.73.27l9.91,8.6c.4.35.97.42,1.44.19.47-.23.76-.72.74-1.25l-1.39-26.46c0-.06,0-.11-.02-.17l-3.48-19.04c-.28-1.46.38-2.96,1.43-3.27.35-.1.7-.06,1.03.14.52.3.92.9,1.09,1.65l2.58,11.03s0,0,0,0l2.16,9.23c.14.59.67,1.01,1.27,1.02l5.28.03c.61,0,1.15-.42,1.29-1.02l2.16-9.24,2.59-11.06c.25-1.08.98-1.84,1.76-1.84.12,0,.24.02.36.05,1.05.31,1.71,1.81,1.43,3.28h0Zm-9.08,10.58l-1.54,6.6-3.19-.02-1.54-6.58h6.27Zm28.38,68.45h2.99c1.77,0,3.21-1.44,3.21-3.21V7.92c0-1.77-1.44-3.21-3.21-3.21h-2.99c-1.77,0-3.21,1.44-3.21,3.21v5.98h-14.86l1.36-7.47c.54-2.82-.9-5.58-3.27-6.28-.36-.11-.74-.16-1.11-.16-2.01,0-3.79,1.59-4.33,3.87l-2.35,10.04h-7.51l-2.35-10.04c-.34-1.45-1.19-2.66-2.33-3.32-.96-.56-2.06-.69-3.11-.38-2.37.71-3.81,3.47-3.27,6.28l1.37,7.48h-14.31v-5.98c0-1.77-1.44-3.21-3.21-3.21h-2.99C1.43,4.71-.01,6.15-.01,7.92v73.85c0,1.77,1.44,3.21,3.21,3.21h2.99c1.77,0,3.21-1.44,3.21-3.21V16.53h14.79l1.62,8.84,1.22,23.28-7.57-6.57c-.77-.67-1.77-.99-2.79-.9-1.05.1-2.04.63-2.72,1.48l-.14.18c-1.49,1.87-1.43,4.73.14,6.51l11.56,13.07c1.55,1.75,3.58,2.72,5.71,2.72h11.76c2.22,0,4.3-1.03,5.88-2.91l10.65-12.73c1.53-1.75,1.67-4.63.32-6.58-.02-.02-.03-.05-.05-.07-.8-1-1.98-1.58-3.23-1.58-.95,0-1.87.34-2.59.97l-6.67,5.79,1.15-22.21,1.7-9.29h15.34v65.24c0,1.77,1.44,3.21,3.21,3.21h0Z"/>
        </g>
      </g>
    </g>
  </g>
</svg>