<?xml version="1.0" encoding="UTF-8"?>
<svg id="Capa_2" data-name="Capa 2" xmlns="http://www.w3.org/2000/svg" xmlns:xlink="http://www.w3.org/1999/xlink" viewBox="0 0 84.99 84.04">
  <defs>
    <style>
      .cls-1 {
        clip-path: url(#clippath);
      }

      .cls-2 {
        fill: none;
      }

      .cls-3 {
        fill: #515151;
      }
    </style>
    <clipPath id="clippath">
      <rect class="cls-2" width="84.99" height="84.04"/>
    </clipPath>
  </defs>
  <g id="Layer_1" data-name="Layer 1">
    <g id="NewGroupe59">
      <g id="NewGroup0-0">
        <g>
          <g class="cls-1">
            <path class="cls-3" d="m81.64,0h-3.13c-1.85,0-3.36,1.51-3.36,3.36v6.26h-11.62c-.76,0-1.38.62-1.38,1.38s.62,1.38,1.38,1.38h11.62v68.3c0,1.85,1.51,3.36,3.36,3.36h3.13c1.85,0,3.36-1.51,3.36-3.36V3.36c0-1.85-1.51-3.36-3.36-3.36h0Z"/>
          </g>
          <path class="cls-3" d="m6.49,84.04c1.85,0,3.36-1.51,3.36-3.36V12.38h10.33c.76,0,1.38-.62,1.38-1.38s-.62-1.38-1.38-1.38h-10.33V3.36c0-1.85-1.51-3.36-3.36-3.36h-3.13C1.51,0,0,1.51,0,3.36v77.31c0,1.85,1.51,3.36,3.36,3.36h3.13Z"/>
          <path class="cls-3" d="m30.76,34.83c0,2.64-2.15,4.8-4.8,4.8s-4.8-2.15-4.8-4.8,2.15-4.8,4.8-4.8,4.8,2.15,4.8,4.8h0ZM25.96,1.92c-.76,0-1.38.62-1.38,1.38v17.87c-6.92.69-12.35,6.55-12.35,13.66,0,7.57,6.16,13.73,13.73,13.73s13.73-6.16,13.73-13.73c0-7.1-5.42-12.96-12.35-13.66V3.3c0-.76-.62-1.38-1.38-1.38h0Z"/>
          <path class="cls-3" d="m63.83,34.83c0,2.64-2.15,4.8-4.8,4.8s-4.8-2.15-4.8-4.8,2.15-4.8,4.8-4.8,4.8,2.15,4.8,4.8h0ZM59.04,1.92c-.76,0-1.38.62-1.38,1.38v17.87c-6.92.69-12.35,6.55-12.35,13.66,0,7.57,6.16,13.73,13.73,13.73s13.73-6.16,13.73-13.73c0-7.1-5.42-12.96-12.35-13.66V3.3c0-.76-.62-1.38-1.38-1.38h0Z"/>
          <path class="cls-3" d="m54.68,12.38c.76,0,1.38-.62,1.38-1.38s-.62-1.38-1.38-1.38h-23.84c-.76,0-1.38.62-1.38,1.38s.62,1.38,1.38,1.38h23.84Z"/>
        </g>
      </g>
    </g>
  </g>
</svg>