<?xml version="1.0" encoding="UTF-8"?>
<svg id="Capa_2" data-name="Capa 2" xmlns="http://www.w3.org/2000/svg" xmlns:xlink="http://www.w3.org/1999/xlink" viewBox="0 0 84.99 51.73">
  <defs>
    <style>
      .cls-1 {
        clip-path: url(#clippath);
      }

      .cls-2 {
        fill: none;
      }

      .cls-3 {
        fill: #515151;
      }
    </style>
    <clipPath id="clippath">
      <rect class="cls-2" width="84.99" height="51.73"/>
    </clipPath>
  </defs>
  <g id="Layer_1" data-name="Layer 1">
    <g id="NewGroupe20">
      <g id="NewGroup0-39">
        <g>
          <g class="cls-1">
            <path class="cls-3" d="m62.89,9.09c.97-2.5,2.86-4.48,5.31-5.56.73-.32,1.59,0,1.92.74.32.73,0,1.59-.74,1.92-1.75.77-3.09,2.18-3.78,3.96-.69,1.78-.65,3.72.13,5.47.32.73,0,1.59-.74,1.92-.19.08-.39.12-.59.12-.56,0-1.09-.32-1.33-.87-1.08-2.46-1.15-5.19-.18-7.69h0Zm1.39,13.55c3.73,3,8.75,3.66,13.12,1.73,6.42-2.83,9.34-10.36,6.5-16.78h0c-2.1-4.75-6.77-7.59-11.66-7.59-1.71,0-3.45.35-5.12,1.08-4.4,1.94-7.3,6.14-7.57,10.95-.11,2.01.25,3.98,1.07,5.84.83,1.89,2.06,3.49,3.66,4.77h0Z"/>
            <path class="cls-3" d="m9.83,32.47c-3.61,1.59-5.24,5.82-3.65,9.43.32.73,0,1.59-.74,1.92-.19.08-.39.12-.59.12-.56,0-1.09-.32-1.33-.87-2.24-5.07.07-11.02,5.14-13.26.73-.32,1.59,0,1.92.74.32.73,0,1.59-.74,1.92h0Zm10.75-3.47c-2.29-1.79-5.06-2.72-7.86-2.72-1.74,0-3.49.36-5.14,1.09C1.15,30.2-1.76,37.73,1.07,44.15c2.1,4.75,6.77,7.59,11.66,7.59,1.71,0,3.45-.35,5.12-1.08,4.28-1.89,7.17-5.96,7.55-10.63.17-2.09-.19-4.22-1.05-6.15h0c-.84-1.91-2.15-3.59-3.78-4.87h0Z"/>
          </g>
          <path class="cls-3" d="m26.54,26.51c4.23-2.65,8.69-5.01,13.26-7.01,4.49-1.97,9.16-3.63,13.89-4.94.77-.21,1.23-1.01,1.01-1.79-.21-.77-1.01-1.23-1.79-1.01-4.86,1.35-9.66,3.05-14.28,5.08-4.7,2.06-9.28,4.49-13.63,7.21-.68.43-.89,1.32-.46,2,.28.44.75.68,1.23.68.26,0,.53-.07.77-.22h0Z"/>
          <path class="cls-3" d="m31.68,40.12c.13,0,.27-.02.4-.06,4.85-1.39,9.65-3.12,14.27-5.16,4.81-2.12,9.51-4.61,13.97-7.39.68-.42.89-1.32.46-2-.43-.68-1.32-.89-2-.46-4.34,2.71-8.92,5.13-13.6,7.2-4.5,1.98-9.17,3.68-13.89,5.03-.77.22-1.22,1.02-1,1.8.18.64.76,1.05,1.4,1.05h0Z"/>
        </g>
      </g>
    </g>
  </g>
</svg>