<?xml version="1.0" encoding="UTF-8"?>
<svg id="Capa_2" data-name="Capa 2" xmlns="http://www.w3.org/2000/svg" viewBox="0 0 42.91 85">
  <defs>
    <style>
      .cls-1 {
        fill: #515151;
      }
    </style>
  </defs>
  <g id="Layer_1" data-name="Layer 1">
    <g id="NewGroupe10">
      <g id="NewGroup0-49">
        <g>
          <path class="cls-1" d="m42.91,15.07c0-.61-.5-1.11-1.11-1.11H1.11c-.61,0-1.11.5-1.11,1.11v7.39c0,.61.5,1.11,1.11,1.11h.35c2.23,0,4.04,1.81,4.04,4.04v15.36c0,2.23-1.81,4.04-4.04,4.04h-.35c-.61,0-1.11.5-1.11,1.11v6.33c0,.61.5,1.11,1.11,1.11h.35c2.23,0,4.04,1.81,4.04,4.04v15.36c0,2.23-1.81,4.04-4.04,4.04h-.35c-.61,0-1.11.5-1.11,1.11v3.75c0,.61.5,1.11,1.11,1.11h40.68c.61,0,1.11-.5,1.11-1.11v-3.75c0-.3-.12-.58-.33-.79-.21-.21-.49-.33-.79-.33-1.13,0-2.2-.48-2.96-1.29h-11.91c-3.83,0-6.94-3.11-6.94-6.94V30.86c0-3.83,3.11-6.94,6.94-6.94h13.22c.51-.23,1.08-.35,1.65-.35.61,0,1.11-.5,1.11-1.11v-7.39h0Z"/>
          <path class="cls-1" d="m37.75,27.61c0-.07,0-.13,0-.2,0-.02,0-.04,0-.06,0-.04,0-.09,0-.13,0-.02,0-.05,0-.07,0-.04,0-.08.01-.12,0-.03,0-.05.01-.08,0-.03.01-.07.02-.1h-10.89c-2.21,0-4.01,1.8-4.01,4.01v39.93c0,2.21,1.8,4.01,4.01,4.01h10.82v-15.18c0-.07,0-.13,0-.2.05-1.01.46-1.94,1.18-2.66.76-.76,1.78-1.18,2.86-1.18h0c.34,0,.65-.16.85-.4.17-.21.26-.47.26-.73v-6.31c0-.3-.12-.58-.33-.79-.21-.21-.49-.33-.79-.33-.02,0-.03,0-.05,0-1.04,0-2.03-.41-2.78-1.15-.15-.14-.28-.3-.4-.46-.51-.68-.81-1.52-.81-2.43v-15.36h0Z"/>
          <path class="cls-1" d="m22.98,0h-3.05c-2.2,0-3.98,1.79-3.98,3.98v7.04h11.02V3.98c0-2.2-1.79-3.98-3.98-3.98h0Z"/>
        </g>
      </g>
    </g>
  </g>
</svg>