<?xml version="1.0" encoding="UTF-8"?>
<svg id="Capa_2" data-name="Capa 2" xmlns="http://www.w3.org/2000/svg" xmlns:xlink="http://www.w3.org/1999/xlink" viewBox="0 0 85 57.81">
  <defs>
    <style>
      .cls-1 {
        clip-path: url(#clippath);
      }

      .cls-2 {
        fill: none;
      }

      .cls-3 {
        fill: #515151;
      }
    </style>
    <clipPath id="clippath">
      <rect class="cls-2" width="85" height="57.81"/>
    </clipPath>
  </defs>
  <g id="Layer_1" data-name="Layer 1">
    <g id="NewGroupe6">
      <g id="NewGroup0-53">
        <g>
          <g class="cls-1">
            <path class="cls-3" d="m84.97,53.66s0-.02-.01-.03c0-.01,0-.02-.01-.03,0,0,0-.02-.01-.03,0-.01,0-.02-.01-.03,0-.01-.01-.02-.02-.03,0-.01-.01-.02-.02-.03,0-.01-.01-.02-.02-.03,0-.01-.01-.02-.02-.03,0-.01-.02-.02-.02-.03,0-.01-.02-.02-.02-.03,0-.01-.02-.02-.03-.03s-.02-.02-.03-.03c0-.01-.02-.02-.03-.04-.01-.01-.02-.02-.03-.04-.01-.01-.02-.02-.03-.04-.01-.01-.02-.02-.03-.04-.01-.01-.03-.02-.04-.04-.01-.01-.02-.02-.04-.04-.01-.01-.03-.03-.04-.04-.01-.01-.03-.03-.04-.04-.01-.01-.03-.03-.04-.04-.01-.01-.03-.03-.05-.04-.02-.01-.03-.03-.05-.04-.02-.01-.03-.03-.05-.04-.02-.01-.03-.03-.05-.04-.02-.01-.03-.03-.05-.04-.02-.01-.04-.03-.06-.04-.02-.01-.04-.03-.06-.04-.02-.01-.04-.03-.06-.04-.02-.01-.04-.03-.06-.04-.02-.01-.04-.03-.06-.04-.02-.01-.04-.03-.06-.04-.02-.01-.04-.03-.07-.04-.02-.01-.05-.03-.07-.04-.02-.01-.05-.03-.07-.04-.02-.01-.05-.03-.07-.04-.02-.01-.05-.03-.07-.04-.03-.01-.05-.03-.08-.04-.02-.01-.05-.03-.08-.04-.03-.01-.05-.03-.08-.04-.03-.01-.05-.03-.08-.04-.03-.01-.06-.03-.09-.04-.03-.01-.06-.03-.08-.04-.03-.01-.06-.03-.09-.04-.03-.01-.06-.03-.09-.04-.03-.01-.06-.03-.1-.04-.03-.01-.06-.03-.09-.04-.03-.01-.07-.03-.1-.04-.03-.01-.06-.03-.1-.04-.03-.01-.07-.03-.1-.04-.03-.01-.07-.03-.1-.04-.04-.01-.07-.03-.11-.04-.04-.01-.07-.03-.11-.04-.04-.01-.07-.03-.11-.04-.04-.01-.07-.03-.11-.04-.04-.01-.08-.03-.12-.04-.04-.01-.07-.03-.11-.04-.04-.01-.08-.03-.12-.04-.04-.01-.08-.03-.12-.04-.04-.01-.08-.03-.13-.04-.05-.02-.1-.03-.14-.05-.04-.01-.07-.02-.11-.04-.09-.03-.17-.05-.26-.08-2.85-.86-6.55-1.33-10.43-1.33-4.17,0-8.08.54-11,1.51-.17.06-.34.12-.5.17-2.4.88-3.28,1.85-3.28,2.31,0,.02,0,.04,0,.06,0,0,0,.01,0,.02,0,.01,0,.03,0,.04,0,0,0,.02,0,.03,0,.01,0,.03.01.04,0,0,0,.02.01.03,0,.01.01.03.02.04,0,.01.01.02.02.03,0,.01.01.03.02.04,0,.01.02.02.02.04,0,.01.02.03.03.04,0,.01.02.03.03.04.01.02.02.03.03.05.01.01.02.03.03.04.01.02.03.03.04.05.01.01.03.03.04.04.01.02.03.03.05.05.01.01.03.03.05.05.02.02.03.03.05.05.02.02.03.03.05.05.02.02.04.03.06.05.02.02.04.03.06.05.02.02.04.04.07.05.02.02.04.03.06.05.02.02.05.04.07.06.02.02.04.03.07.05.03.02.05.04.08.06.02.02.05.03.07.05.03.02.06.04.09.06.02.02.05.03.07.05.03.02.07.04.1.06,0,0,.01,0,.02,0,2.65,1.59,7.8,2.58,13.43,2.58,4.17,0,8.08-.54,11-1.51,2.77-.92,3.78-1.99,3.78-2.48,0-.05,0-.1-.03-.15,0,0,0,0,0-.01h0Z"/>
          </g>
          <path class="cls-3" d="m34.81,3.43s.05-.07.08-.11h0v-.97c0-.78.63-1.4,1.4-1.4s1.4.63,1.4,1.4v.97c0,.34-.12.66-.33.9,0,.27-.08.55-.25.8-.98,1.43-2.04,3.42-1.53,4.82.13.35.32.58.6.92.36.43.8.97,1.17,1.82.77,1.78.74,3.87-.08,6.18-.2.58-.75.94-1.32.94-.16,0-.31-.03-.47-.08-.73-.26-1.12-1.06-.86-1.79.58-1.63.63-3.02.15-4.14-.21-.48-.46-.79-.75-1.14-.37-.44-.78-.94-1.07-1.74-.75-2.03-.13-4.52,1.85-7.39h0Zm4.08,2.77h8.33c.78,0,1.4.63,1.4,1.4s-.63,1.4-1.4,1.4h-.48s0,0,0,0h-7.85c-.78,0-1.4-.63-1.4-1.4h0c0-.78.63-1.4,1.4-1.4h0Zm8.93-3.85c0-.78.63-1.4,1.4-1.4s1.4.63,1.4,1.4v.97c0,.14-.02.27-.06.39,1.82,2.75,2.38,5.14,1.65,7.11-.29.79-.71,1.3-1.07,1.74-.29.35-.54.65-.75,1.14-.48,1.12-.43,2.51.15,4.14.26.73-.13,1.53-.86,1.79-.15.05-.31.08-.47.08-.58,0-1.12-.36-1.32-.94-.82-2.32-.84-4.4-.08-6.18.37-.86.81-1.39,1.17-1.82.29-.35.48-.57.6-.92.52-1.4-.54-3.39-1.53-4.82-.26-.38-.31-.84-.17-1.25-.05-.14-.08-.29-.08-.45v-.97h0ZM.62,49.6c.08-.04.17-.08.25-.12.03-.01.06-.03.09-.04.08-.04.17-.08.25-.11.02,0,.04-.02.07-.03.11-.05.21-.09.32-.14.03-.01.05-.02.08-.03.09-.04.17-.07.26-.11.03-.01.07-.03.1-.04.1-.04.2-.07.3-.11.02,0,.04-.01.05-.02.12-.04.24-.08.36-.13.03-.01.07-.02.1-.03.09-.03.19-.06.28-.09.04-.01.07-.02.11-.04.13-.04.26-.08.39-.12,3.09-.91,7.04-1.42,11.14-1.42,4.47,0,8.69.59,11.88,1.65.15.05.3.1.45.15.05.02.1.04.15.05.09.03.19.07.28.1.06.02.11.04.16.06.08.03.16.06.24.1.06.02.11.05.16.07.07.03.14.06.21.09.05.02.11.05.16.07.07.03.13.06.2.09.05.02.1.05.15.07.06.03.12.06.19.09.05.03.1.05.14.08.06.03.12.06.17.09.05.03.09.05.14.08.06.03.11.06.16.09.04.03.09.05.13.08.05.03.1.06.15.1.04.03.08.05.12.08.05.03.1.07.14.1.04.02.07.05.11.08.05.03.09.07.14.1.03.02.07.05.1.07.05.04.09.07.13.11.03.02.06.05.08.07.05.04.09.08.13.12.02.02.05.04.07.06.05.05.11.1.16.15,0,0,.02.02.03.03.06.06.12.12.17.18.01.01.02.02.03.03.04.05.08.09.12.14,0,0,0,0,0,0l5.68-11.6c1-2.04,3.03-3.31,5.31-3.31h0c2.27,0,4.31,1.27,5.31,3.31l5.73,11.71s.06-.08.09-.12c0,0,.01-.02.02-.02.04-.05.09-.1.13-.15,0,0,.01-.01.02-.02.05-.05.09-.1.14-.15,0,0,0,0,.01-.01.05-.05.1-.1.16-.15,0,0,.02-.02.03-.02.05-.05.11-.1.16-.14.01,0,.02-.02.03-.03.06-.05.12-.1.18-.14.01,0,.02-.02.04-.03.06-.05.13-.1.19-.15,0,0,.02-.01.03-.02.07-.05.14-.1.21-.15,0,0,0,0,.01,0,.07-.05.15-.1.23-.15.01,0,.02-.02.04-.02.08-.05.16-.09.24-.14.02,0,.03-.02.05-.03.08-.05.16-.09.25-.14.02,0,.03-.02.05-.03.09-.05.18-.09.27-.14.01,0,.03-.01.04-.02.1-.05.19-.1.3-.15,0,0,0,0,0,0,.1-.05.21-.1.32-.15.01,0,.03-.01.04-.02.1-.05.21-.09.32-.14.02,0,.04-.02.06-.02.11-.04.22-.09.34-.13.02,0,.04-.02.06-.02.12-.04.24-.09.36-.13.02,0,.03-.01.05-.02.13-.05.26-.09.4-.14,3.2-1.07,7.42-1.65,11.88-1.65,4.15,0,8.14.51,11.24,1.45.13.04.26.08.39.12.04.01.08.02.11.04.1.03.19.06.29.1.03.01.07.02.1.03.12.04.25.09.36.13.02,0,.04.01.05.02.1.04.2.08.3.12.03.01.07.03.1.04.09.04.18.07.27.11.03.01.05.02.08.03.11.05.22.09.32.14.02.01.05.02.07.03.08.04.17.08.25.12.03.01.06.03.09.04.09.04.17.08.25.13.01,0,.02.01.04.02l-9.74-38.33c-.35-1.37-1.58-2.34-3-2.34h-16.9s0,0,0,0h-.56c-.78,0-1.4-.63-1.4-1.4s.63-1.4,1.4-1.4h17.46s0,0,.01,0h1.31c.37,0,.67-.3.67-.67V.67c0-.37-.3-.67-.67-.67H13.71c-.37,0-.67.3-.67.67v4.86c0,.37.3.67.67.67h.88s0,0,.01,0h16.28c.78,0,1.4.63,1.4,1.4s-.63,1.4-1.4,1.4h-.72s0,0,0,0h-15.55c-1.37,0-2.6.92-2.98,2.24L.58,49.62s.03-.01.04-.02h0Z"/>
          <path class="cls-3" d="m14.78,57.81c5.64,0,10.95-1.04,13.53-2.64.8-.5,1.15-.95,1.23-1.24.01-.04.02-.08.02-.11,0-.46-.88-1.43-3.28-2.31-.16-.06-.33-.12-.5-.17-2.92-.97-6.82-1.51-11-1.51-3.83,0-7.5.46-10.34,1.3-2.87.85-4.16,1.88-4.4,2.5-.03.07-.04.13-.04.19,0,.49,1.01,1.56,3.78,2.48,2.92.97,6.82,1.51,11,1.51h0Z"/>
        </g>
      </g>
    </g>
  </g>
</svg>