<?xml version="1.0" encoding="UTF-8"?>
<svg id="Capa_2" data-name="Capa 2" xmlns="http://www.w3.org/2000/svg" xmlns:xlink="http://www.w3.org/1999/xlink" viewBox="0 0 85 51.18">
  <defs>
    <style>
      .cls-1 {
        clip-path: url(#clippath);
      }

      .cls-2 {
        fill: none;
      }

      .cls-3 {
        fill: #515151;
      }
    </style>
    <clipPath id="clippath">
      <rect class="cls-2" width="85" height="51.18"/>
    </clipPath>
  </defs>
  <g id="Layer_1" data-name="Layer 1">
    <g id="NewGroupe9">
      <g id="NewGroup0-50">
        <g class="cls-1">
          <path class="cls-3" d="m55.89,18.17c.35.04.69.06,1.03.06,4.5,0,8.39-3.38,8.91-7.96.27-2.38-.4-4.73-1.89-6.61-1.49-1.88-3.62-3.06-6.01-3.33-2.38-.27-4.73.4-6.61,1.89-1.88,1.49-3.06,3.62-3.33,6.01-.27,2.38.4,4.73,1.89,6.61,1.49,1.88,3.62,3.06,6.01,3.33h0Z"/>
          <path class="cls-3" d="m16.17,16.69c1.32.43,2.73.31,3.97-.32l9.33-4.78,7.19,7.39-10.84,6.99c-.62.4-.79,1.22-.4,1.83.25.39.68.61,1.12.61.25,0,.5-.07.72-.21l12.2-7.87c.33-.22.55-.57.6-.96.04-.4-.09-.79-.37-1.07l-9.01-9.26c-.41-.42-1.04-.52-1.56-.26l-10.21,5.23c-.61.31-1.3.37-1.94.16-.65-.21-1.17-.66-1.49-1.26-.64-1.25-.14-2.79,1.11-3.43l12.75-6.53c1-.51,2.2-.32,2.99.49,0,0,.02.02.03.03l24.41,23.6c.53.51,1.37.5,1.88-.03.51-.53.49-1.37-.03-1.88L34.23,1.56c-1.6-1.63-4.04-2.03-6.08-.99l-12.75,6.53c-2.55,1.31-3.56,4.45-2.26,7,.63,1.24,1.71,2.15,3.03,2.58h0Z"/>
          <path class="cls-3" d="m2.48,29.72c6.34,3.82,12.9,5.84,19.51,6.01.3,0,.6.01.89.01,5.32,0,8.94-1.25,12.45-2.45,3.74-1.29,7.26-2.5,12.78-2.15,4.29.27,7.13,1.33,9.87,2.34,2.84,1.05,5.55,2.06,9.41,2.06.62,0,1.27-.03,1.95-.08,4.66-.38,9.11-2,13.24-4.81.61-.41.76-1.24.35-1.84-.41-.61-1.24-.76-1.84-.35-3.74,2.55-7.77,4.02-11.96,4.36-4.36.35-7.08-.65-10.22-1.82-2.79-1.03-5.95-2.21-10.62-2.5-6.05-.39-9.99.97-13.81,2.29-3.64,1.25-7.07,2.43-12.41,2.3-6.14-.16-12.26-2.05-18.21-5.63-.63-.38-1.44-.18-1.82.45-.38.63-.18,1.44.45,1.82h0Z"/>
          <path class="cls-3" d="m82.95,43.88c-3.93,2.56-8.16,4.03-12.57,4.38-4.59.36-7.45-.65-10.75-1.83-2.91-1.03-6.21-2.2-11.09-2.5-6.3-.38-10.43.97-14.41,2.28-3.82,1.25-7.42,2.44-13.03,2.3-6.45-.16-12.88-2.06-19.11-5.65-.64-.37-1.45-.15-1.81.49-.37.63-.15,1.45.49,1.81,6.62,3.81,13.48,5.83,20.37,6,.32,0,.62.01.93.01,5.55,0,9.33-1.24,13-2.45,3.92-1.29,7.62-2.51,13.42-2.15,4.51.28,7.49,1.33,10.36,2.35,3.44,1.22,6.69,2.37,11.84,1.97,4.86-.38,9.5-1.99,13.81-4.8.61-.4.79-1.22.39-1.84-.4-.61-1.22-.79-1.84-.39h0Z"/>
          <path class="cls-3" d="m.66,37.43c6.62,3.81,13.48,5.83,20.37,6,.32,0,.62.01.93.01,5.55,0,9.33-1.24,13-2.45,3.92-1.29,7.62-2.51,13.42-2.15,4.51.28,7.49,1.33,10.36,2.35,3.44,1.22,6.69,2.37,11.84,1.97,4.86-.38,9.5-1.99,13.81-4.8.61-.4.79-1.22.39-1.84-.4-.61-1.22-.79-1.84-.39-3.93,2.56-8.16,4.03-12.57,4.38-4.59.36-7.45-.65-10.75-1.83-2.91-1.03-6.21-2.2-11.09-2.5-6.3-.38-10.43.97-14.41,2.28-3.82,1.25-7.42,2.44-13.03,2.3-6.45-.16-12.88-2.06-19.11-5.65-.63-.37-1.45-.15-1.81.49-.37.63-.15,1.45.49,1.81h0Z"/>
        </g>
      </g>
    </g>
  </g>
</svg>