<?xml version="1.0" encoding="UTF-8"?>
<svg id="Capa_2" data-name="Capa 2" xmlns="http://www.w3.org/2000/svg" xmlns:xlink="http://www.w3.org/1999/xlink" viewBox="0 0 84.41 85">
  <defs>
    <style>
      .cls-1 {
        clip-path: url(#clippath);
      }

      .cls-2 {
        fill: none;
      }

      .cls-3 {
        fill: #515151;
      }
    </style>
    <clipPath id="clippath">
      <rect class="cls-2" width="84.41" height="85"/>
    </clipPath>
  </defs>
  <g id="Layer_1" data-name="Layer 1">
    <g id="NewGroupe13">
      <g id="NewGroup0-46">
        <g>
          <path class="cls-3" d="m68.51,8.48c0-.66-.1-1.32-.31-1.94-.29-.87-.78-1.69-1.42-2.35-1.18-1.22-2.76-1.89-4.45-1.89s-3.4.74-4.57,2.02c0,0,0,0,0,0-.07.08-.14.16-.21.25-.41.5-.74,1.06-.97,1.66-.04.1-.08.2-.11.3-.21.63-.31,1.28-.31,1.94,0,3.41,2.77,6.18,6.18,6.18s6.18-2.77,6.18-6.18h0Z"/>
          <g class="cls-1">
            <path class="cls-3" d="m58.75,31.32l-3.39,3.57c-.21.22-.37.47-.49.75l-5.79,13.36c-.27.63-.28,1.33-.03,1.96.25.64.74,1.14,1.36,1.41.33.14.67.21,1.02.21,1.02,0,1.95-.61,2.35-1.55l5.52-12.72c.07-.15.16-.29.27-.41l1.67-1.76c.27-.28.64-.44,1.02-.44.39,0,.76.16,1.02.44l1.54,1.62c.14.15.25.33.32.53l4.17,12.52c.35,1.05,1.33,1.76,2.43,1.76.27,0,.55-.04.81-.13,1.34-.45,2.07-1.9,1.62-3.24l-4.45-13.36c-.12-.36-.31-.68-.57-.95l-3.39-3.57c-.25-.26-.39-.61-.39-.97v-9.79c0-.39.16-.76.44-1.03l7.71-7.25c.51-.48.81-1.16.81-1.87V2.56c0-1.41-1.15-2.56-2.56-2.56s-2.56,1.15-2.56,2.56v.1s.02.02.02.03c.08.1.17.2.25.31,0,0,0,0,0,0,.08.1.16.21.23.32.01.01.02.03.03.04.07.1.14.21.21.32.01.02.02.04.04.06.07.11.13.22.19.33,0,.01.01.03.02.04.06.11.12.22.17.33,0,.01.01.02.02.03.06.11.11.23.16.34,0,.02.02.04.03.07.05.11.1.23.14.34,0,.02.02.04.02.06.05.12.09.24.13.37.26.79.41,1.62.45,2.46,0,.12,0,.24,0,.36,0,1.4-.32,2.72-.89,3.9-1.46,3.02-4.55,5.1-8.11,5.1-4.96,0-9-4.04-9-9,0-.12,0-.24,0-.36.03-.84.18-1.67.45-2.47.05-.14.1-.28.15-.41.02-.04.04-.09.05-.13.04-.09.08-.18.12-.28.02-.05.05-.1.07-.15.04-.08.08-.17.12-.25.03-.05.05-.1.08-.15.04-.08.09-.16.13-.24.03-.05.05-.09.08-.14.05-.09.11-.18.16-.26.02-.04.05-.07.07-.11.08-.12.16-.24.25-.36.02-.02.03-.04.05-.06.06-.08.13-.17.19-.25v-.29c0-1.41-1.15-2.56-2.56-2.56s-2.56,1.15-2.56,2.56v7.85c0,.7.29,1.39.81,1.87l7.71,7.25c.28.27.44.64.44,1.03v9.79c0,.36-.14.71-.39.97h0Z"/>
            <path class="cls-3" d="m2.8,70.07h36v8.48H2.8v-8.48h0Zm0-11.29h36v8.48H2.8v-8.48h0Zm0-11.29h36v8.48H2.8v-8.48h0Zm0-11.29h36v8.48H2.8v-8.48h0Zm0-6.17c0-1.85,1.5-3.35,3.35-3.35h29.3c1.85,0,3.35,1.5,3.35,3.35v3.36H2.8v-3.36h0Zm0,51.96v-.61h36v.61c0,.78.63,1.41,1.41,1.41s1.41-.63,1.41-1.41V30.02c0-.76-.14-1.49-.39-2.17.24-.25.39-.6.39-.98V8.14c0-1.85,1.5-3.35,3.35-3.35.78,0,1.41-.63,1.41-1.41s-.63-1.41-1.41-1.41c-3.4,0-6.17,2.77-6.17,6.17v16.7c-.96-.63-2.11-.99-3.35-.99H6.15C2.75,23.85-.01,26.62-.01,30.02v51.96c0,.78.63,1.41,1.41,1.41s1.41-.63,1.41-1.41h0Z"/>
          </g>
          <path class="cls-3" d="m80.43,2.38c-.73-.28-1.54.09-1.82.82-.28.73.09,1.54.82,1.82,1.29.49,2.16,1.75,2.16,3.13v75.45c0,.78.63,1.41,1.41,1.41s1.41-.63,1.41-1.41V8.14c0-2.55-1.6-4.86-3.98-5.77h0Z"/>
        </g>
      </g>
    </g>
  </g>
</svg>