<?xml version="1.0" encoding="UTF-8"?>
<svg id="Capa_2" data-name="Capa 2" xmlns="http://www.w3.org/2000/svg" xmlns:xlink="http://www.w3.org/1999/xlink" viewBox="0 0 84.99 55.39">
  <defs>
    <style>
      .cls-1 {
        clip-path: url(#clippath);
      }

      .cls-2 {
        fill: none;
      }

      .cls-3 {
        fill: #515151;
      }
    </style>
    <clipPath id="clippath">
      <rect class="cls-2" width="84.99" height="55.39"/>
    </clipPath>
  </defs>
  <g id="Layer_1" data-name="Layer 1">
    <g id="NewGroupe44">
      <g id="NewGroup0-15">
        <g>
          <g class="cls-1">
            <path class="cls-3" d="m20.47,35.24c-2.92,0-5.29-2.37-5.29-5.29s2.37-5.29,5.29-5.29,5.29,2.37,5.29,5.29-2.37,5.29-5.29,5.29h0Zm-13.43,0c-2.92,0-5.29-2.37-5.29-5.29s2.37-5.29,5.29-5.29,5.29,2.37,5.29,5.29-2.37,5.29-5.29,5.29h0Zm27.26,5.81c-3.21-1.1-5.36-4.11-5.36-7.51v-7.88c0-3.21,1.91-6.08,4.87-7.32l4.99-2.09L-.01,0v55.39l38.11-13.04-3.79-1.3h0Z"/>
          </g>
          <path class="cls-3" d="m20.47,27.51c-1.35,0-2.45,1.1-2.45,2.45s1.1,2.45,2.45,2.45,2.45-1.1,2.45-2.45-1.1-2.45-2.45-2.45h0Z"/>
          <path class="cls-3" d="m65.53,24.66c2.92,0,5.29,2.37,5.29,5.29s-2.37,5.29-5.29,5.29-5.29-2.37-5.29-5.29,2.37-5.29,5.29-5.29h0Zm13.43,0c2.92,0,5.29,2.37,5.29,5.29s-2.37,5.29-5.29,5.29-5.29-2.37-5.29-5.29,2.37-5.29,5.29-5.29h0Zm-28.22-3.87c4.99,0,9.05,4.06,9.05,9.05,0,2.42-.94,4.69-2.65,6.4-1.71,1.71-3.98,2.65-6.4,2.65h-13.98l6.22,2.13s0,0,0,0l42,14.37V0l-49.66,20.79h15.41Z"/>
          <path class="cls-3" d="m7.04,27.51c-1.35,0-2.45,1.1-2.45,2.45s1.1,2.45,2.45,2.45,2.45-1.1,2.45-2.45-1.1-2.45-2.45-2.45h0Z"/>
          <path class="cls-3" d="m31.79,33.55c0,.9.23,1.75.65,2.49h18.3c1.66,0,3.21-.65,4.39-1.82,1.17-1.17,1.82-2.73,1.82-4.39,0-3.42-2.78-6.2-6.2-6.2h-18.53c-.27.63-.42,1.31-.42,2.02v7.88h0Z"/>
          <path class="cls-3" d="m65.53,32.4c1.35,0,2.45-1.1,2.45-2.45s-1.1-2.45-2.45-2.45-2.45,1.1-2.45,2.45,1.1,2.45,2.45,2.45h0Z"/>
          <path class="cls-3" d="m78.96,32.4c1.35,0,2.45-1.1,2.45-2.45s-1.1-2.45-2.45-2.45-2.45,1.1-2.45,2.45,1.1,2.45,2.45,2.45h0Z"/>
        </g>
      </g>
    </g>
  </g>
</svg>