<?xml version="1.0" encoding="UTF-8"?>
<svg id="Capa_2" data-name="Capa 2" xmlns="http://www.w3.org/2000/svg" viewBox="0 0 85 80.01">
  <defs>
    <style>
      .cls-1 {
        fill: #515151;
      }
    </style>
  </defs>
  <g id="Layer_1" data-name="Layer 1">
    <g id="NewGroupe55">
      <g id="NewGroup0-4">
        <g>
          <path class="cls-1" d="m11.43,39.13c0,.52.07,1.03.22,1.52.67,2.32,2.83,3.95,5.25,3.95.54,0,1.07-.08,1.58-.23,2.29-.69,3.89-2.84,3.89-5.24,0-3.02-2.45-5.47-5.47-5.47s-5.47,2.45-5.47,5.47h0Z"/>
          <path class="cls-1" d="m82.31,57.36H30.51v-11.9c0-3.19,2.59-5.78,5.78-5.78h46.03v17.68h0Zm0-26.26v5.9h-46.03c-4.67,0-8.46,3.8-8.46,8.46v4.44H2.69v-29.99c0-.74-.6-1.34-1.34-1.34s-1.34.6-1.34,1.34v58.75c0,.74.6,1.34,1.34,1.34s1.34-.6,1.34-1.34v-11.16h79.63v11.16c0,.74.6,1.34,1.34,1.34s1.34-.6,1.34-1.34V31.1c0-.74-.6-1.34-1.34-1.34s-1.34.6-1.34,1.34h0Z"/>
          <path class="cls-1" d="m26.91,16.32c-.21-.5-.7-.83-1.24-.83h-6.83c-.74,0-1.34.6-1.34,1.34s.6,1.34,1.34,1.34h3.59l-3.92,3.92c-.38.38-.5.96-.29,1.46.21.5.7.83,1.24.83h5.39c.74,0,1.34-.6,1.34-1.34s-.6-1.34-1.34-1.34h-2.14l3.92-3.92c.38-.38.5-.96.29-1.46h0Z"/>
          <path class="cls-1" d="m42.4,7.14c-.21-.5-.7-.83-1.24-.83h-6.83c-.74,0-1.34.6-1.34,1.34s.6,1.34,1.34,1.34h3.59l-3.92,3.92c-.38.38-.5.96-.29,1.46.21.5.7.83,1.24.83h5.39c.74,0,1.34-.6,1.34-1.34s-.6-1.34-1.34-1.34h-2.14l3.92-3.92c.38-.38.5-.96.29-1.46h0Z"/>
          <path class="cls-1" d="m20.94,1.34c0,.74.6,1.34,1.34,1.34h3.59l-3.92,3.92c-.38.38-.5.96-.29,1.46.21.5.7.83,1.24.83h5.39c.74,0,1.34-.6,1.34-1.34s-.6-1.34-1.34-1.34h-2.14l3.92-3.92c.38-.38.5-.96.29-1.46-.21-.5-.7-.83-1.24-.83h-6.83c-.74,0-1.34.6-1.34,1.34h0Z"/>
        </g>
      </g>
    </g>
  </g>
</svg>