<?xml version="1.0" encoding="UTF-8"?>
<svg id="Capa_2" data-name="Capa 2" xmlns="http://www.w3.org/2000/svg" viewBox="0 0 33.65 85">
  <defs>
    <style>
      .cls-1 {
        fill: #515151;
      }
    </style>
  </defs>
  <g id="Layer_1" data-name="Layer 1">
    <g id="NewGroupe16">
      <g id="NewGroup0-43">
        <g>
          <path class="cls-1" d="m30.71,10.55c0,.79-.64,1.44-1.44,1.44s-1.44-.64-1.44-1.44V2.89c0-.79.64-1.44,1.44-1.44s1.44.64,1.44,1.44v7.66h0Zm-8.5,0c0,.79-.64,1.44-1.44,1.44s-1.44-.64-1.44-1.44V2.89c0-.79.64-1.44,1.44-1.44s1.44.64,1.44,1.44v7.66h0Zm-8.5,0c0,.79-.64,1.44-1.44,1.44s-1.44-.64-1.44-1.44V2.89c0-.79.64-1.44,1.44-1.44s1.44.64,1.44,1.44v7.66h0Zm-8.5,0c0,.79-.64,1.44-1.44,1.44s-1.44-.64-1.44-1.44V2.89c0-.79.64-1.44,1.44-1.44s1.44.64,1.44,1.44v7.66h0Zm28.44-7.64c0-1.61-1.31-2.91-2.91-2.91H2.91C1.31,0,0,1.31,0,2.91v7.24c0,1.61,1.31,2.91,2.91,2.91h27.82c1.61,0,2.91-1.31,2.91-2.91V2.91h0Z"/>
          <polygon class="cls-1" points="8.19 15.94 8.19 22.78 25.46 22.78 25.46 15.94 8.19 15.94 8.19 15.94"/>
          <path class="cls-1" d="m7.07,41.62c.06,0,.12,0,.18,0,.49-1.44,1.75-2.48,3.22-2.48.3,0,.6.04.89.13.59-.37,1.28-.57,2-.57.35,0,.69.05,1.02.14.71-.61,1.63-.96,2.59-.96,1.41,0,2.69.75,3.39,1.91.07,0,.15,0,.22,0,1.8,0,3.29.75,3.96,1.87.18-.02.36-.03.54-.03,1.94,0,3.4,1.11,3.4,2.58,0,.25-.04.49-.12.71.4.47.67,1.06.74,1.71.42.49.65,1.1.65,1.73,0,1.15-.77,2.15-1.88,2.6.02.38-.02.77-.12,1.16-.36,1.43-1.44,2.46-2.65,2.7l-4.16,14.53c-.36,1.26-1.48,2.16-2.79,2.23l-2.12.12c-.06,0-.12,0-.17,0-1.38,0-2.58-.9-2.96-2.25l-4.07-14.56c-.74-.61-1.21-1.56-1.22-2.64-.34-.2-.64-.48-.89-.82-1-.57-1.64-1.64-1.64-2.82-1.18-.65-1.97-1.87-1.97-3.24,0-2.07,1.78-3.75,3.97-3.75h0ZM.08,75.17h33.31v-41.36H.08v13.05c.12.8.12,1.75,0,2.88v25.44H.08Z"/>
          <path class="cls-1" d="m6.92,46.24c.49.05.91.35,1.13.79.22.44.19.96-.06,1.38-.04.06-.05.12-.05.19,0,.18.12.31.25.35.34.12.62.36.78.68.02.03.03.06.05.08.45-.04.89.12,1.2.46.03.03.06.06.08.09.42.44.52,1.1.25,1.64-.05.09-.07.2-.07.31,0,.31.18.5.28.5,0,0,.04,0,.08-.03.38-.28.88-.36,1.33-.2.45.16.79.52.91.98.02.08.23.27.59.27.27,0,.48-.11.56-.22.27-.34.67-.53,1.1-.54.42,0,.84.18,1.12.51.07.08.37.25.83.25s.76-.17.83-.24c.22-.48.69-.8,1.22-.83.03,0,.06,0,.09,0,.51,0,.98.27,1.24.71.13.23.36.36.62.36.4,0,.72-.32.72-.72,0-.02,0-.05,0-.08-.07-.66.32-1.28.94-1.5.62-.22,1.31,0,1.68.55.1-.06.28-.24.36-.56.09-.37-.01-.63-.08-.7-.41-.43-.51-1.07-.25-1.6v-.03c.31-.63,1.03-.96,1.7-.77.12.03.27.03.37,0-.37-.32-.55-.82-.47-1.31,0-.02,0-.04,0-.05,0-.17-.13-.3-.3-.31-.71-.02-1.3-.54-1.39-1.24-.04-.31.02-.62.16-.88-.09.02-.17.04-.24.07-.47.2-1.01.14-1.43-.17-.11-.08-.23-.17-.35-.24-.37-.24-.61-.64-.64-1.08-.12-.14-.62-.45-1.48-.45-.27,0-.53.03-.77.09-.38.1-.79.04-1.12-.17-.33-.21-.57-.55-.64-.94-.1-.51-.55-.88-1.08-.88-.4,0-.76.22-.96.56-.2.36-.55.61-.95.7-.4.08-.83,0-1.16-.26-.11-.08-.29-.18-.54-.18-.27,0-.52.12-.7.32-.5.59-1.37.68-1.98.2-.11-.08-.18-.08-.21-.08-.23,0-.56.37-.56.94,0,.08,0,.17.02.25.1.56-.14,1.13-.61,1.45-.47.32-1.09.33-1.57.02-.2-.12-.43-.19-.67-.19-.6,0-1.1.4-1.1.88,0,.43.42.81.95.87h0Z"/>
          <path class="cls-1" d="m16.81,59.35c.08,0,.16-.05.19-.13l1.09-2.68c-.26.05-.53.07-.81.07-.68,0-1.34-.15-1.9-.41-.01,0-.03.01-.04.02l1.28,3.01c.03.08.11.13.19.13h0Z"/>
          <path class="cls-1" d="m21.16,56.6l-1.5,3.69c-.47,1.17-1.59,1.92-2.85,1.92s-2.35-.73-2.83-1.87l-1.71-4s-.05-.02-.07-.03l3.46,12.36c.03.09.11.16.21.15l2.12-.12c.09,0,.16-.07.19-.15l3.42-11.97c-.11,0-.22.02-.33.02-.04,0-.07,0-.11,0h0Z"/>
          <path class="cls-1" d="m.04,80.23c0,2.63,2.14,4.77,4.77,4.77h23.68c2.82,0,5.12-2.3,5.12-5.12v-1.84H.04v2.19H.04Z"/>
          <path class="cls-1" d="m33.61,30.42c0-2.63-2.14-4.77-4.77-4.77H4.81C2.18,25.65.04,27.79.04,30.42v.51h33.57v-.51h0Z"/>
        </g>
      </g>
    </g>
  </g>
</svg>