<?xml version="1.0" encoding="UTF-8"?>
<svg id="Capa_2" data-name="Capa 2" xmlns="http://www.w3.org/2000/svg" viewBox="0 0 69.19 85">
  <defs>
    <style>
      .cls-1 {
        fill: #515151;
      }
    </style>
  </defs>
  <g id="Layer_1" data-name="Layer 1">
    <g id="NewGroupe11">
      <g id="NewGroup0-48">
        <g>
          <path class="cls-1" d="m13.06,39.3h9.24c4.13,0,7.49,2.98,7.49,6.64v2.12c0,3.66-3.36,6.64-7.49,6.64h-4.25c-2.44,0-4.42,1.6-4.42,3.58v.81c0,1.97,1.98,3.58,4.42,3.58h33.1c2.44,0,4.42-1.6,4.42-3.58v-.81c0-1.97-1.98-3.58-4.42-3.58h-4.25c-4.13,0-7.49-2.98-7.49-6.64v-2.12c0-3.66,3.36-6.64,7.49-6.64h9.24c2.44,0,4.42-1.6,4.42-3.57v-9.67c0-1.97-1.98-3.58-4.42-3.58H13.06c-2.44,0-4.42,1.6-4.42,3.58v9.67c0,1.97,1.98,3.57,4.42,3.57h0Z"/>
          <path class="cls-1" d="m13.06,19.43h43.08c4.13,0,7.49,2.98,7.49,6.64v9.67c0,3.66-3.36,6.64-7.49,6.64h-9.24c-2.44,0-4.42,1.6-4.42,3.58v2.12c0,1.97,1.98,3.58,4.42,3.58h4.25c4.13,0,7.49,2.98,7.49,6.64v.81c0,3.66-3.36,6.64-7.49,6.64H18.05c-4.13,0-7.49-2.98-7.49-6.64v-.81c0-3.66,3.36-6.64,7.49-6.64h4.25c2.44,0,4.42-1.6,4.42-3.58v-2.12c0-1.97-1.98-3.58-4.42-3.58h-9.24c-4.13,0-7.49-2.98-7.49-6.64v-9.67c0-3.66,3.36-6.64,7.49-6.64h0Zm.13-10.82c0-2.63,2.14-4.78,4.78-4.78h33.26c2.63,0,4.78,2.14,4.78,4.78v1.2c0,2.63-2.14,4.78-4.78,4.78H17.96c-2.63,0-4.78-2.14-4.78-4.78v-1.2h0ZM0,6.62v55.09c0,12.03,8.99,21.96,20.75,23.29.18-2.62,1.67-5.03,4.25-6.84,2.58-1.81,5.99-2.81,9.6-2.81s7.01,1,9.6,2.81c2.58,1.81,4.07,4.22,4.25,6.84,11.76-1.33,20.75-11.26,20.75-23.29V6.62c0-3.65-2.97-6.62-6.62-6.62H6.62C2.97,0,0,2.97,0,6.62h0Z"/>
          <path class="cls-1" d="m17.96,11.52h33.26c.95,0,1.71-.77,1.71-1.71v-1.2c0-.95-.77-1.71-1.71-1.71H17.96c-.95,0-1.71.77-1.71,1.71v1.2c0,.95.77,1.71,1.71,1.71h0Z"/>
        </g>
      </g>
    </g>
  </g>
</svg>