<?xml version="1.0" encoding="UTF-8"?>
<svg id="Capa_2" data-name="Capa 2" xmlns="http://www.w3.org/2000/svg" viewBox="0 0 80.89 85">
  <defs>
    <style>
      .cls-1 {
        fill: #515151;
      }
    </style>
  </defs>
  <g id="Layer_1" data-name="Layer 1">
    <g id="NewGroupe17">
      <g id="NewGroup0-42">
        <path class="cls-1" d="m70.87,63.59c-.03.53-.17,1.04-.42,1.52h0c-.65,1.25-1.93,2.02-3.34,2.02-.53,0-1.04-.11-1.5-.31-.78-.34-1.43-.93-1.84-1.71-.21-.41-.35-.84-.4-1.29-.02-.15-.03-.3-.03-.46,0-1.33.68-2.54,1.82-3.23.58-.35,1.26-.54,1.94-.54,2.08,0,3.77,1.69,3.77,3.77,0,.08,0,.15,0,.23h0Zm-7.61-13.47c-.74-2.4-2.36-7.66-4.18-13.54,0,0,0-.01,0-.02-.54-1.73-1.09-3.52-1.64-5.3-1.82-5.88-3.29-10.56-4.35-13.92-.63-2-1.13-3.54-1.47-4.6-.19-.57-.34-1.01-.44-1.31-.19-.55-.48-1.38-1.49-1.38h-10.06c-2.01,0-3.64-1.63-3.64-3.64,0-.97.38-1.89,1.07-2.58s1.6-1.07,2.57-1.07c.55,0,13.59.03,14.03.03,1.44,0,2.73.97,3.14,2.35l13.26,44.74s-.03,0-.04,0c-.06-.01-.12-.02-.18-.04-.06-.01-.11-.02-.17-.03-.06-.01-.13-.02-.19-.03-.06,0-.11-.02-.17-.03-.06-.01-.13-.02-.19-.03-.05,0-.11-.02-.16-.02-.07,0-.13-.02-.2-.02-.05,0-.11-.01-.16-.02-.07,0-.14-.01-.21-.02-.05,0-.1,0-.15-.01-.07,0-.15,0-.22-.01-.05,0-.1,0-.14,0-.08,0-.16,0-.24,0-.04,0-.08,0-.12,0-.12,0-.25,0-.37,0-.15,0-.29,0-.44,0-.04,0-.08,0-.12,0-.12,0-.25.01-.37.02-.02,0-.05,0-.07,0-.14.01-.29.02-.43.04-.04,0-.07,0-.11.01-.12.01-.23.03-.35.04-.03,0-.06,0-.1.01-.14.02-.28.04-.42.07-.03,0-.06.01-.08.02-.12.02-.24.04-.35.07-.04,0-.07.01-.11.02-.14.03-.28.06-.42.1-.01,0-.02,0-.04,0-.13.03-.26.07-.39.1-.02,0-.04,0-.05.01h0Zm10.02.91L59.44,4.37C58.68,1.81,56.3.03,53.64.03c-.43,0-13.89-.03-14.03-.03-1.71,0-3.33.67-4.54,1.88-1.21,1.21-1.88,2.82-1.88,4.54,0,3.54,2.88,6.42,6.42,6.42h9.1c.95,2.83,3.96,12.47,7.16,22.77h-23.7v-4.64c0-.77-.62-1.39-1.39-1.39s-1.39.62-1.39,1.39v11.84c0,.77.62,1.39,1.39,1.39s1.39-.62,1.39-1.39v-4.43h24.56c1.36,4.4,2.73,8.83,3.95,12.79-4.51,2.37-7.36,7.03-7.36,12.19,0,.34.01.67.04,1.01H6.05c-1.62,0-3.14.63-4.28,1.77-1.14,1.14-1.77,2.66-1.77,4.28,0,3.34,2.71,6.05,6.05,6.05h3.93c-.68.89-1.09,2.01-1.09,3.22,0,2.93,2.38,5.31,5.31,5.31s5.31-2.38,5.31-5.31c0-1.21-.41-2.32-1.09-3.22h44.41s.02,0,.02,0c-.68.89-1.08,2-1.08,3.21,0,2.93,2.38,5.31,5.31,5.31s5.31-2.38,5.31-5.31c0-1.2-.4-2.32-1.08-3.21.09-.03.17-.05.26-.08.16-.05.32-.11.47-.17v.24c.21.02.43.04.64.04s.44-.01.66-.04l-.04-.8c2.33-1.18,4.3-3.02,5.64-5.29,1.25-2.11,1.91-4.54,1.91-7,0-5.23-2.97-10-7.61-12.32h0Z"/>
      </g>
    </g>
  </g>
</svg>