<?xml version="1.0" encoding="UTF-8"?>
<svg id="Capa_2" data-name="Capa 2" xmlns="http://www.w3.org/2000/svg" viewBox="0 0 58.44 85">
  <defs>
    <style>
      .cls-1 {
        fill: #515151;
      }
    </style>
  </defs>
  <g id="Layer_1" data-name="Layer 1">
    <g id="NewGroupe24">
      <g id="NewGroup0-35">
        <g>
          <path class="cls-1" d="m2.72,78.89V10.73c0-1.87,1.52-3.4,3.4-3.4h3.5v3.04c0,.75.61,1.36,1.36,1.36s1.36-.61,1.36-1.36v-3.04h9.45v3.04c0,.75.61,1.36,1.36,1.36s1.36-.61,1.36-1.36v-3.04h9.45v3.04c0,.75.61,1.36,1.36,1.36s1.36-.61,1.36-1.36v-3.04h9.45v3.04c0,.75.61,1.36,1.36,1.36s1.36-.61,1.36-1.36v-3.04h3.5c1.87,0,3.4,1.52,3.4,3.4v68.16c0,1.87-1.52,3.4-3.4,3.4H6.11c-1.87,0-3.4-1.52-3.4-3.4h0Zm55.73,0V10.73c0-3.37-2.74-6.11-6.11-6.11h-3.5V1.36c0-.75-.61-1.36-1.36-1.36s-1.36.61-1.36,1.36v3.26h-9.45V1.36c0-.75-.61-1.36-1.36-1.36s-1.36.61-1.36,1.36v3.26h-9.45V1.36c0-.75-.61-1.36-1.36-1.36s-1.36.61-1.36,1.36v3.26h-9.45V1.36c0-.75-.61-1.36-1.36-1.36s-1.36.61-1.36,1.36v3.26h-3.5C2.74,4.62,0,7.36,0,10.73v68.16c0,3.37,2.74,6.11,6.11,6.11h46.21c3.37,0,6.11-2.74,6.11-6.11h0Z"/>
          <path class="cls-1" d="m22.58,19.89c-.65-.37-1.48-.14-1.85.52l-6.38,11.35-3.85-5c-.46-.59-1.31-.7-1.9-.25-.59.46-.7,1.31-.25,1.9l5.11,6.63c.26.33.66.53,1.08.53.03,0,.07,0,.1,0,.45-.03.86-.29,1.09-.69l7.39-13.14c.37-.65.14-1.48-.52-1.85h0Z"/>
          <path class="cls-1" d="m22.58,36.08c-.65-.37-1.48-.14-1.85.52l-6.38,11.35-3.85-5c-.46-.59-1.31-.7-1.9-.25-.59.46-.7,1.31-.25,1.9l5.11,6.63c.26.33.66.53,1.08.53.03,0,.07,0,.1,0,.45-.03.86-.29,1.09-.69l7.39-13.14c.37-.65.14-1.48-.52-1.85h0Z"/>
          <path class="cls-1" d="m20.4,57.73c-.57-.48-1.43-.41-1.91.16l-3.24,3.84-3.24-3.84c-.48-.57-1.34-.65-1.91-.16-.57.48-.65,1.34-.16,1.91l3.54,4.2-3.54,4.2c-.48.57-.41,1.43.16,1.91.25.21.57.32.87.32.39,0,.77-.16,1.04-.48l3.24-3.84,3.24,3.84c.27.32.65.48,1.04.48.31,0,.62-.1.87-.32.57-.48.65-1.34.16-1.91l-3.54-4.2,3.54-4.2c.48-.57.41-1.43-.16-1.91h0Z"/>
          <path class="cls-1" d="m50.77,24.93h-20.38c-.75,0-1.36.61-1.36,1.36s.61,1.36,1.36,1.36h20.38c.75,0,1.36-.61,1.36-1.36s-.61-1.36-1.36-1.36h0Z"/>
          <path class="cls-1" d="m50.77,42.53h-20.38c-.75,0-1.36.61-1.36,1.36s.61,1.36,1.36,1.36h20.38c.75,0,1.36-.61,1.36-1.36s-.61-1.36-1.36-1.36h0Z"/>
          <path class="cls-1" d="m50.77,62.3h-20.38c-.75,0-1.36.61-1.36,1.36s.61,1.36,1.36,1.36h20.38c.75,0,1.36-.61,1.36-1.36s-.61-1.36-1.36-1.36h0Z"/>
        </g>
      </g>
    </g>
  </g>
</svg>