<?xml version="1.0" encoding="UTF-8"?>
<svg id="Capa_2" data-name="Capa 2" xmlns="http://www.w3.org/2000/svg" viewBox="0 0 63.34 85">
  <defs>
    <style>
      .cls-1 {
        fill: #515151;
      }
    </style>
  </defs>
  <g id="Layer_1" data-name="Layer 1">
    <g id="NewGroupe34">
      <g id="NewGroup0-25">
        <path class="cls-1" d="m55.19,76.62c0,3.15-2.56,5.71-5.71,5.71s-5.71-2.56-5.71-5.71v-17.15h11.42v17.15h0ZM31.65,30.46c-6.21,0-11.26-5.05-11.26-11.26s5.05-11.26,11.26-11.26,11.26,5.05,11.26,11.26-5.05,11.26-11.26,11.26h0Zm-12.08,29.01v17.15c0,3.15-2.56,5.71-5.71,5.71s-5.71-2.56-5.71-5.71v-17.15h11.42Zm43.77-4.1c0-2.26-1.84-4.1-4.1-4.1h-8.41V19.19C50.84,8.61,42.23,0,31.65,0S12.45,8.61,12.45,19.19c0,.65.03,1.29.1,1.93v30.15H4.1c-1.09,0-2.12.43-2.9,1.2-.77.77-1.2,1.8-1.2,2.9,0,2.26,1.84,4.1,4.1,4.1h1.39v17.15c0,4.62,3.76,8.38,8.38,8.38s8.38-3.76,8.38-8.38v-17.15h1.39c1.09,0,2.12-.43,2.9-1.2.77-.77,1.2-1.8,1.2-2.9,0-2.26-1.84-4.1-4.1-4.1h-8.41v-22.16c3.37,5.56,9.47,9.28,16.43,9.28s13.18-3.79,16.52-9.44v22.33h-8.45c-1.09,0-2.12.43-2.9,1.2-.77.77-1.2,1.8-1.2,2.9,0,2.26,1.84,4.1,4.1,4.1h1.39v17.15c0,4.62,3.76,8.38,8.38,8.38s8.38-3.76,8.38-8.38v-17.15h1.39c1.09,0,2.12-.43,2.9-1.2.77-.77,1.2-1.8,1.2-2.9h0Z"/>
      </g>
    </g>
  </g>
</svg>