<?xml version="1.0" encoding="UTF-8"?>
<svg id="Capa_2" data-name="Capa 2" xmlns="http://www.w3.org/2000/svg" xmlns:xlink="http://www.w3.org/1999/xlink" viewBox="0 0 84.99 85">
  <defs>
    <style>
      .cls-1 {
        clip-path: url(#clippath);
      }

      .cls-2 {
        fill: none;
      }

      .cls-3 {
        fill: #515151;
      }
    </style>
    <clipPath id="clippath">
      <rect class="cls-2" width="84.99" height="85"/>
    </clipPath>
  </defs>
  <g id="Layer_1" data-name="Layer 1">
    <g id="NewGroupe19">
      <g id="NewGroup0-40">
        <g>
          <g class="cls-1">
            <path class="cls-3" d="m27.25,33.54C37.47,21.58,41.25,8.78,42.62,0c-.04,0-.09,0-.13,0C19.05,0-.01,19.07-.01,42.5c0,3.37.4,6.64,1.14,9.79,7.39-2.98,17.42-8.56,26.13-18.75h0Z"/>
          </g>
          <path class="cls-3" d="m78.02,38.56c-3.27,8.91-7.92,17.06-13.83,24.24-9.2,11.17-19.66,17.83-28.01,21.72,2.06.31,4.17.47,6.32.47,23.43,0,42.5-19.07,42.5-42.5,0-5.89-1.21-11.51-3.38-16.62-.87,4.3-2.06,8.54-3.58,12.68h0Z"/>
          <path class="cls-3" d="m44.39,52.09c12.75-16.44,17.73-34.01,19.65-46.2C58.59,2.67,52.37.62,45.72.12c-.75,5-2.06,9.96-3.88,14.74-2.89,7.6-7.01,14.56-12.24,20.68-9.23,10.8-19.89,16.65-27.65,19.74,2.61,8.28,7.7,15.47,14.38,20.7,10.84-5.83,20.28-13.86,28.06-23.89h0Z"/>
          <path class="cls-3" d="m61.8,60.84c11.62-14.11,15.93-29.22,17.48-39.59-3.11-5.37-7.36-9.99-12.42-13.55-1.06,6.24-2.68,12.42-4.83,18.39-3.67,10.22-8.79,19.6-15.21,27.88-4.62,5.95-9.89,11.3-15.68,15.91-3.8,3.02-7.84,5.74-12.04,8.09,3.61,2.39,7.61,4.24,11.87,5.44,8.48-3.39,20.48-10.01,30.82-22.57h0Z"/>
        </g>
      </g>
    </g>
  </g>
</svg>