<?xml version="1.0" encoding="UTF-8"?>
<svg id="Capa_2" data-name="Capa 2" xmlns="http://www.w3.org/2000/svg" viewBox="0 0 85 85">
  <defs>
    <style>
      .cls-1 {
        fill: #515151;
      }
    </style>
  </defs>
  <g id="Layer_1" data-name="Layer 1">
    <g id="NewGroupe39">
      <g id="NewGroup0-20">
        <g>
          <path class="cls-1" d="m57.87,30.28c.37-.31.59-.75.63-1.23.04-.48-.12-.95-.43-1.31-.36-.42-.86-.63-1.37-.63-.42,0-.84.14-1.18.43-.37.31-.59.75-.63,1.23-.04.48.12.95.43,1.31.65.76,1.79.84,2.55.2h0Z"/>
          <path class="cls-1" d="m41.92,24.14c1,0,1.81-.81,1.81-1.81s-.81-1.81-1.81-1.81-1.81.81-1.81,1.81.81,1.81,1.81,1.81h0Z"/>
          <path class="cls-1" d="m26.32,30.44c-.29-.17-.61-.25-.92-.25-.62,0-1.22.32-1.56.88-.51.86-.23,1.97.63,2.48.41.25.9.32,1.37.2.47-.12.86-.41,1.11-.83.51-.86.23-1.97-.63-2.48h0Z"/>
          <path class="cls-1" d="m25.11,47.82c-.22-.09-.45-.13-.67-.13-.24,0-.48.05-.71.15-.92.39-1.34,1.46-.95,2.37s1.46,1.34,2.37.95c.92-.39,1.34-1.46.95-2.37-.19-.44-.54-.79-.99-.97h0Z"/>
          <path class="cls-1" d="m65.98,45.12c-.36,2.33-2.38,4-4.66,4-.24,0-.48-.02-.72-.06-1.25-.19-2.34-.86-3.09-1.88-.75-1.02-1.05-2.26-.86-3.51.19-1.25.86-2.34,1.88-3.09,1.02-.75,2.26-1.05,3.51-.86,2.57.4,4.34,2.81,3.95,5.39h0Zm-8.82,13.95c-.29,1.23-1.03,2.27-2.11,2.94-.77.48-1.63.71-2.49.71-1.58,0-3.12-.79-4.02-2.23h0c-.67-1.07-.87-2.34-.59-3.57.29-1.23,1.03-2.27,2.11-2.94,1.07-.67,2.34-.87,3.57-.59,1.23.29,2.27,1.03,2.94,2.11.67,1.07.87,2.34.59,3.57h0Zm-25.39-16.57c0-5.91,4.81-10.73,10.73-10.73s10.73,4.81,10.73,10.73-4.81,10.73-10.73,10.73-10.73-4.81-10.73-10.73h0Zm9.28,19.13c-.63,2.01-2.5,3.3-4.51,3.3-.47,0-.95-.07-1.42-.22-1.2-.38-2.19-1.2-2.77-2.32-.58-1.12-.69-2.4-.31-3.6.78-2.48,3.44-3.87,5.92-3.08,2.48.78,3.87,3.44,3.08,5.92h0Zm-11.6-27.23c-.64,1.08-1.67,1.85-2.89,2.16-.39.1-.78.15-1.17.15-.84,0-1.66-.23-2.4-.66-1.08-.64-1.85-1.67-2.16-2.89s-.13-2.49.52-3.58c1.33-2.24,4.23-2.98,6.47-1.65,2.24,1.33,2.98,4.23,1.65,6.47h0Zm-3.16,19.43c-.6.26-1.23.38-1.85.38-1.84,0-3.58-1.08-4.35-2.87-1.02-2.39.09-5.17,2.49-6.2,1.16-.5,2.44-.51,3.61-.04,1.17.47,2.09,1.37,2.58,2.53,1.02,2.39-.09,5.17-2.49,6.2h0Zm15.62-36.23c2.6,0,4.72,2.12,4.72,4.72s-2.12,4.72-4.72,4.72-4.72-2.12-4.72-4.72,2.12-4.72,4.72-4.72h0Zm11.7,7.71c1.98-1.7,4.96-1.47,6.66.51.82.96,1.22,2.18,1.12,3.43-.1,1.26-.68,2.4-1.63,3.22-.89.76-1.98,1.14-3.07,1.14-1.33,0-2.65-.56-3.59-1.65-1.7-1.98-1.47-4.96.51-6.66h0Zm-11.11-10.8c-15.43,0-27.98,12.55-27.98,27.98s12.55,27.98,27.98,27.98,27.98-12.55,27.98-27.98-12.55-27.98-27.98-27.98h0Z"/>
          <path class="cls-1" d="m42.5,34.69c-4.31,0-7.81,3.5-7.81,7.81s3.5,7.81,7.81,7.81,7.81-3.5,7.81-7.81-3.5-7.81-7.81-7.81h0Z"/>
          <path class="cls-1" d="m37.09,58.49c-.95-.3-1.97.23-2.27,1.18-.15.46-.1.95.12,1.38.22.43.6.74,1.06.89.95.3,1.97-.23,2.27-1.18.3-.95-.23-1.97-1.18-2.27h0Z"/>
          <path class="cls-1" d="m52.98,56.24c-.47-.11-.95-.03-1.36.23s-.7.65-.81,1.12c-.11.47-.03.95.23,1.36h0c.53.85,1.64,1.11,2.49.58.41-.25.7-.65.81-1.12.11-.47.03-.95-.23-1.36-.25-.41-.65-.7-1.12-.81h0Z"/>
          <path class="cls-1" d="m8.78,54.37c-.24,0-.48.05-.71.14h0c-.92.39-1.34,1.46-.95,2.37.39.92,1.45,1.34,2.37.95.44-.19.79-.54.97-.99.18-.45.17-.94-.01-1.38-.29-.69-.96-1.1-1.66-1.1h0Z"/>
          <path class="cls-1" d="m41.92,7.11c1,0,1.81-.81,1.81-1.81s-.81-1.81-1.81-1.81-1.81.81-1.81,1.81.81,1.81,1.81,1.81h0Z"/>
          <path class="cls-1" d="m9.84,24.85c.41.25.9.32,1.37.2.47-.12.86-.41,1.11-.83.51-.86.23-1.97-.63-2.48-.29-.17-.61-.25-.92-.25-.62,0-1.22.32-1.56.88-.25.41-.32.9-.2,1.37s.41.86.83,1.11h0Z"/>
          <path class="cls-1" d="m60.02,73.41c.53.85,1.64,1.11,2.49.58.41-.25.7-.65.81-1.12.11-.47.03-.95-.23-1.36-.25-.41-.65-.7-1.12-.81-.14-.03-.28-.05-.41-.05-.33,0-.66.09-.95.27-.85.53-1.11,1.64-.58,2.49h0Z"/>
          <path class="cls-1" d="m31.97,74.72c-.95-.3-1.97.23-2.27,1.18-.3.95.23,1.97,1.18,2.27.95.3,1.97-.23,2.27-1.18.15-.46.1-.95-.12-1.38-.22-.43-.6-.74-1.06-.89h0Z"/>
          <path class="cls-1" d="m61.31,42.59c-.38,0-.75.12-1.06.35-.39.29-.64.71-.72,1.18-.07.48.04.95.33,1.34.29.39.71.64,1.18.72h0c.98.15,1.91-.53,2.06-1.51.15-.98-.53-1.91-1.51-2.06-.09-.01-.19-.02-.28-.02h0Z"/>
          <path class="cls-1" d="m70.79,19.19c.37-.31.59-.75.63-1.23.04-.48-.12-.95-.43-1.31-.31-.37-.75-.59-1.23-.63-.05,0-.09,0-.14,0-.43,0-.84.15-1.17.44-.76.65-.84,1.79-.2,2.55.65.76,1.79.84,2.55.2h0Z"/>
          <path class="cls-1" d="m78.42,45.2c-.09-.01-.19-.02-.28-.02-.38,0-.75.12-1.06.35-.39.29-.64.71-.72,1.18-.15.98.53,1.91,1.51,2.06.99.15,1.91-.53,2.06-1.51s-.53-1.91-1.51-2.06h0Z"/>
          <path class="cls-1" d="m78.14,51.71c-.24,0-.48-.02-.72-.06-2.57-.4-4.34-2.81-3.95-5.39.19-1.25.86-2.34,1.88-3.09,1.02-.75,2.26-1.05,3.51-.86,2.57.4,4.34,2.81,3.95,5.39-.36,2.33-2.38,4-4.66,4h0Zm-13.79,12.63c-1.37,1.37-2.85,2.6-4.42,3.67.86-.32,1.79-.38,2.7-.16,1.23.29,2.27,1.03,2.94,2.11.67,1.07.87,2.34.59,3.57-.29,1.23-1.03,2.27-2.11,2.94-.77.48-1.63.71-2.49.71-1.58,0-3.12-.79-4.02-2.23-1.18-1.9-.84-4.32.68-5.84-4.71,2.79-10.1,4.28-15.72,4.28-8.25,0-16.01-3.21-21.85-9.05-5.84-5.84-9.05-13.6-9.05-21.85s3.21-16.01,9.05-21.85c5.84-5.84,13.6-9.05,21.85-9.05s16.01,3.21,21.85,9.05c5.84,5.84,9.05,13.6,9.05,21.85s-3.21,16.01-9.05,21.85h0Zm-28.42,13.52c-.63,2.01-2.5,3.3-4.51,3.3-.47,0-.95-.07-1.42-.22-2.48-.78-3.87-3.44-3.08-5.92h0c.78-2.48,3.44-3.87,5.92-3.08,1.2.38,2.19,1.2,2.77,2.32.58,1.12.69,2.4.31,3.6h0Zm-22.77-19.93c-.47,1.17-1.37,2.09-2.53,2.58-.6.26-1.23.38-1.85.38-1.84,0-3.58-1.08-4.35-2.87-1.02-2.39.09-5.17,2.49-6.2h0c2.39-1.02,5.17.09,6.2,2.49.5,1.16.51,2.44.04,3.61h0ZM6.7,20.88c1.33-2.24,4.23-2.98,6.47-1.65,2.24,1.33,2.98,4.23,1.65,6.47-.64,1.08-1.67,1.85-2.89,2.16-.39.1-.78.15-1.17.15-.84,0-1.66-.23-2.4-.66-1.08-.64-1.85-1.67-2.16-2.89s-.13-2.49.52-3.58h0ZM41.92.58c2.6,0,4.72,2.12,4.72,4.72s-2.12,4.72-4.72,4.72-4.72-2.12-4.72-4.72,2.12-4.72,4.72-4.72h0Zm22.98,16.88c.1-1.26.68-2.4,1.63-3.22s2.18-1.22,3.43-1.12c1.26.1,2.4.68,3.22,1.63s1.22,2.18,1.12,3.43c-.1,1.26-.68,2.4-1.63,3.22-.89.76-1.98,1.14-3.07,1.14-1.33,0-2.65-.56-3.59-1.65-.82-.96-1.22-2.18-1.12-3.43h0ZM42.5,0C19.07,0,0,19.07,0,42.5s19.07,42.5,42.5,42.5,42.5-19.07,42.5-42.5S65.93,0,42.5,0h0Z"/>
        </g>
      </g>
    </g>
  </g>
</svg>