<?xml version="1.0" encoding="UTF-8"?>
<svg id="Capa_2" data-name="Capa 2" xmlns="http://www.w3.org/2000/svg" xmlns:xlink="http://www.w3.org/1999/xlink" viewBox="0 0 85 31.1">
  <defs>
    <style>
      .cls-1 {
        clip-path: url(#clippath);
      }

      .cls-2 {
        fill: none;
      }

      .cls-3 {
        fill: #515151;
      }
    </style>
    <clipPath id="clippath">
      <rect class="cls-2" width="85" height="31.1"/>
    </clipPath>
  </defs>
  <g id="Layer_1" data-name="Layer 1">
    <g id="NewGroupe14">
      <g id="NewGroup0-45">
        <g class="cls-1">
          <path class="cls-3" d="m9.4,4.7c0-1.12.91-2.02,2.02-2.02s2.02.91,2.02,2.02v21.7c0,1.12-.91,2.02-2.02,2.02s-2.02-.91-2.02-2.02V4.7h0Zm62.15,0c0-1.12.91-2.02,2.02-2.02s2.02.91,2.02,2.02v21.7c0,1.12-.91,2.02-2.02,2.02h0c-1.12,0-2.02-.91-2.02-2.02V4.7h0ZM4.7,31.1c1.32,0,2.51-.54,3.36-1.42.85.87,2.05,1.42,3.36,1.42s2.51-.54,3.36-1.42c.85.87,2.05,1.42,3.36,1.42,2.59,0,4.7-2.11,4.7-4.7v-10.33h6.48c1.42,0,2.78.67,3.65,1.79l.56.73c1.37,1.77,3.53,2.83,5.77,2.83h7.07c2.44,0,4.71-1.21,6.06-3.25.86-1.28,2.29-2.05,3.83-2.05h5.87v10.27c0,2.59,2.11,4.7,4.7,4.7,1.32,0,2.51-.54,3.36-1.42.85.87,2.05,1.42,3.36,1.42s2.51-.54,3.36-1.42c.85.87,2.05,1.42,3.36,1.42,2.59,0,4.7-2.11,4.7-4.7V4.7c0-2.59-2.11-4.7-4.7-4.7-1.32,0-2.51.54-3.36,1.42-.85-.87-2.05-1.42-3.36-1.42s-2.51.54-3.36,1.42c-.85-.87-2.05-1.42-3.36-1.42-2.59,0-4.7,2.11-4.7,4.7v8.75h-5.87c-2.44,0-4.71,1.21-6.06,3.25-.86,1.28-2.29,2.05-3.83,2.05h-7.07c-1.42,0-2.78-.67-3.65-1.79l-.56-.73c-1.37-1.77-3.53-2.83-5.77-2.83h-6.48V4.7c0-2.59-2.11-4.7-4.7-4.7-1.32,0-2.51.54-3.36,1.42-.85-.87-2.05-1.42-3.36-1.42s-2.51.54-3.36,1.42c-.85-.87-2.05-1.42-3.36-1.42C2.11,0,0,2.11,0,4.7v21.7c0,2.59,2.11,4.7,4.7,4.7h0Z"/>
        </g>
      </g>
    </g>
  </g>
</svg>