<?xml version="1.0" encoding="UTF-8"?>
<svg id="Capa_2" data-name="Capa 2" xmlns="http://www.w3.org/2000/svg" xmlns:xlink="http://www.w3.org/1999/xlink" viewBox="0 0 58.17 85">
  <defs>
    <style>
      .cls-1 {
        clip-path: url(#clippath);
      }

      .cls-2 {
        fill: none;
      }

      .cls-3 {
        fill: #515151;
      }
    </style>
    <clipPath id="clippath">
      <rect class="cls-2" width="58.17" height="85"/>
    </clipPath>
  </defs>
  <g id="Layer_1" data-name="Layer 1">
    <g id="NewGroupe50">
      <g id="NewGroup0-9">
        <g>
          <g class="cls-1">
            <path class="cls-3" d="m6.51,36.01L.44,48.15c-1.02,2.05-.19,4.54,1.85,5.56.58.29,1.21.44,1.85.44,1.58,0,3.01-.88,3.71-2.29l5.26-10.51c.14-.27.35-.49.62-.63l4.79-2.46c.21-.11.43-.16.65-.16.27,0,.54.08.77.23.43.28.68.76.65,1.27l-.65,13.46c-.02.42-.22.81-.55,1.06l-15.62,12.06c-1.54,1.19-2.05,3.26-1.23,5.02l5.27,11.4c.68,1.46,2.16,2.41,3.77,2.41.6,0,1.19-.13,1.74-.38,1.01-.47,1.77-1.29,2.15-2.33.38-1.04.34-2.17-.13-3.17l-3.4-7.36c-.28-.61-.1-1.32.42-1.73l10.6-8.18c.53-.41,1.27-.4,1.79.03l26.62,22.17c1.76,1.46,4.38,1.22,5.84-.53,1.46-1.76,1.22-4.38-.53-5.84h0l-27.92-23.25c-.34-.29-.53-.72-.51-1.17l.48-9.94c.03-.57.39-1.07.92-1.27.53-.2,1.13-.07,1.53.34l3.41,3.52c.95.98,2.31,1.43,3.65,1.21l13.29-2.18c1.09-.18,2.05-.77,2.7-1.67.65-.9.9-2,.72-3.09-.18-1.09-.77-2.05-1.67-2.7-.9-.65-2-.9-3.09-.72l-10.41,1.71c-.46.08-.93-.08-1.26-.42l-10.33-10.69c-.78-.8-1.86-1.26-2.98-1.26-.01,0-.03,0-.04,0-.01,0-.02,0-.04,0-.69-.02-1.38.14-2,.46l-14.81,7.62c-.79.41-1.41,1.04-1.81,1.83h0Z"/>
          </g>
          <path class="cls-3" d="m36.16,8.31c0-4.58-3.73-8.31-8.31-8.31s-8.31,3.73-8.31,8.31,3.73,8.31,8.31,8.31,8.31-3.73,8.31-8.31h0Z"/>
        </g>
      </g>
    </g>
  </g>
</svg>