<?xml version="1.0" encoding="UTF-8"?>
<svg id="Capa_2" data-name="Capa 2" xmlns="http://www.w3.org/2000/svg" xmlns:xlink="http://www.w3.org/1999/xlink" viewBox="0 0 72.04 85">
  <defs>
    <style>
      .cls-1 {
        clip-path: url(#clippath);
      }

      .cls-2 {
        fill: none;
      }

      .cls-3 {
        fill: #515151;
      }
    </style>
    <clipPath id="clippath">
      <rect class="cls-2" width="72.04" height="85"/>
    </clipPath>
  </defs>
  <g id="Layer_1" data-name="Layer 1">
    <g id="NewGroupe42">
      <g id="NewGroup0-17">
        <g class="cls-1">
          <path class="cls-3" d="m20.08,60.64c-4.27,0-7.74,3.47-7.74,7.74s3.47,7.74,7.74,7.74c1.79,0,3.45-.61,4.76-1.64l3.05,2.78c1.48,1.34,3.39,2.08,5.38,2.08h7.46c.72,0,1.3-.58,1.3-1.3s-.58-1.3-1.3-1.3h-7.46c-1.35,0-2.63-.5-3.63-1.4l-3.05-2.78c.78-1.21,1.23-2.64,1.23-4.17,0-4.27-3.47-7.74-7.74-7.74h0Z"/>
          <path class="cls-3" d="m29.8,54s.01,0,.02,0l36.94,19.05c.87.45,1.58,1.14,2.06,2,.41.73.62,1.56.62,2.4,0,1.32-.51,2.56-1.45,3.5-.34.34-.72.62-1.14.85-.72.39-1.53.59-2.35.59H18.66c-8.86,0-16.07-7.21-16.07-16.07s7.21-16.09,16.08-16.09c2.55,0,5.02.61,7.35,1.81l3.78,1.95h0ZM11.92,29.74c-1.87-.73-2.71-1.59-2.71-2.12s.84-1.39,2.71-2.12c2.14-.83,5.01-1.29,8.08-1.29s5.94.46,8.08,1.29c1.87.73,2.71,1.59,2.71,2.12s-.84,1.39-2.71,2.12c-2.14.83-5.01,1.29-8.08,1.29s-5.94-.46-8.08-1.29h0Zm6.75,17.9c-4.78,0-9.52,1.92-13.01,5.28C2,56.43-.01,61.2-.01,66.33c0,10.3,8.38,18.67,18.67,18.67h45.83c1.26,0,2.5-.31,3.6-.91.64-.35,1.23-.79,1.74-1.3,1.43-1.42,2.21-3.32,2.21-5.34,0-1.16-.27-2.31-.79-3.35V5.23c0-2.15-1.29-4.05-3.28-4.85-1.99-.8-4.24-.32-5.72,1.23l-13.35,13.89c-.97,1.01-1.49,2.33-1.46,3.73,0,.2.02.4.05.6h-4.8c-.72,0-1.3.58-1.3,1.3s.58,1.3,1.3,1.3h5.93c.13.16.27.32.43.46,1.01.97,2.33,1.49,3.73,1.46,1.4-.03,2.7-.6,3.67-1.61l4.35-4.53v48.83l-29.43-15.17-9.51-18.29c2.69-.15,5.18-.64,7.17-1.42,2.82-1.1,4.37-2.71,4.37-4.55s-1.55-3.45-4.37-4.55c-2.43-.95-5.64-1.47-9.03-1.47s-6.59.52-9.03,1.47c-2.82,1.1-4.37,2.71-4.37,4.55s1.55,3.45,4.37,4.55c2.18.85,4.97,1.35,7.97,1.45l8.41,16.19-.14-.07c-2.7-1.39-5.58-2.1-8.55-2.1h0Z"/>
        </g>
      </g>
    </g>
  </g>
</svg>