<?xml version="1.0" encoding="UTF-8"?>
<svg id="Capa_2" data-name="Capa 2" xmlns="http://www.w3.org/2000/svg" xmlns:xlink="http://www.w3.org/1999/xlink" viewBox="0 0 46.68 85">
  <defs>
    <style>
      .cls-1 {
        clip-path: url(#clippath);
      }

      .cls-2 {
        fill: none;
      }

      .cls-3 {
        fill: #515151;
      }
    </style>
    <clipPath id="clippath">
      <rect class="cls-2" width="46.68" height="85"/>
    </clipPath>
  </defs>
  <g id="Layer_1" data-name="Layer 1">
    <g id="NewGroupe5">
      <g id="NewGroup0-54">
        <g>
          <g class="cls-1">
            <path class="cls-3" d="m29.96,31.82s0,.01,0,.02c0,1.07-.13,2.15-.4,3.19-.18.66-.77,1.1-1.43,1.1-.13,0-.25-.02-.38-.05-.74-.2-1.2-.93-1.08-1.67l-2.21,1.14v10.67c0,.82-.66,1.48-1.48,1.48s-1.48-.66-1.48-1.48v-10.78l-2.32-1.54c.03.12.06.24.09.37.21.79-.26,1.6-1.05,1.81-.13.03-.25.05-.38.05-.65,0-1.25-.44-1.43-1.1-.28-1.06-.42-2.15-.4-3.24.01-1,.15-2,.4-2.96.21-.79,1.02-1.26,1.81-1.05.79.21,1.26,1.02,1.05,1.81-.06.24-.12.48-.16.73l3.97,2.63,3.87-2c-.05-.46-.13-.91-.25-1.35-.21-.79.26-1.6,1.05-1.81.79-.21,1.6.26,1.81,1.05.26.97.39,1.96.4,2.96,0,.01,0,.02,0,.03h0Zm3.48-10.25c-1.13-1.28-2.58-1.99-4.06-1.99h-12.86c-1.55,0-3.03.76-4.19,2.14L.68,35.66s-.02.02-.03.03c-.8.9-.88,2.53-.18,3.57.32.38.77.59,1.23.59.24,0,.59-.06.92-.34l9.85-8.55c.45-.39,1.08-.47,1.62-.21.53.26.86.81.83,1.4l-1.43,27.76c0,.06-.01.13-.02.19l-3.89,21.3c-.3,1.56.42,3.21,1.54,3.54.13.04.26.06.38.06.84,0,1.62-.81,1.89-1.98l2.83-12.09,3.97-17.74c.15-.68.75-1.15,1.44-1.15h2.99c.7,0,1.31.5,1.45,1.19l3.52,17.72,2.82,12.07c.19.81.62,1.45,1.17,1.78.36.21.73.26,1.1.15,1.12-.33,1.84-1.98,1.54-3.53l-3.8-20.83c-.01-.06-.02-.12-.02-.19l-1.52-28.94c-.03-.59.29-1.14.83-1.4.53-.26,1.17-.18,1.62.21l10.84,9.4c.24.21.55.31.88.28.37-.03.71-.22.96-.53l.16-.2c.74-.92.71-2.49-.06-3.36l-12.64-14.29h0Z"/>
          </g>
          <path class="cls-3" d="m29.12,5.76c0-3.18-2.59-5.76-5.78-5.76s-5.78,2.59-5.78,5.76,2.59,5.76,5.78,5.76,5.78-2.59,5.78-5.76h0Z"/>
        </g>
      </g>
    </g>
  </g>
</svg>