<?xml version="1.0" encoding="UTF-8"?>
<svg id="Capa_2" data-name="Capa 2" xmlns="http://www.w3.org/2000/svg" xmlns:xlink="http://www.w3.org/1999/xlink" viewBox="0 0 84.99 68.03">
  <defs>
    <style>
      .cls-1 {
        clip-path: url(#clippath);
      }

      .cls-2 {
        fill: none;
      }

      .cls-3 {
        fill: #515151;
      }
    </style>
    <clipPath id="clippath">
      <rect class="cls-2" width="84.99" height="68.03"/>
    </clipPath>
  </defs>
  <g id="Layer_1" data-name="Layer 1">
    <g id="NewGroupe57">
      <g id="NewGroup0-2">
        <g class="cls-1">
          <path class="cls-3" d="m7.37,35.25s.07.05.11.07c.26.16.56.28.87.36.37.09.77.18,1.23.28.15.03.31.07.48.11.29.06.58.13.87.19.3.06.59.13.89.19.08.02.15.03.22.05.05,0,.1.02.15.03,1.31.27,2.65.52,4,.76.45.08.9.16,1.35.23.47.08.94.15,1.41.23l1,.15c.12.02.24.04.37.05.17.02.33.05.5.07.05,0,.11.02.16.02.33.05.67.09,1.02.14l.26.04.26.04c.25.03.49.06.74.09.46.06.92.11,1.37.17.18.02.36.04.54.06.38.04.76.08,1.14.13.34.04.69.07,1.04.11.37.04.74.07,1.11.1l.38.03c.14.01.27.02.41.04l.9.08c1.14.09,2.3.17,3.46.23.2.01.39.02.58.03.23.01.46.02.69.04.16,0,.33.02.49.02.23.01.46.02.69.03.37.01.74.03,1.11.04,1.24.04,2.48.06,3.66.07.21,0,.42,0,.62,0,.35,0,.71,0,1.07,0h.21c.13,0,.27,0,.4,0,.21,0,.41,0,.61,0h.02c.2,0,.39,0,.59,0,.09,0,.18,0,.27,0,.09,0,.18,0,.26,0h.15c.18,0,.35-.01.52-.01.2,0,.4,0,.6-.01,0,0,0,0,0,0,0,0,.02,0,.03,0,.33,0,.65-.02.98-.03.51-.02,1.05-.04,1.67-.07l.49-.02c.12,0,.24-.01.36-.02.19,0,.36-.02.54-.03.49-.03.92-.05,1.33-.08.14,0,.27-.02.4-.03.17-.01.34-.02.51-.04h.01s0,0,0,0c0,0,0,0,0,0,.08,0,.16-.01.24-.02,0,0,.01,0,.02,0,.17-.01.33-.02.49-.04.24-.02.48-.04.71-.05l.58-.05c.59-.05,1.13-.1,1.65-.15.37-.03.73-.07,1.09-.11.54-.06,1.08-.11,1.6-.17.4-.05.8-.09,1.2-.14.57-.07,1.17-.14,1.78-.23l.88-.12c.27-.04.54-.08.81-.12.02,0,.05,0,.07-.01.28-.04.56-.08.83-.12.28-.04.57-.09.85-.13,0,0,.01,0,.02,0h.02c.49-.08.98-.16,1.46-.24l.18-.03c.36-.06.71-.12,1.07-.18.38-.07.76-.14,1.14-.2.31-.06.62-.11.93-.17l.25-.05c.12-.02.24-.05.36-.07.18-.03.34-.07.51-.1,0,0,.01,0,.02,0,.08-.01.15-.03.22-.04,0,0,.01,0,.02,0,.15-.03.3-.06.44-.09.35-.07.7-.14,1.05-.22.23-.05.47-.1.7-.15.36-.08.71-.15,1.06-.23.16-.04.32-.07.47-.11,0,0,0,0,.01,0,.2-.04.4-.09.6-.14,1.35-.31,2.29-1.53,2.29-2.89,0-.09,0-.18-.01-.27,0-.04,0-.09-.01-.13,0-.02,0-.04,0-.07,0-.04,0-.09-.01-.13-.82-7.49-3.89-14.23-8.48-19.58h-13.63c-.78,0-1.42-.64-1.42-1.42s.64-1.42,1.42-1.42h10.91C60.36,3.68,51.63,0,42.09,0,27.54,0,14.92,8.5,9.18,21.04h34.24c.78,0,1.42.64,1.42,1.42s-.64,1.42-1.42,1.42H8.33c-.1,0-.19-.01-.29-.03-.98,2.73-1.65,5.62-1.96,8.63v.03s0,0,0,.01c-.02.18-.02.36,0,.54.08.89.56,1.69,1.29,2.18h0Z"/>
          <path class="cls-3" d="m2.71,61.93c2.07,1.14,5.2,2.23,9.05,3.13,8.19,1.92,19.11,2.97,30.73,2.97s22.54-1.06,30.73-2.97c3.85-.9,6.98-1.98,9.05-3.13,1.73-.96,2.72-1.96,2.72-2.76v-17.18s-.01,0-.02.01c-.05.03-.1.07-.15.1-.02.02-.04.03-.07.05-.14.1-.29.19-.45.29-.02.01-.05.03-.07.04-.05.03-.11.07-.16.1-.03.02-.06.03-.09.05-.05.03-.1.06-.15.09-.03.02-.07.04-.1.06-.05.03-.1.06-.15.08-.03.02-.07.04-.1.06-.05.03-.1.06-.15.08-.04.02-.07.04-.11.06-.05.03-.11.05-.16.08-.04.02-.07.04-.11.06-.06.03-.11.06-.17.08-.04.02-.07.04-.11.05-.06.03-.12.06-.18.09-.03.02-.07.03-.1.05-.07.03-.14.06-.21.1-.03.01-.05.03-.08.04-.2.09-.4.18-.61.26-.03.01-.06.02-.09.04-.07.03-.15.06-.22.09-.04.02-.08.03-.12.05-.07.03-.14.05-.2.08-.04.02-.09.03-.13.05-.07.03-.13.05-.2.08-.04.02-.09.03-.14.05-.07.03-.13.05-.2.08-.05.02-.09.03-.14.05-.07.02-.14.05-.21.07-.05.02-.09.03-.14.05-.07.03-.14.05-.21.08-.05.02-.09.03-.14.05-.08.03-.15.05-.23.08-.04.02-.09.03-.13.05-.09.03-.17.06-.26.09-.04.01-.07.02-.11.04-.25.08-.5.16-.76.24-.04.01-.08.02-.12.04-.09.03-.18.05-.27.08-.05.01-.1.03-.15.04-.08.02-.16.05-.25.07-.05.02-.11.03-.16.05-.08.02-.16.05-.24.07-.06.02-.11.03-.17.05-.08.02-.16.04-.24.07-.06.02-.12.03-.18.05-.08.02-.16.04-.25.07-.06.02-.12.03-.18.05-.08.02-.17.04-.25.07-.06.02-.12.03-.18.05-.09.02-.18.05-.27.07-.06.01-.11.03-.17.04-.1.02-.2.05-.3.07-.05.01-.1.02-.15.04-.15.04-.3.07-.45.11-8.4,1.97-19.54,3.05-31.38,3.05s-22.98-1.08-31.38-3.05c-.15-.04-.3-.07-.45-.11-.05-.01-.1-.02-.15-.04-.1-.02-.2-.05-.3-.07-.06-.01-.11-.03-.17-.04-.09-.02-.18-.05-.27-.07-.06-.02-.12-.03-.18-.05-.09-.02-.17-.04-.25-.07-.06-.02-.12-.03-.18-.05-.08-.02-.16-.04-.25-.07-.06-.02-.12-.03-.18-.05-.08-.02-.16-.04-.24-.07-.06-.02-.12-.03-.17-.05-.08-.02-.16-.05-.24-.07-.05-.02-.11-.03-.16-.05-.08-.02-.17-.05-.25-.07-.05-.01-.1-.03-.15-.04-.09-.03-.18-.05-.27-.08-.04-.01-.08-.02-.12-.04-.26-.08-.51-.16-.76-.24-.04-.01-.07-.02-.11-.04-.09-.03-.17-.06-.26-.09-.04-.02-.09-.03-.13-.05-.08-.03-.15-.05-.23-.08-.05-.02-.09-.03-.14-.05-.07-.03-.14-.05-.21-.08-.05-.02-.09-.03-.14-.05-.07-.02-.14-.05-.21-.07-.05-.02-.09-.03-.14-.05-.07-.03-.14-.05-.2-.08-.05-.02-.09-.03-.14-.05-.07-.03-.13-.05-.2-.08-.04-.02-.09-.03-.13-.05-.07-.03-.14-.05-.2-.08-.04-.02-.08-.03-.12-.05-.08-.03-.15-.06-.22-.09-.03-.01-.06-.02-.09-.04-.21-.09-.41-.18-.61-.26-.03-.01-.05-.03-.08-.04-.07-.03-.14-.06-.21-.1-.03-.02-.07-.03-.1-.05-.06-.03-.12-.06-.18-.09-.04-.02-.07-.04-.11-.05-.06-.03-.11-.06-.17-.08-.04-.02-.07-.04-.11-.06-.05-.03-.11-.05-.16-.08-.04-.02-.07-.04-.11-.06-.05-.03-.1-.05-.15-.08-.03-.02-.07-.04-.1-.06-.05-.03-.1-.06-.15-.08-.03-.02-.07-.04-.1-.06-.05-.03-.1-.06-.15-.09-.03-.02-.06-.03-.09-.05-.06-.03-.11-.07-.16-.1-.02-.01-.05-.03-.07-.04-.15-.1-.3-.19-.45-.29-.02-.02-.04-.03-.07-.05-.05-.03-.1-.07-.15-.1,0,0-.01,0-.02-.01v17.18c0,.8.99,1.8,2.72,2.76h0Z"/>
          <path class="cls-3" d="m2.71,40.34c.39.21.81.43,1.27.64,1.99.91,4.65,1.76,7.78,2.49,6.14,1.44,13.82,2.39,22.18,2.78,2.79.13,5.65.19,8.55.19s5.77-.07,8.55-.19c8.36-.39,16.03-1.34,22.18-2.78,3.13-.73,5.78-1.58,7.78-2.49.46-.21.89-.42,1.27-.64,1.73-.96,2.72-1.96,2.72-2.76s-1.14-2.13-4.19-3.49c-.02.07-.04.15-.06.22,0,.02-.01.05-.02.07-.02.05-.03.11-.05.16,0,.03-.02.05-.03.08-.02.05-.04.11-.06.16,0,.02-.02.04-.02.06-.03.07-.06.14-.09.22,0,.01-.01.03-.02.04-.03.06-.05.12-.08.17-.01.02-.02.05-.03.07-.02.05-.05.1-.07.14-.01.02-.02.05-.04.07-.03.06-.06.11-.09.16,0,.01-.01.03-.02.04-.04.07-.08.13-.12.2-.01.02-.03.04-.04.06-.03.05-.06.09-.09.14-.02.02-.03.04-.05.07-.03.04-.07.09-.1.13-.01.02-.03.04-.04.06-.05.06-.1.12-.15.18,0,0-.02.02-.02.03-.04.05-.09.1-.13.15-.02.02-.04.04-.05.06-.04.04-.07.08-.11.12-.02.02-.04.04-.06.05-.04.04-.09.08-.14.13-.01.01-.02.02-.04.03-.06.05-.12.1-.18.15-.02.01-.03.03-.05.04-.05.04-.09.07-.14.11-.02.02-.04.03-.06.05-.05.03-.09.07-.14.1-.02.01-.04.03-.06.04-.07.04-.13.09-.2.13,0,0,0,0-.01,0-.06.04-.13.07-.19.11-.02.01-.04.02-.06.03-.05.03-.1.05-.15.08-.02.01-.05.02-.07.03-.06.03-.11.05-.17.08-.02,0-.03.01-.05.02-.07.03-.15.06-.22.09-.02,0-.03.01-.05.02-.06.02-.12.04-.18.06-.02,0-.05.02-.07.02-.06.02-.11.04-.17.05-.02,0-.05.01-.07.02-.08.02-.16.04-.24.06-.17.04-.34.08-.52.12-.03,0-.06.01-.1.02-.17.04-.33.08-.5.11-.35.08-.71.16-1.07.23-.24.05-.47.1-.71.15-.35.07-.71.15-1.07.22-.15.03-.31.06-.46.09-.08.02-.17.03-.25.05-.18.04-.36.07-.53.1-.11.02-.24.05-.36.07l-.25.05c-.32.06-.63.12-.95.18-.38.07-.77.14-1.16.21-.36.06-.72.13-1.09.19l-.18.03c-.45.08-.94.16-1.5.24-.01,0-.03,0-.04,0-.28.04-.57.09-.85.13-.28.04-.56.08-.84.12-.03,0-.06,0-.09.01-.27.04-.54.08-.82.12,0,0,0,0,0,0l-.89.12c-.62.08-1.23.16-1.82.23-.35.04-.73.09-1.23.14-.53.06-1.08.12-1.63.18-.37.04-.74.07-1.11.11-.52.05-1.07.1-1.68.15l-.59.05c-.24.02-.48.04-.71.05-.11,0-.23.02-.34.03-.06,0-.11,0-.17.01-.09,0-.17.01-.26.02,0,0,0,0-.01,0h0c-.17.01-.35.02-.52.04-.26.02-.54.03-.83.05-.29.02-.6.03-.93.05-.18.01-.36.02-.55.03-.12,0-.25.01-.37.02l-.49.02c-.63.03-1.19.05-1.71.07-.32.01-.64.02-.97.03-.03,0-.06,0-.08,0-.2,0-.4.01-.6.01-.09,0-.18,0-.27,0-.09,0-.18,0-.27,0h-.08s-.08,0-.08,0c-.18,0-.36,0-.55,0-.2,0-.4,0-.6,0h-.01c-.21,0-.42,0-.62,0-.13,0-.27,0-.41,0h-.2c-.18,0-.37,0-.55,0h0c-.18,0-.36,0-.54,0-.21,0-.43,0-.64,0-1.2,0-2.46-.04-3.73-.08-.38-.01-.76-.03-1.13-.04-.23,0-.47-.02-.7-.03-.17,0-.34-.01-.51-.02-.24-.01-.47-.02-.7-.04-.2-.01-.4-.02-.6-.03-.29-.02-.59-.03-.88-.05-.53-.03-1.07-.07-1.6-.11-.35-.03-.7-.05-1.04-.08l-.91-.08c-.07,0-.14-.01-.21-.02-.07,0-.14-.01-.21-.02l-.39-.04c-.38-.03-.76-.07-1.13-.11-.36-.03-.71-.07-1.07-.11-.39-.04-.78-.08-1.16-.13-.18-.02-.37-.04-.55-.06-.69-.08-1.42-.17-2.15-.27l-.53-.07c-.75-.1-1.43-.2-2.09-.3l-1.02-.16h0s0,0,0,0h0c-.48-.07-.96-.15-1.44-.23-1.84-.3-3.66-.64-5.44-1-.12-.02-.25-.05-.38-.08-.3-.06-.61-.12-.91-.19-.3-.06-.59-.13-.89-.19-.68-.15-1.24-.27-1.75-.39-.12-.03-.23-.06-.34-.09-.03,0-.06-.02-.09-.03-.11-.03-.21-.07-.31-.11,0,0-.02,0-.02,0-.11-.04-.21-.09-.32-.13-.03-.01-.05-.02-.08-.04-.09-.04-.18-.09-.27-.14-.01,0-.03-.01-.04-.02-.1-.05-.2-.11-.29-.17-.02-.02-.05-.03-.07-.05-.08-.05-.16-.11-.24-.16-.02-.01-.03-.02-.05-.03-.09-.07-.18-.13-.26-.21-.02-.02-.04-.04-.07-.06-.07-.06-.14-.12-.21-.19-.02-.02-.03-.03-.05-.05-.08-.08-.16-.15-.23-.24-.02-.02-.04-.04-.06-.06-.06-.07-.12-.14-.18-.21-.02-.02-.03-.04-.05-.06-.07-.09-.13-.17-.2-.26-.02-.02-.03-.04-.05-.07-.05-.07-.1-.15-.15-.23-.01-.02-.03-.04-.04-.07-.06-.09-.11-.19-.16-.29-.01-.02-.02-.04-.03-.07-.04-.08-.08-.16-.12-.25-.01-.03-.02-.05-.03-.08-.04-.1-.09-.2-.12-.31,0-.02-.01-.04-.02-.06-.03-.09-.06-.18-.09-.27,0-.02-.01-.03-.02-.05C.27,35.98-.01,37.2-.01,37.58c0,.8.99,1.8,2.72,2.76h0Z"/>
        </g>
      </g>
    </g>
  </g>
</svg>