<?xml version="1.0" encoding="UTF-8"?>
<svg id="Capa_2" data-name="Capa 2" xmlns="http://www.w3.org/2000/svg" xmlns:xlink="http://www.w3.org/1999/xlink" viewBox="0 0 73.08 85">
  <defs>
    <style>
      .cls-1 {
        clip-path: url(#clippath);
      }

      .cls-2 {
        fill: none;
      }

      .cls-3 {
        fill: #515151;
      }
    </style>
    <clipPath id="clippath">
      <rect class="cls-2" width="73.08" height="85"/>
    </clipPath>
  </defs>
  <g id="Layer_1" data-name="Layer 1">
    <g id="NewGroupe56">
      <g id="NewGroup0-3">
        <g>
          <path class="cls-3" d="m67.78,21.69c.65,0,1.18-.53,1.18-1.18s-.53-1.18-1.18-1.18-1.18.53-1.18,1.18.53,1.18,1.18,1.18h0Z"/>
          <path class="cls-3" d="m58.75,16.49c2.22,0,4.03,1.81,4.03,4.03s-1.81,4.03-4.03,4.03-4.03-1.81-4.03-4.03,1.81-4.03,4.03-4.03h0Zm-9.04,8.06c-2.22,0-4.03-1.81-4.03-4.03s1.81-4.03,4.03-4.03,4.03,1.81,4.03,4.03-1.81,4.03-4.03,4.03h0Zm18.07-8.06c2.22,0,4.03,1.81,4.03,4.03s-1.81,4.03-4.03,4.03-4.03-1.81-4.03-4.03,1.81-4.03,4.03-4.03h0Zm-6.63,23.67c3.91-4.89,8.5-7.73,11.93-9.31V7.26h-6.24v5.16c0,.79-.64,1.43-1.43,1.43s-1.43-.64-1.43-1.43V2.47h-4.67v5.25c0,.79-.64,1.43-1.43,1.43s-1.43-.64-1.43-1.43V0h-5.14v8.5c0,.79-.64,1.43-1.43,1.43s-1.43-.64-1.43-1.43V2.76h-4.73v19.86c0,.79-.64,1.43-1.43,1.43s-1.43-.64-1.43-1.43v-5.57l-3.98-3.77-5.36,4.7,4.49,10.36c.44,1.01,1.04,1.92,1.8,2.72l6.24,6.6c.25.26.39.61.39.98v12.34h1.69c.08-.01.15-.02.23-.02h9.07c1.22-3.95,3.13-7.58,5.71-10.8h0Z"/>
          <path class="cls-3" d="m49.71,19.34c-.65,0-1.18.53-1.18,1.18s.53,1.18,1.18,1.18,1.18-.53,1.18-1.18-.53-1.18-1.18-1.18h0Z"/>
          <path class="cls-3" d="m71.26,50.98h1.82v-16.96c-2.95,1.53-6.57,4-9.7,7.92-2.17,2.71-3.82,5.74-4.94,9.02h12.59c.08,0,.16,0,.23.02h0Z"/>
          <polygon class="cls-3" points="69.6 53.83 47.8 53.83 47.8 57.83 69.6 57.83 69.6 53.83 69.6 53.83"/>
          <g class="cls-1">
            <path class="cls-3" d="m58.75,21.69c.65,0,1.18-.53,1.18-1.18s-.53-1.18-1.18-1.18-1.18.53-1.18,1.18.53,1.18,1.18,1.18h0Z"/>
            <path class="cls-3" d="m8.42,71c-2.72-3.4-5.84-5.58-8.43-6.95v14.81h1.47c.07-.01.14-.02.22-.02h11.07c-.99-2.85-2.45-5.48-4.34-7.85h0Z"/>
            <path class="cls-3" d="m20.78,55.47c-2.07,0-3.76-1.69-3.76-3.76s1.69-3.76,3.76-3.76,3.76,1.69,3.76,3.76-1.69,3.76-3.76,3.76h0Zm-8.1,0c-2.07,0-3.76-1.69-3.76-3.76s1.69-3.76,3.76-3.76,3.76,1.69,3.76,3.76-1.69,3.76-3.76,3.76h0Zm-8.1,0c-2.07,0-3.76-1.69-3.76-3.76s1.69-3.76,3.76-3.76,3.76,1.69,3.76,3.76-1.69,3.76-3.76,3.76h0Zm19.4,23.39h1.35v-10.91c0-.36.14-.71.39-.98l5.59-5.91c.66-.7,1.2-1.51,1.58-2.4l3.98-9.19-4.62-4.05-3.42,3.24v4.93c0,.79-.64,1.43-1.43,1.43s-1.43-.64-1.43-1.43v-17.65h-3.95v5c0,.79-.64,1.43-1.43,1.43s-1.43-.64-1.43-1.43v-7.47h-4.31v6.77c0,.79-.64,1.43-1.43,1.43s-1.43-.64-1.43-1.43v-4.56h-3.89v8.77c0,.79-.64,1.43-1.43,1.43s-1.43-.64-1.43-1.43v-4.48H-.01v20.89c3.08,1.43,7.17,3.98,10.66,8.35,2.3,2.87,4.01,6.11,5.11,9.63h8.02c.07,0,.15,0,.22.02h0Z"/>
          </g>
          <polygon class="cls-3" points="22.35 81.71 3.1 81.71 3.1 85 22.35 85 22.35 81.71 22.35 81.71"/>
          <path class="cls-3" d="m12.69,50.8c-.5,0-.91.41-.91.91s.41.91.91.91.91-.41.91-.91-.41-.91-.91-.91h0Z"/>
          <path class="cls-3" d="m20.78,50.8c-.5,0-.91.41-.91.91s.41.91.91.91.91-.41.91-.91-.41-.91-.91-.91h0Z"/>
          <path class="cls-3" d="m4.59,50.8c-.5,0-.91.41-.91.91s.41.91.91.91.91-.41.91-.91-.41-.91-.91-.91h0Z"/>
        </g>
      </g>
    </g>
  </g>
</svg>