<?xml version="1.0" encoding="UTF-8"?>
<svg id="Capa_2" data-name="Capa 2" xmlns="http://www.w3.org/2000/svg" viewBox="0 0 85 58.74">
  <defs>
    <style>
      .cls-1 {
        fill: #515151;
      }
    </style>
  </defs>
  <g id="Layer_1" data-name="Layer 1">
    <g id="NewGroupe31">
      <g id="NewGroup0-28">
        <g>
          <path class="cls-1" d="m63.06,44.36c-.16.69-.12,2.3.63,4.42.74,2.12,1.72,3.4,2.27,3.84.16-.69.12-2.3-.63-4.42-.74-2.12-1.72-3.4-2.27-3.84h0Z"/>
          <path class="cls-1" d="m8.04,30.96c.06,0,.13,0,.19,0,.2,0,.41.03.61.09.21.06.41.15.62.27.04.02.08.05.12.08.08.05.16.11.24.17.04.03.08.06.12.1.65.53,1.26,1.34,1.81,2.38.03.07.07.13.1.2.43.87.82,1.9,1.12,3.06.02.09.05.18.07.27.05.18.09.37.13.55.06.28.12.57.17.86.03.2.07.39.1.6.18,1.21.28,2.51.28,3.9s-.11,2.76-.3,3.99c-.05.35-.11.69-.18,1.02-.03.17-.07.33-.11.49-.07.29-.14.57-.21.84-.02.07-.04.13-.06.2-.84,2.97-2.2,4.98-3.55,5.69,0,0-.01,0-.02.01-.36.19-.73.28-1.08.28-2.6,0-5.5-5.15-5.5-12.53s2.74-12.28,5.31-12.52h0Zm13.24-15.37c0-4.52,3.37-8.26,7.73-8.85.58,2.39,2.73,4.17,5.29,4.17h16.46c1.45,0,2.82-.57,3.85-1.6.72-.72,1.21-1.6,1.44-2.57,4.36.59,7.73,4.34,7.73,8.85v12.64H21.28v-12.64h0Zm47.16,20.27c1.92,0,3.49,1.56,3.49,3.48v4.78c0,.75-.61,1.36-1.36,1.36s-1.36-.61-1.36-1.36v-4.78c0-.42-.34-.76-.76-.76H29.86c-.42,0-.76.34-.76.76v7.63c0,.42.34.76.76.76h27.9c.75,0,1.36.61,1.36,1.36s-.61,1.36-1.36,1.36h-27.9c-1.92,0-3.48-1.56-3.48-3.48v-7.63c0-1.92,1.56-3.48,3.48-3.48h38.58Zm.32,16.11c-.06,2.44-1.17,3.19-1.83,3.42-.19.07-.44.12-.74.12-.72,0-1.71-.33-2.82-1.65-.87-1.04-1.67-2.52-2.25-4.17-.58-1.65-.88-3.3-.85-4.66,0-.18.01-.35.03-.51h-23.61c-.75,0-1.36-.61-1.36-1.36s.61-1.36,1.36-1.36h24.6c.12,0,.23.02.34.04.17-.11.33-.18.47-.23.66-.23,2-.34,3.56,1.53.87,1.04,1.67,2.52,2.25,4.17s.88,3.3.85,4.66h0Zm-60.53,6.77c.69,0,1.36-.15,2.01-.43,5.49.04,65.96.43,66.53.43,2.38,0,4.54-1.71,6.08-4.83,1.39-2.81,2.15-6.51,2.15-10.43s-.76-7.62-2.15-10.43c-1.54-3.11-3.7-4.83-6.08-4.83h-10.27v-12.64c0-6.04-4.61-11.02-10.5-11.61-.64-2.31-2.75-3.98-5.25-3.98h-16.46c-1.45,0-2.82.57-3.85,1.6-.67.67-1.15,1.49-1.39,2.38-5.89.59-10.5,5.57-10.5,11.61v12.64H7.9c-.13,0-.25.02-.37.05-2.17.31-4.11,2.08-5.5,5.02-1.31,2.78-2.03,6.39-2.03,10.19s.76,7.62,2.15,10.43c1.54,3.11,3.7,4.83,6.08,4.83h0Z"/>
        </g>
      </g>
    </g>
  </g>
</svg>