<?xml version="1.0" encoding="UTF-8"?>
<svg id="Capa_2" data-name="Capa 2" xmlns="http://www.w3.org/2000/svg" xmlns:xlink="http://www.w3.org/1999/xlink" viewBox="0 0 85 70.04">
  <defs>
    <style>
      .cls-1 {
        clip-path: url(#clippath);
      }

      .cls-2 {
        fill: none;
      }

      .cls-3 {
        fill: #515151;
      }
    </style>
    <clipPath id="clippath">
      <rect class="cls-2" width="85" height="70.04"/>
    </clipPath>
  </defs>
  <g id="Layer_1" data-name="Layer 1">
    <g id="NewGroupe45">
      <g id="NewGroup0-14">
        <g>
          <path class="cls-3" d="m85,13.38c0-7.38-6-13.38-13.38-13.38s-13.38,6-13.38,13.38v16.12h26.76V13.38h0Z"/>
          <g class="cls-1">
            <path class="cls-3" d="m71.62,61.73c7.38,0,13.38-6,13.38-13.38v-16.12h-26.76v16.12c0,7.38,6,13.38,13.38,13.38h0Z"/>
            <path class="cls-3" d="m8.63,28.97s.02-.06.03-.09c.45-1.14,3.55-1.99,9.48-1.31,5.93.68,13.36,2.67,20.99,5.61l-4.99,12.73c-2.54-1.01-4.99-2.08-7.32-3.17,0,0,0,0,0,0-.31-.15-.62-.29-.93-.44,0,0,0,0,0,0-.15-.07-.3-.15-.46-.22,0,0,0,0-.01,0-.15-.07-.3-.15-.44-.22-.01,0-.02-.01-.03-.02-.14-.07-.28-.14-.42-.21-.01,0-.02-.01-.04-.02-.14-.07-.28-.14-.41-.21-.02-.01-.04-.02-.06-.03-.13-.07-.26-.13-.39-.2-.02,0-.03-.02-.05-.03-.13-.07-.26-.13-.39-.2-.02-.01-.04-.02-.07-.03-.12-.06-.25-.13-.37-.19-.02,0-.03-.02-.05-.02-.13-.07-.26-.14-.39-.2-.02-.01-.05-.02-.07-.04-.12-.06-.24-.13-.36-.19-.02-.01-.04-.02-.07-.04-.12-.06-.24-.13-.36-.19-.03-.01-.05-.03-.08-.04-.12-.06-.23-.12-.34-.19-.03-.01-.05-.03-.08-.04-.11-.06-.22-.12-.34-.19-.03-.02-.06-.03-.08-.05-.11-.06-.22-.12-.33-.18-.03-.02-.06-.03-.09-.05-.1-.06-.21-.12-.31-.18-.03-.02-.06-.04-.1-.06-.1-.06-.2-.12-.3-.17-.03-.02-.06-.04-.09-.05-.1-.06-.2-.12-.3-.17-.03-.02-.07-.04-.1-.06-.1-.06-.19-.11-.29-.17-.04-.02-.07-.04-.11-.06-.09-.05-.18-.11-.28-.16-.04-.02-.07-.04-.11-.06-.09-.05-.18-.11-.27-.16-.04-.02-.08-.05-.12-.07-.09-.05-.17-.1-.25-.15-.04-.02-.08-.05-.12-.07-.08-.05-.16-.1-.25-.15-.04-.02-.08-.05-.12-.07-.08-.05-.16-.1-.24-.15-.04-.02-.08-.05-.12-.07-.08-.05-.16-.1-.24-.15-.04-.03-.08-.05-.13-.08-.07-.05-.15-.1-.22-.14-.04-.03-.09-.06-.13-.08-.07-.05-.14-.09-.21-.14-.04-.03-.09-.06-.13-.09-.07-.04-.14-.09-.2-.13-.04-.03-.09-.06-.13-.09-.07-.04-.13-.09-.2-.13-.05-.03-.09-.06-.14-.09-.06-.04-.13-.09-.19-.13-.05-.03-.09-.06-.14-.09-.06-.04-.12-.08-.18-.13-.05-.03-.09-.06-.14-.1-.06-.04-.12-.08-.17-.12-.05-.03-.09-.07-.14-.1-.06-.04-.11-.08-.17-.12-.05-.03-.09-.07-.14-.1-.05-.04-.11-.08-.16-.12-.05-.03-.09-.07-.14-.1-.05-.04-.1-.08-.15-.11-.05-.03-.09-.07-.14-.1-.05-.04-.1-.07-.15-.11-.05-.03-.09-.07-.13-.1-.05-.04-.09-.07-.14-.11-.05-.04-.09-.07-.13-.11-.04-.04-.09-.07-.13-.11-.04-.04-.09-.07-.13-.11-.04-.03-.09-.07-.13-.1-.04-.04-.09-.07-.13-.11-.04-.03-.08-.07-.12-.1-.04-.04-.09-.07-.13-.11-.04-.03-.08-.07-.12-.1-.04-.04-.08-.07-.12-.11-.04-.03-.08-.07-.11-.1-.04-.04-.08-.07-.12-.11-.04-.03-.07-.06-.11-.1-.04-.04-.08-.07-.12-.11-.04-.03-.07-.06-.11-.1-.04-.04-.07-.07-.11-.11-.03-.03-.07-.06-.1-.1-.04-.03-.07-.07-.11-.1-.03-.03-.07-.06-.1-.1-.03-.03-.07-.07-.1-.1-.03-.03-.06-.06-.09-.09-.03-.03-.07-.07-.1-.1-.03-.03-.05-.05-.08-.08-.03-.04-.07-.08-.1-.12-.03-.04-.07-.08-.1-.12-.03-.04-.07-.08-.1-.13-.03-.04-.07-.08-.1-.12-.03-.04-.06-.08-.09-.12-.03-.04-.06-.08-.09-.12-.03-.04-.05-.07-.07-.11-.03-.04-.06-.09-.09-.13-.02-.03-.04-.06-.06-.08-.03-.05-.07-.1-.1-.15-.01-.02-.02-.04-.03-.06-.04-.06-.07-.12-.1-.17,0,0,0-.01-.01-.02-.42-.73-.58-1.35-.46-1.79h0Zm-1.13,23.93c5.19,3.58,12.48,7.29,20.52,10.44,10.07,3.95,19.94,6.45,26.39,6.7.02,0,.04,0,.05,0,.73,0,1.34-.58,1.36-1.31.03-.75-.56-1.39-1.31-1.42-6.16-.23-15.69-2.67-25.5-6.51-7.85-3.08-14.95-6.68-19.97-10.15-5.76-3.97-6.49-6.2-6.29-6.72l4.34-11.07s0,0,0,0c.07.09.13.18.2.26.02.02.04.04.05.07.07.09.14.18.22.27,0,0,0,0,0,0,.08.09.16.18.24.27.02.02.04.05.06.07.08.09.16.17.24.26,0,0,0,0,0,.01,2.44,2.57,6.69,5.51,12.03,8.39.28.15.57.3.86.46.16.08.31.17.47.25,3.24,1.69,6.84,3.35,10.66,4.9.53.22,1.07.43,1.61.64.21.08.42.16.62.24.01,0,.02,0,.03.01.01,0,.03,0,.04.01.17.06.34.13.51.19.18.07.36.14.54.2.21.08.43.16.64.24.24.09.48.18.72.26.15.05.29.11.44.16.28.1.56.2.84.3.1.04.2.07.3.11.31.11.63.22.94.32.06.02.12.04.18.06.34.12.68.23,1.02.34.03,0,.05.02.08.03,3.29,1.09,6.47,1.99,9.46,2.69.11.02.21.05.32.07.2.05.4.09.61.13.11.02.23.05.34.07,0,0,.02,0,.02,0,.47.1.94.2,1.4.29.74.15,1.46-.34,1.6-1.08.15-.74-.34-1.46-1.08-1.6-.55-.11-1.11-.23-1.68-.35-.21-.05-.42-.09-.63-.14-.08-.02-.16-.04-.24-.06-2.93-.68-6.07-1.57-9.3-2.64-.01,0-.02,0-.03-.01-.34-.11-.69-.23-1.03-.35-.05-.02-.1-.03-.15-.05-.31-.11-.63-.22-.94-.33-.09-.03-.18-.06-.27-.09-.28-.1-.56-.2-.84-.3-.14-.05-.27-.1-.41-.15-.24-.09-.48-.17-.72-.26-.13-.05-.26-.1-.4-.15l4.98-12.7c3.07,1.26,6,2.62,8.75,4.05.67.35,1.49.09,1.84-.58.35-.67.09-1.49-.58-1.84-3.11-1.62-6.46-3.15-9.96-4.55-.09-.07-.19-.13-.31-.17-.11-.04-.22-.07-.33-.08-.11-.05-.23-.09-.34-.14-8.06-3.16-15.97-5.3-22.29-6.02-3.15-.36-5.77-.35-7.77.02-2.43.46-3.96,1.47-4.56,3-.03.07-.05.14-.08.22-.03.06-.06.13-.09.2L.22,42.94c-1.01,2.58,1.44,5.94,7.28,9.97h0Z"/>
          </g>
        </g>
      </g>
    </g>
  </g>
</svg>