<?xml version="1.0" encoding="UTF-8"?>
<svg id="Capa_2" data-name="Capa 2" xmlns="http://www.w3.org/2000/svg" xmlns:xlink="http://www.w3.org/1999/xlink" viewBox="0 0 62.57 85">
  <defs>
    <style>
      .cls-1 {
        clip-path: url(#clippath);
      }

      .cls-2 {
        fill: none;
      }

      .cls-3 {
        fill: #515151;
      }
    </style>
    <clipPath id="clippath">
      <rect class="cls-2" width="62.57" height="85"/>
    </clipPath>
  </defs>
  <g id="Layer_1" data-name="Layer 1">
    <g id="NewGroupe53">
      <g id="NewGroup0-6">
        <g>
          <path class="cls-3" d="m2.81,4.99c0-1.2.98-2.18,2.18-2.18h22.93c1.2,0,2.18.98,2.18,2.18v5.97c0,1.2-.98,2.18-2.18,2.18H4.99c-1.2,0-2.18-.98-2.18-2.18v-5.97h0Zm2.18,10.96h1.76v5.19h-.2C2.96,21.14.03,24.06.03,27.65v13.45H.03v27.59c0,3.59,2.92,6.51,6.51,6.51h4.13c.78,0,1.4-.63,1.4-1.4s-.63-1.4-1.4-1.4h-4.13c-2.04,0-3.71-1.66-3.71-3.71v-1.59h13.64c.78,0,1.4-.63,1.4-1.4V29.26c0-.78-.63-1.4-1.4-1.4H2.84v-.2c0-2.04,1.66-3.71,3.71-3.71h19.81c2.04,0,3.71,1.66,3.71,3.71v35.12c0,.78.63,1.4,1.4,1.4s1.4-.63,1.4-1.4V27.65c0-3.59-2.92-6.51-6.51-6.51h-.2v-5.19h1.76c2.75,0,4.99-2.24,4.99-4.99v-5.97c0-2.75-2.24-4.99-4.99-4.99H4.99C2.24,0,0,2.24,0,4.99v5.97c0,2.75,2.24,4.99,4.99,4.99h0Z"/>
          <path class="cls-3" d="m5.7,12.69c.78,0,1.4-.63,1.4-1.4v-6.31c0-.78-.63-1.4-1.4-1.4s-1.4.63-1.4,1.4v6.31c0,.78.63,1.4,1.4,1.4h0Z"/>
          <path class="cls-3" d="m12.7,12.69c.78,0,1.4-.63,1.4-1.4v-6.31c0-.78-.63-1.4-1.4-1.4s-1.4.63-1.4,1.4v6.31c0,.78.63,1.4,1.4,1.4h0Z"/>
          <path class="cls-3" d="m19.71,12.69c.78,0,1.4-.63,1.4-1.4v-6.31c0-.78-.63-1.4-1.4-1.4s-1.4.63-1.4,1.4v6.31c0,.78.63,1.4,1.4,1.4h0Z"/>
          <g class="cls-1">
            <path class="cls-3" d="m26.71,12.69c.78,0,1.4-.63,1.4-1.4v-6.31c0-.78-.63-1.4-1.4-1.4s-1.4.63-1.4,1.4v6.31c0,.78.63,1.4,1.4,1.4h0Z"/>
            <path class="cls-3" d="m49.42,48.83c.04-.31.21-.59.46-.78.21-.16.45-.24.71-.24.05,0,.11,0,.16.01.31.04.59.21.78.46l5.35,7.08c.39.52.29,1.26-.23,1.66h0c-.52.39-1.26.29-1.66-.23l-5.35-7.08c-.19-.25-.27-.56-.23-.88h0Zm-23.89,31.29c-.04.31-.21.59-.46.78h0c-.25.19-.56.27-.88.23-.31-.04-.59-.21-.78-.46l-5.35-7.08c-.39-.52-.29-1.26.23-1.66.21-.16.46-.24.71-.24.36,0,.71.16.94.47l5.35,7.08c.19.25.27.56.23.88h0Zm3.62-11.79l-1.13.85-2.84-3.76c-1.33-1.75-3.83-2.1-5.59-.78-1.37,1.03-1.88,2.78-1.41,4.33-.55.12-1.09.35-1.57.72-1.49,1.13-1.97,3.11-1.26,4.75-.49.13-.96.36-1.37.67-.85.64-1.4,1.58-1.55,2.63-.15,1.06.13,2.11.77,2.96l2.05,2.71c.64.85,1.58,1.4,2.63,1.55.19.03.37.04.56.04.86,0,1.7-.28,2.4-.81h0c.42-.32.76-.7,1.02-1.14.56.45,1.23.75,1.96.85.19.03.37.04.56.04.86,0,1.7-.28,2.4-.81h0c.47-.36.85-.8,1.12-1.31.65.41,1.4.62,2.15.62.84,0,1.68-.26,2.4-.81,1.75-1.33,2.1-3.83.78-5.59l-3.5-4.63,1.13-.85c.24-.18.54-.26.84-.22l1.5.21c1.04.14,2.08-.13,2.92-.76l7.13-5.39c.84-.63,1.38-1.56,1.53-2.6l.12-.89c.04-.3.2-.56.44-.75l1.23-.93,3.24,4.29c.64.85,1.58,1.4,2.63,1.55.19.03.37.04.56.04.86,0,1.7-.28,2.4-.81h0c.85-.64,1.4-1.58,1.55-2.63.08-.58.03-1.16-.13-1.7.55-.12,1.09-.35,1.57-.72,1.49-1.13,1.97-3.11,1.26-4.75.49-.13.96-.36,1.37-.67h0c.85-.64,1.4-1.58,1.55-2.63.15-1.06-.13-2.11-.77-2.96l-2.05-2.71c-.64-.85-1.58-1.4-2.63-1.55-1.06-.15-2.11.13-2.96.77-.42.32-.76.7-1.02,1.14-.56-.45-1.23-.75-1.96-.85-1.06-.15-2.11.13-2.96.77-.47.36-.85.8-1.12,1.31-.48-.31-1.02-.51-1.6-.59-1.06-.15-2.11.13-2.96.77-1.75,1.33-2.1,3.83-.78,5.59l3.11,4.11-1.23.93c-.84.63-1.38,1.56-1.53,2.6l-.12.89c-.04.3-.2.56-.44.75l-7.13,5.39c-.24.18-.54.26-.84.22l-1.5-.21c-1.04-.14-2.08.12-2.92.76h0Z"/>
          </g>
        </g>
      </g>
    </g>
  </g>
</svg>