<?xml version="1.0" encoding="UTF-8"?>
<svg id="Capa_2" data-name="Capa 2" xmlns="http://www.w3.org/2000/svg" xmlns:xlink="http://www.w3.org/1999/xlink" viewBox="0 0 84.99 45.39">
  <defs>
    <style>
      .cls-1 {
        clip-path: url(#clippath);
      }

      .cls-2 {
        fill: none;
      }

      .cls-3 {
        fill: #515151;
      }
    </style>
    <clipPath id="clippath">
      <rect class="cls-2" width="84.99" height="45.39"/>
    </clipPath>
  </defs>
  <g id="Layer_1" data-name="Layer 1">
    <g id="NewGroupe21">
      <g id="NewGroup0-38">
        <g class="cls-1">
          <path class="cls-3" d="m70.55,6.65c0,3.67,2.98,6.65,6.65,6.65s6.65-2.98,6.65-6.65-2.98-6.65-6.65-6.65-6.65,2.98-6.65,6.65h0Z"/>
          <path class="cls-3" d="m12.83,38.66c-.68-1.72.17-3.67,1.89-4.34l13.68-5.37c.19-.07.35-.19.49-.33l6.19-6.56c.46-.49,1.05-.82,1.7-.97l26.28-5.92c1.71-.38,3.4.58,3.93,2.26l6.46,20.37c.56,1.76-.42,3.65-2.18,4.21-.33.1-.67.16-1.01.16h0c-1.47,0-2.75-.94-3.19-2.34l-5.15-16.24c-.18-.58-.72-.95-1.3-.95-.1,0-.2.01-.3.03l-20.65,4.65c-.26.06-.51.2-.69.39l-5.92,6.28c-.34.36-.76.64-1.21.82l-14.66,5.76c-1.72.68-3.67-.17-4.34-1.89h0Zm6.4,4.01l13.6-5.34c.83-.33,1.59-.84,2.2-1.49l5.64-5.98,19.03-4.28,4.78,15.05c.24.76.62,1.45,1.11,2.04H19.23Zm-17.87,2.72h82.28c.75,0,1.36-.61,1.36-1.36s-.61-1.36-1.36-1.36h-8.71c1.27-1.54,1.76-3.67,1.12-5.71l-6.46-20.37c-.46-1.45-1.44-2.67-2.77-3.43s-2.87-.99-4.36-.66l-26.28,5.92c-1.18.27-2.25.87-3.08,1.76l-5.98,6.34-13.39,5.26c-3.12,1.22-4.66,4.76-3.43,7.87.52,1.32,1.45,2.35,2.58,3.01H1.36c-.75,0-1.36.61-1.36,1.36s.61,1.36,1.36,1.36h0Z"/>
        </g>
      </g>
    </g>
  </g>
</svg>