<?xml version="1.0" encoding="UTF-8"?>
<svg id="Capa_2" data-name="Capa 2" xmlns="http://www.w3.org/2000/svg" viewBox="0 0 84.95 85">
  <defs>
    <style>
      .cls-1 {
        fill: #515151;
      }
    </style>
  </defs>
  <g id="Layer_1" data-name="Layer 1">
    <g id="NewGroupe8">
      <g id="NewGroup0-51">
        <g>
          <path class="cls-1" d="m0,41.02h16.14c0-.94.02-1.88.04-2.81.09-3.51.31-7.02.66-10.51H2.64c-1.56,4.17-2.47,8.66-2.64,13.33h0Z"/>
          <path class="cls-1" d="m3.87,24.73h13.3c.78-6.33,1.99-12.61,3.64-18.78C13.44,10.33,7.49,16.89,3.87,24.73h0Z"/>
          <path class="cls-1" d="m3.87,60.27c3.72,8.06,9.89,14.76,17.55,19.14-1.79-6.3-3.13-12.69-4.01-19.14H3.87Z"/>
          <path class="cls-1" d="m84.95,43.98h-16.07c-.08,4.46-.37,8.9-.88,13.33h14.31c1.56-4.17,2.47-8.66,2.64-13.33h0Z"/>
          <path class="cls-1" d="m82.31,27.69h-14.11c.35,3.49.57,7,.66,10.51.02.94.04,1.88.04,2.81h16.05c-.16-4.67-1.08-9.15-2.64-13.33h0Z"/>
          <path class="cls-1" d="m67.63,60.27c-.88,6.43-2.21,12.8-3.99,19.07,7.61-4.39,13.73-11.06,17.44-19.07h-13.45Z"/>
          <path class="cls-1" d="m64.64,60.27H20.41c.92,6.57,2.32,13.08,4.2,19.49.13.43.05.87-.18,1.22,5.48,2.58,11.59,4.02,18.04,4.02s12.62-1.46,18.11-4.06c-.21-.34-.28-.77-.15-1.18,1.88-6.41,3.28-12.92,4.2-19.49h0Z"/>
          <path class="cls-1" d="m65.9,38.28c-.09-3.54-.31-7.07-.68-10.58H19.82c-.36,3.52-.59,7.05-.68,10.58-.02.91-.03,1.83-.04,2.74h46.83c0-.91-.02-1.83-.04-2.74h0Z"/>
          <path class="cls-1" d="m64.25,6.01c1.64,6.15,2.85,12.41,3.62,18.71h13.21c-3.6-7.8-9.5-14.33-16.83-18.71h0Z"/>
          <path class="cls-1" d="m65.92,43.98H19.13c.08,4.46.38,8.9.9,13.33h44.99c.52-4.42.82-8.87.9-13.33h0Z"/>
          <path class="cls-1" d="m42.47,0c-6.45,0-12.57,1.44-18.05,4.03-1.96,6.79-3.38,13.71-4.26,20.7h44.72c-.88-6.97-2.3-13.88-4.25-20.65C55.13,1.46,48.97,0,42.47,0h0Z"/>
          <path class="cls-1" d="m16.16,43.98H0c.16,4.67,1.08,9.15,2.64,13.33h14.41c-.51-4.42-.8-8.87-.88-13.33h0Z"/>
        </g>
      </g>
    </g>
  </g>
</svg>