<?xml version="1.0" encoding="UTF-8"?>
<svg id="Capa_2" data-name="Capa 2" xmlns="http://www.w3.org/2000/svg" viewBox="0 0 63.34 85">
  <defs>
    <style>
      .cls-1 {
        fill: #515151;
      }
    </style>
  </defs>
  <g id="Layer_1" data-name="Layer 1">
    <g id="NewGroupe27">
      <g id="NewGroup0-32">
        <path class="cls-1" d="m58.06,64.18c.26,0,.51.1.69.29.18.19.28.44.27.7-.02.51-.47.93-1.02.93h-1.46c-.74,0-1.34.6-1.34,1.34v3.41c0,.74.6,1.34,1.34,1.34h1.46c.55,0,1,.42,1.02.93,0,.26-.09.51-.27.7-.18.19-.43.29-.69.29h-1.52c-.74,0-1.34.6-1.34,1.34v1.16c0,1.54-.6,2.98-1.7,4.06-1.09,1.08-2.55,1.67-4.08,1.65-3.11-.04-5.64-2.65-5.64-5.82v-1.05c0-.74-.6-1.34-1.34-1.34h-2.11c-.26,0-.51-.1-.69-.29-.18-.19-.28-.44-.27-.7.02-.51.47-.93,1.02-.93h2.05c.74,0,1.34-.6,1.34-1.34v-3.41c0-.74-.6-1.34-1.34-1.34h-2.11c-.26,0-.51-.1-.69-.29-.18-.19-.28-.44-.27-.7.02-.51.47-.93,1.02-.93h2.05c.74,0,1.34-.6,1.34-1.34v-3.37h11.42v3.37c0,.74.6,1.34,1.34,1.34h1.52ZM31.65,30.46c-6.21,0-11.26-5.05-11.26-11.26s5.05-11.26,11.26-11.26,11.26,5.05,11.26,11.26-5.05,11.26-11.26,11.26h0Zm-12.08,29.01v3.38c0,.74.6,1.34,1.34,1.34h1.69c.53,0,.96.43.96.96s-.43.96-.96.96h-1.69c-.74,0-1.34.6-1.34,1.34v3.42c0,.74.6,1.34,1.34,1.34h1.69c.53,0,.96.43.96.96s-.43.96-.96.96h-1.69c-.74,0-1.34.6-1.34,1.34v1.17c0,3.15-2.56,5.71-5.71,5.71s-5.71-2.56-5.71-5.71v-1.17c0-.74-.6-1.34-1.34-1.34h-1.96c-.53,0-.96-.43-.96-.96s.43-.96.96-.96h1.96c.74,0,1.34-.6,1.34-1.34v-3.42c0-.74-.6-1.34-1.34-1.34h-1.96c-.53,0-.96-.43-.96-.96s.43-.96.96-.96h1.96c.74,0,1.34-.6,1.34-1.34v-3.38h11.42Zm39.68-8.19h-8.94c-1.54-3.03-2.13-5.97-1.77-8.77.25-1.96.9-3.24,1.64-4.73.52-1.03,1.05-2.09,1.51-3.46,1.48-4.46,1.2-9.63-.85-15.37-.13-10.47-8.69-18.96-19.19-18.96S12.45,8.61,12.45,19.19c0,.61.03,1.21.09,1.8-.87,4.67-.86,9.16.04,13.36.31,1.42.68,2.66,1.03,3.86.76,2.55,1.42,4.75,1.08,7.7-.21,1.82-.75,3.61-1.62,5.35H4.1c-1.09,0-2.12.43-2.9,1.2-.77.77-1.2,1.8-1.2,2.9,0,2.26,1.84,4.1,4.1,4.1h1.39v2.04h-.62c-2,0-3.63,1.63-3.63,3.63s1.63,3.63,3.63,3.63h.62v.75h-.62c-2,0-3.63,1.63-3.63,3.63s1.63,3.63,3.63,3.63h.62c.09,4.54,3.81,8.21,8.38,8.21s8.29-3.67,8.38-8.21h.35c2,0,3.63-1.63,3.63-3.63s-1.63-3.63-3.63-3.63h-.35v-.75h.35c2,0,3.63-1.63,3.63-3.63s-1.63-3.63-3.63-3.63h-.35v-2.04h1.39c1.09,0,2.12-.43,2.9-1.2.77-.77,1.2-1.8,1.2-2.9,0-2.26-1.84-4.1-4.1-4.1h-7.61c.69-1.65,1.14-3.34,1.33-5.05.4-3.5-.37-6.06-1.18-8.77-.34-1.15-.7-2.34-.98-3.66-.4-1.89-.61-3.84-.62-5.86,3.19,6.2,9.65,10.44,17.08,10.44,8.35,0,15.47-5.36,18.11-12.82.39,2.88.19,5.53-.6,7.91-.39,1.19-.88,2.16-1.36,3.1-.78,1.56-1.59,3.17-1.9,5.58-.38,2.95.11,6.01,1.47,9.11h-7.64c-1.09,0-2.12.43-2.9,1.2-.77.77-1.2,1.8-1.2,2.9,0,2.26,1.84,4.1,4.1,4.1h1.39v2.04h-.72c-1.97,0-3.63,1.57-3.69,3.51-.03.99.33,1.93,1.02,2.65.69.71,1.62,1.11,2.61,1.11h.78v.75h-.72c-1.97,0-3.63,1.57-3.69,3.51-.03.99.33,1.93,1.02,2.65.69.71,1.62,1.11,2.61,1.11h.78c.14,4.5,3.8,8.16,8.27,8.21.04,0,.07,0,.11,0,2.22,0,4.31-.86,5.89-2.42,1.57-1.55,2.45-3.6,2.49-5.79h.2c.99,0,1.92-.39,2.61-1.11.69-.71,1.05-1.65,1.02-2.65-.06-1.93-1.72-3.51-3.69-3.51h-.13v-.75h.13c1.97,0,3.63-1.57,3.69-3.51.03-.99-.33-1.93-1.02-2.65-.69-.71-1.62-1.11-2.61-1.11h-.19v-2.04h1.39c1.09,0,2.12-.43,2.9-1.2.77-.77,1.2-1.8,1.2-2.9,0-2.26-1.84-4.1-4.1-4.1h0Z"/>
      </g>
    </g>
  </g>
</svg>