<?xml version="1.0" encoding="UTF-8"?>
<svg id="Capa_2" data-name="Capa 2" xmlns="http://www.w3.org/2000/svg" viewBox="0 0 53.28 85">
  <defs>
    <style>
      .cls-1 {
        fill: #515151;
      }
    </style>
  </defs>
  <g id="Layer_1" data-name="Layer 1">
    <g id="NewGroupe18">
      <g id="NewGroup0-41">
        <g>
          <path class="cls-1" d="m41.05,41.44h-4.23c-.7,0-1.29-.52-1.38-1.21l-1.06-8.01-.7,2.32c-.18.59-.72.99-1.34.99h-5.56l-4.72,11.05c-.22.52-.73.85-1.28.85-.08,0-.16,0-.25-.02-.64-.11-1.12-.66-1.15-1.31l-.97-19.61-2.62,7.02c-.2.55-.73.91-1.31.91h-7.6c-.77,0-1.4-.63-1.4-1.4s.63-1.4,1.4-1.4h6.64l4.65-12.44c.23-.62.87-.99,1.52-.89.65.1,1.15.65,1.18,1.31l1.01,20.31,2.7-6.33c.22-.51.72-.85,1.28-.85h5.44l2.28-7.5c.19-.63.8-1.04,1.45-.99.65.05,1.18.56,1.27,1.21l1.74,13.2h3.01c.77,0,1.4.63,1.4,1.4s-.63,1.4-1.4,1.4h0Zm-20.37,18.94l-7.74,7.74c-.27.27-.63.41-.99.41s-.71-.14-.99-.41l-7.74-7.74c-2.59-2.59-2.59-6.81,0-9.4l.32-.32c2.28-2.28,5.83-2.55,8.41-.81,2.58-1.74,6.13-1.47,8.41.81l.32.32c2.59,2.59,2.59,6.81,0,9.4h0ZM44.13,14.07H3.46c-1.91,0-3.46,1.55-3.46,3.46v51.06c0,1.91,1.55,3.46,3.46,3.46h40.67c1.91,0,3.46-1.55,3.46-3.46v-8.47c-.07-.31-.11-.64-.11-.97v-6.14c0-.33.04-.66.11-.97v-18.28c-.07-.31-.11-.64-.11-.97v-6.14c0-.33.04-.66.11-.97v-8.14c0-1.91-1.55-3.46-3.46-3.46h0Z"/>
          <path class="cls-1" d="m18.39,52.64c-1.5-1.5-3.95-1.5-5.45,0-.55.55-1.43.55-1.97,0-.75-.75-1.74-1.13-2.72-1.13s-1.97.38-2.72,1.13l-.32.32c-1.5,1.5-1.5,3.95,0,5.45l6.75,6.75,6.75-6.75c1.5-1.5,1.5-3.95,0-5.45l-.32-.32h0Z"/>
          <path class="cls-1" d="m51.77,51.49c-.63,0-1.17.39-1.4.94v7.28c.22.55.77.94,1.4.94.83,0,1.51-.68,1.51-1.51v-6.14c0-.83-.68-1.51-1.51-1.51h0Z"/>
          <path class="cls-1" d="m12.63,83.65c.33.82,1.11,1.35,2,1.35h18.72c.89,0,1.7-.56,2.01-1.39l3.31-8.77H9.1l3.53,8.81h0Z"/>
          <path class="cls-1" d="m51.77,25.13c-.63,0-1.17.39-1.4.94v7.28c.22.55.77.94,1.4.94.83,0,1.51-.68,1.51-1.51v-6.14c0-.83-.68-1.51-1.51-1.51h0Z"/>
          <path class="cls-1" d="m31.66,0h-15.81c-1.77,0-3.38,1.11-4,2.77l-3.21,8.52h30.44l-3.44-8.6c-.65-1.63-2.21-2.69-3.97-2.69h0Z"/>
        </g>
      </g>
    </g>
  </g>
</svg>