<?xml version="1.0" encoding="UTF-8"?>
<svg id="Capa_2" data-name="Capa 2" xmlns="http://www.w3.org/2000/svg" xmlns:xlink="http://www.w3.org/1999/xlink" viewBox="0 0 85 84.99">
  <defs>
    <style>
      .cls-1 {
        clip-path: url(#clippath-1);
      }

      .cls-2 {
        clip-path: url(#clippath);
      }

      .cls-3 {
        fill: none;
      }

      .cls-4 {
        fill: #515151;
      }
    </style>
    <clipPath id="clippath">
      <rect class="cls-3" width="85" height="84.99"/>
    </clipPath>
    <clipPath id="clippath-1">
      <rect class="cls-3" width="85" height="84.99"/>
    </clipPath>
  </defs>
  <g id="Layer_1" data-name="Layer 1">
    <g id="NewGroupe46">
      <g id="NewGroup0-13">
        <g>
          <path class="cls-4" d="m16.69,8.73l11.73,13.65c4.13-2.91,8.97-4.43,14.08-4.43,5.54,0,10.89,1.86,15.21,5.28l11.7-13.62c-5.17-4.23-11.25-7.18-17.74-8.61v5.04c0,4.92-4,8.93-8.93,8.93-2.39,0-4.63-.93-6.31-2.61-1.69-1.69-2.61-3.93-2.61-6.31V.89c-6.21,1.29-12.07,3.97-17.13,7.84h0Z"/>
          <g class="cls-2">
            <path class="cls-4" d="m14.01,74.07l11.72-13.64c-4.97-4.64-7.79-11.09-7.79-17.94s2.94-13.59,8.12-18.25l-11.7-13.61C7.58,16.64,2.88,24.63.97,33.43h5.45c4.92,0,8.93,4,8.93,8.93,0,2.38-.93,4.63-2.61,6.31-1.69,1.69-3.93,2.61-6.31,2.61H.91c1.88,8.98,6.57,16.89,13.1,22.79h0Z"/>
            <path class="cls-4" d="m48.67,6.03V.44c-.13-.02-.27-.04-.4-.06-.09-.01-.17-.02-.26-.04-.27-.04-.55-.07-.82-.1-.09,0-.18-.02-.27-.03-.18-.02-.37-.04-.55-.05-.14-.01-.28-.02-.42-.04-.13-.01-.26-.02-.39-.03-.16-.01-.32-.02-.48-.03-.1,0-.2-.01-.3-.02-.65-.03-1.29-.05-1.94-.06-.04,0-.08,0-.12,0-.21,0-.42,0-.63,0-.05,0-.1,0-.16,0-.2,0-.4,0-.59.01-.07,0-.14,0-.21,0-.19,0-.37.01-.56.02-.09,0-.17,0-.26.01-.17,0-.35.02-.52.03-.13,0-.27.02-.4.03-.21.02-.42.03-.63.05-.18.02-.35.03-.53.05-.1.01-.2.02-.31.03-.17.02-.34.04-.51.06-.1.01-.21.03-.31.04-.09.01-.18.02-.27.04v5.65c0,1.58.62,3.07,1.74,4.19,1.12,1.12,2.61,1.74,4.19,1.74,3.27,0,5.93-2.66,5.93-5.93h0Z"/>
          </g>
          <path class="cls-4" d="m71.67,11.59l-11.72,13.64c4.53,4.58,7.1,10.8,7.1,17.27,0,3.46-.71,6.82-2.1,9.96-1.15,2.59-2.72,4.94-4.68,6.98l11.73,13.65c6.11-5.9,10.35-13.54,12.09-21.8h-5.02c-4.92,0-8.93-4-8.93-8.93,0-2.38.93-4.63,2.61-6.31,1.69-1.69,3.93-2.61,6.31-2.61h4.96c-1.81-8.31-6.14-15.97-12.36-21.84h0Z"/>
          <path class="cls-4" d="m10.61,46.55c1.12-1.12,1.73-2.61,1.73-4.19,0-3.27-2.66-5.93-5.93-5.93H.43c-.02.12-.03.24-.05.36-.01.09-.03.19-.04.28-.03.24-.06.48-.09.72,0,.04,0,.08-.01.12-.03.28-.06.56-.08.84,0,.08-.01.17-.02.25-.02.2-.03.4-.04.6,0,.1-.01.21-.02.31-.01.18-.02.37-.03.55,0,.1,0,.21-.01.31,0,.19-.01.39-.02.58,0,.09,0,.18,0,.27,0,.28,0,.57,0,.85s0,.54,0,.82c0,.09,0,.17,0,.26,0,.19.01.38.02.56,0,.1,0,.2.01.3,0,.18.02.36.03.54,0,.1.01.19.02.29.01.2.03.41.04.61,0,.07.01.14.02.21.02.27.05.54.08.81,0,.06.01.13.02.19.02.21.05.41.07.62.01.09.02.19.04.28.01.1.03.2.04.3h6.02c1.58,0,3.07-.62,4.19-1.74h0Z"/>
          <path class="cls-4" d="m74.88,38.17c-1.12,1.12-1.73,2.61-1.73,4.19,0,3.27,2.66,5.93,5.93,5.93h5.53c.01-.1.03-.2.04-.31.01-.09.02-.19.04-.28.03-.21.05-.41.07-.62,0-.06.01-.13.02-.19.03-.27.05-.54.08-.81,0-.07.01-.14.02-.21.02-.2.03-.41.04-.61,0-.1.01-.19.02-.29.01-.18.02-.36.03-.54,0-.1,0-.2.01-.3,0-.19.01-.38.02-.56,0-.09,0-.17,0-.26,0-.27,0-.54,0-.82s0-.57,0-.85c0-.09,0-.18,0-.27,0-.2-.01-.39-.02-.59,0-.1,0-.21-.01-.31,0-.19-.02-.37-.03-.56,0-.1-.01-.2-.02-.31-.01-.2-.03-.4-.05-.6,0-.08-.01-.17-.02-.25-.02-.28-.05-.56-.08-.84,0-.04,0-.08-.01-.11-.03-.24-.06-.49-.09-.73-.01-.09-.02-.19-.04-.28-.02-.12-.03-.24-.05-.37h-5.49c-1.58,0-3.07.62-4.19,1.74h0Z"/>
          <g class="cls-1">
            <path class="cls-4" d="m36.69,52.29l-6.68,7.77c3.63,2.58,8.01,3.99,12.49,3.99,4.99,0,9.77-1.71,13.61-4.84l-6.63-7.72c-1.98,1.55-4.41,2.39-6.98,2.39-2.08,0-4.06-.55-5.81-1.59h0Z"/>
            <path class="cls-4" d="m36.82,78.69v5.93c.12.02.25.03.37.05.07,0,.14.02.21.03.86.1,1.72.18,2.59.23.03,0,.06,0,.09,0,.26.01.53.03.79.04.03,0,.06,0,.09,0,1.18.04,2.36.03,3.54-.02.03,0,.05,0,.08,0,.27-.01.54-.03.8-.05.03,0,.06,0,.09,0,.87-.06,1.74-.15,2.6-.26.06,0,.13-.02.19-.03.13-.02.27-.04.4-.06v-5.86c0-1.58-.62-3.07-1.74-4.19-1.12-1.12-2.61-1.74-4.19-1.74-3.27,0-5.93,2.66-5.93,5.93h0Z"/>
          </g>
          <path class="cls-4" d="m69.77,75.1l-11.7-13.61c-4.38,3.6-9.85,5.57-15.57,5.57-5.2,0-10.27-1.66-14.45-4.7l-11.74,13.66c5.04,3.94,10.99,6.76,17.5,8.11v-5.42c0-4.92,4-8.93,8.93-8.93,2.39,0,4.63.93,6.31,2.61,1.69,1.69,2.61,3.93,2.61,6.31v5.32c6.65-1.46,12.85-4.51,18.09-8.91h0Z"/>
          <path class="cls-4" d="m48.26,36.41c-1.56-1.48-3.61-2.29-5.76-2.29-1.75,0-3.42.53-4.83,1.53,0,0,0,0,0,0-2.22,1.57-3.54,4.13-3.54,6.84s1.18,5.01,3.23,6.61c1.48,1.16,3.26,1.77,5.15,1.77,2.3,0,4.44-.91,6.04-2.57,1.51-1.57,2.34-3.63,2.34-5.81,0-2.33-.93-4.49-2.62-6.08h0Z"/>
          <path class="cls-4" d="m42.5,20.95c-4.38,0-8.54,1.28-12.11,3.72l6.71,7.81c1.65-.89,3.49-1.36,5.4-1.36,2.39,0,4.69.74,6.61,2.11l6.64-7.73c-3.78-2.95-8.43-4.55-13.25-4.55h0Z"/>
          <path class="cls-4" d="m57.98,27.51l-6.68,7.77c1.67,2.03,2.58,4.54,2.58,7.21,0,2.5-.81,4.88-2.29,6.84l6.71,7.81c3.67-3.97,5.75-9.22,5.75-14.65s-2.19-10.98-6.07-14.99h0Z"/>
          <path class="cls-4" d="m20.95,42.5c0,5.96,2.44,11.59,6.74,15.66l6.64-7.73c-2.06-2.11-3.21-4.93-3.21-7.93s1.3-6.12,3.54-8.25l-6.63-7.72c-4.52,4.09-7.08,9.83-7.08,15.97h0Z"/>
        </g>
      </g>
    </g>
  </g>
</svg>