<?xml version="1.0" encoding="UTF-8"?>
<svg id="Capa_2" data-name="Capa 2" xmlns="http://www.w3.org/2000/svg" xmlns:xlink="http://www.w3.org/1999/xlink" viewBox="0 0 84.99 52.11">
  <defs>
    <style>
      .cls-1 {
        clip-path: url(#clippath);
      }

      .cls-2 {
        fill: none;
      }

      .cls-3 {
        fill: #515151;
      }
    </style>
    <clipPath id="clippath">
      <rect class="cls-2" width="84.99" height="52.11"/>
    </clipPath>
  </defs>
  <g id="Layer_1" data-name="Layer 1">
    <g id="NewGroupe41">
      <g id="NewGroup0-18">
        <g class="cls-1">
          <path class="cls-3" d="m60.75,28.15c-1.12,2.55-1.84,5.26-2.14,8.07H21.49c-1.88-4.36-4.76-8.23-8.35-11.25-2.98-2.51-6.39-4.39-10.13-5.61-.05-.02-.1-.03-.15-.04v-9.7c0-.92.48-1.76,1.27-2.22.8-.47,1.75-.48,2.56-.03l6.42,3.56c.29.16.6.3.92.4.08.05.17.1.27.13l37.13,13.15s.01,0,.02,0c.61.21,1.24.31,1.85.31,2.16,0,4.21-1.22,5.2-3.25l4.02-8.28,8.1,3.01c-3.21,2.23-7.32,5.99-9.85,11.76h0ZM40.84,5.33s0,0,0,0l5.04,1.87-5.6,9.63c-.14.25-.2.52-.19.79l-5.48-1.94,6.23-10.34h0Zm14.58,6.45c.18-.31.22-.66.16-.98l4.29,1.6-3.9,8.04c-.65,1.34-2.21,2-3.62,1.52l-2.31-.82,5.38-9.35h0Zm18.85,2.98s0,0-.01,0c0,0-.01,0-.02,0l-11.96-4.44s0,0,0,0L35.44.33c-2.08-.77-4.46-.17-5.92,1.5l-5.33,6.08c-.49.56-1.2.88-1.94.88h-6.53c-.44,0-.87-.11-1.25-.32l-6.42-3.56c-1.68-.94-3.68-.91-5.34.07C1.05,5.95.06,7.68.06,9.61v27.57c-.05.14-.07.29-.07.45v3.89c0,2.93,2.39,5.32,5.32,5.32h2.03v3.88c0,.77.63,1.4,1.4,1.4s1.4-.63,1.4-1.4v-3.88h4.78v3.88c0,.77.63,1.4,1.4,1.4s1.4-.63,1.4-1.4v-3.88h4.78v3.88c0,.77.63,1.4,1.4,1.4s1.4-.63,1.4-1.4v-3.88h4.78v3.88c0,.77.63,1.4,1.4,1.4s1.4-.63,1.4-1.4v-3.88h4.78v3.88c0,.77.63,1.4,1.4,1.4s1.4-.63,1.4-1.4v-3.88h4.78v3.88c0,.77.63,1.4,1.4,1.4s1.4-.63,1.4-1.4v-3.88h4.78v3.88c0,.77.63,1.4,1.4,1.4s1.4-.63,1.4-1.4v-3.88h4.78v3.88c0,.77.63,1.4,1.4,1.4s1.4-.63,1.4-1.4v-3.88h4.78v3.88c0,.77.63,1.4,1.4,1.4s1.4-.63,1.4-1.4v-3.88h4.78v3.88c0,.77.63,1.4,1.4,1.4s1.4-.63,1.4-1.4v-3.88h1.3c2.93,0,5.32-2.39,5.32-5.32v-3.89s0,0,0,0,0,0,0,0v-7.41c0-3.38-1.02-6.63-2.95-9.41-1.92-2.77-4.61-4.85-7.76-6.03h0Z"/>
        </g>
      </g>
    </g>
  </g>
</svg>