<?xml version="1.0" encoding="UTF-8"?>
<svg id="Capa_2" data-name="Capa 2" xmlns="http://www.w3.org/2000/svg" viewBox="0 0 85 38.8">
  <defs>
    <style>
      .cls-1 {
        fill: #515151;
      }
    </style>
  </defs>
  <g id="Layer_1" data-name="Layer 1">
    <g id="NewGroupe48">
      <g id="NewGroup0-11">
        <g>
          <path class="cls-1" d="m61.79,16.3c-3.85-1.99-9.77-4.25-17.27-4.6-9.66-.45-17.25,2.51-21.31,4.6v7.25c4.62-1.93,11.23-3.83,19.29-3.83.11,0,.21,0,.32,0,7.93.05,14.43,1.94,18.97,3.83v-7.26h0Z"/>
          <path class="cls-1" d="m85,27.76V11.03c0-2.05-1.67-3.72-3.72-3.72h-1.15c-2.05,0-3.72,1.67-3.72,3.72v16.73c0,2.05,1.67,3.72,3.72,3.72h1.15c2.05,0,3.72-1.67,3.72-3.72h0Z"/>
          <path class="cls-1" d="m69.68,38.8c2.05,0,3.72-1.67,3.72-3.72V3.72c0-2.05-1.67-3.72-3.72-3.72h-1.15c-2.05,0-3.72,1.67-3.72,3.72v31.36c0,2.05,1.67,3.72,3.72,3.72h1.15Z"/>
          <path class="cls-1" d="m4.87,7.32h-1.15c-2.05,0-3.72,1.67-3.72,3.72v16.73c0,2.05,1.67,3.72,3.72,3.72h1.15c2.05,0,3.72-1.67,3.72-3.72V11.03c0-2.05-1.67-3.72-3.72-3.72h0Z"/>
          <path class="cls-1" d="m16.47,38.8c2.05,0,3.72-1.67,3.72-3.72V3.72c0-2.05-1.67-3.72-3.72-3.72h-1.15c-2.05,0-3.72,1.67-3.72,3.72v31.36c0,2.05,1.67,3.72,3.72,3.72h1.15Z"/>
        </g>
      </g>
    </g>
  </g>
</svg>