<?xml version="1.0" encoding="UTF-8"?>
<svg id="Capa_2" data-name="Capa 2" xmlns="http://www.w3.org/2000/svg" viewBox="0 0 83.05 85">
  <defs>
    <style>
      .cls-1 {
        fill: #515151;
      }
    </style>
  </defs>
  <g id="Layer_1" data-name="Layer 1">
    <g id="NewGroupe28">
      <g id="NewGroup0-31">
        <path class="cls-1" d="m25.5,18.34h.67c1.72,0,3.37.81,4.42,2.17l.66.85c1.56,2.02,4.01,3.22,6.56,3.22h8.25c2.78,0,5.36-1.38,6.9-3.69.74-1.12,1.85-1.91,3.1-2.27v34.92h-30.56V18.34h0Zm49.71-13.59c0-1.13.92-2.04,2.04-2.04h1.05c1.13,0,2.04.92,2.04,2.04v26.37c0,1.13-.92,2.04-2.04,2.04h-1.05c-1.13,0-2.04-.92-2.04-2.04V4.75h0ZM7.84,31.12c0,1.13-.92,2.04-2.04,2.04h-1.05c-1.13,0-2.04-.92-2.04-2.04V4.75c0-1.13.92-2.04,2.04-2.04h1.05c1.13,0,2.04.92,2.04,2.04v26.37h0ZM13.65,0h-1.05c-1.33,0-2.53.55-3.4,1.43-.86-.88-2.07-1.43-3.4-1.43h-1.05C2.13,0,0,2.13,0,4.75v26.37c0,2.62,2.13,4.75,4.75,4.75h1.05c1.33,0,2.53-.55,3.4-1.43.86.88,2.07,1.43,3.4,1.43h1.05c2.62,0,4.75-2.13,4.75-4.75v-12.78h4.4v35.2h-10.26c-3.79,0-6.88,3.08-6.88,6.88v1.71c0,3.79,3.08,6.88,6.88,6.88h10.32v11.3c0,2.6,2.11,4.71,4.71,4.71h1.04c2.6,0,4.71-2.11,4.71-4.71v-11.3h13.55v11.3c0,2.6,2.11,4.71,4.71,4.71h1.04c2.6,0,4.71-2.11,4.71-4.71v-11.3h10.69c3.79,0,6.88-3.08,6.88-6.88v-1.71c0-3.79-3.08-6.88-6.88-6.88h-9.25V18.4h5.9v12.72c0,2.62,2.13,4.75,4.75,4.75h1.05c1.33,0,2.53-.55,3.4-1.43.86.88,2.07,1.43,3.4,1.43h1.05c2.62,0,4.75-2.13,4.75-4.75V4.75c0-2.62-2.13-4.75-4.75-4.75h-1.05c-1.33,0-2.53.55-3.4,1.43-.86-.88-2.07-1.43-3.4-1.43h-1.05c-2.62,0-4.75,2.13-4.75,4.75v10.94h-5.9V7.49c0-.75-.61-1.35-1.35-1.35s-1.35.61-1.35,1.35v8.34c-2.17.41-4.1,1.67-5.35,3.55-1.04,1.56-2.78,2.49-4.65,2.49h-8.25c-1.72,0-3.37-.81-4.42-2.17l-.66-.85c-1.56-2.02-4.01-3.22-6.56-3.22h-.67V7.49c0-.75-.61-1.35-1.35-1.35s-1.35.61-1.35,1.35v8.14h-4.4V4.75c0-2.62-2.13-4.75-4.75-4.75h0Z"/>
      </g>
    </g>
  </g>
</svg>