<?xml version="1.0" encoding="UTF-8"?>
<svg id="Capa_2" data-name="Capa 2" xmlns="http://www.w3.org/2000/svg" xmlns:xlink="http://www.w3.org/1999/xlink" viewBox="0 0 84.99 64.39">
  <defs>
    <style>
      .cls-1 {
        clip-path: url(#clippath);
      }

      .cls-2 {
        fill: none;
      }

      .cls-3 {
        fill: #515151;
      }
    </style>
    <clipPath id="clippath">
      <rect class="cls-2" width="84.99" height="64.39"/>
    </clipPath>
  </defs>
  <g id="Layer_1" data-name="Layer 1">
    <g id="NewGroupe49">
      <g id="NewGroup0-10">
        <g>
          <g class="cls-1">
            <path class="cls-3" d="m2.73,54.4V2.74h19.19v51.66H2.73Zm19.08,8.62c0,.76.61,1.37,1.37,1.37s1.37-.61,1.37-1.37v-6.71c.07-.17.11-.35.11-.54V1.37c0-.76-.61-1.37-1.37-1.37H1.36C.6,0-.01.61-.01,1.37v61.65c0,.76.61,1.37,1.37,1.37s1.37-.61,1.37-1.37v-5.88h19.08v5.88h0Z"/>
          </g>
          <path class="cls-3" d="m4.87,26.21c-.76,0-1.37.61-1.37,1.37v2.79c0,.76.61,1.37,1.37,1.37s1.37-.61,1.37-1.37v-2.79c0-.76-.61-1.37-1.37-1.37h0Z"/>
          <path class="cls-3" d="m17.15,8.23H7.61c-.76,0-1.37.61-1.37,1.37s.61,1.37,1.37,1.37h9.54c.76,0,1.37-.61,1.37-1.37s-.61-1.37-1.37-1.37h0Z"/>
          <path class="cls-3" d="m17.15,14.15H7.61c-.76,0-1.37.61-1.37,1.37s.61,1.37,1.37,1.37h9.54c.76,0,1.37-.61,1.37-1.37s-.61-1.37-1.37-1.37h0Z"/>
          <path class="cls-3" d="m32.89,54.4V2.74h19.19v51.66h-19.19Zm20.45,9.99c.76,0,1.37-.61,1.37-1.37v-6.71c.07-.17.11-.35.11-.54V1.37c0-.76-.61-1.37-1.37-1.37h-21.94c-.76,0-1.37.61-1.37,1.37v61.65c0,.76.61,1.37,1.37,1.37s1.37-.61,1.37-1.37v-5.88h19.08v5.88c0,.76.61,1.37,1.37,1.37h0Z"/>
          <path class="cls-3" d="m35.03,26.21c-.76,0-1.37.61-1.37,1.37v2.79c0,.76.61,1.37,1.37,1.37s1.37-.61,1.37-1.37v-2.79c0-.76-.61-1.37-1.37-1.37h0Z"/>
          <path class="cls-3" d="m47.31,8.23h-9.54c-.76,0-1.37.61-1.37,1.37s.61,1.37,1.37,1.37h9.54c.76,0,1.37-.61,1.37-1.37s-.61-1.37-1.37-1.37h0Z"/>
          <path class="cls-3" d="m47.31,14.15h-9.54c-.76,0-1.37.61-1.37,1.37s.61,1.37,1.37,1.37h9.54c.76,0,1.37-.61,1.37-1.37s-.61-1.37-1.37-1.37h0Z"/>
          <path class="cls-3" d="m82.24,54.4h-19.19V2.74h19.19v51.66h0Zm1.37-54.4h-21.94c-.76,0-1.37.61-1.37,1.37v61.65c0,.76.61,1.37,1.37,1.37s1.37-.61,1.37-1.37v-5.88h19.08v5.88c0,.76.61,1.37,1.37,1.37s1.37-.61,1.37-1.37v-6.71c.07-.17.11-.35.11-.54V1.37c0-.76-.61-1.37-1.37-1.37h0Z"/>
          <path class="cls-3" d="m65.19,31.75c.76,0,1.37-.61,1.37-1.37v-2.79c0-.76-.61-1.37-1.37-1.37s-1.37.61-1.37,1.37v2.79c0,.76.61,1.37,1.37,1.37h0Z"/>
          <path class="cls-3" d="m67.93,10.97h9.54c.76,0,1.37-.61,1.37-1.37s-.61-1.37-1.37-1.37h-9.54c-.76,0-1.37.61-1.37,1.37s.61,1.37,1.37,1.37h0Z"/>
          <path class="cls-3" d="m67.93,16.89h9.54c.76,0,1.37-.61,1.37-1.37s-.61-1.37-1.37-1.37h-9.54c-.76,0-1.37.61-1.37,1.37s.61,1.37,1.37,1.37h0Z"/>
        </g>
      </g>
    </g>
  </g>
</svg>