<?xml version="1.0" encoding="UTF-8"?>
<svg id="Capa_2" data-name="Capa 2" xmlns="http://www.w3.org/2000/svg" xmlns:xlink="http://www.w3.org/1999/xlink" viewBox="0 0 85 36.95">
  <defs>
    <style>
      .cls-1 {
        clip-path: url(#clippath);
      }

      .cls-2 {
        fill: none;
      }

      .cls-3 {
        fill: #515151;
      }
    </style>
    <clipPath id="clippath">
      <rect class="cls-2" width="85" height="36.95"/>
    </clipPath>
  </defs>
  <g id="Layer_1" data-name="Layer 1">
    <g id="NewGroupe38">
      <g id="NewGroup0-21">
        <g class="cls-1">
          <path class="cls-3" d="m9.79,12.6c3.47-.1,6.22-3,6.12-6.47-.05-1.68-.74-3.25-1.97-4.4-1.18-1.12-2.71-1.72-4.33-1.72-.06,0-.12,0-.18,0-1.68.05-3.25.74-4.4,1.97s-1.77,2.82-1.72,4.5c.1,3.47,3,6.22,6.47,6.13h0Z"/>
          <path class="cls-3" d="m70.09,31.67c-.27.82-1.03,1.38-1.89,1.41h0c-.24,0-.48-.03-.71-.11l-39.67-13.24c-.14-.05-.28-.07-.42-.07-.37,0-.73.15-.99.44-.36.39-.45.96-.23,1.44l.86,1.93c.38.84.14,1.84-.58,2.43l-7.31,5.98c-.43.35-.96.51-1.51.45-.55-.05-1.04-.32-1.39-.74-.35-.43-.51-.96-.45-1.51.05-.55.32-1.04.74-1.39l5.3-4.34c.47-.38.62-1.03.38-1.58l-2.93-6.6c-.33-.74-.19-1.61.36-2.22.55-.6,1.4-.83,2.17-.57l46.97,15.68c.52.17.94.54,1.19,1.03.25.49.28,1.05.11,1.57h0Zm-49.7,2.6c.16-.1.31-.21.45-.33l7.31-5.98c1.42-1.16,2.02-3.03,1.61-4.77l33.18,11.08H20.38Zm63.28,0h-12.09c.47-.49.83-1.09,1.06-1.76.4-1.2.31-2.48-.26-3.62-.57-1.13-1.54-1.98-2.74-2.38L22.66,10.85c-1.78-.59-3.74-.08-5.01,1.31-1.26,1.39-1.58,3.39-.82,5.11l2.52,5.66-4.51,3.69c-.98.8-1.59,1.93-1.71,3.19-.13,1.26.25,2.49,1.05,3.47.32.4.7.73,1.12,1H1.34c-.74,0-1.34.6-1.34,1.34s.6,1.34,1.34,1.34h82.32c.74,0,1.34-.6,1.34-1.34s-.6-1.34-1.34-1.34h0Z"/>
        </g>
      </g>
    </g>
  </g>
</svg>