<?xml version="1.0" encoding="UTF-8"?>
<svg id="Capa_2" data-name="Capa 2" xmlns="http://www.w3.org/2000/svg" xmlns:xlink="http://www.w3.org/1999/xlink" viewBox="0 0 84.99 81.99">
  <defs>
    <style>
      .cls-1 {
        clip-path: url(#clippath);
      }

      .cls-2 {
        fill: none;
      }

      .cls-3 {
        fill: #515151;
      }
    </style>
    <clipPath id="clippath">
      <rect class="cls-2" width="84.99" height="81.99"/>
    </clipPath>
  </defs>
  <g id="Layer_1" data-name="Layer 1">
    <g id="NewGroupe30">
      <g id="NewGroup0-29">
        <g class="cls-1">
          <path class="cls-3" d="m75.13,45.06c.75.3,1.11,1.16.81,1.91l-12.31,30.34c-.21.51-.69.86-1.24.91-.04,0-.08,0-.12,0-.51,0-.98-.26-1.25-.7l-7.07-11.52c-.42-.69-.21-1.59.48-2.02.69-.42,1.59-.21,2.02.48l5.55,9.04,11.22-27.65c.3-.75,1.16-1.11,1.91-.81h0Zm-34.23,14.88c0,12.15,9.89,22.04,22.04,22.04s22.04-9.89,22.04-22.04-9.89-22.04-22.04-22.04-22.04,9.89-22.04,22.04h0Z"/>
          <path class="cls-3" d="m15.83,74.4c3.48,2.54,6.99,3.84,10.24,3.84,1.57,0,3.08-.3,4.5-.92.59-.26,1.16-.57,1.71-.93.67-.45.86-1.36.41-2.04-.45-.67-1.36-.86-2.04-.41-.4.27-.82.49-1.25.68-3.35,1.45-7.55.53-11.84-2.6-4.52-3.29-8.52-8.58-11.25-14.89-2.74-6.31-3.87-12.84-3.2-18.39.64-5.27,2.84-8.97,6.19-10.42,2.91-1.27,6.59-.7,10.34,1.59,3.91,2.39,7.65,6.47,10.55,11.5.03.06.07.11.11.16,0,0,0,.01.01.02.04.05.07.09.12.13,0,0,.01.01.02.02.04.04.08.08.13.11,0,0,0,0,0,0,.04.03.09.07.14.09.01,0,.02.01.03.02.05.03.1.05.15.07,0,0,.01,0,.02,0,.05.02.1.04.15.05,0,0,.01,0,.02,0,.06.01.11.03.17.03,0,0,.02,0,.02,0,.06,0,.12.01.18.01.06,0,.13,0,.2-.01,0,0,0,0,0,0,.06,0,.12-.02.19-.04,0,0,0,0,0,0,0,0,0,0,0,0,.05-.02.11-.03.16-.05.01,0,.03-.01.04-.02.04-.02.08-.04.12-.06.01,0,.03-.01.04-.02.05-.03.09-.06.14-.09,0,0,0,0,0,0,.05-.04.09-.08.13-.12,0,0,.02-.02.03-.03.03-.03.06-.07.09-.1,0-.01.02-.02.03-.04.03-.05.07-.1.1-.15,2.9-5.03,6.64-9.12,10.56-11.51,3.75-2.29,7.42-2.85,10.34-1.59,1.24.54,2.33,1.39,3.24,2.53.51.63,1.43.74,2.06.23.63-.51.74-1.43.23-2.06-1.21-1.52-2.68-2.66-4.36-3.39-3.82-1.66-8.44-1.03-13.03,1.78-3.52,2.15-6.89,5.49-9.71,9.6-2.66-11.37-1.03-14.63.26-15.54.22-.15.47-.27.81-.43.47-.22,1.07-.5,1.89-1.02,2.99-1.87,5.41-4.58,7.22-8.07.37-.72.09-1.61-.63-1.98-.72-.37-1.61-.09-1.98.63-1.56,3.01-3.63,5.34-6.17,6.93-.68.43-1.16.65-1.59.86-.19.09-.37.17-.55.27v-.78C31.32,8.02,23.3,0,13.45,0h-3.21c-.81,0-1.47.66-1.47,1.47v3.21c0,9.85,8.02,17.87,17.87,17.87h1.61c-.8,2.58-.76,6.26.11,11.18-2.23-2.61-4.68-4.77-7.2-6.32-4.59-2.8-9.22-3.43-13.03-1.78-4.34,1.88-7.16,6.42-7.93,12.76-.74,6.06.47,13.13,3.42,19.91,2.94,6.78,7.28,12.49,12.22,16.09h0Z"/>
        </g>
      </g>
    </g>
  </g>
</svg>