<?xml version="1.0" encoding="UTF-8"?>
<svg id="Capa_2" data-name="Capa 2" xmlns="http://www.w3.org/2000/svg" xmlns:xlink="http://www.w3.org/1999/xlink" viewBox="0 0 49.46 85">
  <defs>
    <style>
      .cls-1 {
        clip-path: url(#clippath);
      }

      .cls-2 {
        fill: none;
      }

      .cls-3 {
        fill: #515151;
      }
    </style>
    <clipPath id="clippath">
      <rect class="cls-2" width="49.46" height="85"/>
    </clipPath>
  </defs>
  <g id="Layer_1" data-name="Layer 1">
    <g id="NewGroupe33">
      <g id="NewGroup0-26">
        <g>
          <path class="cls-3" d="m2.35,19.23c-.69.84-.89,2-.53,3.04l5.18,15.09h.18c.13-.02.27-.03.41-.03h34.63c.05,0,.11,0,.16,0l5.15-15c.36-1.06.14-2.25-.6-3.11-2.4-2.81-4.23-5.98-5.46-9.43-1.27-3.58-.74-6.82-.35-9.19.03-.21.07-.41.1-.6h-3.25l-3.36,9.21c-1.02,2.81-3.72,4.69-6.71,4.69h-7.19c-3.15,0-5.97-2.11-6.85-5.14L11.32,0h-3.51c.03.25.07.52.1.79.38,2.79.9,6.61-.92,10.82-1.18,2.74-2.74,5.3-4.64,7.61h0Z"/>
          <g class="cls-1">
            <path class="cls-3" d="m8.42,55.88h33.67c.37,0,.67-.3.67-.67v-1.21c0-.37-.3-.67-.67-.67H8.42c-.37,0-.67.3-.67.67v1.21c0,.37.3.67.67.67h0Z"/>
            <path class="cls-3" d="m.26,84.49c.24.32.62.51,1.02.51h14.63c.48,0,.94-.28,1.15-.72l3.95-8.07c.69-1.41,2.1-2.29,3.67-2.29h0c1.57,0,2.98.88,3.67,2.29l3.95,8.07c.21.43.66.72,1.15.72h14.74c.4,0,.77-.18,1.01-.49.24-.31.33-.71.23-1.1l-6.04-23.76c-.14-.57-.65-.96-1.24-.96H8.12c-.57,0-1.07.38-1.23.92L.05,83.37c-.11.39-.04.8.21,1.12H.26Z"/>
          </g>
          <path class="cls-3" d="m42.7,42.36v-1.74c0-.21-.14-.39-.33-.45H7.44c-.19.06-.33.24-.33.45v1.74c0,.26.22.48.48.48h34.63c.26,0,.48-.22.48-.48h0Z"/>
        </g>
      </g>
    </g>
  </g>
</svg>