<?xml version="1.0" encoding="UTF-8"?>
<svg id="Capa_2" data-name="Capa 2" xmlns="http://www.w3.org/2000/svg" xmlns:xlink="http://www.w3.org/1999/xlink" viewBox="0 0 70.12 85">
  <defs>
    <style>
      .cls-1 {
        clip-path: url(#clippath);
      }

      .cls-2 {
        fill: none;
      }

      .cls-3 {
        fill: #515151;
      }
    </style>
    <clipPath id="clippath">
      <rect class="cls-2" width="70.12" height="85"/>
    </clipPath>
  </defs>
  <g id="Layer_1" data-name="Layer 1">
    <g id="NewGroupe2">
      <g id="NewGroup0-57">
        <g>
          <path class="cls-3" d="m0,77.23c0,.92.75,1.67,1.67,1.67h29.22c.92,0,1.67-.75,1.67-1.67v-24.55c0-.45-.17-.87-.49-1.18-.32-.32-.73-.49-1.18-.49-.74,0-1.46-.18-2.11-.52H3.78c-.65.34-1.37.52-2.11.52-.92,0-1.67.75-1.67,1.67v24.55h0Z"/>
          <path class="cls-3" d="m26.3,38.3s0-.05,0-.08c0-.06,0-.12.02-.18,0-.03,0-.06.01-.09,0-.06.02-.12.03-.17,0-.03,0-.06.01-.08.01-.07.03-.15.05-.22,0,0,0-.02,0-.03.02-.08.04-.16.07-.24,0-.02.02-.05.02-.07.02-.06.04-.11.06-.17.01-.03.02-.06.03-.09.02-.05.04-.11.07-.16.01-.03.02-.05.04-.08.03-.06.06-.13.09-.19,0-.01.01-.02.02-.03H5.73s.02.03.03.05c.03.05.05.1.08.16.01.03.03.06.04.08.02.05.04.1.07.15.01.03.02.05.03.08.02.06.04.12.06.18,0,.02.01.04.02.06.03.08.05.16.07.25,0,.02,0,.04.01.05.02.06.03.13.04.2,0,.03.01.06.02.09,0,.06.02.11.03.17,0,.03,0,.06.01.09,0,.06.01.12.02.18,0,.03,0,.05,0,.08,0,.09,0,.18,0,.27v7.86c0,.09,0,.18,0,.27,0,.03,0,.05,0,.08,0,.06-.01.13-.02.19,0,.03,0,.06-.01.09,0,.07-.02.14-.03.2,0,.02,0,.04-.01.06-.02.09-.04.17-.06.26,0,0,0,0,0,.01h20.33s0,0,0-.01c-.01-.05-.02-.11-.04-.16,0-.04-.02-.08-.03-.12-.01-.06-.02-.11-.03-.17,0-.04-.01-.08-.02-.11,0-.06-.01-.13-.02-.19,0-.03,0-.07,0-.1,0-.1,0-.19,0-.29v-7.86c0-.09,0-.17,0-.26h0Z"/>
          <path class="cls-3" d="m0,19.41v12.89c0,.45.17.87.49,1.18,0,0,0,0,.01,0h31.56c.32-.31.5-.74.5-1.19v-12.89c0-.92-.75-1.67-1.67-1.67H1.67c-.92,0-1.67.75-1.67,1.67h0Z"/>
          <polygon class="cls-3" points="25.81 14.82 25.81 11.74 6.75 11.74 6.75 14.82 25.81 14.82 25.81 14.82"/>
          <g class="cls-1">
            <path class="cls-3" d="m26.68,5.81c0,.81-.65,1.46-1.46,1.46s-1.46-.65-1.46-1.46v-2.4c0-.81.65-1.46,1.46-1.46s1.46.65,1.46,1.46v2.4h0Zm-4.58,0c0,.81-.65,1.46-1.46,1.46s-1.46-.65-1.46-1.46v-2.4c0-.81.65-1.46,1.46-1.46s1.46.65,1.46,1.46v2.4h0Zm-4.58,0c0,.81-.65,1.46-1.46,1.46s-1.46-.65-1.46-1.46v-2.4c0-.81.65-1.46,1.46-1.46s1.46.65,1.46,1.46v2.4h0Zm-4.58,0c0,.81-.65,1.46-1.46,1.46s-1.46-.65-1.46-1.46v-2.4c0-.81.65-1.46,1.46-1.46s1.46.65,1.46,1.46v2.4h0Zm-4.58,0c0,.81-.65,1.46-1.46,1.46s-1.46-.65-1.46-1.46v-2.4c0-.81.65-1.46,1.46-1.46s1.46.65,1.46,1.46v2.4h0Zm21.17,3.01V0H3.09v8.82h26.44Z"/>
            <path class="cls-3" d="m61.47,71.72c-3.16,4.26-7.09,7.52-11.05,9.2-3.7,1.57-6.94,1.53-9.13-.09-.28-.21-.54-.44-.78-.7-.55-.59-1.48-.62-2.06-.07-.59.55-.62,1.48-.07,2.06.36.39.76.74,1.17,1.05,1.63,1.21,3.61,1.82,5.82,1.82,1.92,0,4.01-.46,6.19-1.39,4.43-1.88,8.78-5.48,12.25-10.15,3.47-4.67,5.66-9.87,6.18-14.66.55-5.07-.83-9.11-3.88-11.38-2.69-2-6.41-2.36-10.49-1.01-1.92.63-3.87,1.63-5.77,2.93,1.18-2.96,1.74-5.35,1.68-7.25.74.1,1.49.15,2.23.15,3.09,0,6.12-.86,8.8-2.53,3.8-2.36,6.45-6.06,7.47-10.41.18-.79-.3-1.57-1.09-1.75-4.35-1.02-8.84-.28-12.64,2.08-3.13,1.95-5.48,4.8-6.78,8.19-.04-.03-.08-.06-.12-.09-.28-.22-.6-.48-1.03-.91-1.6-1.61-2.73-3.7-3.37-6.2-.2-.78-.99-1.25-1.77-1.06-.78.2-1.26.99-1.06,1.77.76,3.02,2.15,5.56,4.13,7.55.55.55.97.89,1.28,1.13.23.18.38.3.5.43.61.68,1.46,3.06-2.29,10.85-2.79-6.71-7.37-11.37-12.2-12.2-.8-.14-1.55.4-1.69,1.19-.14.8.4,1.55,1.19,1.69,4.43.76,8.87,6.16,11.06,13.42,0,0,0,0,0,0,.02.06.04.11.06.16,0,.01.01.03.02.04.02.04.04.08.06.12,0,.01.01.02.02.03.03.05.07.1.1.14,0,0,0,0,0,0,.03.04.07.08.11.12.01,0,.02.02.03.03.03.03.07.06.1.09.01,0,.02.02.04.03.05.03.09.06.15.09,0,0,0,0,0,0,0,0,0,0,0,0,.06.03.11.06.17.08,0,0,.01,0,.02,0,.05.02.11.04.17.05,0,0,0,0,0,0,.01,0,.02,0,.03,0,.05,0,.1.02.14.02.02,0,.04,0,.06,0,.03,0,.06,0,.09,0,0,0,.02,0,.03,0,.03,0,.06,0,.09,0,.03,0,.07,0,.1,0,.03,0,.06-.01.09-.02.03,0,.06-.01.09-.02.03,0,.06-.02.09-.03.03-.01.06-.02.09-.03.03-.01.06-.03.08-.04.03-.02.06-.03.09-.05.02-.01.05-.03.07-.05.03-.02.06-.04.09-.06.02-.02.04-.04.06-.05.03-.03.06-.05.08-.08,0,0,0,0,0,0,3.05-3.27,6.58-5.67,9.92-6.78,3.15-1.04,5.93-.83,7.84.58,2.19,1.63,3.15,4.72,2.72,8.72-.46,4.28-2.46,8.98-5.62,13.23h0Z"/>
          </g>
        </g>
      </g>
    </g>
  </g>
</svg>