<?xml version="1.0" encoding="UTF-8"?>
<svg id="Capa_2" data-name="Capa 2" xmlns="http://www.w3.org/2000/svg" viewBox="0 0 27.1 85">
  <defs>
    <style>
      .cls-1 {
        fill: #515151;
      }
    </style>
  </defs>
  <g id="Layer_1" data-name="Layer 1">
    <g id="NewGroupe54">
      <g id="NewGroup0-5">
        <g>
          <path class="cls-1" d="m2.93,45.72h21.23v16.93H2.93v-16.93h0ZM10.99,10.5c.29.05.59.07.89.07h.2v14.37c-2.33.25-4.48,1.09-6.3,2.37l5.21-16.82h0Zm4.03.07h.64c.16,0,.31,0,.47-.02l5.19,16.76c-1.82-1.28-3.97-2.12-6.3-2.37v-14.37h0ZM0,42.79v28.66c0,7.47,6.08,13.55,13.55,13.55s13.55-6.08,13.55-13.55v-33.04c0-1.54-.26-3.03-.74-4.41l.09-.03-7.58-24.48c.19-.14.37-.3.53-.46,1-1,1.55-2.33,1.55-3.74,0-2.92-2.37-5.29-5.29-5.29h-3.78c-1.41,0-2.74.55-3.74,1.55-1,1-1.55,2.33-1.55,3.74,0,1.5.65,2.92,1.73,3.91L.65,33.97l.09.03c-.48,1.38-.74,2.87-.74,4.41v4.38h0Z"/>
          <path class="cls-1" d="m19.48,48.24c-.81,0-1.47.66-1.47,1.47v10.28c0,.81.66,1.47,1.47,1.47s1.47-.66,1.47-1.47v-10.28c0-.81-.66-1.47-1.47-1.47h0Z"/>
        </g>
      </g>
    </g>
  </g>
</svg>