<?xml version="1.0" encoding="UTF-8"?>
<svg id="Capa_2" data-name="Capa 2" xmlns="http://www.w3.org/2000/svg" xmlns:xlink="http://www.w3.org/1999/xlink" viewBox="0 0 84.99 48.67">
  <defs>
    <style>
      .cls-1 {
        clip-path: url(#clippath);
      }

      .cls-2 {
        fill: none;
      }

      .cls-3 {
        fill: #515151;
      }
    </style>
    <clipPath id="clippath">
      <rect class="cls-2" width="84.99" height="48.67"/>
    </clipPath>
  </defs>
  <g id="Layer_1" data-name="Layer 1">
    <g id="NewGroupe4">
      <g id="NewGroup0-55">
        <g class="cls-1">
          <path class="cls-3" d="m53.43,35.58h-24.13v-17.37l24.13,9.17v8.2h0ZM18.36,14.85c-.33,1.58-1.49,2.88-3.03,3.39-.46.15-.93.23-1.42.23-2.5,0-4.54-2.04-4.54-4.54,0-2.05,1.38-3.86,3.36-4.39.38-.1.78-.15,1.18-.15.67,0,1.31.14,1.91.42,1.6.74,2.64,2.36,2.64,4.12,0,.32-.03.63-.09.93h0Zm59.87,10.88c-.67-1.18-1.74-2.09-3-2.57L23.94,3.68c-.29-.11-.59-.19-.89-.26-1.52-1.33-3.34-2.32-5.26-2.87-1.25-.36-2.56-.55-3.88-.55C6.23,0-.01,6.25-.01,13.92s6.25,13.92,13.92,13.92c5.43,0,10.23-3.15,12.51-7.81v27.14c0,.8.65,1.44,1.44,1.44s1.44-.65,1.44-1.44v-4.81h24.13v4.85c0,.8.65,1.44,1.44,1.44s1.44-.65,1.44-1.44v-18.75l12.79,4.86,4.96,8.73c1.04,1.83,3,2.96,5.08,2.96.15,0,.29,0,.44-.02.86-.06,1.68-.32,2.44-.75,0,0,0,0,0,0,2.8-1.59,3.78-5.16,2.19-7.96l-6-10.56h0Z"/>
        </g>
      </g>
    </g>
  </g>
</svg>