<?xml version="1.0" encoding="UTF-8"?>
<svg id="Capa_2" data-name="Capa 2" xmlns="http://www.w3.org/2000/svg" viewBox="0 0 85 58.26">
  <defs>
    <style>
      .cls-1 {
        fill: #515151;
      }
    </style>
  </defs>
  <g id="Layer_1" data-name="Layer 1">
    <g id="NewGroupe43">
      <g id="NewGroup0-16">
        <g>
          <path class="cls-1" d="m83.76,32.12c.8-.8,1.24-1.86,1.24-2.99,0-2.33-1.9-4.23-4.23-4.23h-3.84v8.46h3.84c1.13,0,2.19-.44,2.99-1.24h0Z"/>
          <path class="cls-1" d="m71.58,18.15v22.23c0,.69.56,1.24,1.24,1.24s1.24-.56,1.24-1.24v-22.23c0-.33-.13-.64-.36-.88s-.55-.36-.88-.36c-.69,0-1.24.56-1.24,1.24h0Z"/>
          <polygon class="cls-1" points="68.72 33.36 68.72 24.9 55.31 24.9 55.31 33.36 68.72 33.36 68.72 33.36"/>
          <path class="cls-1" d="m1.24,26.14c-.8.8-1.24,1.86-1.24,2.99,0,2.33,1.9,4.23,4.23,4.23h1.79v-8.46h-1.79c-1.13,0-2.19.44-2.99,1.24h0Z"/>
          <path class="cls-1" d="m8.89,40.38c0,.69.56,1.24,1.24,1.24s1.24-.56,1.24-1.24v-22.23c0-.33-.13-.64-.36-.88-.23-.23-.55-.36-.88-.36-.69,0-1.24.56-1.24,1.24v22.23h0Z"/>
          <polygon class="cls-1" points="29.69 24.9 14.23 24.9 14.23 33.36 29.69 33.36 29.69 24.9 29.69 24.9"/>
          <path class="cls-1" d="m42.5,58.26c5.48,0,9.95-4.46,9.95-9.95v-22.47l-19.89,22.24v.23c0,5.48,4.46,9.95,9.95,9.95h0Z"/>
          <path class="cls-1" d="m32.55,9.95v19.59L52.17,7.6c-.42-1.76-1.32-3.37-2.63-4.69-1.88-1.88-4.38-2.91-7.03-2.91-5.48,0-9.95,4.46-9.95,9.95h0Z"/>
          <polygon class="cls-1" points="52.45 11.58 32.55 33.82 32.55 34.79 32.55 43.8 52.45 21.56 52.45 11.58 52.45 11.58"/>
        </g>
      </g>
    </g>
  </g>
</svg>