<?xml version="1.0" encoding="UTF-8"?>
<svg id="Capa_2" data-name="Capa 2" xmlns="http://www.w3.org/2000/svg" xmlns:xlink="http://www.w3.org/1999/xlink" viewBox="0 0 60.25 84.99">
  <defs>
    <style>
      .cls-1 {
        clip-path: url(#clippath);
      }

      .cls-2 {
        fill: none;
      }

      .cls-3 {
        fill: #515151;
      }
    </style>
    <clipPath id="clippath">
      <rect class="cls-2" width="60.25" height="84.99"/>
    </clipPath>
  </defs>
  <g id="Layer_1" data-name="Layer 1">
    <g id="NewGroupe40">
      <g id="NewGroup0-19">
        <g>
          <g class="cls-1">
            <path class="cls-3" d="m22.99,7.07c0,3.9,3.18,7.08,7.08,7.08s7.08-3.18,7.08-7.08S33.98,0,30.08,0s-7.08,3.18-7.08,7.08h0Z"/>
            <path class="cls-3" d="m1.2,41.54s.04.05.06.07c1.74,1.74,4.68,2,6.69.6l9.33-6.48v14.6l-.16.72c-.16.72.29,1.44,1,1.6.1.02.2.03.3.03.61,0,1.16-.42,1.3-1.04l.2-.87c.02-.1.03-.2.03-.3v-17.3c0-.5-.28-.95-.72-1.18-.44-.23-.97-.2-1.38.09l-11.43,7.93c-.93.64-2.43.52-3.25-.26-.77-.93-.68-2.33.22-3.14,0,0,.02-.02.03-.03l13.53-12.93c1.42-1.36,3.29-2.11,5.25-2.11h14.92c1.89,0,3.7.7,5.1,1.96l14.67,13.26c.42.38.67.9.68,1.46.01.56-.2,1.08-.61,1.49l-.18.18c-.71.71-2.06.83-2.89.26l-12.57-8.72c-.41-.28-.94-.32-1.38-.09-.44.23-.72.69-.72,1.18v17.94c0,.1.01.2.03.3l.12.53c.16.72.88,1.17,1.6,1,.72-.16,1.17-.88,1-1.6l-.09-.39v-15.24l10.47,7.27c1.9,1.32,4.66,1.07,6.3-.56l.18-.18c.93-.93,1.42-2.15,1.39-3.45-.03-1.29-.59-2.49-1.56-3.37l-14.67-13.26c-1.89-1.71-4.34-2.65-6.89-2.65h-14.92c-2.66,0-5.18,1.01-7.1,2.85L1.6,34.65c-1.97,1.8-2.15,4.88-.4,6.9h0Z"/>
          </g>
          <path class="cls-3" d="m28.79,51.4l.55-2.21h.54l.55,2.21c.15.61.7,1.02,1.3,1.02.11,0,.21-.01.32-.04.72-.18,1.15-.9.98-1.62l-.8-3.23c-.15-.6-.68-1.02-1.3-1.02h-2.63c-.61,0-1.15.42-1.3,1.02l-.8,3.23c-.18.72.26,1.44.98,1.62.72.18,1.44-.26,1.62-.98h0Z"/>
          <path class="cls-3" d="m43.46,82.25c-1.39.33-2.8-.49-3.2-1.86l-6.01-20.56c-.21-.71-.95-1.11-1.66-.91-.71.21-1.11.95-.91,1.66l6.01,20.56c.68,2.33,2.81,3.86,5.14,3.86.41,0,.83-.05,1.25-.15,1.39-.33,2.57-1.19,3.32-2.4.75-1.22.98-2.65.65-4.04l-4.41-19.31c-.16-.72-.88-1.17-1.6-1-.72.16-1.17.88-1,1.6l4.41,19.31s0,0,0,.01c.34,1.44-.55,2.9-1.99,3.24h0Z"/>
          <path class="cls-3" d="m13.76,78.99l4.51-19.76c.16-.72-.29-1.44-1-1.6-.72-.16-1.44.29-1.6,1l-4.51,19.76c-.68,2.87,1.1,5.77,3.98,6.45.42.1.83.15,1.25.15,2.33,0,4.46-1.53,5.14-3.86l6.02-20.59c.21-.71-.2-1.45-.91-1.66-.71-.21-1.45.2-1.66.91l-6.02,20.59c-.4,1.38-1.81,2.19-3.2,1.86-1.44-.34-2.34-1.8-1.99-3.24,0,0,0,0,0-.01h0Z"/>
          <path class="cls-3" d="m58.2,49.28c0-1.65-1.4-3.08-4.16-4.23-2.22-.92-5.39-1.71-9.16-2.28-.73-.11-1.41.39-1.52,1.12s.39,1.41,1.12,1.52c9.09,1.37,11.05,3.43,11.05,3.86,0,.32-1.16,1.77-6.81,3.07-4.97,1.15-11.59,1.78-18.65,1.78s-13.68-.63-18.65-1.78c-5.66-1.31-6.81-2.75-6.81-3.07,0-.43,1.95-2.48,10.96-3.85.73-.11,1.23-.79,1.12-1.52-.11-.73-.79-1.23-1.52-1.12-3.75.57-6.89,1.36-9.09,2.28-2.74,1.15-4.13,2.57-4.13,4.21,0,2.44,2.91,4.29,8.88,5.67,5.16,1.19,11.99,1.85,19.25,1.85s14.09-.66,19.25-1.85c5.98-1.38,8.88-3.24,8.88-5.67h0Z"/>
        </g>
      </g>
    </g>
  </g>
</svg>