<?xml version="1.0" encoding="UTF-8"?>
<svg id="Capa_2" data-name="Capa 2" xmlns="http://www.w3.org/2000/svg" viewBox="0 0 64.43 85">
  <defs>
    <style>
      .cls-1 {
        fill: #515151;
      }
    </style>
  </defs>
  <g id="Layer_1" data-name="Layer 1">
    <g id="NewGroupe12">
      <g id="NewGroup0-47">
        <g>
          <path class="cls-1" d="m52.41,56.6c-.22.12-.46.18-.7.18-.5,0-.99-.26-1.25-.73l-7.57-13.51c-.39-.69-.14-1.57.55-1.95.69-.39,1.57-.14,1.95.55l7.57,13.51c.39.69.14,1.57-.55,1.95h0Zm-4.1,2.46l-4.22,2.37c-.22.12-.46.18-.7.18-.5,0-.99-.26-1.25-.73l-7.43-13.26c-.19-.33-.23-.72-.13-1.09.1-.37.35-.68.68-.86l4.22-2.37c.69-.39,1.57-.14,1.95.55.39.69.14,1.57-.55,1.95l-2.97,1.66,2.31,4.13,2.53-1.42c.69-.39,1.57-.14,1.95.55.39.69.14,1.57-.55,1.95l-2.53,1.42,2.31,4.13,2.97-1.66c.69-.39,1.57-.14,1.95.55.39.69.14,1.57-.55,1.95h0Zm-10.72,6.46c-.22.12-.46.18-.7.18-.5,0-.99-.26-1.25-.73l-6.72-11.99-2.54,1.42c-.22.12-.46.18-.7.18-.5,0-.99-.26-1.25-.73-.39-.69-.14-1.57.55-1.95l7.58-4.25c.69-.39,1.57-.14,1.95.55.39.69.14,1.57-.55,1.95l-2.54,1.42,6.72,11.99c.39.69.14,1.57-.55,1.95h0Zm-7.16,3.03l-5.01,2.81c-.22.12-.46.18-.7.18-.13,0-.26-.02-.39-.05-.37-.1-.68-.35-.86-.68l-7.58-13.53c-.19-.33-.23-.72-.13-1.09.1-.37.35-.68.68-.86l5.01-2.81c.69-.39,1.57-.14,1.95.55l7.58,13.53c.39.69.14,1.57-.55,1.95h0Zm-7.98,4.36c-.52.6-1.43.66-2.03.14l-4.45-3.87,2.48,4.42c.39.69.14,1.57-.55,1.95-.22.12-.46.18-.7.18-.5,0-.99-.26-1.25-.73l-7.57-13.51c-.19-.33-.23-.72-.13-1.09.1-.37.35-.68.68-.86l3.78-2.12c.69-.39,1.57-.14,1.95.55l2.84,5.07c.19.33.23.72.13,1.09-.1.37-.35.68-.68.86l-.86.48,6.22,5.41c.6.52.66,1.43.14,2.03h0Zm-11.84,7.12c-.22.12-.46.18-.7.18-.5,0-.99-.26-1.25-.73l-4.54-8.1s-.01-.02-.02-.03l-3.02-5.38c-.19-.33-.23-.72-.13-1.09.1-.37.35-.68.68-.86l4.26-2.39c.69-.39,1.57-.14,1.95.55l2.84,5.07c.37.65.17,1.48-.46,1.9l-2.97,1.97,3.9,6.95c.39.69.14,1.57-.55,1.95h0Zm38.12-41.51c.52-.45,1.27-.47,1.81-.05l7.18,5.51-3.79-6.76c-.39-.69-.14-1.57.55-1.95.69-.39,1.57-.14,1.95.55l7.2,12.85c.33.59.2,1.34-.31,1.79-.52.45-1.27.47-1.81.05l-7.18-5.51,3.8,6.79c.39.69.14,1.57-.55,1.95-.22.12-.46.18-.7.18-.5,0-.99-.26-1.25-.73l-7.22-12.88c-.33-.59-.2-1.34.31-1.79h0Zm15.69,41.36V30.42c0-2.25-4.11-4.77-10.02-4.77H10.02c-5.9,0-10.02,2.51-10.02,4.77v49.81c0,2.25,4.11,4.77,10.02,4.77h43.74c6.29,0,10.68-2.7,10.68-5.12h0Z"/>
          <polygon class="cls-1" points="40.85 22.78 40.85 15.94 23.58 15.94 23.58 22.78 40.85 22.78 40.85 22.78"/>
          <polygon class="cls-1" points="19.1 57.13 25.28 68.15 27.78 66.75 21.6 55.73 19.1 57.13 19.1 57.13"/>
          <polygon class="cls-1" points="11.59 61.34 13.03 63.91 14.3 63.19 12.87 60.63 11.59 61.34 11.59 61.34"/>
          <path class="cls-1" d="m37.6,10.55c0,.79-.64,1.44-1.44,1.44s-1.44-.64-1.44-1.44V2.89c0-.79.64-1.44,1.44-1.44s1.44.64,1.44,1.44v7.66h0Zm-8.5,0c0,.79-.64,1.44-1.44,1.44s-1.44-.64-1.44-1.44V2.89c0-.79.64-1.44,1.44-1.44s1.44.64,1.44,1.44v7.66h0Zm-8.5,0c0,.79-.64,1.44-1.44,1.44s-1.44-.64-1.44-1.44V2.89c0-.79.64-1.44,1.44-1.44s1.44.64,1.44,1.44v7.66h0Zm22.62-7.66c0-.79.64-1.44,1.44-1.44s1.44.64,1.44,1.44v7.66c0,.79-.64,1.44-1.44,1.44s-1.44-.64-1.44-1.44V2.89h0Zm2.9,10.18c1.61,0,2.91-1.31,2.91-2.91V2.91c0-1.61-1.31-2.91-2.91-2.91h-27.82c-1.61,0-2.91,1.31-2.91,2.91v7.24c0,1.61,1.31,2.91,2.91,2.91h27.82Z"/>
          <polygon class="cls-1" points="6.05 64.83 4.3 65.82 5.86 68.61 7.54 67.49 6.05 64.83 6.05 64.83"/>
        </g>
      </g>
    </g>
  </g>
</svg>