<?xml version="1.0" encoding="UTF-8"?>
<svg id="Capa_2" data-name="Capa 2" xmlns="http://www.w3.org/2000/svg" xmlns:xlink="http://www.w3.org/1999/xlink" viewBox="0 0 49.46 85">
  <defs>
    <style>
      .cls-1 {
        clip-path: url(#clippath);
      }

      .cls-2 {
        fill: none;
      }

      .cls-3 {
        fill: #515151;
      }
    </style>
    <clipPath id="clippath">
      <rect class="cls-2" width="49.46" height="85"/>
    </clipPath>
  </defs>
  <g id="Layer_1" data-name="Layer 1">
    <g id="NewGroupe29">
      <g id="NewGroup0-30">
        <g>
          <g class="cls-1">
            <path class="cls-3" d="m30.7,59.1h-11.18c-.77,0-1.4-.63-1.4-1.4s.63-1.4,1.4-1.4h11.18c.77,0,1.4.63,1.4,1.4s-.63,1.4-1.4,1.4h0Zm18.72,24.29c-3.1-12.79-6.83-27.03-8.09-30.07H9.16c-1.35,2.96-5.57,17.23-9.1,30.03,0,0,0,.01,0,.01-.11.39-.04.8.21,1.12.24.32.62.51,1.02.51h14.63c.48,0,.94-.28,1.15-.72l3.95-8.07c.69-1.41,2.1-2.29,3.67-2.29,1.57,0,2.98.88,3.67,2.29l3.95,8.07c.22.44.66.72,1.15.72h14.74c.4,0,.77-.18,1.01-.49.24-.31.33-.71.23-1.1,0,0,0-.01,0-.02h0Z"/>
          </g>
          <path class="cls-3" d="m41.23,0h-3.25l-3.36,9.22c-1.02,2.81-3.72,4.69-6.71,4.69h-7.19c-3.15,0-5.97-2.11-6.85-5.14L11.32,0h-3.51c.03.25.07.51.1.79.38,2.79.9,6.61-.92,10.82-1.2,2.8-3.19,5.14-4.63,6.86-.17.21-.34.41-.5.6.02,1.06.73,4.92,2.75,12.19,1.59,5.73,3.05,10.12,3.71,11.57h33.12c.59-1.51,1.83-5.91,3.13-11.61,1.68-7.35,2.19-11.22,2.15-12.24-2.3-2.75-4.06-5.84-5.26-9.19-1.27-3.58-.74-6.82-.35-9.18.03-.21.07-.41.1-.6h0Z"/>
        </g>
      </g>
    </g>
  </g>
</svg>