<?xml version="1.0" encoding="UTF-8"?>
<svg id="Capa_2" data-name="Capa 2" xmlns="http://www.w3.org/2000/svg" xmlns:xlink="http://www.w3.org/1999/xlink" viewBox="0 0 66.96 85">
  <defs>
    <style>
      .cls-1 {
        clip-path: url(#clippath);
      }

      .cls-2 {
        fill: none;
      }

      .cls-3 {
        fill: #515151;
      }
    </style>
    <clipPath id="clippath">
      <rect class="cls-2" width="66.96" height="85"/>
    </clipPath>
  </defs>
  <g id="Layer_1" data-name="Layer 1">
    <g id="NewGroupe3">
      <g id="NewGroup0-56">
        <g>
          <g class="cls-1">
            <path class="cls-3" d="m19.78,30.88v-2.22c0-1.21.17-2.41.5-3.58l3.04-10.72h11.28l2.91,10.79c.3,1.11.45,2.26.45,3.41v2.31h-18.17Zm1.66-22.97s-.04-.02-.04-.04V2.73s.02-.04.04-.04h14.85s.04.02.04.04v5.13s-.02.04-.04.04h-14.85Zm7.97,56.86c-.74,0-1.34.6-1.34,1.34s.6,1.34,1.34,1.34h9.88c.74,0,1.34-.6,1.34-1.34V28.56c0-1.39-.18-2.77-.54-4.11l-3.17-11.78c-.16-.59-.69-.99-1.3-.99h-.56v-1.08h1.22c1.51,0,2.73-1.22,2.73-2.73V2.73c0-1.51-1.22-2.73-2.73-2.73h-14.85c-1.51,0-2.73,1.23-2.73,2.73v5.13c0,1.51,1.22,2.73,2.73,2.73h1.22v1.08h-.37c-.6,0-1.13.4-1.29.98l-3.31,11.7c-.4,1.4-.6,2.85-.6,4.31v3.44s0,.08,0,.12v18.98c0,.74.6,1.34,1.34,1.34h19.52v12.22h-8.54Z"/>
            <path class="cls-3" d="m54.05,38.66c.77.16,1.54.25,2.32.25,1.62,0,3.24-.36,4.75-1.07,2.71-1.27,4.75-3.52,5.77-6.33.25-.7-.11-1.47-.81-1.72-5.13-1.85-10.74.29-13.43,4.82-.08-.09-.16-.18-.25-.3-.86-1.09-1.4-2.45-1.61-4.03-.1-.74-.77-1.25-1.51-1.16-.74.1-1.25.77-1.16,1.51.27,2.06,1,3.86,2.16,5.34.32.41.58.67.77.86.13.13.2.2.24.26.15.22.67,1.42-1.83,5.58-1.4-4.2-3.94-7.27-6.9-8.15-.71-.21-1.46.2-1.67.91-.21.71.2,1.46.91,1.67,2.63.78,4.96,4.44,5.79,9.11h0c0,.05.02.1.04.16,0,.01,0,.03.01.04.01.04.03.08.05.12,0,.01,0,.02.01.03.02.05.05.1.08.14,0,0,0,0,0,0,.03.04.06.08.09.12,0,.01.02.02.03.03.03.03.06.06.09.09.01,0,.02.02.03.03.04.03.08.07.12.1,0,0,0,0,0,0,0,0,0,0,0,0,.04.03.09.06.14.08,0,0,.01,0,.02.01.05.02.1.05.15.06,0,0,0,0,0,0,0,0,0,0,0,0,.05.02.11.03.16.05,0,0,0,0,0,0,.05.01.11.02.16.02,0,0,0,0,0,0,.04,0,.07,0,.11,0,.01,0,.02,0,.03,0,.03,0,.05,0,.08,0,.03,0,.06,0,.09-.01.03,0,.05,0,.08-.01.03,0,.06-.01.09-.02.02,0,.05-.01.07-.02.03-.01.06-.02.09-.04.02,0,.04-.02.06-.03.03-.02.07-.03.1-.05.02,0,.03-.02.05-.03.04-.03.08-.05.11-.08,0,0,.02-.01.02-.02,0,0,0,0,0,0,0,0,0,0,0,0,4.23-3.58,9.08-4.71,11.28-2.64,1.17,1.1,1.52,3.02.97,5.4-.6,2.63-2.2,5.42-4.49,7.86-4.49,4.76-10.45,6.73-13.03,4.3-.14-.14-.28-.29-.4-.45-.44-.6-1.28-.72-1.88-.28-.6.44-.72,1.28-.28,1.88.22.29.46.57.72.81,1.24,1.17,2.9,1.77,4.83,1.77,1.01,0,2.09-.16,3.22-.49,3.05-.89,6.17-2.91,8.78-5.69,2.62-2.78,4.45-6.01,5.16-9.1.76-3.35.14-6.17-1.75-7.96-1.67-1.57-4.15-2.12-7-1.53-.96.2-1.94.52-2.93.95.36-.75.63-1.44.82-2.08.11-.37.19-.72.24-1.06h0Z"/>
          </g>
          <path class="cls-3" d="m20.96,62.86c-.19-.07-.4-.1-.61-.07-.74.08-1.27.75-1.18,1.49l.32,2.83-2.41-2.55c.08-.2.11-.41.08-.64l-.59-5.22c-.08-.74-.75-1.27-1.49-1.18-.74.08-1.27.75-1.18,1.49l.28,2.5-2.72-2.87c-.51-.54-1.36-.56-1.9-.05-.54.51-.56,1.36-.05,1.9l2.51,2.65-2.9-.34c-.74-.09-1.4.44-1.49,1.18-.09.74.44,1.4,1.18,1.49l5.57.65c.05,0,.11,0,.16,0,.1,0,.2-.01.29-.03l1.84,1.94-2.69-.31c-.74-.09-1.4.44-1.49,1.18-.09.74.44,1.4,1.18,1.49l5.57.65c.05,0,.11,0,.16,0,.04,0,.09,0,.13,0l3.03,3.2c-10.79-1.71-19.16-10.76-19.81-21.86,7.6.44,14.25,4.51,18.23,10.5h0Zm3.69,9.69l-2.4-2.53c.14-.24.21-.53.18-.83l-.55-4.83c1.4,2.49,2.36,5.25,2.77,8.19h0ZM0,50.97c0,7,2.73,13.59,7.68,18.54,4.74,4.74,10.98,7.44,17.66,7.66l7.01,7.4c.26.28.62.42.98.42.33,0,.66-.12.92-.37.54-.51.56-1.36.05-1.9l-6.73-7.11c-.06-6.92-2.78-13.42-7.68-18.32-4.95-4.95-11.54-7.68-18.54-7.68-.74,0-1.34.6-1.34,1.34h0Z"/>
        </g>
      </g>
    </g>
  </g>
</svg>