<?xml version="1.0" encoding="UTF-8"?>
<svg id="Capa_2" data-name="Capa 2" xmlns="http://www.w3.org/2000/svg" xmlns:xlink="http://www.w3.org/1999/xlink" viewBox="0 0 56.67 85">
  <defs>
    <style>
      .cls-1 {
        clip-path: url(#clippath);
      }

      .cls-2 {
        fill: none;
      }

      .cls-3 {
        fill: #515151;
      }
    </style>
    <clipPath id="clippath">
      <rect class="cls-2" width="56.67" height="85"/>
    </clipPath>
  </defs>
  <g id="Layer_1" data-name="Layer 1">
    <g id="NewGroupe58">
      <g id="NewGroup0-1">
        <g class="cls-1">
          <path class="cls-3" d="m38.52,48.48l-6.79,4.51c-1.07-1-2.48-1.58-3.99-1.58-3.22,0-5.84,2.62-5.84,5.84s2.62,5.84,5.84,5.84,5.84-2.62,5.84-5.84c0-.63-.1-1.24-.29-1.83l6.83-4.54c.66-.44.84-1.34.4-2-.44-.66-1.34-.84-2-.4h0Z"/>
          <path class="cls-3" d="m27.74,76.67c-10.7,0-19.41-8.71-19.41-19.41s8.71-19.41,19.41-19.41,19.41,8.71,19.41,19.41-8.71,19.41-19.41,19.41h0Zm25.71-36.81s.03,0,.04,0c.86-.01,1.67-.36,2.27-.97,1.24-1.27,1.21-3.32-.06-4.56l-3.64-3.55c-.61-.59-1.4-.91-2.25-.91-.01,0-.03,0-.04,0-.86.01-1.67.36-2.27.97-.92.94-1.14,2.31-.68,3.46l-1.47,1.51c-2.33-1.92-4.95-3.44-7.8-4.51,0-.1.01-.2.01-.3,0-3.16-3.1-5.76-7.43-6.55L47.87,2.35c.5-.62.4-1.53-.22-2.03-.62-.5-1.53-.4-2.03.22l-18.41,22.95L6.66,3.03c-.56-.56-1.48-.56-2.04,0-.56.56-.56,1.48,0,2.04l19.53,19.45c-4.14.87-7.07,3.4-7.07,6.48,0,.21.01.41.04.62-4.79,1.98-8.91,5.24-11.95,9.5C1.79,45.85,0,51.43,0,57.26c0,7.41,2.89,14.38,8.12,19.62,5.24,5.24,12.21,8.12,19.62,8.12s14.38-2.89,19.62-8.12c5.24-5.24,8.12-12.21,8.12-19.62,0-5.7-1.7-11.14-4.93-15.79l1.77-1.81c.36.13.74.21,1.14.21h0Z"/>
        </g>
      </g>
    </g>
  </g>
</svg>