<?xml version="1.0" encoding="UTF-8"?>
<svg id="Capa_2" data-name="Capa 2" xmlns="http://www.w3.org/2000/svg" viewBox="0 0 243.48 200.27">
  <g id="Layer_1" data-name="Layer 1">
    <g>
      <path d="m72.06,120.13c-3.89-11.8-16.61-18.22-28.41-14.33-11.8,3.89-18.22,16.61-14.33,28.41,2.13,6.46,6.9,11.3,12.72,13.72l25.38-5.73c5.2-5.8,7.25-14.15,4.63-22.08Z"/>
      <path d="m86,123.37c-1.07-2.54-1.08-5.34-.04-7.88,1.02-2.5,2.94-4.45,5.4-5.53-2.54-1.1-4.93-2.47-7.14-4.07-5.39,2.14-8.69,7.81-7.69,13.68,0,.15,0,.3.02.45.47,6.39,5,13.59,13.4,17.11l1.67-.38-5.62-13.38Z"/>
      <path d="m222.47,166.03c1.06,0,2.15-.14,3.23-.42,6.67-1.78,10.64-8.63,8.86-15.3l-.63-2.38c-.89.16-1.81.26-2.75.26-8.45,0-15.32-6.87-15.32-15.32,0-6.65,4.27-12.31,10.21-14.42l-9.45-35.47c-.92-3.43-3.25-6.31-6.41-7.92-3.17-1.61-6.87-1.8-10.18-.52l-40.81,15.78-20.95,4.29c-4.81,8.12-12.6,14.26-21.86,16.92v19.61l.71-.16c1.9-.43,3.65.31,5.08,1.99.57-2.14,1.83-3.56,3.73-3.98l38.33-8.65c1.68-2.09,2.63-4.21,3.06-6.35l9.93-3.84c-.03-.39-.06-.78-.06-1.18,0-8.45,6.87-15.32,15.32-15.32s15.32,6.87,15.32,15.32c0,5.28-2.69,9.95-6.77,12.7l9.34,35.07c1.49,5.59,6.54,9.29,12.07,9.28Z"/>
      <path d="m21.03,190.27h-5.52v-4.44l162.64-35.82c2.78.23,4.96,2.57,4.96,5.4v34.85h-5.52v10h21.03v-10h-5.52v-34.85c0-8.5-6.92-15.42-15.42-15.42h-.54L15.52,175.6V59.47h16.17l4.01-5.13-3.15-2.46-2.81,3.59h-10.29v-16.57h-3.94V0H5.52v190.27H0v10h21.03v-10Z"/>
      <path d="m181.5,119.6c-.32.03-.63.07-.95.14l-53.97,12.18c-3.79.86-.68,14.66,3.12,13.8l53.97-12.18c3.79-.86,6.2-4.66,5.34-8.46-.1-.46-.26-.91-.44-1.33-2.73-.73-5.16-2.18-7.07-4.15Z"/>
      <path d="m96.61,148.63l-3.81-9.08-54,12.19c-3.8.86-6.2,4.66-5.34,8.46s4.66,6.2,8.46,5.34l57.59-13c-1.24-1.03-2.24-2.36-2.89-3.91Z"/>
      <path d="m117.78,133.91l-1.37.31v10.26c.01.73-.06,1.47-.2,2.19-.02.12-.06.24-.09.35-.05.2-.1.41-.16.61-.05.17-.12.34-.18.51-.05.13-.09.26-.14.39,0,.02-.02.04-.03.05-.05.12-.11.23-.16.35l5.44-1.23c3.8-.86.68-14.66-3.12-13.8Z"/>
      <path d="m192.5,96.65c-6.8,0-12.32,5.51-12.32,12.32s5.51,12.32,12.32,12.32,12.32-5.51,12.32-12.32-5.51-12.32-12.32-12.32Zm0,17.75c-3,0-5.43-2.43-5.43-5.43s2.43-5.43,5.43-5.43,5.43,2.43,5.43,5.43-2.43,5.43-5.43,5.43Z"/>
      <path d="m231.17,145.19c6.8,0,12.32-5.51,12.32-12.32s-5.51-12.32-12.32-12.32-12.32,5.51-12.32,12.32,5.51,12.32,12.32,12.32Zm0-17.75c3,0,5.43,2.43,5.43,5.43s-2.43,5.43-5.43,5.43-5.43-2.43-5.43-5.43,2.43-5.43,5.43-5.43Z"/>
      <path d="m98.72,147.72c.15.35.32.68.51,1,.04.07.08.14.13.21.18.29.38.57.6.83.04.05.09.1.14.15.19.21.38.41.59.6.07.07.14.13.22.2.25.22.52.42.79.6.05.03.09.06.14.09,1.24.78,2.7,1.24,4.27,1.24,4.42,0,8-3.58,8-8v-32.52c-2.58.57-5.25.87-8,.87s-5.42-.31-8-.87v19.14l-2.3-4.87v-14.86c-.17-.05-.34-.09-.51-.15-.97.02-1.95.22-2.9.62-4.07,1.71-5.99,6.4-4.28,10.47l10.6,25.24Z"/>
      <path d="m106.1,109.99c18.98,0,34.36-15.38,34.36-34.36s-15.38-34.36-34.36-34.36-34.36,15.38-34.36,34.36,15.38,34.36,34.36,34.36Zm0-50.53c8.93,0,16.17,7.24,16.17,16.17s-7.24,16.17-16.17,16.17-16.17-7.24-16.17-16.17,7.24-16.17,16.17-16.17Z"/>
      <circle cx="106.1" cy="75.63" r="8.21" transform="translate(-14.54 26.4) rotate(-13.28)"/>
    </g>
  </g>
</svg>