<?xml version="1.0" encoding="UTF-8"?>
<svg id="Capa_2" data-name="Capa 2" xmlns="http://www.w3.org/2000/svg" viewBox="0 0 47.82 43.85">
  <defs>
    <style>
      .cls-1 {
        fill: #2d3540;
      }
    </style>
  </defs>
  <g id="Layer_1" data-name="Layer 1">
    <path class="cls-1" d="m45.38,33.41h-.95v-6.08c0-2.09-.73-4.13-2.07-5.74-2.62-3.17-4.06-7.17-4.06-11.28v-4.38c0-3.28-2.67-5.94-5.94-5.94h-15.85c-3.28,0-5.94,2.67-5.94,5.94v6.93h-6.44c-2.28,0-4.13,1.85-4.13,4.13v22.71c0,2.28,1.85,4.13,4.13,4.13h15.36c2.28,0,4.13-1.85,4.13-4.13v-22.71c0-2.28-1.85-4.13-4.13-4.13h-6.44v-6.93c0-1.91,1.55-3.46,3.46-3.46h15.85c1.91,0,3.46,1.55,3.46,3.46v4.38c0,4.11-1.44,8.12-4.06,11.28-1.33,1.61-2.07,3.65-2.07,5.74v6.08h-.95c-1.35,0-2.44,1.09-2.44,2.44h0c0,1.35,1.09,2.44,2.44,2.44h2.5c1.35,0,2.44-1.09,2.44-2.44h0c0-1.02-.63-1.89-1.51-2.26v-6.26c0-1.51.53-2.99,1.5-4.15,1.47-1.77,2.61-3.77,3.39-5.91.78,2.13,1.93,4.13,3.39,5.91.96,1.16,1.5,2.64,1.5,4.15v6.26c-.89.37-1.51,1.24-1.51,2.26h0c0,1.35,1.09,2.44,2.44,2.44h2.5c1.35,0,2.44-1.09,2.44-2.44h0c0-1.35-1.09-2.44-2.44-2.44Zm-28.88,1.64l-7.04,4.06c-.49.28-1.1-.07-1.1-.64v-8.13c0-.57.61-.92,1.1-.64l7.04,4.06c.49.28.49.99,0,1.27Zm3.12-17.54v4.37c0,.83-.71,1.5-1.58,1.5H5.59c-.87,0-1.58-.67-1.58-1.5v-4.37c0-.83.71-1.5,1.58-1.5h12.45c.87,0,1.58.67,1.58,1.5Z"/>
  </g>
</svg>