<?xml version="1.0" encoding="UTF-8"?>
<svg id="Capa_2" data-name="Capa 2" xmlns="http://www.w3.org/2000/svg" viewBox="0 0 47.44 62.56">
  <defs>
    <style>
      .cls-1 {
        fill: #2d3540;
      }
    </style>
  </defs>
  <g id="Layer_1" data-name="Layer 1">
    <path class="cls-1" d="m47.25,58.17l-6.49-18.08c-.34-.95-.99-1.7-1.84-2.11-.52-.26-.98-.82-1.22-1.5-.24-.68-.25-1.4-.01-1.93.39-.86.41-1.85.07-2.8l-.21-.58c-.49-1.37-1.61-1.95-3.21-1.69.21-.8.56-1.57,1.02-2.3.56-.89,1.32-1.75,2.3-2.63.93-.83,1.98-1.61,2.98-2.32.12-.09.24-.17.36-.26.41-.3.84-.6,1.27-.92.54-.41,1.11-.86,1.64-1.42.32-.34.56-.66.75-1.01.12-.23.21-.45.27-.68.03-.12.06-.25.07-.38v-.09s.01-.11.01-.11c0-.02,0-.03,0-.05,0-.05,0-.1,0-.17v-.12s-.02-.08-.02-.11l-.02-.12s-.01-.1-.03-.15l-.05-.17-.03-.09c-.04-.12-.1-.23-.15-.34l-.03-.05c-.05-.09-.1-.18-.16-.26-.22-.34-.51-.64-.89-.96-.15-.13-.31-.25-.49-.36.13-.28.25-.56.36-.84.28-.7.5-1.41.67-2.12.19-.8.29-1.53.32-2.26.03-.82-.03-1.61-.19-2.34l-.05-.22-.17-.58-.2-.5s0-.01,0-.02c0-.02-.01-.03-.03-.07l-.06-.13c-.03-.06-.06-.13-.1-.2v-.02c-.06-.09-.11-.18-.15-.25-.05-.09-.11-.18-.16-.26-.43-.65-1-1.25-1.69-1.76-.6-.45-1.28-.83-2.08-1.17-.68-.29-1.41-.54-2.22-.75-.72-.19-1.47-.34-2.29-.47-1.41-.22-2.93-.35-4.66-.39-.8-.02-1.6-.02-2.35-.01h-.59s-.59.03-.59.03c-.42.02-.81.04-1.19.07-.77.05-1.56.13-2.37.24-.78.1-1.58.22-2.37.37-1.57.29-3.14.67-4.69,1.13-1.61.48-3.15,1.04-4.57,1.67-1.58.69-3.04,1.46-4.34,2.3-1.52.97-2.78,1.99-3.86,3.13-.63.66-1.14,1.3-1.58,1.97-.47.7-.87,1.46-1.19,2.26-.18.47-.3.86-.39,1.22-.02.08-.04.15-.06.23,0,.03-.01.06-.02.1,0,.03-.01.07-.02.1-.02.07-.03.14-.04.21l-.06.32s-.01.07-.01.09l-.03.22c-.01.09-.02.19-.03.29v.03c-.01.11-.02.22-.03.33,0,.04,0,.07,0,.11,0,.07,0,.14-.01.21v.32c-.01.42,0,.85.04,1.28.03.39.09.81.18,1.27.08.41.18.83.3,1.25.25.87.59,1.67,1.01,2.39.23.4.49.77.76,1.1.31.37.64.69.99.96.39.3.81.54,1.25.7l.09.03s.06.02.08.03l.17.05.07.02c.1.03.21.05.31.07.24.04.49.07.74.06.12,0,.24,0,.35-.02h.08c.1-.02.21-.04.31-.06.22-.04.45-.11.7-.2.39-.14.78-.33,1.22-.6.77-.48,1.45-1.04,2.02-1.53.51-.44,1-.88,1.48-1.32l.32-.29c.52-.47,1.13-1.02,1.77-1.56,1.29-1.1,2.5-2,3.7-2.76,1.3-.83,2.65-1.52,4.01-2.07l.26-.1.26-.1.53-.19c.07-.03.14-.05.21-.07l.31-.1.17-.05c.12-.04.24-.08.36-.11.7-.21,1.43-.4,2.15-.56,1.39-.3,2.86-.5,4.35-.59,1.41-.09,2.86-.07,4.3.05,1.48.13,2.86.37,4.11.71.67.18,1.3.4,1.88.65-.22.36-.47.72-.75,1.12-.36.49-.75.98-1.22,1.48-.41.44-.87.88-1.36,1.28l-.36.29c-.08.06-.15.11-.23.17-.05.03-.09.07-.14.1-.1.08-.21.14-.32.21l-.05.03s-.07.04-.1.07c-.09.06-.18.12-.28.17-.05.03-.1.06-.15.08-.08.04-.16.09-.24.13l-.4.19s-.03.01-.04.02c-.02,0-.04.02-.05.02l-.3.12s-.05.02-.08.03c-.04.02-.07.03-.11.05l-.22.07c-1.12.39-2.32.46-3.45.49-.17,0-.35.01-.52.01-1.04.03-2.11.06-3.17.27-.27.05-.57.13-.93.25l-.33.12-.33.14-.32.16-.32.18s-.09.06-.14.08l-.11.07c-.05.03-.11.07-.16.11l-.08.06c-.1.07-.2.14-.3.23l-.18.15-.09.08c-2.12-.96-3.7-.6-4.44,1.01l-.26.56c-.42.91-.49,1.9-.18,2.79.19.55.12,1.27-.18,1.92-.3.66-.81,1.17-1.35,1.38-.88.34-1.59,1.03-2.02,1.94l-8.09,17.43c-.41.88-.39,1.75.05,2.52.39.68,1.1,1.28,2.06,1.73.75.35,1.44.52,2.07.52,1.14,0,2.03-.56,2.54-1.65l8.09-17.43c.42-.91.49-1.9.18-2.79-.19-.55-.12-1.27.18-1.92.3-.66.81-1.17,1.35-1.38.88-.34,1.59-1.03,2.02-1.94l.26-.56c.58-1.25.25-2.4-.92-3.32.65-.46,1.4-.77,2.24-.92.27-.05.54-.09.81-.11.24-.02.5-.04.84-.06.38-.02.76-.02,1.17-.03.21,0,.41,0,.62-.01.6-.01,1.25-.03,1.92-.11.31-.03.65-.09,1-.16l.25-.05c.06-.01.11-.03.17-.04l.21-.05s.06-.02.07-.02l.53-.17h0c.06-.02.12-.05.18-.07l.44-.18s.06-.03.09-.04c.01,0,.03-.01.04-.02l.46-.22h0c.1-.06.2-.11.31-.17.05-.03.1-.05.14-.08.12-.06.23-.13.34-.2.04-.02.07-.05.11-.07l.05-.03c.13-.08.27-.17.39-.26.05-.03.09-.07.14-.1.09-.06.19-.13.28-.2l.4-.32c.08-.06.15-.12.21-.17l.4-.34s.09-.08.13-.12l.06-.06s.09-.08.13-.12c.08-.08.17-.16.25-.24l.36-.38c.51-.56.95-1.09,1.35-1.64.3-.42.58-.85.85-1.29.06.05.12.09.18.14.23.18.41.38.53.56h0s.03.06.05.09c0,.02.02.03.03.05,0,.01.01.02.02.03.02.03.03.06.04.09l.03.1s0,0,0,.01l.02.09s0,0,0,.01c0,.01,0,.02,0,.03h0s0,0,0,0c0,.01,0,.03,0,.04v.02s0,.04,0,.04c0,.02,0,.05-.01.07,0,.01,0,.03,0,.04-.02.08-.06.18-.11.27-.11.2-.27.42-.47.63-.41.45-.94.88-1.4,1.23-.44.34-.9.68-1.34,1l-.24.17c-.97.72-2.09,1.56-3.09,2.49-1.08,1-1.91,1.99-2.54,3.02-.19.31-.35.62-.48.87-.16.33-.28.62-.38.9-.22.59-.38,1.22-.47,1.87,0,.01,0,.03,0,.04-.78.34-1.37.76-1.74,1.25-.54.7-.64,1.51-.31,2.43l.21.58c.34.95.99,1.7,1.84,2.11.52.26.98.82,1.22,1.5.24.68.25,1.4.01,1.93-.39.86-.41,1.85-.07,2.8l6.49,18.08c.44,1.24,1.41,1.89,2.71,1.89.54,0,1.14-.11,1.78-.34,2.18-.78,3.11-2.29,2.48-4.04Zm-4.29-49.09c-.04.62-.14,1.28-.32,1.96-.16.64-.38,1.28-.63,1.89-.09.22-.19.44-.29.65-.04-.02-.08-.04-.12-.05-.67-.3-1.37-.54-2.14-.76-1.36-.38-2.82-.63-4.46-.78-1.48-.13-3.03-.14-4.59-.04-1.53.1-3.09.32-4.63.67-.78.18-1.55.38-2.29.62-.13.04-.27.09-.4.13l-.5.17c-.08.03-.16.06-.23.08l-.27.1-.57.22-.28.11c-1.44.6-2.88,1.36-4.27,2.27-1.26.82-2.52,1.78-3.85,2.95-.65.56-1.27,1.13-1.79,1.62-.13.12-.27.25-.4.37-.44.41-.9.83-1.35,1.23-.52.46-1.14.99-1.79,1.4-.68.43-1.3.66-1.85.68-.58.02-1.21-.19-1.78-.61-.53-.39-1-.92-1.41-1.6-.38-.62-.69-1.31-.93-2.06-.12-.37-.22-.74-.3-1.11-.09-.42-.15-.79-.19-1.14-.05-.39-.07-.78-.08-1.15v-.29c0-.06,0-.12,0-.18,0-.04,0-.07,0-.11,0-.09,0-.18.01-.27v-.05c0-.08.01-.16.02-.24.03-.35.09-.71.18-1.13.07-.32.17-.68.32-1.1.5-1.38,1.32-2.7,2.44-3.95.99-1.09,2.21-2.12,3.62-3.07.65-.43,1.33-.85,2.04-1.24.68-.37,1.4-.73,2.14-1.06,1.42-.64,2.92-1.19,4.47-1.66,3.07-.92,6.18-1.47,9.26-1.63.35-.02.72-.03,1.16-.04h.58s.58,0,.58,0c.83.01,1.59.04,2.31.07,1.67.09,3.15.26,4.51.52,1.65.32,3.02.74,4.18,1.28.68.32,1.28.68,1.78,1.08.55.44.99.93,1.32,1.46.04.06.08.13.12.21.03.05.06.1.08.16l.03.05s.05.1.07.16l.05.12.16.45.12.47.03.18c.12.6.15,1.26.11,1.96Z"/>
  </g>
</svg>