<?xml version="1.0" encoding="UTF-8"?>
<svg id="Capa_2" data-name="Capa 2" xmlns="http://www.w3.org/2000/svg" viewBox="0 0 225.96 179.24">
  <defs>
    <style>
      .cls-1 {
        fill-rule: evenodd;
      }
    </style>
  </defs>
  <g id="Capa_1-2" data-name="Capa 1">
    <path class="cls-1" d="m65.54,16.23v38.82H18.39c-4.88,0-9.56,1.94-13,5.39-3.45,3.45-5.39,8.13-5.39,13v87.41c0,4.88,1.94,9.56,5.39,13,3.45,3.45,8.13,5.39,13,5.39h189.18c4.88,0,9.55-1.94,13-5.39,3.45-3.45,5.39-8.13,5.39-13v-87.41c0-4.88-1.94-9.56-5.39-13-3.45-3.45-8.13-5.39-13-5.39h-47.15V16.23c0-4.3-1.71-8.43-4.75-11.48-3.04-3.04-7.17-4.75-11.48-4.75h-62.42c-4.3,0-8.43,1.71-11.48,4.75-3.04,3.04-4.75,7.17-4.75,11.48h0Zm135.55,46.61h6.48c2.81,0,5.51,1.12,7.49,3.1,1.99,1.99,3.1,4.68,3.1,7.5v87.41c0,2.81-1.12,5.51-3.1,7.49-1.99,1.99-4.68,3.1-7.49,3.1h-6.48V62.83h0Zm-25.47,108.61h17.68V62.83H33.43v108.61h17.68v-62.49c0-9.06,7.34-16.4,16.4-16.4h91.7c9.06,0,16.4,7.34,16.4,16.4v62.49h0Zm-7.79,0v-62.49c0-4.75-3.85-8.61-8.61-8.61h-91.7c-4.75,0-8.61,3.85-8.61,8.61v62.49h108.92ZM25.64,62.83v108.61h-7.25c-2.81,0-5.51-1.12-7.49-3.1-1.99-1.99-3.1-4.68-3.1-7.49v-87.41c0-2.81,1.12-5.51,3.1-7.5,1.99-1.99,4.68-3.1,7.49-3.1h7.25Zm48.42,58.67h78.6c2.15,0,3.9-1.74,3.9-3.89s-1.75-3.9-3.9-3.9h-78.6c-2.15,0-3.9,1.75-3.9,3.9s1.75,3.89,3.9,3.89h0Zm-.73-90.22v23.76h79.29v-23.76h-79.29Zm79.29-7.79v-7.26c0-2.24-.89-4.38-2.47-5.96-1.58-1.58-3.73-2.47-5.96-2.47h-62.42c-2.24,0-4.38.89-5.97,2.47-1.58,1.58-2.47,3.73-2.47,5.97v7.26h79.29Z"/>
  </g>
</svg>