<?xml version="1.0" encoding="UTF-8"?>
<svg id="Capa_2" data-name="Capa 2" xmlns="http://www.w3.org/2000/svg" viewBox="0 0 47.29 42.68">
  <defs>
    <style>
      .cls-1 {
        fill: #2d3540;
      }
    </style>
  </defs>
  <g id="Layer_1" data-name="Layer 1">
    <g>
      <path class="cls-1" d="m47.19,14.85c-.07-.48-.77-5.25-3.26-7.01-.39-.27-1.68-1.2-2.88-2.85-.13-.18-.25-.38-.37-.62-.59-1.2-.34-2.33-.06-3.19.2-.62-.29-1.24-.94-1.19l-3.29.24c-.22.02-.35.24-.26.44.53,1.16,2.32,4.64,1.9,6.64-.16.78-.55.73-1.25,2.14-.93,1.86-1.04,3.5-1.11,4.06-.55,4.33-7.53,10.16-8.19,10.69-4.71,3.87-11.22,7.15-12.39,7.74,0,0-2.84,1.43-5.53,4.57-1.43,1.67-1.79,2.66-1.55,3.47.11.36.43,1.04,2.14,1.77,2.71,1.17,5.31.93,6.34.81,2.29-.26,5.99-.95,10.47-3.02,5.07-2.29,8.69-5.08,11.06-7.23,2.4-2.18,4.99-4.6,7.01-8.63,1.26-2.53,2.64-5.29,2.16-8.85Z"/>
      <path class="cls-1" d="m9.14,36.17c2.73-3.19,5.58-4.65,5.7-4.71,4.85-2.44,9.33-5.24,12.29-7.68.95-.78,2.15-1.86,3.32-3.07-2.99,1.8-6.32,3.02-6.8,3.2-5.73,2.06-12.97,2.96-14.27,3.12,0,0-3.16.39-6.75,2.44C.72,30.57.05,31.38,0,32.22c-.02.37.06,1.12,1.42,2.39,2.16,2.01,4.68,2.66,5.7,2.9.27.06.57.13.89.19.28-.46.66-.96,1.14-1.53Z"/>
    </g>
  </g>
</svg>