<?xml version="1.0" encoding="UTF-8"?>
<svg id="Capa_2" data-name="Capa 2" xmlns="http://www.w3.org/2000/svg" viewBox="0 0 67 37.58">
  <defs>
    <style>
      .cls-1 {
        fill: #3fc1c9;
      }
    </style>
  </defs>
  <g id="Layer_1" data-name="Layer 1">
    <path class="cls-1" d="m.17,12.47c-.14.56-.19,1.16-.16,1.74.02.33.07.66.14.98h-.04s.04.01.04.01c.24,1.05.73,2.01,1.4,2.64,4.17,3.95,9.57,7.62,17.66,9.72l37.74,9.87c2.07.55,4.27-.5,5.28-2.52.92-1.84,1.27-3.93.99-5.97l-.09-.63c1.36-1.45,2.26-3.3,2.59-5.29l1.17-7.11c.53-3.24-.63-6.49-3.03-8.52l-2.3,1.38c-2.91,1.74-6.33,2.26-9.52,1.42-2.99-.78-5.57-2.67-7.26-5.33l-.43-.67-1.54.59-1.91-3.54c-.6-1.11-1.93-1.57-3.07-1.03l-7.57,3.5-3.78,1.1c-4.97,1.45-10.04,2.41-15.15,2.88l-6.38.58c-2.25.21-4.17,1.89-4.77,4.18Zm43.48,15.48c.28-1.08,1.39-1.72,2.47-1.44.52.14,9.97,2.61,10.49,2.75,1.08.28,1.73,1.39,1.44,2.46-.28,1.08-1.39,1.74-2.47,1.45-.52-.14-9.97-2.6-10.49-2.74-1.08-.28-1.72-1.39-1.45-2.47Zm-9.89-21.06c.26-1.02,1.31-1.63,2.32-1.36,1.02.26,1.63,1.31,1.37,2.33-.26,1.01-1.31,1.62-2.33,1.36-1.01-.26-1.62-1.31-1.35-2.32Zm-6.05,1.67c.27-1.05,1.34-1.67,2.39-1.4,1.05.27,1.67,1.34,1.4,2.39-.27,1.05-1.34,1.67-2.39,1.4-1.05-.27-1.67-1.34-1.4-2.39Zm-6.29,1.62c.28-1.08,1.39-1.72,2.47-1.45,1.07.28,1.72,1.38,1.43,2.46-.28,1.08-1.38,1.73-2.46,1.44-1.08-.28-1.72-1.38-1.44-2.46Z"/>
  </g>
</svg>