<?xml version="1.0" encoding="UTF-8"?>
<svg id="Capa_2" data-name="Capa 2" xmlns="http://www.w3.org/2000/svg" viewBox="0 0 576.51 319.93">
  <g id="Layer_1" data-name="Layer 1">
    <g>
      <path d="m36.65,13.26c0-1.22-.99-2.21-2.21-2.21s-2.21.99-2.21,2.21.99,2.21,2.21,2.21,2.21-.99,2.21-2.21Z"/>
      <path d="m104.67,13.26c0,1.22.99,2.21,2.21,2.21s2.21-.99,2.21-2.21-.99-2.21-2.21-2.21-2.21.99-2.21,2.21Z"/>
      <path d="m544.68,0h-77.68c-5.41,0-10.08,3.29-12.14,7.96H121.65c-2.06-4.67-6.73-7.96-12.14-7.96H31.82c-5.41,0-10.08,3.29-12.14,7.96H0v10.61h19.68c2.06,4.67,6.73,7.96,12.14,7.96h5.64v100.89h-21.07v181.89H3.56v10.61h107.49v-10.61h-18.8V81.88h3.41v-3.57h4.69c2.55,0,4.84-1.15,6.39-2.94l79.15,55.96c-.1.37-.17.75-.17,1.15,0,2.37,1.92,4.29,4.29,4.29.92,0,1.77-.29,2.47-.79l23.64,16.72-2.4,10.3c-.49,2.11.02,4.27,1.39,5.94,1.32,1.61,3.25,2.51,5.32,2.51.08,0,.16,0,.24,0l7.13-.25c2.74-.09,5.14-1.81,6.15-4.3-.71.01-1.44-.04-2.16-.17l-.25-.05-1.84-.41c-.51.55-1.23.9-2.02.93l-7.13.25c-.92.02-1.76-.35-2.33-1.05-.58-.7-.79-1.61-.58-2.49l2.06-8.88c.09.02.17.04.26.04.4,0,.79-.17,1.08-.48.05-.05.1-.1.14-.16.31-.44.35-.98.15-1.45-.1-.25-.28-.48-.51-.65l-.43-.31,2.75-11.81c.2-.88.8-1.6,1.62-1.98.38-.17.79-.26,1.19-.26.47,0,.93.12,1.36.34l6.29,3.37c1.15.62,1.75,1.93,1.45,3.2v.03s.96.22.96.22c5.89,1.21,9.73,7.04,8.51,12.98-.22,1.05-.59,2.04-1.07,2.94l10.86-2.43c1.1-.25,2.14-.72,3.04-1.39l3.85-2.87v45.07l-8.53,104.59c-.55,6.81,4.51,12.77,11.32,13.33,6.8.55,12.77-4.51,13.33-11.32l7.43-91.08h7l7.43,91.08c.55,6.81,6.52,11.87,13.33,11.32,6.8-.55,11.87-6.52,11.32-13.33l-8.53-104.59v-45.07l3.85,2.87c.9.67,1.94,1.15,3.04,1.39l10.86,2.43c-.49-.91-.86-1.89-1.07-2.94-1.22-5.94,2.61-11.77,8.51-12.98l.97-.22v-.03c-.3-1.27.29-2.59,1.44-3.2l6.29-3.37c.43-.23.9-.34,1.36-.34.41,0,.81.09,1.2.26.83.38,1.42,1.1,1.62,1.98l2.75,11.81-.43.31c-.24.17-.41.4-.51.65-.19.46-.15,1.01.16,1.44.04.06.09.11.14.16.29.31.68.48,1.08.48.09,0,.17-.02.26-.04l2.06,8.88c.21.88,0,1.79-.58,2.49-.58.7-1.42,1.09-2.33,1.05l-7.13-.25c-.79-.03-1.51-.38-2.02-.93l-1.84.41-.25.05c-.73.13-1.45.19-2.17.17,1.01,2.48,3.4,4.2,6.15,4.3l7.13.25c.08,0,.16,0,.24,0,2.07,0,4-.91,5.32-2.51,1.37-1.67,1.88-3.83,1.39-5.94l-2.4-10.3,23.64-16.72c.7.49,1.55.79,2.46.79,2.37,0,4.29-1.92,4.29-4.29,0-.4-.07-.78-.17-1.15l79.15-55.96c1.55,1.8,3.84,2.94,6.39,2.94h4.69v3.57h3.41v227.44h-18.8v10.61h107.49v-10.61h-12.82V127.42h-21.07V26.53h5.64c5.41,0,10.08-3.29,12.14-7.96h19.68V7.96h-19.68c-2.06-4.67-6.73-7.96-12.14-7.96Zm-75.06,7.77c3.03,0,5.49,2.46,5.49,5.49s-2.46,5.49-5.49,5.49-5.49-2.46-5.49-5.49,2.46-5.49,5.49-5.49ZM112.38,13.26c0,3.03-2.46,5.49-5.49,5.49s-5.49-2.46-5.49-5.49,2.46-5.49,5.49-5.49,5.49,2.46,5.49,5.49Zm-83.43,0c0-3.03,2.46-5.49,5.49-5.49s5.49,2.46,5.49,5.49-2.46,5.49-5.49,5.49-5.49-2.46-5.49-5.49Zm12.83,13.26h10.23v100.89h-10.23V26.53Zm39.87,282.79h-6.29V127.42h-12.74V26.53h19.03v31.29h-3.41v24.06h3.41v227.44Zm19.35-236.31c-1.74,0-3.16-1.41-3.16-3.16s1.41-3.16,3.16-3.16,3.16,1.41,3.16,3.16c0,0,0,0,0,0l-.17-.12c-.68-.48-1.61-.32-2.09.36-.48.68-.32,1.61.36,2.09l.45.32c-.49.32-1.07.5-1.7.5Zm374.51,0c-.63,0-1.21-.19-1.7-.5l.45-.32c.68-.48.84-1.41.36-2.09-.48-.68-1.41-.84-2.09-.36l-.17.12s0,0,0,0c0-1.74,1.41-3.16,3.16-3.16s3.16,1.41,3.16,3.16-1.41,3.16-3.16,3.16Zm.63-11.62c-4.65,0-8.46,3.81-8.46,8.46,0,1.03.2,2.02.54,2.93l-79.37,56.12c-.68-.45-1.49-.71-2.37-.71-2.37,0-4.29,1.92-4.29,4.29,0,.36.06.7.14,1.03l-22.69,16.04-2.38-10.22c-.49-2.11-1.9-3.82-3.87-4.72-1.97-.89-4.19-.82-6.1.2l-6.29,3.37c-2.7,1.45-4.11,4.52-3.48,7.51l-10.18-2.28-13.12-9.79c-.74-.55-1.55-.95-2.39-1.21-.29-.19-.59-.35-.9-.5-3.86,8.69-12.57,14.77-22.67,14.77s-18.82-6.08-22.67-14.77c-.31.15-.61.32-.9.5-.84.26-1.65.66-2.39,1.21l-13.12,9.79-10.18,2.28c.64-2.99-.78-6.06-3.48-7.51l-6.29-3.37c-1.91-1.02-4.13-1.09-6.1-.2-1.97.89-3.38,2.61-3.87,4.72l-2.38,10.22-22.69-16.04c.08-.33.14-.67.14-1.03,0-2.37-1.92-4.29-4.29-4.29-.87,0-1.69.26-2.37.71l-79.37-56.12c.34-.92.54-1.9.54-2.93,0-4.65-3.81-8.46-8.46-8.46h-4.69v-3.57h-3.41v-31.29h17.25c5.41,0,10.08-3.29,12.14-7.96h333.21c2.06,4.67,6.73,7.96,12.14,7.96h17.25v31.29h-3.41v3.57h-4.69Zm18.72,20.49h3.41v-24.06h-3.41v-31.29h19.03v100.89h-12.74v181.89h-6.29V81.88Zm39.87,45.54h-10.23V26.53h10.23v100.89Zm7.33-108.66c-3.03,0-5.49-2.46-5.49-5.49s2.46-5.49,5.49-5.49,5.49,2.46,5.49,5.49-2.46,5.49-5.49,5.49Z"/>
      <circle cx="542.06" cy="13.26" r="2.21"/>
      <circle cx="469.62" cy="13.26" r="2.21"/>
      <path d="m241.6,157.53c.89-4.33-1.89-8.56-6.22-9.45l-6.29-1.4c-4.34-.89-7.55,14.78-3.23,15.67l6.29,1.4c.06.01.12.02.19.04,4.26.77,8.38-1.99,9.26-6.26Z"/>
      <path d="m350.65,162.35c4.33-.89,1.11-16.56-3.23-15.67l-6.29,1.4c-4.33.89-7.11,5.12-6.22,9.45.88,4.27,5,7.03,9.26,6.26.06-.01.12-.02.19-.04l6.29-1.4Z"/>
      <circle cx="288.25" cy="121.87" r="22.5"/>
    </g>
  </g>
</svg>