<?xml version="1.0" encoding="UTF-8"?>
<svg id="Capa_2" data-name="Capa 2" xmlns="http://www.w3.org/2000/svg" viewBox="0 0 226 196.79">
  <defs>
    <style>
      .cls-1 {
        fill-rule: evenodd;
      }
    </style>
  </defs>
  <g id="Capa_1-2" data-name="Capa 1">
    <path class="cls-1" d="m63.71,53.56l-5.82-3.29c-1.87-1.06-4.25-.4-5.31,1.47-1.06,1.87-.4,4.25,1.47,5.31l5.87,3.32c-2.61,4.66-5.42,9.56-8.32,14.47l-6.23-3.52c-1.87-1.06-4.25-.4-5.31,1.47-1.06,1.87-.4,4.25,1.47,5.31l6.05,3.42c-3.2,5.25-6.46,10.39-9.67,15.13l-6.11-3.45c-1.87-1.06-4.25-.4-5.31,1.47-1.06,1.87-.4,4.25,1.47,5.31l5.46,3.09c-1.88,2.59-3.71,4.98-5.48,7.12-10.19,12.34-18.61,22.08-23.36,30.7-5.41,9.83-6.39,18.42-1.15,27.5,9.03,15.63,15.27,26.44,15.27,26.44,1.07,1.86,3.46,2.5,5.32,1.43l200-115.47c1.86-1.08,2.5-3.46,1.43-5.32,0,0-15.93-27.59-27.63-47.85-7.43-12.86-13.64-21.22-19.09-24.91-4.89-3.3-9.42-3.54-13.85-.99-7.78,4.49-42.99,24.82-42.99,24.82,0,0-7.89,4.22-20.32-1.25-6.97-3.06-12.31-2.91-16.19-1.78-6.47,1.88-9.26,6.62-9.26,6.62-.06.09-.11.19-.16.28,0,0-5,9.89-12.27,23.14h0Zm148.01,13.68l5.05,8.75L23.53,187.57l-5.05-8.75,193.25-111.57h0Zm-20.8-36.02c-5.51-9.53-10.15-16.39-14.38-20.31-2.86-2.65-5.26-3.88-7.75-2.44-7.78,4.49-42.99,24.82-42.99,24.82,0,0-10.64,6.48-27.35-.87-4.69-2.06-8.26-2.19-10.88-1.43-2.93.85-4.45,2.74-4.74,3.13-.74,1.45-5.58,10.91-12.36,23.25l15.51,8.77c1.87,1.06,2.53,3.44,1.47,5.31-1.06,1.87-3.44,2.53-5.31,1.47l-15.45-8.74c-2.61,4.65-5.42,9.55-8.32,14.47l15.1,8.54c1.87,1.06,2.53,3.44,1.47,5.31-1.06,1.87-3.44,2.53-5.31,1.47l-15.28-8.64c-3.19,5.23-6.44,10.37-9.64,15.14l15.19,8.59c1.87,1.06,2.53,3.44,1.47,5.31-1.06,1.87-3.44,2.53-5.31,1.47l-15.81-8.94c-2.16,3.01-4.27,5.78-6.29,8.23-9.81,11.87-17.97,21.2-22.55,29.5-3.91,7.1-5.01,13.29-1.22,19.84l4.37,7.57,114.41-66.05,3.95-24.26c1.94-11.91,9.13-22.33,19.59-28.36l38.4-22.17h0Zm3.9,6.75l-38.41,22.17c-8.43,4.87-14.22,13.26-15.79,22.87l-2.93,17.97,70.13-40.49-13-22.52h0Z"/>
  </g>
</svg>