<?xml version="1.0" encoding="UTF-8"?>
<svg id="Capa_2" data-name="Capa 2" xmlns="http://www.w3.org/2000/svg" viewBox="0 0 57.35 21.71">
  <defs>
    <style>
      .cls-1 {
        fill: #2d3540;
      }
    </style>
  </defs>
  <g id="Layer_1" data-name="Layer 1">
    <path class="cls-1" d="m57.35,9.03c-.12-4.16-6.44-5.85-9.51-6.72-6.17-1.74-12.77-2.3-19.17-2.3S15.68.55,9.51,2.3C6.4,3.19.15,4.88,0,9.03c-.07,1.96,1.55,3.24,3.04,4.22-.43.65-.65,1.36-.6,2.08.36,4.96,8.52,6.34,12.2,6.38,3.71.04,9.55-.88,11.24-4.92,1.92-.3,3.68-.28,5.59.03,1.66,4.03,7.58,4.93,11.23,4.89,3.61-.04,11.89-1.39,12.2-6.38.05-.73-.17-1.43-.59-2.08,1.49-.98,3.1-2.25,3.04-4.23ZM4.52,15.35c-.07-1.14.41-3.2,1.89-3.25.04,2.19.15,4.36.33,6.54-1.46-.09-2.15-2.09-2.22-3.28Zm47.79,0c-.07,1.27-.73,3.13-2.21,3.29.17-2.18.28-4.36.32-6.54,1.49.12,1.96,2.04,1.89,3.26Zm-.76-4.4c-2.58-1.37-5.62-1.84-8.43-1.85-3.6,0-8.26.74-10.84,3.71-2.47-.44-4.76-.45-7.23-.03-2.59-2.95-7.21-3.69-10.81-3.68-2.84,0-5.82.51-8.43,1.84-.8-.42-2.39-1.22-2.39-1.94,0-1.57,5.12-3.01,6.75-3.46,5.95-1.65,12.34-2.14,18.51-2.14,6.16,0,12.55.47,18.51,2.14,1.64.46,6.8,1.96,6.75,3.47-.02.72-1.52,1.48-2.39,1.94Z"/>
  </g>
</svg>