<?xml version="1.0" encoding="UTF-8"?>
<svg id="Capa_2" data-name="Capa 2" xmlns="http://www.w3.org/2000/svg" viewBox="0 0 241.42 234.73">
  <g id="Layer_1" data-name="Layer 1">
    <g>
      <path d="m5.52,6.48v218.25H0v10h21.03v-10h-5.52v-23.08h171.72c2.99,0,5.42,2.43,5.42,5.42v17.66h-5.52v10h21.03v-10h-5.52v-17.66c0-8.5-6.92-15.42-15.42-15.42h-122.14l14.15-27.04,1.4-2.67,37.76,23.8c3.29,2.08,10.86-9.87,7.57-11.95l-87.37-55.07c-3.29-2.08-7.68-1.1-9.76,2.19s-1.1,7.68,2.19,9.76l41.13,25.92-1.4,2.67-16.95,32.39H15.52V57.87h16.17l4.01-5.13-3.15-2.46-2.81,3.59h-10.29v-16.57h-3.94V6.48H5.52Z"/>
      <path d="m57.11,126.84c8.64.19,16.99-4.62,20.89-12.94,5.28-11.25.44-24.65-10.81-29.93-11.25-5.28-24.65-.44-29.93,10.81-3.16,6.74-2.69,14.24.61,20.32.8.26,1.59.6,2.33,1.08l16.91,10.66Z"/>
      <path d="m128.97,172.61c.91-.91,2.03-1.41,3.33-1.41h55.33c4.05,0,7.54,2.41,9.14,5.86h.14s20.46,49.61,20.46,49.61c1.99,4.82,6.65,7.74,11.56,7.74,1.59,0,3.2-.3,4.76-.95,6.38-2.63,9.42-9.94,6.79-16.32l-23.5-56.97c-1.85-4.49-6.14-7.5-11-7.72l-53.99-2.42c-1.09-.5-2.3-1.01-3.65-1.55-16.54-5.21-29.78-21.5-41.29-29.93-.07-.06-.15-.12-.22-.18v6.84c0,5.68-4.62,10.3-10.3,10.3s-10.3-4.62-10.3-10.3v-11.75c-1.91.71-3.6,1.83-4.9,3.43-4.61,5.67-6.12,15.72-.12,25.13l46.36,29.22c.58.37,1.04.82,1.4,1.36Z"/>
      <path d="m132.29,188.35h55.33c3.89,0,7.07-3.18,7.07-7.07h0c0-3.89-3.18-7.07-7.07-7.07h-55.33c-3.89,0-3.89,14.15,0,14.15Z"/>
      <path d="m88.54,125.22c0,4.42,3.58,8,8,8s8-3.58,8-8v-54.38c-2.58.57-5.25.87-8,.87s-5.42-.31-8-.87v54.38Z"/>
      <path d="m96.54,68.72c18.98,0,34.36-15.38,34.36-34.36S115.51,0,96.54,0s-34.36,15.38-34.36,34.36,15.38,34.36,34.36,34.36Zm-16.17-34.36c0-8.93,7.24-16.17,16.17-16.17s16.17,7.24,16.17,16.17-7.24,16.17-16.17,16.17-16.17-7.24-16.17-16.17Z"/>
      <circle cx="96.54" cy="34.36" r="8.21" transform="translate(3.98 78.32) rotate(-45)"/>
    </g>
  </g>
</svg>