<?xml version="1.0" encoding="UTF-8"?>
<svg id="Capa_2" data-name="Capa 2" xmlns="http://www.w3.org/2000/svg" viewBox="0 0 129.79 225.95">
  <defs>
    <style>
      .cls-1 {
        fill-rule: evenodd;
      }
    </style>
  </defs>
  <g id="Capa_1-2" data-name="Capa 1">
    <path class="cls-1" d="m23,48.08h-6.33c-9.21,0-16.67,7.47-16.67,16.67v96.44c0,9.21,7.46,16.67,16.67,16.67h6.33l4.66,37.82c.72,5.86,5.7,10.26,11.6,10.26h51.28c5.9,0,10.88-4.4,11.6-10.26l4.66-37.82h6.33c9.21,0,16.67-7.46,16.67-16.67v-96.44c0-9.21-7.47-16.67-16.67-16.67h-6.33l-4.66-37.82c-.72-5.86-5.7-10.26-11.6-10.26h-51.28c-5.9,0-10.88,4.4-11.6,10.26l-4.66,37.82h0Zm7.85,129.79l4.54,36.87c.24,1.95,1.9,3.42,3.87,3.42h51.28c1.97,0,3.62-1.47,3.87-3.42l4.54-36.87H30.85Zm91.15-113.12v96.45c0,4.91-3.98,8.88-8.88,8.88H16.67c-4.91,0-8.88-3.98-8.88-8.88v-96.44c0-4.91,3.98-8.88,8.88-8.88h96.45c4.91,0,8.88,3.98,8.88,8.88h0Zm-8.23,5.08c0-1.52-.6-2.97-1.68-4.05-1.07-1.07-2.53-1.68-4.05-1.68H21.75c-1.52,0-2.97.6-4.05,1.68-1.07,1.07-1.68,2.53-1.68,4.05v86.3c0,1.52.6,2.97,1.68,4.05,1.07,1.07,2.53,1.68,4.05,1.68h86.29c1.52,0,2.97-.6,4.05-1.68,1.07-1.07,1.68-2.53,1.68-4.05v-86.3h0ZM23.82,154.06h82.16v-82.16H23.82v82.16h0Zm17.94-33.89l20.39,20.39c.73.73,1.72,1.14,2.75,1.14s2.02-.41,2.75-1.14l20.3-20.3c7.12-7.12,7.12-18.69,0-25.81-6.27-6.27-15.97-7.02-23.06-2.27-7.09-4.75-16.79-4-23.05,2.27-7.1,7.1-7.12,18.6-.08,25.73h0Zm5.54-5.48c-4.03-4.09-4.01-10.67.05-14.74,4.08-4.08,10.71-4.08,14.79,0,1.52,1.52,3.99,1.52,5.51,0,4.08-4.08,10.71-4.08,14.79,0,4.08,4.08,4.08,10.71,0,14.79l-17.55,17.55-17.6-17.6h0Zm51.64-66.61l-4.54-36.87c-.24-1.95-1.9-3.42-3.87-3.42h-51.28c-1.97,0-3.62,1.47-3.87,3.42l-4.54,36.87h68.09Z"/>
  </g>
</svg>