<?xml version="1.0" encoding="UTF-8"?>
<svg id="Capa_2" data-name="Capa 2" xmlns="http://www.w3.org/2000/svg" viewBox="0 0 42.09 51.37">
  <defs>
    <style>
      .cls-1 {
        fill: #2d3540;
      }
    </style>
  </defs>
  <g id="Layer_1" data-name="Layer 1">
    <g>
      <path class="cls-1" d="m42.04,22.66c-.31-1.57-1.83-2.6-3.4-2.29l-7.94,1.55-3.01-7.46s0,0,0,0h0s0-.01,0-.01c-.02-.06-.05-.12-.08-.17,0-.01-.01-.03-.02-.04-.03-.06-.06-.11-.09-.17,0-.01-.01-.02-.02-.03-.03-.05-.06-.1-.09-.14,0,0-.01-.02-.02-.03-.04-.05-.07-.1-.11-.15-.01-.01-.02-.02-.03-.04-.04-.04-.07-.08-.11-.13,0,0-.01-.01-.02-.02-.04-.04-.09-.09-.13-.13-.02-.01-.03-.03-.05-.04-.03-.03-.07-.06-.1-.09-.03-.02-.05-.04-.08-.06-.03-.02-.06-.04-.09-.07-.03-.02-.06-.04-.09-.06-.02-.01-.03-.02-.05-.03-.11-.07-.23-.13-.36-.18h0s0,0,0,0c-.13-.05-.26-.1-.4-.14-.02,0-.04,0-.05-.01-.04-.01-.09-.02-.14-.03-.04,0-.09-.02-.13-.02-.02,0-.05,0-.07,0-.06,0-.11-.01-.17-.02,0,0-.01,0-.02,0-.07,0-.14,0-.22,0h0l-11.3.22c-1.14.02-2.16.71-2.61,1.76l-3.84,8.98c-.63,1.47.06,3.18,1.53,3.8,1.47.63,3.18-.06,3.8-1.53l3.1-7.26,4.94-.1-4.98,11.64-5.89,8.74-8.67,7.36c-1.22,1.04-1.37,2.87-.33,4.09.57.68,1.39,1.02,2.21,1.02.66,0,1.33-.23,1.87-.69l8.97-7.62c.2-.17.38-.37.53-.59l5.09-7.56,5.29,2.16-4.28,5.04c-1.04,1.22-.89,3.05.33,4.09,1.22,1.04,3.05.89,4.09-.33l6.87-8.09c.6-.71.83-1.66.61-2.56-.22-.9-.86-1.64-1.72-2l-8.49-3.47,2.85-6.67,1.3,3.22c.45,1.11,1.52,1.82,2.69,1.82.18,0,.37-.02.56-.05l10.29-2.01c1.57-.31,2.6-1.83,2.29-3.4Z"/>
      <path class="cls-1" d="m27.83,12.09c3.31.61,6.49-1.59,7.1-4.9.61-3.31-1.59-6.49-4.9-7.1s-6.49,1.59-7.1,4.9c-.61,3.31,1.59,6.49,4.9,7.1Z"/>
      <path class="cls-1" d="m11.17,5.78c.08-.02.17-.04.27-.06.1-.02.21-.06.33-.08.12-.03.24-.06.37-.1.25-.08.55-.15.85-.25.15-.04.31-.09.46-.14.16-.05.32-.09.48-.14.16-.05.32-.08.49-.13.08-.03.16-.04.24-.06.08-.02.16-.04.24-.06.32-.06.62-.1.87-.11.06,0,.13,0,.18,0,.06,0,.11,0,.16.02.02,0,.05,0,.07,0,.02,0,.04.01.06.02.05,0,.08.02.12.03.02,0,.04.01.05.02h.03s0,0,0,0c.04.02.09.04.13.07h.02s0,.01,0,.01h0s0,0,0,0c0,0,0,0,.01,0,0,0,0,0,.01,0,0,0,0,0,0,0h.02s.05.05.08.06h.02s.02.03.02.03l.05.03s.06.04.09.07c.26.2.6.49,1,.77.4.28.89.54,1.38.66.06.01.12.03.18.04.06.01.12.03.18.03.12.02.24.03.35.04.12,0,.23,0,.34,0h.04s.02,0,.02,0h.01s0,0,0,0c.05,0,.02,0,.03,0h.06s.09-.02.13-.03c.11-.02.22-.03.31-.05.09-.02.18-.05.27-.08.17-.06.33-.13.47-.2.28-.15.5-.31.66-.47.08-.07.15-.15.21-.21.06-.06.11-.12.14-.17.07-.09.11-.15.11-.15,0,0-.06-.01-.17-.03-.05,0-.12-.02-.2-.03-.08-.02-.17-.03-.26-.05-.1-.02-.2-.04-.31-.07-.05-.02-.11-.03-.17-.05-.06-.02-.11-.03-.17-.05-.11-.04-.23-.09-.35-.14-.11-.05-.24-.11-.32-.17h0s-.01-.01-.01-.01h-.03s-.06-.04-.06-.04l-.06-.03s-.03,0,.02,0h0s0,0,0,0h-.01s-.02-.02-.02-.02c-.05-.04-.11-.07-.16-.11-.05-.04-.1-.08-.15-.12-.05-.04-.09-.09-.14-.13-.18-.18-.34-.38-.55-.64-.21-.26-.45-.59-.82-.97-.04-.05-.1-.1-.15-.14l-.08-.07-.04-.04-.04-.04c-.06-.05-.12-.1-.18-.14l-.05-.04s-.04-.03-.06-.04l-.12-.08-.12-.08-.06-.04-.03-.02h-.02s-.09-.06-.14-.09l-.04-.02h0s0,0,0,0l-.07-.04h-.03s-.12-.06-.12-.06c-.08-.03-.16-.07-.25-.09-.17-.05-.33-.1-.5-.12-.08-.01-.17-.03-.25-.04h-.24s-.12-.02-.12-.02c-.04,0-.08,0-.12,0l-.23.02c-.16,0-.3.04-.44.06-.57.12-1.06.33-1.48.57-.11.06-.2.13-.3.19-.1.06-.2.13-.28.2-.09.07-.18.14-.26.21-.04.03-.08.07-.13.1-.04.04-.08.07-.12.11-.08.07-.15.14-.23.22-.04.04-.07.07-.11.11-.03.04-.07.07-.1.11-.13.15-.26.29-.37.43-.22.29-.41.56-.57.82-.08.13-.15.25-.21.37-.06.11-.11.22-.16.32-.04.1-.08.19-.12.27-.03.08-.06.15-.08.2-.04.11-.06.18-.06.18,0,0,.06,0,.18-.03.06,0,.13-.02.2-.04Z"/>
    </g>
  </g>
</svg>