<?xml version="1.0" encoding="UTF-8"?>
<svg id="Capa_2" data-name="Capa 2" xmlns="http://www.w3.org/2000/svg" viewBox="0 0 225.96 99.85">
  <defs>
    <style>
      .cls-1 {
        fill-rule: evenodd;
      }
    </style>
  </defs>
  <g id="Capa_1-2" data-name="Capa 1">
    <path class="cls-1" d="m19.97,35.98H3.9c-2.15,0-3.9,1.74-3.9,3.9v20.11c0,2.15,1.74,3.9,3.9,3.9h16.08v32.08c0,2.15,1.75,3.9,3.9,3.9h31.31c2.15,0,3.9-1.74,3.9-3.9v-32.08h107.8v32.08c0,2.15,1.74,3.9,3.9,3.9h31.31c2.15,0,3.89-1.74,3.89-3.9v-32.08h16.08c2.15,0,3.9-1.74,3.9-3.9v-20.11c0-2.15-1.74-3.9-3.9-3.9h-16.08V3.9c0-2.15-1.74-3.9-3.89-3.9h-31.31c-2.15,0-3.9,1.74-3.9,3.9v32.08H59.08V3.9c0-2.15-1.74-3.9-3.9-3.9h-31.31c-2.15,0-3.9,1.74-3.9,3.9v32.08h0Zm7.79,56.08V7.79h23.52v84.27h-23.52Zm146.9,0V7.79h23.52v84.27h-23.52Zm31.31-35.98h12.18v-12.32h-12.18v12.32h0ZM19.97,43.77H7.79v12.32h12.18v-12.32h0Zm39.11,0v12.32h107.8v-12.32H59.08Z"/>
  </g>
</svg>