<?xml version="1.0" encoding="UTF-8"?>
<svg id="Capa_2" data-name="Capa 2" xmlns="http://www.w3.org/2000/svg" viewBox="0 0 56.21 68.92">
  <defs>
    <style>
      .cls-1 {
        fill: #2d3540;
      }
    </style>
  </defs>
  <g id="Layer_1" data-name="Layer 1">
    <g>
      <path class="cls-1" d="m28.1,19.88c3.37,0,6.1-2.73,6.1-6.1s-2.73-6.1-6.1-6.1-6.1,2.73-6.1,6.1,2.73,6.1,6.1,6.1Z"/>
      <path class="cls-1" d="m54.44,2.54h-3.33v-.89c0-.91-.74-1.66-1.66-1.66s-1.66.74-1.66,1.66v.89h-2.99c-.41-.54-1.01-.93-1.72-1.08-1.12-.23-2.22.23-2.88,1.08H15.99c-.65-.85-1.76-1.3-2.88-1.08-.71.14-1.31.54-1.72,1.08h-2.99v-.89c0-.91-.74-1.66-1.66-1.66s-1.66.74-1.66,1.66v.89H1.76c-.97,0-1.76.79-1.76,1.76s.79,1.76,1.76,1.76h3.33v61.19c0,.91.74,1.66,1.66,1.66s1.66-.74,1.66-1.66V6.07h2.69l2.83,13.94c.17.83.69,1.55,1.44,1.96l8.6,4.77v13.97l-10.48,16.55c-.86,1.35-.45,3.14.9,4,.48.3,1.02.45,1.55.45.96,0,1.9-.48,2.45-1.35l9.73-15.36,9.73,15.36c.55.87,1.49,1.35,2.45,1.35.53,0,1.07-.15,1.55-.45,1.35-.86,1.75-2.65.9-4l-10.48-16.55v-13.97l8.6-4.77c.74-.41,1.27-1.13,1.44-1.96l2.83-13.94h2.69v61.19c0,.91.74,1.66,1.66,1.66s1.66-.74,1.66-1.66V6.07h3.33c.97,0,1.76-.79,1.76-1.76s-.79-1.76-1.76-1.76Zm-17.57,15l-6.41,3.55c-.07,0-.14,0-.21,0h-4.27c-.07,0-.14,0-.21,0l-6.41-3.55-2.33-11.47h22.19l-2.33,11.47Z"/>
    </g>
  </g>
</svg>