<?xml version="1.0" encoding="UTF-8"?>
<svg id="Capa_2" data-name="Capa 2" xmlns="http://www.w3.org/2000/svg" viewBox="0 0 42.44 71.17">
  <defs>
    <style>
      .cls-1 {
        fill: #2d3540;
      }
    </style>
  </defs>
  <g id="Layer_1" data-name="Layer 1">
    <g>
      <path class="cls-1" d="m41.05,14.48c-.9-.15-1.76.46-1.91,1.36-.08.45-.98,5.68-1.52,8.76-.25,1.41-1.36,2.54-2.77,2.81-.59.11-1.19.07-1.76-.12-.87-.29-1.81.17-2.1,1.04-.29.87.17,1.81,1.04,2.1.28.1.57.17.87.23l-6.22,22.88-4.84-2.45,1.21-3.94c.1-.32.14-.65.12-.98l4.08-3.13c1.22-.93,1.73-2.49,1.31-3.96-.42-1.47-1.68-2.52-3.21-2.66l-15.13-1.43c.1-2.6.57-5.16,1.4-7.64.99-2.97,1.8-4.76,2.57-6.03,2.5,2.17,6.71,5.27,11.61,5.87.62.08,1.23.11,1.83.11,3.36,0,6.22-1.06,7.55-1.56l.1-.04c1.5-.56,2.27-2.22,1.71-3.72-.56-1.5-2.22-2.27-3.72-1.71l-.1.04c-1.18.44-3.94,1.46-6.66,1.13-4.34-.53-8.43-4.37-9.97-5.82-.6-.56-.94-.88-1.38-1.11-.01,0-.02-.01-.03-.02-.02,0-.04-.02-.06-.03-.07-.03-.14-.07-.22-.09,0,0,0,0,0,0-.04-.02-.08-.03-.12-.04,0,0-.02,0-.03,0-.03-.01-.07-.02-.1-.03-.02,0-.04,0-.05-.01-.03,0-.05-.01-.08-.02-.03,0-.05-.01-.08-.02-.02,0-.03,0-.05-.01-.03,0-.07-.01-.1-.02-.01,0-.02,0-.03,0-.04,0-.08,0-.11-.01,0,0-.01,0-.02,0-.04,0-.08,0-.13,0,0,0,0,0,0,0-.04,0-.09,0-.13,0h0s-.09,0-.13,0c0,0,0,0-.01,0-.04,0-.08,0-.12,0,0,0-.02,0-.03,0-.04,0-.07,0-.11.01-.01,0-.03,0-.04,0-.03,0-.06,0-.09.02-.02,0-.04,0-.06.01-.02,0-.05,0-.07.02-.03,0-.05.01-.08.02-.02,0-.03,0-.05.01-.03,0-.06.02-.09.03-.01,0-.02,0-.03.01-.04.01-.07.02-.1.04,0,0-.01,0-.02,0-.04.01-.07.03-.11.05,0,0-.01,0-.02,0-.04.02-.07.03-.11.05,0,0-.01,0-.02,0-.03.02-.07.04-.1.05h-.02s-.06.05-.09.07c-.01,0-.02.01-.03.02-.03.02-.05.03-.08.05-.02.01-.03.02-.05.03-.02.01-.04.03-.06.04-.02.02-.05.03-.07.05-.01.01-.03.02-.04.03-.03.02-.06.05-.08.07,0,0-.01.01-.02.02-.03.03-.07.06-.1.09,0,0,0,0,0,0-.05.05-.1.1-.14.15-2.04,2.26-3.6,4.69-5.49,10.36-1.32,3.95-1.88,8.08-1.68,12.26,0,0,0,0,0,0,0,.07,0,.14.02.21,0,0,0,0,0,.01.02.14.05.28.08.41,0,0,0,0,0,0,.04.13.08.26.14.39,0,0,0,.01,0,.02.05.12.12.24.19.35,0,.01.01.02.02.03.03.05.07.1.11.15,0,0,0,0,0,0,.04.05.08.1.12.15,0,.01.02.02.03.03.04.05.08.09.13.14,0,0,0,0,0,0,.05.04.09.09.14.13,0,0,.02.02.03.02.1.09.21.17.32.24,0,0,.01,0,.02,0,.12.07.24.14.38.2h0c.07.03.14.06.21.08,1.47.51,2.76,1.07,3.9,1.63-.12-.03-.24-.04-.36-.04H2.5c-.91,0-1.66.74-1.66,1.66s.74,1.66,1.66,1.66h2.88l1.23,3.2c-3.91,1.92-6.62,6.03-6.62,10.78,0,6.59,5.21,11.94,11.62,11.94h15.71c4.4,0,7.98-3.67,7.98-8.19,0-3.17-1.8-6.07-4.6-7.41-.01,0-.02-.01-.03-.02l-.99-.5,6.7-24.64c2.31-.79,4.07-2.8,4.49-5.25.65-3.76,1.45-8.33,1.52-8.77.15-.9-.46-1.76-1.36-1.91ZM8.94,45.25h.97c.91,0,1.66-.74,1.66-1.66,0-.5-.22-.94-.57-1.24,1.8.95,3.15,1.89,4.11,2.67l-2.97,2.27c-.17,0-.35-.01-.53-.01-.63,0-1.24.05-1.84.15l-.84-2.18Zm23.06,17.73c0,2.69-2.09,4.87-4.67,4.87h-15.71c-4.58,0-8.31-3.87-8.31-8.63,0-4.44,3.25-8.11,7.41-8.58.1.36.26.7.5,1.01.57.74,1.43,1.14,2.3,1.14.62,0,1.24-.2,1.76-.6l.19-.15-2.96,9.67c-.47,1.53.39,3.15,1.92,3.62.28.09.57.13.85.13,1.24,0,2.39-.8,2.77-2.05l2.79-9.12,6.13,3.1s0,0,.01,0l2.12,1.07s.08.04.12.06c1.68.78,2.77,2.53,2.77,4.45Z"/>
      <path class="cls-1" d="m16.49,12.33c3.08,2.09,7.28,1.29,9.37-1.8,2.09-3.08,1.29-7.28-1.8-9.37-3.08-2.09-7.28-1.29-9.37,1.8-2.09,3.08-1.29,7.28,1.8,9.37Z"/>
      <path class="cls-1" d="m7.86,59.23c0-.94.28-1.84.82-2.6.53-.75.35-1.78-.4-2.31-.75-.53-1.78-.35-2.31.4-.93,1.32-1.42,2.88-1.42,4.5,0,2.15.85,4.15,2.39,5.64.32.31.74.47,1.15.47s.87-.17,1.19-.51c.64-.66.62-1.71-.04-2.34-.89-.86-1.38-2.02-1.38-3.26Z"/>
      <path class="cls-1" d="m28.02,59.6c-.78-.48-1.8-.25-2.28.53-.48.78-.25,1.8.53,2.28.05.03.22.15.22.39,0,.25-.2.46-.46.46-.91,0-1.66.74-1.66,1.66s.74,1.66,1.66,1.66c2.08,0,3.77-1.69,3.77-3.77,0-1.31-.66-2.5-1.77-3.2Z"/>
    </g>
  </g>
</svg>