<?xml version="1.0" encoding="UTF-8"?>
<svg id="Capa_2" data-name="Capa 2" xmlns="http://www.w3.org/2000/svg" viewBox="0 0 56.69 38.69">
  <defs>
    <style>
      .cls-1 {
        fill: #2d3540;
      }
    </style>
  </defs>
  <g id="Layer_1" data-name="Layer 1">
    <g>
      <path class="cls-1" d="m55.83,20.99h-19.61c-.17.19-.34.38-.52.56l-14.06,14.06c-1.39,1.39-3.04,2.43-4.83,3.07h21.15c1.43,0,2.81-.57,3.82-1.58l14.66-14.66c.54-.54.16-1.46-.6-1.46Z"/>
      <path class="cls-1" d="m25.81,26.88c.17,1.67-.2,3.13-.92,4.39l9.89-9.89c2.56-2.95,4.32-6.58,3.89-9.57-.14-.97-.5-2-1.02-3.05C34.92,4.1,29.21-.41,24.71.03c-.14.01-.29.03-.43.06-.03,0-.06.01-.1.02-.08.01-.17.03-.25.05-.1.02-.2.04-.3.06-1.53.36-3.17,1.17-4.77,2.26-.41.32-.81.67-1.19,1.04L3.61,17.58c-.22.22-.42.44-.62.67,2.67-2.4,5.74-4.14,8.32-4.39,5.92-.58,13.94,7.4,14.5,13.02Z"/>
      <path class="cls-1" d="m21.53,34.63c-2.49,1.6-5.62,2.46-8.14,2.62-3.72.23-8.07-3.78-8.4-7.58-.32-3.62,3.22-7.77,6.78-8.06,1.82-.15,3.82.98,5.19,2.15,1.15.98,2.09,2.86,2.03,4.36-.08,1.62-1.54,3.45-2.9,4.24-1.16.67-2.28.95-3.26.78-1.1-.19-2.11-.86-2.76-1.75-.54-.73-.77-1.54-.62-2.3.15-.78.7-1.59,1.44-2.08.57-.38,1.22-.57,1.8-.4.95.27,1.74,1.29,1.75,2.31,0,.3-.28.56-.6.58-.32.02-.57-.19-.57-.47,0-.53-.45-1.13-.93-1.25-.35-.09-.69.07-.91.21-.48.32-.86.85-.96,1.34-.09.46.06.98.42,1.47.48.65,1.24,1.14,2,1.25.66.09,1.4-.11,2.19-.62,1.06-.7,1.98-1.96,2.06-3.15.08-1.12-.49-2.25-1.45-3.13-1.09-1-2.57-1.77-3.88-1.63-2.7.27-5.44,3.35-5.14,6.17.32,3.07,3.51,6.04,6.54,5.94,2.21-.07,4.22-.67,6.13-1.91,2.08-1.35,3.95-3.78,3.62-6.41-.6-4.86-6.19-11.11-11.55-10.5-4.48.51-9.84,5.3-11.39,10.14.14,2.97,1.34,5.89,3.61,8.16,4.83,4.83,12.66,4.83,17.48,0l.43-.43Z"/>
    </g>
  </g>
</svg>