<?xml version="1.0" encoding="UTF-8"?>
<svg id="Capa_2" data-name="Capa 2" xmlns="http://www.w3.org/2000/svg" viewBox="0 0 225.96 225.96">
  <defs>
    <style>
      .cls-1 {
        fill-rule: evenodd;
      }
    </style>
  </defs>
  <g id="Capa_1-2" data-name="Capa 1">
    <path class="cls-1" d="m112.98,0C50.62,0,0,50.62,0,112.98s50.62,112.98,112.98,112.98,112.98-50.62,112.98-112.98S175.33,0,112.98,0h0Zm77.07,41.42l-20.61,20.61c9.94,10.14,16.07,24.04,16.07,39.37v2.12c0,4.26-2.49,7.94-6.09,9.66v12.78c1.18.7,1.77,1.19,1.77,1.19,1.68,1.35,1.94,3.8.6,5.48-.62.77-1.47,1.24-2.37,1.4v7.62c1.39.36,2.67,1.09,3.71,2.12,1.53,1.53,2.39,3.6,2.39,5.76v.02h0c0,8.3-3.29,16.25-9.16,22.12-5.87,5.86-13.82,9.16-22.12,9.16h-82.5c-5.85,0-11.53-1.64-16.42-4.66l-13.88,13.88c18.78,17.44,43.93,28.12,71.56,28.12,58.05,0,105.19-47.13,105.19-105.19,0-27.63-10.67-52.78-28.12-71.56h0Zm-5.51-5.51c-18.78-17.44-43.93-28.12-71.56-28.12C54.92,7.79,7.79,54.92,7.79,112.98c0,27.63,10.67,52.78,28.12,71.56l13.29-13.29c-5.61-5.82-8.75-13.6-8.75-21.7v-.02c0-2.16.86-4.23,2.39-5.76,1.03-1.03,2.32-1.76,3.71-2.12v-7.62c-1.03-.18-1.98-.77-2.59-1.71-1.18-1.8-.67-4.22,1.13-5.39,0,0,.5-.34,1.46-.84v-12.91c-3.6-1.72-6.09-5.4-6.09-9.66v-2.12c0-31.07,25.19-56.26,56.26-56.26h32.54c12.94,0,24.85,4.37,34.36,11.71l20.93-20.93h0Zm-102.24,113.26h95.06c.09,0,.19.04.25.1.07.07.1.16.1.25v.02c0,6.23-2.47,12.2-6.88,16.61s-10.38,6.88-16.61,6.88h-82.5c-3.76,0-7.42-.9-10.71-2.58l21.28-21.28h0Zm-11.02,0l-16.57,16.57c-4.15-4.36-6.47-10.16-6.47-16.19v-.02c0-.09.04-.19.11-.25.07-.07.16-.1.25-.1h22.68Zm15.22-15.22c-4.43-.37-7.18-1.45-9.93-2.53-2.66-1.05-5.31-2.12-10.41-2.12s-8.93.94-11.82,1.92v10.16h24.74l7.43-7.43h0Zm85.12-3c-2.5-.87-6-1.65-10.45-1.65-5.1,0-7.75,1.06-10.37,2.11-3.36,1.34-6.69,2.67-13.09,2.67s-9.75-1.33-13.06-2.68c-2.56-1.04-5.08-2.1-9.94-2.1s-7.94,1.1-10.95,2.17c-1.71.61-3.44,1.21-5.44,1.69l-8.23,8.23h81.53v-10.43h0Zm-77.13-4.99l11.74-11.74h-51.9v8.86c3.23-.88,7.22-1.56,11.82-1.56,6.51,0,9.9,1.32,13.28,2.66,2.66,1.05,5.31,2.12,10.42,2.12,1.77,0,3.29-.13,4.65-.33h0Zm77.13-3.16v-8.59h-54.36l-7.63,7.63c1.5-.21,3.17-.33,5.08-.33,6.29,0,9.57,1.33,12.88,2.68,2.56,1.04,5.15,2.1,10.12,2.1s7.58-1.07,10.2-2.11c3.36-1.34,6.75-2.67,13.27-2.67,4.11,0,7.6.54,10.45,1.29h0Zm-13.58-60.39l-44.01,44.01h-62.88c-1.61,0-2.91-1.3-2.91-2.91v-2.12c0-26.77,21.7-48.47,48.47-48.47h32.54c10.78,0,20.74,3.52,28.79,9.48h0Zm5.89,5.13c8.53,8.73,13.79,20.68,13.79,33.86v2.12c0,1.6-1.3,2.91-2.91,2.91h-49.76l38.88-38.88h0Zm-37.57,4.07v5.05c0,2.15,1.75,3.9,3.9,3.9s3.9-1.74,3.9-3.9v-5.05c0-2.15-1.75-3.9-3.9-3.9s-3.9,1.75-3.9,3.9h0Zm-17.28,0v5.05c0,2.15,1.75,3.9,3.9,3.9s3.9-1.74,3.9-3.9v-5.05c0-2.15-1.75-3.9-3.9-3.9s-3.9,1.75-3.9,3.9h0Zm-17.28,0v5.05c0,2.15,1.75,3.9,3.9,3.9s3.9-1.74,3.9-3.9v-5.05c0-2.15-1.75-3.9-3.9-3.9s-3.9,1.75-3.9,3.9h0Z"/>
  </g>
</svg>