<?xml version="1.0" encoding="UTF-8"?>
<svg id="Capa_2" data-name="Capa 2" xmlns="http://www.w3.org/2000/svg" viewBox="0 0 36.03 49.53">
  <defs>
    <style>
      .cls-1 {
        fill: #2d3540;
      }
    </style>
  </defs>
  <g id="Layer_1" data-name="Layer 1">
    <g>
      <g>
        <path class="cls-1" d="m2.4,49.15C.29,48.06.08,44.78.02,43.96c-.3-4.66,2.61-5.64,4.25-12.91.91-4.02.51-5.89-.29-7.21-.74-1.23-1.61-1.62-1.44-2.16.42-1.35,6.67-1.76,8.44.94.95,1.45.29,3.33-.22,5.05-3.5,11.93.07,18.78-4.18,21.2-1.21.69-2.92.94-4.18.29Z"/>
        <path class="cls-1" d="m33.63,49.15c2.11-1.09,2.33-4.37,2.38-5.19.3-4.66-2.61-5.64-4.25-12.91-.91-4.02-.51-5.89.29-7.21.74-1.23,1.61-1.62,1.44-2.16-.42-1.35-6.67-1.76-8.44.94-.95,1.45-.29,3.33.22,5.05,3.5,11.93-.07,18.78,4.18,21.2,1.21.69,2.92.94,4.18.29Z"/>
      </g>
      <g>
        <path class="cls-1" d="m8.44,11.84l-2.13,11.96,3.73.66,1.42-7.99c-1.4-1.22-2.46-2.82-3.02-4.64Z"/>
        <path class="cls-1" d="m26.86,7.78c-.56-4.38-4.32-7.78-8.85-7.78-4.92,0-8.92,4-8.92,8.92s4,8.92,8.92,8.92c2.02,0,3.88-.67,5.38-1.81l-.84-4.71c-.86,1.62-2.57,2.73-4.54,2.73-2.83,0-5.14-2.31-5.14-5.14s2.31-5.14,5.14-5.14c2.58,0,4.73,1.91,5.09,4.39.01.08.08.44.1.59.29,1.61,1.13,6.45,1.13,6.45h0l1.65,9.26,3.73-.66-2.85-16.03Z"/>
      </g>
    </g>
  </g>
</svg>