<?xml version="1.0" encoding="UTF-8"?>
<svg id="Capa_2" data-name="Capa 2" xmlns="http://www.w3.org/2000/svg" viewBox="0 0 56.93 46.97">
  <defs>
    <style>
      .cls-1 {
        fill: #3fc1c9;
      }
    </style>
  </defs>
  <g id="Layer_1" data-name="Layer 1">
    <path class="cls-1" d="m56.84,17.48c-.38-1.82-1.91-3.11-3.67-3.28l-1.36-6.45c-.47-2.24-2.68-3.68-4.92-3.2-1.01.21-1.86.78-2.44,1.55l-.59-2.8c-.47-2.24-2.68-3.68-4.92-3.2-2.24.47-3.68,2.68-3.2,4.92l2.56,12.15-21.47,4.53-2.56-12.15c-.47-2.24-2.68-3.68-4.92-3.2-2.24.47-3.68,2.68-3.2,4.92l.57,2.72c-.82-.42-1.78-.57-2.74-.37-2.24.47-3.68,2.68-3.2,4.92l1.36,6.45c-1.54.86-2.41,2.66-2.03,4.48.38,1.82,1.91,3.11,3.67,3.28l1.36,6.45c.47,2.24,2.68,3.68,4.92,3.2.97-.2,1.78-.73,2.36-1.44l.57,2.72c.47,2.24,2.68,3.68,4.92,3.2s3.68-2.68,3.2-4.92l-2.56-12.15,21.47-4.53,2.56,12.15c.47,2.24,2.68,3.68,4.92,3.2,2.24-.47,3.68-2.68,3.2-4.92l-.59-2.8c.84.46,1.85.64,2.86.43,2.24-.47,3.68-2.68,3.2-4.92l-1.36-6.45c1.54-.86,2.41-2.66,2.03-4.48Z"/>
  </g>
</svg>