<?xml version="1.0" encoding="UTF-8"?>
<svg id="Capa_2" data-name="Capa 2" xmlns="http://www.w3.org/2000/svg" viewBox="0 0 43.9 34.25">
  <defs>
    <style>
      .cls-1 {
        fill: #2d3540;
      }
    </style>
  </defs>
  <g id="Layer_1" data-name="Layer 1">
    <g>
      <path class="cls-1" d="m40.17,12.71h-.58v7.73c0,.46-.37.83-.83.83s-.83-.37-.83-.83v-7.73h-5.18v21.53h7.41c2.06,0,3.73-1.67,3.73-3.73v-14.08c0-2.06-1.67-3.73-3.73-3.73Z"/>
      <path class="cls-1" d="m5.96,20.45c0,.46-.37.83-.83.83s-.83-.37-.83-.83v-7.73h-.58c-2.06,0-3.73,1.67-3.73,3.73v14.08c0,2.06,1.67,3.73,3.73,3.73h7.41V12.71h-5.18v7.73Z"/>
      <path class="cls-1" d="m14.87,34.25h14.16V12.71h-14.16v21.53Zm2.91-16.47h8.34c.46,0,.83.37.83.83s-.37.83-.83.83h-8.34c-.46,0-.83-.37-.83-.83s.37-.83.83-.83Z"/>
      <path class="cls-1" d="m30.64,4.72c-.51-2.74-2.89-4.72-5.68-4.72h-5.87c-2.72,0-5.1,1.93-5.65,4.6l-1.33,6.38c-.1.47-.15.96-.15,1.45v21.82h2.07V12.43c0-.34.04-.69.11-1.03l1.33-6.38c.35-1.71,1.88-2.95,3.62-2.95h5.87c1.79,0,3.32,1.27,3.64,3.03l1.17,6.34c.06.3.08.61.08.92v21.89h2.07V12.36c0-.43-.04-.87-.12-1.29l-1.17-6.34Z"/>
    </g>
  </g>
</svg>