<?xml version="1.0" encoding="UTF-8"?>
<svg id="Capa_2" data-name="Capa 2" xmlns="http://www.w3.org/2000/svg" viewBox="0 0 44.56 39.75">
  <defs>
    <style>
      .cls-1 {
        fill: #2d3540;
      }
    </style>
  </defs>
  <g id="Layer_1" data-name="Layer 1">
    <path class="cls-1" d="m32.11,0c-3.81,0-7.34,1.71-9.69,4.63-.08.09-.22.09-.29,0C19.78,1.71,16.26,0,12.45,0,5.58,0,0,5.58,0,12.45c0,.71.06,1.42.18,2.11.13.87.31,1.73.54,2.57.57,2.11,1.39,3.93,2.37,5.58.13.22.37.36.63.36h3.49s8.4.02,8.4.02c.48,0,.9-.34,1.05-.79l1.21-3.72c.02-.05.09-.05.11,0l2.45,7.96c.14.45.55.77,1.03.78,0,0,.02,0,.03,0,.46,0,.88-.29,1.04-.73l1.79-5h7.47c.63,0,1.13-.52,1.1-1.15-.03-.59-.54-1.05-1.13-1.05h-8.21c-.46,0-.88.29-1.04.73l-.88,2.45c-.02.05-.09.05-.11,0l-2.5-8.13c-.14-.46-.56-.77-1.04-.78-.48,0-.91.3-1.06.76l-2.05,6.29c-.03.09-.11.14-.2.14H6.07c-.13,0-.26-.07-.32-.19-.55-1.07-1.01-2.24-1.36-3.54-.22-.82-.36-1.56-.45-2.14-.11-.63-.16-1.27-.14-1.94.12-5.5,4.74-9.9,10.24-9.77,3.38.08,6.34,1.83,8.1,4.46.07.11.24.11.31,0,1.75-2.63,4.72-4.38,8.1-4.46,5.5-.13,10.11,4.27,10.24,9.77.02.66-.04,1.31-.14,1.94-.09.59-.22,1.32-.45,2.14-1.33,4.92-4.3,8.02-7.22,10.89-2.29,2.24-5.79,5.24-10.68,7.98-4.89-2.74-8.39-5.74-10.68-7.98-.82-.8-1.64-1.63-2.43-2.5-.14-.15-.34-.24-.55-.24h-2.88c-.37,0-.57.43-.34.72,1.21,1.47,2.53,2.81,3.89,4.15,3.7,3.63,7.93,6.79,12.56,9.39l.42.23.42-.23c4.63-2.6,8.85-5.76,12.56-9.39,3.64-3.57,7.04-7.25,8.59-13,.23-.84.41-1.71.54-2.57.12-.7.18-1.41.18-2.11,0-6.86-5.58-12.45-12.45-12.45Z"/>
  </g>
</svg>