<?xml version="1.0" encoding="UTF-8"?>
<svg id="Capa_2" data-name="Capa 2" xmlns="http://www.w3.org/2000/svg" viewBox="0 0 17.67 59.21">
  <defs>
    <style>
      .cls-1 {
        fill: #2d3540;
      }
    </style>
  </defs>
  <g id="Layer_1" data-name="Layer 1">
    <path class="cls-1" d="m17.37,21.09c-.53-4.21-1.76-8.3-3.65-12.11-.33-.51-.65-1.02-.98-1.52-.11-.12-.97-1.24-.97-1.8,0-.13.12-.25.26-.36.19-.15.29-.37.29-.61V.87c0-.48-.39-.87-.87-.87h-5.25c-.48,0-.87.39-.87.87v3.82c0,.24.11.46.29.61.13.11.26.22.26.36,0,.55-.86,1.68-.97,1.8l-.98,1.52c-1.88,3.8-3.11,7.9-3.65,12.11-.2,1.58-.3,3.18-.3,4.78v26.14c0,1.93.43,3.84,1.25,5.59.33.71.94,1.27,1.69,1.5.27.08.54.12.8.12.72,0,1.42-.29,1.93-.8l1.23-1.23c.53-.53,1.23-.8,1.93-.8s1.4.27,1.93.8l1.23,1.23c.51.51,1.21.8,1.93.8.27,0,.54-.04.8-.12.75-.23,1.36-.79,1.69-1.5.82-1.75,1.25-3.66,1.25-5.59v-26.14c0-1.6-.1-3.19-.3-4.78ZM5.1,9.63l.28-.44.62-.97c.33-.4,1.17-1.53,1.21-2.5.43.09.97.16,1.59.16.65,0,1.21-.07,1.66-.16.07.38.18.91.5,1.46.26.45.55.84.71,1.04l.62.97.28.44c1.31,2.67,2.29,5.47,2.92,8.35H2.18c.63-2.89,1.61-5.69,2.92-8.35Zm11.25,42.37c0,1.73-.39,3.46-1.13,5.02-.18.39-.51.68-.88.79-.14.04-.28.06-.42.06-.38,0-.73-.15-.99-.41l-1.23-1.23c-.77-.77-1.79-1.19-2.87-1.19s-2.1.42-2.87,1.19l-1.23,1.23c-.27.27-.62.41-.99.41-.14,0-.28-.02-.42-.06-.37-.11-.69-.4-.88-.79-.74-1.56-1.13-3.3-1.13-5.02v-5.45h5.94c.46,0,.83-.37.83-.83s-.37-.83-.83-.83H1.33v-5.55h5.94c.46,0,.83-.37.83-.83s-.37-.83-.83-.83H1.33v-5.55h5.94c.46,0,.83-.37.83-.83s-.37-.83-.83-.83H1.33v-4.63c0-.31,0-.61.01-.92h5.93c.46,0,.83-.37.83-.83s-.37-.83-.83-.83H1.42c.05-.68.11-1.36.2-2.03.1-.82.24-1.63.39-2.44h13.66c.16.81.29,1.62.39,2.44.19,1.52.29,3.07.29,4.61v26.14Z"/>
  </g>
</svg>