<?xml version="1.0" encoding="UTF-8"?>
<svg id="Capa_2" data-name="Capa 2" xmlns="http://www.w3.org/2000/svg" viewBox="0 0 576.51 319.93">
  <g id="Layer_1" data-name="Layer 1">
    <g>
      <circle cx="288.25" cy="102.93" r="22.5"/>
      <circle cx="34.44" cy="13.26" r="2.21"/>
      <path d="m104.67,13.26c0,1.22.99,2.21,2.21,2.21s2.21-.99,2.21-2.21-.99-2.21-2.21-2.21-2.21.99-2.21,2.21Z"/>
      <path d="m433.07,116.94c2.37,0,4.29-1.92,4.29-4.29,0-.85-.25-1.64-.68-2.3l34.51-33.65c1.4,1.01,3.1,1.62,4.95,1.62h4.69v3.57h3.41v227.44h-18.8v10.61h107.49v-10.61h-12.82V127.42h-21.07V26.53h5.64c5.41,0,10.08-3.29,12.14-7.96h19.68V7.96h-19.68c-2.06-4.67-6.73-7.96-12.14-7.96h-77.68c-5.41,0-10.08,3.29-12.14,7.96H121.65c-2.06-4.67-6.73-7.96-12.14-7.96H31.82c-5.41,0-10.08,3.29-12.14,7.96H0v10.61h19.68c2.06,4.67,6.73,7.96,12.14,7.96h5.64v100.89h-21.07v181.89H3.56v10.61h107.49v-10.61h-18.8V81.88h3.41v-3.57h4.69c1.85,0,3.55-.61,4.95-1.62l34.51,33.65c-.43.67-.68,1.45-.68,2.3,0,2.37,1.92,4.29,4.29,4.29.89,0,1.72-.27,2.4-.73l14.87,14.5-2.69,11.55c-.49,2.11.02,4.27,1.39,5.94,1.32,1.61,3.25,2.51,5.31,2.51.08,0,.16,0,.25,0l7.13-.24h0c3.11-.11,5.77-2.3,6.48-5.33l.43-1.85c.28.1.57.19.86.26l44.97,10.61c.6.14,1.22.21,1.84.21.45,0,.91-.04,1.35-.12l33.17-5.7v50.9l-8.53,104.59c-.55,6.81,4.51,12.77,11.32,13.33,6.8.55,12.77-4.51,13.33-11.32l7.43-91.08h7l7.43,91.08c.55,6.81,6.52,11.87,13.33,11.32,6.8-.55,11.87-6.52,11.32-13.33l-8.53-104.59v-50.9l33.17,5.7c.45.08.9.12,1.35.12.62,0,1.23-.07,1.84-.21l44.97-10.61c.3-.07.58-.16.86-.26l.43,1.85c.71,3.03,3.37,5.22,6.48,5.33l7.13.24c.08,0,.16,0,.25,0,2.07,0,3.99-.91,5.31-2.51,1.37-1.67,1.88-3.83,1.39-5.94l-2.69-11.55,14.87-14.5c.69.46,1.51.73,2.4.73Zm42.44-43.93c-.27,0-.53-.04-.78-.11.12-.49.02-1.02-.36-1.4-.46-.47-1.14-.56-1.71-.29-.2-.41-.31-.87-.31-1.35,0-1.74,1.41-3.16,3.16-3.16s3.16,1.41,3.16,3.16-1.41,3.16-3.16,3.16Zm19.35,8.87h3.41v-24.06h-3.41v-31.29h19.03v100.89h-12.74v181.89h-6.29V81.88Zm39.87,45.54h-10.23V26.53h10.23v100.89Zm12.83-114.16c0,3.03-2.46,5.49-5.49,5.49s-5.49-2.46-5.49-5.49,2.46-5.49,5.49-5.49,5.49,2.46,5.49,5.49Zm-77.94-5.49c3.03,0,5.49,2.46,5.49,5.49s-2.46,5.49-5.49,5.49-5.49-2.46-5.49-5.49,2.46-5.49,5.49-5.49ZM112.38,13.26c0,3.03-2.46,5.49-5.49,5.49s-5.49-2.46-5.49-5.49,2.46-5.49,5.49-5.49,5.49,2.46,5.49,5.49Zm-83.43,0c0-3.03,2.46-5.49,5.49-5.49s5.49,2.46,5.49,5.49-2.46,5.49-5.49,5.49-5.49-2.46-5.49-5.49Zm12.83,13.26h10.23v100.89h-10.23V26.53Zm39.87,282.79h-6.29V127.42h-12.74V26.53h19.03v31.29h-3.41v24.06h3.41v227.44Zm16.19-239.47c0-1.74,1.41-3.16,3.16-3.16s3.16,1.41,3.16,3.16c0,.49-.12.94-.31,1.35-.56-.27-1.25-.18-1.71.29-.38.39-.48.92-.36,1.4-.25.06-.51.11-.78.11-1.74,0-3.16-1.41-3.16-3.16Zm74.13,76.62l-7.13.24c-.9.04-1.76-.35-2.33-1.05-.58-.7-.79-1.61-.58-2.49l2.29-9.86c.32-.04.64-.16.89-.42.58-.59.57-1.54-.03-2.12l-.22-.21,2.57-11.07c.21-.88.8-1.61,1.62-1.98.38-.17.79-.26,1.2-.26.47,0,.93.12,1.36.34l6.29,3.37c1.15.62,1.75,1.93,1.45,3.21l-1.01,4.35c-2.15,1-3.83,2.93-4.42,5.41-.59,2.5.07,5,1.56,6.85l-.8,3.45c-.3,1.27-1.41,2.19-2.72,2.24Zm242.03-.81c-.58.7-1.42,1.08-2.33,1.05l-7.13-.24c-1.3-.04-2.42-.96-2.72-2.24l-.8-3.45c1.49-1.86,2.15-4.35,1.56-6.85-.59-2.48-2.27-4.41-4.42-5.41l-1.01-4.35c-.3-1.27.3-2.59,1.45-3.21l6.29-3.37c.8-.43,1.73-.46,2.56-.08.83.37,1.42,1.1,1.62,1.98l2.57,11.07-.22.21c-.59.58-.6,1.53-.03,2.12.25.25.56.37.89.42l2.29,9.86c.21.88,0,1.79-.58,2.49Zm-1.03-27.08c-.49-2.11-1.9-3.83-3.87-4.72-1.97-.89-4.19-.82-6.1.2l-6.29,3.37c-2.74,1.47-4.17,4.61-3.46,7.64l.64,2.75c-.31.04-.62.08-.94.16l-43.38,10.24-40.38-6.94c-.2-.03-.4-.05-.6-.07-.34-.04-.67-.08-1.02-.08h-38.63c-.35,0-.69.03-1.02.08-.2.02-.4.04-.6.07l-40.38,6.94-43.38-10.24c-.31-.07-.63-.12-.94-.16l.64-2.75c.7-3.03-.72-6.17-3.46-7.64l-6.29-3.37c-1.91-1.02-4.13-1.09-6.1-.2-1.97.89-3.38,2.61-3.87,4.72l-2.03,8.71-13.93-13.58c.09-.34.15-.7.15-1.07,0-2.37-1.92-4.29-4.29-4.29-.41,0-.8.08-1.17.18l-34.87-34c.9-1.34,1.43-2.96,1.43-4.69,0-4.65-3.81-8.46-8.46-8.46h-4.69v-3.57h-3.41v-31.29h17.25c5.41,0,10.08-3.29,12.14-7.96h333.21c2.06,4.67,6.73,7.96,12.14,7.96h17.25v31.29h-3.41v3.57h-4.69c-4.65,0-8.46,3.81-8.46,8.46,0,1.73.53,3.34,1.43,4.69l-34.87,34c-.37-.11-.76-.18-1.17-.18-2.37,0-4.29,1.92-4.29,4.29,0,.37.06.73.15,1.07l-13.92,13.58-2.03-8.71Z"/>
      <circle cx="542.06" cy="13.26" r="2.21"/>
      <path d="m469.62,15.47c1.22,0,2.21-.99,2.21-2.21s-.99-2.21-2.21-2.21-2.21.99-2.21,2.21.99,2.21,2.21,2.21Z"/>
    </g>
  </g>
</svg>