<?xml version="1.0" encoding="UTF-8"?>
<svg id="Capa_2" data-name="Capa 2" xmlns="http://www.w3.org/2000/svg" viewBox="0 0 54.88 43.13">
  <defs>
    <style>
      .cls-1 {
        fill: #2d3540;
      }
    </style>
  </defs>
  <g id="Layer_1" data-name="Layer 1">
    <path class="cls-1" d="m52.67.08c-1.56-.38-3.12.57-3.51,2.13l-2.3,9.39c-.15.62-.78,1-1.4.85-.55-.14-.93-.6-.94-1.1.25-.68.24-1.46-.08-2.17-.6-1.35-2.12-2.03-3.53-1.58-7.16,2.28-13.81,5.71-19.79,10.19-.67.5-1.33,1.02-1.98,1.55l-2.76-4.66c1.49-.12,2.66-1.37,2.66-2.89,0-1.6-1.3-2.9-2.9-2.9h-4.81s-.02,0-.03,0h-4.85c-1.6,0-2.9,1.3-2.9,2.9s1.3,2.9,2.9,2.9h3.19l5.08,8.56c-1.81,1.76-3.53,3.61-5.13,5.57-2.2,2.67-4.2,5.54-5.96,8.52h-.73c-1.6,0-2.9,1.3-2.9,2.9s1.3,2.9,2.9,2.9h13.72c2.51-3.03,5.23-5.89,8.12-8.54,1.28-1.17,2.6-2.31,3.96-3.41,0-.12-.01-.24-.01-.36,0-2.88,2.34-5.22,5.22-5.22s5.22,2.34,5.22,5.22-2.34,5.22-5.22,5.22c-.58,0-1.14-.1-1.66-.27-1.23,1-2.42,2.03-3.58,3.1-1.49,1.36-2.93,2.79-4.31,4.27h9.79c.06,0,.11,0,.17,0,6.67-.18,12.04-5.67,12.04-12.38s-5.56-12.39-12.39-12.39c-1.68,0-3.3.33-4.8.96,3.24-2,6.66-3.68,10.23-5.05.87,1.84,2.55,3.29,4.69,3.81.55.14,1.11.2,1.66.2,3.13,0,5.98-2.13,6.76-5.3l2.3-9.39c.38-1.56-.57-3.12-2.13-3.51Z"/>
  </g>
</svg>