<?xml version="1.0" encoding="UTF-8"?>
<svg id="Capa_2" data-name="Capa 2" xmlns="http://www.w3.org/2000/svg" viewBox="0 0 225.96 225.96">
  <defs>
    <style>
      .cls-1 {
        fill-rule: evenodd;
      }
    </style>
  </defs>
  <g id="Capa_1-2" data-name="Capa 1">
    <path class="cls-1" d="m112.98,0C50.62,0,0,50.62,0,112.98s50.62,112.98,112.98,112.98,112.98-50.62,112.98-112.98S175.33,0,112.98,0h0Zm68.43,124.39c-1.28,1.69-2.69,3.31-4.24,4.85l-61.44,61.44c-.73.73-1.72,1.14-2.75,1.14s-2.02-.41-2.76-1.14l-61.66-61.66c-1.46-1.48-2.8-3.02-4.02-4.63H8.41c5.69,52.7,50.37,93.78,104.57,93.78s98.88-41.08,104.57-93.78h-36.14Zm-10.41,0h-32.17c-1.78,0-3.34-1.21-3.78-2.94l-5.45-21.59-12.86,49.2c-.45,1.72-2,2.91-3.78,2.91-1.77,0-3.32-1.21-3.76-2.93l-12.75-49.71-6.14,22.2c-.47,1.69-2,2.86-3.76,2.86h-31.6l58.02,58.02,58.03-58.02h0Zm6.32-7.79c9.46-15.25,7.58-35.57-5.66-48.8-15.37-15.37-40.3-15.43-55.75-.18l-2.94,1.33c-1.03,0-2.02-.41-2.76-1.14-15.43-15.43-40.5-15.43-55.93,0-13.24,13.24-15.12,33.55-5.66,48.8h34.96l9.25-33.44c.47-1.7,2.03-2.87,3.79-2.86,1.76.02,3.3,1.22,3.74,2.93l12.65,49.3,12.89-49.31c.45-1.72,2.01-2.92,3.79-2.91,1.78,0,3.32,1.22,3.76,2.94l8.42,33.35h35.46Zm40.78,0c.04-1.21.06-2.41.06-3.62,0-58.05-47.13-105.19-105.19-105.19S7.79,54.92,7.79,112.98c0,1.21.02,2.41.06,3.62h31.88c-8.65-17.67-5.64-39.63,9.04-54.31,17.58-17.58,45.6-18.43,64.2-2.55,18.59-15.89,46.61-15.04,64.2,2.55,14.68,14.68,17.7,36.64,9.04,54.31h31.88Z"/>
  </g>
</svg>