<?xml version="1.0" encoding="UTF-8"?>
<svg id="Capa_2" data-name="Capa 2" xmlns="http://www.w3.org/2000/svg" viewBox="0 0 47.57 39.34">
  <defs>
    <style>
      .cls-1 {
        fill: #2d3540;
      }
    </style>
  </defs>
  <g id="Layer_1" data-name="Layer 1">
    <g>
      <path class="cls-1" d="m46.63,7.28c-.66-2.9-1.56-5.28-2.39-7.09-.16-.34-.58-.2-.58.19v37.98c0,.54.44.98.98.98h0c.55,0,.99-.46.98-1.01l-.73-21.73h1.32c.77,0,1.39-.78,1.36-1.73-.05-2.1-.28-4.7-.94-7.59Z"/>
      <path class="cls-1" d="m4.48,0h-.31C3.94,0,3.76.18,3.76.41v9.62c0,.23-.18.41-.41.41s-.41-.18-.41-.41V.41C2.94.18,2.76,0,2.53,0h-.17C2.13,0,1.95.18,1.95.41v9.62c0,.23-.18.41-.41.41s-.41-.18-.41-.41V.41C1.13.18.94,0,.72,0h-.31C.18,0,0,.18,0,.41v14.04c0,1.08.87,1.95,1.95,1.95h-.11v.32s-.37,21.63-.37,21.63c0,.55.43.99.98.99h0c.55,0,.99-.45.98-.99l-.38-21.63v-.32s-.1,0-.1,0c1.08,0,1.95-.87,1.95-1.95V.41C4.89.18,4.7,0,4.48,0Z"/>
      <path class="cls-1" d="m23.79,1.65C14.23,1.65,6.48,9.4,6.48,18.96s7.75,17.31,17.31,17.31,17.31-7.75,17.31-17.31S33.35,1.65,23.79,1.65Zm0,31.97c-8.1,0-14.66-6.56-14.66-14.66s6.56-14.66,14.66-14.66,14.66,6.56,14.66,14.66-6.56,14.66-14.66,14.66Z"/>
      <path class="cls-1" d="m22.53,19.51c.48-.48.76-1.14.76-1.83v-8.76c0-1.73-1.67-2.98-3.32-2.48-5.36,1.63-9.26,6.61-9.26,12.51,0,2.22.55,4.31,1.53,6.14.81,1.53,2.88,1.82,4.1.6l6.19-6.19Z"/>
      <path class="cls-1" d="m33.86,11.47c0-.39-.29-.7-.67-.74.04-.11.06-.23.06-.36,0-.61-.49-1.1-1.1-1.1-.17,0-.33.04-.47.11-.07-.04-.14-.07-.21-.09-.13-.2-.36-.32-.62-.32-.04,0-.08,0-.12.01.07-.12.12-.25.12-.4,0-.41-.33-.75-.75-.75-.15,0-.3.05-.42.13-.18-.36-.56-.61-.99-.61-.18,0-.34.04-.49.12-.11-.48-.53-.85-1.05-.86-.19-.14-.42-.23-.67-.23-.07,0-.13,0-.2.02-.2-.29-.53-.47-.91-.47-.61,0-1.1.49-1.1,1.1,0,.47.3.88.72,1.03-.04.07-.08.15-.09.23-.37.18-.63.56-.63.99,0,.38.19.71.48.91-.29.2-.48.53-.48.91,0,.25.08.47.22.66-.2.13-.32.36-.32.62,0,.1.02.2.06.29-.04.09-.06.19-.06.29,0,.21.08.39.22.53-.07.15-.11.31-.11.48,0,.26.09.5.24.69-.08.12-.13.26-.13.41,0,.19.07.36.19.49-.12.18-.19.39-.19.61,0,.25.09.49.23.67-.14.14-.23.33-.23.54,0,.41.33.75.75.75.06,0,.11,0,.16-.02.19.16.44.27.72.27.2,0,.39-.05.55-.15.14.15.33.25.55.25.15,0,.29-.04.41-.12.16.08.33.13.52.13.25,0,.49-.09.68-.23.12.09.27.14.43.14.33,0,.61-.21.71-.51,0,0,.01,0,.02-.01.13.24.37.4.66.4.33,0,.61-.22.71-.52.16.13.35.21.56.24.14.17.35.28.58.28.12,0,.24-.03.35-.08.2.19.46.3.76.3.34,0,.65-.16.85-.4.08.03.16.04.25.04.29,0,.55-.17.67-.42.53-.08.93-.54.93-1.09,0-.59-.46-1.07-1.04-1.1.25-.2.41-.51.41-.86s-.16-.65-.4-.85c.03-.08.04-.16.04-.25,0-.41-.33-.75-.75-.75,0,0-.01,0-.02,0,.01-.07.02-.14.02-.22,0-.44-.25-.81-.62-.99,0-.04,0-.07,0-.11Z"/>
      <path class="cls-1" d="m33.76,19.46h-8.68c-.7,0-1.36.28-1.86.77l-6.14,6.14c-1.24,1.24-.94,3.34.61,4.16,1.82.96,3.89,1.5,6.09,1.5,5.85,0,10.81-3.85,12.48-9.15.53-1.7-.72-3.42-2.5-3.42Zm-12.59,8.09c-.19.3-.35.54-.46.71-.11.17-.18.27-.18.27l-.07-.04s0-.03.01-.09c0-.06.02-.15.04-.26.02-.11.05-.24.08-.38.04-.15.08-.31.14-.48.06-.17.12-.36.2-.55.08-.19.16-.39.25-.59.05-.1.1-.2.15-.3.03-.05.05-.1.08-.15.03-.05.06-.1.08-.15.11-.2.23-.4.35-.61.13-.2.25-.4.39-.58.06-.1.13-.19.2-.28.07-.09.13-.18.21-.27.14-.17.28-.34.41-.49.14-.15.27-.29.4-.42.26-.25.5-.45.67-.58.09-.07.16-.11.21-.15.05-.03.08-.05.08-.05l.07.04s-.06.1-.16.28c-.11.18-.25.43-.44.73-.37.6-.86,1.4-1.34,2.2-.5.79-1,1.59-1.38,2.18Zm3.14.93c-.28.43-.52.78-.68,1.03-.17.25-.26.39-.26.39l-.08-.05s0-.05.03-.13c.02-.08.05-.2.09-.35.04-.15.1-.33.17-.53.07-.2.16-.43.25-.67.1-.24.21-.5.33-.77.13-.27.26-.55.41-.83.07-.14.15-.29.23-.43.04-.07.08-.15.12-.22.04-.07.08-.14.13-.22.17-.29.35-.58.53-.87.19-.29.37-.57.57-.85.1-.14.19-.27.29-.41.1-.13.19-.26.29-.39.2-.26.39-.5.59-.72.19-.23.38-.43.56-.62.18-.19.35-.36.5-.51.15-.15.3-.27.41-.38.11-.1.21-.18.28-.23.07-.05.1-.08.1-.08l.08.05s-.09.15-.25.4c-.16.25-.38.62-.65,1.05-.55.87-1.28,2.02-2.01,3.18-.74,1.15-1.49,2.29-2.05,3.16Zm8.29-6.64c-.15.23-.35.56-.6.96-.5.79-1.17,1.84-1.84,2.89-.68,1.04-1.36,2.09-1.88,2.87-.25.39-.48.71-.63.94-.15.23-.24.36-.24.36l-.07-.04s0-.04.03-.12c.02-.07.05-.19.09-.32.04-.14.09-.3.16-.48.06-.18.14-.39.23-.61.09-.22.19-.46.31-.7.12-.24.24-.5.38-.76.07-.13.14-.26.21-.39.04-.07.07-.13.11-.2.04-.07.08-.13.12-.2.15-.27.32-.53.49-.79.17-.26.34-.52.52-.77.09-.13.18-.25.27-.37.09-.12.18-.24.27-.36.18-.23.36-.45.54-.66.18-.21.35-.4.51-.57.16-.17.32-.33.46-.46.14-.14.27-.25.38-.34.1-.1.2-.16.25-.21.06-.05.09-.07.09-.07l.07.04-.23.36Z"/>
    </g>
  </g>
</svg>