<?xml version="1.0" encoding="UTF-8"?>
<svg id="Capa_2" data-name="Capa 2" xmlns="http://www.w3.org/2000/svg" viewBox="0 0 43.52 52.73">
  <defs>
    <style>
      .cls-1 {
        fill: #2d3540;
      }
    </style>
  </defs>
  <g id="Layer_1" data-name="Layer 1">
    <g>
      <path class="cls-1" d="m43.49,49.38c-.5.65-1.33.94-2.87.94-.68,0-1.5-.06-2.5-.17-4.11-.45-6.18-.68-8.84-1.91-2.39-1.1-3.85-2.35-6.5-4.61-1.83-1.56-3.57-3.26-5.17-5.04-.81-.74-11.75-10.76-13.85-16.36-.2-.54-.31-1.06-.32-1.56-.72.35-1.28.86-1.55,1.11-.69.63-1.59,1.46-1.82,2.68-.51,2.67,2.57,5.33,3.45,5.44.07,0,.38.03.47.22.1.21-.13.47-.19.64-.33.87,2.28,3.27,6.34,5.27.77.38,1.04.48,1.53.83,1.11.8,1.42,1.55,2.73,3.69,0,0,2.9,4.73,4.23,4.49.03,0,.18-.04.29.04.17.12.13.44.12.52-.07,1.23,5.05,3.55,5.32,3.74,0,0,.04.03.08.04.13.04.22-.06.31-.07.21-.02.41.44.41.44.53,1.21,6.02,2.04,6.02,2.04,2.71.41,4.1.62,5.33.75,3.88.39,4.69.18,5.36-.28.89-.61,1.83-1.85,1.63-2.87Z"/>
      <path class="cls-1" d="m12.18,32.1c.09,0,.18,0,.26.03,1.08.32,2.17.52,3.28.59l3.36-.2c1.09-.2,2.16-.52,3.18-.96.42-.18.91,0,1.09.43.18.42,0,.91-.43,1.09-1.45.63-2.98,1.04-4.54,1.22-.6.07-1.2.1-1.8.1-.77,0-1.54-.06-2.31-.17.78.78,1.5,1.48,2.1,2.05.52.09,1.05.15,1.58.19l3.36-.2c1.09-.2,2.16-.52,3.18-.96.42-.18.91,0,1.09.43.18.42,0,.91-.43,1.09-1.45.63-2.98,1.04-4.54,1.22-.6.07-1.2.1-1.8.1-.16,0-.31,0-.47,0,1.16,1.29,2.83,3,4.99,4.85,2.64,2.26,4.03,3.44,6.31,4.49,2.54,1.17,4.56,1.39,8.59,1.84,3.21.35,4.26.12,4.69-.55.43-.66.25-1.73-.19-2.4-.73-1.1-1.99-.73-3.64-2.15-.2-.17-.7-.61-1.33-1.33-1.33-1.52-2.17-3.09-2.9-4.72-.33-.75-.7-1.57-1.05-2.47l-1.82.59c.43-.6.94-1.06,1.51-1.42-.1-.28-.21-.58-.3-.88l-1.9.63c.43-.62.99-1.14,1.62-1.54-.1-.33-.19-.68-.28-1.03l-2.41.84c.57-.85,1.32-1.51,2.15-1.97-.06-.29-.11-.58-.16-.88l-3.03,1.09c.72-1.12,1.73-1.94,2.86-2.44-.03-.3-.06-.58-.09-.85l-4.17,1.55c.94-1.56,2.39-2.59,4.02-3.15-.17-1.83-.2-2.99,0-3.97.12-.6.3-1.2,0-1.82-.67-1.4-3.34-2.1-5.14-1.24-1.17.56-1.09,1.36-2.24,1.74-1.23.41-1.75-.37-3.56-.58-2.81-.32-3.63,1.32-5.8.58-.2-.07-1.84-.65-2.15-1.9-.16-.67.14-1.16.41-1.9.64-1.74.93-4.36.17-4.89-.37-.25-.89.06-5.96,3.98-1.83,1.41-3.04,2.37-3.23,3.89-.08.66.04,1.27.25,1.82,1.05,2.8,4.49,6.83,7.65,10.16Z"/>
      <path class="cls-1" d="m17.63,0l-2,12.66c.64-1.39,1.34-3.25,1.77-5.52.54-2.9.44-5.38.23-7.14Z"/>
      <path class="cls-1" d="m31.45.65c-.87,2.22-1.83,5.35-2.15,9.19-.25,3-.06,5.6.25,7.62L31.45.65Z"/>
      <path class="cls-1" d="m17.52,14.29s-.06.1-.1.15c-.03.05-.07.1-.11.16-.15.21-.34.42-.54.65-.1.12-.2.24-.28.38-.08.14-.16.3-.18.47-.01.04,0,.09-.01.13v.07s0,0,0,.02v.02s0,.03,0,.03c0,.04,0,.08,0,.13,0,.04.01.09.02.13,0,.05.02.09.03.13.01.04.02.09.04.13.03.08.06.17.11.24.16.32.4.6.67.83.28.23.6.41.93.52.04.02.09.02.13.04.04.01.08.02.13.03.08.01.17.03.25.04.09,0,.18.01.26.01.09,0,.17,0,.25-.01.34-.03.65-.13.93-.26.28-.13.52-.3.72-.47.05-.05.1-.09.14-.13.02-.02.05-.04.07-.06.02-.02.04-.05.06-.07.04-.05.08-.09.12-.13.04-.04.07-.09.1-.13.03-.04.07-.08.09-.13.03-.04.05-.08.08-.12.02-.04.05-.08.07-.11.02-.04.04-.07.06-.11.04-.07.07-.13.09-.18.02-.06.04-.1.06-.14.03-.08.05-.12.05-.12l-.08-.03s-.03.03-.09.1c-.03.03-.06.07-.1.12-.02.02-.04.05-.07.07-.02.02-.05.05-.07.08-.03.03-.05.06-.08.09-.03.03-.06.06-.1.09-.03.03-.07.06-.1.09-.03.03-.07.06-.11.09-.04.03-.08.06-.12.1-.04.03-.09.06-.13.09-.09.07-.19.12-.28.18-.2.11-.43.21-.66.28-.24.07-.49.11-.73.11-.06,0-.12-.01-.18-.01-.03,0-.05,0-.08-.01-.02,0-.05,0-.07,0h-.02s-.03,0-.03,0h-.06s-.12-.04-.12-.04h-.02s0,0,0,0c.07.01.02,0,.03,0h0s-.02,0-.02,0h-.04s-.06-.03-.09-.04c-.11-.05-.23-.1-.34-.17-.06-.03-.11-.07-.16-.1-.05-.04-.11-.08-.15-.12-.2-.16-.37-.36-.49-.56-.03-.05-.05-.1-.08-.15-.01-.02-.02-.05-.03-.07l-.02-.04s0-.01,0-.02c0-.01-.01-.02-.02-.04,0-.04,0-.08-.01-.12v-.03s0-.02,0-.02c0-.03,0,.01,0,.03,0,0,0-.02,0-.03,0-.02,0-.04,0-.06,0-.07.01-.14.05-.24.01-.05.05-.1.07-.15.03-.06.06-.11.1-.17.07-.12.16-.24.24-.37.08-.13.16-.26.23-.39.07-.13.12-.26.17-.39.02-.07.04-.13.06-.19.02-.07.03-.11.04-.17.06-.23.08-.43.08-.6,0-.17,0-.29-.02-.38,0-.04-.01-.08-.01-.1,0-.02,0-.03,0-.03h-.08s0,.03-.02.11c-.02.08-.04.2-.08.34-.04.14-.1.32-.19.51-.04.1-.1.19-.15.3Z"/>
    </g>
  </g>
</svg>