<?xml version="1.0" encoding="UTF-8"?>
<svg id="Capa_2" data-name="Capa 2" xmlns="http://www.w3.org/2000/svg" viewBox="0 0 59.36 67.42">
  <defs>
    <style>
      .cls-1 {
        fill: #2d3540;
      }
    </style>
  </defs>
  <g id="Layer_1" data-name="Layer 1">
    <g>
      <path class="cls-1" d="m9.29,44.27l10.8-1.46c.96-.13,1.79-.73,2.22-1.6l2.59-5.3,2.9,3.8-.44,9.85c-.07,1.6,1.17,2.95,2.77,3.03.04,0,.09,0,.13,0,1.54,0,2.82-1.21,2.89-2.77l.49-10.9c.03-.68-.18-1.35-.59-1.89l-5.78-7.58.64-5.73,2.42,3.25c.73.98,2.01,1.4,3.18,1.04l10.41-3.21c1.53-.47,2.39-2.09,1.92-3.62-.47-1.53-2.09-2.39-3.62-1.92l-8.46,2.61-5.59-7.51s-.02-.03-.04-.05c-.01-.01-.02-.03-.03-.04-.02-.02-.04-.05-.06-.07,0,0-.02-.02-.02-.03-.06-.07-.12-.13-.19-.19,0,0-.02-.02-.03-.03-.02-.02-.05-.04-.07-.06-.01-.01-.03-.02-.04-.04-.02-.02-.04-.03-.06-.05-.02-.01-.03-.03-.05-.04-.02-.01-.03-.02-.05-.04-.02-.01-.04-.03-.06-.04-.01,0-.03-.02-.04-.03-.02-.02-.05-.03-.07-.05,0,0-.02,0-.03-.01-.13-.08-.27-.15-.41-.2,0,0,0,0,0,0-.03-.01-.07-.02-.1-.04,0,0-.02,0-.02,0-.03-.01-.06-.02-.09-.03-.01,0-.02,0-.03,0-.03,0-.06-.02-.09-.02-.02,0-.03,0-.05-.01-.03,0-.07-.02-.1-.02-.03,0-.07-.01-.1-.02-.01,0-.03,0-.04,0-.03,0-.06,0-.1-.01,0,0-.01,0-.02,0,0,0-.02,0-.02,0-.03,0-.07,0-.1,0-.01,0-.02,0-.04,0-.04,0-.08,0-.12,0,0,0-.01,0-.02,0-.05,0-.09,0-.14,0,0,0-.02,0-.03,0-.03,0-.07,0-.1,0-.02,0-.04,0-.05,0-.03,0-.05,0-.08,0-.02,0-.04,0-.06,0-.02,0-.04,0-.07.01-.02,0-.05,0-.07.01-.02,0-.04,0-.06.01-.02,0-.05.01-.07.02-.02,0-.03,0-.05.01-.1.03-.19.06-.29.09-.01,0-.02,0-.03.01-.02,0-.05.02-.07.03-.01,0-.03.01-.04.02l-11,4.96c-1.13.51-1.82,1.69-1.69,2.93l.88,8.76c.15,1.49,1.41,2.61,2.88,2.61.1,0,.19,0,.29-.01,1.59-.16,2.76-1.58,2.6-3.17l-.67-6.69,4.46-2.01-1.01,9.08-3.6,7.37-9.27,1.25c-1.59.21-2.7,1.67-2.48,3.26.21,1.59,1.67,2.7,3.26,2.48Z"/>
      <circle class="cls-1" cx="28.11" cy="6.1" r="6.1"/>
      <path class="cls-1" d="m58.71,19.9c-1.01-1.24-2.84-1.43-4.08-.42l-4.42,3.59c-1.27,1.03-2.27,2.38-2.88,3.91-.61,1.52-.82,3.19-.61,4.81l3.73,28.89c.04.33-.11.55-.2.66-.09.11-.3.28-.63.28H12.18l31.51-2.08c1.6-.11,2.81-1.49,2.7-3.08-.11-1.6-1.49-2.81-3.08-2.7l-35.41,2.33c-4.42.29-7.89,3.99-7.89,8.43,0,1.6,1.3,2.9,2.9,2.9h46.73c1.91,0,3.72-.82,4.98-2.26,1.26-1.43,1.84-3.34,1.59-5.23l-3.73-28.89c-.17-1.33.35-2.63,1.39-3.48l4.42-3.59c1.24-1.01,1.43-2.84.42-4.08Z"/>
    </g>
  </g>
</svg>