<?xml version="1.0" encoding="UTF-8"?>
<svg id="Capa_2" data-name="Capa 2" xmlns="http://www.w3.org/2000/svg" viewBox="0 0 179.73 225.96">
  <defs>
    <style>
      .cls-1 {
        fill-rule: evenodd;
      }
    </style>
  </defs>
  <g id="Capa_1-2" data-name="Capa 1">
    <path class="cls-1" d="m40.41,70.49c-9.18,2.45-17.63,7.27-24.46,14.1C5.74,94.8,0,108.64,0,123.08v17.69c0,2.15,1.74,3.89,3.9,3.89h101.07c2.15,0,3.9-1.74,3.9-3.89v-17.69c0-14.44-5.73-28.28-15.94-38.49-7.53-7.53-17.04-12.63-27.31-14.78v-.26c0-24.67,20-44.68,44.68-44.68h0c11.85,0,23.21,4.71,31.59,13.09,8.38,8.38,13.09,19.74,13.09,31.59v152.51c0,2.15,1.75,3.9,3.9,3.9s3.9-1.75,3.9-3.9V69.55c0-13.91-5.53-27.26-15.37-37.1-9.84-9.84-23.18-15.37-37.1-15.37h0c-28.71,0-52.04,23.07-52.46,51.67-1.13-.07-2.26-.11-3.4-.11h0c-2.09,0-4.17.12-6.23.36.17-16.17,6.67-31.65,18.12-43.09,11.6-11.6,27.34-18.12,43.74-18.12h0c34.17,0,61.87,27.7,61.87,61.86v152.4c0,2.15,1.75,3.9,3.9,3.9s3.9-1.75,3.9-3.9V69.66C179.73,31.19,148.54,0,110.07,0h0c-18.47,0-36.19,7.34-49.25,20.4-13.06,13.06-20.4,30.78-20.4,49.26v.83h0Zm-18.92,124.23v15.44c0,2.15,1.75,3.9,3.9,3.9s3.9-1.75,3.9-3.9v-15.44c0-2.15-1.75-3.89-3.9-3.89s-3.9,1.74-3.9,3.89h0Zm29.05,0v15.44c0,2.15,1.75,3.9,3.9,3.9s3.9-1.75,3.9-3.9v-15.44c0-2.15-1.75-3.89-3.9-3.89s-3.9,1.74-3.9,3.89h0Zm29.05,0v15.44c0,2.15,1.75,3.9,3.9,3.9s3.9-1.75,3.9-3.9v-15.44c0-2.15-1.75-3.89-3.9-3.89s-3.9,1.74-3.9,3.89h0Zm-58.09-34.43v15.44c0,2.15,1.75,3.9,3.9,3.9s3.9-1.74,3.9-3.9v-15.44c0-2.15-1.75-3.9-3.9-3.9s-3.9,1.74-3.9,3.9h0Zm29.05,0v15.44c0,2.15,1.75,3.9,3.9,3.9s3.9-1.74,3.9-3.9v-15.44c0-2.15-1.75-3.9-3.9-3.9s-3.9,1.74-3.9,3.9h0Zm29.05,0v15.44c0,2.15,1.75,3.9,3.9,3.9s3.9-1.74,3.9-3.9v-15.44c0-2.15-1.75-3.9-3.9-3.9s-3.9,1.74-3.9,3.9h0Zm21.49-35.58v12.18H7.79v-12.18h93.28Zm-.41-7.79H8.2c1.35-10.09,5.97-19.53,13.25-26.81,8.75-8.75,20.61-13.66,32.98-13.66h0c12.37,0,24.23,4.91,32.98,13.66,7.28,7.28,11.9,16.72,13.25,26.81h0Z"/>
  </g>
</svg>