<?xml version="1.0" encoding="UTF-8"?>
<svg id="Capa_2" data-name="Capa 2" xmlns="http://www.w3.org/2000/svg" viewBox="0 0 225.96 100.21">
  <defs>
    <style>
      .cls-1 {
        fill-rule: evenodd;
      }
    </style>
  </defs>
  <g id="Capa_1-2" data-name="Capa 1">
    <path class="cls-1" d="m45.33,13.55h-21.39c-2.15,0-3.9,1.74-3.9,3.9v15.5H3.9c-2.15,0-3.9,1.74-3.9,3.9v26.53c0,2.15,1.74,3.9,3.9,3.9h16.15v15.5c0,2.15,1.74,3.9,3.9,3.9h21.39v9.65c0,2.15,1.74,3.9,3.9,3.9h25.28c2.15,0,3.89-1.74,3.89-3.9v-29.05h65.13v29.05c0,2.15,1.74,3.9,3.9,3.9h27.29c2.15,0,3.9-1.74,3.9-3.9v-9.65h23.39c2.15,0,3.9-1.74,3.9-3.9v-15.5h16.15c2.15,0,3.9-1.74,3.9-3.9v-26.53c0-2.15-1.74-3.9-3.9-3.9h-16.15v-15.5c0-2.15-1.75-3.9-3.9-3.9h-23.39V3.9c0-2.15-1.74-3.9-3.9-3.9h-27.29c-2.15,0-3.9,1.74-3.9,3.9v29.05h-65.13V3.9c0-2.15-1.74-3.9-3.89-3.9h-25.28c-2.15,0-3.9,1.74-3.9,3.9v9.65h0Zm106,23.3V7.79h19.5v84.63h-19.5v-55.57h0Zm-80.71,0V7.79h-17.49v84.63h17.49v-55.57h0Zm108-15.51v57.53h19.5V21.34h-19.5Zm-133.28,0h-17.49v57.53h17.49V21.34h0Zm160.57,19.4v18.74c4.78,0,12.26,0,12.26,0v-18.74h-12.26Zm-185.86,0c-4.78,0-12.26,0-12.26,0v18.74h12.26v-18.74h0Zm58.36,0v18.74h65.13v-18.74h-65.13Z"/>
  </g>
</svg>