<?xml version="1.0" encoding="UTF-8"?>
<svg id="Capa_2" data-name="Capa 2" xmlns="http://www.w3.org/2000/svg" viewBox="0 0 64.09 37.34">
  <defs>
    <style>
      .cls-1 {
        fill: #2d3540;
      }
    </style>
  </defs>
  <g id="Layer_1" data-name="Layer 1">
    <g>
      <rect class="cls-1" x="21.54" width="21.01" height="5.27" rx="1.19" ry="1.19"/>
      <path class="cls-1" d="m63.64,11.31c-.89-1.59-1.86-3.22-2.92-4.89-.89-1.41-1.79-2.74-2.68-4.02-.28-.4-.63-.75-1.03-1.04-.94-.66-2.11-.92-3.24-.7,0,0-1.04.18-1.09.19l-1.48.34c-.28.06-.5.27-.59.54l-.73,2.28c-.06.18-.05.38.03.56l.06.15c.08.19.23.34.43.43.41.18.96.35,1.61.44.8.11,1.5.04,2.02-.06.29-.06.53-.27.62-.55.11-.36.22-.71.33-1.07.42.07.78.24.92.62.39,1.01.85,2.23,1.26,3.86.6,2.39-.34,2.91-1.5,2.57-.78-.42-1.84-.8-2.96-.58-1.65.31-2.59,1.24-2.59,1.24-.42.42-.75.93-1.04.85-.26-.08-.28-.57-.38-.94-.38-1.48-2.51-2.66-4.33-2.64-.01,0-.03,0-.04,0,.14.38.22.8.22,1.23v12.82l2.81-2.86c.17.15.42.35.75.56,1.83,1.12,3.86.82,4.83.67.7-.11,3.36-.53,5.12-1.86h0c1.54-1.19,3.09-2.37,4.64-3.55,1.41-1.08,1.81-3.03.95-4.58Z"/>
      <path class="cls-1" d="m15.4,11.52c-.1.37-.11.86-.38.94-.29.09-.61-.43-1.04-.85,0,0-.93-.92-2.59-1.24-1.13-.21-2.18.16-2.96.58-1.16.34-2.09-.17-1.5-2.57.41-1.64.87-2.85,1.26-3.86.15-.38.5-.55.92-.62.11.36.22.71.33,1.07.09.28.33.49.62.55.52.1,1.22.17,2.02.06.65-.09,1.19-.26,1.61-.44.19-.08.34-.23.43-.43l.06-.15c.07-.18.08-.37.03-.56l-.73-2.28c-.09-.27-.31-.47-.59-.54l-1.48-.34c-.05-.01-1.09-.19-1.09-.19-1.13-.21-2.3.04-3.24.7-.4.28-.75.63-1.03,1.04-.89,1.27-1.79,2.61-2.68,4.02-1.06,1.66-2.03,3.3-2.92,4.89-.87,1.55-.46,3.5.95,4.58,1.54,1.19,3.09,2.37,4.64,3.55h0c1.76,1.33,4.42,1.75,5.12,1.86.96.16,3,.45,4.83-.67.33-.2.58-.41.75-.56l2.81,2.86v-12.82c0-.43.08-.85.22-1.23-.01,0-.03,0-.04,0-1.82-.03-3.95,1.16-4.33,2.64Z"/>
      <path class="cls-1" d="m40.99,7.28h-.99c-.08,0-.14-.06-.14-.14v-1.06c0-.08-.06-.14-.14-.14h-15.34c-.08,0-.14.06-.14.14v1.06c0,.08-.06.14-.14.14h-.99c-1.57,0-2.84,1.27-2.84,2.84v24.38c0,1.57,1.27,2.84,2.84,2.84h17.9c1.57,0,2.84-1.27,2.84-2.84V10.12c0-1.57-1.27-2.84-2.84-2.84Zm-5.08,13.95c-.14.31-.27.62-.41.94-1.1,2.53-2.13,4.92-3.91,7.02-.09.11-.22.16-.35.16-.07,0-.15-.02-.22-.06-.19-.11-.28-.33-.21-.53.63-2.01.7-4.12.7-5.96-.94,0-1.88.01-2.82.01-.19,0-.36-.09-.47-.25-.1-.16-.12-.36-.04-.53.14-.31.27-.63.41-.94,1.1-2.53,2.13-4.92,3.91-7.02.14-.17.38-.21.57-.11.19.11.28.33.22.53-.63,2.01-.7,4.12-.7,5.96.94,0,1.88-.01,2.82-.02h0c.19,0,.36.09.46.25.1.16.12.36.04.53Z"/>
    </g>
  </g>
</svg>