<?xml version="1.0" encoding="UTF-8"?>
<svg id="Capa_2" data-name="Capa 2" xmlns="http://www.w3.org/2000/svg" viewBox="0 0 62.02 56.4">
  <defs>
    <style>
      .cls-1 {
        fill: #2d3540;
      }
    </style>
  </defs>
  <g id="Layer_1" data-name="Layer 1">
    <g>
      <path class="cls-1" d="m59.12,50.6H2.9c-1.6,0-2.9,1.3-2.9,2.9s1.3,2.9,2.9,2.9h56.22c1.6,0,2.9-1.3,2.9-2.9s-1.3-2.9-2.9-2.9Z"/>
      <path class="cls-1" d="m33.7,12.19c3.37.01,6.11-2.7,6.12-6.07C39.83,2.75,37.11.01,33.75,0c-3.37-.01-6.11,2.7-6.12,6.07-.01,3.37,2.7,6.11,6.07,6.12Z"/>
      <path class="cls-1" d="m24.26,36.18l9.9.04-5.62,9.09c-.84,1.36-.42,3.15.94,3.99.47.29,1,.43,1.52.43.97,0,1.92-.49,2.47-1.38l8.34-13.5c.55-.89.58-2.01.07-2.93-.51-.92-1.47-1.49-2.52-1.49l-9.8-.04,4.09-10.7,13.78-.04c1.6,0,2.9-1.31,2.89-2.91,0-1.6-1.3-2.89-2.9-2.89h0l-16.34.05c-1.71-.28-3.45.66-4.09,2.35l-5.66,14.83c-.41,1.06-.29,2.19.21,3.12.39,1.14,1.46,1.97,2.74,1.97Z"/>
    </g>
  </g>
</svg>