<?xml version="1.0" encoding="UTF-8"?>
<svg id="Capa_2" data-name="Capa 2" xmlns="http://www.w3.org/2000/svg" viewBox="0 0 45.26 39.08">
  <defs>
    <style>
      .cls-1 {
        fill: #2d3540;
      }
    </style>
  </defs>
  <g id="Layer_1" data-name="Layer 1">
    <g>
      <path class="cls-1" d="m8.37,5.41c4.79.79,9.67,1.19,14.54,1.17,4.68-.01,9.39-.41,14-1.17.04,0,.06-.04.06-.08-.14-.84-.28-1.68-.43-2.51-.15-.87-.68-2.91-1.71-2.81-7.28.68-16.79,1.04-24.38,0-1.05-.14-1.57,2-1.71,2.81-.14.83-.28,1.67-.42,2.51,0,.04.02.07.06.08Z"/>
      <path class="cls-1" d="m40.01,8.43c-.39-1.18-1.49-2.25-2.74-2.49-.11-.02-.23-.02-.35,0-4.62.76-9.32,1.16-14.01,1.17-.09,0-.18,0-.27,0-4.78,0-9.57-.39-14.27-1.17-.11-.02-.23-.02-.34,0-1.26.24-2.41,1.26-2.77,2.49C2.59,16.87.56,25.47,0,34.32c-.03.88.55,1.68,1.36,2,2.98,1.18,6.15,2.01,9.29,2.43,2.61.35,5.29.42,7.95.18.75-.07,1.35-.65,1.48-1.42.56-3.24,1.18-6.47,1.81-9.7.16-.81,1.33-.81,1.49,0,.64,3.23,1.25,6.46,1.81,9.7.13.77.73,1.35,1.48,1.42,2.66.24,5.34.17,7.95-.18,3.14-.42,6.31-1.25,9.29-2.43.81-.32,1.38-1.12,1.36-2-.56-8.85-2.59-17.45-5.26-25.89Z"/>
    </g>
  </g>
</svg>