<?xml version="1.0" encoding="UTF-8"?>
<svg id="Capa_2" data-name="Capa 2" xmlns="http://www.w3.org/2000/svg" viewBox="0 0 227.26 212.4">
  <defs>
    <style>
      .cls-1 {
        fill-rule: evenodd;
      }
    </style>
  </defs>
  <g id="Capa_1-2" data-name="Capa 1">
    <path class="cls-1" d="m201.19,117.48c-30.24-12.41-51.37,7.17-58.39,15.18-26.94-19.43-51.43-9.15-62.68-2.2,0,0,0-67.77,0-67.77,7.82.31,24.84.82,33.32-.2,5.34-.64,10.29-4.24,14.26-9.19,5.38-6.7,8.99-15.75,9.86-20.96.4-2.4,0-5.67-1.22-9.24-1.59-4.67-4.53-9.96-8.12-14.22-4.47-5.3-10.04-8.88-15.24-8.88-11.02,0-40.35,5.28-54.71,14.61-1.52.99-3.41,2.96-5.44,5.87-3.96,5.67-8.96,15.31-14.27,27.14C21.05,86.61,0,149.57,0,170.47c0,4.95,3.63,11.31,11.53,17.39,15.8,12.16,49.4,24.54,98.25,24.54,28.94,0,72.85-4.51,98.65-22.6,29.16-20.45,22.67-60.05-7.24-72.31h0Zm-2.96,7.21c24.28,9.96,29.4,42.12,5.72,58.72-24.61,17.25-66.58,21.19-94.18,21.19-39.93,0-69.24-8.43-86.28-18.17-6.38-3.65-10.97-7.42-13.58-10.98-1.32-1.8-2.12-3.45-2.12-4.98,0-20.37,20.8-81.65,37.87-119.65,4.36-9.7,8.47-17.88,11.94-23.43,1.95-3.12,3.54-5.36,4.91-6.24,13.23-8.6,40.3-13.36,50.46-13.36,3.28,0,6.46,2.77,9.28,6.11,2.96,3.51,5.4,7.86,6.71,11.71.72,2.11,1.15,4.02.91,5.44-.72,4.32-3.78,11.8-8.25,17.36-2.6,3.23-5.62,5.91-9.11,6.33-10.83,1.3-36.09-.02-36.09-.02-1.07-.05-2.11.33-2.88,1.07-.77.73-1.21,1.76-1.21,2.82v79.42c0,1.54.9,2.93,2.31,3.56,1.4.63,3.05.37,4.19-.66,0,0,29.36-26.19,62.19.14.84.68,1.93.97,2.99.82,1.07-.16,2.02-.75,2.64-1.63,0,0,19.86-28.59,51.58-15.58h0Zm-126.18,44.92s10.66,17.51,37.79,17.51,37.66-17.53,37.66-17.53c1.13-1.83.56-4.23-1.27-5.36-1.83-1.13-4.23-.56-5.36,1.27,0,0-8.83,13.83-31.03,13.83s-31.18-13.85-31.18-13.85c-1.14-1.82-3.55-2.38-5.37-1.24-1.82,1.14-2.38,3.55-1.24,5.37h0Z"/>
  </g>
</svg>