<?xml version="1.0" encoding="UTF-8"?>
<svg id="Capa_2" data-name="Capa 2" xmlns="http://www.w3.org/2000/svg" viewBox="0 0 48.66 57.13">
  <defs>
    <style>
      .cls-1 {
        fill: #3fc1c9;
      }
    </style>
  </defs>
  <g id="Layer_1" data-name="Layer 1">
    <path class="cls-1" d="m43.36,31.21c-.28-.74-1.04-.97-1.69-.51l-5.79,4.12c-.65.46-1.55.31-2.01-.34l-12.19-17.11c-.46-.65-.31-1.55.34-2.01l5.79-4.12c.65-.46.68-1.25.06-1.76L16.9.4c-.61-.51-1.64-.54-2.29-.08L.77,10.18c-.65.46-.95,1.45-.67,2.19l4.99,13.34c.28.74,1.04.98,1.69.52l5.91-4.16c.65-.46,1.56-.3,2.02.34l12.34,17.15c.46.64.32,1.55-.33,2.02l-5.95,4.29c-.64.46-.67,1.25-.05,1.75l11.32,9.12c.62.5,1.65.53,2.3.07l13.55-9.66c.65-.46.95-1.45.67-2.19l-5.2-13.75Z"/>
  </g>
</svg>