<?xml version="1.0" encoding="UTF-8"?>
<svg id="Capa_2" data-name="Capa 2" xmlns="http://www.w3.org/2000/svg" viewBox="0 0 35.49 47.14">
  <defs>
    <style>
      .cls-1 {
        fill: #2d3540;
      }
    </style>
  </defs>
  <g id="Layer_1" data-name="Layer 1">
    <g>
      <path class="cls-1" d="m22.01,8.57c1.31-2.51,1.65-5.66,2.15-8.57-2.75.1-5.69.64-7.67,2.27-2.25,1.86-2.7,5.37-2.15,8.57,3.1.97,6.27.43,7.67-2.27Z"/>
      <path class="cls-1" d="m33.31,29.45c-.84-.3-1.46-.95-1.74-1.74-.45.07-.92.03-1.38-.13-1.48-.52-2.26-2.15-1.74-3.63.05-.13.1-.25.16-.37-.26-.02-.52-.07-.77-.16-1.48-.52-2.26-2.15-1.74-3.63.05-.15.12-.29.19-.43-1.26-.64-1.87-2.12-1.39-3.49.1-.29.25-.56.43-.79-.47-.09-.95-.15-1.44-.19-2.18-.16-4.27.23-6.15,1.1-1.88-.88-3.98-1.26-6.15-1.1C4.57,15.42-.6,21.45.06,30.34s6.88,17.29,13.9,16.77c1.34-.1,2.61-.51,3.79-1.18,1.18.67,2.45,1.08,3.79,1.18,7.03.52,13.25-7.87,13.9-16.77.02-.34.04-.68.05-1.01-.66.31-1.43.38-2.18.12Z"/>
      <path class="cls-1" d="m1.05,8.14c3.51,1.36,7.42,2.36,10.96,3.74,1.55.6,3.78,1.41,4.83,2.7.17.21.39.39.64.5.01,0,.02,0,.03.01.14.06.3.06.44,0h.02c.28-.13.41-.46.29-.74-.72-1.65-3.07-2.7-4.75-3.53-2.87-1.42-6.13-2.55-8.51-4.33-.2-.15-.65-.18-1.01-.04-1.29.49-1.88.72-2.97,1.18-.32.14-.3.37.04.51Z"/>
    </g>
  </g>
</svg>