<?xml version="1.0" encoding="UTF-8"?>
<svg id="Capa_2" data-name="Capa 2" xmlns="http://www.w3.org/2000/svg" viewBox="0 0 57.71 27.97">
  <defs>
    <style>
      .cls-1 {
        fill: #2d3540;
      }
    </style>
  </defs>
  <g id="Layer_1" data-name="Layer 1">
    <g>
      <path class="cls-1" d="m38.39,11.2c2.82,1.84,6.6,1.05,8.44-1.77s1.05-6.6-1.77-8.44-6.6-1.05-8.44,1.77c-1.84,2.82-1.05,6.6,1.77,8.44Z"/>
      <path class="cls-1" d="m15.02,21.89c.15,0,.3,0,.46,0,6.44-.06,11.2-1.45,13.47-2.27,2.07-.75,6.42-2.01,12.37-2.07,6.36-.06,11.02,1.27,13.23,2.07.86.31,1.81-.13,2.12-.99.31-.86-.13-1.81-.99-2.12-2.42-.88-7.51-2.34-14.39-2.27-1.03.01-2.02.05-2.97.13l-.3-.57c-.31-.59-2.37-3.53-5.9-5.07l-5.7-2.44c-3.35-1.44-7.12-1.28-10.35.44l-7.45,3.97c-1.41.75-2.03,2.44-1.27,3.85.75,1.41,2.38,1.73,3.79.97l7.45-3.97c1.65-.88,3.42-.34,5.15.39l1.72.74c-1.83,1.5-3.26,2.66-5.09,4.16-.7.57-1.43,1.12-2.18,1.63-.87.06-1.78.1-2.73.11-6.36.06-11.02-1.27-13.23-2.07-.86-.31-1.81.13-2.12.99s.13,1.81.99,2.12c2.37.86,7.28,2.27,13.93,2.27Z"/>
      <path class="cls-1" d="m56.62,22.59c-2.42-.88-7.51-2.34-14.39-2.27-6.44.06-11.2,1.45-13.47,2.27-2.07.75-6.42,2.01-12.37,2.07-.14,0-.29,0-.43,0-6.14,0-10.64-1.29-12.8-2.07-.86-.31-1.81.13-2.12.99-.31.86.13,1.81.99,2.12,2.37.86,7.28,2.27,13.93,2.27.15,0,.3,0,.46,0,6.44-.06,11.2-1.45,13.47-2.27,2.07-.75,6.42-2.01,12.37-2.07,6.36-.06,11.02,1.27,13.23,2.07.86.31,1.81-.13,2.12-.99s-.13-1.81-.99-2.12Z"/>
    </g>
  </g>
</svg>