<?xml version="1.0" encoding="UTF-8"?>
<svg id="Capa_2" data-name="Capa 2" xmlns="http://www.w3.org/2000/svg" viewBox="0 0 44.58 44.58">
  <defs>
    <style>
      .cls-1 {
        fill: #2d3540;
      }
    </style>
  </defs>
  <g id="Layer_1" data-name="Layer 1">
    <g>
      <path class="cls-1" d="m11,36.36c1.57-2.19,3.14-4.38,4.72-6.57.07-.1.09-.23.05-.34-1.04-3.04-2.03-6.1-2.98-9.17-.04-.12-.13-.21-.24-.25-2.5-.82-4.99-1.67-7.49-2.5-.16-.05-.33,0-.43.14-1.58,2.19-3.09,4.42-4.53,6.7.33,3.55,1.49,6.85,3.28,9.72,2.37.89,4.78,1.67,7.2,2.41.16.05.32,0,.42-.14Z"/>
      <path class="cls-1" d="m39.51,17.52c-2.5.84-4.99,1.69-7.5,2.51-.12.04-.21.13-.24.25-.95,3.07-1.94,6.13-2.98,9.17-.04.12-.02.24.05.34,1.58,2.18,3.16,4.36,4.73,6.55.09.13.26.19.42.14,2.43-.74,4.84-1.52,7.21-2.4,1.79-2.86,2.95-6.16,3.28-9.7-1.45-2.29-2.96-4.52-4.54-6.72-.1-.14-.27-.19-.43-.14Z"/>
      <path class="cls-1" d="m22.52,13.41c-.13-.09-.31-.09-.44,0-2.74,1.94-5.45,3.91-8.14,5.92-.13.1-.18.26-.14.42,1,3.2,2.03,6.39,3.11,9.57.05.15.19.26.35.26,3.35.04,6.71.04,10.06,0,.16,0,.3-.11.35-.26,1.08-3.18,2.11-6.36,3.11-9.57.05-.15,0-.32-.14-.42-2.69-2.01-5.4-3.98-8.14-5.92Z"/>
      <path class="cls-1" d="m4.53,16.34c-.17-2.42-.23-4.82-.21-7.23C1.6,12.8,0,17.35,0,22.29c0,.29,0,.57.02.86,1.4-2.24,2.89-4.42,4.44-6.57.05-.07.08-.16.07-.25Z"/>
      <path class="cls-1" d="m32.21,37.36c-1.59-2.18-3.2-4.35-4.8-6.53-.07-.1-.19-.16-.31-.15-3.21.05-6.43.05-9.64,0-.12,0-.24.06-.31.15-1.59,2.18-3.2,4.35-4.78,6.53-.1.13-.1.31,0,.44,1.55,2.16,3.18,4.24,4.95,6.22,1.6.36,3.26.56,4.97.56s3.36-.19,4.96-.55c1.77-1.98,3.41-4.06,4.97-6.22.1-.13.09-.31,0-.45Z"/>
      <path class="cls-1" d="m23.12,4.47c.02,2.61.04,5.23.05,7.84,0,.12.06.24.16.31,2.63,1.85,5.23,3.74,7.8,5.67.1.07.23.09.34.06,2.53-.82,5.05-1.65,7.58-2.46.15-.05.25-.18.26-.34.15-2.52.16-5.02.09-7.53-2.33-2.79-5.33-5.01-8.76-6.4-2.44.79-4.86,1.64-7.28,2.49-.15.05-.25.2-.25.36Z"/>
      <path class="cls-1" d="m33.27,37.61c-1.39,2.1-2.9,4.13-4.57,6.03,4.79-1.44,8.91-4.44,11.75-8.42-2.29.83-4.64,1.55-6.97,2.25-.08.03-.16.08-.21.15Z"/>
      <path class="cls-1" d="m40.21,9.04c.03,2.43-.01,4.85-.17,7.29,0,.09.02.18.07.25,1.55,2.13,3.04,4.29,4.45,6.51,0-.27.02-.54.02-.81,0-4.96-1.62-9.54-4.36-13.25Z"/>
      <path class="cls-1" d="m11.09,37.46c-2.32-.68-4.64-1.38-6.92-2.19,2.85,3.97,6.97,6.97,11.77,8.39-1.7-1.9-3.24-3.94-4.65-6.05-.05-.07-.12-.13-.21-.15Z"/>
      <path class="cls-1" d="m5.5,15.91c2.53.81,5.06,1.63,7.59,2.45.12.04.24.02.34-.06,2.57-1.93,5.17-3.82,7.8-5.67.1-.07.16-.19.16-.31,0-2.61.02-5.23.03-7.84,0-.16-.1-.31-.25-.36-2.41-.85-4.83-1.7-7.27-2.49-3.43,1.39-6.43,3.61-8.76,6.41-.07,2.51-.06,5.01.09,7.53,0,.16.11.29.26.34Z"/>
      <path class="cls-1" d="m22.41,3.66c2.33-.84,4.67-1.71,7.03-2.49-2.25-.76-4.65-1.17-7.16-1.17s-4.97.42-7.23,1.2c2.39.77,4.75,1.62,7.1,2.46.08.03.17.03.26,0Z"/>
    </g>
  </g>
</svg>