<?xml version="1.0" encoding="UTF-8"?>
<svg id="Capa_2" data-name="Capa 2" xmlns="http://www.w3.org/2000/svg" viewBox="0 0 55.81 42.8">
  <defs>
    <style>
      .cls-1 {
        fill: #3fc1c9;
      }
    </style>
  </defs>
  <g id="Layer_1" data-name="Layer 1">
    <path class="cls-1" d="m55.22,16.24c.62-.57.78-1.63.36-2.36l-7.41-12.77c-.42-.73-1.43-1.12-2.23-.86l-4.47,1.43c-.2.06-.37.16-.5.28l-.6-1.03c-.42-.73-1.43-1.12-2.23-.86l-7.84,2.51c-.8.26-1.11,1.06-.69,1.79l4.94,8.51-17.3,10.05-4.94-8.51c-.42-.73-1.28-.86-1.9-.29l-6.07,5.56c-.62.57-.78,1.63-.36,2.36l.6,1.03c-.17.06-.34.15-.5.3l-3.46,3.17c-.62.57-.78,1.63-.36,2.36l7.41,12.77c.42.73,1.43,1.12,2.23.86l4.47-1.43c.2-.06.37-.16.5-.28l.6,1.03c.42.73,1.43,1.12,2.23.86l7.84-2.51c.8-.26,1.11-1.06.69-1.79l-4.94-8.51,17.3-10.05,4.94,8.51c.42.73,1.28.86,1.9.29l6.07-5.56c.62-.57.78-1.63.36-2.36l-.6-1.03c.17-.06.34-.15.5-.3l3.46-3.17Z"/>
  </g>
</svg>