<?xml version="1.0" encoding="UTF-8"?>
<svg id="Capa_2" data-name="Capa 2" xmlns="http://www.w3.org/2000/svg" viewBox="0 0 58.92 32.96">
  <defs>
    <style>
      .cls-1 {
        fill: #2d3540;
      }
    </style>
  </defs>
  <g id="Layer_1" data-name="Layer 1">
    <g>
      <path class="cls-1" d="m13.96,0c-2.45,0-4.43,1.54-4.43,3.43v26.1c0,1.9,1.98,3.43,4.43,3.43s4.43-1.54,4.43-3.43V3.43c0-1.89-1.98-3.43-4.43-3.43Z"/>
      <path class="cls-1" d="m6.69,6.87h-1.86c-.74,0-1.35.6-1.35,1.35v4.64c0,.74-.6,1.35-1.35,1.35h-.79c-.74,0-1.35.6-1.35,1.35v1.86c0,.74.6,1.35,1.35,1.35h.79c.74,0,1.35.6,1.35,1.35v4.64c0,.74.6,1.35,1.35,1.35h1.86c.74,0,1.35-.6,1.35-1.35V8.22c0-.74-.6-1.35-1.35-1.35Z"/>
      <path class="cls-1" d="m44.96,0c-2.45,0-4.43,1.54-4.43,3.43v26.1c0,1.9,1.98,3.43,4.43,3.43s4.43-1.54,4.43-3.43V3.43c0-1.89-1.98-3.43-4.43-3.43Z"/>
      <path class="cls-1" d="m57.57,14.2h-.79c-.74,0-1.35-.6-1.35-1.35v-4.64c0-.74-.6-1.35-1.35-1.35h-1.86c-.74,0-1.35.6-1.35,1.35v16.52c0,.74.6,1.35,1.35,1.35h1.86c.74,0,1.35-.6,1.35-1.35v-4.64c0-.74.6-1.35,1.35-1.35h.79c.74,0,1.35-.6,1.35-1.35v-1.86c0-.74-.6-1.35-1.35-1.35Z"/>
      <rect class="cls-1" x="19.24" y="13.1" width="20.43" height="6.76"/>
    </g>
  </g>
</svg>