<?xml version="1.0" encoding="UTF-8"?>
<svg id="Capa_2" data-name="Capa 2" xmlns="http://www.w3.org/2000/svg" viewBox="0 0 46.04 47.35">
  <defs>
    <style>
      .cls-1 {
        fill: #2d3540;
      }
    </style>
  </defs>
  <g id="Layer_1" data-name="Layer 1">
    <path class="cls-1" d="m45.13,21.57c-1.8-3.2-3.75-6.49-5.88-9.84-1.8-2.83-3.6-5.52-5.4-8.08-.57-.81-1.27-1.52-2.08-2.09-1.89-1.33-4.24-1.84-6.52-1.41,0,0-2.09.37-2.2.39l-2.98.68c-.56.13-1,.54-1.18,1.08l-1.46,4.58c-.12.37-.1.77.05,1.12l.13.31c.16.39.47.69.86.86.84.35,1.93.71,3.24.89,1.62.22,3.02.08,4.07-.12.59-.11,1.07-.54,1.24-1.11.22-.72.44-1.44.66-2.15.85.15,1.56.48,1.86,1.25.78,2.04,1.71,4.48,2.53,7.78,1.2,4.82-.68,5.86-3.01,5.17-3.31-1.24-5.99-1.28-7.64-1.14-4.29.35-6.38,2.26-6.38,2.27h0s-4.2-5.09-8.72-5.31c-.98-.05-2.49.11-4.41,1.29C.78,23.18.32,27.6.13,30.85c-.43,7.21.33,10.49.65,11.71.37,1.41.81,2.65,1.25,3.71.48,1.15,1.97,1.44,2.84.55l7.48-7.59c.34.3.84.71,1.51,1.12,3.69,2.26,7.78,1.66,9.72,1.35,1.4-.23,6.76-1.07,10.31-3.75h0c3.11-2.39,6.23-4.77,9.34-7.15,2.83-2.18,3.65-6.11,1.9-9.22Zm-19.75,9.13h-.96c-.3,0-.55.24-.55.55v4.5c0,.3-.24.55-.55.55h-2.43c-.3,0-.55-.24-.55-.55v-4.5c0-.3-.24-.55-.55-.55h-.96c-.42,0-.68-.45-.47-.82l3.27-5.66c.21-.36.73-.36.94,0l3.27,5.66c.21.36-.05.82-.47.82Z"/>
  </g>
</svg>