<?xml version="1.0" encoding="UTF-8"?>
<svg id="Capa_2" data-name="Capa 2" xmlns="http://www.w3.org/2000/svg" viewBox="0 0 174.37 225.96">
  <defs>
    <style>
      .cls-1 {
        fill-rule: evenodd;
      }
    </style>
  </defs>
  <g id="Capa_1-2" data-name="Capa 1">
    <path class="cls-1" d="m28.85,31.62c-6.43,1.85-12.35,5.31-17.17,10.12C4.2,49.22,0,59.36,0,69.94v116.14c0,10.58,4.2,20.72,11.68,28.2,7.48,7.48,17.62,11.68,28.2,11.68h94.62c10.58,0,20.72-4.2,28.2-11.68,7.48-7.48,11.68-17.62,11.68-28.2v-116.14c0-10.58-4.2-20.72-11.68-28.2-4.82-4.82-10.74-8.27-17.17-10.12V3.9c0-2.15-1.74-3.9-3.9-3.9H32.75c-2.15,0-3.9,1.74-3.9,3.9v27.72h0Zm137.73,150.47v3.99c0,8.51-3.38,16.67-9.4,22.69-6.02,6.02-14.18,9.4-22.69,9.4H39.88c-8.51,0-16.67-3.38-22.69-9.4-6.02-6.02-9.4-14.18-9.4-22.69v-3.99h158.79ZM7.79,81.72v92.58h158.79v-92.58H7.79Zm60.24,60.69h38.31v12.71c0,2.15,1.74,3.9,3.89,3.9h24.02c2.15,0,3.9-1.74,3.9-3.9v-53.79c0-2.15-1.74-3.9-3.9-3.9h-24.02c-2.15,0-3.89,1.74-3.89,3.9v12.72h-38.31v-12.72c0-2.15-1.74-3.9-3.9-3.9h-24.02c-2.15,0-3.9,1.74-3.9,3.9v53.79c0,2.15,1.74,3.9,3.9,3.9h24.02c2.15,0,3.9-1.74,3.9-3.9v-12.71h0Zm62.33-37.18v46h-16.23v-46h16.23Zm-70.12,0v46h-16.23v-46h16.23Zm7.79,16.61v12.78h38.31v-12.78h-38.31Zm98.55-47.92H7.79v-3.99c0-8.51,3.38-16.67,9.4-22.69,6.02-6.02,14.18-9.4,22.69-9.4h94.62c8.51,0,16.67,3.38,22.69,9.4,6.02,6.02,9.4,14.18,9.4,22.69v3.99h0ZM36.64,30.2c1.07-.09,2.15-.13,3.23-.13h94.62c1.08,0,2.16.04,3.23.13V7.79h-13.04v11.14c0,2.15-1.75,3.9-3.9,3.9s-3.9-1.75-3.9-3.9V7.79h-13.95v11.14c0,2.15-1.74,3.9-3.9,3.9s-3.9-1.75-3.9-3.9V7.79h-13.95v11.14c0,2.15-1.74,3.9-3.9,3.9s-3.9-1.75-3.9-3.9V7.79h-13.95v11.14c0,2.15-1.75,3.9-3.9,3.9s-3.9-1.75-3.9-3.9V7.79h-15.03s0,22.4,0,22.4h0Z"/>
  </g>
</svg>