<?xml version="1.0" encoding="UTF-8"?>
<svg id="Capa_2" data-name="Capa 2" xmlns="http://www.w3.org/2000/svg" viewBox="0 0 62.02 33.22">
  <defs>
    <style>
      .cls-1 {
        fill: #2d3540;
      }
    </style>
  </defs>
  <g id="Layer_1" data-name="Layer 1">
    <g>
      <path class="cls-1" d="m5.96,26.82c.43,0,.87-.1,1.29-.3l11.07-5.49c.25-.12.54-.14.8-.03l9.4,5.24c.05.03.11.06.16.09.94.45,2,.53,3,.24,3.47-1.01,6.76-2.53,9.77-4.51,2.56-1.68,4.91-3.69,6.97-5.97,0-.01.02-.02.03-.03.02-.02.03-.04.05-.06.03-.03.06-.07.08-.1,0,0,.01-.02.02-.03.04-.05.07-.1.1-.15h0s0,0,0,0c.05-.08.1-.17.15-.25,0,0,0,0,0,0,.02-.04.04-.08.06-.12,0,0,0-.02.01-.02.02-.03.03-.07.04-.1,0-.02.01-.03.02-.05.01-.03.02-.06.03-.08,0-.02.01-.04.02-.06,0-.02.01-.04.02-.07,0-.03.01-.05.02-.08,0-.02,0-.03.01-.05,0-.03.01-.06.02-.09,0-.01,0-.03,0-.04,0-.03.01-.07.02-.1,0-.01,0-.02,0-.03,0-.04,0-.07.01-.11,0-.01,0-.02,0-.03,0-.03,0-.07,0-.11,0-.01,0-.02,0-.04,0-.03,0-.07,0-.1,0-.01,0-.03,0-.04,0-.03,0-.06,0-.09,0-.02,0-.03,0-.05,0-.03,0-.05,0-.08,0-.02,0-.04,0-.06,0-.02,0-.05,0-.07,0-.02,0-.05-.01-.07,0-.02,0-.04-.01-.06,0-.03,0-.05-.02-.08,0-.02,0-.03-.01-.05,0-.03-.01-.06-.02-.09,0-.01,0-.03-.01-.04,0-.03-.02-.07-.03-.1,0-.01,0-.02-.01-.03-.01-.03-.02-.07-.03-.1,0,0,0-.02-.01-.03-.01-.03-.03-.07-.04-.1,0,0,0-.02-.01-.03-.01-.03-.03-.06-.04-.1,0-.01-.01-.02-.02-.03-.01-.03-.03-.06-.05-.09,0-.01-.02-.03-.02-.04-.01-.03-.03-.05-.04-.08-.01-.02-.02-.04-.03-.05-.01-.02-.03-.04-.04-.06-.02-.02-.03-.05-.05-.07-.01-.01-.02-.03-.03-.04-.02-.03-.04-.06-.06-.08,0,0-.01-.02-.02-.03-.03-.03-.05-.06-.08-.09,0,0,0,0-.01-.01-.03-.03-.06-.07-.09-.1,0,0,0,0,0,0-.03-.03-.06-.06-.1-.09,0,0,0,0,0,0,0,0,0,0,0,0-.03-.03-.06-.05-.09-.07-.01,0-.02-.02-.03-.03-.02-.02-.04-.03-.06-.04-.02-.02-.04-.03-.07-.05,0,0-.02-.01-.03-.02-.03-.02-.07-.05-.1-.07,0,0,0,0,0,0-2.67-1.73-4.34-3.31-5.23-4.39.41-.01.91,0,1.51.05.95.08,1.99.24,3.08.49.19.63.49,1.24.89,1.81,1.97,2.73,5.78,3.34,8.51,1.37s3.34-5.78,1.37-8.51c-1.97-2.73-5.78-3.34-8.51-1.37-.42.3-.78.65-1.1,1.02-5.31-1.18-10.45-1.01-11.96,2.36-.87,1.94-.22,4.19,1.93,6.7.58.68,1.26,1.36,2.02,2.05-.75,1.36-1.67,2.59-2.75,3.68-.77.77-1.62,1.47-2.53,2.08-1.41.7-2.88,1.29-4.39,1.77l-8.85-4.94c-.05-.03-.11-.06-.16-.09-1.89-.9-4.05-.88-5.92.05l-11.07,5.49c-1.43.71-2.02,2.45-1.31,3.89.51,1.02,1.53,1.61,2.6,1.61Z"/>
      <path class="cls-1" d="m59.12,27.42H2.9c-1.6,0-2.9,1.3-2.9,2.9s1.3,2.9,2.9,2.9h56.22c1.6,0,2.9-1.3,2.9-2.9s-1.3-2.9-2.9-2.9Z"/>
    </g>
  </g>
</svg>