<?xml version="1.0" encoding="UTF-8"?>
<svg id="Capa_2" data-name="Capa 2" xmlns="http://www.w3.org/2000/svg" viewBox="0 0 225.96 222.2">
  <defs>
    <style>
      .cls-1 {
        fill-rule: evenodd;
      }
    </style>
  </defs>
  <g id="Capa_1-2" data-name="Capa 1">
    <path class="cls-1" d="m169.88,23.38H56.08V3.9c0-2.15-1.75-3.9-3.9-3.9s-3.9,1.75-3.9,3.9v19.49H11.69c-6.45,0-11.69,5.23-11.69,11.69v175.45c0,6.45,5.23,11.69,11.69,11.69h202.58c6.46,0,11.69-5.23,11.69-11.69V35.07c0-6.45-5.23-11.69-11.69-11.69h-36.6V3.9c0-2.15-1.75-3.9-3.9-3.9s-3.9,1.75-3.9,3.9v19.49h0Zm48.29,54.53v132.6c0,2.15-1.74,3.9-3.9,3.9H11.69c-2.15,0-3.9-1.74-3.9-3.9V77.91h210.37Zm-133.73,86.71h57.09v19.48c0,2.15,1.74,3.9,3.9,3.9h33.81c2.15,0,3.9-1.74,3.9-3.9v-75.7c0-2.15-1.74-3.9-3.9-3.9h-33.81c-2.15,0-3.9,1.74-3.9,3.9v19.48h-57.09v-19.48c0-2.15-1.74-3.9-3.9-3.9h-33.81c-2.15,0-3.9,1.74-3.9,3.9v75.7c0,2.15,1.74,3.9,3.9,3.9h33.81c2.15,0,3.9-1.74,3.9-3.9v-19.48h0Zm-7.79-52.32v67.91h-26.01v-67.91h26.01Zm98.69,0v67.91h-26.01v-67.91h26.01Zm-90.9,23.38v21.15h57.09v-21.15h-57.09ZM177.67,31.17v19.49c0,2.15-1.75,3.9-3.9,3.9s-3.9-1.75-3.9-3.9v-19.49H56.08v19.49c0,2.15-1.75,3.9-3.9,3.9s-3.9-1.75-3.9-3.9v-19.49H11.69c-2.15,0-3.9,1.74-3.9,3.9v35.05h210.37v-35.05c0-2.15-1.74-3.9-3.9-3.9h-36.6Z"/>
  </g>
</svg>