<?xml version="1.0" encoding="UTF-8"?>
<svg id="Capa_2" data-name="Capa 2" xmlns="http://www.w3.org/2000/svg" viewBox="0 0 233.85 195.97">
  <g id="Layer_1" data-name="Layer 1">
    <g>
      <path d="m100.8,30.83c4.6,11.55,17.68,17.18,29.23,12.58,11.55-4.6,17.18-17.68,12.58-29.23-4.6-11.55-17.68-17.18-29.23-12.58-11.54,4.6-17.18,17.68-12.58,29.23Z"/>
      <path d="m112.65,73.41c0,.18.02.35.03.53l17.17,55.94c.56.74,1.12,1.42,1.67,2.04,1.9,2.14,3.79,3.64,5.67,4.64l20.33-3.62,25.61-28.81-28.89,4.75c-2.77-8.25-3.66-17.4-4.39-25.92l-18.32-3.34c-2.71-.49-5.06-2.01-6.62-4.27-1.57-2.26-2.16-5-1.66-7.71.89-4.9,5.15-8.45,10.12-8.45.62,0,1.25.06,1.87.17l11.7,2.13c-2.65-8.11-9.3-14.58-16.52-13.6-8.14,1.1-17.2,8.91-17.77,22.52-.04.97-.04,1.98,0,3.01Z"/>
      <path d="m184.47,128.14c5.47-.97,10.71,2.68,11.69,8.15.47,2.66-.16,5.27-1.55,7.36l14.23,38.03c1.88,5.02,6.64,8.12,11.71,8.12,1.45,0,2.94-.26,4.38-.8,6.47-2.42,9.75-9.62,7.33-16.09l-23.49-62.78c-1.61-4.29-5.37-7.25-9.71-7.95l-24.67,27.76,10.1-1.8Z"/>
      <path d="m187.48,145.02c3.83-.68,6.41-4.38,5.72-8.21-.68-3.83-4.38-6.41-8.21-5.72l-13.84,2.47-15.18,17.08,2.11-.38.71,2.92,7.93,32.79h-28.38c-2.75,4.09-7.42,6.78-12.71,6.78s-9.96-2.69-12.71-6.78h-18.31v-98.84l-7.44-24.24c-.86-2.83-.57-5.83.83-8.44,1.4-2.62,3.72-4.53,6.54-5.39.02,0,.05-.01.07-.02v-5.24c0-12.1-9.9-22-22-22h-40.13c-12.1,0-22,9.9-22,22v142.17H0v10h202.74v-10h-25.72l-8.36-34.54-.71-2.92,19.53-3.48Zm-162,23.67h13.99v9.14h-13.99v-9.14Zm37.48-92.57v3.75h-20.84v-3.75h20.84Zm-20.84-4.74v-34.59h20.84v34.59h-20.84Zm20.84,13.23v3.75h-20.84v-3.75h20.84Zm0,8.49v3.75h-20.84v-3.75h20.84Zm0,8.49v3.75h-20.84v-3.75h20.84Zm0,8.49v3.75h-20.84v-3.75h20.84Zm-18.27,13.1l2.19-4.61h11.32l2.19,4.61h2.57v37.52h-20.84v-37.52h2.57Zm18.27,45.52v9.14h-20.84v-9.14h20.84Zm2.65,0h13.99v9.14h-13.99v-9.14Zm13.99-124.9v116.9h-13.99v-37.52h2.57l2.19-4.61h3.58v-4.74h-8.34v-3.75h8.34v-4.74h-8.34v-3.75h8.34v-4.74h-8.34v-3.75h8.34v-4.74h-8.34v-3.75h8.34v-4.74h-8.34v-3.75h8.34v-4.74h-8.34v-34.59h6.99c3.79,0,7,3.21,7,7Zm-47.13-7h6.99v34.59h-8.34v4.74h8.34v3.75h-8.34v4.74h8.34v3.75h-8.34v4.74h8.34v3.75h-8.34v4.74h8.34v3.75h-8.34v4.74h8.34v3.75h-8.34v4.74h3.58l2.19,4.61h2.57v37.52h-13.99V43.8c0-3.79,3.21-7,7-7Z"/>
      <polygon points="137.25 153.98 139.13 153.64 154.31 136.57 133.07 140.35 137.25 153.98"/>
      <path d="m95.7,52.89h0c-3.72,1.13-5.84,5.1-4.71,8.83l30.3,98.73c1.13,3.72,14.67-.4,13.53-4.12l-30.3-98.73c-1.13-3.72-5.1-5.84-8.83-4.71Z"/>
      <path d="m132.99,164.01c1.77.98,3.33,2.3,4.59,3.87l66.67-75-6.91-1.26-64.35,72.39Z"/>
      <path d="m233.85,79.87c-.82-2.65-2.75-4.94-5.48-6.12l-10.67-4.6c-1.52-.66-3.29.05-3.94,1.57-.45,1.04-.25,2.18.4,3.02l13.56,2.47c2.52.46,4.65,1.81,6.14,3.66Z"/>
      <path d="m125.63,165.12c-6.8,0-12.32,5.51-12.32,12.32s5.51,12.32,12.32,12.32,12.32-5.51,12.32-12.32-5.51-12.32-12.32-12.32Zm7.32,12.32c0,4.03-3.28,7.32-7.32,7.32s-7.32-3.28-7.32-7.32,3.28-7.32,7.32-7.32,7.32,3.28,7.32,7.32Z"/>
      <path d="m224.42,94.22c.49.09.97.13,1.44.13,3.79,0,7.16-2.7,7.86-6.57.79-4.35-2.09-8.51-6.43-9.31l-92.46-16.86c-4.36-.8-8.51,2.09-9.31,6.43-.79,4.35,2.09,8.51,6.43,9.31l92.46,16.86Z"/>
    </g>
  </g>
</svg>