<?xml version="1.0" encoding="UTF-8"?>
<svg id="Capa_2" data-name="Capa 2" xmlns="http://www.w3.org/2000/svg" viewBox="0 0 39.42 49.89">
  <defs>
    <style>
      .cls-1 {
        fill: #2d3540;
      }
    </style>
  </defs>
  <g id="Layer_1" data-name="Layer 1">
    <g>
      <path class="cls-1" d="m24.59,7.9c1.31-.12,2.33-.24,3.15-.33,2.01-.23,3.02-.34,4.57-.11,1.21.18,2.4.53,3.55,1.02-.2-.3-.41-.58-.64-.85-.26-.3-1.21-1.34-1.89-3.02-.61-1.52-.73-2.92-.74-3.86-3.9-1.15-6.68-.79-8.52-.22-2.8.86-3.88,2.33-6.48,2.59-2.71.27-5.06-.97-6.63-2.06-.04,2.65-.45,4.72-1.04,6.34,2.14.54,4.29.85,6.42.94,2.42.1,4.62-.11,8.26-.44Z"/>
      <path class="cls-1" d="m12.57,18.23c1.08-1.65,2.62-3.39,4.78-4.72,4.29-2.63,8.77-2.26,12.37-1.96l.31.03c2.67.22,5.28.82,7.79,1.8-.25-1.03-.54-1.99-.9-2.86-1.54-.9-3.15-1.48-4.81-1.73-1.37-.21-2.26-.11-4.21.12-.83.09-1.86.21-3.18.33-3.7.34-5.93.55-8.44.45-2.29-.09-4.6-.44-6.9-1.03-.48.98-1.04,1.76-1.59,2.37.44.19.87.42,1.3.72,2.26,1.57,3.23,4.2,3.48,6.49Z"/>
      <path class="cls-1" d="m39.3,24.8c-.3-3.5-.59-6.89-1.15-9.83-2.64-1.13-5.41-1.82-8.24-2.05l-.31-.03c-3.58-.3-7.65-.63-11.56,1.77-2.95,1.81-4.64,4.49-5.55,6.48,0,0,0,.02,0,.03,0,.04-.02.09-.03.14-.03.16-.07.33-.1.59,0,.02-.24,2.06.65,4.39,1.37,3.58,6.49,7.26,7.36,7.53.35.11.55.48.45.84-.09.29-.35.48-.64.48-.06,0-.13,0-.2-.03-.55-.17-1.72-.9-3.03-1.97l1.58,15.5c2.2.79,4.86,1.26,7.74,1.26,4.93,0,9.25-1.36,11.65-3.4.03-.05.06-.1.09-.16.47-.92.52-1.71.6-3.25.5-9.41,1.04-14.1.68-18.29Z"/>
      <path class="cls-1" d="m15.22,31.57s-.04.07-.07.11c-.25.38-.92,1.39-2.17,1.79-.33.11-.68.16-1.04.16-.05,0-.11,0-.16,0-.37-.02-.66-.33-.64-.7.02-.37.33-.66.7-.64.25.01.5-.02.74-.09.8-.25,1.24-.92,1.46-1.24.08-.12.15-.25.22-.38-1.07-1.19-1.99-2.5-2.49-3.79-1.02-2.66-.74-4.94-.73-5.04.04-.28.08-.49.11-.65,0-.11,0-.22.06-.32,0,0,0-.01,0-.02.29-1.84-.03-5.91-2.89-7.9-.57-.4-1.17-.67-1.77-.84-3.81,1.52-6.55,5.71-6.55,10.65,0,4.39,2.17,8.19,5.34,10.05.16.48.3,1.02.41,1.62.1.53.04.39.3,2.65.49,4.14.78,6.63,1.06,7.56.15.48.41.94.78,1.39,1.12.78,2.46,1.45,3.96,1.91,1.87.58,3.7.76,5.32.6l-1.69-16.61c-.09-.08-.17-.17-.26-.25Z"/>
    </g>
  </g>
</svg>