<?xml version="1.0" encoding="UTF-8"?>
<svg id="Capa_2" data-name="Capa 2" xmlns="http://www.w3.org/2000/svg" viewBox="0 0 55.02 46.05">
  <defs>
    <style>
      .cls-1 {
        fill: #2d3540;
      }
    </style>
  </defs>
  <g id="Layer_1" data-name="Layer 1">
    <path class="cls-1" d="m52.12,0H2.9C1.3,0,0,1.3,0,2.9v31.6c0,1.6,1.3,2.9,2.9,2.9h14.57c.34,1.87.48,3.78.43,5.68-.04,1.6,1.22,2.93,2.82,2.97.03,0,.05,0,.08,0,1.57,0,2.86-1.25,2.9-2.82.07-2.83-.21-5.66-.84-8.41-.36-1.59-.84-3.15-1.43-4.67h12.16c-.59,1.52-1.07,3.08-1.43,4.67-.63,2.75-.91,5.58-.84,8.41.04,1.57,1.33,2.82,2.9,2.82.03,0,.05,0,.08,0,1.6-.04,2.86-1.37,2.82-2.97-.05-1.91.1-3.81.43-5.68h14.57c1.6,0,2.9-1.3,2.9-2.9V2.9c0-1.6-1.3-2.9-2.9-2.9Zm-2.9,31.6h-9.97c.42-1,.89-1.98,1.42-2.93,0,0,0,0,0,0,.02-.04.04-.08.06-.12,0,0,0,0,0,0,.02-.04.04-.09.06-.13,0,0,0,0,0,0,.02-.04.03-.08.05-.13,0,0,0,0,0-.01.01-.04.03-.07.04-.11,0,0,0-.02.01-.03,0-.03.02-.06.02-.08,0-.02.01-.04.02-.06,0-.02,0-.04.01-.05,0-.03.01-.06.02-.09,0,0,0-.02,0-.03,0-.04.02-.08.02-.12,0,0,0,0,0,0,.01-.1.02-.19.03-.29,0,0,0,0,0,0,0-.05,0-.09,0-.14,0,0,0,0,0,0,0,0,0,0,0-.01,0-.04,0-.08,0-.12,0-.01,0-.03,0-.04,0-.03,0-.06,0-.09,0-.02,0-.04,0-.07,0-.02,0-.04,0-.07,0-.03,0-.06-.01-.09,0-.01,0-.03,0-.04,0-.04-.01-.07-.02-.11v-.02s-.02-.08-.04-.12c0,0,0,0,0-.01-.01-.04-.02-.08-.04-.12,0,0,0,0,0,0-.01-.04-.03-.08-.04-.12,0,0,0,0,0,0-.02-.04-.03-.08-.05-.12,0,0,0-.01,0-.02-.02-.03-.03-.07-.05-.1,0-.01-.01-.02-.02-.04-.01-.03-.03-.05-.04-.08-.01-.02-.02-.04-.03-.06-.01-.02-.02-.04-.04-.06-.02-.02-.03-.05-.05-.07,0-.01-.02-.03-.03-.04-.02-.03-.04-.06-.06-.09,0,0-.01-.01-.02-.02-.02-.03-.05-.06-.07-.09,0,0,0,0,0-.01-.03-.03-.05-.06-.08-.1,0,0,0,0,0,0-.03-.03-.06-.06-.09-.09,0,0,0,0-.01-.01-.03-.03-.06-.06-.09-.08,0,0-.01-.01-.02-.02-.03-.02-.05-.05-.08-.07-.01,0-.02-.02-.03-.03-.02-.02-.05-.04-.07-.05-.02-.01-.04-.03-.06-.04-.02-.01-.03-.02-.05-.04-.03-.02-.05-.04-.08-.05-.01,0-.02-.01-.03-.02-.04-.02-.07-.04-.11-.06,0,0,0,0,0,0,0,0,0,0,0,0-.04-.02-.08-.05-.13-.07h0c-.09-.04-.17-.08-.27-.12,0,0,0,0,0,0-.04-.01-.08-.03-.12-.04,0,0-.02,0-.02,0-.03,0-.06-.02-.09-.03-.02,0-.03-.01-.05-.01-.02,0-.04,0-.06-.01-.03,0-.06-.01-.08-.02-.01,0-.02,0-.03,0-.04,0-.08-.01-.11-.02,0,0,0,0-.01,0-.04,0-.09-.01-.13-.02,0,0,0,0,0,0-.05,0-.1,0-.14-.01,0,0,0,0,0,0-.05,0-.09,0-.14,0,0,0,0,0,0,0h-21.28s0,0,0,0c-.04,0-.09,0-.13,0,0,0,0,0-.01,0-.05,0-.09,0-.14.01,0,0,0,0,0,0-.04,0-.09.01-.13.02,0,0-.01,0-.02,0-.04,0-.07.01-.11.02-.01,0-.03,0-.04,0-.03,0-.05.01-.08.02-.02,0-.04,0-.07.02-.02,0-.03,0-.05.01-.03,0-.06.02-.1.03,0,0-.01,0-.02,0-.04.01-.08.03-.12.04,0,0,0,0,0,0-.09.03-.18.07-.27.12h0s-.09.04-.13.07c0,0,0,0,0,0,0,0,0,0,0,0-.04.02-.07.04-.11.06-.01,0-.02.01-.03.02-.03.02-.05.04-.08.05-.02.01-.03.02-.05.04-.02.01-.04.03-.06.04-.02.02-.05.04-.07.05-.01,0-.02.02-.03.03-.03.02-.05.05-.08.07,0,0-.01.01-.02.02-.03.03-.06.05-.09.08h-.01s-.06.07-.09.1c0,0,0,0,0,0-.03.03-.06.06-.08.1,0,0,0,0,0,.01-.03.03-.05.06-.07.09,0,0-.01.01-.02.02-.02.03-.04.06-.06.09,0,.01-.02.03-.03.04-.02.02-.03.05-.05.07-.01.02-.02.04-.04.06-.01.02-.02.04-.03.06-.01.03-.03.05-.04.08,0,.01-.01.02-.02.04-.02.03-.03.07-.05.1,0,0,0,.01,0,.02-.02.04-.03.08-.05.12,0,0,0,0,0,0-.02.04-.03.08-.04.12,0,0,0,0,0,0-.01.04-.03.08-.04.12,0,0,0,0,0,.01-.01.04-.02.08-.03.12v.02s-.02.07-.03.11c0,.01,0,.03,0,.04,0,.03,0,.06-.01.09,0,.02,0,.04,0,.07,0,.02,0,.04,0,.07,0,.03,0,.06,0,.09,0,.01,0,.03,0,.04,0,.04,0,.08,0,.12,0,0,0,0,0,.01,0,0,0,0,0,0,0,.05,0,.09,0,.14,0,0,0,0,0,0,0,.1.01.19.03.29,0,0,0,0,0,0,0,.04.01.08.02.12,0,0,0,.02,0,.03,0,.03.01.06.02.09,0,.02,0,.04.01.05,0,.02.01.04.02.06,0,.03.02.06.02.08,0,0,0,.02.01.03.01.04.02.07.04.11,0,0,0,0,0,.01.02.04.03.08.05.13,0,0,0,0,0,0,.02.04.04.09.06.13,0,0,0,0,0,0,.02.04.04.08.06.12,0,0,0,0,0,0,.53.95,1.01,1.93,1.42,2.93H5.8V5.8h43.43v25.8Z"/>
  </g>
</svg>