<?xml version="1.0" encoding="UTF-8"?>
<svg id="Capa_2" data-name="Capa 2" xmlns="http://www.w3.org/2000/svg" viewBox="0 0 225.95 204.02">
  <defs>
    <style>
      .cls-1 {
        fill-rule: evenodd;
      }
    </style>
  </defs>
  <g id="Capa_1-2" data-name="Capa 1">
    <path class="cls-1" d="m19.54,115.42l85.18,85.18c4.56,4.57,11.96,4.57,16.53,0l84.87-84.87c26.46-26.46,26.46-69.43,0-95.89-25.56-25.56-66.52-26.43-93.13-2.61C86.37-6.58,45.41-5.72,19.85,19.85c-26.36,26.36-26.46,69.09-.31,95.58h0Zm5.54-5.48C1.94,86.5,2.03,48.68,25.35,25.35,48.77,1.93,86.8,1.93,110.22,25.35c1.52,1.52,3.99,1.52,5.51,0,23.42-23.42,61.45-23.42,84.87,0,23.42,23.42,23.42,61.45,0,84.87l-84.87,84.87c-1.52,1.52-3.99,1.52-5.51,0L25.08,109.94h0Zm37.37-25.63l40.96,40.96c1.52,1.52,3.99,1.52,5.51,0l66.94-66.94c1.52-1.52,1.52-3.99,0-5.51-1.52-1.52-3.99-1.52-5.51,0l-64.18,64.18s-38.21-38.21-38.21-38.21c-1.52-1.52-3.99-1.52-5.51,0-1.52,1.52-1.52,3.99,0,5.51h0Z"/>
  </g>
</svg>