<?xml version="1.0" encoding="UTF-8"?>
<svg id="Capa_2" data-name="Capa 2" xmlns="http://www.w3.org/2000/svg" viewBox="0 0 57.5 53.41">
  <defs>
    <style>
      .cls-1 {
        fill: #2d3540;
      }
    </style>
  </defs>
  <g id="Layer_1" data-name="Layer 1">
    <path class="cls-1" d="m56.15.45c-1.35-.86-3.14-.45-4,.9l-6.51,10.3c-.13.21-.29.41-.47.58-.64.64-1.49.99-2.39.99-.45,0-.89-.09-1.3-.26l.63-.63c1.13-1.13,1.13-2.97,0-4.1-1.13-1.13-2.97-1.13-4.1,0l-5.23,5.23c-1.13,1.13-1.13,2.97,0,4.1.57.57,1.31.85,2.05.85s1.48-.28,2.05-.85l.39-.39c.54.41,1.12.75,1.73,1.03l-4.31,9.09c-.66-.12-1.33-.18-2.02-.18-.8,0-1.6.09-2.39.25-.01,0-.02,0-.03,0-.22.05-.43.1-.64.16l-14.68,3.64-1.83-4.36c1.49-.12,2.67-1.37,2.67-2.89,0-1.6-1.3-2.9-2.9-2.9h-4.09s-.04,0-.06,0H2.9c-1.6,0-2.9,1.3-2.9,2.9s1.3,2.9,2.9,2.9h3.91l2.42,5.76c-1.87.58-3.55,1.75-4.82,3.37-1.49,1.91-2.31,4.33-2.31,6.83,0,5.85,4.43,10.62,9.89,10.62h20.68c3.31,0,6.4-1.4,8.71-3.95,2.24-2.47,3.47-5.73,3.47-9.19s-1.23-6.72-3.47-9.19c-.45-.49-.92-.94-1.42-1.35l5.22-11.02c1.54-.41,2.95-1.22,4.1-2.38.48-.48.9-1.01,1.27-1.58l6.51-10.3c.86-1.35.45-3.14-.9-4Zm-23.49,47.16H11.98c-2.25,0-4.09-2.16-4.09-4.82,0-2.38,1.5-4.43,3.5-4.77.04,0,.07-.02.11-.02l1.81,4.31c.47,1.11,1.54,1.78,2.67,1.78.37,0,.75-.07,1.12-.23,1.48-.62,2.17-2.32,1.55-3.8l-1.46-3.47,13.85-3.44s.06-.02.09-.02c.11-.03.23-.06.35-.09.39-.08.78-.12,1.17-.12.82,0,1.6.18,2.32.5,0,0,0,0,0,0,0,0,.01,0,.02,0,2.36,1.08,4.03,3.73,4.03,6.83,0,4.05-2.86,7.35-6.38,7.35Z"/>
  </g>
</svg>