<?xml version="1.0" encoding="UTF-8"?>
<svg id="Capa_2" data-name="Capa 2" xmlns="http://www.w3.org/2000/svg" viewBox="0 0 40.25 38.26">
  <defs>
    <style>
      .cls-1 {
        fill: #2d3540;
      }
    </style>
  </defs>
  <g id="Layer_1" data-name="Layer 1">
    <g>
      <path class="cls-1" d="m28.99,21.47c-3.52-1.69-6.73-2.4-9.72-2.83-5.38,1.51-10.94,2.88-16.89,1.99-.06,0-.12-.02-.18-.03,4.38,3.97,8.97,4.4,13.66,5.18,3.93-.73,8.34-1.62,13.13-4.32Z"/>
      <path class="cls-1" d="m38.77.02c-1.15-.05-2.28-.02-3.39.09l.49,4.08c.05.39-.23.74-.61.78-.03,0-.06,0-.09,0-.35,0-.65-.26-.7-.62l-.49-4.08c-1.95.29-3.84.79-5.69,1.41l.76,4.15c.07.36-.17.71-.53.77-.04,0-.08.01-.12.01-.31,0-.59-.22-.65-.54l-.72-3.94c-2.11.78-4.19,1.71-6.25,2.67l.59,3.59c.05.29-.15.57-.44.62-.03,0-.06,0-.09,0-.26,0-.49-.19-.53-.45l-.54-3.29c-2.21,1.03-4.42,2.08-6.66,3l.5,2.95c.04.25-.13.48-.37.52-.03,0-.05,0-.08,0-.22,0-.41-.16-.45-.38l-.46-2.76c-2.09.82-4.22,1.5-6.41,1.94l.25,2.77c.02.23-.15.43-.38.45-.01,0-.03,0-.04,0-.21,0-.39-.16-.41-.38l-.24-2.69c-1.42.24-2.87.38-4.35.39-1.05,3.22-.77,5.76.51,8.64,13.07,2.49,24-6.19,37.02-4.85,1.87-5.18,3.27-10.2.6-14.9Z"/>
      <path class="cls-1" d="m28.31,22.92c.04.45.06.9.05,1.34,0,.92-.1,1.85-.28,2.76-.03.18-.19.3-.37.3-.02,0-.05,0-.07,0-.2-.04-.33-.24-.29-.44.17-.86.26-1.75.26-2.62,0-.33,0-.66-.03-.99-1.46.69-2.88,1.23-4.25,1.67-.03.79-.11,1.58-.21,2.35-.03.19-.19.32-.37.32-.02,0-.03,0-.05,0-.2-.03-.35-.22-.32-.42.09-.67.16-1.34.19-2.02-1.64.49-3.22.84-4.75,1.14-.03.7-.08,1.4-.15,2.1-.02.19-.18.33-.37.33-.01,0-.03,0-.04,0-.2-.02-.35-.21-.33-.41.07-.62.11-1.24.14-1.87-1.85.35-3.61.65-5.3,1.04-.02.58-.04,1.16-.05,1.73,0,.2-.17.37-.37.37h0c-.21,0-.37-.17-.37-.38,0-.51.02-1.03.04-1.54-1.41.36-2.76.8-4.07,1.42-.09.78-.15,1.57-.17,2.35,0,.2-.17.36-.37.36,0,0,0,0-.01,0-.21,0-.37-.18-.36-.38.02-.64.06-1.29.12-1.93-.51.28-1.02.59-1.52.93-1.05,3.22-.46,4.93.81,7.82,6.96-10.68,17.35-3.81,23.14-6.71,2.1-2.09,4.14-4.88,1.47-9.57-.59.34-1.18.66-1.76.95Z"/>
    </g>
  </g>
</svg>