<?xml version="1.0" encoding="UTF-8"?>
<svg id="Capa_2" data-name="Capa 2" xmlns="http://www.w3.org/2000/svg" viewBox="0 0 59.71 39.54">
  <defs>
    <style>
      .cls-1 {
        fill: #2d3540;
      }
    </style>
  </defs>
  <g id="Layer_1" data-name="Layer 1">
    <g>
      <g>
        <path class="cls-1" d="m46.29,8.29c2.29,0,4.15-1.86,4.15-4.15s-1.86-4.15-4.15-4.15-4.15,1.86-4.15,4.15,1.86,4.15,4.15,4.15Z"/>
        <path class="cls-1" d="m59.69,10.98l-1.31-9.4c-.13-.92-.98-1.57-1.91-1.44-.92.13-1.57.98-1.44,1.91l1.06,7.53c-.15.13-.37.17-.62.14-.95-.16-1.67-.04-2.1.08-1.13.31-1.59.93-1.59.93h0s-1.12-.93-2.24-.99c0,0,0,0,0,0h0c-.06,0-.13,0-.19,0h-3.05s-3.05,0-3.05,0c-.06,0-.13,0-.19,0h0s0,0,0,0c-1.11.06-2.23.99-2.24.99h0s-.46-.62-1.59-.93c-.43-.12-1.15-.25-2.1-.08-.25.03-.48-.02-.62-.14l1.06-7.53c.13-.92-.52-1.78-1.44-1.91-.92-.13-1.78.52-1.91,1.44l-1.31,9.4c-.06.46.07.93.36,1.3.14.13.31.28.51.44.4.44.79.89,1.19,1.33h0c.81.9,2.21,1.4,2.57,1.53.5.18,1.57.55,2.67.13.2-.08.36-.16.46-.22,0,0,.98,1.28,1.18,1.77.11.28.1.61.13.93.09.9.07,1.73-.01,2.46-.06.56-.1,1.12-.11,1.68,0,.04,0,.07,0,.11v15.12c0,1.09.88,1.97,1.97,1.97s1.97-.88,1.97-1.97v-12.36h1.01v12.36c0,1.09.88,1.97,1.97,1.97s1.97-.88,1.97-1.97v-15.12s0-.08,0-.11c-.01-.56-.05-1.12-.11-1.68-.08-.74-.1-1.56-.01-2.46.03-.33.02-.65.13-.93.2-.49,1.18-1.77,1.18-1.77.11.06.26.15.46.22,1.1.42,2.17.05,2.67-.13.36-.13,1.76-.63,2.57-1.53h0c.4-.44.79-.89,1.19-1.33.21-.16.38-.31.51-.44.3-.36.43-.83.36-1.3Z"/>
      </g>
      <path class="cls-1" d="m35.27,19.95l-5.55-5.34c-.11-.1-.24.03-.24.24v2.63h-4.79c-.19,0-.35.26-.35.58v4.16c0,.32.16.58.35.58h4.79v2.73c0,.21.14.34.24.24l5.55-5.34c.11-.1.11-.37,0-.47Z"/>
      <path class="cls-1" d="m13.2,8.29c2.29,0,4.15-1.86,4.15-4.15S15.49,0,13.2,0s-4.15,1.86-4.15,4.15,1.86,4.15,4.15,4.15Z"/>
      <path class="cls-1" d="m26.27,2.76l-.13-.82c-.17-1.09-1.21-1.87-2.3-1.68-1.06.19-1.77,1.18-1.61,2.25l.14.9c.26,1.66-.15,3.36-1.18,4.69-.04.05-.07.09-.11.13-1.25,1.52-3.3,2.13-5.21,1.62-.08-.02-.17-.04-.27-.07-1.59-.36-3.25-.36-4.84,0-.1.02-.19.04-.27.07-1.9.51-3.95-.1-5.21-1.62-.04-.04-.07-.09-.11-.13-1.03-1.32-1.44-3.03-1.18-4.69l.14-.9c.17-1.06-.55-2.06-1.61-2.25C1.46.06.42.84.25,1.94l-.13.82c-.43,2.74.25,5.55,1.95,7.74.67.86,1.46,1.6,2.34,2.18,1.15.76,1.73,2.13,1.51,3.49-.15.95-.23,2.02-.23,3.22,0,2.09.25,3.62.69,4.74.51,2.53,2.13,10.64,2.37,13.55.08,1.01.9,1.83,1.91,1.85,1.11.03,2.02-.86,2.02-1.97v-10.36c.17,0,.34,0,.51,0s.34,0,.51,0v10.36c0,1.11.91,2,2.02,1.97,1.01-.03,1.83-.84,1.91-1.85.23-2.92,1.85-11.03,2.37-13.55.44-1.12.69-2.65.69-4.74,0-1.2-.08-2.27-.23-3.22-.21-1.36.37-2.73,1.51-3.49.88-.59,1.67-1.32,2.34-2.18,1.7-2.19,2.38-5,1.95-7.74Z"/>
    </g>
  </g>
</svg>