<?xml version="1.0" encoding="UTF-8"?>
<svg id="Capa_2" data-name="Capa 2" xmlns="http://www.w3.org/2000/svg" viewBox="0 0 177.91 225.96">
  <defs>
    <style>
      .cls-1 {
        fill-rule: evenodd;
      }
    </style>
  </defs>
  <g id="Capa_1-2" data-name="Capa 1">
    <path class="cls-1" d="m177.91,3.9c0-2.15-1.75-3.9-3.9-3.9H3.9C1.74,0,0,1.74,0,3.9v218.16c0,2.15,1.74,3.9,3.9,3.9h170.12c2.15,0,3.9-1.74,3.9-3.9V3.9h0Zm-7.79,3.9v210.37H7.79V7.79h162.33Zm-98.86,172.65h35.39v11.66c0,2.15,1.74,3.9,3.9,3.9h22.5c2.15,0,3.9-1.74,3.9-3.9v-50.39c0-2.15-1.74-3.9-3.9-3.9h-22.5c-2.15,0-3.9,1.74-3.9,3.9v11.66h-35.39v-11.66c0-2.15-1.74-3.9-3.9-3.9h-22.5c-2.15,0-3.9,1.74-3.9,3.9v50.39c0,2.15,1.74,3.9,3.9,3.9h22.5c2.15,0,3.9-1.74,3.9-3.9v-11.66h0Zm43.18,7.77v-42.59h14.71v42.59h-14.71Zm-50.98-42.59v42.59h-14.71v-42.59h14.71Zm7.79,15.56v11.47h35.39v-11.47h-35.39Zm-39.71-54.92l11.24,10.09c1.48,1.33,3.73,1.33,5.21,0l22.47-20.18c1.6-1.44,1.73-3.9.3-5.5-1.44-1.6-3.9-1.73-5.5-.3l-19.87,17.84-8.63-7.75c-1.6-1.44-4.06-1.31-5.5.29-1.44,1.6-1.3,4.06.29,5.5h0Zm58.45,1h53.76c2.15,0,3.9-1.75,3.9-3.9s-1.75-3.9-3.9-3.9h-53.76c-2.15,0-3.9,1.75-3.9,3.9s1.75,3.9,3.9,3.9h0Zm-58.45-30.06l11.24,10.09c1.48,1.33,3.73,1.33,5.21,0l22.47-20.18c1.6-1.44,1.73-3.9.3-5.5-1.44-1.6-3.9-1.73-5.5-.29l-19.87,17.84s-8.63-7.75-8.63-7.75c-1.6-1.44-4.06-1.3-5.5.3-1.44,1.6-1.3,4.06.29,5.5h0Zm58.45,1h53.76c2.15,0,3.9-1.75,3.9-3.89s-1.75-3.9-3.9-3.9h-53.76c-2.15,0-3.9,1.74-3.9,3.9s1.75,3.89,3.9,3.89h0Zm-58.45-30.06l11.24,10.09c1.48,1.33,3.73,1.33,5.21,0l22.47-20.18c1.6-1.44,1.73-3.9.3-5.5-1.44-1.6-3.9-1.73-5.5-.29l-19.87,17.84-8.63-7.75c-1.6-1.44-4.06-1.3-5.5.29-1.44,1.6-1.3,4.06.29,5.5h0Zm58.45,1h53.76c2.15,0,3.9-1.75,3.9-3.9s-1.75-3.9-3.9-3.9h-53.76c-2.15,0-3.9,1.75-3.9,3.9s1.75,3.9,3.9,3.9h0Z"/>
  </g>
</svg>