<?xml version="1.0" encoding="UTF-8"?>
<svg id="Capa_2" data-name="Capa 2" xmlns="http://www.w3.org/2000/svg" viewBox="0 0 44.58 44.58">
  <defs>
    <style>
      .cls-1 {
        fill: #2d3540;
      }
    </style>
  </defs>
  <g id="Layer_1" data-name="Layer 1">
    <g>
      <path class="cls-1" d="m17.95,14.08c-1.4,2.98-2.29,6.21-2.66,9.6.19.03.37.06.56.09,3.62.56,7.41.34,10.98-.61.38-3.68,1.34-7.19,2.86-10.43.93-1.97,2.19-4.68,4.97-7.08.41-.35.83-.68,1.27-1-1.25-.97-2.61-1.81-4.05-2.5-2.83.83-6.34,2.42-9.41,5.45-2.77,2.74-4.09,5.55-4.52,6.47Z"/>
      <path class="cls-1" d="m5.25,19.67c.06.04.12.09.19.13,1.42.95,4.15,2.51,7.92,3.47.41-3.53,1.35-6.9,2.81-10.02,1.28-2.72,2.89-5.02,4.92-7.03,2.57-2.54,5.41-4.15,7.98-5.17C27.02.39,24.83.03,22.56,0c-2.89.8-6.87,2.48-10.43,5.98-4.94,4.85-6.43,10.54-6.88,13.69Z"/>
      <path class="cls-1" d="m10.39,33.9c4.29,1.96,8.3,2.39,10.9,2.41,3.49.03,7.01-.66,10.25-1.99-.09-.95-.25-1.88-.47-2.79-.48-1.93-1.13-4.58-3.36-6.5-.02-.02-.04-.04-.06-.05-2.53.71-5.17,1.07-7.79,1.07-1.44,0-2.88-.11-4.3-.33-5.45-.84-9.36-3.04-11.21-4.28-1.42-.95-2.75-2.04-3.96-3.25-.25,1.33-.38,2.7-.38,4.11,0,1.19.09,2.36.28,3.51,2.15,2.76,5.43,5.96,10.11,8.1Z"/>
      <path class="cls-1" d="m44.58,22.29c0-6.44-2.73-12.24-7.1-16.31-.54.36-1.05.74-1.53,1.16-1.62,1.41-2.66,2.92-3.44,4.35.09.03.18.07.26.1,3.36,1.33,5.09,4.01,6.24,5.79,2.31,3.58,3.1,7.03,3.33,8.35.36,2.05.4,3.99.25,5.79,1.28-2.81,1.99-5.94,1.99-9.23Z"/>
      <path class="cls-1" d="m3.48,18.34c.66-3.53,2.45-9.01,7.28-13.76,1.38-1.36,2.82-2.46,4.24-3.36C8.25,3.56,2.97,9.04.93,15.91c.79.87,1.65,1.68,2.55,2.43Z"/>
      <path class="cls-1" d="m37.35,18.44c-1.07-1.66-2.54-3.94-5.31-5.03-.14-.06-.28-.11-.43-.16-.05.1-.1.21-.14.31-1.43,3.04-2.33,6.34-2.68,9.81.07.06.14.11.21.17,2.71,2.34,3.47,5.46,3.98,7.52.62,2.51.78,5.23.48,7.88-.11.99-.29,1.97-.53,2.93,2.56-1.39,4.81-3.27,6.64-5.51.94-2.79,1.53-6.34.84-10.31-.21-1.2-.93-4.34-3.05-7.62Z"/>
      <path class="cls-1" d="m21.28,38.27c-2.79-.02-7.09-.48-11.71-2.59-3.4-1.55-6.1-3.62-8.21-5.71,3.13,8.52,11.32,14.6,20.93,14.6,2.92,0,5.71-.56,8.27-1.59.46-1.39.78-2.81.95-4.27.09-.77.13-1.55.13-2.33-3.24,1.23-6.73,1.88-10.19,1.88-.06,0-.12,0-.17,0Z"/>
    </g>
  </g>
</svg>