<?xml version="1.0" encoding="UTF-8"?>
<svg id="Capa_2" data-name="Capa 2" xmlns="http://www.w3.org/2000/svg" viewBox="0 0 64.68 52.07">
  <defs>
    <style>
      .cls-1 {
        fill: #3fc1c9;
      }
    </style>
  </defs>
  <g id="Layer_1" data-name="Layer 1">
    <rect class="cls-1" x="29.44" y="14.75" width="5.79" height="22.57" transform="translate(-6.43 40.88) rotate(-59.79)"/>
    <path class="cls-1" d="m61.59,39.71l-2.91,5.01,2.66,1.55c.42.24.95.1,1.19-.31l2.04-3.5c.12-.2.15-.44.09-.66-.06-.23-.2-.41-.4-.53l-2.66-1.55Z"/>
    <path class="cls-1" d="m53.38,23.22l-2.1-1.22c-.2-.12-.44-.15-.66-.09-.23.06-.41.2-.53.4l-12.22,20.99c-.12.2-.15.44-.09.66.06.23.2.41.4.53l2.1,1.22c.42.24.95.1,1.19-.31l12.22-20.99c.08-.14.12-.29.12-.44,0-.07-.01-.15-.03-.22-.06-.23-.2-.42-.41-.53Z"/>
    <path class="cls-1" d="m58.73,26.34l-2.1-1.22c-.2-.12-.44-.15-.66-.09-.23.06-.41.2-.53.4l-12.22,20.99c-.12.2-.15.44-.09.66.06.22.2.41.4.53l2.1,1.22c.2.12.44.15.66.09.23-.06.41-.2.53-.4l12.22-20.99c.08-.13.12-.29.12-.44,0-.07-.01-.15-.03-.22-.06-.23-.2-.42-.41-.53Z"/>
    <path class="cls-1" d="m64.08,29.45l-2.1-1.22c-.2-.12-.44-.15-.66-.09-.23.06-.41.2-.53.4l-12.22,20.99c-.12.2-.15.44-.09.66.06.23.2.41.4.53l2.1,1.22c.2.12.44.15.66.09.23-.06.41-.2.53-.4l12.22-20.99c.08-.14.12-.29.12-.44,0-.07-.01-.15-.03-.22-.06-.23-.2-.41-.4-.53Z"/>
    <path class="cls-1" d="m3.09,12.35l2.91-5.01-2.66-1.55c-.42-.24-.95-.1-1.19.31L.12,9.62c-.12.2-.15.44-.09.66.06.23.2.41.4.53l2.66,1.55Z"/>
    <path class="cls-1" d="m11.3,28.85l2.1,1.22c.2.12.44.15.66.09.23-.06.41-.2.53-.4l12.22-20.99c.12-.2.15-.44.09-.66-.06-.22-.2-.41-.4-.53l-2.1-1.22c-.27-.15-.6-.16-.86,0-.14.08-.25.19-.33.32l-12.22,20.99c-.12.2-.15.44-.09.66.06.23.2.41.4.53Z"/>
    <path class="cls-1" d="m5.95,25.73l2.1,1.22c.2.12.44.15.66.09.23-.06.41-.2.53-.4L21.46,5.65c.12-.2.15-.44.09-.66-.06-.23-.2-.41-.4-.53l-2.1-1.22c-.26-.15-.6-.16-.86,0-.14.08-.25.19-.33.32L5.64,24.54c-.12.2-.15.44-.09.66.06.22.2.41.4.53Z"/>
    <path class="cls-1" d="m.6,22.62l2.1,1.22c.42.24.95.1,1.19-.31L16.11,2.53c.12-.2.15-.44.09-.66-.06-.22-.2-.41-.4-.53L13.7.12c-.27-.15-.6-.16-.86,0-.14.08-.25.19-.33.32L.28,21.42c-.12.2-.15.44-.09.66.06.23.2.41.4.53Z"/>
  </g>
</svg>