<?xml version="1.0" encoding="UTF-8"?>
<svg id="Capa_2" data-name="Capa 2" xmlns="http://www.w3.org/2000/svg" viewBox="0 0 225.96 133.06">
  <defs>
    <style>
      .cls-1 {
        fill-rule: evenodd;
      }
    </style>
  </defs>
  <g id="Capa_1-2" data-name="Capa 1">
    <path class="cls-1" d="m215.49,125.27V12.66c0-2.15-1.74-3.9-3.9-3.9h-16.82c-2.15,0-3.89,1.74-3.89,3.9v11.02h-72.14v-11.02c0-2.15-1.74-3.9-3.89-3.9h-16.82c-2.15,0-3.9,1.74-3.9,3.9v112.61h-51.72v-15.77c12.54-1.25,23.79-8.53,30.03-19.66,7.88-14.06,4.55-31.42-2.72-47.17C59.35,20.24,41.36,1.22,41.36,1.22,40.63.44,39.61,0,38.54,0c-1.07,0-2.09.43-2.83,1.21,0,0-18.06,18.91-28.43,41.31C0,58.24-3.32,75.63,4.64,89.83c6.23,11.11,17.45,18.39,29.97,19.66v15.78H3.9c-2.15,0-3.9,1.75-3.9,3.9s1.75,3.9,3.9,3.9h218.16c2.15,0,3.9-1.75,3.9-3.9s-1.75-3.9-3.9-3.9h-6.57Zm-7.79,0V16.56h-9.03v108.71h9.03Zm-16.82-93.8h-72.14v93.8h72.14V31.47h0Zm-79.93,93.8V16.56h-9.03v108.71h9.03Zm-68.54-23.61c9.71-1.21,18.38-6.96,23.23-15.63,6.7-11.96,3.19-26.69-3-40.09-7.38-15.98-18.85-30.14-24.11-36.21-5.28,6.04-16.78,20.12-24.17,36.07-6.2,13.39-9.69,28.15-2.92,40.23,4.85,8.65,13.48,14.39,23.17,15.62v-30.73c0-2.15,1.75-3.9,3.9-3.9s3.89,1.74,3.89,3.9v30.74h0Z"/>
  </g>
</svg>