<?xml version="1.0" encoding="UTF-8"?>
<svg id="Capa_2" data-name="Capa 2" xmlns="http://www.w3.org/2000/svg" viewBox="0 0 57.68 27.19">
  <defs>
    <style>
      .cls-1 {
        fill: #2d3540;
      }
    </style>
  </defs>
  <g id="Layer_1" data-name="Layer 1">
    <g>
      <path class="cls-1" d="m2.34,8.55h0s.1.02.17.02c.27,0,.73-.11,1.5-.35,2.49-.78,4.12-2.22,4.71-2.81.46-.46.81-.86,1.11-1.21.79-.9,1.31-1.5,2.83-2.17.7-.31,1.58-.62,1.96-.55.03,0,.04.01.05.01,0,.02.01.07.02.1.02.12.04.31.18.52.39.6,1.58,1.2,2.29,1.14.38-.03.7-.25.86-.6.17-.35.12-.77-.12-1.11C17.18.53,14.4-.17,13.26.03c-.45.08-.91.33-1.1.44-.16.09-.4.24-.59.43-1.6,1.56-3.74,3.07-5.81,4.54-1.06.75-2.15,1.52-3.16,2.29-.32.25-.49.42-.45.61.02.1.09.18.2.21Z"/>
      <path class="cls-1" d="m40.53,3.28c.71.06,1.91-.54,2.29-1.14.13-.21.16-.4.18-.52,0-.04.01-.08.02-.1,0,0,.02,0,.05-.01.38-.07,1.26.24,1.96.55,1.51.67,2.03,1.27,2.83,2.17.31.35.66.75,1.11,1.21.59.59,2.22,2.03,4.71,2.81.77.24,1.24.35,1.51.35.07,0,.12,0,.16-.02.11-.03.18-.11.2-.21.03-.19-.13-.36-.46-.61-1.01-.77-2.1-1.54-3.16-2.29-2.07-1.46-4.21-2.98-5.81-4.54-.19-.18-.42-.33-.59-.42-.21-.12-.65-.36-1.1-.44-1.14-.2-3.92.5-4.64,1.54-.24.34-.28.76-.12,1.11.16.34.48.56.86.6Z"/>
      <path class="cls-1" d="m56.89,11.17c-1.95-2.78-6.89-1.99-16.19-.49-6.88,1.11-8.04,2.29-8.61,3.12-.16.23-.29.47-.42.73-1.07-1.22-2.72-1.24-2.83-1.24-.11,0-1.76.02-2.83,1.24-.12-.25-.26-.5-.42-.73-.57-.83-1.73-2.02-8.61-3.12-9.3-1.5-14.24-2.29-16.19.49-1.96,2.79.09,7.75,2.17,10.41,2.86,3.68,6.95,4.48,9.24,4.96,2.96.61,7.7,1.59,11.15-1.44,1.94-1.7,3.13-4.36,3.29-6.88.54-.48,1.2-1.18,2.2-1.2.99.03,1.66.72,2.2,1.2.16,2.52,1.35,5.18,3.29,6.88,3.46,3.03,8.19,2.05,11.15,1.44,2.29-.47,6.38-1.28,9.24-4.96,2.07-2.66,4.13-7.62,2.17-10.41Z"/>
    </g>
  </g>
</svg>