<?xml version="1.0" encoding="UTF-8"?>
<svg id="Capa_2" data-name="Capa 2" xmlns="http://www.w3.org/2000/svg" viewBox="0 0 241.42 228.25">
  <g id="Layer_1" data-name="Layer 1">
    <g>
      <path d="m5.52,0v218.25H0v10h21.03v-10h-5.52v-23.08h171.72c2.99,0,5.42,2.43,5.42,5.42v17.66h-5.52v10h21.03v-10h-5.52v-17.66c0-8.5-6.92-15.42-15.42-15.42h-122.14l14.15-27.04,1.4-2.67,37.76,23.8c3.29,2.08,10.86-9.87,7.57-11.95l-15.29-9.63c-.07.02-.13.05-.2.07-.22.07-.45.12-.67.17-.1.02-.2.06-.31.08-.68.14-1.36.21-2.06.21-4.16,0-7.89-2.48-9.5-6.31l-1.28-3.05-58.07-36.6c-3.29-2.08-7.68-1.1-9.76,2.19-2.08,3.29-1.1,7.68,2.19,9.76l41.13,25.92-1.4,2.67-16.95,32.39H15.52V51.39h16.17l4.01-5.13-3.15-2.46-2.81,3.59h-10.29v-16.57h-3.94V0H5.52Z"/>
      <path d="m57.11,120.36c8.64.19,16.99-4.62,20.89-12.94.6-1.27,1.06-2.57,1.4-3.89-5.74-6.53-9.25-15.06-9.31-24.4-.91-.61-1.88-1.15-2.9-1.63-11.25-5.28-24.65-.44-29.93,10.81-3.16,6.74-2.69,14.24.61,20.32.8.26,1.59.6,2.33,1.08l16.91,10.66Z"/>
      <path d="m117.54,149.94c-.02.12-.06.24-.09.35-.05.2-.1.41-.16.61-.05.17-.12.34-.18.51-.05.13-.08.26-.14.39,0,.02-.02.04-.03.05-.06.14-.13.27-.19.41-.08.18-.17.36-.26.54-.02.03-.04.07-.06.1-.68,1.24-1.6,2.3-2.71,3.16l13.84,8.72c.58.37,1.04.82,1.4,1.36.91-.91,2.03-1.41,3.33-1.41h55.33c4.05,0,7.54,2.41,9.14,5.86h.14s20.46,49.61,20.46,49.61c1.99,4.82,6.65,7.74,11.56,7.74,1.59,0,3.2-.3,4.76-.95,6.38-2.63,9.42-9.94,6.79-16.32l-23.5-56.97c-1.85-4.49-6.14-7.5-11-7.72l-53.99-2.42c-1.09-.5-2.3-1.01-3.65-1.55-11.66-3.68-21.68-12.85-30.6-20.9v26.64c.01.73-.06,1.47-.2,2.19Z"/>
      <path d="m81.34,110.42c-4.61,5.67-6.12,15.72-.12,25.13l13.42,8.46-7.3-17.39c-1.07-2.54-1.08-5.34-.04-7.88,1.02-2.5,2.94-4.45,5.4-5.53-3.11-1.34-5.99-3.09-8.6-5.18-1.03.64-1.97,1.42-2.76,2.39Z"/>
      <path d="m132.29,181.87h55.33c3.89,0,7.07-3.18,7.07-7.07h0c0-3.89-3.18-7.07-7.07-7.07h-55.33c-3.89,0-3.89,14.15,0,14.15Z"/>
      <path d="m100.06,150.98c.15.35.32.68.51,1,.04.07.08.14.13.21.18.29.38.57.6.83.04.05.09.1.14.15.19.21.38.41.59.6.07.07.14.13.22.2.25.22.52.42.79.6.05.03.09.06.14.09,1.24.78,2.7,1.24,4.27,1.24,4.42,0,8-3.58,8-8v-32.52c-2.58.57-5.25.87-8,.87s-5.42-.31-8-.87v19.14l-2.3-4.87v-14.86c-.17-.05-.34-.09-.51-.15-.97.02-1.95.22-2.9.62-4.07,1.71-5.99,6.4-4.28,10.47l10.6,25.24Z"/>
      <path d="m107.44,113.25c18.98,0,34.36-15.38,34.36-34.36s-15.38-34.36-34.36-34.36-34.36,15.38-34.36,34.36,15.38,34.36,34.36,34.36Zm0-50.53c8.93,0,16.17,7.24,16.17,16.17s-7.24,16.17-16.17,16.17-16.17-7.24-16.17-16.17,7.24-16.17,16.17-16.17Z"/>
      <circle cx="107.44" cy="78.89" r="8.21"/>
    </g>
  </g>
</svg>