<?xml version="1.0" encoding="UTF-8"?>
<svg id="Capa_2" data-name="Capa 2" xmlns="http://www.w3.org/2000/svg" viewBox="0 0 47.41 54.91">
  <defs>
    <style>
      .cls-1 {
        fill: #3fc1c9;
      }
    </style>
  </defs>
  <g id="Layer_1" data-name="Layer 1">
    <path class="cls-1" d="m4.19,48.61c.5.21,2.13.87,4.13,1.68,4,1.62,9.48,3.83,10.49,4.24,1.52.61,2.55.34,3.07.17,4.3-1.4,7.93-4.55,9.72-8.98.75-1.85,1.11-3.77,1.12-5.67.2-.09.4-.19.59-.3,1.54-.95,14.98-9.56,14.06-20.65-.56-6.62-5.95-12.05-16.02-16.13C21.23-1.13,13.51-.98,8.4,3.4-.06,10.65,3.26,25.95,3.66,27.67c.09.39.23.74.41,1.07-1.23,1.33-2.23,2.89-2.94,4.65-1.76,4.34-1.39,9.03.61,12.97.29.57.93,1.6,2.45,2.25ZM14.12,10.07c2.34-2.02,7.29-1.64,13.93,1.04,6.56,2.66,10.31,5.75,10.56,8.72.34,3.94-4.88,8.88-8.46,11.46-1.8-2.79-4.48-5.09-7.83-6.45-3.46-1.4-7.1-1.57-10.41-.74-.7-4.25-.88-11.38,2.21-14.03Z"/>
  </g>
</svg>