<?xml version="1.0" encoding="UTF-8"?>
<svg id="Capa_2" data-name="Capa 2" xmlns="http://www.w3.org/2000/svg" viewBox="0 0 20.41 48.9">
  <defs>
    <style>
      .cls-1 {
        fill: #2d3540;
      }
    </style>
  </defs>
  <g id="Layer_1" data-name="Layer 1">
    <g>
      <path class="cls-1" d="m19.91,16.35c-.36-.4-.88-.63-1.41-.63h-1.87L18.64.11c-.24.02-.49.04-.74.04-.51,0-1-.05-1.45-.14l-2.02,15.72H1.91c-.54,0-1.05.23-1.41.63-.36.4-.54.93-.48,1.47l2.88,29.37c.1.98.91,1.72,1.9,1.72h10.83c.99,0,1.8-.74,1.9-1.72.52-5.29,1.04-10.57,1.56-15.86l1.33-13.51c.05-.53-.12-1.07-.49-1.47Zm-1.16,1.31l-1.33,13.51c-.52,5.29-1.04,10.57-1.56,15.86-.01.13-.12.23-.25.23H4.79c-.13,0-.24-.1-.25-.23L1.66,17.65c0-.1.04-.16.06-.19.03-.03.09-.08.19-.08h12.31l-1.43,11.09h2.2l1.43-11.09h2.09c.1,0,.16.05.19.08.03.03.07.1.06.19Z"/>
      <path class="cls-1" d="m5.82,45.24c.04.44.35.78.73.78h7.32c.37,0,.69-.34.73-.78.44-5.37.89-10.74,1.33-16.11H4.49c.44,5.37.89,10.74,1.33,16.11Z"/>
    </g>
  </g>
</svg>