<?xml version="1.0" encoding="UTF-8"?>
<svg id="Capa_2" data-name="Capa 2" xmlns="http://www.w3.org/2000/svg" viewBox="0 0 225.93 225.24">
  <defs>
    <style>
      .cls-1 {
        fill-rule: evenodd;
      }
    </style>
  </defs>
  <g id="Capa_1-2" data-name="Capa 1">
    <path class="cls-1" d="m109.32,53.3c-10.87-9.88-34.45-24.98-68.18-12.14-19.17,7.3-31.22,23.07-37.02,42.4-8.46,28.16-3.51,63.93,11.54,90.66,25.42,45.17,52.75,51.01,66.26,51.01,14.77,0,25.84-10.72,31.05-17,5.21,6.28,16.28,17,31.05,17,13.51,0,40.84-5.84,66.26-51.01,15.04-26.73,20-62.5,11.54-90.66-5.81-19.33-17.86-35.1-37.03-42.4-33.24-12.66-56.63,1.83-67.7,11.71,1.1-12.87,6.62-36.18,31.45-45.31,2.02-.74,3.05-2.98,2.31-5-.74-2.02-2.98-3.05-5-2.31-29.28,10.77-35.38,38.58-36.53,53.06h0Zm.51,11.85c.73,1,1.9,1.59,3.14,1.59s2.41-.59,3.14-1.59c0,0,24.13-32.61,65.91-16.7,16.82,6.41,27.24,20.4,32.34,37.36,7.89,26.28,3.17,59.65-10.87,84.6-23.05,40.96-47.22,47.04-59.47,47.04-16.98,0-27.74-17.75-27.74-17.75-.71-1.15-1.96-1.85-3.31-1.85s-2.6.7-3.31,1.85c0,0-10.76,17.75-27.74,17.75-12.25,0-36.42-6.08-59.47-47.04-14.04-24.95-18.76-58.32-10.87-84.6,5.1-16.97,15.51-30.96,32.34-37.36,41.78-15.91,65.91,16.7,65.91,16.7h0Z"/>
  </g>
</svg>