<?xml version="1.0" encoding="UTF-8"?>
<svg id="Capa_2" data-name="Capa 2" xmlns="http://www.w3.org/2000/svg" viewBox="0 0 44.58 44.58">
  <defs>
    <style>
      .cls-1 {
        fill: #2d3540;
      }
    </style>
  </defs>
  <g id="Layer_1" data-name="Layer 1">
    <path class="cls-1" d="m44.51,4.61c-.14-2.33-2.22-4.4-4.55-4.55-2.25-.14-4.52-.06-6.76.22,2.06,1.55,4.05,3.28,5.93,5.16.53.53,1.05,1.07,1.55,1.61.34.36.32.92-.02,1.27,0,0-.02.02-.03.03-.37.34-.95.32-1.29-.05-.49-.53-.99-1.05-1.5-1.56-2.26-2.26-4.67-4.28-7.19-6.04-7.4,1.44-14.38,5.08-19.63,10.33C3.6,18.45-.59,29.33.07,39.96c.14,2.33,2.22,4.4,4.55,4.55,2.25.14,4.52.06,6.76-.22-2.06-1.55-4.04-3.28-5.92-5.16-.53-.53-1.05-1.07-1.55-1.61-.34-.37-.32-.95.05-1.29.37-.34.95-.32,1.29.05.49.53.99,1.05,1.5,1.56,2.26,2.26,4.66,4.28,7.19,6.04,7.4-1.44,14.38-5.07,19.63-10.33,7.42-7.42,11.61-18.3,10.96-28.94Zm-17.22,2.55s-.07.07-.11.1c-.47.34-.95.7-1.43,1.06.41.45.81.91,1.21,1.4.3.37.27.9-.06,1.23-.02.02-.05.04-.07.06-.39.32-.97.26-1.29-.13-.41-.5-.82-.97-1.24-1.43-2.4,1.91-4.83,4.07-7.18,6.38l1.57,1.57c.36.36.36.94,0,1.3h0c-.36.36-.94.36-1.3,0l-1.57-1.57c-2.3,2.35-4.46,4.78-6.38,7.18.45.42.93.83,1.43,1.24.39.32.45.9.13,1.29-.02.02-.04.05-.06.07-.33.33-.86.36-1.23.06-.49-.4-.95-.8-1.4-1.21-.36.48-.72.96-1.06,1.43-.3.41-.87.5-1.28.21-.41-.3-.5-.87-.21-1.28.39-.54.8-1.09,1.22-1.63-.54-.55-1.06-1.12-1.54-1.7-.32-.39-.27-.97.12-1.29.39-.32.97-.27,1.29.12.4.48.83.96,1.27,1.42,1.93-2.41,4.09-4.84,6.4-7.19l-1.54-1.54c-.36-.36-.36-.94,0-1.3h0c.36-.36.94-.36,1.3,0l1.54,1.54c2.35-2.31,4.78-4.47,7.19-6.4-.46-.45-.94-.87-1.42-1.27-.39-.32-.44-.9-.12-1.29.32-.39.9-.44,1.29-.12.58.48,1.15,1,1.7,1.54.55-.42,1.09-.83,1.63-1.22.41-.3.98-.2,1.28.21.27.37.22.87-.09,1.18Z"/>
  </g>
</svg>