<?xml version="1.0" encoding="UTF-8"?>
<svg id="Capa_2" data-name="Capa 2" xmlns="http://www.w3.org/2000/svg" viewBox="0 0 62.21 48.88">
  <defs>
    <style>
      .cls-1 {
        fill: #2d3540;
      }
    </style>
  </defs>
  <g id="Layer_1" data-name="Layer 1">
    <g>
      <g>
        <rect class="cls-1" x="-.49" y="15.29" width="19.83" height="6.62" rx="2.02" ry="2.02" transform="translate(-10.39 12.11) rotate(-45)"/>
        <path class="cls-1" d="m9.28,10.11l-.28-.28c-.8-.8-2.01-.88-2.71-.18L.48,15.46c-.7.7-.62,1.91.18,2.71l.28.28c.8.8,2.01.88,2.71.18l5.81-5.81c.7-.7.62-1.91-.18-2.71Z"/>
        <rect class="cls-1" x="20.37" y="36.15" width="19.83" height="6.62" rx="2.02" ry="2.02" transform="translate(-19.03 32.97) rotate(-45)"/>
        <path class="cls-1" d="m39.06,39.89l-.28-.28c-.8-.8-2.01-.88-2.71-.18l-5.81,5.81c-.7.7-.62,1.91.18,2.71l.28.28c.8.8,2.01.88,2.71.18l5.81-5.81c.7-.7.62-1.91-.18-2.71Z"/>
        <polygon class="cls-1" points="22.89 28.31 18.56 23.98 14.23 19.65 10.48 23.41 14.81 27.74 19.14 32.07 21.15 34.08 25.48 38.41 29.23 34.65 24.9 30.32 22.89 28.31"/>
      </g>
      <g>
        <rect class="cls-1" x="18.38" y="5.94" width="19.83" height="6.62" rx="2.02" ry="2.02" transform="translate(4.6 27.26) rotate(-55.34)"/>
        <path class="cls-1" d="m26.63.92l-.33-.23c-.93-.64-2.13-.5-2.7.31l-4.67,6.76c-.56.81-.27,1.99.66,2.63l.33.23c.93.64,2.13.5,2.7-.31l4.67-6.76c.56-.81.27-1.99-.66-2.63Z"/>
        <rect class="cls-1" x="42.65" y="22.72" width="19.83" height="6.62" rx="2.02" ry="2.02" transform="translate(1.26 54.46) rotate(-55.34)"/>
        <path class="cls-1" d="m61.27,24.87l-.33-.23c-.93-.64-2.13-.5-2.7.31l-4.67,6.76c-.56.81-.27,1.99.66,2.63l.33.23c.93.64,2.13.5,2.7-.31l4.67-6.76c.56-.81.27-1.99-.66-2.63Z"/>
        <polygon class="cls-1" points="43.29 16.38 38.25 12.9 33.22 9.42 30.19 13.79 35.23 17.27 40.27 20.75 42.6 22.37 47.64 25.85 50.66 21.48 45.63 18 43.29 16.38"/>
      </g>
    </g>
  </g>
</svg>