<?xml version="1.0" encoding="UTF-8"?>
<svg id="Capa_2" data-name="Capa 2" xmlns="http://www.w3.org/2000/svg" viewBox="0 0 243.48 212.35">
  <g id="Layer_1" data-name="Layer 1">
    <g>
      <path d="m72.06,132.2c-3.89-11.8-16.61-18.22-28.41-14.33-11.8,3.89-18.22,16.61-14.33,28.41,2.13,6.46,6.9,11.3,12.72,13.72l25.38-5.73c5.2-5.8,7.25-14.15,4.63-22.08Z"/>
      <path d="m215.85,144.95c0-6.65,4.27-12.31,10.21-14.42l-9.45-35.47c-.91-3.43-3.25-6.31-6.41-7.92-3.17-1.61-6.87-1.8-10.18-.52l-40.81,15.78-52.25,10.69v12.13c0,5.68-4.62,10.3-10.3,10.3s-10.3-4.62-10.3-10.3v-7.92h-.03c-6.62,1.36-10.92,7.72-9.81,14.33,0,.15,0,.3.02.45.47,6.39,5,13.59,13.4,17.11l27.17-6.13c1.9-.43,3.65.31,5.08,1.99.57-2.14,1.83-3.56,3.73-3.98l38.33-8.65c1.68-2.09,2.63-4.21,3.06-6.35l9.93-3.84c-.03-.39-.06-.78-.06-1.18,0-8.45,6.87-15.32,15.32-15.32s15.32,6.87,15.32,15.32c0,5.28-2.69,9.95-6.77,12.7l9.34,35.07c1.49,5.59,6.54,9.29,12.07,9.29,1.06,0,2.15-.14,3.23-.42,6.67-1.78,10.64-8.63,8.86-15.3l-.63-2.38c-.89.16-1.81.26-2.75.26-8.45,0-15.32-6.87-15.32-15.32Z"/>
      <path d="m177.6,202.35v10h21.03v-10h-5.52v-34.85c0-8.5-6.92-15.42-15.42-15.42h-.54L15.52,187.67v-116.12h16.17l4.01-5.13-3.15-2.46-2.81,3.59h-10.29v-16.57h-3.94V12.07H5.52v190.27H0v10h21.03v-10h-5.52v-4.44l162.64-35.82c2.78.23,4.96,2.57,4.96,5.4v34.85h-5.52Z"/>
      <path d="m181.5,131.67c-.32.03-.63.07-.95.14l-53.97,12.18c-3.8.86-.68,14.66,3.12,13.8l53.97-12.18c3.8-.86,6.2-4.66,5.34-8.46-.1-.46-.26-.91-.44-1.33-2.73-.73-5.16-2.18-7.07-4.15Z"/>
      <path d="m88.66,125.22c0,4.42,3.58,8,8,8s8-3.58,8-8v-54.38c-2.58.57-5.25.87-8,.87s-5.42-.31-8-.87v54.38Z"/>
      <path d="m96.66,68.72c18.98,0,34.36-15.38,34.36-34.36S115.64,0,96.66,0s-34.36,15.38-34.36,34.36,15.38,34.36,34.36,34.36Zm-16.17-34.36c0-8.93,7.24-16.17,16.17-16.17s16.17,7.24,16.17,16.17-7.24,16.17-16.17,16.17-16.17-7.24-16.17-16.17Z"/>
      <circle cx="96.66" cy="34.36" r="8.21"/>
      <path d="m117.78,145.99l-78.98,17.83c-3.8.86-6.2,4.66-5.34,8.46.86,3.8,4.66,6.2,8.46,5.34l78.98-17.83c3.79-.86.68-14.66-3.12-13.8Z"/>
      <path d="m192.51,108.73c-6.8,0-12.32,5.51-12.32,12.32s5.51,12.32,12.32,12.32,12.32-5.51,12.32-12.32-5.51-12.32-12.32-12.32Zm0,17.75c-3,0-5.43-2.43-5.43-5.43s2.43-5.43,5.43-5.43,5.43,2.43,5.43,5.43-2.43,5.43-5.43,5.43Z"/>
      <path d="m231.17,132.63c-6.8,0-12.32,5.51-12.32,12.32s5.51,12.32,12.32,12.32,12.32-5.51,12.32-12.32-5.51-12.32-12.32-12.32Zm0,17.75c-3,0-5.43-2.43-5.43-5.43s2.43-5.43,5.43-5.43,5.43,2.43,5.43,5.43-2.43,5.43-5.43,5.43Z"/>
    </g>
  </g>
</svg>