<?xml version="1.0" encoding="UTF-8"?>
<svg id="Capa_2" data-name="Capa 2" xmlns="http://www.w3.org/2000/svg" viewBox="0 0 225.96 152.28">
  <defs>
    <style>
      .cls-1 {
        fill-rule: evenodd;
      }
    </style>
  </defs>
  <g id="Capa_1-2" data-name="Capa 1">
    <path class="cls-1" d="m37.89,57.49h-19.25c-4.94,0-9.69,1.96-13.18,5.46-3.5,3.5-5.46,8.24-5.46,13.18v.03c0,4.94,1.96,9.68,5.46,13.18,3.5,3.49,8.24,5.46,13.18,5.46h19.25c7.75,33.08,35.58,57.49,68.58,57.49s60.84-24.42,68.58-57.49h32.26c4.94,0,9.69-1.96,13.18-5.46,3.49-3.5,5.46-8.24,5.46-13.18v-.03c0-4.94-1.96-9.68-5.46-13.18-3.5-3.49-8.24-5.46-13.18-5.46h-32.26C167.31,24.42,139.47,0,106.47,0S45.64,24.41,37.89,57.49h0Zm8.03,37.31c7.47,28.61,31.72,49.69,60.55,49.69,34.82,0,62.93-30.71,62.93-68.35S141.29,7.79,106.47,7.79c-28.84,0-53.09,21.09-60.55,49.69h21.08c6.64-16.83,21.93-28.52,39.62-28.52,23.7,0,43.13,21.04,43.13,47.18s-19.44,47.17-43.13,47.17c-17.69,0-32.99-11.69-39.62-28.52h-21.08Zm56.71-.19c-.86.12-1.74.19-2.62.19h-24.5c5.95,12.29,17.63,20.73,31.12,20.73,4.91,0,9.57-1.11,13.8-3.11l-17.8-17.8h0Zm24.57-50.5c-.05.05-.1.11-.15.16l-16.49,16.49c.94.64,1.82,1.37,2.63,2.19,3.5,3.5,5.46,8.24,5.46,13.18v.03c0,4.94-1.96,9.68-5.46,13.18-.81.81-1.7,1.54-2.63,2.19l16.49,16.49s.09.1.14.15h.01c8.96-7.15,14.77-18.87,14.77-32.02s-5.81-24.86-14.77-32.03h0Zm-108.32,21.17h-.23c-2.88,0-5.64,1.14-7.67,3.18-2.03,2.03-3.18,4.79-3.18,7.67v.03c0,2.88,1.14,5.64,3.18,7.67,2.03,2.03,4.79,3.18,7.67,3.18h.23c2.88,0,5.64-1.14,7.67-3.18,2.03-2.03,3.18-4.79,3.18-7.67v-.03c0-2.88-1.14-5.64-3.18-7.67-2.03-2.03-4.79-3.18-7.67-3.18h0Zm22.24,0h-7.08c2.25,3.14,3.48,6.93,3.48,10.85v.03c0,3.92-1.23,7.7-3.48,10.85h65.98c2.88,0,5.64-1.14,7.67-3.18,2.03-2.03,3.18-4.79,3.18-7.67v-.03c0-2.88-1.14-5.64-3.18-7.67-2.03-2.03-4.79-3.18-7.67-3.18h-58.89Zm135.37,0c.47,3.55.72,7.17.72,10.86s-.24,7.31-.72,10.86h30.83c2.88,0,5.64-1.14,7.67-3.18,2.03-2.03,3.18-4.79,3.18-7.67v-.03c0-2.88-1.14-5.64-3.18-7.67-2.03-2.03-4.79-3.18-7.67-3.18h-30.83Zm-56.06-25.41c-4.23-2-8.9-3.11-13.8-3.11-13.5,0-25.17,8.44-31.12,20.73h24.5c.88,0,1.76.06,2.62.19l17.8-17.8h0Z"/>
  </g>
</svg>