<?xml version="1.0" encoding="UTF-8"?>
<svg id="Capa_2" data-name="Capa 2" xmlns="http://www.w3.org/2000/svg" viewBox="0 0 225.96 218.98">
  <defs>
    <style>
      .cls-1 {
        fill-rule: evenodd;
      }
    </style>
  </defs>
  <g id="Capa_1-2" data-name="Capa 1">
    <path class="cls-1" d="m48.33,38.95H3.9c-2.15,0-3.9,1.74-3.9,3.9v80.85c0,2.15,1.74,3.9,3.9,3.9h9.5v87.49c0,2.15,1.74,3.9,3.9,3.9h191.37c2.15,0,3.9-1.74,3.9-3.9v-87.49h9.5c2.15,0,3.9-1.74,3.9-3.9V42.84c0-2.15-1.74-3.9-3.9-3.9h-44.44V11.69c0-3.1-1.23-6.07-3.42-8.26-2.19-2.19-5.16-3.42-8.26-3.42H60.02c-3.1,0-6.07,1.23-8.26,3.42-2.19,2.19-3.42,5.17-3.42,8.26v27.26h0Zm156.44,88.64h-16.23v83.59h16.23v-83.59h0Zm-56.86,83.59h32.84v-83.59H45.21v83.59h32.84v-63.27c0-2.15,1.74-3.9,3.89-3.9h62.08c2.15,0,3.89,1.74,3.89,3.9v63.27h0Zm-31.04-59.38v59.38h23.25v-59.38h-23.25Zm-31.04,59.38h23.25v-59.38h-23.25v59.38h0Zm-48.42,0v-83.59h-16.23v83.59h16.23ZM177.62,46.74v27.26c0,3.1-1.23,6.07-3.42,8.26-2.19,2.19-5.16,3.42-8.26,3.42H60.02c-3.1,0-6.07-1.23-8.26-3.42-2.19-2.19-3.42-5.16-3.42-8.26v-27.26H7.79v73.06h210.37V46.74h-40.54Zm-7.79-35.05v62.31c0,1.03-.41,2.02-1.14,2.76-.73.73-1.72,1.14-2.75,1.14H60.02c-1.03,0-2.03-.41-2.76-1.14-.73-.73-1.14-1.72-1.14-2.76V11.69c0-1.03.41-2.02,1.14-2.75.73-.73,1.72-1.14,2.75-1.14h105.92c1.03,0,2.02.41,2.75,1.14.73.73,1.14,1.72,1.14,2.75h0Zm-70.36,42.82h27.02v8.65c0,2.15,1.74,3.9,3.9,3.9h18.14c2.15,0,3.9-1.74,3.9-3.9V22.54c0-2.15-1.74-3.9-3.9-3.9h-18.14c-2.15,0-3.9,1.74-3.9,3.9v8.65h-27.02v-8.65c0-2.15-1.74-3.9-3.9-3.9h-18.14c-2.15,0-3.9,1.74-3.9,3.9v40.61c0,2.15,1.74,3.9,3.9,3.9h18.14c2.15,0,3.9-1.74,3.9-3.9v-8.65h0Zm-7.79-28.07v32.82h-10.34V26.43h10.34Zm52.95,0v32.82h-10.34V26.43h10.34Zm-45.16,12.54v7.74h27.02v-7.74h-27.02Z"/>
  </g>
</svg>