<?xml version="1.0" encoding="UTF-8"?>
<svg id="Capa_2" data-name="Capa 2" xmlns="http://www.w3.org/2000/svg" viewBox="0 0 61.79 37.76">
  <defs>
    <style>
      .cls-1 {
        fill: #2d3540;
      }
    </style>
  </defs>
  <g id="Layer_1" data-name="Layer 1">
    <g>
      <path class="cls-1" d="m37.19,20.92c-3.65,0-6.76,2.32-7.93,5.57-4.3-.38-8.61-.38-12.92,0-1.17-3.25-4.27-5.57-7.93-5.57-4.65,0-8.42,3.77-8.42,8.42s3.77,8.42,8.42,8.42c3.65,0,6.76-2.32,7.93-5.57,4.3.38,8.61.38,12.92,0,1.17,3.25,4.28,5.57,7.93,5.57,4.65,0,8.42-3.77,8.42-8.42s-3.77-8.42-8.42-8.42Zm-31.4,5.08c-.52.54-1.53,1.32-2.31.99-1.17-.5-.18-2.36.34-2.9s2.36-1.57,2.89-.42c.36.78-.4,1.8-.92,2.34Z"/>
      <path class="cls-1" d="m56.95,13.04c-3.3-1.55-7.11-.77-9.54,1.67-3.73-2.17-7.63-4.01-11.69-5.49.33-3.44-1.5-6.86-4.8-8.42-4.21-1.98-9.22-.17-11.2,4.04s-.17,9.22,4.04,11.2c3.3,1.55,7.11.77,9.54-1.67,3.73,2.17,7.63,4.01,11.69,5.49-.33,3.44,1.5,6.86,4.8,8.42,4.21,1.98,9.22.17,11.2-4.04,1.98-4.21.17-9.22-4.04-11.2ZM29.58,1.7c-.07,0-.17,0-.29-.01-.13,0-.28-.01-.45-.01-.17,0-.37,0-.58,0-.1,0-.21,0-.33.01-.11,0-.23.02-.35.02-.12.01-.24.02-.36.04-.12.02-.25.03-.38.05-.13.02-.25.05-.38.07l-.1.02-.1.02c-.06.02-.13.03-.19.05-.13.03-.26.07-.39.11l-.19.06-.19.07c-.13.05-.26.09-.37.14-.06.03-.12.05-.18.08l-.09.04-.04.02-.05.02c-.12.07-.25.13-.37.19l-.05.02h-.01s0,0,0,0c0,0,.02-.01.01,0h0s-.02.02-.02.02l-.08.05c-.06.03-.11.06-.17.1-.22.13-.42.27-.61.42-.19.14-.36.28-.52.42-.16.14-.3.27-.42.39-.12.12-.23.23-.32.32-.09.09-.16.16-.2.21-.05.05-.07.08-.07.08,0,0,.01-.03.03-.1.02-.06.06-.16.11-.28.1-.24.27-.57.54-.93.13-.18.29-.37.47-.56.18-.19.38-.37.61-.55.06-.04.11-.09.17-.13l.09-.06.02-.02h0s.02-.01.02-.01h0s.01,0,.01,0l.04-.03c.12-.07.24-.15.36-.22l.05-.03.05-.03.1-.05c.07-.03.14-.07.21-.1.14-.07.28-.12.43-.17l.21-.08.22-.06c.15-.04.29-.08.44-.1.29-.06.58-.09.87-.11.14,0,.28-.01.41,0,.14,0,.27.01.4.02.13.01.25.03.37.04.12.02.23.04.34.06.11.02.21.05.31.07.1.02.19.05.28.08.17.05.32.11.44.16.12.05.21.1.27.12.06.03.09.05.09.05,0,0-.04,0-.11,0Z"/>
    </g>
  </g>
</svg>