<?xml version="1.0" encoding="UTF-8"?>
<svg id="Capa_2" data-name="Capa 2" xmlns="http://www.w3.org/2000/svg" viewBox="0 0 223.26 203.04">
  <defs>
    <style>
      .cls-1 {
        fill-rule: evenodd;
      }
    </style>
  </defs>
  <g id="Capa_1-2" data-name="Capa 1">
    <path class="cls-1" d="m0,160.66h0c0,23.39,18.99,42.37,42.37,42.37h169.2c3.1,0,6.07-1.23,8.26-3.42,2.19-2.19,3.42-5.17,3.42-8.27V47.03c0-6.46-5.23-11.69-11.69-11.69h-127.4C80.82,15.29,63.39,0,42.38,0h-.01C18.97,0,0,18.97,0,42.37v118.3h0Zm76.96,0c0,19.09-15.49,34.58-34.58,34.58s-34.58-15.5-34.58-34.58,15.5-34.58,34.58-34.58,34.58,15.5,34.58,34.58h0Zm138.51,25.66H76.09c-2.61,3.42-5.72,6.43-9.23,8.92h144.72c1.03,0,2.02-.41,2.76-1.14.73-.73,1.14-1.72,1.14-2.76v-5.02h0Zm-173.09-51.33c-14.16,0-25.66,11.5-25.66,25.66s11.5,25.66,25.66,25.66,25.66-11.5,25.66-25.66-11.5-25.66-25.66-25.66h0Zm42.37-91.87v117.54h0c0,6.39-1.42,12.43-3.95,17.86h134.67V47.03c0-2.15-1.74-3.9-3.9-3.9h-126.82Zm-42.37,99.66c9.86,0,17.87,8.01,17.87,17.87s-8.01,17.87-17.87,17.87-17.87-8.01-17.87-17.87,8.01-17.87,17.87-17.87h0Zm34.58-6.61V42.37c0-19.09-15.48-34.57-34.57-34.57h-.01C23.27,7.79,7.79,23.27,7.79,42.37v93.82c7.68-10.82,20.31-17.89,34.58-17.89s26.9,7.07,34.58,17.89h0Z"/>
  </g>
</svg>