<?xml version="1.0" encoding="UTF-8"?>
<svg id="Capa_2" data-name="Capa 2" xmlns="http://www.w3.org/2000/svg" viewBox="0 0 60.1 29.17">
  <defs>
    <style>
      .cls-1 {
        fill: #2d3540;
      }
    </style>
  </defs>
  <g id="Layer_1" data-name="Layer 1">
    <g>
      <path class="cls-1" d="m19.21,0h-6.21c-.34,0-.68.11-1,.32q-.25-.16,0,0c-2.17,1.4-3.79,7.25-3.79,14.26s1.62,12.87,3.79,14.26h0c.32.21.66.32,1,.32h6.21c2.64,0,4.79-6.53,4.79-14.58S21.86,0,19.21,0Zm0,25.84c-2.04,0-3.7-5.04-3.7-11.25s1.65-11.25,3.7-11.25,3.7,5.04,3.7,11.25-1.65,11.25-3.7,11.25Z"/>
      <path class="cls-1" d="m6.21,14.58C6.21,6.53,8.36,0,11,0h-6.21C2.14,0,0,6.53,0,14.58s2.14,14.58,4.79,14.58h6.21c-2.64,0-4.79-6.53-4.79-14.58Z"/>
      <path class="cls-1" d="m42.31,14.58c0-8.05,2.14-14.58,4.79-14.58h-6.21c-2.64,0-4.79,6.53-4.79,14.58s2.14,14.58,4.79,14.58h6.21c-2.65,0-4.79-6.53-4.79-14.58Z"/>
      <path class="cls-1" d="m35.12,14.58c0-1.25.05-2.46.15-3.62h-15.32c-.66,0-1.19,1.63-1.19,3.63s.53,3.63,1.19,3.63h15.32c-.1-1.17-.15-2.39-.15-3.65Z"/>
      <path class="cls-1" d="m55.31,0h-6.21c-.34,0-.68.11-1,.32-.11-.07-.17-.11-.19-.12.01,0,.08.05.19.12-2.17,1.4-3.79,7.25-3.79,14.26s1.62,12.87,3.79,14.26h0c.32.21.66.32,1,.32h6.21c2.64,0,4.79-6.53,4.79-14.58S57.95,0,55.31,0Zm.84,21.08c-.91,0-1.64-2.91-1.64-6.49s.74-6.49,1.64-6.49,1.64,2.91,1.64,6.49-.74,6.49-1.64,6.49Z"/>
    </g>
  </g>
</svg>