<?xml version="1.0" encoding="UTF-8"?>
<svg id="Capa_2" data-name="Capa 2" xmlns="http://www.w3.org/2000/svg" viewBox="0 0 41.49 59.78">
  <defs>
    <style>
      .cls-1 {
        fill: #2d3540;
      }
    </style>
  </defs>
  <g id="Layer_1" data-name="Layer 1">
    <g>
      <path class="cls-1" d="m36.04,17.63s0-.03,0-.05c0-.06-.01-.13-.02-.19,0,0,0,0,0-.01-.01-.07-.03-.14-.04-.21,0,0,0-.02,0-.03-.03-.14-.08-.28-.13-.41,0,0,0,0,0,0-.08-.21-.19-.4-.32-.58,0,0,0,0,0-.01-.08-.11-.17-.22-.27-.32,0,0-.01-.02-.02-.02-.05-.05-.1-.09-.15-.14,0,0-.01,0-.02-.02-.05-.04-.1-.08-.15-.12,0,0-.01,0-.02-.01-.06-.04-.11-.08-.17-.12,0,0-.01,0-.02-.01-.2-.12-.41-.23-.64-.3l-6.46-2.18c-2.47-.83-5.04-1.35-7.64-1.53l-7.08-.49c-1.6-.11-2.98,1.1-3.09,2.69-.11,1.6,1.1,2.98,2.69,3.09l7.08.49c1.4.1,2.79.31,4.15.64-2.06.47-4.18.67-6.31.6l-2.52-.08c-1.6-.06-2.94,1.2-2.99,2.8-.05,1.6,1.2,2.94,2.8,2.99l2.52.08c.34.01.68.02,1.02.02,3.27,0,6.49-.52,9.6-1.56l2.2-.73c-.2,1.14-.51,2.25-.93,3.32-.96,2.43-2.33,4.26-3.59,5.56-6.19.39-12.45-1.18-17.71-4.47l-3.36-2.1c-1.36-.85-3.15-.44-3.99.92-.85,1.36-.44,3.15.92,3.99l3.36,2.1c3.26,2.04,6.81,3.53,10.55,4.43,2.78.67,5.61,1,8.45.99.32,6.56-.33,13.12-1.95,19.5-.39,1.55.55,3.13,2.1,3.52.24.06.48.09.71.09,1.3,0,2.48-.88,2.81-2.19,1.86-7.36,2.55-14.93,2.04-22.51,2.18-2.2,3.91-4.83,5.05-7.7,1.21-3.06,1.75-6.41,1.55-9.71,0-.01,0-.02,0-.04Z"/>
      <path class="cls-1" d="m37.85,2.11c-3.08-1.36-6.68.04-8.04,3.12-1.36,3.08.04,6.68,3.12,8.04,3.08,1.36,6.68-.04,8.04-3.12,1.36-3.08-.04-6.68-3.12-8.04Z"/>
      <path class="cls-1" d="m18.2,3.25c.08,0,.17,0,.28,0,.1,0,.22,0,.34,0,.12,0,.25,0,.38,0,.26-.01.57-.02.88-.04.16,0,.32-.01.48-.02.16-.02.33-.01.5-.02.17-.01.34,0,.5-.02.09,0,.17,0,.25,0,.08,0,.17,0,.25,0,.32.01.62.04.87.09.06.02.13.02.17.04.05.02.11.03.15.05.02,0,.05.02.07.02.02.01.04.02.06.03.04.01.07.04.11.06.02,0,.03.02.05.03h.02s0,.02,0,.02c.04.03.07.06.11.09h.02s0,.02,0,.02h0s0,0,0,0c0,0,0,0,0,0,0,0,0,0,.01,0,0,0,0,0,0,0l.02.02s.04.04.07.07l.02.02.02.02.04.04s.05.05.08.09c.21.25.47.61.8.98.33.37.74.73,1.18.97.06.03.11.06.17.09.06.03.11.06.17.08.11.04.22.09.33.12.11.03.22.06.33.08h.04s.02.01.02.01h0s0,0,0,0c.04.02.01,0,.03,0h.06s.09.01.13.01c.11.01.22.02.32.02.1,0,.19,0,.28-.01.18-.02.35-.05.5-.09.31-.08.56-.19.75-.3.1-.05.18-.11.25-.16.07-.05.13-.09.18-.13.09-.07.14-.12.14-.12,0,0-.06-.03-.16-.07-.05-.02-.11-.05-.19-.08-.07-.03-.15-.07-.24-.11-.09-.04-.18-.09-.28-.14-.05-.03-.1-.06-.15-.08-.05-.03-.1-.06-.15-.09-.1-.06-.21-.14-.31-.21-.1-.08-.21-.17-.28-.24h0s-.01-.02-.01-.02l-.02-.02-.05-.04-.05-.04s-.02-.01.02,0h0s0,0,0,0h0s-.02-.03-.02-.03c-.04-.05-.09-.1-.13-.14-.04-.05-.08-.1-.11-.15-.04-.05-.07-.11-.1-.16-.13-.22-.24-.45-.38-.75-.14-.3-.3-.68-.58-1.14-.03-.06-.07-.12-.11-.17l-.06-.09-.03-.04-.03-.05c-.05-.06-.09-.12-.14-.18l-.04-.04s-.03-.04-.05-.05l-.1-.11-.1-.11-.05-.05-.02-.02h-.01c-.04-.05-.08-.09-.12-.12l-.03-.03h0s0-.01,0-.01l-.06-.05-.03-.02-.11-.08c-.07-.05-.14-.1-.22-.15-.15-.08-.3-.17-.46-.23-.08-.03-.16-.06-.23-.09l-.23-.07-.12-.03s-.08-.02-.12-.03l-.23-.04c-.15-.03-.3-.03-.45-.04-.58-.02-1.11.07-1.58.21-.12.03-.23.08-.34.12-.11.04-.22.08-.32.13-.1.05-.2.09-.3.14-.05.02-.1.05-.15.07-.05.03-.09.05-.14.08-.09.05-.18.1-.27.16-.04.03-.09.05-.13.08-.04.03-.08.06-.12.08-.16.11-.32.22-.46.33-.28.23-.53.45-.74.67-.11.11-.2.21-.29.31-.09.1-.16.19-.23.28-.07.09-.12.16-.17.23-.05.07-.09.13-.13.18-.07.1-.1.16-.1.16,0,0,.06,0,.18.02.06,0,.13,0,.21,0Z"/>
    </g>
  </g>
</svg>