<?xml version="1.0" encoding="UTF-8"?>
<svg id="Capa_2" data-name="Capa 2" xmlns="http://www.w3.org/2000/svg" viewBox="0 0 43.74 56.74">
  <defs>
    <style>
      .cls-1 {
        fill: #2d3540;
      }
    </style>
  </defs>
  <g id="Layer_1" data-name="Layer 1">
    <g>
      <path class="cls-1" d="m27.97,23.74c0-3.37-2.73-6.1-6.1-6.1s-6.1,2.73-6.1,6.1,2.73,6.1,6.1,6.1,6.1-2.73,6.1-6.1Z"/>
      <path class="cls-1" d="m42.91,42.72c-1.09-1.97-2.93-3.15-5.18-3.34-2.1-.17-4.49.5-7.3,2.06-1.45.8-2.92,1.96-4.41,3.46v-9.13c1.86-.51,3.46-1.4,4.77-2.65,2.49-2.38,3.76-5.91,3.76-10.51,0-3.93-1.81-8.59-5.39-13.85-2.54-3.74-5.07-6.42-5.18-6.54l-2.11-2.23-2.11,2.23c-.11.11-2.63,2.8-5.18,6.54-3.57,5.26-5.39,9.92-5.39,13.85,0,4.59,1.26,8.13,3.76,10.51,1.31,1.25,2.91,2.14,4.77,2.65v9.13c-1.48-1.5-2.96-2.66-4.41-3.46-2.81-1.56-5.2-2.23-7.3-2.06-2.25.19-4.1,1.37-5.18,3.34-1.09,1.97-1.11,4.16-.07,6.16.97,1.87,2.81,3.54,5.62,5.09h0c2.36,1.3,5.56,2.16,9.5,2.55,1.83.18,3.39.21,4.3.21.5,0,.8-.01.83-.01l.85-.03.85.03s.33.01.83.01c.91,0,2.47-.03,4.3-.21,3.95-.39,7.15-1.24,9.5-2.55,2.81-1.56,4.65-3.22,5.62-5.09,1.04-2.01,1.02-4.2-.07-6.16Zm-33.71,6.18h0c-2.39-1.32-3.09-2.32-3.28-2.69-.16-.31-.14-.44,0-.69.14-.25.24-.34.59-.37.04,0,.1,0,.16,0,.53,0,1.73.18,3.86,1.36,1.58.87,3.18,2.46,4.55,4.08-2.1-.29-4.29-.81-5.87-1.68Zm5.81-26.29c0-2.69,1.5-6.33,4.34-10.52.88-1.3,1.77-2.47,2.53-3.42.76.95,1.65,2.12,2.53,3.42,2.84,4.19,4.34,7.83,4.34,10.52,0,5.45-2.12,7.88-6.87,7.88s-6.87-2.43-6.87-7.88Zm22.83,23.6c-.19.37-.89,1.37-3.28,2.69h0c-1.58.88-3.77,1.39-5.87,1.68,1.36-1.62,2.96-3.2,4.55-4.08,2.14-1.18,3.34-1.36,3.86-1.36.06,0,.12,0,.16,0,.35.03.44.11.59.37.14.25.16.38,0,.69Z"/>
    </g>
  </g>
</svg>