<?xml version="1.0" encoding="UTF-8"?>
<svg id="Capa_2" data-name="Capa 2" xmlns="http://www.w3.org/2000/svg" viewBox="0 0 48.2 38.2">
  <defs>
    <style>
      .cls-1 {
        fill: #2d3540;
      }
    </style>
  </defs>
  <g id="Layer_1" data-name="Layer 1">
    <path class="cls-1" d="m42.46,5.66c2.65-2.25,4.55-4.28,5.74-5.66H0c1.19,1.37,3.09,3.41,5.74,5.66,1.24,1.06,1.39,1.12,1.77,1.6,2.08,2.64.29,4.7,1.05,10.6.4,3.09,1.23,5.13.11,7.84-.11.26-.3.62-.69,1.33-2.48,4.55-3.09,5.48-3.74,6.99-.61,1.43.34,3.04,1.89,3.21,5.98.64,11.98.97,17.98.97,6,0,12-.33,17.98-.97,1.55-.17,2.5-1.78,1.89-3.21-.65-1.51-1.26-2.44-3.74-6.99-.39-.71-.58-1.07-.69-1.33-1.12-2.71-.29-4.75.11-7.84.76-5.9-1.03-7.96,1.05-10.6.38-.48.52-.54,1.77-1.6Zm-25.31,27.73s-.04-.1-.12-.28c-.08-.19-.2-.46-.33-.81-.14-.35-.3-.78-.47-1.27-.17-.49-.37-1.05-.55-1.67-.1-.31-.19-.63-.29-.96-.1-.33-.19-.68-.29-1.04-.19-.71-.39-1.47-.56-2.25-.09-.39-.17-.79-.26-1.2-.04-.2-.08-.41-.12-.61-.04-.21-.08-.41-.11-.62-.08-.42-.15-.84-.22-1.26-.03-.21-.06-.42-.1-.64l-.09-.64c-.06-.43-.11-.85-.16-1.28-.05-.42-.09-.85-.13-1.27-.04-.42-.08-.84-.11-1.25-.03-.41-.06-.82-.08-1.22,0-.2-.02-.4-.03-.6,0-.1,0-.2-.01-.29v-.15s0-.02,0-.02h0s0,0,0,0v-.04s0-.07,0-.07c0-.1,0-.19-.01-.28,0-.09-.01-.17-.02-.26,0-.08-.02-.17-.03-.26,0-.09-.02-.17-.03-.26-.11-.68-.27-1.33-.46-1.91-.05-.14-.1-.29-.16-.42-.06-.14-.11-.27-.17-.4-.06-.13-.11-.26-.17-.38-.03-.06-.06-.12-.09-.18-.03-.06-.06-.11-.09-.17-.24-.45-.47-.82-.67-1.14-.2-.32-.35-.57-.45-.74-.1-.17-.16-.27-.16-.27l.07-.05s.26.33.73.92c.23.29.52.65.8,1.09.28.44.58.95.83,1.55.25.59.47,1.26.62,1.98.07.36.13.74.16,1.12.03.38.07.78.1,1.17.14,1.59.33,3.28.57,4.97.12.84.24,1.69.38,2.51.13.83.28,1.64.43,2.42.15.78.3,1.54.46,2.26.16.72.31,1.39.45,2.01.07.31.15.61.22.89.07.28.14.55.2.8.13.5.24.94.34,1.3.1.36.17.64.23.84.05.19.08.3.08.3l-.08.02Zm12.93-13.19c-.36.07-.87.17-1.48.25-.61.08-1.33.15-2.09.2-.38.02-.78.04-1.18.05-.15,0-.3,0-.45.01,0,.3,0,.6-.01.89,0,.42-.01.85-.03,1.26-.01.42-.02.83-.04,1.23-.02.59-.05,1.16-.07,1.72.09,0,.17,0,.26,0,.29,0,.57.03.85.05.55.05,1.07.12,1.51.2.44.08.81.17,1.07.25.26.08.4.13.4.13,0,0-.15.06-.4.13-.26.07-.62.17-1.07.25-.44.08-.96.15-1.51.2-.28.02-.56.04-.85.05-.11,0-.22,0-.33.01-.03.5-.06.97-.1,1.42-.1,1.29-.21,2.37-.3,3.13-.04.38-.09.67-.11.88-.03.2-.04.31-.04.31,0,0-.02-.11-.04-.31-.03-.2-.07-.5-.11-.88-.09-.75-.2-1.83-.3-3.13-.03-.45-.07-.93-.1-1.42-.11,0-.22,0-.33-.01-.29,0-.57-.03-.85-.05-.55-.05-1.07-.12-1.51-.2-.44-.08-.81-.17-1.07-.25-.26-.08-.4-.13-.4-.13,0,0,.15-.06.4-.13.26-.07.62-.17,1.07-.25.44-.08.96-.15,1.51-.2.28-.02.56-.04.85-.05.09,0,.17,0,.26,0-.03-.55-.05-1.13-.07-1.72-.02-.4-.03-.82-.04-1.23-.01-.42-.02-.84-.03-1.26,0-.3,0-.59-.01-.89-.15,0-.3,0-.45-.01-.4,0-.8-.03-1.18-.05-.77-.05-1.48-.12-2.09-.2-.61-.08-1.12-.17-1.48-.25-.36-.08-.56-.13-.56-.13,0,0,.2-.06.56-.13.36-.07.87-.17,1.48-.25.61-.08,1.33-.15,2.09-.2.38-.02.78-.04,1.18-.05.15,0,.29,0,.44-.01,0-.13,0-.27,0-.4,0-.86,0-1.72.02-2.57,0-.42.02-.85.03-1.26.01-.42.02-.83.04-1.23,0-.08,0-.15,0-.22-.31,0-.61,0-.91-.01-.52,0-1.04-.03-1.54-.05-1-.05-1.93-.12-2.73-.2-.4-.04-.77-.08-1.09-.13-.33-.04-.61-.09-.84-.12-.23-.03-.42-.07-.54-.09-.12-.02-.19-.04-.19-.04.2-.04.44-.08.73-.13.08-.01.39-.06.84-.12.32-.04.69-.08,1.09-.13.8-.08,1.73-.15,2.73-.2.5-.02,1.02-.04,1.54-.05.32,0,.64-.01.97-.01.05-1.04.11-2.02.18-2.9.1-1.29.21-2.37.29-3.13.04-.38.09-.67.11-.88.03-.2.04-.31.04-.31,0,0,.02.11.04.31.03.2.07.5.11.88.09.75.2,1.83.29,3.13.07.88.13,1.86.18,2.9.32,0,.65,0,.97.01.52,0,1.04.03,1.54.05,1,.05,1.93.12,2.73.2.4.04.77.08,1.09.13.45.06.76.11.84.12.29.05.54.09.73.13,0,0-.07.01-.19.04-.12.02-.31.06-.54.09-.23.04-.52.08-.84.12-.32.04-.69.08-1.09.13-.8.08-1.73.15-2.73.2-.5.02-1.02.04-1.54.05-.3,0-.61.01-.91.01,0,.07,0,.15,0,.22.02.4.03.82.04,1.23.01.42.02.84.03,1.26.02.85.02,1.71.02,2.57,0,.13,0,.27,0,.4.15,0,.3,0,.44.01.4,0,.8.03,1.18.05.77.05,1.48.12,2.09.2.61.08,1.12.17,1.48.25.36.08.56.13.56.13,0,0-.2.06-.56.13Zm7.38-12.65c-.11.17-.25.43-.45.74-.2.32-.44.7-.67,1.14-.03.06-.06.11-.09.17-.03.06-.06.12-.09.18-.06.12-.11.25-.17.38-.06.13-.11.26-.17.4-.05.14-.11.28-.16.42-.2.58-.36,1.22-.46,1.91-.01.09-.02.17-.03.26,0,.09-.02.18-.03.26,0,.09-.01.17-.02.26,0,.09,0,.19-.01.28v.07s0,.04,0,.04c0,.01,0,0,0,0h0s0,.03,0,.03v.15c0,.1-.01.2-.02.29,0,.2-.02.4-.03.6-.02.4-.05.81-.08,1.22-.03.41-.06.83-.11,1.25-.04.42-.08.84-.14,1.27-.05.42-.11.85-.16,1.28l-.09.64c-.03.21-.06.42-.1.64-.07.42-.14.84-.22,1.26-.04.21-.08.42-.11.62-.04.21-.08.41-.12.61-.08.41-.17.81-.26,1.2-.17.79-.37,1.54-.56,2.25-.1.36-.19.7-.29,1.04-.1.33-.2.65-.29.96-.19.62-.38,1.17-.55,1.67-.17.49-.33.92-.47,1.27-.13.35-.25.62-.33.81-.08.19-.12.28-.12.28l-.08-.02s.03-.1.08-.3c.05-.19.13-.48.23-.84.1-.36.21-.8.34-1.3.06-.25.13-.52.2-.8.07-.28.14-.58.21-.89.15-.62.3-1.3.45-2.01.15-.72.31-1.47.46-2.26.15-.78.29-1.6.43-2.42.14-.83.26-1.67.38-2.51.24-1.69.43-3.38.57-4.97.03-.4.07-.79.1-1.17.03-.38.09-.76.16-1.12.15-.72.37-1.39.62-1.98.25-.59.54-1.11.83-1.55.28-.44.57-.79.8-1.09.46-.59.73-.92.73-.92l.07.05s-.05.09-.16.27Z"/>
  </g>
</svg>