<?xml version="1.0" encoding="UTF-8"?>
<svg id="Capa_2" data-name="Capa 2" xmlns="http://www.w3.org/2000/svg" viewBox="0 0 175.02 288.45">
  <g id="Layer_1" data-name="Layer 1">
    <g>
      <path d="m37.08,288.45h137.94v-10h-15.89l-10.53-106.99c-1.39-14.08-9.6-26.57-21.98-33.41l-18.31-10.12,11.76-66.43-9.85-1.74-7.24,40.89c-2.5-.4-4.89,1.28-5.34,3.78l-3.16,17.59-33.96-13.37-3.66,9.3,7.46,2.94-4,7.72c-2.04,3.94-6.07,6.51-10.52,6.69h-.01s-3.64-17.87-3.64-17.87c.02-.28.04-.56.06-.86-.2-17.34,7.07-36.68,11.49-50.24,4.06-9.53,1.78-21.81-6.43-24.96-8.21-3.15-21.06-.06-27.84,13.87-6.33,13.19-9.75,23.39-11.31,35.73l20.88-34.61c1.85-3.07,5.24-4.98,8.83-4.98,1.87,0,3.71.51,5.31,1.48,4.86,2.93,6.43,9.28,3.5,14.14l-20.21,33.5,1.89,41.6,17.75-.82c6.59-.27,12.56-4.07,15.59-9.92l2.85-5.51,1.43-2.76,22.74,8.96-5.09,28.31c-.45,2.53,1.24,4.97,3.77,5.43h0s.06,0,.09,0l-19.87,112.22,2.37.42h-36.85v10Zm69.38-150.11l15.32,8.47c9.5,5.25,15.81,14.83,16.87,25.64l10.43,106.01h-67.43l24.81-140.11Z"/>
      <circle cx="78.54" cy="22.5" r="22.5"/>
      <path d="m32,147.7c-.43,1.49-1.2,2.88-2.28,4.06-.54.59-1.14,1.1-1.78,1.54l1.29,6.33-22.76,51.79c-2.78,6.32.09,13.7,6.41,16.47,1.64.72,3.34,1.06,5.02,1.06,4.81,0,9.39-2.79,11.45-7.47l24.36-55.43c1.04-2.37,1.32-4.99.8-7.53l-2.4-11.78c-.68.11-1.37.18-2.06.21l-18.06.73Z"/>
      <rect x=".13" y="137.32" width="11.47" height="6" transform="translate(-6.43 .42) rotate(-2.63)"/>
      <path d="m28.09,99.91l20.57-34.1c2.28-3.78,1.07-8.7-2.72-10.98-3.78-2.28-8.7-1.07-10.98,2.72l-21.83,36.17c-.82,1.35-1.21,2.92-1.14,4.5l2.13,46.97c.2,4.29,3.73,7.64,7.99,7.64.12,0,.25,0,.37,0,4.41-.2,7.83-3.94,7.63-8.35l-2.02-44.55Z"/>
    </g>
  </g>
</svg>