<?xml version="1.0" encoding="UTF-8"?>
<svg id="Capa_2" data-name="Capa 2" xmlns="http://www.w3.org/2000/svg" viewBox="0 0 225.95 204.02">
  <defs>
    <style>
      .cls-1 {
        fill-rule: evenodd;
      }
    </style>
  </defs>
  <g id="Capa_1-2" data-name="Capa 1">
    <path class="cls-1" d="m19.54,115.42l85.18,85.18c4.56,4.56,11.96,4.56,16.53,0l84.87-84.87c26.46-26.46,26.46-69.43,0-95.89-25.56-25.56-66.52-26.43-93.13-2.61C86.37-6.58,45.41-5.72,19.85,19.85c-26.36,26.36-26.46,69.09-.31,95.58h0Zm185.32-9.92h-55.1c-1.8,0-3.37-1.23-3.79-2.98l-9.27-38.52-19.9,77.8c-.44,1.72-1.99,2.93-3.77,2.93-1.78,0-3.33-1.2-3.78-2.92,0,0-20.13-78.01-20.13-78.01l-9.48,38.73c-.43,1.74-1.99,2.97-3.78,2.97H21.1c1.24,1.53,2.56,3.01,3.97,4.44l85.15,85.15c1.52,1.52,3.99,1.52,5.51,0l84.87-84.87c1.52-1.51,2.93-3.09,4.25-4.72h0Zm5.35-7.79c13.2-22.93,10-52.76-9.6-72.35-23.42-23.42-61.45-23.42-84.87,0-1.52,1.52-3.99,1.52-5.51,0C86.8,1.94,48.77,1.94,25.36,25.36,5.76,44.95,2.56,74.77,15.75,97.71h57.04l12.44-50.81c.43-1.73,1.97-2.96,3.76-2.97,1.79-.01,3.35,1.19,3.8,2.92,0,0,20.21,78.33,20.21,78.33l20.04-78.32c.44-1.73,2.01-2.94,3.8-2.93,1.79.01,3.34,1.24,3.76,2.98l12.22,50.79h57.38Z"/>
  </g>
</svg>