<?xml version="1.0" encoding="UTF-8"?>
<svg id="Capa_2" data-name="Capa 2" xmlns="http://www.w3.org/2000/svg" viewBox="0 0 41.4 56.7">
  <defs>
    <style>
      .cls-1 {
        fill: #2d3540;
      }
    </style>
  </defs>
  <g id="Layer_1" data-name="Layer 1">
    <g>
      <path class="cls-1" d="m28.99,18.89c-.7-.11-1.49-.16-2.34-.1-1.45.1-2.65.48-3.56.87-.79.34-1.31,1.1-1.35,1.96l-.11,2.45,3.36-.52c1.11-.17,2.25.13,3.13.83.28.22.53.48.74.76.57-.96,1.14-1.92,1.71-2.88.82-1.37-.02-3.13-1.6-3.37Z"/>
      <path class="cls-1" d="m12.37,19.82l-.3,2.41c-.03.27.08.55.3.71l2.54,1.91c.17.12.38.18.58.15l5.3-.82.12-2.62c.05-1.17.78-2.22,1.85-2.68,1.05-.45,2.14-.75,3.27-.88.28-1.7.63-3.45,1.06-5.25.93-3.91,2.08-7.41,3.27-10.47-1.73-.55-3.6-1.02-5.56-1.4C20.56.07,16.55-.16,13.27.11c.17,2.68.19,5.67-.1,8.93-.28,3.2-.8,6.15-1.44,8.83.49.52.73,1.23.64,1.96Z"/>
      <path class="cls-1" d="m39.14,49.55c-1.86-.82-3.44-2.18-4.52-3.9l-3.64-5.83c-.85-1.37-1.37-2.92-1.5-4.52l-.65-8c-.15-1.87-1.86-3.21-3.71-2.93l-9.5,1.46c-.43.07-.86-.04-1.21-.3l-2.54-1.91c-.46-.34-.7-.91-.63-1.48l.3-2.41c.18-1.45-1.52-2.36-2.63-1.41l-6.22,5.33c-.21.18-.42.38-.61.58,0,.02.02.04.03.06.15.29.38.72.67,1.26.29.54.66,1.19,1.09,1.93.21.37.45.77.7,1.17.25.41.51.84.79,1.28.28.44.58.9.9,1.37.32.47.64.95.99,1.44.7.98,1.46,1.99,2.27,3.01.21.26.41.52.63.77.21.26.43.51.64.77.22.26.44.51.67.77.22.26.45.51.68.77.92,1.02,1.89,2.03,2.89,2.99.25.24.5.49.75.72.26.24.52.48.78.71.26.23.51.46.78.68.26.22.52.45.79.67.27.22.53.44.79.65.27.21.53.43.79.63.13.1.27.21.4.31.13.1.27.2.4.3.26.2.53.39.8.59.26.19.53.38.79.56.26.18.53.36.79.54.52.35,1.04.69,1.55,1,.13.08.25.15.38.23.13.08.26.15.38.23.25.15.5.29.74.43.49.28.97.55,1.43.79.93.49,1.79.92,2.57,1.28.78.36,1.46.66,2.02.9.28.12.54.22.76.32.22.09.41.17.56.23.31.12.47.19.47.19h0s.03.03.02.04c0,.02-.02.02-.04.02,0,0-.17-.05-.48-.16-.15-.05-.34-.11-.55-.19-.27-.09-.59-.2-.95-.33-1.21-.43-2.92-1.09-4.9-2.05-.99-.48-2.05-1.03-3.14-1.66-.27-.16-.55-.32-.82-.49-.14-.08-.28-.17-.42-.25-.14-.09-.28-.17-.42-.26-.56-.35-1.12-.74-1.68-1.13-1.12-.8-2.24-1.67-3.34-2.61-.27-.24-.56-.46-.82-.71-.27-.24-.54-.49-.81-.73-.27-.25-.53-.5-.8-.75l-.4-.38c-.13-.13-.26-.26-.39-.39-.26-.26-.52-.52-.77-.78-.13-.13-.25-.26-.38-.4l-.37-.4c-.12-.13-.25-.27-.37-.4-.12-.13-.25-.27-.37-.4-.24-.27-.48-.55-.71-.82-.94-1.09-1.82-2.21-2.63-3.32-.1-.14-.21-.27-.31-.41-.1-.14-.19-.28-.29-.42-.19-.28-.38-.55-.57-.82-.19-.27-.38-.54-.55-.81-.18-.27-.35-.54-.52-.81-.67-1.07-1.27-2.1-1.8-3.06-.98-1.8-1.7-3.36-2.21-4.52C.52,25.95-.19,28.13.05,30.33c.19,1.75.98,3.39,2.23,4.63l9.17,9.12,6.12,5.88c2.43,2.34,5.38,4.07,8.6,5.07,3.59,1.11,7.32,1.67,11.08,1.67h.46c.79,0,1.56-.25,2.19-.72h0c.95-.7,1.51-1.81,1.51-2.99,0-1.49-.88-2.84-2.25-3.44Z"/>
    </g>
  </g>
</svg>