<?xml version="1.0" encoding="UTF-8"?>
<svg id="Capa_2" data-name="Capa 2" xmlns="http://www.w3.org/2000/svg" viewBox="0 0 50.61 28.77">
  <defs>
    <style>
      .cls-1 {
        fill: #2d3540;
      }
    </style>
  </defs>
  <g id="Layer_1" data-name="Layer 1">
    <path class="cls-1" d="m46.4,10.18c-.8,0-1.54.23-2.18.61-1.67-6.2-7.5-10.79-14.23-10.79h-14.01c-.21,0-.38.17-.38.38v1.11c0,.18-.14.32-.32.32h-3.85c-.18,0-.32-.14-.32-.32V.38c0-.21-.17-.38-.38-.38H.95C.42,0,0,.42,0,.95v9.2c0,.48.36.89.84.94l14.28,1.54c.5.06.86.49.83,1-.01.25-.02.51-.02.76,0,7.94,6.44,14.39,14.39,14.39,6.7,0,12.32-4.58,13.93-10.78.63.38,1.37.6,2.16.6,2.32,0,4.21-1.88,4.21-4.21s-1.88-4.21-4.21-4.21Zm-15.58,14.58c-2.7,0-5.23-1.05-7.13-2.96-.36-.36-.36-.94,0-1.29.36-.36.94-.36,1.29,0,1.56,1.56,3.63,2.42,5.84,2.42,4.54,0,8.24-3.7,8.24-8.24v-.03c0-.51.41-.91.91-.91s.91.41.91.91v.03c0,5.55-4.52,10.07-10.07,10.07Zm15.58-8.67c-.94,0-1.7-.76-1.7-1.7s.76-1.7,1.7-1.7,1.7.76,1.7,1.7-.76,1.7-1.7,1.7Z"/>
  </g>
</svg>