<?xml version="1.0" encoding="UTF-8"?>
<svg id="Capa_2" data-name="Capa 2" xmlns="http://www.w3.org/2000/svg" viewBox="0 0 52.19 47.69">
  <defs>
    <style>
      .cls-1 {
        fill: #2d3540;
      }
    </style>
  </defs>
  <g id="Layer_1" data-name="Layer 1">
    <g>
      <path class="cls-1" d="m48.48,25.97c-.99.99-1.72,2.13-2.12,3.29,1.42.11,2.87-.37,3.95-1.45s1.57-2.54,1.45-3.95c-1.15.4-2.3,1.13-3.29,2.12Z"/>
      <path class="cls-1" d="m41.76,24.66c1.15-.4,2.3-1.13,3.29-2.12.99-.99,1.72-2.13,2.12-3.29-1.42-.11-2.87.37-3.95,1.45-1.08,1.08-1.57,2.54-1.45,3.95Z"/>
      <path class="cls-1" d="m51.68,23.28c-.19-.94-.64-1.84-1.37-2.58-.73-.73-1.63-1.19-2.58-1.37-.42,1.27-1.21,2.53-2.29,3.6s-2.33,1.87-3.6,2.29c.19.94.64,1.84,1.37,2.58.73.73,1.63,1.19,2.58,1.37.42-1.27,1.21-2.53,2.29-3.6,1.08-1.08,2.33-1.87,3.6-2.29Z"/>
      <path class="cls-1" d="m41.44,32.52c-.64-.21-1.33.13-1.55.77l-1.27,2.46.79-3.6c.14-.66-.27-1.31-.93-1.46h-.04c-.66-.15-1.31.26-1.46.93l-1.23,3.73.69-4.59c.1-.67-.36-1.29-1.03-1.39h-.04c-.67-.11-1.29.35-1.39,1.02l-1.03,3.99.3-4.22c.05-.67-.46-1.26-1.13-1.31h-.04c-.67-.05-1.26.46-1.31,1.13l-.69,5.99v-4.65c0-.71-.7-1.2-1.36-.96l-3.03,1.09c-1.36.49-2.11,1.95-1.71,3.35l2.72,7c-.12,1.55,0,2.77,1.29,3.65.62.42,1.35.83,2.21,1.17,1.12.44,2.17.64,3.08.72,1.39.12,2.76-.43,3.68-1.49,2.55-2.95,3.88-8.1,5.25-11.75.24-.65-.1-1.37-.76-1.59Zm-6.49,13.68c-.14.39-1.95.53-4.02-.23-2.07-.76-3.61-2.12-3.47-2.51.14-.39,1.93-.09,4,.66,2.07.76,3.63,1.68,3.49,2.07Z"/>
      <path class="cls-1" d="m11.08,19.82c-.2.39.04.85.47.92,1.77.26,4.54-.03,6.83-.8,1.76-.59,4.23-1.41,5.63-3.69,1.02-1.65.6-2.65,1.37-4.49,0,0,0,0,0-.01.25-.72.78-1.78,1.89-2.56,1.59-1.12,3.36-.96,4.47-.69,0,0,0-.01,0-.02,0-.02-.01-.04-.02-.06,0,0,0-.01,0-.02,0-.02-.02-.05-.03-.07-.23-.53-1-.8-1.46-.95-2.34-.79-3.81.31-7.96.81-.04,0-.09.01-.14.02-1.74,1.09-3.75,2.71-5.72,4.7-2.43,2.45-4.31,4.95-5.32,6.93Z"/>
      <path class="cls-1" d="m26.02,11.36s.02,0,.03,0c.87.12,1.28.15,1.95,0,1.69-.38,3.32-1.52,3.67-2.43-1.02-.25-2.69-.42-4.15.6-.76.54-1.23,1.23-1.51,1.82Z"/>
      <path class="cls-1" d="m5.45,23.16c.13.13.34.15.5.05l3.46-2.36c.44-.3.76-.74.96-1.24.02-.04.03-.08.05-.12,1.08-2.12,3.07-4.72,5.45-7.12,1.9-1.91,3.94-3.59,5.76-4.75-.16-.16-.32-.32-.48-.48-4.42-4.38-11.57-4.34-15.92.12-4.32,4.42-4.17,11.55.22,15.9h0Z"/>
      <path class="cls-1" d="m51.08,1.43c-1.66-1.84-4.52-1.91-6.26-.15l-27.66,27.96,2.62,3L50.57,7.67c1.94-1.54,2.17-4.4.52-6.24Z"/>
      <path class="cls-1" d="m14.57,31.86c-.91.92-1.85,1.82-2.81,2.7L1.84,43.57l-.14-.15c-.36-.4-.97-.46-1.37-.11-.41.35-.45.97-.09,1.37l2.4,2.67c.36.4.97.46,1.37.11.41-.35.45-.97.09-1.37l-.16-.18,10.01-8.9c.97-.86,1.97-1.7,2.98-2.51l2.15-1.71-2.55-2.92-1.97,1.99Z"/>
    </g>
  </g>
</svg>