<?xml version="1.0" encoding="UTF-8"?>
<svg id="Capa_2" data-name="Capa 2" xmlns="http://www.w3.org/2000/svg" viewBox="0 0 22.08 49.86">
  <defs>
    <style>
      .cls-1 {
        fill: #2d3540;
      }
    </style>
  </defs>
  <g id="Layer_1" data-name="Layer 1">
    <g>
      <path class="cls-1" d="m21.36,0H.73c-.4,0-.73.32-.73.72v1.54c0,.4.32.72.73.72h7.47v1.33c0,1.44,1.08,2.64,2.47,2.82,0,0,0,0,0,0h0c.06,0,.12.01.18.02,0,0,.01,0,.02,0,.06,0,.12,0,.18,0s.12,0,.18,0c0,0,.01,0,.02,0,.06,0,.12-.01.18-.02h0s0,0,0,0c1.39-.19,2.47-1.38,2.47-2.82v-1.33h7.47c.4,0,.73-.32.73-.72V.72c0-.4-.32-.72-.73-.72Zm-8.98,4.32c0,.68-.51,1.25-1.17,1.33-.02,0-.03,0-.05,0-.04,0-.07,0-.11,0s-.07,0-.11,0c-.02,0-.03,0-.05,0-.66-.08-1.17-.64-1.17-1.33v-1.33h2.67v1.33Z"/>
      <path class="cls-1" d="m18.27,12.21c-.05-1.04-.67-1.94-1.55-2.29-.43-.74-.9-1.45-1.38-2.14-.87-1.23-1.84-2.39-2.87-3.44-.39-.4-.89-.62-1.42-.62s-1.03.22-1.42.62c-1.03,1.05-2,2.2-2.87,3.44-.48.68-.95,1.4-1.38,2.14-.89.36-1.51,1.25-1.55,2.29-.52,11.51-.52,23.03,0,34.55.05,1.14.79,2.11,1.82,2.39,3.64.96,7.17.96,10.8,0,1.03-.27,1.77-1.24,1.82-2.39.52-11.51.52-23.03,0-34.55Zm-10.61-2.82c.15-.22.29-.44.45-.65.82-1.16,1.73-2.25,2.7-3.23.05-.05.14-.12.24-.12s.19.07.24.12c.97.99,1.88,2.07,2.7,3.23.15.21.3.43.44.65-2.27-.38-4.51-.38-6.77,0Z"/>
    </g>
  </g>
</svg>