<?xml version="1.0" encoding="UTF-8"?>
<svg id="Capa_2" data-name="Capa 2" xmlns="http://www.w3.org/2000/svg" viewBox="0 0 51.59 26.85">
  <defs>
    <style>
      .cls-1 {
        fill: #2d3540;
      }
    </style>
  </defs>
  <g id="Layer_1" data-name="Layer 1">
    <path class="cls-1" d="m51.06,19.57h-.96v-8.65c0-.3-.24-.55-.53-.55h-14.46c-.29,0-.53.25-.53.55v8.65h-1.02V.55c0-.3-.24-.55-.53-.55h-14.46c-.29,0-.53.25-.53.55v19.03h-1.02V6.12c0-.3-.24-.55-.53-.55H2.02c-.29,0-.53.25-.53.55v13.45h-.96c-.29,0-.53.25-.53.55v6.18c0,.3.24.55.53.55h50.53c.29,0,.53-.25.53-.55v-6.18c0-.3-.24-.55-.53-.55ZM11.38,13.92c0,.1-.08.18-.18.18h-4c-.11,0-.2-.11-.18-.22.07-.36.21-.71.42-1.04.25-.39.73-.86,1.43-1.39.43-.33.7-.58.82-.75.12-.17.18-.33.18-.49,0-.17-.06-.31-.18-.42-.12-.12-.27-.18-.45-.18s-.34.06-.46.18c-.1.1-.17.26-.21.48-.02.09-.1.15-.19.15l-1.11-.09c-.11,0-.18-.11-.16-.22.06-.33.16-.59.28-.79.15-.24.37-.42.65-.55.28-.13.66-.19,1.16-.19s.92.06,1.2.18c.29.12.51.31.67.56.16.25.25.53.25.84,0,.33-.09.65-.28.95-.19.3-.53.63-1.03.99-.29.21-.49.36-.59.44,0,0,0,0,0,0-.13.11-.05.33.11.33h1.64c.1,0,.18.08.18.18v.86Zm15.58-5.78c0,.11-.09.2-.19.2h-1.1c-.11,0-.19-.09-.19-.2v-3.04c0-.16-.17-.25-.3-.17-.14.09-.27.17-.4.24-.16.09-.36.17-.59.25-.13.04-.26-.05-.26-.19v-.82c0-.08.05-.16.13-.19.44-.16.78-.34,1.03-.55.25-.21.44-.46.6-.75.03-.06.1-.11.17-.11h.9c.11,0,.19.09.19.2v5.13Zm17.31,9.28c-.16.29-.39.51-.69.67-.3.16-.69.23-1.18.23s-.85-.06-1.12-.17c-.27-.12-.5-.28-.68-.51-.13-.17-.24-.36-.33-.59-.05-.12.03-.26.16-.28l1.03-.14c.1-.01.19.05.22.15.06.21.13.36.23.45.12.12.27.17.46.17.19,0,.36-.07.49-.22.13-.15.19-.34.19-.59s-.06-.44-.19-.58c-.12-.14-.29-.21-.51-.21-.06,0-.13,0-.22.02-.13.02-.24-.08-.23-.21l.04-.58c0-.11.1-.19.2-.19h0c.19,0,.35-.06.48-.19.13-.12.19-.27.19-.44s-.05-.3-.14-.39c-.09-.1-.23-.15-.39-.15s-.31.05-.42.16c-.08.08-.14.2-.18.38-.03.1-.13.17-.23.15l-.96-.18c-.12-.02-.19-.15-.15-.27.12-.34.32-.61.59-.8.32-.24.78-.36,1.38-.36.68,0,1.17.13,1.48.39.3.26.46.59.46.99,0,.23-.06.44-.19.63-.06.1-.15.19-.24.28-.11.1-.09.28.04.34.04.02.07.04.1.06.17.11.31.26.4.44.1.18.14.4.14.64,0,.31-.08.61-.24.9Z"/>
  </g>
</svg>