<?xml version="1.0" encoding="UTF-8"?>
<svg id="Capa_2" data-name="Capa 2" xmlns="http://www.w3.org/2000/svg" viewBox="0 0 225.95 160.19">
  <defs>
    <style>
      .cls-1 {
        fill-rule: evenodd;
      }
    </style>
  </defs>
  <g id="Capa_1-2" data-name="Capa 1">
    <path class="cls-1" d="m1.18,147.3s13.17,12.9,34.12,12.9c10.6,0,16.12-3.19,21.63-6.44,4.51-2.65,9.01-5.36,17.68-5.36s13.98,2.75,19.09,5.45c6.08,3.21,12.08,6.35,22.15,6.35s15.57-3.2,20.95-6.46c4.36-2.64,8.74-5.33,17.2-5.33s12.87,2.7,17.33,5.35c5.46,3.24,10.99,6.44,21.59,6.44,21.29,0,32.13-13.19,32.13-13.19,1.38-1.65,1.16-4.11-.49-5.49-1.65-1.38-4.11-1.16-5.49.49,0,0-8.91,10.4-26.16,10.4-8.66,0-13.15-2.7-17.61-5.35-5.47-3.25-10.9-6.44-21.31-6.44s-15.87,3.2-21.24,6.46c-4.35,2.64-8.64,5.33-16.91,5.33s-13.42-2.76-18.51-5.45c-6.07-3.2-12.26-6.35-22.72-6.35s-16.12,3.19-21.63,6.43c-4.51,2.66-9,5.36-17.68,5.36-17.59,0-28.69-10.69-28.69-10.69-1.54-1.5-4.01-1.46-5.51.08-1.5,1.54-1.46,4.01.08,5.51h0Zm0-23.48s13.17,12.9,34.12,12.9c10.6,0,16.12-3.19,21.63-6.44,4.51-2.65,9.01-5.36,17.68-5.36s13.98,2.75,19.09,5.45c6.08,3.21,12.08,6.35,22.15,6.35s15.57-3.2,20.95-6.46c4.36-2.64,8.74-5.33,17.2-5.33s12.87,2.7,17.33,5.35c5.46,3.24,10.99,6.44,21.59,6.44,21.29,0,32.13-13.19,32.13-13.19,1.38-1.65,1.16-4.11-.49-5.49-1.65-1.38-4.11-1.16-5.49.49,0,0-8.91,10.4-26.16,10.4-8.66,0-13.15-2.7-17.61-5.35-5.47-3.25-10.9-6.44-21.31-6.44s-15.87,3.21-21.24,6.46c-4.35,2.64-8.64,5.33-16.91,5.33s-13.42-2.76-18.51-5.45c-6.07-3.2-12.26-6.35-22.72-6.35s-16.12,3.19-21.63,6.43c-4.51,2.66-9,5.36-17.68,5.36-17.59,0-28.69-10.69-28.69-10.69-1.54-1.5-4.01-1.46-5.51.08-1.5,1.54-1.46,4.01.08,5.51h0ZM142.75,37.72h-56.88v-2.89c0-14.93,12.1-27.04,27.04-27.04h0c2.15,0,3.9-1.75,3.9-3.9s-1.75-3.9-3.9-3.9h0c-19.23,0-34.83,15.59-34.83,34.83v58.94c-1.1-.08-2.26-.12-3.47-.12-10.6,0-16.12,3.19-21.63,6.44-4.51,2.65-9,5.36-17.68,5.36-17.59,0-28.69-10.69-28.69-10.69-1.54-1.5-4.01-1.46-5.51.08s-1.46,4.01.08,5.51c0,0,13.17,12.89,34.12,12.89,10.6,0,16.12-3.19,21.63-6.43,4.51-2.65,9.01-5.36,17.68-5.36s13.98,2.75,19.09,5.45c6.08,3.21,12.08,6.35,22.15,6.35s15.57-3.2,20.95-6.46c4.36-2.64,8.74-5.33,17.2-5.33s12.87,2.7,17.33,5.35c5.46,3.24,10.99,6.44,21.59,6.44,21.29,0,32.13-13.19,32.13-13.19,1.38-1.65,1.16-4.11-.49-5.49-1.65-1.38-4.11-1.16-5.49.49,0,0-8.91,10.4-26.16,10.4-8.66,0-13.15-2.7-17.61-5.35-5.47-3.25-10.9-6.44-21.31-6.44-1.22,0-2.37.04-3.45.13v-58.95c0-14.93,12.1-27.04,27.04-27.04h0c2.15,0,3.9-1.75,3.9-3.9s-1.75-3.9-3.9-3.9h0c-19.23,0-34.83,15.59-34.83,34.83v2.89h0Zm0,57.51v-16.11h-56.88v15.97c4.4,1.22,7.95,3.05,11.46,4.9,5.09,2.69,10.08,5.45,18.51,5.45s12.56-2.7,16.91-5.33c3.02-1.83,6.06-3.64,9.99-4.88h0Zm0-49.72h-56.88v25.82h56.88v-25.82h0Z"/>
  </g>
</svg>