<?xml version="1.0" encoding="UTF-8"?>
<svg id="Capa_2" data-name="Capa 2" xmlns="http://www.w3.org/2000/svg" viewBox="0 0 48.87 36.92">
  <defs>
    <style>
      .cls-1 {
        fill: #2d3540;
      }
    </style>
  </defs>
  <g id="Layer_1" data-name="Layer 1">
    <path class="cls-1" d="m37.58,0c-4.04,0-7.58,2.12-9.57,5.31-2-3.19-5.54-5.31-9.57-5.31C12.2,0,7.15,5.05,7.15,11.29c0,.66.06,1.3.16,1.92.1.66.25,1.49.5,2.42.39,1.46.92,2.78,1.53,3.99.07.14.21.22.36.22h9.69c.1,0,.19-.07.22-.16l2.32-7.1c.17-.51.65-.86,1.19-.86.54,0,1.02.36,1.18.88l2.82,9.17c.02.06.1.06.12,0l.99-2.77c.18-.49.65-.82,1.17-.82h9.26c.67,0,1.24.51,1.28,1.18.03.71-.53,1.3-1.24,1.3h-8.42l-2.02,5.64c-.18.49-.65.82-1.17.82,0,0-.02,0-.03,0-.53-.01-1-.37-1.16-.88l-2.76-8.98c-.02-.06-.1-.06-.12,0l-1.37,4.2c-.17.51-.64.89-1.18.89,0,0-9.48-.03-9.48-.03H1.28C.61,22.33.03,22.85,0,23.52c-.03.71.53,1.3,1.24,1.3h11.73c.97,1.09,1.98,2.11,2.99,3.1,2.58,2.53,6.53,5.91,12.05,9.01,5.52-3.1,9.47-6.47,12.05-9.01,3.3-3.23,6.65-6.73,8.15-12.28.25-.93.41-1.76.5-2.42.11-.63.16-1.27.16-1.92,0-6.23-5.05-11.29-11.29-11.29Z"/>
  </g>
</svg>