<?xml version="1.0" encoding="UTF-8"?>
<svg id="Capa_2" data-name="Capa 2" xmlns="http://www.w3.org/2000/svg" viewBox="0 0 174.86 294.95">
  <g id="Layer_1" data-name="Layer 1">
    <g>
      <polygon points="42.96 138.15 42.96 151.84 48.35 150.64 49.03 150.13 49.03 81.36 42.96 138.15"/>
      <path d="m49.03,40.12v-20.98h9.03v20.34l-4.13,1.43c-6.71,2.32-11.79,10.79-12.94,21.57l-8.96,90.27,2.03.08c1.76.04,3.41.51,4.87,1.29l9.02-90.89c.84-7.85,4.24-14.3,8.27-15.7l5.95-2.06h20.21v43.75c1.63-.33,3.32-.5,5.05-.5s3.42.17,5.05.5v-43.75h20.21l5.95,2.06c4.03,1.4,7.43,7.85,8.27,15.7l9.02,90.89c1.46-.78,3.11-1.25,4.87-1.29l2.03-.08-8.96-90.27c-1.15-10.78-6.23-19.25-12.94-21.57l-4.13-1.43v-20.34h9.03v20.98c2.31,1.62,4.36,3.88,6.06,6.65v-27.63h10.19v-6.06h-25.28v-7.4h-11.27V0h-36.19v5.68h-11.27v7.4h-25.28v6.06h10.19v27.63c1.7-2.76,3.75-5.03,6.06-6.65Z"/>
      <path d="m49.03,210.53v-37.5l-6.06,1.35v37.65c.95-.4,1.94-.7,2.97-.9l3.09-.6Z"/>
      <polygon points="126.51 150.64 131.89 151.84 131.89 138.15 125.83 81.36 125.83 150.13 126.51 150.64"/>
      <path d="m125.83,210.53l3.09.6c1.03.2,2.02.51,2.97.9v-37.65l-6.06-1.35v37.5Z"/>
      <polygon points="68.72 276.64 68.72 245.15 65.72 245.15 65.72 276.81 68.72 276.64"/>
      <path d="m65.72,49.64v51.22c.87-1.41,1.88-2.73,3-3.94v-47.28h-3Z"/>
      <path d="m65.72,139.3c.77-.18,1.57-.28,2.39-.28h.61v-7.5c-1.12-1.21-2.13-2.53-3-3.94v11.72Z"/>
      <polygon points="106.14 245.15 106.14 276.64 109.14 276.81 109.14 245.15 106.14 245.15"/>
      <path d="m106.14,49.64v47.28c1.12,1.21,2.13,2.53,3,3.94v-51.22h-3Z"/>
      <path d="m106.14,131.52v7.5h.61c.82,0,1.62.1,2.39.28v-11.72c-.87,1.41-1.88,2.73-3,3.94Z"/>
      <path d="m20.46,282.42l-20.46,1.12v5.36h21.79c-.92-2.05-1.37-4.25-1.33-6.48Z"/>
      <path d="m153.07,288.9h21.79v-5.36l-20.46-1.12c.05,2.23-.41,4.43-1.33,6.48Z"/>
      <path d="m123.04,280.7l-30.56-1.67v-36.88h16.74c1.75,0,3.32-.78,4.4-2.01l-.22-.95-24.14-4.68c-.62-.12-1.23-.28-1.83-.48-.6.2-1.21.35-1.83.48l-24.14,4.68-.22.95c1.08,1.23,2.65,2.01,4.4,2.01h16.74v36.88l-30.56,1.67-1.26,5.44c-.22.96-.54,1.88-.93,2.75h75.6c-.39-.87-.7-1.79-.93-2.75l-1.26-5.44Z"/>
      <circle cx="87.43" cy="114.22" r="22.5"/>
      <path d="m151.09,279.92l-13.14-56.59c-1.09-4.71-4.85-8.34-9.6-9.26l-13.88-2.69v-46.02l2.56,1.91c.9.67,1.94,1.15,3.04,1.39l13.33,2.98c-1.97-1.94-3.23-4.61-3.3-7.56-.08-3.48,1.47-6.61,3.94-8.69l-8.82-1.97-13.12-9.79c-1.37-1.02-2.97-1.54-4.56-1.58-.26-.03-.53-.04-.8-.04h-38.63c-.27,0-.54.01-.8.04-1.59.04-3.19.55-4.56,1.58l-13.12,9.79-8.82,1.97c2.47,2.08,4.02,5.21,3.94,8.69-.07,2.95-1.32,5.62-3.3,7.56l13.33-2.98c1.1-.25,2.14-.72,3.04-1.39l2.56-1.91v46.02l-13.88,2.69c-4.75.92-8.51,4.55-9.6,9.26l-13.14,56.59c-1.53,6.59,2.57,13.17,9.16,14.7.93.22,1.86.32,2.78.32,5.57,0,10.61-3.82,11.92-9.48l11.34-48.85,26.05-5.05c.84-.16,1.64-.41,2.4-.73.76.32,1.56.56,2.4.73l26.05,5.05,11.34,48.85c1.31,5.66,6.35,9.48,11.92,9.48.92,0,1.85-.1,2.78-.32,6.59-1.53,10.69-8.11,9.16-14.7Z"/>
      <path d="m36.92,174.36c-1,.31-2.06.47-3.16.47h-.26s-3.65-.15-3.65-.15l-.53,5.34-.24,2.45c-.21,1.92,1.19,3.65,3.11,3.85.13.01.25.02.38.02,1.77,0,3.28-1.33,3.48-3.13l.35-3.57.53-5.29Z"/>
      <path d="m27.13,171.58l6.44.25c.06,0,.13,0,.19,0,4.33,0,7.89-3.46,7.99-7.81.1-4.42-3.4-8.08-7.81-8.18l-6.44-.25c-4.43-.1-4.79,15.89-.37,16Z"/>
      <path d="m141.36,174.83h-.26c-1.1,0-2.16-.16-3.16-.47l.53,5.29.35,3.57c.19,1.8,1.71,3.13,3.48,3.13.12,0,.25,0,.38-.02,1.92-.21,3.31-1.93,3.11-3.85l-.24-2.45-.53-5.34-3.65.14Z"/>
      <path d="m140.92,155.83c-4.42.1-7.92,3.77-7.81,8.18.1,4.35,3.66,7.81,7.99,7.81.06,0,.13,0,.19,0l6.44-.25c4.42-.1,4.06-16.1-.37-16l-6.44.25Z"/>
    </g>
  </g>
</svg>