<?xml version="1.0" encoding="UTF-8"?>
<svg id="Capa_2" data-name="Capa 2" xmlns="http://www.w3.org/2000/svg" viewBox="0 0 220.87 225.7">
  <defs>
    <style>
      .cls-1 {
        fill-rule: evenodd;
      }
    </style>
  </defs>
  <g id="Capa_1-2" data-name="Capa 1">
    <path class="cls-1" d="m220.85,80.54c.04-2.08.02-3.77,0-4.75-.18-8.06-1.24-17.02-3.79-27.71-4.77-20.04-12.78-32.61-22.38-39.83-9.9-7.45-21.6-9.39-33.79-7.64-11.35,1.63-21.82,8.87-29.7,20.34-11.23,16.38-17.21,41.54-12.66,70.36,5.78,36.68,4.69,51.82,5.21,82.74.33,19.71,6.12,34.97,17.74,43.63,7.83,5.83,18.38,8.77,32,7.85,10.26-.69,18.32-3.37,24.53-8.02,7.29-5.46,12.13-13.68,14.78-25.06,2.47-10.63,3.04-24.15,2.09-40.81-1.27-22.19,1.9-36.68,4.06-51.04.98-6.5,1.77-12.97,1.91-20.06h0ZM.05,75.79c-.1.98-.02,3.87,0,4.75.14,7.09.93,13.56,1.91,20.06,2.17,14.36,5.33,28.85,4.06,51.04-.95,16.67-.38,30.18,2.09,40.81,2.65,11.38,7.49,19.6,14.78,25.06,6.21,4.65,14.26,7.32,24.53,8.02,13.63.92,24.18-2.02,32-7.85,11.62-8.66,17.41-23.92,17.74-43.63.52-30.92-.57-46.06,5.21-82.74,4.54-28.82-1.43-53.98-12.66-70.36C81.83,9.47,71.36,2.23,60.01.6c-12.18-1.75-23.88.19-33.79,7.64C16.61,15.47,8.61,28.04,3.84,48.08,1.29,58.77.23,67.73.05,75.79H.05Zm212.99.34c-3.8-35.26-22.9-50.39-44.11-50.39-23.84,0-43.89,19.28-43.89,53.35,0,.11,0,.21-.01.31.23,3.49.62,7.06,1.2,10.69,5.86,37.16,4.78,52.49,5.3,83.82.28,16.85,4.67,30.11,14.61,37.52,6.54,4.88,15.43,7.1,26.82,6.33,8.51-.58,15.24-2.63,20.38-6.48,5.95-4.46,9.7-11.29,11.86-20.59,2.34-10.05,2.8-22.84,1.9-38.6-1.31-22.89,1.9-37.84,4.14-52.65,1.12-7.44,1.98-14.85,1.81-23.3h0Zm-117.18,3.28c0-.1-.01-.21-.01-.31,0-34.07-20.05-53.35-43.89-53.35-21.22,0-40.31,15.13-44.11,50.39-.17,8.45.69,15.86,1.81,23.3,2.23,14.81,5.44,29.76,4.14,52.65-.9,15.76-.44,28.55,1.9,38.6,2.16,9.3,5.9,16.13,11.86,20.59,5.15,3.85,11.87,5.91,20.38,6.48,11.4.77,20.28-1.45,26.82-6.33,9.93-7.4,14.32-20.67,14.61-37.52.53-31.32-.56-46.66,5.3-83.82.57-3.63.97-7.2,1.2-10.69h0Zm46.41,12.29v89.12c0,15.2,12.32,27.52,27.52,27.52h0c15.2,0,27.52-12.32,27.52-27.52v-89.12c0-4.13-1.64-8.1-4.56-11.02-2.92-2.92-6.89-4.56-11.02-4.56h-23.88c-4.13,0-8.1,1.64-11.02,4.56-2.92,2.92-4.56,6.89-4.56,11.02h0Zm-63.66,0c0-4.13-1.64-8.1-4.56-11.02s-6.89-4.56-11.02-4.56h-23.88c-4.13,0-8.1,1.64-11.02,4.56-2.92,2.92-4.57,6.89-4.57,11.02v89.12c0,15.2,12.32,27.52,27.52,27.52h0c15.2,0,27.52-12.32,27.52-27.52v-89.12h0Zm71.45,63v26.12c0,10.9,8.83,19.73,19.73,19.73h0c10.9,0,19.73-8.83,19.73-19.73v-25.47c-5.36,4.63-12.23,7.19-19.36,7.19s-14.63-2.81-20.1-7.85h0Zm-79.25,0c-5.46,5.04-12.64,7.85-20.1,7.85s-14-2.57-19.36-7.19v25.47c0,10.9,8.83,19.73,19.73,19.73h0c10.9,0,19.73-8.83,19.73-19.73v-26.12h0Zm0-10.99v-7.57H31.36v8.31l3.9,3.9c4.1,4.11,9.67,6.41,15.47,6.41s11.37-2.31,15.47-6.41l4.63-4.64h0Zm118.71.74v-8.31h-39.46v7.57l4.63,4.64c4.1,4.11,9.67,6.41,15.47,6.41s11.37-2.31,15.47-6.41l3.9-3.9h0Zm-39.46-25.16v9.06h39.46v-9.06h-39.46Zm-118.71,0v9.06h39.46v-9.06H31.36Zm118.71-17.02v9.23h39.46v-9.23h-39.46Zm-118.71,0v9.23h39.46v-9.23H31.36Zm158.17-7.79h-39.46v-2.77c0-2.07.82-4.05,2.28-5.51,1.46-1.46,3.44-2.28,5.51-2.28h23.88c2.07,0,4.05.82,5.51,2.28,1.46,1.46,2.28,3.44,2.28,5.51v2.77h0Zm-118.71,0H31.36v-2.77c0-2.07.82-4.05,2.28-5.51,1.46-1.46,3.44-2.28,5.51-2.28h23.88c2.07,0,4.05.82,5.51,2.28,1.46,1.46,2.28,3.44,2.28,5.51v2.77h0Zm17.17-60.95c-1.42-2.93-2.99-5.66-4.71-8.17-6.5-9.48-15-15.69-24.38-17.04-10.08-1.45-19.8-.01-27.99,6.16-5.36,4.03-10.03,10.01-13.81,18.33,9.56-10.26,22.02-14.85,34.87-14.85,13.73,0,26.57,5.35,36.02,15.58h0Zm115.81-.73c-3.78-8.31-8.45-14.3-13.81-18.33-8.19-6.17-17.91-7.6-27.99-6.16-9.38,1.35-17.88,7.56-24.38,17.04-1.72,2.51-3.3,5.24-4.71,8.17,9.45-10.23,22.3-15.58,36.03-15.58,12.85,0,25.31,4.59,34.87,14.85h0Z"/>
  </g>
</svg>