<?xml version="1.0" encoding="UTF-8"?>
<svg id="Capa_2" data-name="Capa 2" xmlns="http://www.w3.org/2000/svg" viewBox="0 0 69.88 39.04">
  <defs>
    <style>
      .cls-1 {
        fill: #2d3540;
      }
    </style>
  </defs>
  <g id="Layer_1" data-name="Layer 1">
    <g>
      <path class="cls-1" d="m55.45,10.18c-1.64,0-3.22.28-4.7.78l-3.66-7.65h6.38c.52,0,.95.43.95.95s-.43.95-.95.95h-.61c-.91,0-1.66.74-1.66,1.66s.74,1.66,1.66,1.66h.61c2.35,0,4.26-1.91,4.26-4.26s-1.91-4.26-4.26-4.26h-9.01s-.02,0-.03,0c-.03,0-.07,0-.1,0-.02,0-.04,0-.06,0-.03,0-.06,0-.09.01-.03,0-.05,0-.08.02-.03,0-.05.01-.08.02-.03,0-.06.02-.09.03-.02,0-.04.01-.06.02-.03.01-.06.03-.09.04,0,0-.02,0-.03.01-.01,0-.02.01-.03.02-.03.01-.06.03-.09.05-.02.01-.04.02-.06.04-.02.02-.05.03-.07.05-.02.02-.05.03-.07.05-.02.01-.04.03-.05.04-.02.02-.05.04-.07.06-.02.01-.03.03-.04.05-.02.02-.04.05-.06.07-.01.02-.03.03-.04.05-.02.02-.04.05-.05.07-.01.02-.03.04-.04.06-.01.02-.03.04-.04.07-.01.03-.03.05-.04.08-.01.02-.02.04-.03.06-.01.03-.02.06-.04.09,0,.02-.02.04-.02.06,0,.03-.02.06-.03.09,0,.02-.01.05-.02.07,0,.03-.01.05-.02.08,0,.03,0,.06-.01.08,0,.02,0,.05,0,.07,0,.03,0,.07,0,.1,0,.01,0,.02,0,.03,0,.01,0,.02,0,.03,0,.03,0,.07,0,.1,0,.02,0,.04,0,.07,0,.03,0,.06.01.09,0,.03,0,.05.02.08,0,.03.01.05.02.08,0,.03.02.06.03.09,0,.02.01.04.02.06.01.03.03.06.04.1,0,0,0,.02.01.03l2.28,4.75h-19.41c-.55,0-1.07.28-1.38.73l-1.37,2.04c-.51.76-.31,1.79.45,2.3.76.51,1.79.31,2.3-.45l.88-1.31h15.67l-9.78,12.52h-1.23c-.91,0-1.66.74-1.66,1.66s.74,1.66,1.66,1.66h2.04c.51,0,.99-.23,1.31-.64l12.01-15.38,1.03,2.15c-4.05,2.56-6.75,7.08-6.75,12.21,0,7.96,6.47,14.43,14.43,14.43s14.43-6.47,14.43-14.43-6.47-14.43-14.43-14.43Zm0,25.55c-6.13,0-11.12-4.99-11.12-11.12,0-3.82,1.94-7.2,4.88-9.2l4.75,9.91c.28.59.88.94,1.5.94.24,0,.48-.05.71-.16.83-.39,1.17-1.38.78-2.21l-4.75-9.92c1.03-.32,2.12-.49,3.25-.49,6.13,0,11.12,4.99,11.12,11.12s-4.99,11.12-11.12,11.12Z"/>
      <path class="cls-1" d="m14.43,10.18C6.47,10.18,0,16.65,0,24.61s6.47,14.43,14.43,14.43,14.43-6.47,14.43-14.43-6.47-14.43-14.43-14.43Zm0,25.55c-6.13,0-11.12-4.99-11.12-11.12s4.99-11.12,11.12-11.12,11.12,4.99,11.12,11.12-4.99,11.12-11.12,11.12Z"/>
      <path class="cls-1" d="m20.8,18.61c.53-.74.37-1.78-.38-2.31-.74-.53-1.78-.37-2.31.38l-5.02,6.97c-.36.5-.41,1.17-.13,1.72s.85.9,1.47.9h8.61c.91,0,1.66-.74,1.66-1.66s-.74-1.66-1.66-1.66h-5.38l3.13-4.35Z"/>
      <path class="cls-1" d="m22.38,6.62h5.58c.91,0,1.66-.74,1.66-1.66s-.74-1.66-1.66-1.66h-5.58c-.91,0-1.66.74-1.66,1.66s.74,1.66,1.66,1.66Z"/>
    </g>
  </g>
</svg>