<?xml version="1.0" encoding="UTF-8"?>
<svg id="Capa_2" data-name="Capa 2" xmlns="http://www.w3.org/2000/svg" viewBox="0 0 27.07 52.49">
  <defs>
    <style>
      .cls-1 {
        fill: #2d3540;
      }
    </style>
  </defs>
  <g id="Layer_1" data-name="Layer 1">
    <g>
      <path class="cls-1" d="m10.69,20.13l-.06.44c-.47,3.51-1.47,6.74-2.89,9.33-1.35,2.47-2.1,5.68-2.12,9.04-.03,4.79,1.47,9.29,3.92,11.77.92.93,1.94,1.52,2.98,1.76.2.01.4.03.6.03l.03-36.04s-.05,0-.08.01c-.88.38-2.13,1.7-2.39,3.67Z"/>
      <path class="cls-1" d="m21.42,38.94c-.02-3.36-.77-6.57-2.12-9.04-1.42-2.59-2.41-5.82-2.89-9.33l-.06-.44c-.26-1.98-1.52-3.31-2.4-3.68-.01,0-.02,0-.04,0l-.03,36.04c.21,0,.41-.02.61-.03,1.05-.23,2.08-.83,3-1.76,2.45-2.47,3.95-6.98,3.92-11.77Z"/>
      <path class="cls-1" d="m5.98,46.06c-.74-2.17-1.13-4.63-1.11-7.13.02-3.48.81-6.82,2.22-9.4,1.37-2.51,2.34-5.65,2.8-9.07l.06-.44c.16-1.18.63-2.18,1.21-2.92-1.3.68-2.54,1.83-2.87,3.32-.03.14-.06.29-.1.43-.75,3.34-2.33,6.45-4.64,8.97C1.37,32.21.03,35.36,0,38.82c-.06,6.23,4.14,11.54,9.86,13.16-.29-.22-.58-.47-.85-.75-1.26-1.27-2.31-3.06-3.03-5.18Z"/>
      <path class="cls-1" d="m23.65,29.97c-2.34-2.63-4.01-5.77-4.78-9.2-.02-.11-.05-.22-.07-.33-.34-1.51-1.61-2.68-2.93-3.35.59.75,1.07,1.75,1.23,2.95l.06.44c.46,3.42,1.43,6.55,2.8,9.07,1.41,2.58,2.2,5.91,2.22,9.4.01,2.5-.37,4.96-1.11,7.13-.73,2.12-1.77,3.91-3.03,5.18-.28.29-.58.54-.88.77,5.72-1.58,9.92-6.82,9.92-13.05,0-3.45-1.29-6.6-3.42-8.99Z"/>
      <path class="cls-1" d="m14.56,14.8c-.06-.41-.44-.7-.85-.65-.06,0-.12.01-.18.01-.74,0-1.34-.6-1.34-1.34v-2.39c0-.74.6-1.34,1.34-1.34.06,0,.11,0,.18.01.41.06.79-.24.85-.65.06-.41-.24-.79-.65-.85-.13-.02-.25-.03-.38-.03-1.57,0-2.85,1.28-2.85,2.85v2.39c0,1.57,1.28,2.85,2.85,2.85.12,0,.25,0,.38-.03.41-.06.7-.44.65-.85Z"/>
      <path class="cls-1" d="m13.54,9.91c-.06,0-.12,0-.18-.01-.41-.06-.79.23-.85.65-.06.41.23.79.65.85.13.02.25.03.38.03,1.57,0,2.85-1.28,2.85-2.85v-2.39c0-1.57-1.28-2.85-2.85-2.85-.12,0-.25,0-.38.03-.41.06-.7.44-.65.85.06.41.44.7.85.65.06,0,.12-.01.18-.01.74,0,1.34.6,1.34,1.34v2.39c0,.74-.6,1.34-1.34,1.34Z"/>
      <path class="cls-1" d="m15.37,16.4c.09.03.17.05.26.05.31,0,.6-.19.71-.49.12-.33.18-.68.18-1.03,0-1.65-1.34-2.99-2.99-2.99-.12,0-.25,0-.37.02-.41.05-.71.43-.66.84s.43.71.84.66c.06,0,.12-.01.18-.01.81,0,1.47.66,1.47,1.47,0,.18-.03.35-.09.51-.14.39.06.83.45.97Z"/>
      <path class="cls-1" d="m3.22,2.99h7.47v1.33c0,1.57,1.28,2.85,2.85,2.85.12,0,.25,0,.38-.03.41-.06.7-.44.65-.85s-.44-.7-.85-.65c-.06,0-.12.01-.18.01-.74,0-1.34-.6-1.34-1.34v-1.33h11.65c.4,0,.73-.32.73-.72V.72c0-.4-.32-.72-.73-.72H3.22c-.4,0-.73.32-.73.72v1.54c0,.4.32.72.73.72Z"/>
    </g>
  </g>
</svg>