<?xml version="1.0" encoding="UTF-8"?>
<svg id="Capa_2" data-name="Capa 2" xmlns="http://www.w3.org/2000/svg" viewBox="0 0 153.47 225.96">
  <defs>
    <style>
      .cls-1 {
        fill-rule: evenodd;
      }
    </style>
  </defs>
  <g id="Capa_1-2" data-name="Capa 1">
    <path class="cls-1" d="m32.64,146.08v75.55c0,1.48.84,2.83,2.16,3.49,1.33.66,2.91.51,4.09-.39l37.57-28.52,38.13,28.95c1.18.89,2.76,1.04,4.09.39,1.33-.66,2.16-2.01,2.16-3.49v-75.98c.99-.45,1.94-1.01,2.83-1.65,2.48-1.8,4.4-4.26,5.55-7.1l6.06-14.96,12.36-10.39c2.34-1.97,4.09-4.56,5.03-7.47.95-2.91,1.06-6.03.32-9l-3.89-15.67,3.89-15.67c.74-2.97.63-6.09-.32-9-.95-2.91-2.69-5.5-5.03-7.47l-12.36-10.39-6.06-14.96c-1.15-2.84-3.07-5.3-5.55-7.1-2.48-1.8-5.41-2.87-8.46-3.09l-16.11-1.14-13.7-8.54c-2.6-1.62-5.6-2.48-8.66-2.48s-6.06.86-8.66,2.48l-13.7,8.54-16.1,1.14c-3.05.22-5.99,1.29-8.46,3.09-2.48,1.8-4.4,4.26-5.55,7.1l-6.06,14.96-12.36,10.39c-2.34,1.97-4.09,4.56-5.03,7.47-.95,2.91-1.06,6.03-.32,9l3.89,15.67-3.89,15.67c-.74,2.97-.63,6.09.32,9,.95,2.91,2.69,5.5,5.03,7.47l12.36,10.39,6.06,14.96c1.15,2.84,3.07,5.3,5.55,7.1.89.65,1.84,1.2,2.83,1.65h0Zm80.4,1.59l-12.24.87v56.37l12.24,9.3v-66.54h0Zm-72.61,66.12l12.24-9.3v-55.95l-12.24-.87v66.12h0Zm52.58-61.33l-7.61,4.74c-2.6,1.62-5.6,2.48-8.66,2.48s-6.06-.86-8.66-2.48l-7.61-4.74v46.12l13.63-10.35c1.39-1.06,3.32-1.06,4.71,0l14.19,10.78v-46.54h0ZM72.2,9.09c1.36-.85,2.93-1.3,4.54-1.3s3.18.45,4.54,1.3l14.52,9.05c.54.34,1.15.54,1.78.58l17.07,1.21c1.6.11,3.14.67,4.43,1.62,1.3.94,2.31,2.23,2.91,3.72l6.43,15.86c.24.59.62,1.11,1.1,1.52l13.1,11.01c1.23,1.03,2.14,2.39,2.64,3.91.5,1.53.55,3.16.17,4.72l-4.12,16.61c-.15.62-.15,1.26,0,1.88l4.12,16.61c.39,1.56.33,3.19-.17,4.72s-1.41,2.88-2.64,3.91l-13.1,11.01c-.49.41-.86.93-1.1,1.52l-6.43,15.86c-.6,1.49-1.61,2.78-2.91,3.72-1.3.94-2.83,1.5-4.43,1.62l-17.07,1.21c-.63.05-1.25.24-1.78.58l-14.52,9.05c-1.36.85-2.93,1.3-4.54,1.3s-3.18-.45-4.54-1.3l-14.52-9.05c-.54-.34-1.15-.53-1.78-.58l-17.07-1.21c-1.6-.11-3.14-.67-4.44-1.62-1.3-.94-2.3-2.23-2.91-3.72l-6.43-15.86c-.24-.59-.62-1.11-1.1-1.52l-13.1-11.01c-1.23-1.03-2.14-2.39-2.64-3.91s-.55-3.16-.17-4.72l4.12-16.61c.15-.62.15-1.26,0-1.88l-4.12-16.61c-.39-1.56-.33-3.19.17-4.72.5-1.53,1.41-2.88,2.64-3.91l13.1-11.01c.49-.41.86-.93,1.1-1.52l6.43-15.86c.6-1.49,1.61-2.78,2.91-3.72,1.3-.94,2.83-1.5,4.44-1.62l17.07-1.21c.63-.04,1.25-.24,1.78-.58l14.52-9.05h0Zm4.54,12.39c-32.21,0-58.36,26.15-58.36,58.36s26.15,58.36,58.36,58.36,58.36-26.15,58.36-58.36-26.15-58.36-58.36-58.36h0Zm0,7.79c27.91,0,50.57,22.66,50.57,50.57s-22.66,50.57-50.57,50.57-50.57-22.66-50.57-50.57,22.66-50.57,50.57-50.57h0Zm-8.76,62.16h17.53v8.54c0,2.15,1.74,3.9,3.9,3.9h19.19c2.15,0,3.9-1.74,3.9-3.9v-40.26c0-2.15-1.74-3.9-3.9-3.9h-19.19c-2.15,0-3.9,1.74-3.9,3.9v8.54h-17.53v-8.54c0-2.15-1.74-3.9-3.9-3.9h-19.2c-2.15,0-3.9,1.74-3.9,3.9v40.26c0,2.15,1.74,3.9,3.9,3.9h19.2c2.15,0,3.9-1.74,3.9-3.9v-8.54h0Zm36.72-27.83v32.47h-11.4v-32.47h11.4Zm-44.51,0v32.47h-11.4s0-32.47,0-32.47h11.4Zm7.79,12.43v7.6h17.53v-7.6h-17.53Z"/>
  </g>
</svg>