<?xml version="1.0" encoding="UTF-8"?>
<svg id="Capa_2" data-name="Capa 2" xmlns="http://www.w3.org/2000/svg" viewBox="0 0 44.17 40.89">
  <defs>
    <style>
      .cls-1 {
        fill: #2d3540;
      }
    </style>
  </defs>
  <g id="Layer_1" data-name="Layer 1">
    <path class="cls-1" d="m43.97,33.34c-.72-4.9-1.46-9.96-3.54-14.66-2.35-5.33-6.28-9.31-10.77-10.91l-.08-.03-.08-.02c-.96-.2-1.96.02-2.74.6-.78.57-1.29,1.46-1.39,2.42l-.06.56c-.21,2.01-.4,3.73-.44,6.04l-1.02-1.02c0-.06,0-.12,0-.18V1.77c0-.98-.79-1.77-1.77-1.77s-1.77.79-1.77,1.77v14.37c0,.06,0,.12,0,.18l-1.02,1.02c-.04-2.31-.23-4.03-.44-6.04l-.06-.56c-.1-.96-.61-1.85-1.39-2.42-.79-.58-1.79-.79-2.74-.6l-.08.02-.08.03c-4.49,1.61-8.41,5.59-10.77,10.91C1.67,23.37.92,28.44.2,33.34c-.22,1.51-.63,4.32,1.15,6.13.62.62,2.08,1.06,4.36,1.29.84.09,1.66.13,2.42.13,1.07,0,2.02-.08,2.73-.24,2.62-.59,3.94-.89,4.99-1.79,2.05-1.75,2.32-4.38,2.46-5.8v-.04c.57-5.57.85-9.4.95-12.31l2.8-2.8s0,0,.01,0,0,0,.01,0l2.8,2.8c.1,2.91.38,6.74.94,12.31v.04c.15,1.42.42,4.05,2.47,5.8,1.05.89,2.36,1.19,4.99,1.79.71.16,1.67.24,2.73.24.76,0,1.59-.04,2.42-.13,2.28-.23,3.74-.67,4.36-1.29,1.79-1.82,1.38-4.63,1.15-6.13Zm-27.02-13.97s-.04.05-.06.08c-.42.58-1.15,1.37-2.26,1.85-2.42,1.05-4.8-.15-5.26-.4-.57-.32-1.29-.11-1.6.46-.32.57-.11,1.29.46,1.6.43.24,2.16,1.11,4.33,1.11.14,0,.28,0,.43-.01-.45.7-.85,1.43-1.2,2.18-.59,1.27-1.05,2.6-1.37,3.97-.14.64.25,1.27.89,1.41.09.02.18.03.26.03.54,0,1.02-.37,1.15-.92.27-1.21.68-2.38,1.2-3.5.74-1.57,1.71-3.02,2.89-4.31-.14,2.53-.4,5.69-.83,9.85v.04c-.12,1.16-.32,3.11-1.65,4.24-.61.52-1.73.77-3.98,1.28-.92.21-2.53.24-4.2.09-1.88-.17-2.91-.5-3.14-.65-.82-.87-.71-2.49-.47-4.11.7-4.74,1.42-9.64,3.36-14.04,2.08-4.7,5.47-8.2,9.32-9.61.29-.04.57.03.8.2.25.18.41.45.44.76l.06.56c.26,2.47.48,4.5.42,7.82Zm24.21,18.43c-.23.14-1.26.47-3.14.65-1.67.15-3.28.12-4.2-.09-2.25-.51-3.37-.76-3.98-1.28-1.33-1.13-1.53-3.08-1.65-4.24v-.04c-.43-4.15-.69-7.32-.83-9.85,1.18,1.29,2.15,2.74,2.89,4.31.52,1.11.93,2.29,1.2,3.5.12.55.61.92,1.15.92.09,0,.17,0,.26-.03.64-.14,1.03-.78.89-1.41-.31-1.37-.77-2.71-1.37-3.97-.35-.75-.75-1.48-1.2-2.18.14,0,.29.01.43.01,2.17,0,3.9-.87,4.33-1.11.57-.32.78-1.03.46-1.6-.32-.57-1.03-.78-1.6-.46-.45.25-2.83,1.45-5.26.4-1.11-.48-1.84-1.27-2.26-1.85-.02-.03-.04-.05-.06-.08-.05-3.32.16-5.35.42-7.82l.06-.56c.03-.31.19-.58.44-.76.19-.14.42-.21.65-.21.05,0,.1,0,.16.01,3.85,1.41,7.24,4.91,9.32,9.61,1.94,4.4,2.66,9.3,3.36,14.04.24,1.62.34,3.24-.47,4.11Z"/>
  </g>
</svg>