<?xml version="1.0" encoding="UTF-8"?>
<svg id="Capa_2" data-name="Capa 2" xmlns="http://www.w3.org/2000/svg" viewBox="0 0 31.31 47.63">
  <defs>
    <style>
      .cls-1 {
        fill: #2d3540;
      }
    </style>
  </defs>
  <g id="Layer_1" data-name="Layer 1">
    <path class="cls-1" d="m31.31,18.1c.04-3.53-2.83-7.02-6.34-7.56-.26-.03-.52-.07-.79-.1v-2.46c.79-.05,1.58-.1,2.38-.16.62-.05,1.12-.6,1.12-1.22V1.48c0-.62-.5-1.15-1.12-1.19C19.29-.1,12.02-.1,4.75.3c-.62.04-1.12.57-1.12,1.19,0,1.71,0,3.41,0,5.12,0,.62.5,1.17,1.12,1.22.79.06,1.58.11,2.38.16v2.46c-.26.03-.52.06-.79.1C2.77,10.94.06,14.67,0,18.1,0,26.47,0,34.85,0,43.22c.02,1.44,1.16,2.86,2.57,3.16,8.68,1.67,17.49,1.67,26.17,0,1.41-.3,2.55-1.72,2.57-3.16,0-8.37,0-16.74,0-25.12Zm-3.48,10.93c0,.7-.56,1.31-1.26,1.35-7.28.49-14.55.49-21.83,0-.7-.05-1.26-.66-1.26-1.35,0-2.72,0-5.45,0-8.17,0-.7.56-1.22,1.26-1.17,7.28.49,14.55.49,21.83,0,.7-.05,1.26.47,1.26,1.17,0,2.72,0,5.45,0,8.17Z"/>
  </g>
</svg>