<?xml version="1.0" encoding="UTF-8"?>
<svg id="Capa_2" data-name="Capa 2" xmlns="http://www.w3.org/2000/svg" viewBox="0 0 185.14 223.86">
  <defs>
    <style>
      .cls-1 {
        fill-rule: evenodd;
      }
    </style>
  </defs>
  <g id="Capa_1-2" data-name="Capa 1">
    <path class="cls-1" d="m74.18,29.12v11.43C31.89,49.09,0,86.5,0,131.29c0,51.09,41.48,92.57,92.57,92.57s92.57-41.48,92.57-92.57c0-19.07-5.78-36.8-15.68-51.53l7.96-7.9c4.58-4.55,4.61-11.95.06-16.53l-9.75-9.83c-4.55-4.58-11.95-4.61-16.53-.06l-8.26,8.2c-9.58-6.24-20.39-10.74-31.99-13.08v-11.43h8.63c2.15,0,3.9-1.74,3.9-3.9v-13.54c0-6.46-5.23-11.69-11.69-11.69h-38.46c-6.45,0-11.69,5.23-11.69,11.69v13.54c0,2.15,1.74,3.9,3.9,3.9h8.63Zm18.39,17.39c46.79,0,84.78,37.99,84.78,84.78s-37.99,84.78-84.78,84.78S7.79,178.08,7.79,131.29,45.78,46.52,92.57,46.52h0Zm0,8.21c-42.26,0-76.57,34.31-76.57,76.57s34.31,76.57,76.57,76.57,76.57-34.31,76.57-76.57-34.31-76.57-76.57-76.57h0Zm3.9,7.9v7.36c0,2.15-1.75,3.9-3.9,3.9s-3.9-1.75-3.9-3.9v-7.36c-16.05.9-30.64,7.31-41.9,17.37l5.19,5.19c1.52,1.52,1.52,3.99,0,5.51s-3.99,1.52-5.51,0l-5.19-5.19c-10.06,11.26-16.47,25.85-17.37,41.9h7.36c2.15,0,3.9,1.74,3.9,3.9s-1.75,3.9-3.9,3.9h-7.36c.9,16.05,7.31,30.64,17.37,41.9l5.19-5.19c1.52-1.52,3.99-1.52,5.51,0,1.52,1.52,1.52,3.99,0,5.51l-5.19,5.19c11.26,10.06,25.85,16.47,41.9,17.37v-7.36c0-2.15,1.75-3.9,3.9-3.9s3.9,1.75,3.9,3.9v7.36c16.05-.9,30.64-7.31,41.89-17.37l-5.19-5.19c-1.52-1.52-1.52-3.99,0-5.51,1.52-1.52,3.99-1.52,5.51,0l5.19,5.19c10.06-11.26,16.47-25.85,17.37-41.9h-7.36c-2.15,0-3.9-1.74-3.9-3.9s1.75-3.9,3.9-3.9h7.36c-1.95-34.86-29.91-62.82-64.77-64.77h0Zm1.17,58.1c-1.53-.74-3.25-1.15-5.06-1.15-6.47,0-11.72,5.25-11.72,11.72s5.25,11.72,11.72,11.72,11.72-5.25,11.72-11.72c0-1.81-.41-3.53-1.15-5.06l29.49-29.49c1.52-1.52,1.52-3.99,0-5.51s-3.99-1.52-5.51,0l-29.5,29.5h0Zm-2.51,7.58c-.69-.59-1.58-.94-2.55-.94-2.17,0-3.93,1.76-3.93,3.93s1.76,3.93,3.93,3.93,3.93-1.76,3.93-3.93c0-.97-.35-1.86-.94-2.55-.08-.07-.16-.14-.23-.21-.07-.07-.15-.15-.21-.23h0Zm69.68-54.89l7.14-7.09c1.53-1.52,1.54-3.98.02-5.51,0,0-9.75-9.83-9.75-9.83-1.52-1.53-3.98-1.54-5.51-.02l-7.31,7.26c5.71,4.45,10.88,9.55,15.41,15.19h0Zm-61.63-34.09v-10.2h-21.2v10.2c3.48-.4,7.02-.6,10.6-.6s7.12.2,10.6.6h0Zm12.53-17.99h-46.25v-9.64c0-2.15,1.74-3.9,3.9-3.9h38.46c2.15,0,3.89,1.75,3.89,3.9v9.64h0Z"/>
  </g>
</svg>