<?xml version="1.0" encoding="UTF-8"?>
<svg id="Capa_2" data-name="Capa 2" xmlns="http://www.w3.org/2000/svg" viewBox="0 0 51.19 49.61">
  <defs>
    <style>
      .cls-1 {
        fill: #2d3540;
      }
    </style>
  </defs>
  <g id="Layer_1" data-name="Layer 1">
    <g>
      <path class="cls-1" d="m51.03,35.88c.15.89.41,2.53-.47,3.24-.36.29-.8.34-1.14.33.17,1,.12,1.88-.24,2.74-.21.5-.51.97-.89,1.4,0,.02-.01.04-.02.06-.15.55-.58,1.26-4.25,2.79,0,0-5.4,2.24-10.17,2.12-.32,0-.84-.03-1.41-.31-1.47-.7-1.98-2.41-2.21-3.2-.18-.61-.34-1.42-.37-2.34-.03-1.01-.23-2.01-.6-2.96-.01-.03-.02-.06-.03-.08-.28-.73-2.02-5.26.47-9.33.16-.27.34-.53.53-.77-.49-.16-.94-.4-1.27-.76-.21-.22-.93-1.1-1.55-2.37-.03-.06-.05-.1-.06-.12-.76-1.59.05-3.48,1.72-4.03l8.05-2.65c1.83-.6,3.73.7,3.83,2.63,0,.17.01.31.02.4.04,1.36.08,2.35-.15,3.22.27.08.54.17.8.28,1.24-.05,3.82,1.52,5.49,2.99.53.47,3.26,2.95,3.91,6.73Z"/>
      <g>
        <path class="cls-1" d="m19.78,39.36c-1.25-2.85-4.05-4.9-7.07-5.16-3.61-.32-5.98,2.06-8.68,4.78-.24.24-.44.46-.63.67.17-.31.36-.61.57-.89.57-.76,1.13-1.36,1.79-1.96-1.93,1.69-3.32,1.87-4,1.82-.09,0-.23-.02-.38-.04-.23.82-.27,1.6-.07,2.39.08.32.65,1.86.91,2.21.35.55,1.23,1.36,3.54,2.77,0,0,4.99,3.04,9.73,3.65.32.04.84.1,1.44-.09,1.56-.47,2.32-2.08,2.67-2.83.71-1.51,1.48-4.36.19-7.3Z"/>
        <path class="cls-1" d="m.43,34.33c-.29.86-.8,2.44-.03,3.27.41.45,1.03.51,1.37.53.34.03,1.88.09,4.24-2.19.8-.78,3.5-4.44,3.66-4.47-.13.21-.26.43-.41.66-1.53,2.47-2.19,3.28-3,4.07-.08.08-.16.15-.24.23.59-.52,1.18-.99,1.8-1.39,1.61-1.05,3.18-1.46,4.91-1.31,1.08.09,2.14.4,3.13.91.43.22.85.48,1.25.77,1.32.96,2.35,2.24,2.99,3.7.44,1.01.69,2.08.72,3.19.26-.39.45-.7.56-.9.39-.68,2.8-4.89.96-9.29-.12-.29-.26-.57-.41-.85.51-.08.99-.25,1.37-.55.24-.19,1.09-.95,1.89-2.11.04-.06.06-.09.07-.11.99-1.45.48-3.45-1.09-4.24l-7.55-3.85c-1.72-.88-3.8.12-4.18,2.01-.03.17-.06.3-.08.39-.25,1.33-.44,2.31-.35,3.21-.05,0-.1.01-.15.02-.88-.31-2.04-.29-3.18.15-.78.3-2.93,1.81-3.38,2.09-.6.38-3.68,2.42-4.89,6.05Z"/>
      </g>
      <path class="cls-1" d="m17.61,23.44s0-.06.03-.19c.02-.12.04-.31.09-.55.09-.48.23-1.18.49-2.05.13-.44.29-.92.5-1.43.05-.13.1-.26.16-.39.03-.07.06-.13.09-.2.03-.07.06-.13.09-.2.12-.27.26-.55.41-.84.07-.14.16-.29.24-.43.08-.14.17-.29.26-.44.18-.29.38-.59.59-.89.22-.3.44-.6.69-.89.25-.29.52-.59.81-.87.29-.28.6-.56.92-.83.16-.13.33-.26.51-.39l.13-.09.03-.02.04-.03.06-.04.13-.09s.08-.06.13-.09c.1-.06.19-.12.29-.18.09-.06.19-.11.29-.17.19-.11.39-.21.59-.31.2-.1.41-.19.61-.28.21-.09.42-.17.63-.26.42-.16.85-.31,1.28-.45.43-.15.85-.29,1.27-.45.41-.16.82-.35,1.21-.57.09-.06.19-.11.29-.18l.14-.09s.09-.07.14-.1c.18-.13.36-.28.53-.43.08-.08.16-.16.24-.24l.12-.13s.08-.08.12-.13c.15-.18.29-.36.43-.56.27-.38.5-.81.7-1.24.4-.87.66-1.83.75-2.79.02-.24.04-.48.04-.72,0-.24-.01-.48-.04-.71-.03-.23-.07-.46-.14-.65-.03-.09-.07-.18-.11-.23-.02-.03-.04-.04-.05-.05,0,0,0,.01.02.03,0,0,.03.01,0,0-.01,0,0,0,0,0,.01,0,.02,0,.02,0h0s.03.01.03.01c0,0,0,0-.02.02-.04.02-.11.07-.19.13-.15.12-.31.29-.46.46-.3.35-.6.75-.88,1.15-.57.81-1.12,1.65-1.64,2.51-.26.43-.53.87-.78,1.28-.25.42-.49.86-.73,1.29-.95,1.74-1.82,3.5-2.66,5.21-.83,1.71-1.63,3.37-2.34,4.95-.72,1.59-1.37,3.1-1.94,4.51-.57,1.41-1.07,2.71-1.48,3.88-.41,1.17-.74,2.19-1,3.04-.12.43-.24.81-.33,1.14-.05.17-.09.32-.12.46-.04.14-.07.27-.1.39-.03.12-.05.22-.08.31-.02.09-.04.16-.05.22-.03.12-.04.18-.04.18l-.18-.02s0-.06,0-.19c0-.12.02-.31.03-.55.02-.24.04-.54.08-.89.04-.35.09-.75.15-1.2.13-.89.33-1.97.62-3.2.29-1.23.66-2.6,1.13-4.07.47-1.47,1.03-3.06,1.68-4.7.65-1.65,1.39-3.37,2.23-5.11.21-.44.42-.87.64-1.31.22-.44.45-.88.68-1.32.23-.44.47-.88.72-1.32s.5-.88.76-1.32c.26-.44.53-.88.81-1.32l.11-.17.11-.16.22-.32c.15-.21.29-.42.44-.63.59-.85,1.2-1.69,1.88-2.5.35-.4.71-.8,1.12-1.17.21-.19.43-.37.7-.53.14-.08.29-.16.49-.23.1-.03.22-.05.35-.06.07,0,.14,0,.22.02.02,0,.04,0,.06.01.02,0,.04.01.07.02.03,0,.05.02.05.02,0,0,.03.01.05.02.14.07.25.17.32.26.08.09.13.18.17.27.08.17.12.33.15.48.06.3.07.58.07.86,0,.27-.03.54-.06.81-.03.26-.08.52-.13.78-.21,1.02-.54,2-.97,2.91-.22.46-.46.9-.74,1.32-.13.21-.28.42-.43.61-.07.1-.16.2-.23.3-.08.1-.16.19-.25.28-.34.37-.71.71-1.1,1.01-.2.15-.4.3-.6.43-.2.14-.41.26-.61.39-.41.24-.83.46-1.23.67-.4.21-.8.41-1.17.61-.19.1-.37.2-.56.3-.18.1-.36.2-.53.31-.18.1-.35.21-.51.31-.08.05-.17.11-.25.16-.08.05-.16.11-.24.16-.04.02-.08.06-.12.09l-.13.09-.06.04h-.02s-.02.02,0,.02l-.03.02-.12.08c-.08.06-.15.11-.23.17-.07.06-.15.12-.22.17-.3.23-.58.47-.84.72-1.07.98-1.9,2.04-2.57,3.04-.08.12-.17.25-.24.37-.04.06-.08.12-.12.18-.04.06-.08.12-.11.18-.04.06-.07.12-.11.18-.04.06-.07.12-.11.18-.07.12-.14.23-.2.35-.26.46-.49.89-.69,1.28-.4.78-.69,1.42-.89,1.86-.1.22-.18.39-.23.5-.05.11-.08.17-.08.17l-.17-.05Z"/>
      <path class="cls-1" d="m34.38,32.78s-.03-.05-.08-.15c-.03-.05-.06-.11-.1-.18-.04-.07-.08-.16-.13-.26-.19-.39-.45-.97-.72-1.73-.27-.76-.56-1.7-.82-2.79-.14-.54-.26-1.13-.39-1.74-.12-.62-.24-1.27-.35-1.95-.11-.68-.21-1.39-.3-2.13-.09-.74-.17-1.5-.23-2.29-.06-.79-.11-1.6-.14-2.43-.01-.42-.02-.84-.02-1.27,0-.43,0-.86.04-1.31.01-.22.03-.45.06-.68.03-.23.06-.47.13-.73l.03-.1v-.05s.03-.05.03-.05l.05-.15c.04-.1.07-.22.11-.33.08-.21.16-.43.25-.63.18-.42.37-.82.57-1.22.2-.4.4-.78.56-1.17.17-.39.31-.79.41-1.2.1-.41.15-.84.15-1.27v-.16c0-.06,0-.12,0-.17,0-.11-.01-.22-.02-.32-.02-.22-.05-.44-.09-.65-.08-.43-.2-.86-.35-1.28-.3-.83-.74-1.62-1.28-2.3-.14-.17-.28-.33-.43-.47-.15-.14-.31-.28-.47-.38-.08-.05-.16-.1-.23-.13-.07-.03-.14-.05-.19-.05-.02,0-.04,0-.04,0,0,0,0,0,0,0,0,0,0,0,0,0,0,0,0,0,0,0,0,0,.03,0,0,0,0,0-.02,0-.01,0,0,0,0,0,.01,0,.02,0-.01.03-.04.08-.06.1-.14.26-.19.44-.06.18-.1.37-.14.57-.04.2-.06.4-.09.6-.02.2-.04.41-.05.61-.04.82-.02,1.65.07,2.45.18,1.61.62,3.11,1.21,4.42.07.16.15.32.23.48l.06.11.07.13s.05.09.07.12l.06.11c.04.07.08.15.13.22.04.08.09.15.13.22.09.15.18.29.28.43.38.58.81,1.12,1.22,1.68.21.28.41.57.6.86.19.29.36.59.52.88.31.59.55,1.19.71,1.76.32,1.14.41,2.15.41,2.98,0,.41-.02.78-.06,1.1-.04.32-.08.58-.11.8-.04.21-.08.38-.1.49-.03.11-.04.17-.04.17l-.18-.02s0-.06-.01-.17c0-.11-.02-.27-.04-.49-.02-.21-.04-.47-.09-.77-.01-.08-.02-.15-.03-.23-.01-.08-.03-.16-.04-.25-.03-.17-.06-.35-.1-.54-.04-.19-.08-.39-.14-.59-.03-.1-.06-.21-.08-.31-.03-.11-.06-.21-.1-.32-.03-.11-.07-.22-.11-.33-.02-.06-.04-.12-.06-.18-.01-.03-.02-.06-.03-.09v-.02s0,0,0,0h0s-.02-.05-.02-.05c-.09-.23-.18-.47-.29-.7-.11-.24-.22-.48-.36-.71-.13-.24-.28-.48-.44-.71-.16-.24-.34-.47-.53-.71-.19-.24-.4-.48-.62-.74-.44-.5-.92-1.05-1.39-1.68-.12-.16-.23-.32-.34-.49-.06-.08-.11-.17-.17-.26-.05-.09-.11-.17-.16-.27l-.08-.14s-.05-.09-.07-.13l-.07-.13-.08-.15c-.1-.19-.19-.38-.27-.57-.17-.39-.32-.78-.46-1.19-.13-.41-.25-.83-.34-1.25-.19-.85-.3-1.74-.34-2.63-.02-.45-.02-.9,0-1.36,0-.23.03-.46.05-.69.02-.23.05-.46.09-.69.04-.23.08-.46.14-.7.06-.23.12-.46.2-.7.08-.23.17-.47.29-.7.12-.23.25-.47.49-.71.12-.12.26-.24.49-.32.02,0,.04-.01.05-.02.02,0,.02,0,.03,0,0,0,.03,0,.05-.01h.04s.06-.02.09-.02c.03,0,.06,0,.08,0,.11,0,.21.02.3.05.18.05.31.13.43.21.12.08.23.16.32.25.19.18.36.36.51.56.15.19.29.39.41.59.13.2.25.4.36.61.11.21.22.42.32.63.05.11.1.21.14.32.05.11.09.21.14.32.04.11.09.22.13.33.04.11.08.22.12.33.3.88.53,1.79.64,2.73.05.47.07.95.04,1.43-.03.48-.1.96-.21,1.42-.11.46-.24.91-.37,1.33-.13.42-.27.83-.4,1.24-.06.2-.13.4-.19.6-.03.1-.06.2-.09.3l-.05.16v.03s-.02.03-.02.03v.05c-.05.16-.08.35-.1.54-.02.19-.04.4-.05.6-.06.81-.07,1.64-.06,2.44,0,.81.03,1.6.06,2.37.03.77.07,1.53.12,2.25.05.73.1,1.43.16,2.1.12,1.35.26,2.58.4,3.67.15,1.09.31,2.03.47,2.81.16.77.32,1.37.44,1.78.03.1.06.19.08.27.02.08.05.14.06.19.04.1.05.16.05.16l-.16.07Z"/>
    </g>
  </g>
</svg>