<?xml version="1.0" encoding="UTF-8"?>
<svg id="Capa_2" data-name="Capa 2" xmlns="http://www.w3.org/2000/svg" viewBox="0 0 229.17 206.94">
  <g id="Layer_1" data-name="Layer 1">
    <g>
      <path d="m5.52,6.48v190.27H0v10h21.03v-10h-5.52v-23.08h162.18c2.99,0,5.42,2.43,5.42,5.42v17.66h-5.52v10h21.03v-10h-5.52v-17.66c0-8.5-6.92-15.42-15.42-15.42H15.52V59.47h16.17l4.01-5.13-3.15-2.46-2.81,3.59h-10.29v-16.57h-3.94V6.48H5.52Z"/>
      <path d="m67.52,121.92c-1.19-12.37-12.19-21.43-24.56-20.23-12.37,1.19-21.43,12.19-20.23,24.56.65,6.77,4.25,12.54,9.39,16.19h26.02c6.35-4.51,10.19-12.2,9.38-20.51Z"/>
      <path d="m228.78,191.39l-16.42-65.18c-1.34-5.31-5.98-9.13-11.45-9.43l-100.58-5.41v13.85c0,5.68-4.62,10.3-10.3,10.3s-10.3-4.62-10.3-10.3v-13.74c-4.33,1.78-7.47,5.9-7.74,10.88,0,.02,0,.05,0,.07-.02.12-.05.24-.07.36-.95,6.34,1.9,14.36,9.34,19.64h27.82c1.94,0,3.49,1.1,4.52,3.06,1.03-1.96,2.57-3.06,4.52-3.06h39.29c1.11-.89,2.02-1.82,2.77-2.81l30.19,1.63,14.17,56.25c1.43,5.67,6.52,9.45,12.11,9.45,1.01,0,2.04-.12,3.06-.38,6.69-1.69,10.75-8.48,9.07-15.17Z"/>
      <path d="m118.12,159.58h55.33c3.89,0,7.07-3.18,7.07-7.07h0c0-3.89-3.18-7.07-7.07-7.07h-55.33c-3.89,0-3.89,14.15,0,14.15Z"/>
      <path d="m82.03,125.22c0,4.42,3.58,8,8,8s8-3.58,8-8v-54.38c-2.58.57-5.25.87-8,.87s-5.42-.31-8-.87v54.38Z"/>
      <path d="m90.03,68.72c18.98,0,34.36-15.38,34.36-34.36S109.01,0,90.03,0s-34.36,15.38-34.36,34.36,15.38,34.36,34.36,34.36Zm-16.17-34.36c0-8.93,7.24-16.17,16.17-16.17s16.17,7.24,16.17,16.17-7.24,16.17-16.17,16.17-16.17-7.24-16.17-16.17Z"/>
      <circle cx="90.03" cy="34.36" r="8.21"/>
      <path d="m109.08,145.43H28.12c-3.89,0-7.07,3.18-7.07,7.07h0c0,3.89,3.18,7.07,7.07,7.07h80.97c3.89,0,3.89-14.15,0-14.15Z"/>
    </g>
  </g>
</svg>