<?xml version="1.0" encoding="UTF-8"?>
<svg id="Capa_2" data-name="Capa 2" xmlns="http://www.w3.org/2000/svg" viewBox="0 0 49.53 49.53">
  <defs>
    <style>
      .cls-1 {
        fill: #2d3540;
      }
    </style>
  </defs>
  <g id="Layer_1" data-name="Layer 1">
    <g>
      <path class="cls-1" d="m24.76,2.9c2.95,0,5.82.58,8.51,1.72,2.6,1.1,4.94,2.68,6.95,4.69,2.01,2.01,3.59,4.35,4.69,6.95,1.14,2.69,1.72,5.56,1.72,8.51s-.58,5.82-1.72,8.51c-1.1,2.6-2.68,4.94-4.69,6.95-2.01,2.01-4.35,3.59-6.95,4.69-2.69,1.14-5.56,1.72-8.51,1.72s-5.82-.58-8.51-1.72c-2.6-1.1-4.94-2.68-6.95-4.69-2.01-2.01-3.59-4.35-4.69-6.95-1.14-2.69-1.72-5.56-1.72-8.51s.58-5.82,1.72-8.51c1.1-2.6,2.68-4.94,4.69-6.95s4.35-3.59,6.95-4.69c2.69-1.14,5.56-1.72,8.51-1.72m0-2.9C11.09,0,0,11.09,0,24.76s11.09,24.76,24.76,24.76,24.76-11.09,24.76-24.76S38.44,0,24.76,0h0Z"/>
      <rect class="cls-1" x="2.56" y="23.32" width="44.41" height="2.9" transform="translate(-10.26 24.76) rotate(-45)"/>
      <g>
        <rect class="cls-1" x="11.06" y="26.63" width="27.41" height="4.67" rx=".63" ry=".63"/>
        <path class="cls-1" d="m14.62,11.64s.02,0,.05,0c.03,0,.08.01.14.03.06.02.14.03.22.06.09.03.19.06.3.11.11.05.23.1.36.17.13.07.26.16.41.26.28.21.58.5.83.92.06.1.12.22.17.34.06.12.1.24.14.38.08.26.13.55.15.84,0,.14.01.29,0,.44,0,.07,0,.15-.01.22,0,.07-.02.14-.03.22-.04.29-.11.57-.2.84-.17.54-.41,1.03-.68,1.49-.13.23-.27.45-.42.65-.07.1-.15.21-.22.31l-.22.29c-.27.33-.54.66-.8.99-.25.31-.47.6-.66.86-.09.13-.17.25-.25.37-.07.12-.14.23-.19.33-.06.11-.1.21-.14.33-.04.11-.07.23-.08.35-.04.25-.02.52.02.78.04.26.11.5.17.71.03.1.06.2.09.28.02.08.05.15.07.22.02.06.03.11.04.14,0,.03.01.05.01.05,0,0-.02,0-.05,0-.03,0-.08-.01-.14-.03-.06-.01-.14-.03-.23-.06-.09-.03-.19-.06-.3-.11-.11-.05-.23-.1-.36-.17-.13-.07-.26-.16-.41-.26-.28-.21-.58-.5-.83-.92-.13-.21-.23-.45-.31-.71-.08-.26-.13-.55-.15-.84-.02-.29,0-.59.04-.88.02-.14.05-.29.08-.43.03-.14.07-.28.11-.41.17-.54.41-1.03.68-1.48.14-.23.27-.44.42-.65.07-.1.15-.21.23-.31l.22-.28c.27-.33.54-.66.8-.99.25-.31.47-.6.66-.86.09-.13.18-.25.25-.37.07-.12.14-.23.2-.34.06-.11.1-.22.14-.33.04-.11.07-.23.08-.36.04-.25.02-.52-.02-.78-.04-.26-.11-.5-.17-.71-.01-.05-.03-.1-.04-.15-.01-.05-.03-.09-.04-.13-.02-.08-.05-.16-.07-.22-.02-.06-.03-.11-.04-.14,0-.03-.01-.05-.01-.05Z"/>
      </g>
    </g>
  </g>
</svg>