<?xml version="1.0" encoding="UTF-8"?>
<svg id="Capa_2" data-name="Capa 2" xmlns="http://www.w3.org/2000/svg" viewBox="0 0 101.24 225.96">
  <defs>
    <style>
      .cls-1 {
        fill-rule: evenodd;
      }
    </style>
  </defs>
  <g id="Capa_1-2" data-name="Capa 1">
    <path class="cls-1" d="m28.46,38.53v3.91L7.92,62.11c-5.06,4.85-7.92,11.55-7.92,18.56v131.94c0,7.37,5.98,13.35,13.35,13.35h74.54c7.37,0,13.35-5.98,13.35-13.35V80.55c0-6.93-2.8-13.57-7.77-18.4l-20.22-19.69v-3.93h3.66c2.15,0,3.9-1.74,3.9-3.9V3.9c0-2.15-1.74-3.9-3.9-3.9H24.33c-2.15,0-3.9,1.74-3.9,3.9v30.74c0,2.15,1.74,3.9,3.9,3.9h4.14Zm64.98,98.76c-.41.15-.86.23-1.33.23H9.12c-.47,0-.91-.08-1.33-.23v22.71h57.65c2.15,0,3.9,1.75,3.9,3.9s-1.75,3.9-3.9,3.9H7.79v20h57.65c2.15,0,3.9,1.75,3.9,3.9s-1.75,3.9-3.9,3.9H7.79v17.01c0,3.07,2.49,5.56,5.56,5.56h74.54c3.07,0,5.56-2.49,5.56-5.56v-75.31h0Zm0-56.19c-.41.15-.86.23-1.33.23H9.12c-.47,0-.91-.08-1.33-.23v48.86c.41-.15.86-.23,1.33-.23h83.01c.47,0,.91.08,1.33.23v-48.86h0Zm-27.99-42.57h-29.21v5.57c0,1.06-.43,2.08-1.2,2.81,0,0-13.33,12.76-21.74,20.82-1.74,1.67-3.11,3.65-4.04,5.81h82.75c-.92-2.16-2.26-4.14-3.98-5.82l-21.4-20.84c-.75-.73-1.18-1.74-1.18-2.79v-5.57h0ZM33.75,7.79h-5.53v22.95h44.79V7.79h-5.53v8c0,2.15-1.75,3.9-3.9,3.9s-3.9-1.75-3.9-3.9V7.79h-5.23v8c0,2.15-1.75,3.9-3.9,3.9s-3.9-1.75-3.9-3.9V7.79h-5.13v8c0,2.15-1.75,3.9-3.9,3.9s-3.9-1.75-3.9-3.9V7.79h0Z"/>
  </g>
</svg>