<?xml version="1.0" encoding="UTF-8"?>
<svg id="Capa_2" data-name="Capa 2" xmlns="http://www.w3.org/2000/svg" viewBox="0 0 58.51 49.64">
  <defs>
    <style>
      .cls-1 {
        fill: #2d3540;
      }
    </style>
  </defs>
  <g id="Layer_1" data-name="Layer 1">
    <g>
      <g>
        <path class="cls-1" d="m10.5,0C4.7,0,0,4.7,0,10.5s4.7,10.5,10.5,10.5,10.5-4.7,10.5-10.5S16.29,0,10.5,0Zm0,17.56c-3.9,0-7.06-3.16-7.06-7.06s3.16-7.06,7.06-7.06,7.06,3.16,7.06,7.06-3.16,7.06-7.06,7.06Z"/>
        <path class="cls-1" d="m10.5,4.41c-3.36,0-6.09,2.73-6.09,6.09s2.73,6.09,6.09,6.09,6.09-2.73,6.09-6.09-2.73-6.09-6.09-6.09Zm0,7.04c-.53,0-.95-.43-.95-.95s.43-.95.95-.95.95.43.95.95-.43.95-.95.95Z"/>
      </g>
      <path class="cls-1" d="m15.88,47.07h-4.03v-25.75c-.44.05-.89.08-1.35.08s-.91-.03-1.35-.08v25.75h-4.03c-.71,0-1.28.57-1.28,1.28h0c0,.71.57,1.28,1.28,1.28h10.77c.71,0,1.28-.57,1.28-1.28h0c0-.71-.57-1.28-1.28-1.28Z"/>
      <path class="cls-1" d="m57.23,49.64h-10.77c-.71,0-1.28-.57-1.28-1.28h0c0-.71.57-1.28,1.28-1.28h10.77c.71,0,1.28.57,1.28,1.28h0c0,.71-.57,1.28-1.28,1.28Z"/>
      <path class="cls-1" d="m50.67,47.77l-7.54-6.33c-.37-.31-.83-.48-1.32-.48l-19.54.02c-.71,0-1.28-.57-1.29-1.28h0c0-.71.57-1.28,1.28-1.29l20.57-.03c.49,0,.96.17,1.33.49l9.51,8.16c.5.5-.05.86-.55,1.36l-.66-.64c-.5.5-1.31.5-1.82,0Z"/>
      <rect class="cls-1" x="5.07" y="34.01" width="31.52" height="3.98" rx="1.23" ry="1.23"/>
      <rect class="cls-1" x="37.46" y="34.01" width="15.97" height="3.98" rx="1.23" ry="1.23"/>
    </g>
  </g>
</svg>