<?xml version="1.0" encoding="UTF-8"?>
<svg id="Capa_2" data-name="Capa 2" xmlns="http://www.w3.org/2000/svg" viewBox="0 0 225.95 204.02">
  <defs>
    <style>
      .cls-1 {
        fill-rule: evenodd;
      }
    </style>
  </defs>
  <g id="Capa_1-2" data-name="Capa 1">
    <path class="cls-1" d="m19.54,115.42l85.18,85.18c4.57,4.56,11.96,4.56,16.53,0l84.87-84.87c26.46-26.46,26.46-69.43,0-95.89-25.56-25.56-66.52-26.43-93.13-2.61C86.37-6.58,45.41-5.72,19.85,19.85c-26.36,26.36-26.46,69.09-.31,95.58h0Zm5.54-5.48C1.94,86.5,2.03,48.68,25.35,25.36,48.77,1.94,86.8,1.94,110.22,25.36c1.52,1.52,3.99,1.52,5.51,0,23.42-23.42,61.45-23.42,84.87,0s23.42,61.45,0,84.87l-84.87,84.87c-1.52,1.52-3.99,1.52-5.51,0L25.08,109.94h0Zm65.74-9.35h44.33v14.88c0,2.15,1.74,3.9,3.9,3.9h27.16c2.15,0,3.9-1.74,3.9-3.9v-60.81c0-2.15-1.74-3.9-3.9-3.9h-27.16c-2.15,0-3.9,1.74-3.9,3.9v14.88h-44.33v-14.88c0-2.15-1.74-3.9-3.9-3.9h-27.16c-2.15,0-3.9,1.74-3.9,3.9v60.81c0,2.15,1.74,3.9,3.9,3.9h27.16c2.15,0,3.9-1.74,3.9-3.9v-14.88h0Zm-7.79-42.03v53.02h-19.36v-53.02h19.36Zm79.28,0v53.02h-19.36v-53.02h19.36Zm-71.49,18.78v15.46h44.33v-15.46h-44.33Z"/>
  </g>
</svg>