<?xml version="1.0" encoding="UTF-8"?>
<svg id="Capa_2" data-name="Capa 2" xmlns="http://www.w3.org/2000/svg" viewBox="0 0 188.59 212.79">
  <defs>
    <style>
      .cls-1 {
        fill-rule: evenodd;
      }
    </style>
  </defs>
  <g id="Capa_1-2" data-name="Capa 1">
    <path class="cls-1" d="m33.35,9.81H3.9c-2.15,0-3.9,1.74-3.9,3.9v44.5c0,25.13,20.37,45.5,45.5,45.5h1.58c7.47,9.14,17.54,16.08,29.07,19.69v4.26c0,10.78-2.51,21.4-7.31,31.04h-10.57c-6.7,0-12.13,5.43-12.13,12.13v16.1h-.83c-5.02,0-9.09,4.07-9.09,9.09v12.89c0,2.15,1.74,3.9,3.9,3.9h108.54c2.15,0,3.9-1.74,3.9-3.9v-12.89c0-5.02-4.07-9.09-9.09-9.09h-.83v-16.1c0-6.7-5.43-12.13-12.13-12.13h-11.38c-4.81-9.64-7.31-20.26-7.31-31.04v-4.01c11.87-3.53,22.24-10.57,29.88-19.93h1.4c12.07,0,23.64-4.79,32.18-13.33,8.53-8.53,13.33-20.11,13.33-32.18V13.7c0-2.15-1.74-3.9-3.9-3.9h-29.26V3.9c0-2.15-1.74-3.9-3.9-3.9H37.24c-2.15,0-3.9,1.74-3.9,3.9v5.91h0Zm111.42,186.2v8.99H44.01v-8.99c0-.72.58-1.3,1.3-1.3h98.15c.72,0,1.3.58,1.3,1.3h0Zm-9.92-9.09H53.94v-16.1c0-2.39,1.94-4.33,4.33-4.34h72.23c2.4,0,4.34,1.94,4.34,4.34v16.1h0Zm-50.89-61.64v2.38c0,10.7-2.22,21.27-6.51,31.04h33.08c-4.28-9.77-6.5-20.34-6.5-31.04v-2.24c-3.13.5-6.35.76-9.63.76h0c-3.56,0-7.04-.3-10.43-.89h0ZM147.64,7.79v57.33c0,29.41-23.84,53.25-53.25,53.25h0c-29.41,0-53.25-23.84-53.25-53.25V7.79h106.5Zm-114.29,9.81H7.79v40.61c0,19.49,14.79,35.53,33.76,37.51-5.22-8.99-8.21-19.44-8.21-30.59V17.6h0Zm122.08,0v47.52c0,11.14-2.98,21.58-8.19,30.57,8.47-.94,16.43-4.73,22.51-10.82,7.07-7.07,11.05-16.66,11.05-26.67V17.6h-25.37Zm-72.05,50.61h21.22v8.17c0,2.15,1.74,3.9,3.9,3.9h18.91c2.15,0,3.9-1.74,3.9-3.9v-39.24c0-2.15-1.74-3.89-3.9-3.89h-18.91c-2.15,0-3.9,1.74-3.9,3.89v8.17h-21.22v-8.17c0-2.15-1.74-3.89-3.9-3.89h-18.91c-2.15,0-3.9,1.74-3.9,3.89v39.24c0,2.15,1.74,3.9,3.9,3.9h18.91c2.15,0,3.9-1.74,3.9-3.9v-8.17h0Zm-7.79-27.18v31.45h-11.12v-31.45h11.12Zm47.92,0v31.45h-11.12v-31.45h11.12Zm-40.13,12.07v7.32h21.22v-7.32h-21.22Z"/>
  </g>
</svg>