<?xml version="1.0" encoding="UTF-8"?>
<svg id="Capa_2" data-name="Capa 2" xmlns="http://www.w3.org/2000/svg" viewBox="0 0 233.05 195.97">
  <g id="Layer_1" data-name="Layer 1">
    <g>
      <circle cx="121.71" cy="22.51" r="22.5" transform="translate(64.51 132.27) rotate(-72.95)"/>
      <path d="m134.75,134.97l15.56-46.99c-.14-1.48-.27-2.94-.4-4.39l-30.1,11.44c-.19.07-.39.13-.59.19l10.64,34.66c.56.74,1.12,1.42,1.67,2.04,1.08,1.21,2.15,2.22,3.22,3.05Z"/>
      <path d="m112.64,72.81l9.62-13.04c1.93-2.62,5.04-4.18,8.29-4.18,2.21,0,4.32.7,6.11,2.01,2.48,1.83,3.89,4.57,4.13,7.42l6.46-2.46c-2.39-8.6-9.31-15.69-16.84-14.67-8.14,1.1-17.2,8.91-17.77,22.52-.03.78-.03,1.59,0,2.41Z"/>
      <path d="m232.25,172.91l-23.49-62.78c-2.09-5.59-7.84-8.92-13.73-7.95l-40.45,6.65-8.67,26.19,38.58-6.88c5.47-.97,10.71,2.68,11.69,8.15.47,2.66-.16,5.27-1.55,7.36l14.23,38.03c1.88,5.02,6.64,8.12,11.71,8.12,1.45,0,2.94-.26,4.38-.8,6.47-2.42,9.75-9.62,7.33-16.09Z"/>
      <path d="m187.48,145.02c3.83-.68,6.41-4.38,5.72-8.21s-4.37-6.41-8.21-5.72l-40.18,7.16-5.06,15.27,18.32-3.27.71,2.92,7.93,32.79h-28.38c-2.75,4.09-7.42,6.78-12.71,6.78s-9.96-2.69-12.71-6.78h-18.31v-98.84l-7.44-24.24c-.86-2.83-.57-5.83.83-8.44,1.4-2.62,3.72-4.53,6.54-5.39.02,0,.05-.01.07-.02v-5.24c0-12.1-9.9-22-22-22h-40.13c-12.1,0-22,9.9-22,22v142.17H0v10h202.74v-10h-25.72l-8.36-34.54-.71-2.92,19.53-3.48Zm-162,23.67h13.99v9.14h-13.99v-9.14Zm37.48-54.78v3.75h-20.84v-3.75h20.84Zm-20.84-4.74V36.8h20.84v72.38h-20.84Zm20.84,13.23v3.75h-20.84v-3.75h20.84Zm0,8.49v3.75h-20.84v-3.75h20.84Zm0,8.49v3.75h-20.84v-3.75h20.84Zm0,8.49v3.75h-20.84v-3.75h20.84Zm-3.99,8.49l2.06,4.34h-15.59l2.06-4.34h11.47Zm3.99,12.34v9.14h-20.84v-9.14h20.84Zm2.65,0h13.99v9.14h-13.99v-9.14Zm13.99-124.9v116.9h-10.67l2.06-4.34h2.96v-4.74h-8.34v-3.75h8.34v-4.74h-8.34v-3.75h8.34v-4.74h-8.34v-3.75h8.34v-4.74h-8.34v-3.75h8.34v-4.74h-8.34v-3.75h8.34v-4.74h-8.34V36.8h6.99c3.79,0,7,3.21,7,7Zm-47.13-7h6.99v72.38h-8.34v4.74h8.34v3.75h-8.34v4.74h8.34v3.75h-8.34v4.74h8.34v3.75h-8.34v4.74h8.34v3.75h-8.34v4.74h8.34v3.75h-8.34v4.74h4.35l2.06,4.34h-12.06V43.8c0-3.79,3.21-7,7-7Z"/>
      <path d="m131.39,145.11l-15.16-49.41s-.05,0-.07,0c-.27,0-.54-.01-.8-.03-1.92-.15-3.74-.82-5.31-1.98-.11-.08-.2-.17-.3-.25-.03-.03-.07-.05-.1-.08-.54-.44-1.02-.92-1.45-1.45-.06-.07-.12-.14-.17-.21-.11-.14-.21-.28-.31-.42-.09-.12-.17-.25-.25-.38-.07-.11-.15-.23-.21-.34-.28-.48-.52-.98-.72-1.5-.02-.04-.03-.09-.04-.13-.04-.12-.08-.23-.11-.35-.07-.22-.14-.43-.2-.65-.01-.05-.02-.1-.03-.15-.22-.94-.32-1.88-.28-2.81,0-.03,0-.06,0-.09.02-.29.04-.58.08-.87.17-1.25.58-2.47,1.21-3.62.02-.03.03-.07.05-.1.12-.2.25-.4.38-.6.06-.09.12-.19.19-.28.03-.04.05-.08.08-.12l2.35-3.18-5.68-18.51c-1.13-3.72-5.1-5.84-8.83-4.71h0c-3.72,1.13-5.84,5.1-4.71,8.83l30.3,98.73c.39,1.3,2.3,1.64,4.56,1.38l5.54-16.72Z"/>
      <path d="m167.49,55.58c2.55,0,4.95.96,6.8,2.59h2.22c2.11,0,3.82,1.71,3.82,3.82,0,1.66-1.07,3.06-2.56,3.59.06,2.24-.6,4.43-1.87,6.23h.6c5.41,0,9.82-4.41,9.82-9.82s-4.41-9.82-9.82-9.82h-11.62c-1.66,0-3,1.34-3,3,0,.61.18,1.17.49,1.64l1.45-.55c1.18-.45,2.41-.67,3.66-.67Z"/>
      <path d="m162.03,78.98l-7.23,2.75-26.7,80.61c2.04.33,3.93,1.06,5.62,2.12l28.31-85.48Z"/>
      <path d="m109.71,80.65s-.03.04-.04.06c-.09.13-.18.26-.27.4-.06.09-.12.18-.18.28-.06.11-.12.22-.18.34-.05.09-.1.18-.14.27h0c-.89,1.9-1.05,4.14-.25,6.25,1.21,3.2,4.25,5.16,7.48,5.16.94,0,1.91-.17,2.84-.52l51.35-19.52c4.13-1.57,6.21-6.19,4.64-10.32-1.57-4.13-6.19-6.21-10.32-4.64l-33.82,12.86-.76-2.17,8.47-3.22c0-2.45-1.12-4.86-3.24-6.42-3.56-2.62-8.56-1.87-11.19,1.69l-14.4,19.52Z"/>
      <path d="m125.63,165.12c-6.8,0-12.32,5.51-12.32,12.32s5.51,12.32,12.32,12.32,12.32-5.51,12.32-12.32-5.51-12.32-12.32-12.32Zm7.32,12.32c0,4.03-3.28,7.32-7.32,7.32s-7.32-3.28-7.32-7.32,3.28-7.32,7.32-7.32,7.32,3.28,7.32,7.32Z"/>
    </g>
  </g>
</svg>