<?xml version="1.0" encoding="UTF-8"?>
<svg id="Capa_2" data-name="Capa 2" xmlns="http://www.w3.org/2000/svg" viewBox="0 0 212.59 185.6">
  <g id="Layer_1" data-name="Layer 1">
    <g>
      <path d="m50.94,100.37c-1.19-12.37-12.19-21.43-24.56-20.23-12.37,1.19-21.43,12.19-20.23,24.56.75,7.74,5.33,14.19,11.69,17.63h21.41c7.71-4.18,12.58-12.68,11.69-21.96Z"/>
      <path d="m200.07,185.4c1.01,0,2.04-.12,3.06-.38,6.69-1.69,10.75-8.48,9.07-15.17l-16.42-65.18c-1.34-5.31-5.98-9.13-11.45-9.43l-98.33-5.29-1.18,12.72c-.49,5.33-4.9,9.35-10.25,9.35-.32,0-.64-.01-.96-.04-2.74-.25-5.21-1.56-6.97-3.68-1.76-2.12-2.58-4.79-2.33-7.53l3.68-39.71-1.64-25.11c-2.62,1.22-5.53,1.93-8.61,1.93-2.61,0-5.09-.51-7.39-1.4l4.35,66.77c.06.9.27,1.76.6,2.55.7,5.98,4.4,12.46,11.63,16.55h71.81c2.1-1.29,3.68-2.71,4.85-4.25l30.19,1.63,14.17,56.25c1.43,5.67,6.52,9.45,12.11,9.45Z"/>
      <path d="m161.19,139.47c3.89,0,7.07-3.18,7.07-7.07s-3.18-7.07-7.07-7.07H7.68c-3.89,0-7.07,3.18-7.07,7.07s3.18,7.07,7.07,7.07h3.51l-.59,3-6.56,33.13H0v10h19.02v-10h-4.8l6.03-30.43h128.36l6.03,30.43h-4.8v10h19.02v-10h-4.03l-6.56-33.13-.59-3h3.51Z"/>
      <path d="m72.74,34.76l-6.14,66.21c-.41,4.4,2.83,8.3,7.23,8.7.25.02.5.03.75.03,4.08,0,7.57-3.11,7.96-7.26l6.05-65.24c-1.62.42-3.32.66-5.07.66-3.96,0-7.64-1.15-10.77-3.1Z"/>
      <path d="m68.44,31.18c-2.31-2.53-3.99-5.64-4.8-9.09-1.38,1.74-3.5,2.86-5.89,2.86-4.15,0-7.52-3.36-7.52-7.52s3.36-7.52,7.52-7.52c2.39,0,4.52,1.12,5.89,2.86.81-3.45,2.49-6.56,4.8-9.09-2.95-2.3-6.66-3.69-10.7-3.69-9.63,0-17.43,7.8-17.43,17.43s7.8,17.43,17.43,17.43c4.04,0,7.74-1.38,10.7-3.69Z"/>
      <path d="m57.75,20.15c1.5,0,2.72-1.22,2.72-2.72s-1.22-2.72-2.72-2.72-2.72,1.22-2.72,2.72,1.22,2.72,2.72,2.72Z"/>
      <path d="m66.08,17.43c0,9.63,7.8,17.43,17.43,17.43s17.43-7.8,17.43-17.43S93.14,0,83.52,0s-17.43,7.8-17.43,17.43Zm17.43-7.52c4.15,0,7.52,3.36,7.52,7.52s-3.36,7.52-7.52,7.52-7.52-3.36-7.52-7.52,3.36-7.52,7.52-7.52Z"/>
      <path d="m83.52,14.72c-1.5,0-2.72,1.22-2.72,2.72s1.22,2.72,2.72,2.72,2.72-1.22,2.72-2.72-1.22-2.72-2.72-2.72Z"/>
    </g>
  </g>
</svg>