<?xml version="1.0" encoding="UTF-8"?>
<svg id="Capa_2" data-name="Capa 2" xmlns="http://www.w3.org/2000/svg" viewBox="0 0 97.76 225.96">
  <defs>
    <style>
      .cls-1 {
        fill-rule: evenodd;
      }
    </style>
  </defs>
  <g id="Capa_1-2" data-name="Capa 1">
    <path class="cls-1" d="m35.2,20.05h-16.82c-6.46,0-11.69,5.23-11.69,11.69v17.09c-1.17.58-2.24,1.34-3.18,2.28-2.25,2.25-3.52,5.31-3.52,8.5v12.54c0,4.53,1.03,8.99,3.02,13.06,0,0,0,.02.01.03,5.51,11.11,5.59,23.08.46,34.29-2.19,4.79-3.08,10.08-2.56,15.32,1.64,17.99,6.18,63.16,7.93,80.59.6,5.97,5.63,10.52,11.63,10.52h56.78c6,0,11.03-4.55,11.63-10.52l8.09-80.54c.53-5.28-.36-10.61-2.57-15.43,0-.01-.01-.03-.02-.04-5.26-11.14-5.17-23.11.23-34.28,1.96-4.03,2.98-8.46,2.99-12.95.15-3.74.15-8.54.15-12.58h0c0-3.19-1.27-6.24-3.52-8.5-.64-.64-1.33-1.19-2.08-1.66v-17.71c0-6.45-5.23-11.69-11.69-11.69h-16.82V3.9c0-2.15-1.74-3.9-3.9-3.9h-20.67c-2.15,0-3.89,1.74-3.89,3.9v16.15h0Zm54.13,110.96c.04,1.03.01,2.07-.09,3.11l-8.09,80.54c-.2,1.99-1.88,3.51-3.88,3.51H20.49c-2,0-3.68-1.52-3.88-3.51h0c-1.75-17.42-6.28-62.56-7.92-80.52,0-.01,0-.02,0-.04-.1-1.03-.13-2.07-.09-3.09h80.73Zm-2.31-48c-5.86,12.98-5.76,26.8.31,39.7.08.17.15.33.22.5H10.38c.06-.15.13-.29.2-.44,0,0,0,0,0,0,5.94-12.98,6.02-26.83.02-39.76h76.42Zm2.59-7.79H8.01c-.14-1.02-.22-2.04-.22-3.07v-12.54c0-1.12.45-2.2,1.24-2.99s1.87-1.24,2.99-1.24h73.73c1.12,0,2.2.45,2.99,1.24s1.24,1.87,1.24,2.99c0,3.97,0,8.69-.15,12.39,0,.05,0,.1,0,.16,0,1.03-.07,2.06-.22,3.07h0Zm-13.18-47.38v9.88c0,2.15-1.74,3.9-3.9,3.9s-3.9-1.74-3.9-3.9v-9.88h-7.78v9.88c0,2.15-1.75,3.9-3.9,3.9s-3.9-1.74-3.9-3.9v-9.88h-8v9.88c0,2.15-1.75,3.9-3.9,3.9s-3.9-1.74-3.9-3.9v-9.88h-8v9.88c0,2.15-1.75,3.9-3.9,3.9s-3.9-1.74-3.9-3.9v-9.88h-3.1c-2.15,0-3.9,1.74-3.9,3.9v15.85h69.88v-15.85c0-2.15-1.75-3.9-3.9-3.9h-4.05Zm-33.44-7.79h12.88V7.79h-12.88v12.26h0Z"/>
  </g>
</svg>