<?xml version="1.0" encoding="UTF-8"?>
<svg id="Capa_2" data-name="Capa 2" xmlns="http://www.w3.org/2000/svg" viewBox="0 0 42.34 41">
  <defs>
    <style>
      .cls-1 {
        fill: #2d3540;
      }
    </style>
  </defs>
  <g id="Layer_1" data-name="Layer 1">
    <g>
      <path class="cls-1" d="m21.17,12.19c3.37,0,6.1-2.73,6.1-6.1S24.54,0,21.17,0s-6.1,2.73-6.1,6.1,2.73,6.1,6.1,6.1Z"/>
      <path class="cls-1" d="m26.83,25.84c.19.96.86,1.75,1.77,2.11.74.3,2.22.77,4.07.77,1.24,0,2.65-.21,4.12-.84,2.97-1.26,4.54-3.52,5.21-4.75.76-1.41.24-3.17-1.16-3.93-1.41-.76-3.17-.24-3.93,1.16-.25.46-.98,1.59-2.38,2.18-.91.39-1.79.42-2.48.34-.56-1.69-1.55-3.68-3.29-5.55-1.63-1.75-3.68-3.11-5.93-3.93-.48-.21-1.01-.34-1.57-.35-.64-.01-1.25.13-1.8.38-2.22.83-4.24,2.17-5.84,3.9-1.73,1.87-2.72,3.86-3.29,5.55-.69.08-1.57.05-2.48-.34-1.4-.6-2.13-1.73-2.38-2.18-.76-1.41-2.52-1.93-3.93-1.16-1.41.76-1.93,2.53-1.16,3.93.67,1.23,2.24,3.49,5.21,4.75,1.47.62,2.87.84,4.12.84,1.85,0,3.32-.47,4.07-.77.91-.36,1.57-1.16,1.77-2.11.19-.95.61-2.25,1.52-3.55v7.56l-13.43,5.57c-.14.06-.28.13-.42.21-.32.19-.59.44-.8.73,0,0-.01.01-.02.02-.02.02-.03.05-.05.07-.01.02-.02.03-.03.05-.01.02-.02.03-.03.05-.02.02-.03.05-.05.07,0,0,0,.02-.01.02-.02.03-.04.07-.06.1h0c-.15.28-.26.59-.31.92-.04.24-.04.49-.02.74,0,0,0,0,0,0,0,.04.01.09.02.13,0,.01,0,.03,0,.04,0,.03.01.06.02.09,0,.03.01.05.02.08,0,.02,0,.04.01.05,0,.04.02.08.03.12,0,0,0,.01,0,.02.05.16.11.32.19.47,0,0,0,.01.01.02.03.06.06.12.1.18,0,0,0,0,0,.01.03.05.06.1.09.14.01.02.03.04.04.06.03.04.07.09.1.13.02.02.04.04.05.06.02.03.04.05.07.08.02.02.04.04.06.06.04.04.07.07.11.11.02.02.04.03.06.05.03.03.06.05.09.08.02.01.03.02.05.04.05.04.1.07.14.1.01,0,.02.01.03.02.05.03.1.06.15.09,0,0,0,0,.01,0,.24.13.49.23.76.29,0,0,.02,0,.02,0,.06.01.13.03.19.04.01,0,.03,0,.04,0,.05,0,.09.01.14.02.03,0,.05,0,.08,0,.04,0,.08,0,.11,0,.02,0,.04,0,.06,0,.01,0,.02,0,.03,0h19.62c1.63,0,2.99-1.33,2.96-2.96-.03-1.57-1.32-2.84-2.9-2.84h-4.97s-.05-.06-.01-.07l1.77-.73s.08-.02.12-.02h3.09c.11,0,.23,0,.34.02,0,0,.01,0,.02,0,.05,0,.1.01.15.02.01,0,.02,0,.03,0,.05,0,.09.02.14.02.01,0,.03,0,.04,0,.05,0,.09.02.13.03.01,0,.03,0,.04.01.04.01.08.02.13.03.02,0,.03,0,.05.01.04.01.08.03.12.04.02,0,.03.01.05.02.04.01.08.03.11.04.02,0,.04.01.05.02.04.02.07.03.11.05.02,0,.04.02.05.02.04.02.07.03.1.05.02,0,.04.02.06.03.03.02.07.04.1.05.02.01.04.02.06.03.03.02.06.04.09.06.02.01.04.02.06.04.03.02.06.04.09.06.02.01.04.03.06.04.03.02.06.04.08.06.02.01.04.03.06.04.03.02.05.04.08.07.02.02.04.03.06.05.03.02.05.05.08.07.02.02.04.03.05.05.02.02.05.05.07.07.02.02.04.04.05.06.02.02.04.05.07.07.02.02.03.04.05.06.02.02.04.05.06.07.02.02.03.04.05.06.02.03.04.05.06.08.02.02.03.04.05.07.02.03.04.05.05.08.02.02.03.05.05.07.02.03.03.05.05.08.01.02.03.05.04.07.01.03.03.05.04.08.01.03.03.05.04.08.01.03.03.05.04.08.01.03.02.05.04.08.01.03.02.05.04.08.01.03.02.06.03.09.01.03.02.05.03.08.01.03.02.06.03.09,0,.03.02.05.03.08,0,.03.02.06.03.09,0,.03.02.05.02.08,0,.03.02.06.02.1,0,.03.01.05.02.08,0,.03.01.07.02.1,0,.03,0,.05.01.08,0,.04,0,.07.01.11,0,.02,0,.05,0,.07,0,.04,0,.08,0,.12,0,.02,0,.04,0,.06,0,.06,0,.13,0,.19,0,.07,0,.14,0,.21,0,.02,0,.04,0,.07,0,.05,0,.09-.01.14,0,.03,0,.05,0,.08,0,.04-.01.08-.02.13,0,.03,0,.05-.01.08,0,.04-.02.08-.03.12,0,.02-.01.05-.02.07-.01.04-.02.08-.03.13,0,.02-.01.04-.02.06-.01.05-.03.09-.05.14,0,.02-.01.03-.02.05-.05.13-.1.25-.16.37,0,0,0,0,0,.01-.03.06-.06.11-.09.16,0,.01-.01.02-.02.03-.03.05-.05.09-.08.14,0,.01-.01.02-.02.03-.03.04-.06.09-.09.13,0,.01-.01.02-.02.03-.03.05-.07.09-.1.13,0,0-.01.01-.02.02-.04.05-.08.1-.12.15,0,0,0,0,0,0-.14.15-.28.29-.44.42h10.88s.02,0,.03,0c.02,0,.04,0,.06,0,.04,0,.08,0,.12,0,.03,0,.05,0,.08,0,.05,0,.09,0,.14-.02.01,0,.02,0,.04,0,.06,0,.13-.02.19-.04,0,0,.01,0,.02,0,.27-.06.53-.16.77-.29,0,0,0,0,.01,0,.05-.03.1-.06.15-.09,0,0,.02-.01.03-.02.05-.03.1-.07.15-.1.01-.01.03-.02.04-.03.03-.03.07-.05.1-.08.02-.02.04-.03.05-.05.04-.03.08-.07.11-.11.02-.02.04-.04.06-.06.02-.03.05-.05.07-.08.02-.02.03-.04.05-.06.03-.04.07-.09.1-.13.01-.02.03-.04.04-.05.03-.05.07-.1.1-.14,0,0,0,0,0-.01.04-.06.07-.12.1-.18,0,0,0-.01,0-.02.08-.15.14-.31.19-.47,0,0,0,0,0-.01.01-.04.02-.08.03-.12,0-.02,0-.03.01-.05,0-.03.01-.06.02-.08,0-.03.01-.06.02-.09,0-.02,0-.03,0-.05,0-.04.01-.09.02-.13,0,0,0,0,0,0,.03-.25.02-.49-.02-.74-.05-.33-.16-.64-.31-.92h0s-.04-.07-.06-.1c0,0,0-.02-.01-.02-.01-.02-.03-.05-.05-.07-.01-.02-.02-.03-.03-.05-.01-.02-.02-.03-.03-.05-.02-.02-.03-.05-.05-.07,0,0-.01-.01-.02-.02-.22-.29-.49-.53-.8-.73-.13-.08-.27-.15-.42-.21l-13.43-5.57v-7.56c.91,1.3,1.33,2.6,1.52,3.55Z"/>
    </g>
  </g>
</svg>