<?xml version="1.0" encoding="UTF-8"?>
<svg id="Capa_2" data-name="Capa 2" xmlns="http://www.w3.org/2000/svg" viewBox="0 0 227.61 225.67">
  <defs>
    <style>
      .cls-1 {
        fill-rule: evenodd;
      }
    </style>
  </defs>
  <g id="Capa_1-2" data-name="Capa 1">
    <path class="cls-1" d="m113.88,0h-.08c-17.81,0-32.57,13.12-35.14,30.21l-14.77,47.24-12.14-3.72c-2.96-.91-6.17-.61-8.9.85-2.74,1.45-4.79,3.93-5.7,6.9C29.94,104.97,7.73,177.38.51,200.88c-.91,2.96-.6,6.17.85,8.9,1.45,2.74,3.93,4.79,6.9,5.7,8.66,2.66,22.88,7.02,31.54,9.68,2.96.91,6.17.6,8.91-.85,2.74-1.45,4.79-3.93,5.7-6.9l36.64-119.41c.91-2.96.6-6.17-.85-8.91-1.45-2.74-3.93-4.79-6.9-5.7l-11.96-3.67,9.59-30.68c5.32,12.91,18.04,22.01,32.87,22.01s27.79-9.28,33.02-22.4l9.69,30.98-12.21,3.75c-2.96.91-5.44,2.96-6.9,5.7-1.45,2.74-1.76,5.94-.85,8.91h0c7.21,23.5,29.43,95.91,36.64,119.41.91,2.96,2.96,5.44,5.7,6.9,2.74,1.45,5.94,1.76,8.91.85,8.66-2.66,22.88-7.02,31.54-9.68,2.96-.91,5.44-2.96,6.9-5.7,1.45-2.74,1.76-5.94.85-8.9-7.21-23.5-29.43-95.91-36.64-119.41-.91-2.96-2.96-5.44-5.7-6.9-2.74-1.45-5.94-1.76-8.91-.85l-11.88,3.65-15.41-49.26c-1.58-7.43-5.48-14-10.91-18.91-6.32-5.78-14.71-9.2-23.7-9.2h-.07ZM38.33,104.2l38.83,12.49-30.21,98.43c-.3.99-.99,1.81-1.9,2.3-.91.48-1.98.59-2.97.28l-31.54-9.68c-.99-.3-1.81-.99-2.3-1.9-.48-.91-.59-1.98-.28-2.97l30.37-98.96h0Zm151,.18l30.31,98.78c.3.99.2,2.05-.28,2.97-.48.91-1.31,1.6-2.3,1.9l-31.54,9.68c-.99.3-2.06.2-2.97-.28-.91-.48-1.6-1.31-1.9-2.3l-30.15-98.25,38.83-12.49h0Zm-2.29-7.45l-38.83,12.49-4.21-13.71c-.3-.99-.2-2.06.28-2.97.48-.91,1.31-1.6,2.3-1.9l31.54-9.68c.99-.3,2.06-.2,2.97.28s1.6,1.31,1.9,2.3l4.04,13.18h0Zm-107.6,12.31l-38.83-12.5,3.99-12.99c.3-.99.99-1.81,1.9-2.3.91-.48,1.98-.59,2.97-.28l31.54,9.68c.99.3,1.81.99,2.3,1.9.48.91.58,1.98.28,2.97l-4.15,13.53h0ZM113.86,7.79c-11.92.03-22.46,7.79-26.02,19.18l-1.55,4.96c-.15,1.18-.23,2.39-.23,3.61,0,15.31,12.43,27.74,27.75,27.74s27.74-12.43,27.74-27.74c0-1.87-.19-3.7-.54-5.47l-.97-3.09c-1.51-4.82-4.27-9-7.86-12.21-4.88-4.32-11.3-6.95-18.32-6.97h0Z"/>
  </g>
</svg>