<?xml version="1.0" encoding="UTF-8"?>
<svg id="Capa_2" data-name="Capa 2" xmlns="http://www.w3.org/2000/svg" viewBox="0 0 37.86 42.3">
  <defs>
    <style>
      .cls-1 {
        fill: #2d3540;
      }
    </style>
  </defs>
  <g id="Layer_1" data-name="Layer 1">
    <g>
      <path class="cls-1" d="m3.84,18.18c5.09-.54,10.23-.8,15.33-.78,4.95.02,9.95.3,14.89.84-2.21-3.71-4.37-4.96-4.53-9.48,0-.16,0-.31,0-.46,0-.05,0-.1,0-.15,0-.1,0-.2,0-.3,0-.06,0-.11,0-.17,0-.09,0-.18.01-.27,0-.06,0-.12.01-.17,0-.09.01-.18.02-.26,0-.06.01-.11.02-.17,0-.09.02-.18.03-.27,0-.05.01-.1.02-.15.02-.11.03-.22.05-.34,0-.03,0-.05.01-.08.02-.13.05-.27.07-.4,0-.05.02-.09.03-.14.02-.09.04-.17.05-.26.01-.05.02-.11.04-.16.02-.08.04-.15.05-.23.01-.06.03-.11.04-.16.02-.07.04-.14.06-.22.02-.05.03-.11.05-.16.02-.07.04-.14.06-.21.02-.05.03-.1.05-.15.02-.08.05-.15.08-.23.01-.04.03-.08.04-.13.04-.11.08-.22.12-.34.02-.05.04-.1.06-.15.02-.06.05-.13.07-.19.02-.05.04-.11.06-.16.02-.06.05-.11.07-.17.02-.06.05-.11.07-.17.02-.05.04-.1.07-.16.02-.06.05-.11.07-.17.02-.05.04-.1.06-.15.03-.06.05-.11.08-.17.02-.04.04-.08.06-.12.11-.24.22-.47.34-.69,0-.02.02-.03.02-.05.04-.08.08-.15.12-.23,0-.02.02-.03.02-.05.04-.08.08-.16.12-.24,0,0,0-.01,0-.02.06-.11.11-.21.17-.31H5.94c.06.1.11.21.17.31,0,0,0,.01,0,.02.04.08.08.16.12.23,0,.02.02.03.03.05.04.07.08.15.11.22,0,.02.02.03.02.05.11.22.23.46.34.69.02.04.04.08.06.12.03.06.05.11.08.17.02.05.04.1.07.15.02.06.05.11.07.17.02.05.04.1.07.16.02.06.05.11.07.17.02.06.05.11.07.17.02.05.04.11.06.16.02.06.05.13.07.19.02.05.04.1.06.15.04.11.08.22.12.34.01.04.03.08.04.13.03.08.05.15.08.23.02.05.03.1.05.15.02.07.04.14.06.21.02.05.03.11.05.16.02.07.04.14.06.22.01.05.03.11.04.16.02.07.04.15.05.23.01.05.03.11.04.16.02.09.04.17.05.26,0,.05.02.09.03.14.03.13.05.26.07.4,0,.02,0,.05.01.08.02.11.03.22.05.34,0,.05.01.1.02.15.01.09.02.18.03.27,0,.06.01.11.02.17,0,.09.02.18.02.26,0,.06,0,.12.01.17,0,.09,0,.18.01.27,0,.06,0,.11,0,.17,0,.1,0,.2,0,.3,0,.05,0,.1,0,.15,0,.15,0,.31,0,.46-.16,4.49-2.3,5.76-4.49,9.42Z"/>
      <path class="cls-1" d="m20.56,25.64c.27-.3.56-.58.87-.84.31-.25.64-.49.98-.7.68-.42,1.41-.76,2.16-1.01.37-.13.75-.24,1.14-.33.19-.04.38-.09.58-.12.1-.02.19-.04.29-.05l.29-.05c.1-.02.19-.03.29-.04l.28-.04.15-.02.15-.02c.1,0,.2-.02.29-.03.39-.03.78-.04,1.18-.04.39,0,.78.02,1.17.05.39.03.77.07,1.15.1l1.14.11,1.14.11,2.28.23h.13c-.52-1.53-1.08-2.78-1.64-3.83-5.1-.58-10.27-.89-15.39-.91-5.27-.02-10.58.26-15.83.84-.58,1.07-1.15,2.34-1.68,3.91h.13s2.28-.24,2.28-.24l1.14-.11,1.14-.11c.38-.03.76-.07,1.15-.1.39-.03.78-.05,1.17-.05.39,0,.78,0,1.18.04.1,0,.2.02.29.03l.15.02.15.02.28.04c.09.01.19.02.29.04l.29.05c.1.02.19.04.29.05.19.04.38.08.58.12.38.09.76.2,1.14.33.75.25,1.48.59,2.16,1.01.34.21.66.45.98.7.31.26.6.54.87.84.26.3.51.62.73.96.21.34.41.7.56,1.07.13.31.25.64.34.96.09-.33.21-.65.34-.96.15-.37.35-.73.56-1.07.22-.34.46-.66.73-.96Z"/>
      <path class="cls-1" d="m18.57,31.18v-.28s-.03-.28-.03-.28c-.01-.18-.04-.37-.06-.55-.06-.36-.13-.72-.23-1.07-.1-.35-.23-.69-.37-1.02l-.12-.25-.13-.24c-.04-.08-.09-.16-.13-.23-.05-.08-.09-.16-.14-.23-.2-.3-.42-.59-.66-.86-.24-.27-.51-.51-.79-.75-.28-.23-.58-.44-.89-.63-.62-.38-1.29-.69-1.99-.93-.69-.24-1.42-.42-2.15-.54-.09-.02-.18-.03-.28-.04l-.28-.04-.13-.02-.14-.02c-.09-.01-.18-.02-.28-.03-.37-.03-.74-.05-1.11-.06-.37,0-.75,0-1.12.02-.38.02-.76.05-1.14.08l-1.14.08-1.14.07-2.29.15-.36.02C-.68,30.35-.1,36.54.85,41.54c.08.44.47.76.92.76h14.51c.49,0,.91-.38.94-.87.03-.54,0-1.15-.15-1.8-.1-.44-.25-.86-.45-1.27-.09.08-.18.15-.28.22-.08.07-.16.12-.24.17-.08.05-.16.11-.24.16-.17.1-.34.2-.51.29-.35.18-.71.32-1.08.43-.37.11-.75.2-1.13.26-.38.06-.76.09-1.15.08.38-.04.76-.1,1.13-.19.37-.09.73-.2,1.08-.34l.13-.05.13-.06c.09-.04.17-.08.26-.12.17-.09.34-.17.49-.27.16-.09.32-.2.47-.3.08-.05.15-.11.22-.17.07-.06.15-.11.21-.18.14-.12.27-.24.4-.38l.1-.1.05-.05.02-.03h0s0-.02,0,0h.01s.18-.23.18-.23c.23-.29.44-.59.61-.92.17-.33.32-.66.44-1.01.12-.35.22-.71.3-1.07.08-.36.14-.73.19-1.1.05-.38.1-.74.12-1.11.02-.27.02-.53.02-.79,0-.02,0-.04,0-.06,0-.08,0-.17,0-.26Z"/>
      <path class="cls-1" d="m36.39,23.56l-.36-.02-2.29-.15-1.14-.07-1.14-.08c-.38-.03-.76-.06-1.14-.08-.37-.02-.75-.03-1.12-.02-.37,0-.74.03-1.11.06-.09,0-.18.02-.28.03l-.14.02-.13.02-.28.04c-.1.01-.19.03-.28.04-.72.12-1.45.3-2.15.54-.7.24-1.37.55-1.99.93-.31.19-.61.4-.89.63-.28.23-.54.48-.79.75-.24.27-.47.55-.66.86-.05.07-.09.15-.14.23-.05.08-.09.15-.13.23l-.13.24-.12.25c-.15.33-.28.67-.37,1.02-.1.35-.17.71-.23,1.07-.02.18-.05.36-.06.55l-.02.28v.28c-.01.09-.01.17-.02.26,0,.02,0,.04,0,.06,0,.27,0,.53.02.79.02.37.07.73.12,1.11.05.37.11.74.19,1.1.08.36.18.72.3,1.07.12.35.27.69.44,1.01.17.33.38.63.61.92l.18.21h.01s0,.01,0,.01h0s.02.03.02.03l.05.05.1.1c.13.15.27.26.4.38.07.06.14.12.21.18.07.06.14.12.22.17.15.1.31.21.47.3.16.1.33.18.49.27.08.04.17.08.26.12l.13.06.13.05c.35.14.71.25,1.08.34.37.09.75.15,1.13.19-.38,0-.77-.03-1.15-.08-.38-.05-.76-.14-1.13-.26-.37-.11-.74-.25-1.08-.43-.18-.08-.34-.19-.51-.29-.08-.05-.16-.11-.24-.16-.08-.06-.16-.11-.24-.17-.09-.07-.19-.15-.28-.22-.19.41-.34.83-.45,1.27-.15.65-.18,1.25-.15,1.8.03.49.45.87.94.87h14.51c.45,0,.84-.32.92-.76.95-5,1.53-11.19-.61-17.98Z"/>
    </g>
  </g>
</svg>