<?xml version="1.0" encoding="UTF-8"?>
<svg id="Capa_2" data-name="Capa 2" xmlns="http://www.w3.org/2000/svg" viewBox="0 0 43.19 48.35">
  <defs>
    <style>
      .cls-1 {
        fill: #2d3540;
      }
    </style>
  </defs>
  <g id="Layer_1" data-name="Layer 1">
    <g>
      <path class="cls-1" d="m35.96,10.63l2.19-4.12c.45-.85.13-1.91-.72-2.36-.85-.45-1.91-.13-2.36.72l-1.23,2.31s0,0,0,0l-1.89,3.55c-.16.31-.54.42-.85.26-.31-.16-.42-.54-.26-.85l1.21-2.28c-2-1.11-4.21-1.92-6.58-2.35-2.37-.43-4.73-.46-6.99-.13l.6,4.68c.04.34-.2.66-.54.7-.34.04-.66-.2-.7-.54l-.78-6.11s0,0,0,0l-.33-2.6c-.12-.96-1-1.63-1.95-1.51-.96.12-1.63,1-1.51,1.95l.59,4.63C7.51,9.04,2.46,14.43.68,21.39c1.91,2.43,9.31,5.82,20.46,7.86,4.69.86,9.24,1.31,13.16,1.31.29,0,.53.24.53.53,0,.29-.24.53-.53.53-3.98,0-8.6-.46-13.35-1.33-5.33-.97-10.42-2.4-14.33-4.02-2.15-.89-4.72-2.16-6.22-3.62-.01.07-.03.15-.04.22-.65,3.54-.39,7.03.6,10.24,3.3,3.82,10.06,7.16,17.9,8.6,7.84,1.43,15.35.69,19.78-1.71,2.07-2.65,3.54-5.83,4.19-9.37,1.4-7.68-1.45-15.15-6.87-20Z"/>
      <path class="cls-1" d="m18.67,42.76c-5.18-.95-10.09-2.75-13.83-5.07-1.12-.7-2.12-1.43-3-2.2,2.8,6.31,8.56,11.17,15.87,12.51,7.3,1.33,14.42-1.18,19.26-6.09-1.09.4-2.29.74-3.58,1-4.32.85-9.55.8-14.73-.14Z"/>
    </g>
  </g>
</svg>