<?xml version="1.0" encoding="UTF-8"?>
<svg id="Capa_2" data-name="Capa 2" xmlns="http://www.w3.org/2000/svg" viewBox="0 0 269.77 105.57">
  <g id="Layer_1" data-name="Layer 1">
    <g>
      <path d="m96.44,42.3c2.44-1.32,4.58-3.08,6.36-5.15l-28.62-.23-3.67,2.14c1.37,1.26,2.89,2.35,4.53,3.23h21.41Z"/>
      <path d="m71.44,16.3l36,.28C104.62,6.19,94.65-.96,83.57.11c-10.55,1.02-18.69,9.17-20.11,19.22l2.8-1.63c1.57-.92,3.36-1.4,5.18-1.4Z"/>
      <path d="m252.97,24.63c-1.34-5.31-5.98-9.13-11.45-9.43l-106.33-5.72c-1.88-.32-3.79-.42-5.67-.31l-2.72-.15c-.62-.16-1.26-.27-1.92-.28l-18.71-.34c1.68,2.44,2.92,5.2,3.65,8.19l17.8.14c5.68.04,10.26,4.7,10.22,10.38-.05,5.64-4.67,10.22-10.3,10.22l-9.69-.08c1.69,1.89,3.78,3.6,6.3,5.03h71.81c2.1-1.29,3.68-2.71,4.85-4.25l30.19,1.63.92,3.66c3.34,1.64,5.64,5.07,5.64,9.03,0,2.18-.71,4.2-1.89,5.85l9.5,37.69c1.43,5.67,6.52,9.45,12.11,9.45,1.01,0,2.04-.12,3.06-.38,6.69-1.69,10.75-8.48,9.07-15.17l-16.42-65.18Z"/>
      <path d="m227.47,59.44c3.89,0,7.07-3.18,7.07-7.07s-3.18-7.07-7.07-7.07H73.96c-3.89,0-7.07,3.18-7.07,7.07s3.18,7.07,7.07,7.07h3.51l-.59,3-6.56,33.13h-4.03v10h19.02v-10h-4.8l6.03-30.43h128.36l6.03,30.43h-4.8v10h19.02v-10h-4.03l-6.56-33.13-.59-3h3.51Z"/>
      <path d="m26.13,64.02l2.35,4.35-7.01,3.78c-1.42.77-1.95,2.55-1.19,3.97l3.02,5.59c.77,1.42,2.55,1.95,3.97,1.19l19.28-10.41c1.42-.77,1.95-2.55,1.19-3.97l-3.02-5.59c-.77-1.42-2.55-1.95-3.97-1.19l-7.01,3.78-2.07-3.84-1.78,1.04c-1.16.67-2.43,1.11-3.75,1.3Z"/>
      <path d="m19.52,44.92l41.48-24.16c.11-1.54.35-3.06.74-4.54l-34.24,18.62c.73-.89.89-2.18.32-3.25l-3.02-5.59c-.77-1.42-2.55-1.95-3.97-1.19L1.54,35.22c-1.42.77-1.95,2.55-1.19,3.97l3.02,5.59c.77,1.42,2.55,1.95,3.97,1.19l7.01-3.78.37.69c-1.56,2.38-1.79,5.53-.33,8.2.09.16.19.3.29.45.61-2.68,2.28-5.11,4.84-6.61Z"/>
      <path d="m73.57,34.62l53.89.42h.06c4.39,0,7.96-3.54,8-7.94.03-4.42-3.52-8.03-7.94-8.06l-56.08-.44s-.04,0-.06,0c-1.41,0-2.8.38-4.03,1.09l-46.74,27.22c-3.82,2.22-5.11,7.12-2.89,10.94,1.49,2.55,4.17,3.98,6.92,3.98,1.37,0,2.75-.35,4.02-1.09l44.84-26.12Z"/>
    </g>
  </g>
</svg>