<?xml version="1.0" encoding="UTF-8"?>
<svg id="Capa_2" data-name="Capa 2" xmlns="http://www.w3.org/2000/svg" viewBox="0 0 223.49 216.15">
  <defs>
    <style>
      .cls-1 {
        fill-rule: evenodd;
      }
    </style>
  </defs>
  <g id="Capa_1-2" data-name="Capa 1">
    <path class="cls-1" d="m165.87,65.51l13.73,17.45c13.29,16.88,20.51,37.74,20.51,59.22v2.55c-15.31.6-29.34,7.66-38.95,18.92-.35-.1-.73-.16-1.11-.16H18.95c-5.03,0-9.85,2-13.4,5.55-3.55,3.55-5.55,8.37-5.55,13.4h0v29.8c0,2.15,1.74,3.9,3.9,3.9h34.02c2.15,0,3.9-1.74,3.9-3.9v-10.85h109.15v10.85c0,2.15,1.74,3.9,3.9,3.9h64.73c2.15,0,3.89-1.74,3.89-3.9v-69.95c0-28.45-10.03-55.99-28.32-77.78l-11.63-13.86,31.4-31.39c2.08-2.08,3.25-4.91,3.25-7.86s-1.17-5.77-3.25-7.86c-.1-.1-.2-.2-.3-.3-2.08-2.08-4.91-3.25-7.86-3.25s-5.77,1.17-7.85,3.25l-39.68,39.68h-61.86c-2.99,0-5.87,1.19-7.98,3.31-2.12,2.12-3.31,4.99-3.31,7.98h0c0,2.99,1.19,5.87,3.31,7.98,2.12,2.12,4.99,3.31,7.98,3.31h68.49ZM34.02,201.4H7.79v6.95h26.22v-6.95h0Zm181.68,0h-56.94v6.95h56.94v-6.95h0Zm-60.84-7.79h60.84v-7.25H7.79s0,7.25,0,7.25h147.06Zm.86-22.32H18.95c-2.96,0-5.8,1.18-7.89,3.27-1.15,1.15-2.02,2.52-2.57,4.01h143.66c1.02-2.54,2.22-4.97,3.58-7.28h0Zm44.39-18.75c-17.01.78-32.13,10.87-39.46,26.04h39.46c0-.09,0-.18,0-.27v-25.76h0Zm-22.11-96.35l-5.35,5.35,13.07,16.61c14.37,18.26,22.18,40.81,22.18,64.04v36.11c0,.09,0,.18,0,.27h7.8v-36.27c0-26.62-9.38-52.39-26.5-72.77l-11.19-13.33h0Zm-84.12-1.97h0c0-.93.37-1.82,1.02-2.47.66-.66,1.55-1.02,2.47-1.02h63.47c1.03,0,2.02-.41,2.76-1.14l40.82-40.82c.62-.62,1.47-.97,2.34-.97s1.72.35,2.35.97l.3.3c.62.62.97,1.47.97,2.35s-.35,1.72-.97,2.35c0,0-43.96,43.96-43.96,43.96h-68.07c-.93,0-1.82-.37-2.47-1.02-.66-.66-1.02-1.55-1.02-2.47h0Z"/>
  </g>
</svg>