<?xml version="1.0" encoding="UTF-8"?>
<svg id="Capa_2" data-name="Capa 2" xmlns="http://www.w3.org/2000/svg" viewBox="0 0 225.96 210.9">
  <defs>
    <style>
      .cls-1 {
        fill-rule: evenodd;
      }
    </style>
  </defs>
  <g id="Capa_1-2" data-name="Capa 1">
    <path class="cls-1" d="m36.66,105.81C15.35,113.03,0,133.2,0,156.94c0,29.78,24.18,53.96,53.96,53.96s53.96-24.18,53.96-53.96c0-23.73-15.35-43.91-36.66-51.12V3.9c0-2.15-1.74-3.9-3.9-3.9h-26.81c-2.15,0-3.9,1.74-3.9,3.9v101.92h0Zm118.04,0c-21.31,7.21-36.66,27.39-36.66,51.12,0,29.78,24.18,53.96,53.96,53.96s53.96-24.18,53.96-53.96c0-23.73-15.35-43.91-36.66-51.12V3.9c0-2.15-1.75-3.9-3.9-3.9h-26.81c-2.15,0-3.9,1.74-3.9,3.9v101.92h0Zm-83.44,8.31v9.11c12.22,6.29,20.58,19.03,20.58,33.7,0,20.91-16.97,37.88-37.88,37.88s-37.88-16.97-37.88-37.88c0-14.68,8.36-27.41,20.58-33.7v-9.11c-16.92,6.85-28.87,23.45-28.87,42.81,0,25.48,20.69,46.17,46.17,46.17s46.17-20.69,46.17-46.17c0-19.36-11.95-35.96-28.87-42.81h0Zm118.04,0v9.11c12.22,6.29,20.58,19.03,20.58,33.7,0,20.91-16.97,37.88-37.88,37.88s-37.88-16.97-37.88-37.88c0-14.68,8.36-27.41,20.58-33.7v-9.11c-16.92,6.85-28.87,23.45-28.87,42.81,0,25.48,20.69,46.17,46.17,46.17s46.17-20.69,46.17-46.17c0-19.36-11.95-35.96-28.87-42.81h0Zm-17.3,12.72c16.61,0,30.09,13.48,30.09,30.09s-13.48,30.09-30.09,30.09-30.09-13.48-30.09-30.09,13.48-30.09,30.09-30.09h0Zm-118.04,0c16.61,0,30.09,13.48,30.09,30.09s-13.48,30.09-30.09,30.09-30.09-13.48-30.09-30.09,13.48-30.09,30.09-30.09h0Zm9.51-15.1c-3.07-.64-6.25-.98-9.51-.98s-6.44.34-9.51.98v8.51c3.04-.79,6.23-1.21,9.51-1.21s6.47.42,9.51,1.21v-8.51h0Zm118.04,0c-3.07-.64-6.25-.98-9.51-.98s-6.44.34-9.51.98v8.51c3.04-.79,6.23-1.21,9.51-1.21s6.47.42,9.51,1.21v-8.51h0Zm0-7.94v-13.28h-19.02v13.28c3.09-.55,6.27-.84,9.51-.84s6.42.29,9.51.84h0Zm-118.04,0v-13.28h-19.02v13.28c3.09-.55,6.26-.84,9.51-.84s6.42.29,9.51.84h0Zm99.02-21.07h19.02V7.79h-19.02v74.96h0Zm-118.04,0h19.02V7.79h-19.02v74.96h0Z"/>
  </g>
</svg>