<?xml version="1.0" encoding="UTF-8"?>
<svg id="Capa_2" data-name="Capa 2" xmlns="http://www.w3.org/2000/svg" viewBox="0 0 30.33 49.19">
  <defs>
    <style>
      .cls-1 {
        fill: #2d3540;
      }
    </style>
  </defs>
  <g id="Layer_1" data-name="Layer 1">
    <g>
      <path class="cls-1" d="m18.73,18.78c-1.4-.06-3.03,1.3-3.56,2.61-.53-1.31-2.1-2.61-3.56-2.61-2.14,0-4.11,2.29-4.2,4.2-.01.23.04.49.09.72.06.25.14.57.28.91.71,1.75,2.18,2.82,3.5,4.09,1.31,1.26,2.56,2.57,3.89,3.81,1.33-1.24,2.59-2.55,3.89-3.81,1.32-1.27,2.79-2.34,3.5-4.09.14-.34.22-.66.28-.91.06-.23.09-.48.09-.72,0-2.13-2.29-4.12-4.2-4.2Z"/>
      <path class="cls-1" d="m27.51,10.02c-.46-2.66-1.04-5.31-1.75-7.93-.33-1.23-1.46-2.08-2.73-2.08H7.3c-1.28,0-2.4.85-2.73,2.08-.71,2.63-1.29,5.27-1.75,7.93-1.61.32-2.82,1.74-2.82,3.44v22.27c0,1.7,1.21,3.12,2.82,3.44.46,2.66,1.04,5.3,1.75,7.92.33,1.24,1.45,2.1,2.74,2.1h15.73c1.28,0,2.4-.85,2.73-2.08.71-2.63,1.29-5.27,1.75-7.93,1.61-.32,2.82-1.74,2.82-3.44V13.46c0-1.7-1.21-3.12-2.82-3.44Zm-.19,23.5c0,1.56-1.26,2.82-2.82,2.82H5.83c-1.56,0-2.82-1.26-2.82-2.82V15.67c0-1.56,1.26-2.82,2.82-2.82h18.68c1.56,0,2.82,1.26,2.82,2.82v17.85Z"/>
    </g>
  </g>
</svg>