<?xml version="1.0" encoding="UTF-8"?>
<svg id="Capa_2" data-name="Capa 2" xmlns="http://www.w3.org/2000/svg" viewBox="0 0 71.23 70.58">
  <defs>
    <style>
      .cls-1 {
        fill: #2d3540;
      }
    </style>
  </defs>
  <g id="Layer_1" data-name="Layer 1">
    <g>
      <path class="cls-1" d="m69.73,10.92c-1.01-.29-2.02-.56-3.04-.83l1.19-5.02c.37-1.56-.6-3.12-2.15-3.49-1.14-.27-2.28.17-2.95,1.04-.15-1.21-1.07-2.24-2.34-2.48-1.57-.3-3.09.74-3.39,2.31l-1.02,5.37c-1.08-.18-2.15-.35-3.23-.5-.31-.97-1.12-1.76-2.19-1.98-1.24-.25-2.45.33-3.06,1.35-3.96-.39-7.94-.58-11.93-.58h0c-3.98,0-7.96.19-11.92.58-.61-1.02-1.83-1.6-3.06-1.35-1.07.22-1.88,1-2.19,1.97-1.08.15-2.16.32-3.24.5l-1.04-5.47C13.87.79,12.35-.25,10.77.05c-1.26.24-2.18,1.26-2.33,2.47-.67-.87-1.82-1.32-2.96-1.05-1.56.37-2.52,1.93-2.15,3.49l1.22,5.13c-1.02.26-2.03.54-3.04.83-1.1.31-1.74,1.46-1.42,2.56.31,1.1,1.46,1.74,2.56,1.42.95-.27,1.9-.53,2.86-.78l1.25,5.28c.32,1.33,1.51,2.23,2.82,2.23.22,0,.45-.03.67-.08.91-.22,1.62-.84,1.98-1.63.52.46,1.2.73,1.92.73.18,0,.36-.02.54-.05,1.57-.3,2.61-1.82,2.31-3.39l-1.01-5.32c.98-.16,1.95-.31,2.93-.45l2.53,12.45c.17.83.69,1.55,1.44,1.96l8.6,4.77v14.11c0,.17.01.34.03.5-2.22,6.3-3.34,12.87-3.34,19.59v2.85c0,1.6,1.3,2.9,2.9,2.9s2.9-1.3,2.9-2.9v-2.85c0-4.57.58-9.07,1.72-13.45,1.28,4.6,1.92,9.35,1.92,14.2v2.1c0,1.6,1.3,2.9,2.9,2.9s2.9-1.3,2.9-2.9v-2.1c0-4.13-.44-8.28-1.3-12.32-.59-2.77-1.38-5.49-2.36-8.15.01-.12.02-.25.02-.38v-14.11l8.6-4.77c.74-.41,1.27-1.13,1.44-1.96l2.53-12.45c.98.14,1.96.29,2.94.45l-.99,5.23c-.3,1.57.74,3.09,2.31,3.39.18.03.36.05.54.05.73,0,1.41-.27,1.93-.74.36.79,1.06,1.41,1.97,1.62.22.05.45.08.67.08,1.31,0,2.5-.9,2.82-2.23l1.22-5.17c.95.25,1.91.51,2.86.78.19.05.38.08.57.08.9,0,1.73-.59,1.99-1.5.31-1.1-.32-2.25-1.42-2.56Zm-25.35,10.51l-6.41,3.55c-.07,0-.14,0-.21,0h-4.27c-.07,0-.14,0-.21,0l-6.41-3.55-2.16-10.65c7.27-.67,14.59-.67,21.86,0l-2.16,10.65Z"/>
      <circle class="cls-1" cx="35.62" cy="17.67" r="6.1"/>
    </g>
  </g>
</svg>