<?xml version="1.0" encoding="UTF-8"?>
<svg id="Capa_2" data-name="Capa 2" xmlns="http://www.w3.org/2000/svg" viewBox="0 0 188.59 212.79">
  <defs>
    <style>
      .cls-1 {
        fill-rule: evenodd;
      }
    </style>
  </defs>
  <g id="Capa_1-2" data-name="Capa 1">
    <path class="cls-1" d="m33.35,9.81H3.89c-2.15,0-3.89,1.74-3.89,3.9v44.5c0,25.13,20.37,45.5,45.5,45.5h1.58c7.47,9.14,17.53,16.08,29.07,19.69v4.26c0,10.78-2.51,21.4-7.31,31.04h-10.58c-6.7,0-12.13,5.43-12.13,12.13v16.1h-.83c-5.02,0-9.09,4.07-9.09,9.09v12.89c0,2.15,1.74,3.9,3.9,3.9h108.54c2.15,0,3.9-1.74,3.9-3.9v-12.89c0-5.02-4.07-9.09-9.09-9.09h-.83v-16.1c0-6.7-5.43-12.13-12.13-12.13h-11.38c-4.81-9.64-7.31-20.26-7.31-31.04v-4.01c11.87-3.53,22.24-10.58,29.88-19.93h1.4c12.07,0,23.64-4.79,32.17-13.33,8.53-8.53,13.33-20.11,13.33-32.18V13.7c0-2.15-1.74-3.9-3.9-3.9h-29.26V3.9c0-2.15-1.74-3.9-3.89-3.9H37.24c-2.15,0-3.9,1.74-3.9,3.9v5.91h0Zm111.42,186.2v8.99H44.01v-8.99c0-.72.58-1.3,1.3-1.3h98.15c.72,0,1.3.58,1.3,1.3h0Zm-9.92-9.09H53.94v-16.1c0-2.39,1.94-4.34,4.33-4.34h72.23c2.39,0,4.33,1.94,4.33,4.34v16.1h0Zm-50.89-61.64v2.38c0,10.7-2.22,21.27-6.5,31.04h33.08c-4.28-9.77-6.5-20.33-6.5-31.04v-2.24c-3.14.5-6.35.76-9.63.76h0c-3.56,0-7.04-.3-10.43-.89h0ZM147.64,7.79v57.33c0,29.41-23.84,53.25-53.25,53.25h0c-29.41,0-53.25-23.84-53.25-53.25V7.79h106.5Zm-114.29,9.81H7.79v40.61c0,19.49,14.79,35.53,33.76,37.51-5.22-8.99-8.21-19.44-8.21-30.59V17.6h0Zm122.08,0v47.53c0,11.14-2.98,21.58-8.19,30.57,8.47-.94,16.43-4.73,22.52-10.82,7.07-7.07,11.04-16.67,11.04-26.67V17.6h-25.37Zm-58.08,10.53c-.7-1.19-1.98-1.93-3.36-1.93s-2.66.73-3.36,1.93l-8.69,14.85s-16.81,3.68-16.81,3.68c-1.35.3-2.45,1.29-2.87,2.6-.43,1.32-.12,2.76.79,3.79l11.44,12.86-1.7,17.12c-.14,1.38.47,2.72,1.59,3.54,1.12.81,2.59.97,3.85.42l15.76-6.9s15.76,6.9,15.76,6.9c1.27.55,2.73.4,3.85-.42,1.12-.81,1.72-2.16,1.59-3.54l-1.69-17.12,11.44-12.86c.92-1.03,1.22-2.48.79-3.79-.43-1.32-1.52-2.31-2.87-2.6l-16.81-3.68s-8.69-14.85-8.69-14.85h0Zm-3.36,9.68l6.19,10.58c.55.94,1.47,1.6,2.53,1.84l11.98,2.62-8.15,9.16c-.72.81-1.07,1.89-.97,2.97l1.21,12.2-11.23-4.92c-1-.44-2.13-.44-3.13,0l-11.23,4.92,1.21-12.2c.11-1.08-.24-2.16-.97-2.97l-8.15-9.16,11.98-2.62c1.06-.23,1.98-.9,2.53-1.84l6.19-10.58h0Z"/>
  </g>
</svg>