<?xml version="1.0" encoding="UTF-8"?>
<svg id="Capa_2" data-name="Capa 2" xmlns="http://www.w3.org/2000/svg" viewBox="0 0 225.96 225.96">
  <defs>
    <style>
      .cls-1 {
        fill-rule: evenodd;
      }
    </style>
  </defs>
  <g id="Capa_1-2" data-name="Capa 1">
    <path class="cls-1" d="m112.98,0C50.62,0,0,50.62,0,112.98s50.62,112.98,112.98,112.98,112.98-50.62,112.98-112.98S175.33,0,112.98,0h0Zm0,7.79c58.05,0,105.19,47.13,105.19,105.19s-47.13,105.19-105.19,105.19S7.79,171.03,7.79,112.98,54.92,7.79,112.98,7.79h0Zm60.67,88.18c1.52,5.41,2.33,11.12,2.33,17.01,0,34.77-28.23,63-63,63-4.13,0-8.17-.4-12.08-1.16-2.11-.41-4.16.97-4.57,3.08-.41,2.11.97,4.16,3.08,4.57,4.39.85,8.93,1.3,13.57,1.3,39.07,0,70.79-31.72,70.79-70.79,0-6.62-.91-13.03-2.61-19.11-.58-2.07-2.73-3.28-4.8-2.7-2.07.58-3.28,2.73-2.7,4.8h0Zm-35.15-17.74c-4.2-3.54-8.78-6.19-14.31-6.26-7.4-.09-17.1,4.5-30.36,19.79-18.02,20.76-37.35,46.96-43.98,64.18-1.93,5.01-2.8,9.37-2.55,12.76.22,3.01,1.28,5.41,3.06,7.19,1.79,1.79,4.23,2.84,7.29,3.03,3.43.22,7.86-.72,12.93-2.7,17.53-6.85,44.11-26.46,63.92-43.81,15.22-13.32,19.81-23.01,19.74-30.39-.06-5.77-2.92-10.49-6.69-14.83l33.43-12.36c2.02-.74,3.05-2.99,2.3-5-.75-2.02-2.99-3.05-5-2.3l-22.29,8.23,18.71-18.71c1.52-1.52,1.52-3.99,0-5.51-1.52-1.52-3.99-1.52-5.51,0l-19.87,19.87,8.86-23.99c.75-2.02-.29-4.26-2.3-5.01-2.02-.74-4.26.29-5,2.3l-12.38,33.49h0Zm-21.6,58.8c4.34-3.5,8.54-7.04,12.47-10.48,12.52-10.97,17.14-18.37,17.08-24.45-.06-5.7-4.42-9.66-8.54-13.77-4.12-4.12-8.1-8.5-13.82-8.57-4.54-.06-9.81,2.5-16.73,9.03l14.7,14.7.4.41c2.74,2.97,1.4,5.06.49,5.98-.92.91-3.01,2.26-5.98-.49l-.28-.26-14.76-14.76c-.72.8-1.46,1.63-2.22,2.5-9.56,11.02-19.55,23.6-27.67,35.46l10.82,10.83c3.39,3.53,2.26,5.93,1.34,6.85-.92.92-3.31,2.05-6.84-1.34l-.21-.2-9.5-9.5c-4.62,7.25-8.32,14.03-10.54,19.79-1.21,3.16-1.97,5.95-2.07,8.28-.06,1.41.05,2.59.82,3.36.76.76,1.96.84,3.39.77,2.39-.12,5.25-.92,8.48-2.18,11.83-4.62,27.88-15.32,43.01-27.06l-13.35-13.35c-1.52-1.52-1.52-3.99,0-5.51,1.52-1.52,3.99-1.52,5.51,0l13.99,13.99h0Zm-65.76-11.98c-.76-3.91-1.16-7.95-1.16-12.07,0-34.77,28.23-63,63-63,5.93,0,11.66.82,17.1,2.35,2.07.58,4.22-.62,4.81-2.69.58-2.07-.62-4.22-2.69-4.81-6.11-1.72-12.55-2.64-19.21-2.64-39.07,0-70.79,31.72-70.79,70.79,0,4.64.45,9.17,1.3,13.56.41,2.11,2.46,3.49,4.57,3.08,2.11-.41,3.49-2.46,3.08-4.57h0Z"/>
  </g>
</svg>