<?xml version="1.0" encoding="UTF-8"?>
<svg id="Capa_2" data-name="Capa 2" xmlns="http://www.w3.org/2000/svg" viewBox="0 0 167.08 225.96">
  <defs>
    <style>
      .cls-1 {
        fill-rule: evenodd;
      }
    </style>
  </defs>
  <g id="Capa_1-2" data-name="Capa 1">
    <path class="cls-1" d="m17.39,107.86C6.49,121.98,0,139.67,0,158.87c0,26.99,12.83,51.01,32.71,66.28.68.52,1.52.81,2.37.81h96.91c.86,0,1.69-.28,2.37-.81,19.88-15.27,32.71-39.29,32.71-66.28,0-19.2-6.49-36.89-17.39-51.01l10.69-49.4c3.09-14.26-.45-29.15-9.61-40.51C141.61,6.6,127.8,0,113.21,0h-59.34c-14.59,0-28.4,6.6-37.56,17.96C7.15,29.31,3.62,44.2,6.7,58.46l10.69,49.4h0Zm19.03,110.3c-17.44-13.88-28.63-35.29-28.63-59.29,0-41.81,33.94-75.75,75.75-75.75s75.75,33.94,75.75,75.75c0,24-11.19,45.41-28.63,59.29,0,0-94.23,0-94.23,0h0Zm106.88-117.64l9.46-43.71c2.59-11.96-.37-24.44-8.06-33.97-7.68-9.52-19.26-15.06-31.49-15.06h-59.34c-12.23,0-23.81,5.54-31.49,15.06-7.68,9.52-10.64,22.01-8.06,33.97l9.46,43.71c4.15-4.26,8.76-8.07,13.73-11.36l-8.67-32.51c-2.14-8.01-.43-16.57,4.62-23.14,5.05-6.58,12.88-10.43,21.17-10.43h57.81c8.29,0,16.12,3.85,21.17,10.43,5.05,6.58,6.76,15.13,4.62,23.14l-8.67,32.51c4.98,3.29,9.58,7.11,13.73,11.36h0Zm-20.69-15.5l8.1-30.38c1.51-5.67.3-11.73-3.27-16.39-3.58-4.66-9.12-7.39-14.99-7.39h-57.81c-5.87,0-11.41,2.73-14.99,7.39-3.58,4.66-4.79,10.71-3.27,16.39l8.11,30.38c11.66-6.19,24.96-9.69,39.07-9.69s27.41,3.51,39.07,9.69h0Z"/>
  </g>
</svg>