<?xml version="1.0" encoding="UTF-8"?>
<svg id="Capa_2" data-name="Capa 2" xmlns="http://www.w3.org/2000/svg" viewBox="0 0 50.26 34.07">
  <defs>
    <style>
      .cls-1 {
        fill: #2d3540;
      }
    </style>
  </defs>
  <g id="Layer_1" data-name="Layer 1">
    <g>
      <path class="cls-1" d="m50.25,21.77l-.18-3.88-.1-2.15C49.56,6.64,41.85-.4,32.76.02l-2.15.1L9.77,1.64c-.37.03-.65.33-.65.7v15.37c0,.4.33.72.73.7,7.9-.36,15.81-.28,23.7.23,1.09-.05,2.02.79,2.07,1.89.07,1.48-.65,2.89-1.89,3.72-2.26,1.5-3.55,4.08-3.39,6.79.1,1.77,1.65,3.11,3.42,3.03l5.49-.25c6.36-.29,11.29-5.68,11-12.05Z"/>
      <path class="cls-1" d="m2.84,7.96h2.84c.43,0,.78-.35.78-.78V1.14c0-.23-.19-.42-.42-.42h-3.56c-.23,0-.42.19-.42.42v6.05c0,.43.35.78.78.78Z"/>
      <path class="cls-1" d="m7.78,1.15l-.8.04v5.99c0,.72-.58,1.3-1.3,1.3h-2.84c-.72,0-1.3-.58-1.3-1.3V1.48l-.87.05c-.37.02-.67.33-.67.7v16.44c0,.37.29.68.67.7l7.11.35c.4.02.74-.3.74-.7V1.85c0-.4-.34-.72-.74-.7Z"/>
      <path class="cls-1" d="m33.35,23.67c1.03-.68,1.64-1.87,1.58-3.11-.02-.34-.16-.66-.42-.89-.25-.23-.58-.35-.93-.34h-.04s-.04,0-.04,0c-3.36-.22-6.74-.35-10.13-.41,2.66,2.31,5.78,4.14,9.09,5.43.28-.24.57-.47.88-.68Z"/>
    </g>
  </g>
</svg>