<?xml version="1.0" encoding="UTF-8"?>
<svg id="Capa_2" data-name="Capa 2" xmlns="http://www.w3.org/2000/svg" viewBox="0 0 229.17 200.46">
  <g id="Layer_1" data-name="Layer 1">
    <g>
      <path d="m5.52,0v190.27H0v10h21.03v-10h-5.52v-23.08h162.18c2.99,0,5.42,2.43,5.42,5.42v17.66h-5.52v10h21.03v-10h-5.52v-17.66c0-8.5-6.92-15.42-15.42-15.42H15.52V52.99h16.17l4.01-5.13-3.15-2.46-2.81,3.59h-10.29v-16.57h-3.94V0H5.52Z"/>
      <path d="m67.52,115.43c-1.19-12.37-12.19-21.43-24.56-20.23-12.37,1.19-21.43,12.19-20.23,24.56.65,6.77,4.25,12.54,9.39,16.19h26.02c6.35-4.51,10.19-12.2,9.38-20.51Z"/>
      <path d="m79.34,124.49c-1.07-2.54-1.08-5.34-.04-7.88,1.02-2.5,2.94-4.45,5.4-5.53-2.77-1.19-5.37-2.71-7.74-4.51-2.84,2.14-4.76,5.48-4.96,9.31,0,.02,0,.05,0,.07-.02.12-.05.24-.07.36-.95,6.34,1.9,14.36,9.34,19.64h2.88l-4.81-11.45Z"/>
      <path d="m109.74,112.66v23.33c1.64.22,2.95,1.29,3.86,3.02,1.03-1.96,2.57-3.06,4.52-3.06h39.29c1.11-.89,2.02-1.82,2.77-2.81l30.19,1.63,14.17,56.25c1.43,5.67,6.52,9.45,12.11,9.45,1.01,0,2.04-.12,3.06-.38,6.69-1.69,10.75-8.48,9.07-15.17l-16.42-65.18c-1.34-5.31-5.98-9.13-11.45-9.43l-78.36-4.22c-3.76,2.97-8.09,5.23-12.81,6.58Z"/>
      <path d="m118.12,153.1h55.33c3.89,0,7.07-3.18,7.07-7.07h0c0-3.89-3.18-7.07-7.07-7.07h-55.33c-3.89,0-3.89,14.15,0,14.15Z"/>
      <path d="m109.74,145.61c.01.73-.06,1.47-.2,2.19-.02.12-.06.24-.09.35-.05.2-.1.41-.16.61-.05.17-.12.34-.18.51-.05.13-.09.26-.14.39,0,.02-.02.04-.03.05-.06.14-.13.27-.19.41-.08.18-.17.36-.26.54-.02.03-.04.07-.06.1-.48.87-1.07,1.65-1.76,2.33h2.4c3.66,0,3.88-12.5.66-14v6.52Z"/>
      <path d="m28.12,138.95c-3.89,0-7.07,3.18-7.07,7.07h0c0,3.89,3.18,7.07,7.07,7.07h64.09c-.95-.94-1.72-2.06-2.26-3.34l-4.54-10.81H28.12Z"/>
      <path d="m92.06,148.84c.14.35.32.68.51,1,.04.07.08.14.13.21.18.29.38.57.6.83.04.05.09.1.14.15.19.21.38.41.59.6.07.07.14.13.22.2.25.22.52.42.79.6.05.03.09.06.14.09,1.24.78,2.7,1.24,4.27,1.24,4.42,0,8-3.58,8-8v-32.52c-2.58.57-5.25.87-8,.87s-5.42-.31-8-.87v19.14l-2.3-4.87v-14.86c-.17-.05-.34-.09-.51-.15-.97.02-1.95.22-2.9.62-4.07,1.71-5.99,6.4-4.28,10.47l10.6,25.24Z"/>
      <path d="m99.44,111.12c18.98,0,34.36-15.38,34.36-34.36s-15.38-34.36-34.36-34.36-34.36,15.38-34.36,34.36,15.38,34.36,34.36,34.36Zm0-50.53c8.93,0,16.17,7.24,16.17,16.17s-7.24,16.17-16.17,16.17-16.17-7.24-16.17-16.17,7.24-16.17,16.17-16.17Z"/>
      <circle cx="99.44" cy="76.76" r="8.21" transform="translate(-6.1 144.88) rotate(-70.5)"/>
    </g>
  </g>
</svg>