<?xml version="1.0" encoding="UTF-8"?>
<svg id="Capa_2" data-name="Capa 2" xmlns="http://www.w3.org/2000/svg" viewBox="0 0 65.14 38.31">
  <defs>
    <style>
      .cls-1 {
        fill: #2d3540;
      }
    </style>
  </defs>
  <g id="Layer_1" data-name="Layer 1">
    <path class="cls-1" d="m64.62,12.22c-1.02-1.81-2.12-3.68-3.33-5.57-1.02-1.6-2.04-3.13-3.06-4.58-.32-.46-.72-.86-1.18-1.18-1.07-.76-2.4-1.04-3.69-.8,0,0-1.19.21-1.25.22l-1.69.39c-.32.07-.57.31-.67.61l-.83,2.6c-.07.21-.06.43.03.64l.07.17c.09.22.27.39.49.49.47.2,1.09.4,1.83.5.92.12,1.71.05,2.31-.07.33-.06.6-.31.7-.63.13-.41.25-.81.38-1.22.48.08.89.27,1.05.71.44,1.16.97,2.54,1.43,4.41.68,2.73-.38,3.32-1.71,2.93-.89-.48-2.09-.91-3.38-.66-1.88.36-2.95,1.41-2.95,1.41-.17.17-.33.36-.48.52-.36-.6-.84-1.11-.98-1.27-.37-.4-1.29-1.14-2.16-1.59-.89-.49-1.95-.79-2.93-.77-.91.01-1.68.29-2.28.61-1.16-.81-2.68-1.44-4.41-1.8-.35-.43-.69-.88-1.03-1.36-1.63.34-3.06.35-4.7,0-.34.48-.68.93-1.03,1.36-1.73.36-3.25.99-4.41,1.8-.6-.32-1.37-.6-2.28-.61-.98-.01-2.04.28-2.93.77-.86.46-1.79,1.2-2.16,1.59-.14.15-.62.67-.98,1.27-.15-.16-.3-.35-.48-.52,0,0-1.07-1.05-2.95-1.41-1.29-.24-2.49.18-3.38.66-1.32.39-2.39-.2-1.71-2.93.47-1.87.99-3.25,1.43-4.41.17-.44.57-.63,1.05-.71.13.41.25.81.38,1.22.1.32.37.56.7.63.6.12,1.39.19,2.31.07.74-.1,1.36-.3,1.83-.5.22-.09.39-.27.49-.49l.07-.17c.09-.2.1-.43.03-.64l-.83-2.6c-.1-.31-.35-.54-.67-.61l-1.69-.39c-.06-.01-1.25-.22-1.25-.22-1.29-.24-2.62.05-3.69.8-.46.32-.86.72-1.18,1.18-1.02,1.45-2.04,2.98-3.06,4.58-1.2,1.9-2.31,3.76-3.33,5.57-.99,1.77-.53,3.99,1.08,5.23,1.76,1.35,3.53,2.7,5.29,4.05h0c2.01,1.52,5.05,2,5.84,2.13,1.08.17,3.32.5,5.38-.69.32.02.66.09.96.23.88.41,1.02,1.32,1.71,3.17.97,2.61,1.46,3.91,2.4,4.64,1.06.82,1.87,1.68,2.12,2.89-.01.91-.27,1.21-.1,1.79.26.86,1.29,1.62,2.41,1.96,1.19.42,2.97.69,4.95.69s3.76-.27,4.95-.69c1.12-.34,2.14-1.1,2.41-1.96.18-.57-.08-.88-.1-1.79.25-1.21,1.06-2.07,2.12-2.89.94-.73,1.43-2.03,2.4-4.64.69-1.85.83-2.76,1.71-3.17.3-.14.64-.2.96-.23,2.06,1.19,4.3.86,5.38.69.8-.13,3.83-.6,5.84-2.13h0c1.76-1.35,3.53-2.7,5.29-4.05,1.61-1.23,2.07-3.46,1.08-5.23Zm-40.46,11.45c-.14-.02-.27-.04-.38-.06-.11-.03-.21-.05-.27-.08-.07-.02-.1-.04-.1-.04,0,0,.04-.02.1-.04.07-.02.16-.05.27-.08.11-.03.24-.05.38-.06.07,0,.14-.01.22-.02.07,0,.15,0,.22,0,.07,0,.15,0,.22,0,.07,0,.15,0,.22.02.14.02.27.04.38.06.11.03.21.05.27.08.07.02.1.04.1.04,0,0-.04.02-.1.04-.07.02-.16.05-.27.08-.11.03-.24.05-.38.06-.07,0-.14.01-.22.02-.07,0-.15,0-.22,0-.08,0-.15,0-.22,0-.07,0-.15,0-.22-.02Zm12.03,4.56c-.05,0-.13.03-.24.04-.2.03-.49.07-.84.11-.35.04-.75.07-1.19.09-.22.01-.44.02-.67.02-.13,0-.26,0-.4,0,0,.03,0,.06,0,.1,0,.18.01.35.02.53,0,.18,0,.36.01.55,0,.37,0,.74.01,1.12,0,.06,0,.12,0,.17.06,0,.13,0,.19,0,.17,0,.35.01.51.02.33.02.64.05.91.09.27.03.49.07.64.11.16.03.24.06.24.06,0,0-.09.02-.24.06-.16.03-.38.07-.64.11-.27.04-.58.07-.91.09-.17.01-.34.02-.51.02-.07,0-.13,0-.2,0,0,.13,0,.26,0,.39,0,.18,0,.37-.01.55,0,.18,0,.36-.02.53,0,.26-.02.5-.03.75.04,0,.08,0,.11,0,.13,0,.25.01.37.02.24.02.46.05.65.09.19.04.35.07.46.11.11.03.18.06.18.06,0,0-.06.02-.18.06-.11.03-.27.07-.46.11-.19.04-.41.07-.65.09-.12.01-.24.02-.37.02-.05,0-.1,0-.14,0-.01.22-.03.42-.04.62-.04.56-.09,1.03-.13,1.36-.02.16-.04.29-.05.38-.01.09-.02.13-.02.13,0,0,0-.05-.02-.13-.01-.09-.03-.22-.05-.38-.04-.33-.09-.8-.13-1.36-.01-.19-.03-.4-.04-.62-.05,0-.1,0-.14,0-.13,0-.25-.01-.37-.02-.24-.02-.46-.05-.65-.09-.19-.04-.35-.07-.46-.11-.11-.03-.18-.06-.18-.06,0,0,.06-.02.18-.06.11-.03.27-.07.46-.11.19-.04.41-.07.65-.09.12-.01.24-.02.37-.02.04,0,.07,0,.11,0-.01-.24-.02-.49-.03-.75,0-.18-.01-.35-.02-.53,0-.18,0-.36-.01-.55,0-.13,0-.26,0-.39-.07,0-.13,0-.2,0-.17,0-.35-.01-.51-.02-.33-.02-.64-.05-.91-.09-.27-.04-.49-.07-.64-.11-.16-.03-.24-.06-.24-.06,0,0,.09-.02.24-.06.16-.03.38-.07.64-.11.27-.04.58-.07.91-.09.17-.01.34-.02.51-.02.06,0,.13,0,.19,0,0-.06,0-.12,0-.17,0-.37,0-.75.01-1.12,0-.18,0-.37.01-.55,0-.18,0-.36.02-.53,0-.03,0-.07,0-.1-.13,0-.26,0-.4,0-.23,0-.45-.01-.67-.02-.43-.02-.84-.05-1.19-.09-.17-.02-.33-.04-.47-.05-.14-.02-.26-.04-.37-.05-.1-.01-.18-.03-.24-.04-.05-.01-.08-.02-.08-.02,0,0,.03,0,.08-.02.05,0,.13-.03.24-.04.1-.02.22-.04.37-.05.14-.02.3-.04.47-.05.35-.04.75-.07,1.19-.09.22-.01.44-.02.67-.02.14,0,.28,0,.42,0,.02-.45.05-.88.08-1.26.04-.56.09-1.03.13-1.36.02-.16.04-.29.05-.38.01-.09.02-.13.02-.13,0,0,0,.05.02.13.01.09.03.22.05.38.04.33.09.8.13,1.36.03.38.05.81.08,1.26.14,0,.28,0,.42,0,.23,0,.45.01.67.02.43.02.84.05,1.19.09.35.03.64.07.84.11.1.01.18.03.24.04.05.01.08.02.08.02,0,0-.03,0-.08.02Zm4.47-3.6s-.07.05-.12.08c-.11.07-.27.17-.49.27-.22.1-.49.22-.82.31-.16.05-.34.09-.53.12-.19.03-.4.05-.6.07-.41.02-.86.03-1.34,0-.24-.02-.49-.05-.74-.09-.25-.04-.51-.1-.77-.18-.26-.07-.52-.17-.77-.29-.26-.12-.51-.26-.74-.44-.48-.34-.89-.82-1.15-1.37,0-.01-.01-.02-.02-.04,0,.01-.01.02-.02.04-.27.55-.67,1.03-1.15,1.37-.24.17-.49.32-.74.44-.25.12-.51.22-.77.29-.26.08-.51.14-.77.18-.25.04-.5.07-.74.09-.48.04-.93.03-1.34,0-.21-.01-.41-.04-.6-.07-.19-.03-.37-.07-.53-.12-.33-.09-.6-.2-.82-.31-.22-.1-.38-.2-.49-.27-.05-.03-.09-.06-.12-.08-.03-.02-.04-.03-.04-.03,0,0,.06.02.18.06.12.04.3.1.52.16.23.06.51.11.82.15.16.02.33.03.51.03.18,0,.36,0,.56-.01.4-.03.83-.07,1.27-.15.22-.04.45-.08.67-.14.11-.03.23-.06.34-.09.11-.04.23-.07.34-.11.45-.16.88-.38,1.26-.67.38-.29.69-.66.89-1.09.1-.21.19-.44.24-.67.05-.23.09-.48.11-.71,0-.07,0-.13,0-.2v-.05s0-.02,0-.02h0s0-.02,0-.02v-.09c0-.12,0-.25-.01-.37-.01-.24-.05-.49-.08-.72-.08-.48-.2-.93-.35-1.35s-.31-.82-.5-1.17c-.02-.04-.04-.09-.07-.13-.02-.04-.05-.08-.07-.12-.05-.08-.09-.16-.14-.24-.1-.15-.18-.3-.28-.43-.18-.27-.35-.5-.5-.67-.08-.09-.15-.17-.2-.24-.06-.07-.12-.12-.16-.17-.09-.09-.13-.14-.13-.14,0,0,.06.04.16.11.05.04.12.08.2.13.07.06.16.12.25.2.19.15.41.35.64.59.06.06.12.13.17.19.06.07.12.14.18.21.06.08.12.15.18.23.03.04.06.08.09.12.03.04.06.08.09.13.24.34.46.74.66,1.18.1.21.19.44.27.67.08-.23.17-.46.27-.67.2-.44.42-.84.66-1.18.03-.04.06-.09.09-.13.03-.04.06-.08.09-.12.06-.08.12-.16.18-.23.06-.07.12-.14.18-.21.06-.07.11-.14.17-.19.23-.25.45-.44.64-.59.1-.08.18-.14.25-.2.08-.05.14-.09.2-.13.11-.07.16-.11.16-.11,0,0-.05.05-.13.14-.04.05-.1.1-.16.17-.06.07-.13.15-.2.24-.15.18-.32.41-.5.67-.09.13-.18.28-.28.43-.04.08-.09.16-.14.24-.02.04-.05.08-.07.12-.02.04-.04.09-.07.13-.18.35-.35.74-.5,1.17s-.27.88-.35,1.35c-.04.24-.07.48-.08.72-.01.12,0,.24-.01.37v.09s0,.01,0,.01h0s0,.03,0,.03v.05c0,.07,0,.13,0,.2.02.23.06.48.11.71.06.24.14.46.24.67.21.43.51.8.89,1.09.38.29.81.51,1.26.67.11.04.23.08.34.11.11.03.23.07.34.09.23.06.45.1.67.14.44.08.87.12,1.27.15.2.01.38.02.56.01.18,0,.35-.02.51-.03.32-.04.6-.09.82-.15.23-.06.4-.11.52-.16.12-.04.18-.06.18-.06,0,0-.01,0-.04.03Zm.97-1.1c-.07.02-.16.05-.27.08-.11.03-.24.05-.38.06-.07,0-.14.01-.22.02-.07,0-.15,0-.22,0-.07,0-.15,0-.22,0-.07,0-.15,0-.22-.02-.14-.02-.27-.04-.38-.06-.11-.03-.21-.05-.27-.08-.07-.02-.1-.04-.1-.04,0,0,.04-.02.1-.04.07-.02.16-.05.27-.08.11-.03.24-.05.38-.06.07,0,.14-.01.22-.02.07,0,.15,0,.22,0,.08,0,.15,0,.22,0,.07,0,.15,0,.22.02.14.02.27.04.38.06.11.03.21.05.27.08.07.02.1.04.1.04,0,0-.04.02-.1.04Z"/>
  </g>
</svg>