<?xml version="1.0" encoding="UTF-8"?>
<svg id="Capa_2" data-name="Capa 2" xmlns="http://www.w3.org/2000/svg" viewBox="0 0 217.44 224.86">
  <defs>
    <style>
      .cls-1 {
        fill-rule: evenodd;
      }
    </style>
  </defs>
  <g id="Capa_1-2" data-name="Capa 1">
    <path class="cls-1" d="m21.55,101h-9.87c-3.1,0-6.07,1.23-8.26,3.42-2.19,2.19-3.42,5.16-3.42,8.26v100.48c0,3.1,1.23,6.07,3.42,8.26,2.19,2.19,5.16,3.42,8.26,3.42h27.52c3.1,0,6.07-1.23,8.26-3.42,2.19-2.19,3.42-5.16,3.42-8.26v-100.48c0-3.1-1.23-6.07-3.42-8.26-2.19-2.19-5.16-3.42-8.26-3.42h-9.87v-23.72c0-34.04,24.48-62.36,56.79-68.33-10.94,8.2-18.03,21.27-18.03,35.98,0,24.8,20.13,44.93,44.93,44.93s44.93-20.13,44.93-44.93c0-12.63-5.23-24.06-13.63-32.22,25.64,10.23,43.76,35.28,43.76,64.57v23.72h-9.86c-3.1,0-6.07,1.23-8.26,3.42-2.19,2.19-3.42,5.16-3.42,8.26v100.48c0,3.1,1.23,6.07,3.42,8.26,2.19,2.19,5.16,3.42,8.26,3.42h27.52c3.1,0,6.07-1.23,8.26-3.42,2.19-2.19,3.42-5.16,3.42-8.26v-100.48c0-3.1-1.23-6.07-3.42-8.26-2.19-2.19-5.17-3.42-8.26-3.42h-9.86v-23.72c0-42.68-34.6-77.28-77.28-77.28h-19.78C56.15,0,21.55,34.6,21.55,77.28v23.72h0Zm188.1,29.71v82.46c0,1.03-.41,2.02-1.14,2.75-.73.73-1.72,1.14-2.75,1.14h-27.52c-1.03,0-2.02-.41-2.75-1.14-.73-.73-1.14-1.72-1.14-2.75v-82.46h35.31Zm-166.55,0v82.46c0,1.03-.41,2.02-1.14,2.75-.73.73-1.72,1.14-2.76,1.14H11.69c-1.03,0-2.02-.41-2.76-1.14-.73-.73-1.14-1.72-1.14-2.75v-82.46h35.31Zm166.55-7.79h-35.31v-10.23c0-1.03.41-2.02,1.14-2.76s1.72-1.14,2.75-1.14h27.52c1.03,0,2.02.41,2.75,1.14.73.73,1.14,1.72,1.14,2.76v10.23h0Zm-166.55,0H7.79v-10.23c0-1.03.41-2.02,1.14-2.76.73-.73,1.72-1.14,2.76-1.14h27.52c1.03,0,2.02.41,2.76,1.14.73.73,1.14,1.72,1.14,2.76v10.23h0ZM113.03,7.79c20.5,0,37.14,16.64,37.14,37.14s-16.64,37.14-37.14,37.14-37.14-16.64-37.14-37.14S92.54,7.79,113.03,7.79h0Z"/>
  </g>
</svg>