<?xml version="1.0" encoding="UTF-8"?>
<svg id="Capa_2" data-name="Capa 2" xmlns="http://www.w3.org/2000/svg" viewBox="0 0 206.54 202.73">
  <g id="Layer_1" data-name="Layer 1">
    <g>
      <path d="m44.9,117.5c-1.19-12.37-12.19-21.43-24.56-20.23C7.97,98.46-1.09,109.45.11,121.82c.75,7.74,5.33,14.19,11.69,17.63h21.41c7.71-4.18,12.58-12.68,11.69-21.96Z"/>
      <path d="m137.55,135.21l30.19,1.63.92,3.66c3.34,1.64,5.64,5.07,5.64,9.03,0,2.18-.71,4.2-1.89,5.85l9.5,37.69c1.43,5.67,6.52,9.45,12.11,9.45,1.01,0,2.04-.12,3.06-.38,6.69-1.69,10.75-8.48,9.07-15.17l-16.42-65.18c-1.34-5.31-5.98-9.13-11.45-9.43l-94.62-5.09-3.79,13.41c-1.25,4.42-5.32,7.5-9.91,7.5-.94,0-1.89-.13-2.8-.39-2.65-.75-4.85-2.48-6.19-4.88-1.34-2.4-1.67-5.18-.93-7.83l12.47-44.19-3.2-43.01c-.2-2.74.67-5.4,2.47-7.49.03-.04.07-.07.1-.11-2.74,1.24-4.67,3.97-4.71,7.18l-.2,14.67-6.9-2.49c-1.52-.55-3.21.25-3.75,1.76l-2.16,5.98c-.55,1.52.25,3.2,1.76,3.75l10.87,3.92-.22,15.94-16.22,42.68c-.57,1.32-.93,2.75-1.01,4.26,0,.02,0,.05,0,.07-.02.12-.05.24-.07.36-1.04,6.95,2.48,15.91,11.6,21.08h71.81c2.1-1.29,3.68-2.71,4.85-4.25Z"/>
      <path d="m79.62,16.83c1.16,0,2.27.21,3.32.57l.36-1,7.5,2.7c1.52.55,3.21-.25,3.75-1.76l2.16-5.98c.55-1.52-.25-3.21-1.76-3.75L74.33.17c-1.52-.55-3.21.25-3.75,1.76l-2.16,5.98c-.55,1.52.25,3.2,1.76,3.75l7.5,2.7-1.05,2.9c.71-.21,1.45-.36,2.21-.41.26-.02.52-.03.78-.03Z"/>
      <path d="m71.63,27.72l3.23,43.42-12.58,44.58c-1.2,4.25,1.27,8.67,5.53,9.87.73.21,1.46.3,2.18.3,3.49,0,6.7-2.3,7.7-5.83l12.96-45.93c.25-.9.35-1.84.28-2.77l-3.33-44.82c-.33-4.41-4.16-7.72-8.57-7.38-4.41.33-7.71,4.17-7.38,8.57Z"/>
      <path d="m151.66,162.3l6.03,30.43h-4.8v10h19.02v-10h-4.03l-6.56-33.13-.59-3h3.51c3.89,0,7.07-3.18,7.07-7.07s-3.18-7.07-7.07-7.07H10.73c-3.89,0-7.07,3.18-7.07,7.07s3.18,7.07,7.07,7.07h3.51l-.59,3-6.56,33.13H3.05v10h19.02v-10h-4.8l6.03-30.43h128.36Z"/>
    </g>
  </g>
</svg>