<?xml version="1.0" encoding="UTF-8"?>
<svg id="Capa_2" data-name="Capa 2" xmlns="http://www.w3.org/2000/svg" viewBox="0 0 172.15 225.96">
  <defs>
    <style>
      .cls-1 {
        fill-rule: evenodd;
      }
    </style>
  </defs>
  <g id="Capa_1-2" data-name="Capa 1">
    <path class="cls-1" d="m25.32,153.26c-1.67,2.09-2.66,4.74-2.66,7.62h0v54.57c0,2.79,1.11,5.46,3.08,7.43,1.97,1.97,4.64,3.08,7.43,3.08h95.85c2.79,0,5.46-1.11,7.43-3.08,1.97-1.97,3.08-4.64,3.08-7.43v-56.06c0-2.2-.66-4.25-1.8-5.96l14.8-8.18c12.11-6.69,19.62-19.44,19.62-33.27v-49.67c0-15.26-12.37-27.63-27.63-27.63h-2.5C139.49,15.12,122.77,0,102.51,0h-50.66c-13.75,0-26.94,5.46-36.66,15.19C5.46,24.91,0,38.1,0,51.85v57.8c0,15.36,7.17,29.84,19.38,39.16,2.36,1.8,4.38,3.3,5.94,4.44h0Zm106.42,51.96v10.23c0,.72-.29,1.41-.8,1.92s-1.2.8-1.92.8H33.17c-.72,0-1.41-.29-1.92-.8s-.8-1.2-.8-1.92v-10.23h101.29Zm0-7.79H30.45v-36.55c0-2.45,1.99-4.44,4.44-4.44h93.9c1.63,0,2.95,1.32,2.95,2.95v38.03h0Zm10.61-154.94v48.13c0,2.15-1.75,3.9-3.9,3.9s-3.9-1.74-3.9-3.9v-50.77c0-17.69-14.34-32.04-32.04-32.04h-50.66c-11.69,0-22.89,4.64-31.15,12.91-8.26,8.26-12.91,19.47-12.91,31.16v57.8c0,12.93,6.03,25.12,16.31,32.96,4.11,3.14,7.16,5.33,8.45,6.25.76-.15,1.54-.22,2.33-.22h93.9c.46,0,.91.03,1.35.08l18.63-10.3c9.62-5.32,15.6-15.45,15.6-26.45v-49.67c0-10.96-8.88-19.84-19.84-19.84h-2.17Z"/>
  </g>
</svg>