<?xml version="1.0" encoding="UTF-8"?>
<svg id="Capa_2" data-name="Capa 2" xmlns="http://www.w3.org/2000/svg" viewBox="0 0 225.96 75.28">
  <defs>
    <style>
      .cls-1 {
        fill-rule: evenodd;
      }
    </style>
  </defs>
  <g id="Capa_1-2" data-name="Capa 1">
    <path class="cls-1" d="m37.64,0C16.87,0,0,16.86,0,37.64s16.87,37.64,37.64,37.64h150.68c9.98,0,19.55-3.96,26.61-11.02,7.06-7.06,11.02-16.63,11.02-26.61h0c0-9.99-3.96-19.56-11.02-26.62-7.06-7.06-16.63-11.02-26.61-11.02H37.64Zm0,7.79c16.47,0,29.85,13.37,29.85,29.85s-13.37,29.85-29.85,29.85S7.79,54.11,7.79,37.64,21.17,7.79,37.64,7.79h0Zm22.92,0c8.95,6.88,14.72,17.7,14.72,29.85s-5.77,22.96-14.72,29.85h16.52c16.48,0,29.84-13.36,29.84-29.84h0c0-16.49-13.36-29.85-29.84-29.85h-16.52Zm39.45,0c8.94,6.88,14.7,17.69,14.7,29.84h0c0,12.16-5.76,22.97-14.7,29.85h16.69c16.48,0,29.84-13.36,29.84-29.84h0c0-16.49-13.36-29.85-29.84-29.85h-16.69Zm39.62,0c8.94,6.88,14.7,17.69,14.7,29.84h0c0,12.16-5.76,22.97-14.7,29.85h13.72c16.48,0,29.84-13.36,29.84-29.84h0c0-16.49-13.36-29.85-29.84-29.85h-13.72Zm36.65,0c8.94,6.88,14.7,17.69,14.7,29.84h0c0,12.16-5.76,22.97-14.7,29.85h12.04c7.91,0,15.5-3.14,21.1-8.74,5.6-5.6,8.74-13.19,8.74-21.1h0c0-7.92-3.14-15.52-8.74-21.11-5.6-5.6-13.19-8.74-21.1-8.74h-12.04ZM37.64,14.69c-12.67,0-22.95,10.28-22.95,22.95s10.28,22.95,22.95,22.95,22.95-10.28,22.95-22.95-10.28-22.95-22.95-22.95h0Zm0,7.79c8.36,0,15.16,6.79,15.16,15.16s-6.79,15.16-15.16,15.16-15.16-6.79-15.16-15.16,6.79-15.16,15.16-15.16h0Z"/>
  </g>
</svg>