<?xml version="1.0" encoding="UTF-8"?>
<svg id="Capa_2" data-name="Capa 2" xmlns="http://www.w3.org/2000/svg" viewBox="0 0 230.12 162.86">
  <g id="Layer_1" data-name="Layer 1">
    <g>
      <path d="m67.32,18.69c-.07-.41-.11-.83-.11-1.25,0-4.15,3.36-7.52,7.52-7.52,1.38,0,2.66.38,3.77,1.02,2.28-2.62,5.22-4.64,8.55-5.83-3.15-3.15-7.51-5.11-12.33-5.11-7.14,0-13.26,4.29-15.96,10.43,3.51,2.03,6.43,4.85,8.56,8.25Z"/>
      <path d="m74.73,34.86c.55,0,1.09-.03,1.63-.08-1.75-2.93-2.79-6.32-2.88-9.95-1.62-.27-3.06-1.06-4.15-2.19.11.27.24.53.34.8,1.29,3.58,1.74,7.33,1.35,11,1.2.26,2.44.41,3.72.41Z"/>
      <path d="m72.01,17.43c0,1.22.81,2.24,1.91,2.58.39-1.8,1.02-3.5,1.85-5.09-.32-.13-.67-.21-1.04-.21-1.5,0-2.72,1.22-2.72,2.72Z"/>
      <path d="m45.81,54.37c8.64.19,16.99-4.62,20.89-12.94,5.28-11.25.44-24.65-10.81-29.93-11.25-5.28-24.65-.44-29.93,10.81-3.16,6.74-2.69,14.24.61,20.32.8.26,1.59.6,2.33,1.08l16.91,10.66Z"/>
      <path d="m104.02,88.68c-.02.12-.06.24-.09.35-.05.2-.1.41-.16.61-.05.17-.12.34-.18.51-.05.13-.09.26-.14.39,0,.02-.02.04-.03.05-.01.03-.02.05-.03.08l12.87,8.11c.58.37,1.04.82,1.4,1.36.91-.91,2.03-1.41,3.33-1.41h55.33c4.05,0,7.54,2.41,9.14,5.86h.14s20.46,49.61,20.46,49.61c1.99,4.82,6.65,7.74,11.56,7.74,1.59,0,3.2-.3,4.76-.95,6.38-2.63,9.42-9.94,6.79-16.32l-23.49-56.97c-1.85-4.49-6.14-7.5-11-7.72l-53.99-2.42c-1.09-.5-2.3-1.01-3.65-1.55-12.64-3.98-23.34-14.43-32.83-22.89v33.36c.01.73-.06,1.47-.2,2.19Z"/>
      <path d="m77.62,74.42l-3.8-9.05c-1.07-2.54-1.08-5.34-.04-7.88,1.04-2.55,3.01-4.54,5.55-5.6,1.27-.53,2.61-.81,3.98-.81.11,0,.21,0,.31.01v-9.11c-.96-.56-1.88-1.18-2.73-1.88-.1,0-.21-.01-.31-.01v-.26c-.81-.7-1.57-1.47-2.27-2.29-1.17.21-2.36.33-3.58.33-1.45,0-2.86-.16-4.22-.44-.39,1.7-.96,3.37-1.72,4.99-1.2,2.55-2.82,4.83-4.74,6.79l-.89,16.1,14.47,9.12Z"/>
      <path d="m15.52,135.2c0-2.99,2.43-5.42,5.42-5.42h155c2.99,0,5.42,2.43,5.42,5.42v17.66h-5.52v10h21.03v-10h-5.52v-17.66c0-8.5-6.92-15.42-15.42-15.42H53.48l14.47-27.64,1.4-2.67,37.76,23.8c3.29,2.08,10.86-9.87,7.57-11.95l-12.83-8.09c-1,1.2-2.26,2.16-3.73,2.81-.06.03-.12.06-.19.09,0,0,0,0-.01,0-.11.05-.23.08-.35.13-.2.08-.39.15-.6.22-.22.07-.45.12-.67.17-.1.02-.2.06-.31.08-.68.14-1.36.21-2.06.21-4.16,0-7.89-2.48-9.5-6.31l-4.78-11.39L27.3,46.25c-3.29-2.08-7.68-1.1-9.76,2.19s-1.1,7.68,2.19,9.76l41.13,25.92-1.4,2.67-17.27,32.99h-21.26c-8.5,0-15.42,6.92-15.42,15.42v17.66H0v10h21.03v-10h-5.52v-17.66Z"/>
      <path d="m121,115.88h55.33c3.89,0,7.07-3.18,7.07-7.07h0c0-3.89-3.18-7.07-7.07-7.07h-55.33c-3.89,0-3.89,14.15,0,14.15Z"/>
      <path d="m93.88,44.77c-2.82,0-5.51-.58-7.96-1.61v30.1l-2.3-4.87v-15c-1.13-.05-2.29.14-3.41.61-4.07,1.71-5.99,6.4-4.28,10.47l10.6,25.24c.15.35.32.68.51,1,.04.07.08.14.13.21.18.29.38.57.6.83.04.05.09.1.14.15.19.21.38.41.59.6.07.07.14.13.22.2.25.22.52.42.79.6.05.03.09.06.14.09,1.24.78,2.7,1.24,4.27,1.24,4.42,0,8-3.58,8-8v-43.53c-2.47,1.06-5.19,1.65-8.04,1.65Z"/>
      <path d="m76.45,24.34c0,9.63,7.8,17.43,17.43,17.43s17.43-7.8,17.43-17.43-7.8-17.43-17.43-17.43-17.43,7.8-17.43,17.43Zm17.43,7.52c-4.15,0-7.52-3.36-7.52-7.52s3.36-7.52,7.52-7.52,7.52,3.36,7.52,7.52-3.36,7.52-7.52,7.52Z"/>
      <path d="m93.88,21.62c-1.5,0-2.72,1.22-2.72,2.72s1.22,2.72,2.72,2.72,2.72-1.22,2.72-2.72-1.22-2.72-2.72-2.72Z"/>
    </g>
  </g>
</svg>