<?xml version="1.0" encoding="UTF-8"?>
<svg id="Capa_2" data-name="Capa 2" xmlns="http://www.w3.org/2000/svg" viewBox="0 0 59.36 63.12">
  <defs>
    <style>
      .cls-1 {
        fill: #2d3540;
      }
    </style>
  </defs>
  <g id="Layer_1" data-name="Layer 1">
    <g>
      <circle class="cls-1" cx="32.87" cy="5.28" r="5.28"/>
      <path class="cls-1" d="m58.71,15.6c-1.01-1.24-2.84-1.43-4.08-.42l-4.42,3.59c-1.27,1.03-2.27,2.38-2.88,3.91-.61,1.52-.82,3.19-.61,4.81l3.73,28.89c.04.33-.11.55-.2.66s-.3.28-.63.28H12.18l31.51-2.08c1.6-.11,2.81-1.49,2.7-3.08-.11-1.6-1.49-2.81-3.08-2.7l-35.41,2.33c-4.42.29-7.89,3.99-7.89,8.43,0,1.6,1.3,2.9,2.9,2.9h46.73c1.91,0,3.72-.82,4.98-2.26,1.26-1.43,1.84-3.34,1.59-5.23l-3.73-28.89c-.17-1.33.35-2.63,1.39-3.48l4.42-3.59c1.24-1.01,1.43-2.84.42-4.08Z"/>
      <path class="cls-1" d="m8.76,42.71c.25,0,.5-.03.76-.11l10.25-2.49c1.24-.17,2.39-.89,3.06-2.06l2.78-4.91,4.21,4.74c.19.22.4.41.62.57,0,0,.01.02.02.03l1.71,8.39c.13,1.41,1.32,2.48,2.72,2.48.09,0,.17,0,.26-.01,1.5-.14,2.61-1.48,2.46-2.98l-.56-11.03c.05-1.04-.29-2.1-1.04-2.94l-3.94-4.43c.19-.36.4-.89.56-1.31l-3.9.59c-.15.02-.31.03-.47.03-.07,0-.84.03-1.14-.05-1.58-.43-2.84-1.66-3-3.29l-.52-5.18c-.02-.15.09-.3.24-.32.16-.02.31.1.32.25l.52,5.17c.13,1.28,1.04,2.33,2.29,2.62.19.04.6.09.83.11.06,0,.13,0,.19,0,.05,0,.09,0,.14,0,.15,0,.53,0,1.1-.06l8.99-1.35c1.62-.24,2.71-1.33,2.47-2.94-.24-1.61-1.08-2.16-2.7-1.92l-7.76.85-.36-3.55c-.02-.18.14-.33.32-.31h.07c.13.03.23.13.25.26l.29,2.84,2.53-.26c-.1-1.69-.41-3.44-.85-4.83-1.05-3.31-3.06-5.5-5.69-6.23-.21-.07-.42-.12-.65-.15,0,0-.02,0-.03,0-.03,0-.06,0-.08,0-3.14-.26-5.88,2.09-6.11,5.23l-.37,5.08c0,.2,0,.4,0,.6-.02,1.27-.03,2.46-.13,3.48-.17,1.89-.26,3.23-.18,4.3l-3.61,6.37c-.06.1-.11.2-.16.31l-7.46,3.08c-1.45.42-2.29,1.93-1.87,3.38.34,1.2,1.44,1.98,2.63,1.98Z"/>
      <path class="cls-1" d="m16.29,24.74l2.51,1.8c.01-.91.09-1.98.21-3.28.09-1,.11-2.19.12-3.44v-.63s.38-5.08.38-5.08c.06-.78.26-1.52.59-2.2l-4.64,5.15c-.99,1.1-1.46,2.56-1.3,4.03.16,1.47.94,2.8,2.13,3.66Z"/>
    </g>
  </g>
</svg>