<?xml version="1.0" encoding="UTF-8"?>
<svg id="Capa_2" data-name="Capa 2" xmlns="http://www.w3.org/2000/svg" viewBox="0 0 175.04 225.96">
  <defs>
    <style>
      .cls-1 {
        fill-rule: evenodd;
      }
    </style>
  </defs>
  <g id="Capa_1-2" data-name="Capa 1">
    <path class="cls-1" d="m106.71,53.51L77.57,1.98c-.64-1.12-1.79-1.86-3.08-1.97-1.29-.1-2.54.44-3.35,1.44,0,0-32.26,40.16-53.28,85.28C3.49,117.57-5.4,150.71,3.67,175.38c13.18,35.83,43.55,50.57,88.16,50.57s68.48-23.59,77.84-45.5c10-23.42,4.77-52.11-5.43-78.08-14.93-38.02-40.18-70.12-40.18-70.12-.82-1.04-2.1-1.59-3.42-1.47-1.31.12-2.48.9-3.09,2.07l-10.85,20.66h0Zm-17.83,164.63c-1.73-.03-3.44-.08-5.12-.15-12.84-1.22-24.39-8.66-30.77-20.05-8.57-15.29-4.24-33.96,3.59-50.9,9.58-20.69,24.69-38.86,30.92-45.9,6.21,7.08,21.28,25.35,30.85,46.07,7.83,16.95,12.18,35.59,3.69,50.72-6.78,12.1-19.37,19.73-33.16,20.2h0Zm28.22-3.09c24.62-6.56,38.91-22.44,45.41-37.66,9.25-21.66,3.91-48.15-5.52-72.17-11.09-28.25-28.04-53.12-35.41-63.28l-11.3,21.52c-.66,1.26-1.96,2.06-3.39,2.08-1.43.02-2.75-.74-3.45-1.98,0,0-29.78-52.66-29.78-52.66-8.84,11.61-32.3,43.81-48.75,79.13-13.41,28.78-22.4,59.62-13.93,82.66,8.15,22.15,23.67,35.16,45.5,41.24-4.08-3.28-7.58-7.34-10.3-12.19-9.75-17.4-5.6-38.71,3.32-57.98,12.84-27.73,35.19-51.12,35.19-51.12.74-.77,1.76-1.21,2.83-1.2,1.07,0,2.09.44,2.82,1.22,0,0,22.26,23.54,35.08,51.29,8.91,19.3,13.07,40.57,3.42,57.8-3.03,5.42-7.04,9.85-11.74,13.3h0Z"/>
  </g>
</svg>