<?xml version="1.0" encoding="UTF-8"?>
<svg id="Capa_2" data-name="Capa 2" xmlns="http://www.w3.org/2000/svg" viewBox="0 0 41.2 49.3">
  <defs>
    <style>
      .cls-1 {
        fill: #2d3540;
      }
    </style>
  </defs>
  <g id="Layer_1" data-name="Layer 1">
    <path class="cls-1" d="m32.49,15.37c.45-2.49.91-5.05,1.4-7.75.44-2.43-1.09-5.07-3.48-6.03l-.22-.08C23.65-.5,17.55-.5,11,1.51l-.22.08c-2.4.95-3.93,3.6-3.48,6.02.46,2.53.92,5.09,1.38,7.64C3.54,18.71,0,24.36,0,30.87c0,10.95,10.08,18.53,20.6,18.43,10.3-.1,20.6-7.41,20.6-18.43,0-6.54-3.59-12.07-8.7-15.51ZM4.88,26.03c-1.69-.3-.97-3.05-.44-3.92.53-.87,2.62-2.79,3.68-1.44.71.91.03,2.49-.5,3.36-.52.87-1.6,2.21-2.74,2.01Zm4.48,1.84c-.22.71-.75,1.84-1.59,1.9-1.25.08-1.21-1.99-.99-2.7.22-.71,1.37-2.43,2.36-1.66.66.52.45,1.76.23,2.47Zm4.63-15.21c-.35-1.94-.7-3.87-1.05-5.8,5.28-1.57,10.03-1.57,15.31,0-.37,2.04-.73,3.99-1.07,5.9-2.11-.71-4.34-1.1-6.58-1.12-2.27-.02-4.5.34-6.6,1.02Zm23.72,20.49c-.12.69-.29,1.41-.52,2.11-.23.71-.51,1.41-.85,2.08-.35.67-.76,1.31-1.21,1.9-.12.15-.23.29-.35.44-.12.14-.24.27-.36.4l-.09.1-.04.05h0s0,.02,0,.02h-.01s-.02.04-.02.04c-.06.06-.13.13-.19.19-.06.06-.13.13-.19.19l-.1.09-.1.09c-.13.12-.27.23-.4.35-.13.11-.27.21-.41.32-.07.05-.13.1-.2.15-.07.05-.14.09-.21.14s-.14.09-.21.14l-.1.07s-.07.04-.1.06c-.14.08-.28.17-.41.25-.14.08-.28.15-.41.22-.07.04-.13.07-.2.11-.07.03-.13.06-.2.1-.07.03-.13.06-.2.09-.03.02-.07.03-.1.05-.03.01-.07.03-.1.04-.52.23-1.01.39-1.45.52-.44.13-.83.22-1.15.28-.16.03-.31.05-.43.08-.13.02-.23.03-.32.05-.17.02-.27.03-.27.03-.06,0-.11-.03-.11-.09,0-.04.02-.08.05-.1l.03-.02s.02-.01.06-.04c.04-.02.1-.06.19-.1.08-.05.18-.1.29-.16.06-.03.12-.07.18-.1.06-.04.13-.07.2-.11.29-.16.63-.36,1-.6.09-.06.19-.12.28-.18.05-.03.1-.06.15-.09.05-.03.1-.07.15-.1.1-.07.2-.14.31-.21.1-.07.2-.15.31-.23.11-.08.21-.16.32-.24.05-.04.11-.08.16-.12.05-.04.1-.09.16-.13.1-.09.21-.17.32-.26.1-.09.21-.19.32-.28.03-.02.05-.05.08-.07.03-.03.05-.05.08-.08.05-.05.1-.1.16-.15.05-.05.11-.1.16-.15.05-.05.1-.1.15-.16.05-.05.1-.11.15-.16.05-.05.11-.1.16-.16.1-.11.2-.22.3-.33l.08-.08.07-.09c.05-.06.1-.12.15-.18.05-.06.1-.12.15-.18l.02-.02h0s0-.02,0-.02c0,0-.06.07-.03.03l.04-.05.08-.11c.06-.07.11-.14.17-.21l.08-.11.04-.05.02-.03v-.02c.09-.12.17-.23.26-.35.02-.03.04-.06.06-.09l.06-.1.13-.2.13-.2.12-.2c.16-.27.31-.55.46-.83.3-.56.55-1.16.78-1.76.23-.6.43-1.21.61-1.82.18-.61.32-1.21.46-1.8.04-.15.07-.29.1-.43.03-.14.06-.29.09-.43.06-.28.11-.56.16-.82.02-.13.05-.26.07-.39.02-.13.04-.25.06-.38.05-.25.08-.48.12-.7.07-.45.13-.85.19-1.17.02-.16.05-.31.07-.44.02-.13.04-.24.05-.33.03-.18.04-.28.04-.28v-.04c.01-.05.07-.09.12-.08.04,0,.07.04.08.07,0,0,.02.09.06.26.04.17.09.42.15.75.05.32.11.72.16,1.17.05.45.1.97.11,1.53.02.56.01,1.17-.02,1.82-.04.64-.1,1.32-.23,2.02Z"/>
  </g>
</svg>