<?xml version="1.0" encoding="UTF-8"?>
<svg id="Capa_2" data-name="Capa 2" xmlns="http://www.w3.org/2000/svg" viewBox="0 0 44.58 44.58">
  <defs>
    <style>
      .cls-1 {
        fill: #2d3540;
      }
    </style>
  </defs>
  <g id="Layer_1" data-name="Layer 1">
    <g>
      <path class="cls-1" d="m.54,21.06h10.22c.31,0,.55-.25.54-.56-.22-5.62-1.49-10.73-3.38-14.44-.16-.32-.58-.4-.84-.15C3.09,9.61.46,14.74,0,20.48c-.02.31.22.58.53.58Z"/>
      <path class="cls-1" d="m20.48,0c-3.87.31-7.46,1.6-10.52,3.63-.23.15-.31.46-.17.71.14.25.28.52.41.78,2.1,4.19,3.35,9.61,3.56,15.42.01.29.25.52.54.52h6.24c.3,0,.54-.24.54-.54V.54c0-.31-.27-.56-.58-.53Z"/>
      <path class="cls-1" d="m33.82,21.06h10.22c.31,0,.56-.27.53-.58-.46-5.74-3.09-10.88-7.07-14.57-.26-.24-.68-.16-.84.15-1.89,3.71-3.16,8.82-3.38,14.44-.01.3.23.56.54.56Z"/>
      <path class="cls-1" d="m24.05,21.06h6.24c.29,0,.52-.23.53-.52.21-5.81,1.45-11.23,3.56-15.42.13-.27.27-.53.41-.78.13-.24.06-.55-.17-.71C31.56,1.61,27.97.31,24.1,0c-.31-.02-.58.22-.58.53v19.99c0,.3.24.54.54.54Z"/>
      <path class="cls-1" d="m34.38,39.46c-2.1-4.19-3.35-9.61-3.56-15.42-.01-.29-.25-.52-.53-.52h-6.24c-.3,0-.54.24-.54.54v19.99c0,.31.27.56.58.53,3.87-.31,7.46-1.6,10.52-3.63.23-.15.31-.46.17-.71-.14-.25-.28-.52-.41-.78Z"/>
      <path class="cls-1" d="m10.76,23.52H.54c-.31,0-.56.27-.53.58.46,5.74,3.09,10.88,7.07,14.57.26.24.68.16.84-.15,1.89-3.71,3.16-8.82,3.38-14.44.01-.3-.23-.56-.54-.56Z"/>
      <path class="cls-1" d="m44.04,23.52h-10.22c-.3,0-.55.25-.54.56.22,5.62,1.49,10.73,3.38,14.44.16.32.58.4.84.15,3.98-3.7,6.61-8.83,7.07-14.57.02-.31-.22-.58-.53-.58Z"/>
      <path class="cls-1" d="m20.53,23.52h-6.24c-.29,0-.52.23-.54.52-.21,5.81-1.45,11.23-3.56,15.42-.13.27-.27.53-.41.78-.13.24-.06.55.17.71,3.06,2.03,6.65,3.32,10.52,3.63.31.02.58-.22.58-.53v-19.99c0-.3-.24-.54-.54-.54Z"/>
    </g>
  </g>
</svg>