<?xml version="1.0" encoding="UTF-8"?>
<svg id="Capa_2" data-name="Capa 2" xmlns="http://www.w3.org/2000/svg" viewBox="0 0 230.12 206.86">
  <g id="Layer_1" data-name="Layer 1">
    <g>
      <path d="m66.7,85.44c5.28-11.25.44-24.65-10.81-29.93-11.25-5.28-24.65-.44-29.93,10.81-3.16,6.74-2.69,14.24.61,20.32.8.26,1.59.6,2.33,1.08l16.91,10.66c8.64.19,16.99-4.62,20.89-12.94Z"/>
      <path d="m205.68,131.71c-1.85-4.49-6.14-7.5-11-7.72l-53.99-2.42c-1.09-.5-2.3-1.01-3.65-1.55-15.83-4.99-28.63-20.11-39.79-28.79l-1.06,11.43c-.49,5.33-4.9,9.35-10.25,9.35-.32,0-.64-.01-.96-.04-2.74-.25-5.21-1.56-6.97-3.68s-2.59-4.79-2.33-7.53l3.68-39.72-1.64-25.1c-2.62,1.23-5.53,1.93-8.61,1.93-2.61,0-5.09-.51-7.39-1.4l1.38,21.16c.54.49,1.06,1,1.55,1.54,2.17,2.38,3.87,5.18,4.99,8.29,2.25,6.23,1.94,12.96-.87,18.96-.92,1.96-2.09,3.75-3.44,5.36l.75,11.45c.04.63.16,1.23.34,1.81.56,2.81,1.69,5.7,3.49,8.53l46.36,29.22c.58.37,1.04.82,1.4,1.36.91-.91,2.03-1.41,3.33-1.41h55.33c4.05,0,7.54,2.41,9.14,5.86h.14s20.46,49.61,20.46,49.61c1.99,4.82,6.65,7.74,11.56,7.74,1.59,0,3.2-.3,4.76-.95,6.38-2.63,9.42-9.94,6.79-16.32l-23.5-56.97Z"/>
      <path d="m176.33,145.74h-55.33c-3.89,0-3.89,14.15,0,14.15h55.33c3.89,0,7.07-3.18,7.07-7.07h0c0-3.89-3.18-7.07-7.07-7.07Z"/>
      <path d="m107.1,157.27c3.29,2.08,10.86-9.87,7.57-11.95L27.3,90.25c-3.29-2.08-7.68-1.1-9.76,2.19s-1.1,7.68,2.19,9.76l41.13,25.92-1.4,2.67-17.27,32.99h-21.26c-8.5,0-15.42,6.92-15.42,15.42v17.66H0v10h21.03v-10h-5.52v-17.66c0-2.99,2.43-5.42,5.42-5.42h155c2.99,0,5.42,2.43,5.42,5.42v17.66h-5.52v10h21.03v-10h-5.52v-17.66c0-8.5-6.92-15.42-15.42-15.42H53.48l14.47-27.64,1.4-2.67,37.76,23.8Z"/>
      <path d="m84.12,34.76l-6.14,66.21c-.41,4.4,2.83,8.3,7.23,8.7.25.02.5.03.75.03,4.08,0,7.57-3.11,7.96-7.26l6.05-65.24c-1.62.42-3.32.66-5.07.66-3.96,0-7.64-1.15-10.77-3.1Z"/>
      <path d="m79.82,31.18c-2.31-2.53-3.99-5.64-4.8-9.09-1.38,1.74-3.5,2.86-5.89,2.86-4.15,0-7.52-3.36-7.52-7.52s3.36-7.52,7.52-7.52c2.39,0,4.52,1.12,5.89,2.86.81-3.45,2.49-6.56,4.8-9.09-2.95-2.3-6.66-3.69-10.7-3.69-9.63,0-17.43,7.8-17.43,17.43s7.8,17.43,17.43,17.43c4.04,0,7.74-1.38,10.7-3.69Z"/>
      <path d="m69.13,20.15c1.5,0,2.72-1.22,2.72-2.72s-1.22-2.72-2.72-2.72-2.72,1.22-2.72,2.72,1.22,2.72,2.72,2.72Z"/>
      <path d="m77.46,17.43c0,9.63,7.8,17.43,17.43,17.43s17.43-7.8,17.43-17.43S104.52,0,94.89,0s-17.43,7.8-17.43,17.43Zm17.43-7.52c4.15,0,7.52,3.36,7.52,7.52s-3.36,7.52-7.52,7.52-7.52-3.36-7.52-7.52,3.36-7.52,7.52-7.52Z"/>
      <path d="m94.89,14.72c-1.5,0-2.72,1.22-2.72,2.72s1.22,2.72,2.72,2.72,2.72-1.22,2.72-2.72-1.22-2.72-2.72-2.72Z"/>
    </g>
  </g>
</svg>