<?xml version="1.0" encoding="UTF-8"?>
<svg id="Capa_2" data-name="Capa 2" xmlns="http://www.w3.org/2000/svg" viewBox="0 0 279.5 111.56">
  <g id="Layer_1" data-name="Layer 1">
    <g>
      <path d="m262.06,16.32c-12.11-2.8-24.19,4.75-26.99,16.86-2.8,12.11,4.75,24.19,16.86,26.99,12.11,2.8,24.19-4.75,26.99-16.86,2.8-12.11-4.75-24.19-16.86-26.99Z"/>
      <path d="m231.13,35.18c2.48-8.44-1.63-21-16.05-26.64C195.21.89,182.15-1.12,159.85.54c-10.13,1.53-14.75,6.38-16.86,12.03L45.95,2.47c-6.85-.72-13.01,4.27-13.73,11.14-.71,6.87,4.27,13.01,11.14,13.73l157.4,16.39-.42-15.52c-.15-5.68,4.34-10.42,10.02-10.58,1.68-.05,3.36.32,4.86,1.07,3.42,1.7,5.62,5.13,5.72,8.95l.44,16.23c4.71-1.42,8.5-4.37,9.77-8.69Z"/>
      <path d="m218.63,27.7c-.12-4.42-3.8-7.9-8.22-7.78-4.42.12-7.9,3.8-7.78,8.22l2.07,75.64c.08,3.06,1.88,5.68,4.44,6.95,1.13.56,2.42.86,3.77.83,4.42-.12,7.9-3.8,7.78-8.22l-2.07-75.64Z"/>
      <path d="m78.01,96.58h-34v-48.67h22.66c3.89,0,3.89-14.15,0-14.15H11.34c-3.89,0-3.89,14.15,0,14.15h22.66v48.67H0v10h78.01v-10Z"/>
      <rect x="1.68" y="108.12" width="5.68" height="2.91"/>
      <rect x="70.65" y="108.12" width="5.68" height="2.91"/>
    </g>
  </g>
</svg>