<?xml version="1.0" encoding="UTF-8"?>
<svg id="Capa_2" data-name="Capa 2" xmlns="http://www.w3.org/2000/svg" viewBox="0 0 49.53 49.53">
  <defs>
    <style>
      .cls-1 {
        fill: #2d3540;
      }
    </style>
  </defs>
  <g id="Layer_1" data-name="Layer 1">
    <g>
      <path class="cls-1" d="m24.76,2.9c2.95,0,5.82.58,8.51,1.72,2.6,1.1,4.94,2.68,6.95,4.69,2.01,2.01,3.59,4.35,4.69,6.95,1.14,2.69,1.72,5.56,1.72,8.51s-.58,5.82-1.72,8.51c-1.1,2.6-2.68,4.94-4.69,6.95-2.01,2.01-4.35,3.59-6.95,4.69-2.69,1.14-5.56,1.72-8.51,1.72s-5.82-.58-8.51-1.72c-2.6-1.1-4.94-2.68-6.95-4.69s-3.59-4.35-4.69-6.95c-1.14-2.69-1.72-5.56-1.72-8.51s.58-5.82,1.72-8.51c1.1-2.6,2.68-4.94,4.69-6.95s4.35-3.59,6.95-4.69c2.69-1.14,5.56-1.72,8.51-1.72m0-2.9C11.09,0,0,11.09,0,24.76s11.09,24.76,24.76,24.76,24.76-11.09,24.76-24.76S38.44,0,24.76,0h0Z"/>
      <rect class="cls-1" x="2.56" y="23.32" width="44.41" height="2.9" transform="translate(-10.26 24.76) rotate(-45)"/>
      <path class="cls-1" d="m30.03,27.54c-1,.62-2.14.94-3.32.94-1.02,0-2.02-.24-2.92-.71-.86.47-1.82.71-2.81.71s-2-.26-2.88-.75c-.72.37-1.51.56-2.32.56-.35,0-.69-.04-1.01-.1.36,1.85.71,3.7,1.07,5.55.1.52.51.9,1.01.95,2.4.23,5.02.37,7.85.36,2.48-.01,4.79-.15,6.93-.36.5-.05.91-.43,1.01-.95.36-1.85.71-3.7,1.07-5.55-.33.07-.67.1-1.01.1-.95,0-1.86-.26-2.66-.75Z"/>
      <path class="cls-1" d="m32.75,18.66c-.16,0-.33.01-.49.04-.1-.5-.3-.97-.58-1.38-.98-1.57-2.72-2.61-4.71-2.61-1.16,0-2.23.36-3.12.96-.73-.36-1.56-.56-2.43-.56-2.37,0-4.39,1.49-5.19,3.58-.15-.02-.3-.02-.46-.02-2.4,0-4.35,1.95-4.35,4.35s1.95,4.35,4.35,4.35c.86,0,1.66-.25,2.33-.68.82.55,1.81.86,2.87.86.93,0,1.81-.25,2.56-.68.09-.06.18-.14.27-.22.5-.47.75-1.13.69-1.82-.02-.2.13-.37.33-.39.04,0,.09,0,.13.01.14.04.25.16.27.32.07.85-.22,1.68-.8,2.29.7.31,1.47.49,2.29.49.97,0,1.88-.25,2.67-.68-.53-.51-.91-1.16-1.09-1.89-.05-.2.07-.41.28-.46.2-.05.41.07.46.28.17.68.56,1.27,1.09,1.7.54.4,1.16.68,1.85.79.24.04.48.06.73.06,2.4,0,4.35-1.95,4.35-4.35s-1.92-4.32-4.29-4.35Zm-8.57.34c-.03.2-.21.34-.41.31-.23-.03-.47-.04-.71-.03-1.38.07-2.61.9-3.21,2.14-.06.13-.19.21-.33.21-.05,0-.11-.01-.16-.04-.18-.09-.26-.3-.17-.48.71-1.48,2.18-2.46,3.82-2.55.28-.02.57,0,.85.03.2.03.34.21.31.41Z"/>
    </g>
  </g>
</svg>