<?xml version="1.0" encoding="UTF-8"?>
<svg id="Capa_2" data-name="Capa 2" xmlns="http://www.w3.org/2000/svg" viewBox="0 0 54.88 43.13">
  <defs>
    <style>
      .cls-1 {
        fill: #2d3540;
      }
    </style>
  </defs>
  <g id="Layer_1" data-name="Layer 1">
    <g>
      <path class="cls-1" d="m52.67.08c-1.56-.38-3.12.57-3.51,2.13l-2.3,9.39c-.15.62-.78,1-1.4.85-.55-.14-.93-.6-.94-1.1.25-.68.24-1.46-.08-2.17-.6-1.35-2.12-2.03-3.53-1.58-6.55,2.09-12.71,5.15-18.3,9.1-1.31.92-1.62,2.73-.69,4.04.56.8,1.46,1.23,2.37,1.23.58,0,1.16-.17,1.67-.53,4.16-2.94,8.66-5.34,13.43-7.16.87,1.84,2.55,3.29,4.69,3.81.55.14,1.11.2,1.66.2,3.13,0,5.98-2.13,6.76-5.3l2.3-9.39c.38-1.56-.57-3.12-2.13-3.51Z"/>
      <path class="cls-1" d="m38.12,19.27c-3.73,0-7.18,1.7-9.45,4.65-.1.13-.19.27-.27.42l-.86,1.63c-.49.73-1.29,1.16-2.17,1.16s-1.64-.41-2.13-1.1c-.01-.01-.02-.03-.03-.04l-.64-.87-6.2-10.45c1.49-.12,2.66-1.37,2.66-2.89,0-1.6-1.3-2.9-2.9-2.9h-4.81s-.02,0-.02,0h-4.86c-1.6,0-2.9,1.3-2.9,2.9s1.3,2.9,2.9,2.9h3.19l8.02,13.52c.05.09.11.17.16.25l.72.97c1.58,2.2,4.13,3.51,6.83,3.51,2.92,0,5.59-1.48,7.13-3.96.04-.06.07-.12.11-.19l.79-1.5c1.17-1.41,2.88-2.22,4.72-2.22,3.38,0,6.13,2.75,6.13,6.13s-2.75,6.13-6.13,6.13H10.48c1.54-2.29,3.22-4.48,5.05-6.54,1.06-1.2.95-3.03-.25-4.09-1.2-1.06-3.03-.95-4.09.25-2.84,3.2-5.37,6.69-7.56,10.39h-.73c-1.6,0-2.9,1.3-2.9,2.9s1.3,2.9,2.9,2.9h35.23c6.58,0,11.93-5.35,11.93-11.93s-5.35-11.93-11.93-11.93Z"/>
    </g>
  </g>
</svg>