<?xml version="1.0" encoding="UTF-8"?>
<svg id="Capa_2" data-name="Capa 2" xmlns="http://www.w3.org/2000/svg" viewBox="0 0 224.11 136.03">
  <g id="Layer_1" data-name="Layer 1">
    <g>
      <path d="m193.5,1.52c-11.59,4.48-17.36,17.5-12.88,29.09,4.48,11.59,17.5,17.36,29.09,12.88,11.59-4.48,17.36-17.5,12.88-29.09-4.48-11.59-17.5-17.36-29.09-12.88Z"/>
      <path d="m168.81,39.13c1.32,2.41,1.62,5.2.84,7.84-1.28,4.36-5.34,7.4-9.88,7.4-.98,0-1.96-.14-2.9-.42l-6.6-1.94,6.29,14.12,8.25-4.06c.99-.49,1.88-1.1,2.68-1.79,8.75-3.56,15.34-12.1,12.89-19.75-2.68-8.38-13.13-16.47-28.23-13.05-2.32.54-4.52,1.09-6.64,1.66l17.16,5.04c2.64.77,4.82,2.53,6.14,4.95Z"/>
      <path d="m122.38,40.05c-.25-.55-.42-1.12-.57-1.7-6.35,3.45-12.64,7.77-19.88,13.5-6.52,6.02-8.22,11.78-7.63,17.03L6.99,111.8c-6.2,3.05-8.75,10.54-5.7,16.73,2.17,4.42,6.61,6.99,11.23,6.99,1.85,0,3.73-.41,5.51-1.29l120.04-59.01-15.68-35.18Z"/>
      <path d="m145.45,86.17c1.33,2.98,4.25,4.75,7.31,4.75,1.09,0,2.19-.22,3.25-.69,4.04-1.8,5.85-6.53,4.05-10.56l-13.93-31.25,11.37,3.34c4.23,1.24,8.68-1.18,9.93-5.42,1.25-4.24-1.18-8.69-5.42-9.93l-27.98-8.21c-2.99-.88-6.22.06-8.28,2.41-2.05,2.35-2.55,5.67-1.29,8.52l20.97,47.05Z"/>
      <path d="m206.46,121.57h-34v-22.15h22.66c3.89,0,3.89-14.15,0-14.15h-32.35c-.72,3.02-2.77,5.68-5.81,7.04-1.33.59-2.74.89-4.19.89-4.06,0-7.76-2.4-9.41-6.11l-.81-1.82h-2.75c-3.89,0-3.89,14.15,0,14.15h22.66v22.15h-34v10h78.01v-10Z"/>
      <rect x="130.13" y="133.12" width="5.68" height="2.91"/>
      <rect x="199.1" y="133.12" width="5.68" height="2.91"/>
    </g>
  </g>
</svg>