<?xml version="1.0" encoding="UTF-8"?>
<svg id="Capa_2" data-name="Capa 2" xmlns="http://www.w3.org/2000/svg" viewBox="0 0 177.91 225.96">
  <defs>
    <style>
      .cls-1 {
        fill-rule: evenodd;
      }
    </style>
  </defs>
  <g id="Capa_1-2" data-name="Capa 1">
    <path class="cls-1" d="m177.91,3.9c0-2.15-1.74-3.9-3.89-3.9H3.9C1.74,0,0,1.74,0,3.9v218.16c0,2.15,1.74,3.9,3.9,3.9h170.12c2.15,0,3.89-1.74,3.89-3.9V3.9h0Zm-7.79,3.9v210.37H7.79V7.79h162.33Zm-84.45,132.04c-4.45-2.62-11.11-4.54-19.63-1.29-6.67,2.54-10.92,7.98-12.95,14.71-2.78,9.26-1.19,21.03,3.76,29.82,8.59,15.27,18.04,16.97,22.61,16.97,3.98,0,7.25-2.07,9.49-4.08,2.24,2.01,5.51,4.08,9.49,4.08,4.57,0,14.01-1.7,22.61-16.97,4.95-8.79,6.54-20.56,3.76-29.82-2.02-6.73-6.27-12.17-12.95-14.71-7.54-2.87-13.61-1.71-17.99.41.15-.51.32-1.02.52-1.53,1.11-2.9,3.04-5.83,6.57-7.36,1.97-.86,2.88-3.15,2.02-5.12-.86-1.97-3.15-2.88-5.12-2.02-5.7,2.47-8.95,7.05-10.74,11.72-.68,1.77-1.14,3.55-1.45,5.2h0Zm.14,10.17c.73,1,1.9,1.59,3.14,1.59s2.4-.59,3.14-1.59c0,0,6.25-8.28,17-4.18,4.33,1.65,6.94,5.3,8.26,9.67,2.22,7.38.85,16.75-3.09,23.75-6.22,11.06-12.51,13-15.82,13-3.84,0-6.18-4.14-6.18-4.14-.71-1.15-1.96-1.85-3.31-1.85s-2.6.7-3.31,1.85c0,0-2.34,4.14-6.18,4.14-3.31,0-9.59-1.94-15.82-13-3.94-7.01-5.3-16.37-3.09-23.75,1.31-4.37,3.93-8.02,8.26-9.67,10.76-4.1,17,4.18,17,4.18h0Zm-54.27-43.74l11.24,10.09c1.48,1.33,3.73,1.33,5.21,0l22.47-20.18c1.6-1.44,1.73-3.9.29-5.5-1.44-1.6-3.9-1.73-5.5-.3l-19.87,17.85-8.63-7.75c-1.6-1.44-4.06-1.31-5.5.3-1.44,1.6-1.3,4.06.3,5.5h0Zm58.45,1h53.77c2.15,0,3.9-1.75,3.9-3.9s-1.74-3.9-3.9-3.9h-53.77c-2.15,0-3.9,1.75-3.9,3.9s1.74,3.9,3.9,3.9h0Zm-58.45-30.06l11.24,10.09c1.48,1.33,3.73,1.33,5.21,0l22.47-20.18c1.6-1.44,1.73-3.9.29-5.5-1.44-1.6-3.9-1.73-5.5-.3l-19.87,17.85-8.63-7.75c-1.6-1.44-4.06-1.3-5.5.3-1.44,1.6-1.3,4.06.3,5.5h0Zm58.45,1h53.77c2.15,0,3.9-1.74,3.9-3.89s-1.74-3.9-3.9-3.9h-53.77c-2.15,0-3.9,1.75-3.9,3.9s1.74,3.89,3.9,3.89h0Zm-58.45-30.06l11.24,10.09c1.48,1.33,3.73,1.33,5.21,0l22.47-20.18c1.6-1.44,1.73-3.9.29-5.5s-3.9-1.73-5.5-.3l-19.87,17.84-8.63-7.75c-1.6-1.44-4.06-1.3-5.5.3-1.44,1.6-1.3,4.06.3,5.5h0Zm58.45,1h53.77c2.15,0,3.9-1.74,3.9-3.9s-1.74-3.9-3.9-3.9h-53.77c-2.15,0-3.9,1.74-3.9,3.9s1.74,3.9,3.9,3.9h0Z"/>
  </g>
</svg>