<?xml version="1.0" encoding="UTF-8"?>
<svg id="Capa_2" data-name="Capa 2" xmlns="http://www.w3.org/2000/svg" viewBox="0 0 162.36 225.96">
  <defs>
    <style>
      .cls-1 {
        fill-rule: evenodd;
      }
    </style>
  </defs>
  <g id="Capa_1-2" data-name="Capa 1">
    <path class="cls-1" d="m91.14,220.38c11.19-18.28,34.98-57.15,59.28-96.84,15.33-25.05,15.94-56.43,1.58-82.05C137.64,15.87,110.56,0,81.19,0h-.03C51.79,0,24.71,15.87,10.36,41.49c-14.36,25.62-13.75,57,1.58,82.05,24.3,39.69,48.09,78.55,59.28,96.84,2.12,3.47,5.89,5.58,9.96,5.58s7.83-2.11,9.96-5.58h0Zm-6.64-4.06c-.71,1.16-1.96,1.86-3.32,1.86s-2.61-.7-3.32-1.86L18.58,119.48c-13.86-22.65-14.41-51.02-1.43-74.18C30.13,22.13,54.61,7.78,81.16,7.78h.03c26.55,0,51.04,14.35,64.02,37.51,12.98,23.16,12.43,51.54-1.43,74.18l-59.28,96.84h0Zm-3.32-198.07c-34.78,0-63.02,28.24-63.02,63.02s28.24,63.02,63.02,63.02,63.02-28.24,63.02-63.02-28.24-63.02-63.02-63.02h0Zm0,7.78c30.48,0,55.23,24.75,55.23,55.23s-24.75,55.23-55.23,55.23-55.23-24.75-55.23-55.23,24.75-55.23,55.23-55.23h0Zm-14.84,67.48h29.67v9.61c0,2.15,1.74,3.89,3.89,3.89h19.52c2.15,0,3.89-1.74,3.89-3.89v-43.7c0-2.15-1.74-3.89-3.89-3.89h-19.52c-2.15,0-3.89,1.74-3.89,3.89v9.6h-29.67v-9.6c0-2.15-1.74-3.89-3.89-3.89h-19.52c-2.15,0-3.89,1.74-3.89,3.89v43.7c0,2.15,1.74,3.89,3.89,3.89h19.52c2.15,0,3.89-1.74,3.89-3.89v-9.61h0Zm-7.78-30.21v35.92h-11.73v-35.92h11.73Zm56.97,0v35.92h-11.73v-35.92h11.73Zm-49.19,13.5v8.93h29.67v-8.93h-29.67Z"/>
  </g>
</svg>