<?xml version="1.0" encoding="UTF-8"?>
<svg id="Capa_2" data-name="Capa 2" xmlns="http://www.w3.org/2000/svg" viewBox="0 0 225.96 225.96">
  <defs>
    <style>
      .cls-1 {
        fill-rule: evenodd;
      }
    </style>
  </defs>
  <g id="Capa_1-2" data-name="Capa 1">
    <path class="cls-1" d="m112.98,0C50.62,0,0,50.62,0,112.98s50.62,112.98,112.98,112.98,112.98-50.62,112.98-112.98S175.33,0,112.98,0h0Zm101.4,141.02c-25.2,27.36-61.31,44.5-101.4,44.5s-76.21-17.15-101.4-44.5c12.28,44.46,53.05,77.15,101.4,77.15s89.12-32.69,101.4-77.15h0ZM11.95,83.61c-2.71,9.33-4.16,19.18-4.16,29.37,0,4.09.23,8.13.69,12.1,23.71,31.94,61.7,52.65,104.5,52.65s80.78-20.71,104.5-52.65c.46-3.97.69-8.01.69-12.1,0-10.19-1.45-20.04-4.16-29.37-24.09,29-60.42,47.48-101.02,47.48S36.04,112.62,11.95,83.61h0Zm178.36-41.9c-20.22,19-47.43,30.65-77.34,30.65s-57.12-11.65-77.34-30.65c-8.83,9.58-15.91,20.79-20.72,33.14,22.58,29.45,58.11,48.45,98.05,48.45s75.47-19,98.05-48.45c-4.81-12.35-11.89-23.56-20.72-33.14h0Zm-5.49-5.53c-18.81-17.6-44.08-28.39-71.84-28.39s-53.04,10.78-71.85,28.39c18.81,17.6,44.07,28.39,71.85,28.39s53.04-10.78,71.84-28.39h0Z"/>
  </g>
</svg>