<?xml version="1.0" encoding="UTF-8"?>
<svg id="Capa_2" data-name="Capa 2" xmlns="http://www.w3.org/2000/svg" viewBox="0 0 187.83 225.96">
  <defs>
    <style>
      .cls-1 {
        fill-rule: evenodd;
      }
    </style>
  </defs>
  <g id="Capa_1-2" data-name="Capa 1">
    <path class="cls-1" d="m21.98,191.13s0,.06.01.1l3.68,31.29c.23,1.96,1.89,3.44,3.87,3.44h128.75c1.98,0,3.64-1.48,3.87-3.44l3.55-30.21c.22-.49.34-1.02.34-1.59,0-.25-.02-.49-.07-.72L187.8,4.35c.13-1.11-.22-2.21-.96-3.04-.74-.83-1.8-1.31-2.91-1.31H3.9C2.78,0,1.72.48.98,1.31.25,2.14-.1,3.25.03,4.35l21.95,186.78h0Zm135.61,3.48l-2.77,23.55H33l-2.77-23.55h127.36Zm15.57-132.44c-9.39,6.41-25.59,15.98-47.57,15.98-16.96,0-26.35-4.32-36.02-9.09-8.86-4.37-17.96-9.16-34.52-10.69-17.21-1.59-30.91,5.88-39.51,11.29l13.77,117.17h129.19l14.65-124.65h0Zm-158.62-1.03c9.68-5.69,23.88-12.14,41.23-10.54,17.86,1.65,27.7,6.75,37.25,11.46,8.74,4.32,17.23,8.29,32.57,8.29,24.99,0,41.79-13.68,48.79-18.54l5.17-44.03H8.28s6.27,53.35,6.27,53.35h0Z"/>
  </g>
</svg>