<?xml version="1.0" encoding="UTF-8"?>
<svg id="Capa_2" data-name="Capa 2" xmlns="http://www.w3.org/2000/svg" viewBox="0 0 57.65 56.81">
  <defs>
    <style>
      .cls-1 {
        fill: #2d3540;
      }
    </style>
  </defs>
  <g id="Layer_1" data-name="Layer 1">
    <g>
      <path class="cls-1" d="m23.05,43.79c.47-.81.36-1.86-.34-2.55l-7.14-7.14c-.69-.69-1.74-.8-2.55-.34-1.79-.81-3.69-1.39-5.64-1.76-.26-.05-.52.03-.7.22L.23,38.67c-.36.36-.29.95.14,1.22,1.42.88,2.8,1.84,4.12,2.86-.1.65.09,1.33.59,1.83l7.14,7.14c.5.5,1.18.7,1.83.59,1.02,1.33,1.97,2.7,2.86,4.12.27.43.86.5,1.22.14l6.45-6.45c.18-.18.26-.45.22-.7-.36-1.95-.94-3.86-1.76-5.64Zm-1.91-.05l-6.42,6.42c-.53.53-1.4.53-1.93,0l-6.13-6.13c-.53-.53-.53-1.4,0-1.93l6.42-6.42c.53-.53,1.4-.53,1.93,0l6.13,6.13c.53.53.53,1.4,0,1.93Z"/>
      <path class="cls-1" d="m16.38,39.83c-.06-.1-.13-.2-.22-.28-.73-.73-2.2-.63-2.88,0-.5.46-.59,1.49-.33,2.12-.63-.27-1.62-.18-2.12.33-.74.73-.62,2.2,0,2.88.08.08.18.16.28.22.1.06.24.15.41.22.84.36,1.72.22,2.61.2.88-.01,1.76,0,2.64-.03.03-.88.01-1.76.03-2.64.01-.89.15-1.76-.2-2.61-.07-.17-.15-.3-.22-.41Z"/>
      <path class="cls-1" d="m57.4,20.35c.13-.47.44-1.57.08-2.91-.32-1.18-1.12-2.32-2.19-3.12-.73-.54-1.5-.87-2.24-.96.18-1.22-.19-2.52-.74-3.38-.8-1.26-2.43-2.31-3.91-2.3-.14-1.2-.88-2.36-1.74-3.05-1.23-.99-2.85-1.22-4.17-.91-.26-.93-1.01-1.65-2-2.51-3.48-3-7.08.37-8.43,1.63-1.16,1.09-2.67,2.57-4.21,4.11-1.39,1.39-2.8,2.82-3.99,4.04-2.89,2.95-5.29,6.26-7.15,9.85-.52,1.01-.96,1.91-1.38,2.78-1.32,2.74-2.27,4.68-4.34,6.66-.43.41-.26,1.14.31,1.32.29.09.58.18.87.29.29.1.6.02.82-.19,2.16-2.18,3.23-4.37,4.51-7.02.42-.86.84-1.74,1.35-2.72,1.75-3.37,4.01-6.49,6.73-9.27,2.51-2.56,5.95-6.04,8.13-8.07,2.81-2.63,4.08-2.55,5.22-1.57,1.34,1.16,1.57,1.78,1.05,2.31l-5.21,5.21c-.47.47-.47,1.23,0,1.7.47.47,1.23.47,1.7,0l5.36-5.36c1.42-1.42,2.38-1.17,3.34-.4.63.51,1.36,1.7.66,2.4l-6.31,6.41c-.47.47-.46,1.24.01,1.7.47.47,1.24.47,1.7-.01l6.39-6.49c.75-.75,2.1-.14,2.67.76.42.66,1.06,1.74-.13,2.94l-5.87,5.87c-.47.47-.47,1.23,0,1.7s1.23.47,1.7,0l5.81-5.81c.55-.55,1.44-.18,2.07.29.64.47,1.13,1.15,1.3,1.81.19.7.02,1.3-.08,1.63-.1.35-.33,1.17-3.37,3.88-.32.29-.64.56-.92.81-.46.4-4.01,3.77-4.3,4.05-.28.27-1.13,1.1-.52,2.02.21.32.5.7,1.45.14.67-.4,2.25-2.81,3.53-2.87.65-.03.76.15,1.13.58.55.64.88,1.55.82,2.25-.08.85-.77,1.48-2,2.51l-.05.04c-4.03,3.4-5.63,4.95-6.4,5.69q-.63.6-1.02.78c-1.73.79-2.64.68-4.03.52-1.58-.18-3.55-.41-7.15.5-2.02.51-4.8,1.22-7.1,2.99-.27.21-.37.57-.26.89.1.27.19.54.27.81.17.53.82.72,1.25.37,1.94-1.59,4.47-2.23,6.43-2.73,3.17-.8,4.82-.61,6.28-.44,1.53.18,2.97.34,5.31-.72.76-.35.98-.55,1.69-1.24.75-.72,2.32-2.23,6.29-5.58l.05-.04c1.31-1.11,2.67-2.25,2.84-4.13.13-1.36-.41-2.91-1.39-4.05-.33-.39-.7-.7-1.08-.93.16-.14.32-.28.49-.43,3.29-2.94,3.82-4.09,4.08-5.03Z"/>
    </g>
  </g>
</svg>