<?xml version="1.0" encoding="UTF-8"?>
<svg id="Capa_2" data-name="Capa 2" xmlns="http://www.w3.org/2000/svg" viewBox="0 0 54.83 42.14">
  <defs>
    <style>
      .cls-1 {
        fill: #2d3540;
      }
    </style>
  </defs>
  <g id="Layer_1" data-name="Layer 1">
    <g>
      <path class="cls-1" d="m43.53,19.94c-5.23,1.2-10.54,1.82-15.87,1.85-.14,0-.29,0-.43,0-5.36,0-10.71-.6-15.98-1.78-.4.86-.8,1.83-1.17,2.96,6.41,2.74,12.21,6.51,17.33,11.27,5.1-4.81,10.9-8.58,17.32-11.28-.38-1.16-.79-2.15-1.2-3.02Z"/>
      <path class="cls-1" d="m27.82,35v6.76c0,.21.17.38.38.38h16.82c.18,0,.34-.13.38-.31.98-4.99,1.66-11.22-.42-18.08-6.36,2.68-12.11,6.45-17.16,11.24Z"/>
      <path class="cls-1" d="m9.42,41.83c.04.18.19.31.38.31h16.82c.21,0,.38-.17.38-.38v-6.78c-5.06-4.73-10.82-8.49-17.16-11.21-2.07,6.85-1.39,13.08-.41,18.07Z"/>
      <path class="cls-1" d="m12.31,7.03l-6.08-2.68c-.53-.24-1.13.16-1.13.74v.4c0,.23-.18.41-.41.41H.81c-.45,0-.81.36-.81.81v2.13c0,.45.36.81.81.81h3.88c.23,0,.41.18.41.41v.4c0,.58.6.98,1.13.74l6.08-2.68c.64-.28.64-1.2,0-1.48Z"/>
      <path class="cls-1" d="m54.02,5.9h-3.88c-.23,0-.41-.18-.41-.41v-.4c0-.58-.6-.98-1.13-.74l-6.08,2.68c-.64.28-.64,1.2,0,1.48l6.08,2.68c.53.24,1.13-.16,1.13-.74v-.4c0-.23.18-.41.41-.41h3.88c.45,0,.81-.36.81-.81v-2.13c0-.45-.36-.81-.81-.81Z"/>
      <path class="cls-1" d="m14.58.15s0,.01,0,.02c.04.08.08.16.12.23,0,.02.02.03.03.05.04.07.08.15.11.22,0,.01.02.03.02.05.11.22.23.46.34.69.02.04.04.08.06.12.03.06.05.11.08.17.02.05.04.1.07.14.02.06.05.11.07.17.02.05.04.1.07.16.02.06.05.11.07.17.02.06.05.11.07.17.02.05.04.11.06.16.02.06.05.13.07.19.02.05.04.1.06.15.04.11.08.22.12.34.01.04.03.08.04.13.03.08.05.15.08.23.02.05.03.1.05.15.02.07.04.14.06.21.02.05.03.11.05.16.02.07.04.14.06.22.01.05.03.11.04.16.02.07.04.15.05.23.01.05.03.11.04.16.02.09.04.17.05.26,0,.05.02.09.03.14.03.13.05.26.07.4,0,.02,0,.05.01.08.02.11.03.22.05.34,0,.05.01.1.02.15.01.09.02.18.03.27,0,.06.01.11.02.17,0,.09.02.18.02.27,0,.06,0,.12.01.17,0,.09,0,.18.01.27,0,.06,0,.11,0,.17,0,.1,0,.2,0,.3,0,.05,0,.1,0,.15,0,.15,0,.31,0,.46-.18,4.96-2.76,5.98-5.18,10.65,5.28,1.17,10.65,1.75,16.02,1.71,5.2-.03,10.39-.63,15.49-1.78-2.4-4.61-4.96-5.64-5.14-10.58,0-.16,0-.31,0-.46,0-.05,0-.1,0-.15,0-.1,0-.2,0-.3,0-.06,0-.11,0-.17,0-.09,0-.18.01-.27,0-.06,0-.12.01-.17,0-.09.01-.18.02-.27,0-.06.01-.11.02-.17,0-.09.02-.18.03-.27,0-.05.01-.1.02-.15.02-.11.03-.22.05-.34,0-.02,0-.05.01-.08.02-.13.05-.27.07-.4,0-.05.02-.09.03-.14.02-.09.04-.17.05-.26.01-.05.02-.11.04-.16.02-.08.04-.15.05-.23.01-.06.03-.11.04-.16.02-.07.04-.14.06-.22.02-.05.03-.11.05-.16.02-.07.04-.14.06-.21.02-.05.03-.1.05-.15.02-.08.05-.16.08-.23.01-.04.03-.08.04-.13.04-.11.08-.22.12-.34.02-.05.04-.1.06-.15.02-.06.05-.13.07-.19.02-.05.04-.11.06-.16.02-.06.05-.11.07-.17.02-.06.05-.11.07-.17.02-.05.04-.1.07-.16.02-.06.05-.11.07-.17.02-.05.04-.1.06-.14.03-.06.05-.11.08-.17.02-.04.04-.08.06-.12.11-.24.22-.47.34-.69,0-.02.02-.03.02-.05.04-.08.08-.15.12-.23,0-.02.02-.03.02-.05.04-.08.08-.16.12-.24,0,0,0-.01,0-.02h0c.04-.07-.01-.15-.09-.15H14.67c-.08,0-.13.08-.09.15,0,0,0,0,0,0Zm12.38,12.22c0-.25.2-.46.46-.46s.46.2.46.46v1.57c0,.25-.2.46-.46.46s-.46-.2-.46-.46v-1.57Z"/>
    </g>
  </g>
</svg>