<?xml version="1.0" encoding="UTF-8"?>
<svg id="Capa_2" data-name="Capa 2" xmlns="http://www.w3.org/2000/svg" viewBox="0 0 212.59 135.77">
  <g id="Layer_1" data-name="Layer 1">
    <g>
      <path d="m67.43,23.08c-1.32,1.16-3.05,1.87-4.95,1.87-4.15,0-7.52-3.36-7.52-7.52s3.36-7.52,7.52-7.52c2.32,0,4.4,1.06,5.78,2.71,1.15-3.25,3.09-6.12,5.6-8.38-3.06-2.64-7.03-4.25-11.38-4.25-9.63,0-17.43,7.8-17.43,17.43s7.8,17.43,17.43,17.43c3.36,0,6.49-.97,9.16-2.62-2.11-2.6-3.58-5.74-4.21-9.17Z"/>
      <path d="m62.48,14.72c-1.5,0-2.72,1.22-2.72,2.72s1.22,2.72,2.72,2.72,2.72-1.22,2.72-2.72-1.22-2.72-2.72-2.72Z"/>
      <path d="m50.94,50.54c-1.19-12.37-12.19-21.43-24.56-20.23-12.37,1.19-21.43,12.19-20.23,24.56.75,7.74,5.33,14.19,11.69,17.63h21.41c7.71-4.18,12.58-12.68,11.69-21.96Z"/>
      <path d="m72.51,72.49l-5.06-12.05c-1.07-2.54-1.08-5.34-.04-7.88,1.04-2.55,3.01-4.54,5.55-5.6,1.27-.53,2.61-.81,3.98-.81.11,0,.21,0,.31.01v-6.6c-1.64-.23-3.29-.29-4.93-.19l-1.51-.08-.09-3.18c-2.52,1.12-5.31,1.75-8.24,1.75-2.75,0-5.36-.55-7.76-1.54l.48,16.56c-.05.9-.02,1.84.08,2.78l.49,16.83h16.74Z"/>
      <path d="m97.86,72.49h40.9c2.1-1.29,3.68-2.71,4.85-4.25l30.19,1.63,14.17,56.25c1.43,5.67,6.52,9.45,12.11,9.45,1.01,0,2.04-.12,3.06-.38,6.69-1.69,10.75-8.48,9.07-15.17l-16.42-65.18c-1.34-5.31-5.98-9.13-11.45-9.43l-86.48-4.65v31.75Z"/>
      <path d="m0,125.77v10h19.02v-10h-4.8l6.03-30.43h128.36l6.03,30.43h-4.8v10h19.02v-10h-4.03l-6.56-33.13-.59-3h3.51c3.89,0,7.07-3.18,7.07-7.07s-3.18-7.07-7.07-7.07h-63.33v6.06c.01.73-.06,1.47-.2,2.19-.02.12-.06.24-.09.35-.05.2-.1.41-.16.61-.05.17-.12.34-.18.51-.05.13-.08.26-.14.39,0,.02-.02.04-.03.05-.06.14-.13.27-.19.41-.08.18-.17.36-.26.54-.02.03-.04.07-.06.1-1.08,1.95-2.75,3.49-4.82,4.41-.06.03-.12.06-.19.09,0,0,0,0-.01,0-.11.05-.23.08-.35.13-.2.08-.39.15-.6.22-.22.07-.45.12-.67.17-.1.02-.2.06-.31.08-.68.14-1.36.21-2.06.21-4.16,0-7.89-2.48-9.5-6.31l-4.29-10.21H7.68c-3.89,0-7.07,3.18-7.07,7.07s3.18,7.07,7.07,7.07h3.51l-.59,3-6.56,33.13H0Z"/>
      <path d="m80.17,84.79c.15.35.32.68.51,1,.04.07.08.14.13.21.18.29.38.57.6.83.04.05.09.1.14.15.19.21.38.41.59.6.07.07.14.13.22.2.25.22.52.42.79.6.05.03.09.06.14.09,1.24.78,2.7,1.24,4.27,1.24,4.42,0,8-3.58,8-8v-43.53c-2.47,1.06-5.19,1.65-8.04,1.65s-5.51-.58-7.96-1.61v30.1l-2.3-4.87v-15c-1.13-.05-2.29.14-3.41.61-4.07,1.71-5.99,6.4-4.28,10.47l10.6,25.24Z"/>
      <path d="m87.52,36.84c9.63,0,17.43-7.8,17.43-17.43S97.14,1.98,87.52,1.98s-17.43,7.8-17.43,17.43,7.8,17.43,17.43,17.43Zm0-9.92c-4.15,0-7.52-3.36-7.52-7.52s3.36-7.52,7.52-7.52,7.52,3.36,7.52,7.52-3.36,7.52-7.52,7.52Z"/>
      <path d="m87.52,16.69c-1.5,0-2.72,1.22-2.72,2.72s1.22,2.72,2.72,2.72,2.72-1.22,2.72-2.72-1.22-2.72-2.72-2.72Z"/>
    </g>
  </g>
</svg>