<?xml version="1.0" encoding="UTF-8"?>
<svg id="Capa_2" data-name="Capa 2" xmlns="http://www.w3.org/2000/svg" viewBox="0 0 55.01 37.71">
  <defs>
    <style>
      .cls-1 {
        fill: #2d3540;
      }
    </style>
  </defs>
  <g id="Layer_1" data-name="Layer 1">
    <g>
      <path class="cls-1" d="m30.41,21.79L12.89,11.46c-4.06-2.39-9.31-1.04-11.71,3.02s-1.04,9.31,3.02,11.71l17.52,10.33c4.06,2.39,9.31,1.04,11.71-3.02,2.39-4.06,1.04-9.31-3.02-11.71Zm.12,10c-1.45,2.46-4.64,3.29-7.1,1.83L5.92,23.3c-2.46-1.45-3.29-4.64-1.83-7.1,1.45-2.46,4.64-3.29,7.1-1.83l8.76,5.16-4.64,7.88,9.12,5.38.2.11c.48.24,1,.38,1.51.44.26.03.51.03.76.03.25,0,.49-.04.72-.08.23-.04.45-.11.66-.17.21-.07.41-.15.59-.24.37-.17.67-.37.92-.55.12-.09.23-.18.32-.25.09-.08.17-.15.23-.21.06-.06.11-.1.14-.14.03-.03.05-.05.05-.05l.06.03s-.03.06-.05.09Z"/>
      <path class="cls-1" d="m53.71,21.26l-10.78-17.24C40.44.02,35.15-1.2,31.15,1.3c-4,2.5-5.22,7.79-2.72,11.78l10.78,17.24c2.5,4,7.79,5.22,11.78,2.72,4-2.5,5.22-7.79,2.72-11.78Zm-4.5,8.93c-2.42,1.52-5.63.78-7.14-1.65l-10.78-17.24c-1.52-2.42-.78-5.63,1.65-7.14,2.42-1.52,5.63-.78,7.14,1.65l5.39,8.62-7.75,4.85,5.61,8.98.12.19c.32.43.71.8,1.14,1.09.21.15.44.27.66.37.22.11.45.19.68.26.23.07.45.12.67.15.22.03.43.05.63.06.4.02.77-.02,1.07-.06.15-.02.29-.05.41-.08.12-.03.22-.05.3-.07.08-.03.14-.04.19-.05.04-.01.07-.02.07-.02l.03.06s-.06.04-.08.06Z"/>
    </g>
  </g>
</svg>