<?xml version="1.0" encoding="UTF-8"?>
<svg id="Capa_2" data-name="Capa 2" xmlns="http://www.w3.org/2000/svg" viewBox="0 0 200.46 233.37">
  <g id="Layer_1" data-name="Layer 1">
    <g>
      <path d="m200.46,223.37h-15.88l-10.53-106.99c-1.39-14.08-9.6-26.57-21.98-33.41l-18.31-10.12,11.76-66.43-9.85-1.74-7.24,40.89c-2.5-.4-4.89,1.28-5.34,3.78l-3.16,17.59-33.96-13.37-3.66,9.3,7.46,2.94-4,7.72c-2.04,3.94-6.07,6.51-10.52,6.69l-1.14.05c2.15-7.42,4.6-14.38,6.52-20.26,4.06-9.53,1.78-21.81-6.43-24.96-6.19-2.38-15.01-1.2-21.88,5.48l14.46,2.07c5.62.8,9.54,6.03,8.74,11.65-.72,5.04-5.1,8.85-10.18,8.85-.49,0-.98-.04-1.47-.11l-19.15-2.74,4.93,24.35c.19.94.24,1.88.17,2.8l25.7-1.18c6.59-.27,12.56-4.07,15.59-9.92l2.85-5.51,1.43-2.76,22.74,8.96-5.09,28.31c-.45,2.53,1.24,4.97,3.77,5.43.03,0,.06,0,.09,0l-19.87,112.22,2.37.42h-36.85v10h137.94v-10Zm-68.56-140.11l15.32,8.47c9.5,5.25,15.81,14.83,16.87,25.64l10.43,106.01h-67.43l24.81-140.11Z"/>
      <circle cx="100.95" cy="22.5" r="22.5"/>
      <path d="m41.58,96.74c-.68.14-1.37.21-2.05.21-1.96,0-3.81-.57-5.39-1.55-.11,2.52-.18,5.15-.19,7.93.7,9.96,4.96,14.96,10.24,17.58l2.53,34.76-36.44,6.59c-6.79,1.23-11.3,7.73-10.08,14.53,1.09,6.04,6.36,10.28,12.29,10.28.74,0,1.49-.07,2.24-.2l47.49-8.59c6.29-1.14,10.71-6.83,10.24-13.21l-3.71-51.03c.16-1.14.28-2.39.37-3.78-.07-5.92.75-12.07,2.01-18.15l-23.65,1.09c-1.45,1.76-3.49,3.06-5.89,3.55Z"/>
      <polygon points="29.37 88.34 28.16 82.39 25.44 82.51 25.7 88.19 25.71 88.51 29.37 88.34"/>
      <path d="m47.37,85.06l-5.58-27.54,22.38,3.2c4.37.63,8.42-2.41,9.05-6.79.62-4.37-2.41-8.43-6.79-9.05l-33.6-4.8c-2.57-.37-5.16.54-6.95,2.43s-2.54,4.53-2.02,7.08l7.83,38.65c.77,3.79,4.11,6.41,7.83,6.41.53,0,1.06-.05,1.6-.16,4.33-.88,7.13-5.1,6.25-9.43Z"/>
    </g>
  </g>
</svg>