<?xml version="1.0" encoding="UTF-8"?>
<svg id="Capa_2" data-name="Capa 2" xmlns="http://www.w3.org/2000/svg" viewBox="0 0 52.01 58.43">
  <defs>
    <style>
      .cls-1 {
        fill: #2d3540;
      }
    </style>
  </defs>
  <g id="Layer_1" data-name="Layer 1">
    <g>
      <path class="cls-1" d="m51.39,9.62c-.99-1.26-2.82-1.47-4.07-.47-3.04,2.41-6.46,4.15-10.17,5.2-3.11.87-6.32,1.22-9.55,1.03-3.64-1.36-6.96-3.5-9.62-6.23-1.86-1.9-3.41-4.08-4.62-6.48-.72-1.43-2.46-2.01-3.89-1.29-1.43.72-2.01,2.46-1.29,3.89,1.47,2.93,3.38,5.6,5.65,7.93,2.58,2.64,5.66,4.83,9.03,6.45v9.8c1.87.09,3.71.13,5.47.13.97,0,1.91-.01,2.81-.04v-3.52c1.59.23,3.07.48,4.41.76,4.4.92,5.57,1.74,5.85,2.01-.31.24-1.57.92-6.05,1.33-1.29.12-2.71.2-4.23.24-.21,0-.43.01-.64.02-.02,0-.05,0-.07,0-.43,0-.86.02-1.31.02-.03,0-.07,0-.1,0-.21,0-.43,0-.64,0-.03,0-.07,0-.1,0-.18,0-.35,0-.53,0-.03,0-.06,0-.09,0-.21,0-.42,0-.63,0,0,0,0,0-.01,0-1.34-.02-2.73-.06-4.14-.12h0c-.48-.02-.96-.05-1.44-.07-5.16-.3-10.08-.9-13.84-1.68-4.4-.92-5.57-1.74-5.85-2.01.31-.24,1.57-.92,6.05-1.33,3.83-.35,8.78-.37,13.94-.07.11,0,.21.01.32.02v-1.66c-.07,0-.15,0-.22-.01-5.58-.32-10.86-.27-14.85.14-1.98.21-3.55.49-4.67.85-.55.17-2.21.71-2.28,1.96-.07,1.25,1.52,1.97,2.04,2.21,1.07.49,2.6.95,4.54,1.38,3.92.87,9.16,1.53,14.74,1.85.52.03,1.03.06,1.54.08v1.36c-2.16,2.85-3.83,6.1-4.87,9.5-1.29,4.21-1.66,8.75-1.06,13.12.2,1.48,1.49,2.55,2.96,2.51.1,0,.2-.01.31-.03,1.59-.22,2.7-1.68,2.48-3.26-.48-3.55-.19-7.22.86-10.64.51-1.65,1.19-3.25,2.04-4.76.14,1.47.35,2.92.63,4.37.81,4.25,2.18,8.38,4.07,12.29.51,1.06,1.59,1.67,2.7,1.63.4-.01.8-.11,1.17-.29,1.44-.7,2.04-2.43,1.34-3.87-1.67-3.45-2.88-7.1-3.59-10.84-.57-3.01-.83-6.09-.75-9.17,0-.04,0-.09,0-.13v-1.69c1.83-.05,3.52-.16,5.04-.31,1.98-.21,3.55-.49,4.67-.85.55-.17,2.21-.71,2.28-1.96.07-1.25-1.52-1.97-2.04-2.21-1.07-.49-2.6-.95-4.54-1.38-1.6-.36-3.43-.68-5.41-.96v-3.18c2.56-.13,5.1-.55,7.58-1.25,4.45-1.25,8.56-3.35,12.2-6.23,1.26-.99,1.47-2.82.47-4.07Z"/>
      <path class="cls-1" d="m27.66,13.31c3.37,0,6.1-2.73,6.1-6.1s-2.73-6.1-6.1-6.1-6.1,2.73-6.1,6.1,2.73,6.1,6.1,6.1Z"/>
      <path class="cls-1" d="m33.77,4.51c.05.06.11.13.18.2.14.14.32.3.55.43.11.07.24.13.38.18.07.02.14.05.22.06.07.02.16.03.25.04.03,0,.07.01.1.02h.05s-.02.01.02,0h.01s.02,0,.02,0h.03c.08,0,.17,0,.26-.02.09-.01.18-.04.27-.06.05,0,.09-.03.14-.04.05-.02.09-.04.14-.05.37-.15.73-.43,1.03-.73.3-.3.54-.6.74-.81.03-.03.05-.05.07-.07l.03-.03.02-.02h.02s.04-.05.06-.07h.01s0-.02,0-.02c0,0,0,0,0,0s0,0,0,0h0s0,0,0,0h0s.01-.01.01-.01c.03-.02.07-.05.1-.07h0s.02-.01.02-.01c.01,0,.03-.02.04-.02.03,0,.05-.03.09-.04.02,0,.03-.01.05-.02.02,0,.04,0,.06-.01.03-.01.08-.01.12-.02.04-.01.09,0,.14-.01.2,0,.44.02.69.07.06.01.13.03.19.04.06.02.13.02.19.05.13.04.26.06.39.11.13.04.26.07.38.12.13.04.25.08.37.11.24.08.47.14.68.2.1.03.2.06.29.08.09.02.18.05.26.07.08.02.15.04.21.05.06.01.12.02.16.03.09.01.14.02.14.02,0,0-.02-.06-.06-.17-.02-.06-.04-.12-.08-.2-.03-.08-.07-.17-.11-.26-.04-.1-.09-.2-.14-.31-.05-.11-.12-.23-.19-.36-.14-.26-.3-.51-.49-.79-.1-.14-.2-.27-.32-.41-.03-.03-.06-.07-.08-.11-.03-.03-.06-.07-.09-.1-.06-.07-.12-.14-.19-.2-.03-.03-.07-.07-.1-.1-.03-.03-.07-.06-.11-.1-.07-.07-.14-.13-.22-.19-.07-.07-.15-.12-.23-.18-.08-.06-.16-.12-.25-.18-.35-.22-.74-.41-1.19-.5-.11-.02-.23-.04-.35-.04h-.18s-.06,0-.09,0h-.09s-.19.03-.19.03c-.06.01-.13.03-.19.05-.13.03-.26.09-.38.14-.06.03-.12.07-.19.1l-.09.06h-.02s-.06.05-.06.05h0s0,0,0,0l-.03.02s-.07.05-.11.08h-.01s-.02.03-.02.03l-.05.04-.09.09-.09.09s-.03.03-.04.04l-.03.04s-.09.1-.13.15l-.03.04-.03.04-.06.08s-.08.1-.11.15c-.27.39-.44.74-.58,1.01-.14.27-.26.48-.39.67-.03.04-.06.09-.1.14-.04.04-.07.08-.11.13-.04.04-.08.08-.12.12v.02s-.02,0-.02,0h0s0,0,0,0c.03,0,0,0,.02,0l-.04.03-.04.03-.02.02h-.01s0,.01,0,.01c-.06.06-.16.13-.24.19-.09.06-.18.11-.26.15-.04.02-.09.04-.13.06-.04.02-.09.04-.13.06-.08.03-.16.06-.23.09-.07.02-.14.04-.2.06-.06.02-.11.03-.15.04-.09.02-.13.04-.13.04,0,0,.03.05.09.15.03.05.07.1.12.16Z"/>
    </g>
  </g>
</svg>