<?xml version="1.0" encoding="UTF-8"?>
<svg id="Capa_2" data-name="Capa 2" xmlns="http://www.w3.org/2000/svg" viewBox="0 0 225.96 207.67">
  <defs>
    <style>
      .cls-1 {
        fill-rule: evenodd;
      }
    </style>
  </defs>
  <g id="Capa_1-2" data-name="Capa 1">
    <path class="cls-1" d="m13.69,85.9C5.1,97.15,0,111.2,0,126.43c0,21.6,10.26,40.83,26.18,53.05.68.52,1.52.81,2.37.81h34.42v19.59c0,4.3,3.49,7.79,7.79,7.79h31.81c4.3,0,7.79-3.49,7.79-7.79v-19.59h68.21v19.59c0,4.3,3.49,7.79,7.79,7.79h31.81c4.3,0,7.79-3.49,7.79-7.79v-80.88c0-4.3-3.49-7.79-7.79-7.79h-31.81c-4.3,0-7.79,3.49-7.79,7.79v19.59h-45.94c.73-3.94,1.11-8.01,1.11-12.16,0-15.23-5.1-29.28-13.69-40.53l8.37-38.69c2.49-11.52-.36-23.54-7.76-32.71C113.26,5.33,102.11,0,90.33,0h-46.92c-11.78,0-22.93,5.33-30.33,14.5-7.4,9.17-10.25,21.2-7.76,32.71l8.37,38.69h0Zm172.67,33.1v80.88h31.81v-80.88h-31.81Zm-83.79,80.88v-80.88h-31.81v80.88h31.81Zm22.12-61.29c.82-3.93,1.25-7.99,1.25-12.16,0-32.6-26.47-59.08-59.07-59.08S7.79,93.82,7.79,126.43c0,18.62,8.63,35.23,22.11,46.07h33.07v-53.5c0-4.3,3.49-7.79,7.79-7.79h31.81c4.3,0,7.79,3.49,7.79,7.79v19.59h14.33Zm53.88,7.79h-68.21v26.11h68.21v-26.11h0Zm-64.93-67.72l7.16-33.09c1.99-9.21-.29-18.83-6.21-26.17-5.92-7.34-14.84-11.6-24.27-11.6h-46.92c-9.43,0-18.35,4.27-24.27,11.6-5.92,7.34-8.2,16.96-6.21,26.17l7.16,33.09c3.78-3.7,8-6.96,12.57-9.69l-6.12-22.94c-1.62-6.08-.33-12.57,3.51-17.57,3.84-4.99,9.77-7.92,16.07-7.92h41.49c6.29,0,12.23,2.93,16.07,7.92s5.13,11.48,3.51,17.57l-6.12,22.94c4.57,2.73,8.79,5.99,12.57,9.69h0Zm-19.65-13.36l5.67-21.27c1-3.74.2-7.74-2.16-10.81-2.36-3.07-6.01-4.87-9.89-4.87h-41.5c-3.87,0-7.53,1.8-9.89,4.87-2.36,3.07-3.16,7.07-2.16,10.81l5.67,21.27c8.29-3.69,17.47-5.74,27.12-5.74s18.83,2.05,27.12,5.74h0Z"/>
  </g>
</svg>