<?xml version="1.0" encoding="UTF-8"?>
<svg id="Capa_2" data-name="Capa 2" xmlns="http://www.w3.org/2000/svg" viewBox="0 0 44.78 46.44">
  <defs>
    <style>
      .cls-1 {
        fill: #2d3540;
      }
    </style>
  </defs>
  <g id="Layer_1" data-name="Layer 1">
    <g>
      <path class="cls-1" d="m21.51,11.65h1.76c.28,0,.48-.39.42-.79l-.88-5.15c-.11-.64-.72-.64-.83,0l-.88,5.15c-.07.4.14.79.42.79Z"/>
      <path class="cls-1" d="m39.98,0H4.81C2.15,0,0,2.15,0,4.81v36.82c0,2.66,2.15,4.81,4.81,4.81h35.17c2.66,0,4.81-2.15,4.81-4.81V4.81c0-2.66-2.15-4.81-4.81-4.81ZM12.68,4.81c0-1.02.82-1.84,1.84-1.84h15.75c1.02,0,1.84.82,1.84,1.84v6.04c0,1.02-.82,1.84-1.84,1.84h-15.75c-1.02,0-1.84-.82-1.84-1.84v-6.04Zm7.38,13.53v.04s0,.17,0,.17v.34c-.01.9-.02,1.79-.03,2.66-.01,1.75-.04,3.43-.06,5.03-.02,1.6-.05,3.11-.08,4.51-.03,1.4-.06,2.68-.09,3.81-.03,1.13-.06,2.12-.08,2.94-.02.81-.05,1.45-.07,1.89-.02.44-.02.67-.02.67,0,0,0-.23-.02-.67-.01-.44-.04-1.08-.07-1.89-.02-.81-.06-1.8-.08-2.94-.03-1.13-.06-2.42-.09-3.81-.03-1.4-.06-2.91-.08-4.51-.02-1.6-.05-3.29-.06-5.03,0-.87-.02-1.76-.02-2.66v-.34s0-.17,0-.17v-.04s0,0,0,0c0,0,0-.02,0-.01v-.08s-.01-.04-.01-.06v-.04s-.02-.07-.04-.11c-.02-.07-.06-.14-.1-.2-.09-.12-.2-.23-.34-.3-.07-.04-.14-.06-.21-.08-.04,0-.07-.01-.11-.01h-.06s-.02,0-.04,0h-.04c-1.83,0-3.7.01-5.56.02-1.86,0-3.72-.01-5.56-.02h-.04s-.01,0-.01,0c0,0,0,0,0,0h-.09s-.04,0-.06.01h-.04c-.07.03-.15.05-.21.08-.14.07-.25.17-.34.3-.08.13-.14.27-.15.42v.06s0,.02,0,.04v.04s0,.17,0,.17v.34c-.01.9-.02,1.79-.03,2.66-.01,1.75-.04,3.43-.06,5.03-.01.8-.02,1.58-.04,2.33-.02.75-.03,1.48-.04,2.18-.03,1.4-.06,2.68-.09,3.81-.03,1.13-.06,2.12-.08,2.94-.02.81-.05,1.45-.07,1.89-.02.44-.03.67-.03.67,0,0,0-.23-.02-.67-.02-.44-.04-1.08-.07-1.89-.03-.81-.06-1.8-.08-2.94-.03-1.13-.06-2.42-.09-3.81-.01-.7-.03-1.43-.04-2.18-.01-.75-.02-1.53-.04-2.33-.02-1.6-.05-3.29-.06-5.03,0-.87-.02-1.76-.02-2.66v-.34s0-.17,0-.17v-.04s0-.03,0-.05v-.11c.02-.3.13-.59.29-.85.17-.25.4-.46.67-.6.13-.07.28-.12.43-.15.04,0,.08-.01.13-.02.04,0,.09-.01.11-.01h.09s.04,0,.04,0h.02s.04,0,.04,0c1.83,0,3.7-.01,5.56-.02,1.86,0,3.72.01,5.56.02h.04s.03,0,.05,0h.11c.08.01.15.03.23.04.15.04.3.08.43.15.27.14.5.35.67.6.08.13.15.26.2.41.03.07.04.15.06.22,0,.04.01.08.02.12,0,.04.01.09.01.11v.08s0,.04,0,.04v.02Zm19.43,0v.04s0,.17,0,.17v.34c-.01.9-.02,1.79-.03,2.66-.01,1.75-.04,3.43-.06,5.03-.01.8-.02,1.58-.04,2.33-.02.75-.03,1.48-.04,2.18-.03,1.4-.06,2.68-.09,3.81-.03,1.13-.06,2.12-.08,2.94-.02.81-.05,1.45-.07,1.89-.02.44-.02.67-.02.67,0,0,0-.23-.03-.67-.01-.44-.04-1.08-.07-1.89-.02-.81-.06-1.8-.08-2.94-.03-1.13-.06-2.42-.09-3.81-.01-.7-.03-1.43-.04-2.18-.01-.75-.02-1.53-.04-2.33-.02-1.6-.05-3.29-.06-5.03,0-.87-.02-1.76-.02-2.66v-.34s0-.17,0-.17v-.04s0-.03,0-.04v-.06c-.01-.15-.07-.3-.16-.42-.09-.12-.2-.23-.34-.3-.07-.04-.14-.06-.21-.08h-.04s-.02-.01-.06-.01h-.09s0,0,0,0h-.01s-.04,0-.04,0c-1.83,0-3.7.01-5.56.02-1.86,0-3.72-.01-5.56-.02h-.04s-.03,0-.04,0h-.06s-.08.01-.11.02c-.07.02-.15.04-.21.08-.14.06-.25.17-.34.3-.04.06-.08.13-.1.2-.02.03-.02.07-.03.11v.04s-.01.02-.02.06v.08s0,.01,0,.01h0s0,.05,0,.05v.17s0,.34,0,.34c0,.9-.02,1.79-.02,2.66-.01,1.75-.04,3.43-.06,5.03-.02,1.6-.05,3.11-.08,4.51-.03,1.4-.06,2.68-.09,3.81-.03,1.13-.06,2.12-.08,2.94-.02.81-.05,1.45-.07,1.89-.02.44-.02.67-.02.67,0,0,0-.23-.02-.67-.01-.44-.04-1.08-.07-1.89-.02-.81-.06-1.8-.08-2.94-.03-1.13-.06-2.42-.09-3.81-.03-1.4-.06-2.91-.08-4.51-.02-1.6-.05-3.29-.06-5.03,0-.87-.02-1.76-.02-2.66v-.34s0-.17,0-.17v-.04s0-.02,0-.02v-.04s0-.08,0-.08c0-.02,0-.07.01-.11,0-.04.01-.08.02-.12.02-.07.03-.15.06-.22.05-.14.12-.28.2-.41.17-.25.4-.46.67-.6.13-.07.28-.12.43-.15.07-.01.15-.03.23-.03h.11s.04,0,.05,0h.04c1.83,0,3.7-.01,5.56-.02,1.86,0,3.72.01,5.56.02h.04s.02,0,.02,0h.04s.09,0,.09,0c.02,0,.07,0,.11.01.04,0,.09.01.13.02.15.04.3.08.43.15.27.14.5.35.67.6.16.25.27.55.29.85v.11s0,.04,0,.05Z"/>
    </g>
  </g>
</svg>