<?xml version="1.0" encoding="UTF-8"?>
<svg id="Capa_2" data-name="Capa 2" xmlns="http://www.w3.org/2000/svg" viewBox="0 0 215.25 225.95">
  <defs>
    <style>
      .cls-1 {
        fill-rule: evenodd;
      }
    </style>
  </defs>
  <g id="Capa_1-2" data-name="Capa 1">
    <path class="cls-1" d="m156.71,55.14v35.1c0,9.82-2.48,19.47-7.22,28.07l-7.25,13.18h-39.72c-.06,0-.11,0-.16,0l-35.29-12.66c-2.69-.97-5.44-1.69-8.21-2.18l-8.03-29.95h15.39c2.15,0,3.9-1.74,3.9-3.9v-11.58c0-3.3-1.31-6.47-3.65-8.81-2.34-2.34-5.51-3.65-8.81-3.65H15.9c-3.31,0-6.47,1.31-8.81,3.65-2.34,2.34-3.65,5.51-3.65,8.81v11.58c0,2.15,1.74,3.9,3.9,3.9h18.3l8.15,31.93c-4.4,1.52-8.61,3.65-12.5,6.39C7.94,134.4,0,149.7,0,166.01v.02c0,13.13,5.17,25.73,14.38,35.07v20.95c0,2.15,1.74,3.9,3.9,3.9h26.71c2.15,0,3.9-1.74,3.9-3.9v-6.08c.35,0,.71.01,1.06.01h92.36v6.07c0,2.15,1.74,3.9,3.9,3.9h26.71c2.15,0,3.89-1.74,3.89-3.9v-77.95c0-3.34-1.33-6.55-3.69-8.92-1.27-1.27-2.79-2.24-4.44-2.87l4.72-10.37c4.47-9.82,6.78-20.48,6.78-31.27v-39.21l31.68-31.68c2.26-2.26,3.49-5.35,3.39-8.54-.09-3.19-1.5-6.21-3.89-8.33h0c-4.57-4.05-11.49-3.87-15.83.42l-29.37,28.99h-44.02c-6.3,0-11.4,5.1-11.4,11.4h0c0,6.31,5.1,11.41,11.4,11.41h34.57ZM22.17,207.55v10.61h18.92v-2.96c-6.77-1.22-13.21-3.82-18.92-7.64h0Zm146.84-2.87c-4.77,5.56-11.4,9.48-18.92,10.81v2.67h18.92v-13.48h0Zm0-23.69v2.62c0,13.58-11,24.58-24.58,24.58H49.94c-11.18,0-21.9-4.44-29.81-12.35-7.91-7.91-12.35-18.63-12.35-29.81v-.02c0-13.78,6.71-26.7,17.98-34.63,11.27-7.93,25.69-9.88,38.66-5.22,31.27,11.22,67.02,24.05,88.3,31.69,9.76,3.5,16.28,12.76,16.28,23.14h0Zm-94.65-3.17l19.24,6.02v4.66c0,2.15,1.75,3.9,3.9,3.9h37.27c2.15,0,3.9-1.74,3.9-3.9v-15.05c0-2.15-1.74-3.9-3.9-3.9h-37.27c-2.15,0-3.9,1.75-3.9,3.9v2.22l-16.91-5.29c.24-1.45.36-2.94.36-4.47,0-15.26-12.39-27.64-27.64-27.64s-27.64,12.39-27.64,27.64,12.39,27.64,27.64,27.64c11,0,20.5-6.44,24.95-15.74h0Zm-5.21-9.8c.07-.69.11-1.39.11-2.11,0-10.96-8.9-19.85-19.85-19.85s-19.85,8.9-19.85,19.85,8.9,19.85,19.85,19.85c7.5,0,14.03-4.17,17.41-10.31l-18.57-5.81c-2.05-.64-3.2-2.83-2.55-4.88.64-2.05,2.83-3.2,4.88-2.55l18.58,5.81h0Zm32.24,12.88s0,.1,0,.15v3.55h29.48v-7.25h-29.48v3.55h0Zm22.66-41.62l31.32,11.24c5.41,1.94,10.07,5.23,13.64,9.4v-15.82c0-1.28-.51-2.5-1.41-3.41-.9-.9-2.13-1.41-3.41-1.41h-40.14Zm40.45-84.14v35.1c0,11.13-2.81,22.08-8.18,31.83l-5.19,9.42h9.35l5.82-12.77c4.01-8.8,6.08-18.37,6.08-28.04v-35.53h-7.89Zm-113.91,60.74l-7.83-29.19h-9.08l7.65,29.97c3.05-.54,6.15-.8,9.26-.78h0Zm11.74-44.67v7.68H11.24v-7.68c0-1.24.49-2.43,1.37-3.3.88-.88,2.06-1.37,3.3-1.37h41.76c1.24,0,2.43.49,3.3,1.37s1.37,2.06,1.37,3.3h0Zm110.95-23.86h-51.15c-1.99,0-3.61-1.62-3.61-3.61h0c0-2,1.61-3.62,3.61-3.62h45.62c1.02,0,2.01-.4,2.74-1.12,0,0,20.65-20.38,30.5-30.12,1.42-1.4,3.69-1.46,5.18-.14h0c.78.7,1.25,1.69,1.28,2.73.03,1.05-.37,2.06-1.11,2.8l-33.07,33.07h0Z"/>
  </g>
</svg>