<?xml version="1.0" encoding="UTF-8"?>
<svg id="Capa_2" data-name="Capa 2" xmlns="http://www.w3.org/2000/svg" viewBox="0 0 43.48 41.66">
  <defs>
    <style>
      .cls-1 {
        fill: #2d3540;
      }
    </style>
  </defs>
  <g id="Layer_1" data-name="Layer 1">
    <g>
      <path class="cls-1" d="m27.84,2.18c-3.51-3.15-8.93-2.86-12.08.65L2.18,17.97c-3.15,3.51-2.86,8.93.65,12.08,3.51,3.15,8.93,2.86,12.08-.65l13.58-15.13c3.15-3.51,2.86-8.93-.65-12.08Zm-1.85,9.83l-6.79,7.57-6.8-6.11-7.07,7.88-.15.17c-.33.43-.57.9-.73,1.4-.08.24-.13.49-.17.74-.04.25-.06.49-.06.72,0,.24.01.47.04.69.03.22.07.43.12.62.09.39.23.73.36,1.01.06.14.13.26.18.37.06.11.11.2.16.27.05.07.08.13.1.17.02.04.04.06.04.06l-.04.05s-.05-.04-.08-.07c-2.13-1.91-2.3-5.19-.39-7.32l13.58-15.13c1.91-2.13,5.19-2.3,7.32-.39,2.13,1.91,2.3,5.19.39,7.32Z"/>
      <path class="cls-1" d="m26.01,31.11c-.87,4.32,1.58,8.54,5.59,10.01l3.43-17.09c-4.27-.19-8.16,2.76-9.02,7.08Z"/>
      <path class="cls-1" d="m37.71,24.57l-3.43,17.09c4.27.19,8.16-2.76,9.02-7.08s-1.58-8.54-5.59-10.01Z"/>
    </g>
  </g>
</svg>