<?xml version="1.0" encoding="UTF-8"?>
<svg id="Capa_2" data-name="Capa 2" xmlns="http://www.w3.org/2000/svg" viewBox="0 0 225.13 225.95">
  <defs>
    <style>
      .cls-1 {
        fill-rule: evenodd;
      }
    </style>
  </defs>
  <g id="Capa_1-2" data-name="Capa 1">
    <path class="cls-1" d="m152.83,62.87c-7.41-6.83-15.39-12.37-25.42-12.49-12.06-.15-27.67,7.63-49.29,32.54C47.86,117.78,15.35,161.77,4.21,190.69c-3.09,8.02-4.55,14.98-4.14,20.41.33,4.37,1.81,7.88,4.4,10.47,2.59,2.59,6.15,4.06,10.6,4.34,5.5.34,12.58-1.21,20.72-4.39,29.44-11.51,74.05-44.48,107.34-73.62,24.81-21.72,32.59-37.32,32.46-49.35-.11-10.42-6.07-18.61-13.28-26.26l60.28-22.27c2.02-.75,3.05-2.99,2.3-5.01-.75-2.02-2.99-3.05-5-2.3l-49.23,18.19,40.34-40.34c1.52-1.52,1.52-3.99,0-5.51-1.52-1.52-3.99-1.52-5.51,0l-42.31,42.31,19.25-52.11c.74-2.02-.29-4.26-2.3-5.01s-4.26.29-5,2.3l-22.29,60.32h0Zm-24.46,87.42c3.29-2.77,6.5-5.53,9.61-8.26,22.11-19.36,29.92-32.68,29.81-43.41-.11-10.35-7.76-17.7-15.22-25.17-7.47-7.47-14.87-15.16-25.25-15.29-7.33-.09-15.86,3.52-26.67,12.88l25.96,25.96.67.72c2.43,2.81,1.19,4.83.28,5.74-.91.91-2.94,2.15-5.74-.28l-.5-.45-.23-.22-26.18-26.18c-3.42,3.35-7.05,7.23-10.92,11.69-10.71,12.34-21.73,25.84-31.95,39.39l21.9,21.9.56.59c2.56,2.87,1.28,4.93.37,5.84-.91.91-2.97,2.19-5.84-.36l-.4-.38-.19-.19-21.09-21.1c-16.02,21.8-29.52,43.26-35.87,59.76-2.18,5.66-3.51,10.69-3.67,14.87-.13,3.26.4,5.93,2.17,7.7,1.77,1.77,4.47,2.25,7.78,2.08,4.27-.22,9.41-1.62,15.19-3.88,7.96-3.11,17.04-7.83,26.71-13.64l-17.98-17.98c-1.52-1.52-1.52-3.99,0-5.51,1.52-1.52,3.99-1.52,5.51,0l19.28,19.28c18.21-11.55,37.97-26.34,55.9-41.12l-26.68-26.68c-1.52-1.52-1.52-3.99,0-5.51,1.52-1.52,3.99-1.52,5.51,0l27.18,27.18h0Z"/>
  </g>
</svg>