<?xml version="1.0" encoding="UTF-8"?>
<svg id="Capa_2" data-name="Capa 2" xmlns="http://www.w3.org/2000/svg" viewBox="0 0 195.94 225.96">
  <defs>
    <style>
      .cls-1 {
        fill-rule: evenodd;
      }
    </style>
  </defs>
  <g id="Capa_1-2" data-name="Capa 1">
    <path class="cls-1" d="m188.15,69.6c0-7.58-6.14-13.72-13.72-13.72H3.9c-2.15,0-3.9-1.74-3.9-3.9V3.9C0,1.74,1.74,0,3.9,0h165.16c7.13,0,13.97,2.83,19.01,7.87,5.04,5.04,7.87,11.88,7.87,19.01v86.94c0,7.13-2.83,13.97-7.87,19.01-5.04,5.04-11.88,7.87-19.01,7.87H21.51c-7.58,0-13.72,6.14-13.72,13.72v2.02c0,7.58,6.14,13.72,13.72,13.72h170.53c2.15,0,3.9,1.74,3.9,3.9v48c0,2.15-1.74,3.9-3.9,3.9H26.88c-14.85,0-26.88-12.04-26.88-26.88v-86.97c0-14.85,12.04-26.88,26.88-26.88h147.54c3.64,0,7.13-1.45,9.7-4.02,2.57-2.57,4.02-6.06,4.02-9.7v-1.9h0Zm-33.2,148.57h33.2v-40.21H21.51c-5.22,0-10-1.86-13.72-4.94v26.06c0,10.54,8.55,19.09,19.09,19.09h23.95v-18.66c0-2.15,1.75-3.9,3.9-3.9s3.9,1.75,3.9,3.9v18.66h40.37v-18.66c0-2.15,1.74-3.9,3.9-3.9s3.9,1.75,3.9,3.9v18.66h40.37v-18.66c0-2.15,1.75-3.9,3.9-3.9s3.9,1.75,3.9,3.9v18.66h0Zm0-85.25h14.11c5.06,0,9.92-2.01,13.5-5.59,3.58-3.58,5.59-8.44,5.59-13.5v-25.76c-3.84,3.18-8.69,4.95-13.72,4.95H26.88c-10.54,0-19.09,8.55-19.09,19.09v25.76c3.72-3.09,8.5-4.94,13.72-4.94h29.33v-19.94c0-2.15,1.75-3.9,3.9-3.9s3.9,1.75,3.9,3.9v19.94h40.37v-19.94c0-2.15,1.74-3.9,3.9-3.9s3.9,1.75,3.9,3.9v19.94h40.37v-19.94c0-2.15,1.75-3.9,3.9-3.9s3.9,1.75,3.9,3.9v19.94h0Zm0-84.83h19.48c5.21,0,9.99,1.86,13.72,4.94v-26.14c0-5.06-2.01-9.92-5.59-13.5-3.58-3.58-8.44-5.59-13.5-5.59H7.79v40.29h43.05v-20.17c0-2.15,1.75-3.9,3.9-3.9s3.9,1.75,3.9,3.9v20.17h40.37v-20.17c0-2.15,1.74-3.9,3.9-3.9s3.9,1.75,3.9,3.9v20.17h40.37v-20.17c0-2.15,1.75-3.9,3.9-3.9s3.9,1.75,3.9,3.9v20.17h0Z"/>
  </g>
</svg>