<?xml version="1.0" encoding="UTF-8"?>
<svg id="Capa_2" data-name="Capa 2" xmlns="http://www.w3.org/2000/svg" viewBox="0 0 225.02 225.96">
  <defs>
    <style>
      .cls-1 {
        fill-rule: evenodd;
      }
    </style>
  </defs>
  <g id="Capa_1-2" data-name="Capa 1">
    <path class="cls-1" d="m155.55,64.9l-6.38,6.38c-15.85-14.53-36.96-23.4-60.13-23.4C39.9,47.88,0,87.78,0,136.92s39.9,89.04,89.04,89.04,89.04-39.9,89.04-89.04c0-23.17-8.87-44.28-23.4-60.13l6.5-6.5,27.97.11c1.03,0,2.03-.4,2.76-1.13l31.97-31.71c1.12-1.11,1.46-2.78.86-4.24-.6-1.46-2.01-2.41-3.59-2.42l-25.96-.1V3.9c0-1.58-.95-3-2.4-3.6-1.46-.6-3.13-.27-4.25.84l-31.84,31.84c-.73.73-1.14,1.72-1.14,2.76v29.16h0Zm-11.89,11.89c-14.43-13.12-33.6-21.12-54.62-21.12-44.84,0-81.24,36.4-81.24,81.24s36.4,81.24,81.24,81.24,81.24-36.4,81.24-81.24c0-21.02-8-40.19-21.12-54.62l-13.55,13.55c9.67,10.95,15.53,25.33,15.53,41.07,0,34.28-27.83,62.11-62.11,62.11s-62.11-27.83-62.11-62.11,27.83-62.11,62.11-62.11c15.74,0,30.12,5.87,41.07,15.53l13.55-13.55h0Zm-19.07,19.07c-9.53-8.26-21.96-13.26-35.55-13.26-29.98,0-54.32,24.34-54.32,54.32s24.34,54.32,54.32,54.32,54.32-24.34,54.32-54.32c0-13.59-5-26.02-13.26-35.55l-13.94,13.94c4.73,5.93,7.56,13.44,7.56,21.61,0,19.14-15.54,34.68-34.68,34.68s-34.68-15.54-34.68-34.68,15.54-34.68,34.68-34.68c8.17,0,15.68,2.83,21.61,7.56l13.94-13.94h0Zm-19.5,19.5c-4.48-3.34-10.04-5.32-16.05-5.32-14.84,0-26.89,12.05-26.89,26.89s12.05,26.89,26.89,26.89,26.88-12.05,26.88-26.89c0-6.02-1.98-11.57-5.32-16.05l-18.81,18.81c-1.52,1.52-3.99,1.52-5.51,0-1.52-1.52-1.52-3.99,0-5.51l18.81-18.81h0Zm90.63-60.85l-18.69-.07-8.1,8.1c8.16.03,18.62.08,18.62.08l8.16-8.1h0Zm-32.38-17.16v19.76l8.13-8.13v-19.76l-8.13,8.13h0Zm29.55,1.23l-8.1,8.1,18.75.08,8.16-8.1-18.81-.08h0Zm-13.63-17.15v19.76l8.13-8.13V13.3l-8.13,8.13h0Z"/>
  </g>
</svg>