<?xml version="1.0" encoding="UTF-8"?>
<svg id="Capa_2" data-name="Capa 2" xmlns="http://www.w3.org/2000/svg" viewBox="0 0 67.94 45.2">
  <defs>
    <style>
      .cls-1 {
        fill: #3fc1c9;
      }
    </style>
  </defs>
  <g id="Layer_1" data-name="Layer 1">
    <g>
      <path class="cls-1" d="m67.17,35.25l-3.29-1.64-3.12,6.26,3.29,1.64c.69.34,1.53.06,1.88-.63l1.87-3.75c.34-.69.06-1.53-.63-1.88Z"/>
      <path class="cls-1" d="m2.02,4.33L.15,8.08c-.31.62-.12,1.35.41,1.74.07.05.14.09.21.13l3.29,1.64,3.12-6.26-3.29-1.64c-.69-.34-1.53-.06-1.87.63Z"/>
      <rect class="cls-1" x="30.48" y="8.17" width="6.99" height="28.86" transform="translate(-1.41 42.92) rotate(-63.5)"/>
      <path class="cls-1" d="m16.3,1.88L12.82.15c-.69-.34-1.53-.06-1.88.63L2.69,17.35c-.23.46-.18.98.08,1.38.13.2.32.38.55.49l3.48,1.74c.34.17.72.19,1.05.08L17,2.68c-.04-.11-.08-.21-.14-.3-.13-.21-.32-.38-.55-.5Z"/>
      <path class="cls-1" d="m24.86,2.44l-3.75-1.87c-.69-.34-1.53-.06-1.88.63L8,23.71c-.34.69-.06,1.53.63,1.88l3.75,1.87c.69.34,1.53.06,1.87-.63L25.48,4.31c.11-.22.16-.45.15-.68h0s0,0,0,0c-.02-.49-.3-.95-.77-1.19Z"/>
      <path class="cls-1" d="m51.64,43.32l3.48,1.73c.54.27,1.17.16,1.59-.24.12-.11.21-.24.29-.39l8.26-16.57c.17-.34.19-.71.08-1.04-.03-.08-.06-.17-.1-.24h0s0,0,0,0c-.13-.25-.34-.46-.61-.59l-3.48-1.73c-.34-.17-.72-.19-1.05-.08l-9.16,18.36c.12.33.36.62.7.79Z"/>
      <path class="cls-1" d="m43.09,42.77l3.75,1.87c.69.34,1.53.06,1.88-.63l11.23-22.52c.12-.23.16-.48.14-.72h0c-.03-.48-.31-.92-.77-1.15l-3.75-1.87c-.69-.34-1.53-.06-1.87.63l-11.23,22.52c-.34.69-.06,1.53.63,1.88Z"/>
    </g>
  </g>
</svg>