<?xml version="1.0" encoding="UTF-8"?>
<svg id="Capa_2" data-name="Capa 2" xmlns="http://www.w3.org/2000/svg" viewBox="0 0 65.17 38.39">
  <defs>
    <style>
      .cls-1 {
        fill: #2d3540;
      }
    </style>
  </defs>
  <g id="Layer_1" data-name="Layer 1">
    <g>
      <path class="cls-1" d="m65.01,15.79c-.62-2.54-3.05-4.97-5.53-5.2-1.96-.19-3.71,1.02-4.69.53-.22-2.09-1.11-4.06-2.55-5.59-.49-.52-1.07-1.06-1.73-1.57-2.2-1.72-4.18-2.39-5.67-2.93-1.14-.41-2.43-.91-4.17-.98-1.15-.1-2.76-.07-4.5.59-2.32.87-4.2,2.6-3.98,3.02,0,0,0,0,0,0-.14.16-.27.33-.4.5-.45.61-.91,1.27-1.37,1.96-.53.81-1.01,1.61-1.44,2.37-.5.88-.78,1.87-.83,2.88-.02.39-.04.79-.06,1.18-.47.61-.91,1.08-1.25,1.42-.6.6-.9.89-1.25,1.04-.35.14-.65.17-1.01.46-.24.19-.4.4-.49.55-.04.07-.22.44-.07.87.1.29.3.46.38.53.1.04.61.27.79.81.06.19.06.37.05.49-.32.38-.63.76-.95,1.13-.03.06-.16.35-.06.67l-1.02-.07v-.12c.01-.09-.04-.18-.13-.19-.1-.02-.19.06-.2.16v.03c-.24-.1-.56-.38-.6-.43-.21-.15-.41-.31-.62-.46-1.56-.91-3.26-1.56-5.03-1.91-.67-.13-1.34-.22-2.02-.27l-11.1-.79c-.82-.06-1.64.07-2.41.36-.31.12-.57.36-.69.67-.16.41-.07.86.21,1.18l.48.56c.21.24.3.55.28.84-.02.3-.16.59-.4.8l-.56.48c-.32.28-.47.71-.37,1.14.07.33.29.6.58.76.72.4,1.51.64,2.33.7l10.59.75c.01-.13.02-.26.02-.39,0-.41.02-.88.4-1.37.46-.58,1.29-1.03,1.95-.74.51.23.73.68.68,2.52,1.63-.14,3.22-.52,4.74-1.14.23-.12.45-.25.68-.37.04-.04.4-.27.65-.34v.02c0,.09.05.18.14.19.1.02.19-.06.2-.16v-.13s1.17.08,1.17.08c-.07.14-.11.35-.09.65.03.02.68.47.96.78.07.08.12.19.17.3.04.08.05.18.02.27-.12.37-.38,1.42.29,2.35.6.85,1.54.99,1.71,1.01.76.01,1.59,0,2.48-.07.35-.03.69-.06,1.02-.1,1.29-.15,2.47.76,2.64,2.05.24,1.8.43,4.11.52,5.75.04.74.52,1.4,1.22,1.65.81.29,1.86.56,3.09.61,1.55.07,2.87-.23,3.84-.56.64-.22,1.11-.76,1.24-1.42.38-1.95.4-1.52.92-3.75.36-1.56,1.08-3,2.11-4.22.29.01.85-.29,2.38-1.79,1.8-1.78,2.72-2.69,3.7-4.34.7-1.18,1.18-2.32,1.52-3.33.25-.59.44-1.21.56-1.84.11-.55.2-1.15.27-1.79.02,0,.05-.01.08-.02,1.03-.16,2.44,1.66,2.93,3.53.76,2.92-1.37,4.51-1.92,8.49-.51,3.65.39,6.71.74,6.71.33,0,.02-2.76,1.55-5.65,1.03-1.94,1.96-2.07,3.5-3.91,1.36-1.62,4.25-4.99,3.4-8.48Zm-39.09,6.24c-.03.11-.3.19-.82.36-.3.1-.47.14-.59.18-.02-.54.01-1.07.1-1.6,1.13.6,1.36.89,1.31,1.05Z"/>
      <path class="cls-1" d="m15.69,22.73c-.38-.17-.98.2-1.28.58-.48.6-.13,1.15-.42,2.01l-3.84-.27c-.07.44-.13.78-.17.99-.17.96-.38,1.97-.07,3.25.18.73.37.9.52,1.3,0,0,.02.05.04.12,0,0,.04.14.08.29.12.52.14,5.77,2.25,7.05.71.43,1.75.46,2.11.04.18-.21.15-.49.08-1.04-.26-2.05-.42-3.41-.43-4.54,0-.67.06-1.2.13-1.64.14-.03.26-.08.38-.14.4-.23.6-.66.84-3.66.3-3.72.09-4.19-.21-4.32Z"/>
      <path class="cls-1" d="m11.78,16.23c-.36-.04-.68.22-.73.57l1.32.09c0-.34-.25-.63-.6-.66Z"/>
      <path class="cls-1" d="m14.07,16.55c.04-.39-.25-.74-.64-.78-.39-.04-.74.25-.78.64l-.05.5,1.43.1.05-.46Z"/>
      <path class="cls-1" d="m15.76,17.17l.09-.45c.08-.39-.18-.76-.57-.84-.39-.08-.76.18-.84.57l-.11.58.27.02c.39.03.78.07,1.16.13Z"/>
      <path class="cls-1" d="m17.34,17.48c.01-.3-.18-.59-.48-.67-.34-.1-.69.09-.81.41.2.03.39.07.59.1.23.05.47.1.7.16Z"/>
    </g>
  </g>
</svg>