<?xml version="1.0" encoding="UTF-8"?>
<svg id="Capa_2" data-name="Capa 2" xmlns="http://www.w3.org/2000/svg" viewBox="0 0 37.65 85">
  <defs>
    <style>
      .cls-1 {
        fill: #515151;
      }
    </style>
  </defs>
  <g id="Layer_1" data-name="Layer 1">
    <g>
      <polygon class="cls-1" points="14.43 70.88 23.22 70.88 23.22 23.05 14.43 23.05 14.43 70.88 14.43 70.88"/>
      <path class="cls-1" d="m26.02,72.27c0,.77-.63,1.4-1.4,1.4h-11.59c-.77,0-1.4-.63-1.4-1.4V21.65c0-.77.63-1.4,1.4-1.4h11.59c.77,0,1.4.63,1.4,1.4v50.62h0Zm5.95-37.04c.94-.94,2.18-1.45,3.51-1.45.41,0,.81-.11,1.15-.33.64-.4,1.02-1.09,1.02-1.84v-10.57c0-3.47-2.83-6.3-6.3-6.3-.77,0-1.4-.63-1.4-1.4v-5.21c0-.08,0-.15,0-.23H7.7c0,.08,0,.15,0,.23v5.21c0,.77-.63,1.4-1.4,1.4-3.47,0-6.3,2.83-6.3,6.3v10.57c0,.58.23,1.13.64,1.54.12.12.24.22.38.3.34.22.74.33,1.15.33,1.32,0,2.56.51,3.5,1.41.95.92,1.48,2.17,1.48,3.49v9.01c0,1.33-.52,2.57-1.45,3.51-.24.24-.5.46-.78.64-.8.53-1.74.81-2.71.82-1.2,0-2.18.98-2.18,2.17v17.72c0,6.86,5.58,12.44,12.44,12.44h12.77c6.86,0,12.44-5.58,12.44-12.44v-17.72c0-.58-.23-1.13-.64-1.54-.41-.41-.96-.64-1.54-.64-.98,0-1.92-.28-2.73-.82-1.4-.92-2.23-2.47-2.23-4.15v-8.96c0-1.33.52-2.57,1.45-3.51h0Z"/>
      <path class="cls-1" d="m19.76,0h-1.87c-1.91,0-3.46,1.55-3.46,3.46v1.6h8.8v-1.6c0-1.91-1.55-3.46-3.46-3.46h0Z"/>
    </g>
  </g>
</svg>