<?xml version="1.0" encoding="UTF-8"?>
<svg id="Capa_2" data-name="Capa 2" xmlns="http://www.w3.org/2000/svg" viewBox="0 0 36 69.8">
  <defs>
    <style>
      .cls-1 {
        fill: #2d3540;
      }
    </style>
  </defs>
  <g id="Layer_1" data-name="Layer 1">
    <g>
      <circle class="cls-1" cx="18" cy="18.24" r="6.1"/>
      <path class="cls-1" d="m34.54,13.14l-13.65-7.87v-2.37c0-1.6-1.3-2.9-2.9-2.9s-2.9,1.3-2.9,2.9v2.37L1.45,13.14c-1.19.69-1.73,2.11-1.31,3.42.91,2.77,2.86,6.75,6.95,10.02,2.31,1.84,4.68,2.94,6.76,3.61v12.53l-10.49,6.08s0,0,0,0c-.03.02-.05.03-.08.05-.01,0-.03.02-.04.03-.03.02-.05.03-.08.05-.01,0-.03.02-.04.03-.01.01-.03.02-.04.03-.05.04-.1.08-.15.12,0,0-.02.01-.02.02-.02.02-.05.05-.07.07-.01,0-.02.02-.03.03-.02.02-.04.04-.06.06-.01.01-.02.02-.04.04-.02.02-.04.04-.05.06-.01.02-.03.03-.04.05-.01.02-.03.04-.04.05-.02.02-.03.04-.05.06-.01.02-.02.03-.03.05-.02.02-.03.05-.05.07,0,.01-.02.03-.03.04-.02.03-.04.05-.05.08,0,0-.01.02-.02.03-.02.03-.04.06-.05.09,0,0,0,0,0,.01-.05.09-.1.19-.14.3-.01.03-.02.05-.03.08,0,.02-.01.04-.02.05,0,.03-.02.06-.03.08,0,0,0,0,0,.01,0,.02,0,.03-.01.05,0,.03-.01.05-.02.08,0,.03-.01.05-.02.07,0,.02,0,.04-.01.06,0,.03-.01.06-.02.09,0,.02,0,.03,0,.05,0,.03,0,.06-.01.09,0,.01,0,.03,0,.04,0,.03,0,.07,0,.1,0,.01,0,.03,0,.04,0,.03,0,.07,0,.1,0,.01,0,.03,0,.04,0,.03,0,.06,0,.09,0,.02,0,.03,0,.05,0,.03,0,.06,0,.08,0,.02,0,.04,0,.06,0,.02,0,.05,0,.07,0,.02,0,.05,0,.07,0,.02,0,.04,0,.06,0,.03,0,.05.01.08,0,.02,0,.03.01.05,0,.03.01.06.02.09,0,.02,0,.03.01.05,0,.03.02.06.03.09,0,.01,0,.03.01.04,0,.03.02.06.03.09,0,.01.01.03.02.04.01.03.02.06.03.09,0,.02.01.03.02.05.01.03.02.05.03.08,0,.02.02.04.03.06.01.02.02.04.03.07.01.02.03.05.04.07,0,.01.02.03.02.04,0,0,0,0,0,0,.03.05.06.1.09.15,0,.01.02.02.03.04.03.04.05.07.08.11.01.01.02.03.03.04.03.04.07.09.11.13,0,0,.02.02.03.03.03.03.06.06.09.1.01.01.03.03.04.04.03.03.06.06.09.08.01.01.02.02.04.03.04.04.09.07.13.1.01,0,.02.01.03.02.04.03.07.05.11.08.01,0,.03.02.04.03.04.02.07.05.11.07.01,0,.02.01.04.02.05.03.1.05.15.08,0,0,.01,0,.02,0,.04.02.09.04.13.06.02,0,.04.01.05.02.03.01.07.03.11.04.02,0,.04.01.06.02.01,0,.02,0,.03.01l13.17,4.08s.07.02.1.03c-.12,2.76-.41,5.52-.87,8.24-.27,1.58.8,3.07,2.38,3.34.16.03.33.04.49.04,1.39,0,2.62-1,2.85-2.42.79-4.65,1.11-9.39.98-14.09-.09-3.22-.41-6.46-.93-9.65v-13.46c2.07-.66,4.45-1.77,6.76-3.61,4.1-3.26,6.04-7.25,6.95-10.02.43-1.3-.12-2.73-1.31-3.42ZM12,50.49l4.85-2.81c.17,1.47.3,2.95.37,4.43l-5.22-1.62Zm13.28-28.45c-2.05,1.64-4.19,2.47-5.9,2.9-.43-.15-.9-.24-1.39-.24s-.95.08-1.39.24c-1.71-.43-3.84-1.26-5.9-2.9-2.06-1.64-3.36-3.55-4.16-5.15l11.45-6.61,11.45,6.61c-.81,1.59-2.11,3.51-4.16,5.15Z"/>
    </g>
  </g>
</svg>