<?xml version="1.0" encoding="UTF-8"?>
<svg id="Capa_2" data-name="Capa 2" xmlns="http://www.w3.org/2000/svg" viewBox="0 0 59.79 24.38">
  <defs>
    <style>
      .cls-1 {
        fill: #2d3540;
      }
    </style>
  </defs>
  <g id="Layer_1" data-name="Layer 1">
    <path class="cls-1" d="m59.51,2.87c-1.79.8-3.59,1.37-5.39,1.76,0,0,0,0,0,0l-.16,8.09c0,.41-.35.74-.76.74,0,0,0,0-.01,0-.42,0-.75-.35-.74-.77l.15-7.77s0,0,0,0c-2.05.34-4.11.45-6.16.41v4.77c0,.23-.19.41-.41.41s-.41-.19-.41-.41v-4.8c-2.08-.09-4.17-.33-6.25-.67,0,0,0,0,0,0l-.06,7.83c0,.42-.34.75-.76.75h0c-.42,0-.76-.34-.75-.76l.06-8.08s0,0,0,0c-2.11-.38-4.21-.85-6.32-1.33v4.99c0,.23-.19.41-.41.41s-.41-.19-.41-.41V2.85c-2.03-.47-4.07-.94-6.1-1.37,0,0,0,0,0,0l.04,7.59c0,.42-.34.76-.75.76s-.76-.34-.76-.75l-.04-7.9s0,0,0,0c-2.02-.39-4.04-.72-6.05-.93l.11,4.85c0,.23-.18.42-.4.42,0,0,0,0,0,0-.22,0-.41-.18-.41-.4l-.11-4.95C14.07-.02,11.95-.06,9.83.1c0,0,0,0,0,0l.13,7.76c0,.42-.33.76-.74.77,0,0,0,0-.01,0-.41,0-.75-.33-.76-.74l-.13-7.63s0,0,0,0C5.58.6,2.85,1.32.12,2.55.04,2.58,0,2.65,0,2.73c.15,6.29.3,12.59.45,18.88,0,.08.05.15.12.18,5.67,2.6,11.38,2.94,17.09,2.33.1-.01.18-.1.18-.2v-4.54s0,0,0,0c13.8,1.52,27.69,8.44,41.38,2.17.07-.03.12-.1.12-.18.15-6.11.3-12.21.45-18.32,0-.15-.15-.25-.28-.19ZM16.91,22.85c0,.1-.08.19-.18.2-5.07.54-10.14.33-15.18-1.54-.11-.04-.12-.2,0-.25,5.1-2.1,10.22-2.44,15.36-1.97,0,0,0,0,0,0v3.56Z"/>
  </g>
</svg>