<?xml version="1.0" encoding="UTF-8"?>
<svg id="Capa_2" data-name="Capa 2" xmlns="http://www.w3.org/2000/svg" viewBox="0 0 67.95 37.81">
  <defs>
    <style>
      .cls-1 {
        fill: #2d3540;
      }
    </style>
  </defs>
  <g id="Layer_1" data-name="Layer 1">
    <g>
      <path class="cls-1" d="m48.19,20.34c0-3.83-3.89-7.64-7.69-7.69-2.8-.04-5.3,2.13-6.52,4.51-1.19-2.46-3.74-4.49-6.52-4.51-3.81-.02-7.69,3.86-7.69,7.69,0,.45.06.9.15,1.32.1.45.23,1.05.47,1.66,1.25,3.18,3.75,5.33,6.2,7.7,2.39,2.32,4.8,4.68,7.39,6.78,2.59-2.1,5-4.46,7.39-6.78,2.45-2.38,4.95-4.52,6.2-7.7.24-.61.37-1.21.47-1.66.09-.43.16-.88.15-1.32Z"/>
      <path class="cls-1" d="m18.37,21.61c-.12-.55-.18-1.08-.18-1.56,0-2.14,1.03-4.38,2.81-6.15.82-.81,1.74-1.46,2.7-1.93-.31-.08-.65-.16-1.01-.22-.71-.12-1.57-.27-2.7-.15-1.5.16-2.55.7-2.82.85-.61.32-1.06.68-1.37.94-.12-.17-.26-.37-.41-.56,0,0-.92-1.15-2.71-1.71-1.22-.38-2.44-.11-3.37.26-1.33.23-2.3-.46-1.33-3.04.66-1.76,1.33-3.05,1.89-4.12.21-.4.63-.54,1.1-.57.08.41.15.82.23,1.23.06.33.3.59.61.69.57.18,1.33.35,2.24.33.73-.01,1.36-.14,1.84-.28.22-.07.41-.21.53-.42l.09-.16c.11-.19.14-.4.1-.61l-.51-2.62c-.06-.31-.28-.57-.58-.67l-1.6-.57c-.06-.02-1.19-.36-1.19-.36-1.23-.38-2.56-.25-3.68.36-.48.26-.92.61-1.28,1.02-1.16,1.3-2.32,2.67-3.5,4.11C1.81,8.74.56,10.26.4,10.75c-.16.49-.97,3.12.31,4.9.64.89,1.13.62,3,2.14,1.46,1.19,1.38,1.52,2.57,2.31,1.29.85,2.48,1.18,3.13,1.35.71.19,1.86.49,3.36.4.57-.04,1.04-.12,1.38-.2.35.43.88,1.03,1.58,1.68.92.86,2.31,2.13,4.25,2.8.03.01.18.06.4.12-.58-.85-1.09-1.76-1.48-2.75-.28-.71-.43-1.38-.53-1.87Z"/>
      <path class="cls-1" d="m67.55,10.75c-.16-.49-1.41-2.01-3.87-5.05-1.17-1.44-2.34-2.81-3.5-4.11-.37-.41-.8-.75-1.28-1.02-1.13-.61-2.46-.74-3.68-.36,0,0-1.13.34-1.19.36l-1.6.57c-.3.11-.52.36-.58.67l-.51,2.62c-.04.21,0,.43.1.61l.09.16c.12.2.3.35.53.42.48.14,1.11.27,1.84.28.91.01,1.67-.15,2.24-.33.32-.1.55-.37.61-.69l.23-1.23c.48.03.89.16,1.1.57.56,1.08,1.23,2.36,1.9,4.12.97,2.58,0,3.27-1.33,3.04-.92-.37-2.14-.65-3.37-.26-1.79.56-2.71,1.71-2.71,1.71-.15.19-.28.38-.41.56-.31-.27-.76-.62-1.37-.94-.27-.14-1.32-.68-2.82-.85-1.13-.12-1.99.03-2.7.15-.36.06-.7.14-1.01.22.96.46,1.88,1.11,2.7,1.93,1.78,1.77,2.8,4.01,2.81,6.15,0,.48-.06,1.01-.18,1.56-.11.49-.25,1.16-.53,1.87-.39,1-.9,1.91-1.48,2.75.22-.06.37-.11.4-.12,1.94-.66,3.32-1.94,4.25-2.8.7-.65,1.23-1.25,1.58-1.68.34.08.81.16,1.38.2,1.5.1,2.65-.2,3.36-.4.65-.17,1.84-.5,3.13-1.35,1.19-.78,1.11-1.12,2.57-2.31,1.87-1.52,2.35-1.25,3-2.14,1.29-1.78.48-4.41.31-4.9Z"/>
    </g>
  </g>
</svg>