<?xml version="1.0" encoding="UTF-8"?>
<svg id="Capa_2" data-name="Capa 2" xmlns="http://www.w3.org/2000/svg" viewBox="0 0 49.53 49.53">
  <defs>
    <style>
      .cls-1 {
        fill: #2d3540;
      }
    </style>
  </defs>
  <g id="Layer_1" data-name="Layer 1">
    <g>
      <path class="cls-1" d="m24.76,2.9c2.95,0,5.82.58,8.51,1.72,2.6,1.1,4.94,2.68,6.95,4.69s3.59,4.35,4.69,6.95c1.14,2.69,1.72,5.56,1.72,8.51s-.58,5.82-1.72,8.51c-1.1,2.6-2.68,4.94-4.69,6.95-2.01,2.01-4.35,3.59-6.95,4.69-2.69,1.14-5.56,1.72-8.51,1.72s-5.82-.58-8.51-1.72c-2.6-1.1-4.94-2.68-6.95-4.69-2.01-2.01-3.59-4.35-4.69-6.95-1.14-2.69-1.72-5.56-1.72-8.51s.58-5.82,1.72-8.51c1.1-2.6,2.68-4.94,4.69-6.95,2.01-2.01,4.35-3.59,6.95-4.69,2.69-1.14,5.56-1.72,8.51-1.72m0-2.9C11.09,0,0,11.09,0,24.76s11.09,24.76,24.76,24.76,24.76-11.09,24.76-24.76S38.44,0,24.76,0h0Z"/>
      <rect class="cls-1" x="2.56" y="23.32" width="44.41" height="2.9" transform="translate(-10.26 24.76) rotate(-45)"/>
      <g>
        <rect class="cls-1" x="13.57" y="28.6" width="22.39" height="4.95" rx="1.72" ry="1.72"/>
        <path class="cls-1" d="m24.76,16.67h0c-6.18,0-11.2,3.15-11.2,7.03h0c0,.59.76,1.07,1.7,1.07h19c.94,0,1.7-.48,1.7-1.07h0c0-3.88-5.01-7.03-11.2-7.03Z"/>
      </g>
      <rect class="cls-1" x="14.67" y="25.51" width="20.19" height="2.35" rx=".76" ry=".76"/>
    </g>
  </g>
</svg>