<?xml version="1.0" encoding="UTF-8"?>
<svg id="Capa_2" data-name="Capa 2" xmlns="http://www.w3.org/2000/svg" viewBox="0 0 225.96 132.44">
  <defs>
    <style>
      .cls-1 {
        fill-rule: evenodd;
      }
    </style>
  </defs>
  <g id="Capa_1-2" data-name="Capa 1">
    <path class="cls-1" d="m63.46,93.95h99.04v26.81c0,3.1,1.23,6.07,3.42,8.26,2.19,2.19,5.16,3.42,8.26,3.42h40.08c3.1,0,6.07-1.23,8.26-3.42,2.19-2.19,3.42-5.17,3.42-8.26V11.69c0-3.1-1.23-6.07-3.42-8.26-2.19-2.19-5.17-3.42-8.26-3.42h-40.08c-3.1,0-6.07,1.23-8.26,3.42-2.19,2.19-3.42,5.16-3.42,8.26v26.81H63.46V11.69c0-3.1-1.23-6.07-3.42-8.26-2.19-2.19-5.16-3.42-8.26-3.42H11.69c-3.1,0-6.07,1.23-8.26,3.42C1.23,5.61,0,8.59,0,11.69v109.07c0,3.1,1.23,6.07,3.42,8.26,2.19,2.19,5.16,3.42,8.26,3.42h40.08c3.1,0,6.07-1.23,8.26-3.42,2.19-2.19,3.42-5.17,3.42-8.26v-26.81h0Zm106.84,26.81V11.69c0-1.03.41-2.02,1.14-2.76.73-.73,1.72-1.14,2.75-1.14h40.08c1.03,0,2.02.41,2.75,1.14.73.73,1.14,1.72,1.14,2.76v109.07c0,1.03-.41,2.02-1.14,2.76-.73.73-1.72,1.14-2.75,1.14h-40.08c-1.03,0-2.02-.41-2.75-1.14-.73-.73-1.14-1.72-1.14-2.76h0ZM55.67,11.69v109.07c0,1.03-.41,2.02-1.14,2.76-.73.73-1.72,1.14-2.76,1.14H11.69c-1.03,0-2.02-.41-2.75-1.14-.73-.73-1.14-1.72-1.14-2.76V11.69c0-1.03.41-2.02,1.14-2.76.73-.73,1.72-1.14,2.75-1.14h40.08c1.03,0,2.02.41,2.76,1.14.73.73,1.14,1.72,1.14,2.76h0Zm106.83,74.47v-39.87H63.46v39.87h99.04Z"/>
  </g>
</svg>