<?xml version="1.0" encoding="UTF-8"?>
<svg id="Capa_2" data-name="Capa 2" xmlns="http://www.w3.org/2000/svg" viewBox="0 0 56.23 48.8">
  <defs>
    <style>
      .cls-1 {
        fill: #2d3540;
      }
    </style>
  </defs>
  <g id="Layer_1" data-name="Layer 1">
    <g>
      <path class="cls-1" d="m11.59,26.21c-1.46-3.03-5.1-4.31-8.14-2.85C.42,24.82-.86,28.46.6,31.49c1.46,3.03,5.1,4.31,8.14,2.85,3.03-1.46,4.31-5.1,2.85-8.14Z"/>
      <path class="cls-1" d="m53.95,43.07l-.56-.12-.47-9.12c-.07-1.35-1.07-2.48-2.4-2.71l-11.45-1.97s0,0-.01,0c-.03,0-.07-.01-.1-.02-.02,0-.03,0-.05,0-.03,0-.05,0-.08,0-.03,0-.05,0-.08,0-.02,0-.04,0-.06,0-.03,0-.07,0-.1,0,0,0,0,0-.01,0h-17.56l3.52-5.2c.41-.6.58-1.34.47-2.06l-.92-6.06c-1.19.6-2.53.94-3.95.94-.62,0-1.22-.06-1.8-.19l.76,5.05-5.94,8.78c-.08.12-.16.26-.23.39h0s-.04.09-.06.13c0,0,0,.02-.01.03-.01.03-.03.07-.04.1,0,.02-.01.03-.02.05,0,.03-.02.06-.03.08,0,.02-.01.04-.02.07,0,.02-.01.05-.02.07,0,.03-.01.06-.02.09,0,.02,0,.03-.01.05,0,.04-.01.07-.02.11,0,0,0,.02,0,.03-.03.19-.04.39-.03.58,0,.02,0,.04,0,.06,0,.03,0,.05,0,.08,0,.03,0,.07.01.1,0,.01,0,.03,0,.04,0,.04.01.08.02.12,0,0,0,.01,0,.02,0,.04.02.08.03.13,0,0,0,0,0,0,.01.04.02.08.03.13,0,0,0,0,0,0,.01.04.02.08.04.12,0,0,0,0,0,.01.01.04.03.07.04.11,0,0,0,.02.01.03.01.03.03.06.04.09,0,.01.01.03.02.04.01.03.02.05.04.08,0,.02.02.04.03.06.01.02.02.04.03.06.01.02.03.05.04.07,0,.01.02.03.02.04.02.03.04.06.06.09,0,0,.01.02.02.02.02.03.04.06.07.1,0,0,0,0,0,.01.03.03.05.07.08.1,0,0,0,0,0,0,.03.03.06.07.09.1,0,0,0,0,0,0,.03.03.06.06.09.09,0,0,0,0,.01.01.03.03.06.06.09.08,0,0,.02.02.03.03.02.02.05.04.07.06.02.02.04.04.07.05.01.01.03.02.04.03.09.07.19.14.29.19,0,0,.02,0,.02.01.06.03.12.07.18.09,0,0,0,0,.01,0,.06.03.11.05.17.07.01,0,.02,0,.04.01.06.02.12.04.18.06.01,0,.03,0,.04.01.05.01.09.03.14.04.02,0,.04,0,.06.01.06.01.11.02.17.03.02,0,.04,0,.06,0,.04,0,.08,0,.12.01.03,0,.05,0,.08,0,.04,0,.09,0,.13,0,.01,0,.03,0,.04,0,0,0,0,0,.01,0h22.76l8.92,1.54.46,9.02c.07,1.31,1,2.4,2.28,2.68l2.72.59c.21.05.42.07.62.07,1.33,0,2.53-.92,2.83-2.28.34-1.56-.65-3.11-2.21-3.45Z"/>
      <path class="cls-1" d="m20.15,12.47c2.49,0,4.52-2.03,4.52-4.52s-2.03-4.52-4.52-4.52-4.52,2.03-4.52,4.52,2.03,4.52,4.52,4.52Zm0-5.26c.41,0,.75.33.75.75s-.33.75-.75.75-.75-.33-.75-.75.33-.75.75-.75Z"/>
      <path class="cls-1" d="m20.15,15.9c4.39,0,7.95-3.56,7.95-7.95S24.54,0,20.15,0s-7.95,3.56-7.95,7.95,3.56,7.95,7.95,7.95Zm0-13.29c2.95,0,5.34,2.4,5.34,5.34s-2.4,5.34-5.34,5.34-5.34-2.4-5.34-5.34,2.4-5.34,5.34-5.34Z"/>
      <path class="cls-1" d="m20.15,8.03s.08-.04.08-.08-.04-.08-.08-.08-.08.04-.08.08.04.08.08.08Z"/>
      <path class="cls-1" d="m40.5,36.61H11.85c-.91,0-1.66.74-1.66,1.66s.74,1.66,1.66,1.66h3.17v5.14h-1.25c-.91,0-1.66.74-1.66,1.66s.74,1.66,1.66,1.66h5.81c.91,0,1.66-.74,1.66-1.66s-.74-1.66-1.66-1.66h-1.25v-5.14h15.69v5.14h-1.25c-.91,0-1.66.74-1.66,1.66s.74,1.66,1.66,1.66h5.81c.91,0,1.66-.74,1.66-1.66s-.74-1.66-1.66-1.66h-1.25v-5.14h3.17c.91,0,1.66-.74,1.66-1.66s-.74-1.66-1.66-1.66Z"/>
    </g>
  </g>
</svg>