<?xml version="1.0" encoding="UTF-8"?>
<svg id="Capa_2" data-name="Capa 2" xmlns="http://www.w3.org/2000/svg" viewBox="0 0 52.61 52.63">
  <defs>
    <style>
      .cls-1 {
        fill: #2d3540;
      }
    </style>
  </defs>
  <g id="Layer_1" data-name="Layer 1">
    <g>
      <path class="cls-1" d="m37.93,40.96c-12.23-4.23-21.82-13.83-26.06-26.06-2.23-.6-4.61-.95-7.13-1.03-1.55-.05-3.14-.02-4.74.08,2.07,20.63,18.26,36.7,38.89,38.68.09-1.41.12-2.81.09-4.17-.06-2.66-.42-5.16-1.05-7.5Z"/>
      <path class="cls-1" d="m51.34,26.18c-.66-2.61-2.02-4.99-3.93-6.9l-13.15-13.15c-.94-.94-2-1.77-3.15-2.45C27.45,1.54,23.07.29,18.13.05c-.55-.03-1.11-.04-1.67-.05-2.07-.02-4.06.79-5.53,2.26L.29,12.9c1.8-.14,3.56-.18,5.28-.12,7.46.25,13.69,2.77,18.13,7.21l9.14,9.14c4.52,4.52,7.04,10.89,7.22,18.51.04,1.52,0,3.08-.12,4.67l10.41-10.41c1.46-1.46,2.27-3.44,2.26-5.51-.03-3.61-.47-7.02-1.28-10.21Zm-8.45.94c-2.34,2.34-6.13,2.34-8.47,0l-8.76-8.76c-2.34-2.34-2.34-6.13,0-8.47s6.13-2.34,8.47,0l8.76,8.76c2.34,2.34,2.34,6.13,0,8.47Z"/>
      <path class="cls-1" d="m37.01,20.75l1.79-3.75c.14-.3.07-.66-.18-.88-.25-.22-.61-.25-.9-.08l-4.84,3.02,1.31-2.75c.12-.26.09-.57-.1-.8s-.48-.32-.77-.25l-1.43.38-2.87-2.87c-.29-.29-.77-.29-1.06,0-.29.29-.29.77,0,1.06l3.18,3.18c.19.19.46.26.72.19l.29-.08-1.71,3.61c-.14.29-.08.63.15.85.01.01.02.02.03.03.25.22.61.25.89.08l4.82-3.01-.91,1.9c-.14.29-.08.63.15.85l3.32,3.32c.29.29.77.29,1.06,0s.29-.77,0-1.06l-2.94-2.94Z"/>
    </g>
  </g>
</svg>