<?xml version="1.0" encoding="UTF-8"?>
<svg id="Capa_2" data-name="Capa 2" xmlns="http://www.w3.org/2000/svg" viewBox="0 0 64.11 70.17">
  <defs>
    <style>
      .cls-1 {
        fill: #2d3540;
      }
    </style>
  </defs>
  <g id="Layer_1" data-name="Layer 1">
    <g>
      <circle class="cls-1" cx="31.21" cy="6.1" r="6.1"/>
      <path class="cls-1" d="m64.1,44.89c-.01-.2-.02-.4-.03-.6,0-.1-.01-.2-.02-.3,0-.1-.02-.2-.03-.3-.02-.2-.03-.39-.05-.59-.02-.2-.04-.39-.07-.58-.38-3.09-1.2-5.85-2.12-8.2-.92-2.35-1.95-4.31-2.85-5.88-.9-1.57-1.66-2.78-2.18-3.59-.26-.41-.46-.72-.6-.93-.14-.21-.21-.32-.21-.32-.02-.04-.07-.05-.11-.03-.04.02-.05.07-.03.11h0s.26.45.74,1.29c.48.84,1.16,2.09,1.99,3.69.21.4.41.82.63,1.27.21.45.43.91.65,1.41.43.99.88,2.06,1.28,3.24.41,1.17.79,2.43,1.09,3.78.3,1.35.57,2.77.7,4.27.02.19.03.38.05.56.01.19.02.38.03.57,0,.1.01.19.02.29,0,.1,0,.19,0,.29,0,.19,0,.39.01.58,0,.78-.03,1.57-.1,2.37-.01.2-.04.4-.06.6-.01.1-.02.2-.03.3-.01.1-.03.2-.04.3-.03.2-.06.4-.09.6-.04.2-.07.4-.11.6l-.03.15-.03.15c-.02.1-.04.2-.07.3-.02.1-.04.2-.07.3-.02.1-.05.2-.08.3-.05.2-.1.4-.16.61-.06.2-.12.4-.18.6-.03.1-.06.2-.1.3-.03.1-.07.2-.1.3-.03.1-.07.2-.1.3-.04.1-.08.2-.12.3-.08.2-.15.4-.24.6-.09.2-.17.39-.26.59-.09.2-.18.38-.27.57-.05.1-.09.19-.14.29-.05.1-.11.2-.16.3-.05.1-.11.2-.16.3l-.08.15s0,.01,0,.01l-.02.03-.04.07c-.11.19-.22.37-.34.56-.11.19-.24.37-.36.55l-.18.27c-.06.09-.12.18-.19.27-.13.18-.26.36-.4.53l-.1.13-.11.13-.21.26-.21.26s-.07.09-.11.13l-.11.12c-.15.17-.3.33-.45.5-.07.09-.16.16-.24.24l-.24.24-.24.24c-.08.08-.17.15-.25.23-.17.15-.34.31-.51.46-.18.15-.35.29-.53.44-.09.07-.18.15-.27.22l-.28.21c-.19.14-.36.29-.55.42-.19.13-.38.27-.57.4l-.14.1-.15.1-.3.19c-.39.26-.8.49-1.21.74-1.65.93-3.42,1.71-5.26,2.34-.92.31-1.86.59-2.82.82l-.36.09c-.12.03-.24.05-.36.08-.24.05-.48.1-.72.16-.49.09-.97.19-1.46.27-.49.09-.98.15-1.47.22-.49.06-.99.12-1.48.16-.49.05-.99.08-1.49.11-.25.01-.5.02-.75.03-.12,0-.25.01-.37.01h-.37s-.37,0-.37,0h-.19s-.18,0-.18,0h-.73s-.77-.03-.77-.03h-.19s-.08,0-.08,0h-.09s-.37-.03-.37-.03c-.5-.02-.99-.07-1.49-.11-.5-.05-.99-.1-1.49-.17-.49-.06-.99-.14-1.48-.21-.49-.09-.98-.16-1.47-.26-.49-.09-.97-.2-1.45-.3-.24-.06-.48-.11-.72-.17l-.36-.09-.36-.09c-.95-.24-1.89-.53-2.82-.84-.23-.08-.46-.16-.69-.23-.23-.08-.46-.17-.68-.25l-.34-.13-.34-.13c-.22-.09-.45-.18-.67-.27-1.78-.74-3.48-1.59-5.07-2.56-1.6-.96-3.06-2.06-4.41-3.23-.16-.15-.33-.3-.49-.45l-.24-.22-.23-.23c-.16-.16-.31-.31-.47-.46-.15-.16-.3-.32-.44-.48l-.22-.24c-.07-.08-.14-.16-.21-.25-.14-.16-.28-.33-.42-.49-.13-.16-.26-.33-.39-.49l-.19-.24-.05-.06-.05-.07-.1-.14c-.13-.18-.26-.36-.39-.54l-.05-.07-.02-.03s0-.01,0-.01l-.09-.13c-.06-.09-.11-.17-.17-.26-.12-.17-.22-.35-.33-.52-.05-.09-.11-.18-.16-.26-.05-.09-.1-.18-.15-.27-.05-.09-.1-.18-.15-.27-.05-.09-.1-.18-.14-.27-.09-.18-.18-.36-.27-.54-.08-.18-.17-.36-.25-.54-.08-.18-.16-.37-.23-.55-.3-.73-.54-1.47-.74-2.21-.2-.74-.33-1.48-.43-2.21-.05-.37-.08-.73-.11-1.09,0-.18-.02-.36-.03-.54,0-.18,0-.36-.01-.54,0-.71.03-1.41.09-2.08.06-.68.15-1.34.28-1.98.06-.32.13-.63.2-.94.03-.15.08-.31.11-.46.04-.15.07-.3.12-.45.08-.3.17-.59.26-.87.05-.14.09-.28.14-.42.05-.14.1-.28.14-.41.19-.54.4-1.06.6-1.56.11-.25.21-.49.31-.72.11-.23.21-.46.32-.68.11-.22.22-.44.33-.65.1-.2.21-.41.32-.61.85-1.58,1.57-2.81,2.07-3.64.5-.83.77-1.27.77-1.27h0s.01-.09-.02-.11c-.04-.03-.09-.02-.12.02,0,0-.3.42-.84,1.23-.54.81-1.33,1.99-2.26,3.54-.93,1.55-1.95,3.52-2.73,5.93-.05.15-.09.3-.14.46-.04.15-.09.31-.14.47-.08.32-.17.64-.24.96-.15.65-.27,1.34-.37,2.04-.1.7-.15,1.43-.17,2.18,0,.19,0,.37,0,.56,0,.19,0,.38.01.57.02.38.04.77.08,1.15.08.78.2,1.57.38,2.36.18.79.42,1.58.71,2.37.08.2.15.39.23.59.08.19.17.39.25.59.09.19.18.39.28.58.05.1.09.19.15.29.05.1.1.19.15.29.05.1.1.19.15.29s.11.19.16.28c.11.19.22.38.34.57.06.09.12.19.18.28l.09.14c.03.05.06.09.09.14.12.18.25.36.38.55.12.18.26.36.39.54.14.18.27.36.41.54.14.17.29.35.43.53.07.09.14.18.22.26l.23.26c.15.17.31.34.46.51.16.17.32.33.48.5l.24.25.25.24c.17.16.34.32.51.48,1.38,1.26,2.91,2.43,4.56,3.46,1.65,1.04,3.41,1.94,5.25,2.73,1.84.78,3.76,1.44,5.73,1.97l.37.1.37.09c.25.06.5.12.75.18.5.11,1,.23,1.5.32.5.11,1.01.19,1.52.28.51.08,1.02.16,1.53.22.51.07,1.03.12,1.54.18.52.04,1.03.09,1.55.12l.39.02h.1s.1,0,.1,0h.19s.77.03.77.03c.52,0,1.04.02,1.56,0,4.15-.07,8.29-.76,12.15-2.09.24-.09.48-.17.72-.26.24-.09.47-.19.71-.28.24-.09.47-.19.7-.29l.35-.15c.12-.05.23-.1.35-.16.23-.11.46-.21.69-.32.23-.11.45-.23.68-.34l.34-.17c.11-.06.22-.12.33-.18.22-.12.44-.25.66-.37.43-.26.86-.51,1.27-.8l.31-.21.16-.1.15-.11c.2-.15.4-.29.6-.44.2-.15.39-.3.58-.46l.29-.23c.1-.08.19-.16.28-.24.19-.16.37-.32.56-.48.18-.17.36-.34.53-.5.09-.08.18-.16.26-.25l.25-.26.25-.26c.08-.09.17-.17.25-.27.16-.18.32-.36.48-.54l.12-.14s.08-.09.11-.14l.22-.28.22-.28.11-.14.1-.15c.14-.19.28-.39.42-.58.07-.1.14-.19.2-.29l.19-.3c.13-.2.26-.39.37-.6.12-.2.23-.41.35-.61l.09-.15.08-.15c.05-.1.11-.21.16-.31.05-.1.11-.2.16-.31.05-.1.1-.21.15-.31.1-.21.2-.42.29-.63.36-.84.66-1.7.92-2.55.06-.22.12-.43.18-.64.06-.21.1-.43.15-.64.02-.11.05-.21.07-.32.02-.11.04-.22.06-.32.02-.11.04-.21.06-.32l.03-.16.03-.16c.03-.21.07-.43.1-.64.03-.21.05-.43.08-.64.01-.11.03-.21.04-.32,0-.11.02-.21.03-.32.02-.21.04-.42.05-.63.05-.84.05-1.66.03-2.47Z"/>
      <path class="cls-1" d="m11.12,30.11c.13,0,.27,0,.4-.03l9.06-1.26c.87-.12,1.64-.63,2.09-1.38l3.57-5.94v12.86c0,.5.07.98.21,1.43l-.83,6.3-4.53-3.84c-1.22-1.04-3.05-.88-4.09.34-1.04,1.22-.88,3.05.34,4.09l8.58,7.27c.53.45,1.2.69,1.88.69.35,0,.7-.06,1.04-.19.99-.38,1.69-1.27,1.83-2.32l1.09-8.22,2.43,7.2-7.42,8.61c-1.05,1.21-.91,3.04.3,4.09.55.47,1.22.7,1.89.7.81,0,1.62-.34,2.2-1.01l8.5-9.86c.67-.78.88-1.85.55-2.82l-4.05-12.01c.01-.14.02-.29.02-.44v-13.64l3.62,5.55c.54.82,1.45,1.31,2.43,1.31.08,0,.16,0,.24-.01l9.4-.79c1.6-.13,2.78-1.54,2.65-3.13-.13-1.6-1.54-2.78-3.13-2.65l-7.67.65-3.9-5.98c-.49-.74-1.25-1.19-2.07-1.29-2.17-.5-4.39-.71-6.61-.61-2.41.11-4.78.57-7.05,1.37-.09.03-.18.07-.27.11,0,0-.02,0-.03.01-.03.02-.07.03-.1.05-.01,0-.03.02-.04.02-.03.01-.05.03-.08.05-.02.01-.03.02-.05.03-.02.01-.05.03-.07.04-.02.01-.03.02-.05.04-.02.02-.04.03-.06.05-.02.01-.03.03-.05.04-.02.02-.04.03-.06.05-.02.01-.03.03-.05.04-.02.02-.04.03-.06.05-.02.01-.03.03-.05.04-.02.02-.04.04-.06.05-.02.02-.03.03-.05.05-.02.02-.03.04-.05.05-.02.02-.03.04-.05.06-.01.02-.03.03-.04.05-.02.02-.04.05-.05.07-.01.01-.02.03-.03.04-.02.03-.05.06-.07.1,0,0-.01.01-.02.02-.03.04-.05.08-.08.12,0,0,0,0,0,0l-4.14,6.89-7.69,1.07c-1.59.22-2.69,1.68-2.47,3.27.2,1.45,1.44,2.5,2.87,2.5Z"/>
    </g>
  </g>
</svg>