<?xml version="1.0" encoding="UTF-8"?>
<svg id="Capa_2" data-name="Capa 2" xmlns="http://www.w3.org/2000/svg" viewBox="0 0 225.96 225.96">
  <defs>
    <style>
      .cls-1 {
        fill-rule: evenodd;
      }
    </style>
  </defs>
  <g id="Capa_1-2" data-name="Capa 1">
    <path class="cls-1" d="m225.96,19.48c0-5.17-2.05-10.12-5.71-13.77-3.65-3.65-8.61-5.71-13.77-5.71H19.48c-5.17,0-10.12,2.05-13.77,5.71C2.05,9.36,0,14.31,0,19.48v187c0,5.17,2.05,10.12,5.71,13.77,3.65,3.65,8.61,5.71,13.77,5.71h187c5.17,0,10.12-2.05,13.77-5.71,3.65-3.65,5.71-8.61,5.71-13.77V19.48h0Zm-7.79,0v187c0,3.1-1.23,6.07-3.42,8.26s-5.17,3.42-8.26,3.42H19.48c-3.1,0-6.07-1.23-8.26-3.42-2.19-2.19-3.42-5.17-3.42-8.26V19.48c0-3.1,1.23-6.07,3.42-8.26,2.19-2.19,5.16-3.42,8.26-3.42h187c3.1,0,6.07,1.23,8.26,3.42,2.19,2.19,3.42,5.16,3.42,8.26h0Zm-11.81,4.02c0-2.15-1.75-3.9-3.9-3.9H23.5c-2.15,0-3.89,1.74-3.89,3.9v178.96c0,2.15,1.74,3.9,3.89,3.9h178.96c2.15,0,3.9-1.74,3.9-3.9V23.5h0Zm-40.49,3.9v47c0,6.45-5.23,11.69-11.69,11.69h-82.39c-6.46,0-11.69-5.23-11.69-11.69V27.39H27.39v171.17h171.17V27.39h-32.7Zm-7.79,0h-90.18v47c0,2.15,1.74,3.89,3.9,3.89h37.3v-36.08c0-2.15,1.74-3.9,3.9-3.9s3.89,1.74,3.89,3.9v36.08h37.3c2.15,0,3.9-1.74,3.9-3.9V27.39h0Z"/>
  </g>
</svg>