<?xml version="1.0" encoding="UTF-8"?>
<svg id="Capa_2" data-name="Capa 2" xmlns="http://www.w3.org/2000/svg" viewBox="0 0 225.96 225.96">
  <defs>
    <style>
      .cls-1 {
        fill-rule: evenodd;
      }
    </style>
  </defs>
  <g id="Capa_1-2" data-name="Capa 1">
    <path class="cls-1" d="m112.98,0C50.62,0,0,50.62,0,112.98s50.62,112.98,112.98,112.98,112.98-50.62,112.98-112.98S175.33,0,112.98,0h0Zm0,7.79c58.05,0,105.19,47.13,105.19,105.19s-47.13,105.19-105.19,105.19S7.79,171.03,7.79,112.98,54.92,7.79,112.98,7.79h0Zm-30.66,124.5h61.31v21c0,2.15,1.74,3.9,3.9,3.9h36.01c2.15,0,3.9-1.74,3.9-3.9v-80.63c0-2.15-1.74-3.9-3.9-3.9h-36.01c-2.15,0-3.9,1.74-3.9,3.9v21h-61.31v-21c0-2.15-1.75-3.9-3.9-3.9h-36.01c-2.15,0-3.9,1.74-3.9,3.9v80.63c0,2.15,1.75,3.9,3.9,3.9h36.01c2.15,0,3.9-1.74,3.9-3.9v-21h0Zm97.32-55.73v72.84h-28.21v-72.84h28.21Zm-105.11,0v72.84h-28.21v-72.84h28.21Zm7.79,24.9v23.04h61.31v-23.04h-61.31Z"/>
  </g>
</svg>