<?xml version="1.0" encoding="UTF-8"?>
<svg id="Capa_2" data-name="Capa 2" xmlns="http://www.w3.org/2000/svg" viewBox="0 0 141.93 225.95">
  <defs>
    <style>
      .cls-1 {
        fill-rule: evenodd;
      }
    </style>
  </defs>
  <g id="Capa_1-2" data-name="Capa 1">
    <path class="cls-1" d="m141.93,18.45c0-4.89-1.94-9.59-5.4-13.04-3.46-3.46-8.15-5.4-13.04-5.4H18.45c-4.89,0-9.58,1.94-13.04,5.4S0,13.55,0,18.45v189.06c0,4.89,1.94,9.59,5.4,13.04s8.15,5.4,13.04,5.4h105.04c4.89,0,9.59-1.94,13.04-5.4,3.46-3.46,5.4-8.15,5.4-13.04V18.45h0Zm-7.79,0v189.06c0,2.83-1.12,5.54-3.12,7.53-2,2-4.71,3.12-7.54,3.12H18.45c-2.83,0-5.54-1.12-7.53-3.12-2-2-3.12-4.71-3.12-7.53V18.45c0-2.83,1.12-5.54,3.12-7.54,2-2,4.71-3.12,7.53-3.12h105.04c2.83,0,5.54,1.12,7.54,3.12,2,2,3.12,4.71,3.12,7.54h0Zm-8.45,14.14c0-2.15-1.74-3.9-3.9-3.9H20.14c-2.15,0-3.9,1.74-3.9,3.9v160.79c0,2.15,1.74,3.9,3.9,3.9h101.65c2.15,0,3.9-1.74,3.9-3.9V32.58h0Zm-7.79,125.64h-25.53c-1.8,0-3.37-1.23-3.79-2.98l-3.87-16.08-9.61,34.91c-.46,1.69-2,2.86-3.75,2.86-1.75,0-3.29-1.17-3.76-2.85l-9.74-35.1-3.99,16.28c-.43,1.74-1.99,2.97-3.78,2.97h-26.05v31.26h93.86v-31.26h0Zm-93.86-7.79h22.99l6.81-27.8c.42-1.72,1.95-2.94,3.72-2.97,1.77-.03,3.34,1.15,3.81,2.85l9.96,35.9,9.87-35.89c.47-1.71,2.04-2.89,3.82-2.86,1.78.03,3.31,1.26,3.72,2.98l6.69,27.79h22.46V36.48H24.04v113.95h0Zm17.96-63.34l26.21,26.21c.73.73,1.72,1.14,2.76,1.14s2.02-.41,2.75-1.14l26.11-26.11c8.73-8.73,8.73-22.9,0-31.62-7.86-7.86-20.13-8.64-28.87-2.34-8.73-6.3-21.01-5.52-28.87,2.34-8.69,8.69-8.73,22.79-.1,31.52h0Zm5.54-5.48c-5.61-5.69-5.59-14.87.07-20.53,5.69-5.69,14.92-5.69,20.6,0,1.52,1.52,3.99,1.52,5.51,0,5.69-5.69,14.92-5.69,20.6,0,5.69,5.69,5.69,14.92,0,20.6l-23.36,23.36-23.43-23.43h0Z"/>
  </g>
</svg>