<?xml version="1.0" encoding="UTF-8"?>
<svg id="Capa_2" data-name="Capa 2" xmlns="http://www.w3.org/2000/svg" viewBox="0 0 225.96 145.14">
  <defs>
    <style>
      .cls-1 {
        fill-rule: evenodd;
      }
    </style>
  </defs>
  <g id="Capa_1-2" data-name="Capa 1">
    <path class="cls-1" d="m138.53,20.53c-9.77.16-17.64,8.13-17.64,17.94v29.4c0,8.77,4.76,16.84,12.43,21.08l6.91,3.82c-1.14,1.7-1.8,3.75-1.8,5.95v35.91c0,5.8,4.71,10.51,10.51,10.51h54.86c5.81,0,10.51-4.71,10.51-10.51v-34.43c0-2.77-.94-5.44-2.64-7.6l2.2-1.68c7.62-5.82,12.09-14.85,12.09-24.44V29.64c0-7.86-3.12-15.4-8.68-20.96-5.56-5.56-13.1-8.68-20.96-8.68h-38.41c-10.7,0-19.38,8.68-19.38,19.38v1.15h0ZM14.29,92.61c-1.71,2.15-2.65,4.83-2.65,7.6h0v34.43c0,5.8,4.71,10.51,10.51,10.51h54.86c5.81,0,10.51-4.71,10.51-10.51v-35.91c0-2.2-.66-4.25-1.8-5.95l6.91-3.82c7.67-4.24,12.43-12.32,12.43-21.08v-29.4c0-9.91-8.03-17.94-17.94-17.94h-.12C84.83,8.84,74.58,0,62.26,0h-29.98C23.72,0,15.51,3.4,9.45,9.46,3.4,15.51,0,23.72,0,32.28v34.21c0,9.59,4.47,18.63,12.09,24.44l2.2,1.68h0Zm65.44,37.8v4.22c0,1.5-1.22,2.72-2.72,2.72H22.16c-1.5,0-2.72-1.22-2.72-2.72v-4.22h60.3Zm126.78,0v4.22c0,1.5-1.22,2.72-2.72,2.72h-54.86c-1.5,0-2.72-1.22-2.72-2.72v-4.22h60.3Zm-126.78-7.79H19.44v-22.41c0-1.18.47-2.3,1.3-3.14s1.96-1.3,3.14-1.3h52.91c1.63,0,2.95,1.32,2.95,2.95v23.9h0Zm126.78,0h-60.3v-23.9c0-1.63,1.32-2.95,2.95-2.95h52.91c1.18,0,2.3.47,3.14,1.3s1.3,1.96,1.3,3.14v22.41h0Zm-1.96-34.39l4.58-3.49c5.69-4.34,9.03-11.09,9.03-18.25V29.64c0-5.79-2.3-11.35-6.4-15.45-4.1-4.1-9.65-6.4-15.45-6.4h-38.41c-6.4,0-11.59,5.19-11.59,11.59v22.59c0,5.16,4.19,9.35,9.35,9.35h44.22c2.15,0,3.9,1.74,3.9,3.9s-1.74,3.9-3.9,3.9h-44.22c-9.47,0-17.14-7.68-17.14-17.14v-13.64c-5.47.16-9.85,4.64-9.85,10.15v29.4c0,5.93,3.22,11.39,8.41,14.26l10.73,5.93c.44-.06.9-.09,1.36-.09h52.91c.84,0,1.67.09,2.48.25h0ZM87.43,28.32v26.89c0,2.15-1.75,3.9-3.9,3.9s-3.9-1.74-3.9-3.9v-30.05c0-9.59-7.78-17.37-17.37-17.37h-29.98c-6.5,0-12.72,2.58-17.32,7.17-4.59,4.59-7.17,10.82-7.17,17.32v34.21c0,7.16,3.34,13.91,9.03,18.25l4.58,3.49c.81-.17,1.64-.25,2.48-.25h52.91c.46,0,.91.03,1.36.09l10.73-5.93c5.19-2.87,8.41-8.33,8.41-14.26v-29.4c0-5.5-4.38-9.99-9.85-10.15h0Z"/>
  </g>
</svg>