<?xml version="1.0" encoding="UTF-8"?>
<svg id="Capa_2" data-name="Capa 2" xmlns="http://www.w3.org/2000/svg" viewBox="0 0 46.98 48.18">
  <defs>
    <style>
      .cls-1 {
        fill: #2d3540;
      }
    </style>
  </defs>
  <g id="Layer_1" data-name="Layer 1">
    <path class="cls-1" d="m46.77,22.32c-.3-2.48-.98-2.97-5.44-11.18,0,0-1.22-2.22-4.77-7.59-.5-.76-1.13-1.43-1.87-1.98-1.71-1.28-3.86-1.81-5.97-1.47,0,0-1.94.28-2.04.3l-2.76.55c-.52.1-.94.47-1.11.97l-1.47,4.19c-.12.34-.11.7.02,1.03l.11.29c.14.36.42.65.77.81.76.35,1.76.71,2.96.9,1.49.24,2.78.15,3.76,0,.54-.09,1-.47,1.17-.99.22-.66.44-1.31.67-1.97.41.24,1.02.62,1.68,1.2,1.9,1.66,2.62,3.51,4.38,8.65,1.6,4.68,1.77,5.88,1.7,6.46-.01.13-.03.2-.06.28-.57,1.41-4.13-.02-6.16,1.48-1.1.81-1.26,2.3-1.72,5.26-.64,4.14.28,6.07-1.05,7.18-.78.65-2.22.93-3.24.38-3.21-1.74.13-8.76-3.57-11.33-1.36-.94-2.53-1.53-6-3.22-.37-.18-.99-.48-1.7-.96-3.76-2.53-1.35-.93-4.54-2.86-1.83-1.11-3.63-1.18-4.2-1.18-2.09,0-3.66.83-4.41,1.29C.78,24.02.32,28.43.13,31.68c-.43,7.21.33,10.49.65,11.71.37,1.41.81,2.65,1.25,3.71.48,1.15,1.97,1.44,2.84.55.71-2.73,1.43-5.46,2.14-8.19.99-2.94,3.36-5.05,6.09-5.37.33-.04,3.16-.27,5,1.5,1.53,1.47.6,2.81,2.08,5.23,1.51,2.46,3.93,3.46,4.6,3.73.84.33,2.89,1.15,5.28.53,3.57-.92,5.23-4.34,5.4-4.69,1.74-3.72-.48-6.03,1.62-8.92,1.27-1.74,3.3-2.58,3.84-2.79,2.47-.94,3.87-.13,5.04-1.15,1.45-1.28.98-3.82.81-5.23Z"/>
  </g>
</svg>