<?xml version="1.0" encoding="UTF-8"?>
<svg id="Capa_2" data-name="Capa 2" xmlns="http://www.w3.org/2000/svg" viewBox="0 0 192.17 225.96">
  <defs>
    <style>
      .cls-1 {
        fill-rule: evenodd;
      }
    </style>
  </defs>
  <g id="Capa_1-2" data-name="Capa 1">
    <path class="cls-1" d="m24.49,86.05h0s42.12-38.62,42.12-38.62h68.92c16.96,0,30.71,13.75,30.71,30.71v.02c0,16.96-13.75,30.71-30.71,30.71h-39.47c-.06,0-.12,0-.19,0-.06,0-.12,0-.19,0h-39.47c-21.27,0-38.51,17.24-38.51,38.51v.02c0,21.27,17.24,38.51,38.51,38.51h68.92l42.56,39.01h0c.69.64,1.62,1.02,2.63,1.02h17.96c2.15,0,3.9-1.74,3.9-3.9v-80.08c0-2.15-1.74-3.9-3.9-3.9h-17.96c-1.01,0-1.94.39-2.63,1.02h0s-42.56,39.02-42.56,39.02H56.21c-16.96,0-30.71-13.75-30.71-30.71v-.02c0-16.96,13.75-30.71,30.71-30.71h39.47c.06,0,.12,0,.19,0,.06,0,.13,0,.19,0h39.47c21.27,0,38.51-17.24,38.51-38.51v-.02c0-21.27-17.24-38.51-38.51-38.51h-68.92L24.49,1.02h0c-.69-.64-1.61-1.02-2.63-1.02H3.9C1.75,0,0,1.74,0,3.9v79.28c0,2.15,1.75,3.9,3.9,3.9h17.96c1.01,0,1.94-.39,2.63-1.02h0Zm149.73,59.83h10.17v72.29h-10.17v-72.29h0Zm-41.81,36.14l34.02,31.18v-62.37l-34.02,31.18h0ZM7.79,7.79h10.17v71.48H7.79V7.79h0Zm17.96,4.96v61.57l33.58-30.78L25.75,12.75h0Z"/>
  </g>
</svg>