<?xml version="1.0" encoding="UTF-8"?>
<svg id="Capa_2" data-name="Capa 2" xmlns="http://www.w3.org/2000/svg" viewBox="0 0 39.11 47.72">
  <defs>
    <style>
      .cls-1 {
        fill: #2d3540;
      }
    </style>
  </defs>
  <g id="Layer_1" data-name="Layer 1">
    <g>
      <path class="cls-1" d="m29.28,9.44c-3.24.3-5.53,2.13-6.99,3.3-.79.63-3.68,3.06-4.99,6.6-.67,1.81-1.14,4.51-1.16,4.63-.13.77-.2,1.3-.23,1.6-.3,2.28-1.1,8.34-4.42,11.04,0,0-1.94,1.61-2.83,3.1-.81,1.35-.56,1.65-1.14,2.2-1.47,1.43-5.36,1.78-6.63,1.95-.22.03-.34.27-.23.46l1.56,2.91c.31.57,1.1.65,1.51.15.57-.7,1.4-1.51,2.72-1.66.27-.03.5-.04.72-.02,2.03.13,3.51.73,3.94.91,2.82,1.17,7.22-.79,7.66-.99,3.27-1.49,4.86-4.14,6.32-6.56.77-1.27,2.83-4.96,3.54-10.53.92-7.18-1.39-9.75.66-12.14,2.85-3.32,9.39-.83,9.8-2.34.37-1.38-4.62-5.1-9.81-4.63Z"/>
      <path class="cls-1" d="m13.42,22.02c.55.48,1.48,1.29,2.08,2.4.03-.17.05-.35.09-.55.02-.12.5-2.86,1.19-4.72.32-.86.73-1.67,1.18-2.4-.27-.19-.55-.37-.83-.54-1.15-.7-3.85-2.31-7.52-2.27C4.34,13.99-.33,17.4.02,18.7c.44,1.6,8.21-1.2,13.4,3.32Z"/>
      <path class="cls-1" d="m17.24,15.63c.06.04.13.08.18.11.27.16.55.35.84.55,0,0,0,0,0,0-.09-.63-.06-1.21-.07-1.82-.02-1.53-.38-3.6-.82-5.98,0-.02-.43-2.38.23-5.44.35-1.64.7-1.89.8-1.93.08-.03.47-.01,1.28.44.64.36,1.24.83,1.79,1.38.8.82,1.3,1.64,1.48,1.95.75,1.26,1.55,3.04,1.95,4.1.1.26.25.72.35,1.06.33-.17.67-.32,1.04-.47-.78-2.35-1.69-4.1-2.39-5.27-.27-.45-.79-1.3-1.64-2.16-.54-.55-1.21-1.11-2.03-1.57-1.32-.75-1.93-.62-2.21-.52-.65.24-1.11.96-1.49,2.73-.71,3.31-.24,5.87-.24,5.87.13.71.67,3.61.95,6.95Z"/>
    </g>
  </g>
</svg>