<?xml version="1.0" encoding="UTF-8"?>
<svg id="Capa_2" data-name="Capa 2" xmlns="http://www.w3.org/2000/svg" viewBox="0 0 40.81 48.66">
  <defs>
    <style>
      .cls-1 {
        fill: #2d3540;
      }
    </style>
  </defs>
  <g id="Layer_1" data-name="Layer 1">
    <g>
      <circle class="cls-1" cx="20.4" cy="35.13" r="7.78" transform="translate(-5.36 3.72) rotate(-9.22)"/>
      <path class="cls-1" d="m20.4,21.59c-7.47,0-13.53,6.06-13.53,13.53s6.06,13.53,13.53,13.53,13.53-6.06,13.53-13.53-6.06-13.53-13.53-13.53Zm0,22.19c-4.78,0-8.66-3.89-8.66-8.66s3.89-8.66,8.66-8.66,8.66,3.89,8.66,8.66-3.89,8.66-8.66,8.66Z"/>
      <path class="cls-1" d="m11.61,23.8c.98-.77,2.06-1.4,3.22-1.89,1.77-.75,3.65-1.13,5.58-1.13.23,0,.46,0,.68.02.15,0,.26-.15.19-.29L11.13.32c-.1-.2-.3-.32-.52-.32H.58C.15,0-.13.45.06.84l11.24,22.89c.06.12.21.15.31.07Z"/>
      <path class="cls-1" d="m40.23,0h-10.02c-.22,0-.42.12-.52.32l-8.69,17.1c-.09.18-.1.4,0,.59l1.32,2.81c.03.06.09.1.15.11,1.21.17,2.39.5,3.53.98,1.16.49,2.23,1.12,3.22,1.89.1.08.25.05.31-.07L40.75.84c.19-.39-.09-.84-.52-.84Z"/>
    </g>
  </g>
</svg>