<?xml version="1.0" encoding="UTF-8"?>
<svg id="Capa_2" data-name="Capa 2" xmlns="http://www.w3.org/2000/svg" viewBox="0 0 51.19 55.55">
  <defs>
    <style>
      .cls-1 {
        fill: #2d3540;
      }
    </style>
  </defs>
  <g id="Layer_1" data-name="Layer 1">
    <g>
      <path class="cls-1" d="m49.38,23.68c-1.16-2.73-2.81-5.18-4.91-7.29-2.11-2.11-4.56-3.76-7.29-4.91-2.83-1.2-5.83-1.8-8.93-1.8-5.88,0-11.44,2.23-15.67,6.19.2,2.07.62,4.65,1.49,7.52,5.79-6.67,9.52-7.37,14.18-7.37,9.15,0,16.59,7.44,16.59,16.59s-7.44,16.59-16.59,16.59-16.15-7.01-16.57-15.79c1.93.37,3.84.96,5.72,1.75-1.31-1.96-2.79-4.54-4.01-7.74-1.52-3.96-2.14-7.53-2.4-10.22-1.73,1.63-3.68,3.72-5.57,6.34-2.68,3.72-4.36,7.29-5.42,10.1,1.78-.41,3.55-.65,5.32-.72.04,2.98.64,5.88,1.8,8.61,1.16,2.73,2.81,5.18,4.91,7.29s4.56,3.76,7.29,4.91c2.83,1.2,5.83,1.8,8.93,1.8s6.1-.61,8.93-1.8c2.73-1.16,5.18-2.81,7.29-4.91s3.76-4.56,4.91-7.29c1.2-2.83,1.8-5.83,1.8-8.93s-.61-6.1-1.8-8.93Z"/>
      <path class="cls-1" d="m19.78,5.54c.22.9,1.13,1.61,2.08,1.43,1.11-.15,2.23-.27,3.34-.34l.26,1.34c.05.24.27.41.52.37,1.55-.21,3.01-.21,4.55,0,.24.03.47-.13.52-.37.09-.45.17-.89.26-1.34,1.11.07,2.22.19,3.34.34.9.1,1.93-.46,2.08-1.43.25-1.33.51-2.66.76-3.99.07-.39-.23-.78-.69-.85C31.1-.23,25.4-.23,19.71.7c-.45.08-.76.47-.68.85l.76,3.99Z"/>
      <path class="cls-1" d="m44.37,13.56c1.1.94,2.11,1.95,3.06,3.05.08.09.19.16.31.19.36.07.79-.16,1.04-.38.68-.56,1.37-1.12,2.05-1.68.2-.16.3-.41.22-.56-1.07-1.83-2.38-3.14-4.21-4.21-.15-.08-.39.02-.56.22-.56.69-1.12,1.37-1.68,2.05-.23.29-.57.86-.32,1.22.02.04.06.07.09.1Z"/>
      <path class="cls-1" d="m32.13,32.61c0-1.44-.78-2.69-1.94-3.36l-1.93-11.09-1.93,11.09c-1.16.67-1.94,1.92-1.94,3.36,0,2.14,1.74,3.88,3.88,3.88s3.88-1.74,3.88-3.88Z"/>
    </g>
  </g>
</svg>