<?xml version="1.0" encoding="UTF-8"?>
<svg id="Capa_2" data-name="Capa 2" xmlns="http://www.w3.org/2000/svg" viewBox="0 0 69.74 33.9">
  <defs>
    <style>
      .cls-1 {
        fill: #2d3540;
      }
    </style>
  </defs>
  <g id="Layer_1" data-name="Layer 1">
    <g>
      <path class="cls-1" d="m68.59,2.53c-1.97-2.73-5.78-3.34-8.51-1.37-2.73,1.97-3.34,5.78-1.37,8.51,1.97,2.73,5.78,3.34,8.51,1.37,2.73-1.97,3.34-5.78,1.37-8.51Z"/>
      <path class="cls-1" d="m59.12,28.1H2.9c-1.6,0-2.9,1.3-2.9,2.9s1.3,2.9,2.9,2.9h56.22c1.6,0,2.9-1.3,2.9-2.9s-1.3-2.9-2.9-2.9Z"/>
      <path class="cls-1" d="m5.65,27.68c1.6,0,2.9-1.3,2.9-2.9v-1.62l10.95-2.28c.12-.03.24-.06.36-.1l10.88-3.78c.08,0,.15-.02.23-.03l12.4-2.16c-.75.83-.97,2.04-.51,3.1l3.48,8.04c.47,1.09,1.54,1.75,2.66,1.75.38,0,.77-.08,1.15-.24,1.47-.64,2.14-2.34,1.51-3.81l-2.6-6.01,6.66-5.33c.13-.09.26-.19.38-.3l.07-.05c.61-.49.97-1.17,1.06-1.89.1-.46.12-.95.03-1.45-.35-2.03-2.28-3.39-4.31-3.03l-23.26,4.06c-1.44.25-2.55,1.31-2.94,2.62l-8.62,3-13.07,2.73c-1.34.28-2.31,1.47-2.31,2.84v3.97c0,1.6,1.3,2.9,2.9,2.9Z"/>
    </g>
  </g>
</svg>