<?xml version="1.0" encoding="UTF-8"?>
<svg id="Capa_2" data-name="Capa 2" xmlns="http://www.w3.org/2000/svg" viewBox="0 0 59.03 51.37">
  <defs>
    <style>
      .cls-1 {
        fill: #2d3540;
      }
    </style>
  </defs>
  <g id="Layer_1" data-name="Layer 1">
    <g>
      <path class="cls-1" d="m58.97,22.66c-.31-1.57-1.83-2.6-3.4-2.29l-7.94,1.55-3.01-7.46h0s0,0,0,0c0,0,0,0,0,0-.02-.06-.05-.12-.08-.18,0-.01-.01-.02-.02-.04-.03-.06-.06-.11-.09-.17,0-.01-.01-.02-.02-.03-.03-.05-.06-.1-.09-.15,0,0-.01-.02-.02-.03-.04-.05-.08-.1-.12-.15,0-.01-.02-.02-.03-.03-.04-.05-.08-.09-.12-.13,0,0,0-.01-.01-.02-.04-.04-.09-.09-.13-.13-.01-.01-.03-.03-.04-.04-.04-.03-.07-.06-.11-.09-.02-.02-.04-.03-.06-.05-.03-.03-.07-.05-.11-.08-.03-.02-.05-.04-.08-.05-.02-.01-.04-.02-.06-.04-.11-.07-.23-.13-.35-.18,0,0,0,0,0,0,0,0,0,0,0,0-.13-.05-.26-.1-.39-.13-.02,0-.04-.01-.06-.01-.04-.01-.08-.02-.13-.03-.05,0-.09-.02-.14-.02-.02,0-.05,0-.07,0-.06,0-.11-.01-.17-.02,0,0,0,0-.01,0-.07,0-.14,0-.22,0,0,0,0,0,0,0l-11.3.22c-1.14.02-2.16.71-2.61,1.76l-3.84,8.98c-.63,1.47.05,3.18,1.53,3.8,1.47.63,3.18-.06,3.8-1.53l3.1-7.26,4.94-.1-4.98,11.64-5.89,8.74-8.67,7.36c-1.22,1.04-1.37,2.87-.33,4.09.57.68,1.39,1.02,2.21,1.02.66,0,1.33-.23,1.87-.69l8.97-7.62c.2-.17.38-.37.53-.59l5.09-7.56,5.29,2.16-4.28,5.04c-1.04,1.22-.89,3.05.33,4.09,1.22,1.04,3.05.89,4.09-.33l6.87-8.09c.6-.71.83-1.66.61-2.56-.22-.9-.86-1.64-1.72-2l-8.49-3.47,2.85-6.67,1.3,3.22c.45,1.11,1.52,1.82,2.69,1.82.18,0,.37-.02.56-.05l10.29-2.01c1.57-.31,2.6-1.83,2.29-3.4Z"/>
      <path class="cls-1" d="m44.76,12.09c3.31.61,6.49-1.59,7.1-4.9.61-3.31-1.59-6.49-4.9-7.1-3.31-.61-6.49,1.59-7.1,4.9-.61,3.31,1.59,6.49,4.9,7.1Z"/>
      <path class="cls-1" d="m23.1,17.26c.46-.02.81-.41.79-.87-.02-.46-.41-.81-.87-.79l-17.39.83,17.39.83s.05,0,.08,0Z"/>
      <path class="cls-1" d="m20.29,21.21c.46-.02.81-.41.79-.87-.02-.46-.41-.81-.87-.79l-17.39.83,17.39.83s.05,0,.08,0Z"/>
      <path class="cls-1" d="m17.47,25.16c.46-.02.81-.41.79-.87-.02-.46-.41-.81-.87-.79l-17.39.83,17.39.83s.05,0,.08,0Z"/>
    </g>
  </g>
</svg>