<?xml version="1.0" encoding="UTF-8"?>
<svg id="Capa_2" data-name="Capa 2" xmlns="http://www.w3.org/2000/svg" viewBox="0 0 226.11 170.36">
  <g id="Layer_1" data-name="Layer 1">
    <g>
      <rect x="149.78" y="167.18" width="5.68" height="2.91"/>
      <rect x="218.75" y="167.18" width="5.68" height="2.91"/>
      <path d="m178.38,127.39c-1.48.79-3.15,1.2-4.83,1.2-3.82,0-7.31-2.1-9.1-5.47l-2.01-3.79h-3c-3.89,0-3.89,14.15,0,14.15h22.66v22.15h-34v10h78.01v-10h-34v-22.15h22.66c3.89,0,3.89-14.15,0-14.15h-30.98c-.34,3.3-2.26,6.38-5.41,8.05Z"/>
      <path d="m158.46,35.16c6.99,10.27,20.99,12.93,31.26,5.94,10.27-6.99,12.93-20.99,5.94-31.26-6.99-10.27-20.99-12.93-31.26-5.94-10.27,6.99-12.93,20.99-5.94,31.26Z"/>
      <path d="m2.83,165.78c2.47,3.02,6.06,4.58,9.68,4.58,2.78,0,5.59-.93,7.91-2.83l116.83-95.63-8.28-15.59c-2.66-5.02-.75-11.26,4.26-13.93,1.48-.79,3.15-1.21,4.83-1.21,3.82,0,7.31,2.1,9.1,5.47l6.05,11.39c5.09-5.55,7.39-13.04,4.05-18.62-4.51-7.55-16.53-13.06-30.46-6.3-19.1,9.41-29.44,17.63-43.36,35.13-4.98,7.34-5.33,13.34-3.57,18.32L4.58,148.18c-5.34,4.37-6.13,12.25-1.75,17.59Z"/>
      <path d="m145.12,47.72c-2.07-3.9-6.92-5.38-10.82-3.31-3.9,2.07-5.38,6.92-3.31,10.82l35.5,66.82c1.44,2.71,4.21,4.25,7.07,4.25,1.27,0,2.55-.3,3.75-.94,3.9-2.07,5.38-6.92,3.31-10.82l-35.5-66.82Z"/>
    </g>
  </g>
</svg>