<?xml version="1.0" encoding="UTF-8"?>
<svg id="Capa_2" data-name="Capa 2" xmlns="http://www.w3.org/2000/svg" viewBox="0 0 44.2 68.11">
  <defs>
    <style>
      .cls-1 {
        fill: #2d3540;
      }
    </style>
  </defs>
  <g id="Layer_1" data-name="Layer 1">
    <g>
      <path class="cls-1" d="m43.75,19.79c-.86-1.35-2.65-1.76-4-.9l-9.62,6.08-10.17-1.54-1.12-8.76,9.36-9.78c1.11-1.16,1.07-2.99-.09-4.1-1.16-1.11-2.99-1.07-4.1.09l-10.32,10.78c-.61.63-.89,1.5-.78,2.37l1.22,9.5c-1.7,2.17-4.23,5.68-5.69,8.77-1.49,3.16-2.08,5.47-2.44,7.44l-3.92,10.54c-.07.2-.13.41-.15.62L.03,64.82c-.22,1.59.89,3.05,2.48,3.27,1.59.22,3.05-.89,3.27-2.48l1.86-13.59,2.17-5.83,1.28,5.64,1.99,13.8c.21,1.44,1.45,2.48,2.87,2.48.14,0,.28,0,.42-.03,1.58-.23,2.68-1.7,2.45-3.28l-2.01-13.91c-.01-.08-.02-.15-.04-.23l-2.37-10.49c.29-1.22.73-2.56,1.56-4.32.91-1.93,2.68-4.53,4.19-6.52l10.2,1.54c.14.02.29.03.43.03.55,0,1.08-.15,1.55-.45l10.53-6.66c1.35-.86,1.76-2.65.9-4Z"/>
      <path class="cls-1" d="m21.23,14.6c-1.3,3.11.17,6.68,3.28,7.98,3.11,1.3,6.68-.17,7.98-3.28s-.17-6.68-3.28-7.98c-3.11-1.3-6.68.17-7.98,3.28Z"/>
    </g>
  </g>
</svg>