<?xml version="1.0" encoding="UTF-8"?>
<svg id="Capa_2" data-name="Capa 2" xmlns="http://www.w3.org/2000/svg" viewBox="0 0 25.32 51.48">
  <defs>
    <style>
      .cls-1 {
        fill: #2d3540;
      }
    </style>
  </defs>
  <g id="Layer_1" data-name="Layer 1">
    <g>
      <path class="cls-1" d="m23.95,17.51h-1.56c-.58-3.88-3.42-7.02-7.14-8.03-.58-.16-.99-.68-.99-1.29V1.6c0-.88-.72-1.6-1.6-1.6h0c-.88,0-1.6.72-1.6,1.6v6.59c0,.61-.41,1.13-.99,1.29-3.72,1.01-6.56,4.15-7.14,8.03h-1.56c-.76,0-1.37.61-1.37,1.37v.17c0,.76.61,1.37,1.37,1.37h22.58c.76,0,1.37-.61,1.37-1.37v-.17c0-.76-.61-1.37-1.37-1.37Z"/>
      <g>
        <g>
          <path class="cls-1" d="m4.77,23.09c-.71,0-1.28.58-1.28,1.28v4.3c0,.71.58,1.28,1.28,1.28s1.28-.58,1.28-1.28v-4.3c0-.71-.58-1.28-1.28-1.28Z"/>
          <path class="cls-1" d="m4.77,44.61c-.71,0-1.28.58-1.28,1.28v4.3c0,.71.58,1.28,1.28,1.28s1.28-.58,1.28-1.28v-4.3c0-.71-.58-1.28-1.28-1.28Z"/>
          <path class="cls-1" d="m4.77,33.85c-.71,0-1.28.58-1.28,1.28v4.3c0,.71.58,1.28,1.28,1.28s1.28-.58,1.28-1.28v-4.3c0-.71-.58-1.28-1.28-1.28Z"/>
        </g>
        <g>
          <path class="cls-1" d="m10.03,23.09c-.71,0-1.28.58-1.28,1.28v4.3c0,.71.58,1.28,1.28,1.28s1.28-.58,1.28-1.28v-4.3c0-.71-.58-1.28-1.28-1.28Z"/>
          <path class="cls-1" d="m10.03,44.61c-.71,0-1.28.58-1.28,1.28v4.3c0,.71.58,1.28,1.28,1.28s1.28-.58,1.28-1.28v-4.3c0-.71-.58-1.28-1.28-1.28Z"/>
          <path class="cls-1" d="m10.03,33.85c-.71,0-1.28.58-1.28,1.28v4.3c0,.71.58,1.28,1.28,1.28s1.28-.58,1.28-1.28v-4.3c0-.71-.58-1.28-1.28-1.28Z"/>
        </g>
        <g>
          <path class="cls-1" d="m15.29,23.09c-.71,0-1.28.58-1.28,1.28v4.3c0,.71.58,1.28,1.28,1.28s1.28-.58,1.28-1.28v-4.3c0-.71-.58-1.28-1.28-1.28Z"/>
          <path class="cls-1" d="m15.29,44.61c-.71,0-1.28.58-1.28,1.28v4.3c0,.71.58,1.28,1.28,1.28s1.28-.58,1.28-1.28v-4.3c0-.71-.58-1.28-1.28-1.28Z"/>
          <path class="cls-1" d="m15.29,33.85c-.71,0-1.28.58-1.28,1.28v4.3c0,.71.58,1.28,1.28,1.28s1.28-.58,1.28-1.28v-4.3c0-.71-.58-1.28-1.28-1.28Z"/>
        </g>
        <g>
          <path class="cls-1" d="m20.55,23.09c-.71,0-1.28.58-1.28,1.28v4.3c0,.71.58,1.28,1.28,1.28s1.28-.58,1.28-1.28v-4.3c0-.71-.58-1.28-1.28-1.28Z"/>
          <path class="cls-1" d="m20.55,44.61c-.71,0-1.28.58-1.28,1.28v4.3c0,.71.58,1.28,1.28,1.28s1.28-.58,1.28-1.28v-4.3c0-.71-.58-1.28-1.28-1.28Z"/>
          <path class="cls-1" d="m20.55,33.85c-.71,0-1.28.58-1.28,1.28v4.3c0,.71.58,1.28,1.28,1.28s1.28-.58,1.28-1.28v-4.3c0-.71-.58-1.28-1.28-1.28Z"/>
        </g>
      </g>
    </g>
  </g>
</svg>