<?xml version="1.0" encoding="UTF-8"?>
<svg id="Capa_2" data-name="Capa 2" xmlns="http://www.w3.org/2000/svg" viewBox="0 0 20.71 61.62">
  <defs>
    <style>
      .cls-1 {
        fill: #2d3540;
      }
    </style>
  </defs>
  <g id="Layer_1" data-name="Layer 1">
    <g>
      <path class="cls-1" d="m19.35,20.86c.82-.3,1.36-1.08,1.36-1.95v-.14c.01-3.6-2.52-8.5-6.49-8.82-2.58-.11-5.14-.11-7.72,0C2.47,10.12.06,15.27,0,18.77v.14c0,.87.54,1.65,1.36,1.95,1.38.5,2.36,1.74,2.36,3.18,0,1.27-.76,2.38-1.89,2.97C.7,27.61,0,28.82,0,30.11v27.62c-.09,1.57,1.36,3.1,2.84,3.36,5.02.69,10.01.69,15.03,0,1.58-.15,2.8-1.87,2.84-3.36v-27.62c0-1.29-.69-2.5-1.84-3.1-1.13-.59-1.89-1.7-1.89-2.97,0-1.45.98-2.68,2.37-3.18Z"/>
      <path class="cls-1" d="m5.96,9.28c2.96-.46,5.84-.46,8.8,0,.41.07.72-.14.69-.5-.1-1.18-.2-2.37-.29-3.55-.05-.55-.56-1.11-1.16-1.2-.94-.13-1.86-.21-2.79-.24V.25c0-.16-.15-.28-.3-.24-.18.04-.36.07-.55.07s-.38-.02-.55-.07c-.15-.04-.3.08-.3.24v3.55c-.92.03-1.85.11-2.79.24-.59.09-1.11.65-1.16,1.2-.1,1.18-.2,2.37-.29,3.55-.03.35.28.57.69.5Z"/>
    </g>
  </g>
</svg>