<?xml version="1.0" encoding="UTF-8"?>
<svg id="Capa_2" data-name="Capa 2" xmlns="http://www.w3.org/2000/svg" viewBox="0 0 202.83 294.95">
  <g id="Layer_1" data-name="Layer 1">
    <g>
      <polygon points="63.02 145.22 63.02 44.97 56.95 46.18 56.95 147.43 63.02 145.22"/>
      <path d="m63.02,210.53v-41.9l-6.06,2.21v41.19c.95-.4,1.94-.7,2.97-.9l3.09-.6Z"/>
      <path d="m139.82,210.53l3.09.6c1.03.2,2.02.51,2.97.91v-41.19l-6.06-2.21v41.9Z"/>
      <polygon points="139.82 44.97 139.82 145.23 145.88 147.43 145.88 46.18 139.82 44.97"/>
      <path d="m82.71,49.64h-3v50.82c.87-1.41,1.88-2.73,3-3.94v-46.88Z"/>
      <path d="m82.1,139.02h.61v-7.9c-1.12-1.21-2.13-2.53-3-3.94v12.11c.29-.06.57-.12.87-.15.5-.08,1.02-.12,1.52-.12Z"/>
      <path d="m120.13,131.12v7.9h.61c.5,0,1.03.04,1.61.13.26.03.52.09.79.14v-12.12c-.87,1.41-1.88,2.73-3,3.95Z"/>
      <path d="m120.13,49.64v46.88c1.12,1.21,2.13,2.53,3,3.95v-50.83h-3Z"/>
      <polygon points="120.13 276.64 123.13 276.81 123.13 270 125.54 270 125.54 264.19 123.13 264.19 123.13 260.65 125.54 260.65 125.54 254.84 123.13 254.84 123.13 251.31 125.54 251.31 125.54 245.49 123.13 245.49 123.13 245.15 120.13 245.15 120.13 245.49 109.47 245.49 109.47 251.31 120.13 251.31 120.13 254.84 109.47 254.84 109.47 260.65 120.13 260.65 120.13 264.19 109.47 264.19 109.47 270 120.13 270 120.13 276.64"/>
      <polygon points="77.29 245.49 77.29 251.31 79.71 251.31 79.71 254.84 77.29 254.84 77.29 260.65 79.71 260.65 79.71 264.19 77.29 264.19 77.29 270 79.71 270 79.71 276.81 82.71 276.64 82.71 270 93.36 270 93.36 264.19 82.71 264.19 82.71 260.65 93.36 260.65 93.36 254.84 82.71 254.84 82.71 251.31 93.36 251.31 93.36 245.49 82.71 245.49 82.71 245.15 79.71 245.15 79.71 245.49 77.29 245.49"/>
      <path d="m188.85,283.53l-20.46-1.12c.05,2.23-.41,4.43-1.33,6.48h21.79v-5.36Z"/>
      <path d="m34.45,282.42l-20.46,1.12v5.36h21.79c-.92-2.05-1.37-4.25-1.33-6.48Z"/>
      <path d="m137.02,280.7l-30.55-1.67v-36.88h16.74c1.75,0,3.32-.78,4.4-2l-.22-.95-24.14-4.68c-.62-.12-1.23-.28-1.83-.48-.6.2-1.21.35-1.83.48l-24.14,4.68-.22.95c1.08,1.23,2.65,2.01,4.4,2.01h16.74v36.88l-30.56,1.67-1.26,5.44c-.22.96-.54,1.88-.93,2.75h75.6c-.39-.87-.7-1.79-.93-2.75l-1.26-5.44Z"/>
      <path d="m106.47,139.02v-.2c-.38.08-.75.14-1.13.2h1.13Z"/>
      <path d="m96.36,138.82v.2h1.13c-.38-.06-.76-.13-1.13-.2Z"/>
      <path d="m202.77,157.27c-.46-3.63-3.29-6.38-6.74-6.9l2.75,14.86c2.73-1.55,4.41-4.64,3.99-7.96Z"/>
      <path d="m.06,157.27c-.42,3.31,1.26,6.4,3.99,7.96l2.75-14.86c-3.45.52-6.28,3.27-6.74,6.9Z"/>
      <path d="m45.15,171.01c.33.04.67.06,1,.06.93,0,1.86-.16,2.74-.48l25.48-9.28v50.08l-13.88,2.69c-4.75.92-8.51,4.55-9.6,9.26l-13.14,56.59c-1.53,6.59,2.57,13.17,9.16,14.7.93.22,1.86.32,2.78.32,5.57,0,10.61-3.82,11.92-9.48l11.34-48.85,26.05-5.05c.84-.16,1.64-.41,2.4-.73.76.32,1.56.56,2.4.73l26.05,5.05,11.34,48.85c1.31,5.66,6.35,9.48,11.92,9.48.92,0,1.85-.1,2.78-.32,6.59-1.53,10.69-8.11,9.16-14.7l-13.14-56.59c-1.09-4.71-4.85-8.34-9.6-9.26l-13.88-2.69v-50.08l25.49,9.28c.88.32,1.81.48,2.74.48.33,0,.67-.02,1-.06l31.27-3.93.55,2.95.37,2.02c.18,1,.78,1.81,1.57,2.31.55.35,1.19.55,1.87.55.21,0,.42-.02.64-.06,1.9-.35,3.16-2.18,2.8-4.08l-20.62-111.54c-2.01-10.85-10.3-19.27-21.12-21.43l-24.22-4.85v-13.81h9.03v12.56l6.06,1.21v-13.77h10.19v-6.06h-25.28v-7.4h-11.27V0h-36.19v5.68h-11.27v7.4h-25.28v6.06h10.19v13.77l6.06-1.21v-12.56h9.03v13.81l-24.22,4.84c-10.82,2.16-19.11,10.58-21.12,21.43L6.08,170.77c-.35,1.9.9,3.73,2.8,4.08.22.04.43.06.64.06.27,0,.54-.04.79-.1,1.31-.31,2.38-1.35,2.64-2.76l.37-2.02.55-2.95,31.27,3.93Zm-11.56-110.5c1.48-8.02,7.61-14.24,15.61-15.84l22.85-4.57v5.37h24.32v43.35c1.63-.33,3.32-.5,5.05-.5s3.42.17,5.05.5v-43.35h24.32v-5.37l22.85,4.57c8,1.6,14.13,7.82,15.61,15.84l15.89,85.92.36,1.93.55,2.95-28.43,3.58-33.94-12.36c-.59-.21-1.18-.35-1.77-.42-.38-.06-.76-.1-1.16-.1h-38.63c-.39,0-.78.04-1.16.1-.59.07-1.19.21-1.77.42l-33.94,12.36-28.43-3.58.55-2.96.85-4.6,15.39-83.25Z"/>
      <circle cx="101.42" cy="113.82" r="22.5"/>
    </g>
  </g>
</svg>