<?xml version="1.0" encoding="UTF-8"?>
<svg id="Capa_2" data-name="Capa 2" xmlns="http://www.w3.org/2000/svg" viewBox="0 0 277.32 110">
  <g id="Layer_1" data-name="Layer 1">
    <g>
      <circle cx="254.81" cy="81.82" r="22.5" transform="translate(67.36 272.84) rotate(-63.34)"/>
      <path d="m162.32,37.51c-11.56-5.12-14.59-2.77-17.52,4.05L49.55,1c-6.35-2.7-13.69.25-16.4,6.6-2.7,6.35.25,13.69,6.6,16.4l10.22,4.35h16.69c3.56,0,5.8,3.68,5.91,9.62l79.55,33.88s.05.03.07.05c9.97,5.12,18.16,8.48,26.54,10.66v-38.61c-5.76-1.66-11.37-3.73-16.42-6.43Z"/>
      <path d="m231.34,67.77c1-8.74-8.84-16.43-19.16-17.24-.19-.03-.39-.06-.59-.1l8.76,12.03c3.34,4.59,2.33,11.05-2.26,14.39-1.77,1.29-3.87,1.97-6.06,1.97-3.29,0-6.4-1.58-8.33-4.24l-4.36-5.99v17.11c2.2.15,4.46.27,6.85.34,15.48.42,24.16-9.54,25.16-18.28Z"/>
      <path d="m66.67,45.5c3.89,0,3.89-14.15,0-14.15H11.34c-3.89,0-3.89,14.15,0,14.15h22.66v48.67H0v10h78.01v-10h-34v-48.67h22.66Z"/>
      <path d="m205.55,73.24c2.6,3.57,7.6,4.36,11.18,1.76,3.57-2.6,4.36-7.6,1.76-11.18l-22.99-31.58c-2.04-2.8-5.65-3.97-8.94-2.9-3.29,1.07-5.52,4.14-5.52,7.61v65.05c0,4.42,3.58,8,8,8s8-3.58,8-8v-40.47l8.52,11.71Z"/>
      <rect x="1.68" y="105.72" width="5.68" height="2.91"/>
      <rect x="70.65" y="105.72" width="5.68" height="2.91"/>
    </g>
  </g>
</svg>