<?xml version="1.0" encoding="UTF-8"?>
<svg id="Capa_2" data-name="Capa 2" xmlns="http://www.w3.org/2000/svg" viewBox="0 0 225.96 176">
  <defs>
    <style>
      .cls-1 {
        fill-rule: evenodd;
      }
    </style>
  </defs>
  <g id="Capa_1-2" data-name="Capa 1">
    <path class="cls-1" d="m190.72,168.21V3.9c0-2.15-1.74-3.9-3.9-3.9h-21.03c-2.15,0-3.9,1.74-3.9,3.9v15.81h-97.82V3.9c0-2.15-1.74-3.9-3.89-3.9h-21.04c-2.15,0-3.9,1.74-3.9,3.9v164.31H3.9c-2.15,0-3.9,1.74-3.9,3.9s1.75,3.9,3.9,3.9h218.16c2.15,0,3.9-1.74,3.9-3.9s-1.75-3.9-3.9-3.9h-31.34Zm-134.44,0V7.79h-13.24v160.42h13.24Zm7.79-125.37v125.37h97.82V42.83h-97.82Zm118.86,125.37V7.79h-13.24v160.42h13.24ZM64.07,27.5v7.54h97.82v-7.54h-97.82Z"/>
  </g>
</svg>