<?xml version="1.0" encoding="UTF-8"?>
<svg id="Capa_2" data-name="Capa 2" xmlns="http://www.w3.org/2000/svg" viewBox="0 0 147.73 225.95">
  <defs>
    <style>
      .cls-1 {
        fill-rule: evenodd;
      }
    </style>
  </defs>
  <g id="Capa_1-2" data-name="Capa 1">
    <path class="cls-1" d="m147.73,18.45c0-10.19-8.26-18.45-18.45-18.45H18.45C8.26,0,0,8.26,0,18.45v189.06c0,10.19,8.26,18.45,18.45,18.45h110.84c10.19,0,18.45-8.26,18.45-18.45V18.45h0Zm-7.79,0v189.06c0,5.89-4.77,10.66-10.66,10.66H18.45c-5.89,0-10.66-4.77-10.66-10.66V18.45c0-5.89,4.77-10.66,10.65-10.66h110.84c5.89,0,10.66,4.77,10.66,10.66h0Zm-8.53,14.14c0-2.15-1.74-3.9-3.9-3.9H20.21c-2.15,0-3.9,1.74-3.9,3.9v160.78c0,2.15,1.74,3.9,3.9,3.9h107.3c2.15,0,3.9-1.74,3.9-3.9V32.59h0Zm-7.79,3.89v152.99H24.11s0-152.99,0-152.99h99.51Zm-60.46,89.27h21.4v10.44c0,2.15,1.74,3.9,3.9,3.9h22.13c2.15,0,3.9-1.74,3.9-3.9v-46.43c0-2.15-1.74-3.9-3.9-3.9h-22.13c-2.15,0-3.9,1.74-3.9,3.9v10.44h-21.4v-10.44c0-2.15-1.74-3.9-3.9-3.9h-22.13c-2.15,0-3.9,1.74-3.9,3.9v46.43c0,2.15,1.74,3.9,3.9,3.9h22.13c2.15,0,3.9-1.74,3.9-3.9v-10.44h0Zm43.54-32.09v38.63h-14.34v-38.63h14.34Zm-51.33,0v38.63h-14.34v-38.63h14.34Zm7.79,14.34v9.96h21.4v-9.96h-21.4Z"/>
  </g>
</svg>