<?xml version="1.0" encoding="UTF-8"?>
<svg id="Capa_2" data-name="Capa 2" xmlns="http://www.w3.org/2000/svg" viewBox="0 0 40.08 44.65">
  <defs>
    <style>
      .cls-1 {
        fill: #2d3540;
      }
    </style>
  </defs>
  <g id="Layer_1" data-name="Layer 1">
    <g>
      <path class="cls-1" d="m16.4,27.87c.53.28,1.18.24,1.67-.1l4.69-3.2c.5-.34.77-.93.7-1.53l-.02-.2c-.07-.6-.46-1.12-1.02-1.34-.44-.18-.94-.15-1.36.07l-5.31,2.8c-.65.34-.99,1.08-.83,1.79.14.66.57,1.22,1.17,1.53l.31.16Z"/>
      <path class="cls-1" d="m18.71,28.13c-.55.35-.75,1.06-.48,1.65.32.69.92,1.2,1.65,1.4l.09.02c.44.12.91,0,1.24-.3l3.5-3.29c.26-.25.41-.59.41-.95v-.25c0-.63-.45-1.17-1.08-1.28-.32-.06-.65,0-.92.18l-4.41,2.81Z"/>
      <path class="cls-1" d="m13.04,19.9l2.62-1.3c-.24-.41-.56-1.12-.74-1.58l-.86-2.33-3.22,1.39c-.57.24-.95.8-.96,1.42l.03.37c0,.16.04.4.1.66.2.75.79,1.33,1.54,1.52.5.13,1.03.07,1.49-.16Z"/>
      <path class="cls-1" d="m14.83,24.35l5.04-2.58c-.37.11-1.16-.29-1.51-.47-.94-.48-1.84-1.34-2.57-2.44l-2.93,1.56c-.77.39-1.23,1.2-1.18,2.06v.06c.04.63.35,1.22.86,1.6.66.5,1.56.58,2.3.2Z"/>
      <rect class="cls-1" x="22.3" y="27.95" width="10.79" height="16.97" rx="2.49" ry="2.49" transform="translate(12.58 79.63) rotate(-123.48)"/>
      <rect class="cls-1" x="3.7" y="-.17" width="10.79" height="16.97" rx="2.49" ry="2.49" transform="translate(7.17 20.49) rotate(-123.49)"/>
      <path class="cls-1" d="m26.27,44.34c.65.31,1.44.28,2.09-.14l6.22-4.12c.65-.43.98-1.15.95-1.87l-9.26,6.13Z"/>
      <path class="cls-1" d="m13.76,14.15c-.02-.12-.02-.25-.02-.37.01-.6.24-1.16.62-1.59l-2.21-3.34-3.76,2.49,2.64,3.99,2.74-1.18Z"/>
      <polygon class="cls-1" points="21.63 31.34 21.63 31.35 24.5 35.7 28.27 33.21 24.96 28.22 21.63 31.34"/>
      <path class="cls-1" d="m38.31,16.64c-2.89.5-5.86-.06-8.36-1.59l-2.94-1.8c-2.43-1.49-5.32-2.06-8.14-1.63l-2.83.32c-.93.11-1.66.88-1.68,1.84,0,.27.05.54.15.79l.9,2.22c.64,1.56,1.81,3.26,3.31,4.01.65.33,1.43-.06,1.57-.77l.25-1.27c.08-.41,0-1.05-.19-1.43l-1.23-2.53c-.05-.11-.1-.24-.14-.39-.04-.14-.07-.27-.09-.39,0-.27,0-.6.08-.97.05-.23.11-.44.17-.62-.03.25-.04.68.11,1.18.13.44.34.77.49.96.22.3.76,1.04,1.16,2.02.26-.38.36-.73.68-1.12.71-.88,1.92-1.23,1.93-1.24-.3.17-.71.45-1.12.89-.18.19-.67.77-.98,1.67-.1.29-.16.55-.19.8.18.81.21,1.7-.11,2.6-.17.49-.45,1.06-.45,1.06.26,0,1.75-.45,2-.35.78.31,1.32,1.02,1.41,1.85l.02.2c.06.54-.08,1.08-.38,1.51.15,0,.3,0,.44.02.92.16,1.59.96,1.59,1.89v.25c0,.09,0,.18-.02.27-.04.13-.1.28-.18.44-.06.12-.12.23-.19.33.47.71.94,1.43,1.41,2.14l2.6-1.72c.69-.46,1.52-.62,2.34-.45.62.13,1.17.43,1.61.87.63-.19,1.3-.23,1.96-.12l2.87.49c1.69-2.38,2.32-5.36,1.72-8.22l-.86-4.16-.69.12Z"/>
      <path class="cls-1" d="m10.62.34c-.69-.44-1.6-.47-2.32.01L2.07,4.47c-.73.48-1.06,1.33-.92,2.13L10.62.34Z"/>
    </g>
  </g>
</svg>