<?xml version="1.0" encoding="UTF-8"?>
<svg id="Capa_2" data-name="Capa 2" xmlns="http://www.w3.org/2000/svg" viewBox="0 0 48.34 48.09">
  <defs>
    <style>
      .cls-1 {
        fill: #2d3540;
      }
    </style>
  </defs>
  <g id="Layer_1" data-name="Layer 1">
    <path class="cls-1" d="m47.66,4.97c-.67-.9-1.69-1.41-2.81-1.41h-2.39c.08-.87.13-1.75.16-2.64.01-.5-.39-.92-.89-.92H6.62c-.5,0-.9.42-.89.92.03.89.08,1.77.16,2.64h-2.39c-1.12,0-2.14.52-2.81,1.41C.02,5.87-.17,7,.15,8.07c.59,1.94,1.6,3.63,3.01,5.01,2.05,2.01,4.36,2.82,5.94,3.15.01,0,.03,0,.04,0,2.96,6.42,7.58,10.86,12.89,11.81-.2,5.31-2.37,9.72-5.29,11.19-.46.23-.98.35-1.5.35h-1.3c-.31,0-.55.25-.55.55v7.41c0,.31.25.55.55.55h20.44c.31,0,.55-.25.55-.55v-7.41c0-.31-.25-.55-.55-.55h-1.3c-.52,0-1.03-.11-1.5-.35-2.92-1.47-5.08-5.88-5.29-11.19,5.31-.95,9.93-5.39,12.89-11.81.01,0,.03,0,.04,0,1.58-.32,3.89-1.13,5.94-3.15,1.41-1.38,2.42-3.07,3.01-5.01.32-1.07.13-2.2-.54-3.09ZM5.28,10.93c-1.04-1.02-1.79-2.28-2.24-3.74-.06-.2.02-.35.07-.42.05-.07.17-.19.38-.19h2.77c.34,2.11.84,4.14,1.46,6.04-.8-.37-1.65-.91-2.45-1.69Zm40.02-3.74c-.44,1.45-1.19,2.71-2.24,3.74-.8.78-1.65,1.32-2.45,1.69.63-1.9,1.12-3.92,1.46-6.04h2.77c.21,0,.33.12.38.19.05.07.13.22.07.42Z"/>
  </g>
</svg>