<?xml version="1.0" encoding="UTF-8"?>
<svg id="Capa_2" data-name="Capa 2" xmlns="http://www.w3.org/2000/svg" viewBox="0 0 225.96 99.85">
  <defs>
    <style>
      .cls-1 {
        fill-rule: evenodd;
      }
    </style>
  </defs>
  <g id="Capa_1-2" data-name="Capa 1">
    <path class="cls-1" d="m34.06,11.13h-13.33c-2.15,0-3.9,1.74-3.9,3.9v20.95H3.9c-2.15,0-3.9,1.74-3.9,3.9v20.11c0,2.15,1.74,3.9,3.9,3.9h12.93v20.95c0,2.15,1.74,3.9,3.9,3.9h13.33v7.23c0,2.15,1.75,3.9,3.9,3.9h17.23c2.15,0,3.9-1.74,3.9-3.9v-32.08h107.8v32.08c0,2.15,1.75,3.9,3.9,3.9h17.23c2.15,0,3.9-1.74,3.9-3.9v-7.23h13.33c2.15,0,3.9-1.74,3.9-3.9v-20.95h12.93c2.15,0,3.9-1.74,3.9-3.9v-20.11c0-2.15-1.74-3.9-3.9-3.9h-12.93V15.02c0-2.15-1.74-3.9-3.9-3.9h-13.33V3.9c0-2.15-1.74-3.9-3.9-3.9h-17.23c-2.15,0-3.9,1.75-3.9,3.9v32.08H59.08V3.9c0-2.15-1.75-3.9-3.9-3.9h-17.23c-2.15,0-3.9,1.75-3.9,3.9v7.23h0Zm150.05,3.91v-7.24h-9.44v84.27h9.44V15.03h0ZM41.85,92.06V7.79h9.44v84.27h-9.44ZM191.9,18.92v62.02h9.44V18.92h-9.44Zm-167.28,0v62.02h9.44V18.92h-9.44Zm184.51,24.85v12.32h9.03v-12.32h-9.03Zm-192.3,0H7.79v12.32h9.03v-12.32h0Zm42.25,0v12.32h107.8v-12.32H59.08Z"/>
  </g>
</svg>