<?xml version="1.0" encoding="UTF-8"?>
<svg id="Capa_2" data-name="Capa 2" xmlns="http://www.w3.org/2000/svg" viewBox="0 0 69.09 56.77">
  <defs>
    <style>
      .cls-1 {
        fill: #2d3540;
      }
    </style>
  </defs>
  <g id="Layer_1" data-name="Layer 1">
    <g>
      <circle class="cls-1" cx="53.13" cy="6.75" r="6.75"/>
      <path class="cls-1" d="m41.51,29.91c-.03-.99-.56-1.89-1.4-2.4l-13.16-7.93c1.72-.9,3.53-1.63,5.41-2.16,3.1-.87,6.4-1.19,9.63-.95.94,2.44,3.17,6.17,8.32,8.24,2.59,1.04,5.13,1.34,7.19,1.34.73,0,1.41-.04,2-.09,1.59-.15,2.77-1.56,2.62-3.16-.15-1.59-1.56-2.77-3.16-2.62-1.62.15-4.05.13-6.48-.85-4.41-1.78-5.28-5.41-5.39-6-.01-.06-.02-.13-.04-.19,0,0,0,0,0,0-.01-.04-.02-.09-.03-.13,0,0,0-.02,0-.03-.01-.03-.02-.07-.03-.1,0-.02-.01-.03-.02-.05,0-.03-.02-.05-.03-.08,0-.02-.02-.05-.03-.07,0-.02-.01-.03-.02-.05-.01-.03-.03-.06-.04-.09,0-.01-.01-.02-.02-.03-.02-.03-.03-.07-.05-.1,0,0,0-.01,0-.02-.02-.04-.04-.07-.06-.11,0,0,0,0,0,0-.02-.04-.05-.07-.07-.11,0,0,0,0,0,0-.02-.04-.05-.07-.07-.1,0,0,0,0,0-.01-.02-.03-.05-.06-.07-.09,0,0-.01-.01-.02-.02-.02-.03-.05-.05-.07-.08,0-.01-.02-.02-.03-.03-.02-.02-.04-.04-.06-.07-.01-.01-.03-.03-.04-.04-.02-.02-.03-.03-.05-.05-.02-.02-.04-.03-.06-.05-.01-.01-.03-.02-.04-.04-.02-.02-.05-.04-.07-.06-.01,0-.02-.02-.03-.02-.03-.02-.06-.04-.09-.06,0,0-.02-.01-.02-.02-.03-.02-.06-.04-.1-.06,0,0-.01,0-.02-.01-.03-.02-.07-.04-.1-.06,0,0-.01,0-.02-.01-.03-.02-.07-.04-.1-.05,0,0-.02-.01-.03-.01-.03-.01-.06-.03-.09-.04-.01,0-.03-.01-.04-.02-.03-.01-.05-.02-.08-.03-.02,0-.04-.02-.06-.02-.02,0-.04-.01-.06-.02-.03-.01-.06-.02-.09-.03-.01,0-.03,0-.04-.01-.04-.01-.08-.02-.12-.03,0,0,0,0-.01,0-.12-.03-.23-.05-.35-.06-4.58-.64-9.34-.32-13.78.92-3.99,1.12-7.7,2.95-11.02,5.44-.06.05-.13.09-.19.15,0,0,0,0,0,0-.04.03-.08.07-.11.1,0,0,0,0,0,0-.04.03-.07.07-.1.1,0,0,0,0,0,0-.03.03-.06.07-.09.1,0,0,0,0-.01.01-.03.03-.06.07-.08.1,0,0-.01.01-.02.02-.02.03-.05.06-.07.1,0,0-.01.02-.02.03-.02.03-.04.07-.06.1,0,.01-.01.02-.02.03,0,0,0,0,0,0-.11.18-.2.37-.26.56h0c-.02.05-.03.1-.05.15,0,0,0,0,0,0-.01.05-.03.1-.04.15,0,0,0,0,0,0-.01.05-.02.1-.03.15,0,0,0,0,0,0,0,.05-.02.1-.02.15,0,0,0,0,0,0-.02.21-.02.42,0,.62,0,.01,0,.03,0,.04,0,.03,0,.07.01.1,0,.02,0,.04,0,.06,0,.03.01.06.02.09,0,.02,0,.04.01.06,0,.03.01.06.02.09,0,.02.01.04.02.06,0,.03.02.06.03.09,0,.02.01.03.02.05.01.04.03.07.04.11,0,0,0,.02.01.03.06.14.13.28.21.42,0,0,0,0,0,0,.03.04.05.09.08.13,0,0,0,0,0,0,.03.04.06.08.09.12,0,0,0,0,0,0,.03.04.06.08.1.12,0,0,0,0,0,0,.03.04.07.08.11.12h0s.09.09.14.14l10.95,10.28-3.95,2.7c-2.54-4.03-7.03-6.7-12.14-6.7-7.91,0-14.35,6.44-14.35,14.35s6.44,14.35,14.35,14.35,14.35-6.44,14.35-14.35c0-.69-.05-1.37-.14-2.03l1.16-.79c-.34,2.41-.69,4.9-1.03,7.61-.2,1.59.92,3.04,2.51,3.24.12.02.25.02.37.02,1.44,0,2.69-1.07,2.87-2.53.37-2.89.74-5.55,1.11-8.13.21-1.51.43-3.04.65-4.64l4.07-2.78c.81-.56,1.29-1.49,1.26-2.48Zm-27.16,23.55c-6.09,0-11.04-4.95-11.04-11.04s4.95-11.04,11.04-11.04c3.98,0,7.48,2.12,9.42,5.29-1.02.96-1.22,2.55-.4,3.75.48.7,1.21,1.12,1.99,1.23.02.25.03.51.03.76,0,6.09-4.95,11.04-11.04,11.04Z"/>
      <path class="cls-1" d="m54.74,28.07c-7.91,0-14.35,6.44-14.35,14.35s6.44,14.35,14.35,14.35,14.35-6.44,14.35-14.35-6.44-14.35-14.35-14.35Zm0,25.39c-6.09,0-11.04-4.95-11.04-11.04s4.95-11.04,11.04-11.04,11.04,4.95,11.04,11.04-4.95,11.04-11.04,11.04Z"/>
    </g>
  </g>
</svg>