<?xml version="1.0" encoding="UTF-8"?>
<svg id="Capa_2" data-name="Capa 2" xmlns="http://www.w3.org/2000/svg" xmlns:xlink="http://www.w3.org/1999/xlink" viewBox="0 0 85 69.99">
  <defs>
    <style>
      .cls-1 {
        fill: none;
      }

      .cls-2 {
        clip-path: url(#clippath);
      }

      .cls-3 {
        fill: #515151;
      }
    </style>
    <clipPath id="clippath">
      <rect class="cls-1" x=".01" width="84.99" height="69.99"/>
    </clipPath>
  </defs>
  <g id="Layer_1" data-name="Layer 1">
    <g id="NewGroupe25">
      <g id="NewGroup0-34">
        <g class="cls-2">
          <path class="cls-3" d="m82.03,40.17l-1.57,2.8s-.03,0-.05,0c-.06-.01-.11-.02-.17-.03-.03,0-.05,0-.08-.01-.05,0-.1-.02-.15-.02-.03,0-.05,0-.08,0-.06,0-.12-.01-.17-.01-.02,0-.04,0-.06,0-.08,0-.15,0-.23,0-.02,0-.03,0-.05,0-.06,0-.12,0-.18,0-.03,0-.05,0-.08,0-.05,0-.1,0-.15.02-.03,0-.06,0-.09.01-.05,0-.11.02-.16.03-.02,0-.05,0-.07.01-.08.02-.15.03-.23.05,0,0,0,0,0,0,0,0,0,0,0,0-.05.01-.09.03-.14.04-.02,0-.04.01-.06.02-.05.01-.09.03-.14.05-.02,0-.04.01-.06.02-.04.02-.08.03-.12.05-.02,0-.05.02-.07.03-.04.02-.07.03-.11.05-.03.01-.06.03-.08.04-.03.01-.06.03-.09.05-.03.02-.07.03-.1.05-.02.01-.05.03-.07.04-.04.02-.08.04-.11.07-.02.01-.03.02-.05.03-.04.03-.08.05-.13.08,0,0-.02.01-.03.02-.05.03-.09.07-.14.1,0,0,0,0-.01,0-.44.34-.81.76-1.08,1.25l-2.63,4.68-5.32,9.47c-.55.98-.69,2.17-.36,3.25,0,0,0,0,0,.01.02.07.05.14.07.21.01.03.02.06.03.09.02.05.03.09.05.13.01.03.03.06.04.09.02.04.04.08.06.13.01.03.03.06.04.08.02.05.05.09.08.14.01.02.02.04.03.06.04.06.08.13.12.19.01.02.03.04.04.05.03.05.06.09.1.13.02.02.03.04.05.06.03.04.06.08.1.12.02.02.03.04.05.06.04.04.08.08.12.13.01.01.02.02.03.03l-1.3,2.32c-.27.49-.75.82-1.3.9-.55.09-1.11-.08-1.52-.47l-.95-.89c-3.43-3.2-4.21-8.29-1.92-12.38l6.74-11.99c1.96-3.49,5.68-5.58,9.57-5.58.81,0,1.63.09,2.45.28.81.19,1.47.73,1.81,1.5.34.76.29,1.62-.11,2.34h0Zm-62.93-10.54l2.98-5.3,40.33,22.44-2.98,5.3L19.11,29.63h0Zm-2.34-1.2c-2.3,4.09-7.05,6.06-11.57,4.8l-1.25-.35c-.54-.15-.97-.53-1.19-1.05-.21-.52-.18-1.09.09-1.58l1.3-2.32s.05,0,.07.01c.04,0,.07.02.11.02.05,0,.1.02.15.03.04,0,.07.01.11.02.05,0,.11.01.16.02.03,0,.07,0,.1,0,.06,0,.11,0,.17,0,.02,0,.05,0,.07,0,0,0,.01,0,.02,0,.05,0,.11,0,.16,0,.03,0,.06,0,.09,0,.06,0,.12-.01.18-.02.03,0,.05,0,.08,0,.07,0,.14-.02.2-.03.02,0,.04,0,.05,0,.09-.02.18-.04.27-.06,1.09-.29,2.04-1.02,2.59-2l7.95-14.15c.03-.06.07-.12.1-.19.02-.05.04-.09.07-.14,0-.02.02-.03.02-.05.03-.06.05-.13.08-.19,0,0,0,0,0,0,.07-.2.13-.4.18-.6,0,0,0,0,0,0,.01-.06.03-.13.04-.19,0,0,0,0,0-.01,0-.06.02-.12.02-.18,0,0,0-.02,0-.03,0-.06.01-.11.01-.17,0-.01,0-.03,0-.04,0-.05,0-.1,0-.15,0-.02,0-.04,0-.06,0-.04,0-.09,0-.13,0-.03,0-.05,0-.08,0-.04,0-.08,0-.12,0-.03,0-.06,0-.09,0-.03,0-.07-.01-.1,0-.04,0-.07-.01-.11,0-.03,0-.06-.01-.09,0-.04-.01-.08-.02-.12,0-.03-.01-.05-.02-.08,0-.04-.02-.08-.03-.13,0-.03-.01-.05-.02-.08-.01-.04-.02-.08-.03-.12,0,0,0,0,0,0,0,0,0,0,0,0-.02-.07-.05-.15-.07-.22,0-.02-.02-.05-.03-.07-.02-.05-.04-.1-.06-.15-.01-.03-.02-.05-.04-.08-.02-.05-.04-.09-.07-.14-.01-.03-.02-.05-.04-.07-.03-.05-.06-.1-.09-.15,0-.02-.02-.03-.03-.05-.04-.07-.08-.13-.12-.19-.01-.02-.02-.03-.04-.05-.03-.05-.07-.09-.1-.14-.02-.02-.03-.04-.05-.06-.03-.04-.06-.08-.1-.12-.02-.02-.04-.04-.05-.06-.04-.04-.08-.08-.11-.12-.01-.01-.02-.02-.03-.04l1.57-2.8c.41-.73,1.12-1.21,1.94-1.32.83-.11,1.64.17,2.22.77,3.38,3.45,4.09,8.81,1.72,13.03l-6.74,11.99h0Zm9.54-11.72l40.43,22.49c-.26.37-.5.74-.72,1.14l-2.32,4.13L23.38,22.04l2.42-4.31c.19-.33.36-.67.52-1.01h0Zm54.62,17.06c-2.88-.67-5.84-.39-8.55.8-1.46.64-2.77,1.52-3.9,2.6L27.18,14.19c.38-1.59.46-3.24.24-4.89-.39-2.93-1.69-5.6-3.76-7.72C22.5.39,20.88-.17,19.23.05c-1.65.22-3.07,1.18-3.89,2.63l-1.64,2.92c-.55-.07-1.12-.04-1.66.12-1.06.3-1.94.99-2.48,1.95h0L1.55,21.9c-.84,1.5-.64,3.33.39,4.61l-1.37,2.44c-.67,1.2-.76,2.61-.23,3.87s1.58,2.2,2.9,2.57l1.25.35c1.15.32,2.31.48,3.46.48,3.69,0,7.22-1.61,9.65-4.43l40.74,22.66c-1.61,4.69-.37,9.96,3.36,13.45l.95.89c.83.78,1.9,1.2,3.02,1.2.23,0,.46-.02.69-.05,1.35-.21,2.52-1.02,3.19-2.21l1.37-2.44c.18.02.36.04.54.04,1.45,0,2.85-.76,3.6-2.1l8.01-14.24c.54-.96.67-2.07.38-3.13-.15-.55-.42-1.05-.77-1.48l1.64-2.92c.82-1.45.9-3.16.23-4.69-.67-1.53-1.99-2.62-3.61-2.99h0Z"/>
        </g>
      </g>
    </g>
  </g>
</svg>