<?xml version="1.0" encoding="UTF-8"?>
<svg id="Capa_2" data-name="Capa 2" xmlns="http://www.w3.org/2000/svg" xmlns:xlink="http://www.w3.org/1999/xlink" viewBox="0 0 85 45.79">
  <defs>
    <style>
      .cls-1 {
        fill: none;
      }

      .cls-2 {
        clip-path: url(#clippath);
      }

      .cls-3 {
        fill: #515151;
      }
    </style>
    <clipPath id="clippath">
      <rect class="cls-1" width="85" height="45.79"/>
    </clipPath>
  </defs>
  <g id="Layer_1" data-name="Layer 1">
    <g id="NewGroupe37">
      <g id="NewGroup0-22">
        <g class="cls-2">
          <path class="cls-3" d="m81.08,30.43c-.34.05-.66.16-.97.33-.67.37-1.15.97-1.36,1.71l-1.18,4.08c-.32,1.11.07,2.26.89,2.96l-.71,2.45-8.11-8,1-3.52,11.15-2.46-.71,2.45h0ZM14.83,15.25l-11.62,2.56.71-2.45c.34-.05.66-.16.97-.33.67-.37,1.15-.97,1.36-1.71l1.18-4.08c.32-1.11-.07-2.26-.89-2.96l.71-2.45,8.45,8.34-.87,3.08h0Zm68.57,9.66l-12.74,2.81c-.36-.78-1.04-1.4-1.92-1.64l-3.16-.89c-.78-.22-1.59-.12-2.29.27-.1.06-.2.12-.29.18-1.76-2.39-3.83-3.97-6.18-4.72-4.65-1.48-9.17.65-12.81,2.37-2.26,1.07-4.6,2.17-5.46,1.49-.92-.73-.4-3.36.06-5.67.66-3.31,1.34-6.74-.79-8.78-1.41-1.35-3.7-1.65-6.8-.89-1.78.43-3.91,1.22-6.33,2.36-.36-.75-1.03-1.34-1.89-1.59l-3.16-.89c-.78-.22-1.59-.12-2.29.27-.11.06-.21.13-.31.2L7.52.38c-.33-.33-.81-.46-1.26-.34-.45.12-.81.47-.94.91l-1.37,4.74c-.94.25-1.72.97-2.01,1.97l-1.18,4.08c-.21.73-.12,1.5.24,2.17.11.2.25.39.41.56L.05,19.22c-.13.45-.01.93.31,1.27.25.27.6.42.96.42.09,0,.19-.01.29-.03l13.35-2.95c.38.69,1.03,1.24,1.83,1.46l3.16.89c.27.08.55.12.83.12.51,0,1.01-.13,1.47-.39.7-.39,1.21-1.04,1.43-1.81l.98-3.46c8.3-4.1,10.69-3.13,11.34-2.51,1.08,1.04.52,3.86.03,6.35-.64,3.21-1.3,6.53.89,8.27,1.03.82,2.36.99,4.06.54,1.28-.34,2.68-1.01,4.18-1.71,3.38-1.6,7.21-3.41,10.87-2.24,2.11.68,3.98,2.3,5.56,4.82l-.93,3.29c-.45,1.6.48,3.27,2.08,3.72l3.16.89c.27.08.54.11.81.11.43,0,.86-.09,1.25-.27l9.53,9.4c.25.25.59.38.93.38.11,0,.22-.01.33-.04.45-.12.81-.47.94-.91l1.37-4.74c.94-.25,1.72-.97,2.01-1.97l1.18-4.08c.21-.73.12-1.5-.24-2.17-.11-.2-.25-.39-.41-.56l1.37-4.74c.13-.45.01-.93-.31-1.27-.32-.34-.79-.49-1.25-.39h0Z"/>
        </g>
      </g>
    </g>
  </g>
</svg>