<?xml version="1.0" encoding="UTF-8"?>
<svg id="Capa_2" data-name="Capa 2" xmlns="http://www.w3.org/2000/svg" xmlns:xlink="http://www.w3.org/1999/xlink" viewBox="0 0 84.99 71.46">
  <defs>
    <style>
      .cls-1 {
        fill: none;
      }

      .cls-2 {
        clip-path: url(#clippath);
      }

      .cls-3 {
        fill: #515151;
      }
    </style>
    <clipPath id="clippath">
      <rect class="cls-1" width="84.99" height="71.46"/>
    </clipPath>
  </defs>
  <g id="Layer_1" data-name="Layer 1">
    <g id="NewGroupe51">
      <g id="NewGroup0-8">
        <g class="cls-2">
          <path class="cls-3" d="m82.23,31.42c-.2.52-.62.92-1.16,1.09l-7.51,2.33c-.8.25-1.67-.08-2.1-.8l-13.68-22.82c-.6-1-.46-2.29.33-3.14l4.25-4.6c.5-.54,1.19-.84,1.92-.84.09,0,.19,0,.28.01.83.09,1.56.55,1.99,1.26l1.65,2.76s-.02.03-.03.04c-.04.04-.07.08-.11.12-.02.02-.04.04-.05.06-.03.04-.06.08-.09.12-.02.02-.03.04-.05.07-.03.05-.06.09-.09.14-.01.02-.02.04-.04.05-.04.06-.08.13-.12.2,0,.02-.02.03-.03.05-.03.05-.05.1-.08.16-.01.03-.02.05-.04.08-.02.05-.04.09-.06.14-.01.03-.02.05-.03.08-.02.05-.04.1-.06.15,0,.02-.02.05-.03.07-.02.07-.05.15-.07.22,0,0,0,0,0,0,0,0,0,0,0,0-.01.04-.02.08-.03.12,0,.03-.01.05-.02.08,0,.04-.02.08-.02.12,0,.03-.01.06-.02.09,0,.04-.01.08-.02.11,0,.03,0,.06-.01.1,0,.03,0,.07,0,.1,0,.04,0,.07,0,.11,0,.03,0,.06,0,.09,0,.04,0,.08,0,.12,0,.02,0,.05,0,.07,0,.05,0,.09,0,.14,0,.02,0,.03,0,.05,0,.05,0,.11.01.16,0,.01,0,.02,0,.03,0,.06.01.12.02.17,0,0,0,.01,0,.02,0,.06.02.13.03.19,0,0,0,0,0,0,.09.48.27.94.52,1.37l2.56,4.27,5.81,9.69c.58.97,1.55,1.68,2.65,1.93.02,0,.04,0,.06.01.06.01.12.03.19.04.04,0,.08.01.12.02.04,0,.09.01.13.02.04,0,.08,0,.12.01.04,0,.08,0,.13,0,.04,0,.08,0,.12,0,.03,0,.06,0,.1,0,0,0,.02,0,.03,0,.07,0,.15,0,.22,0,.02,0,.04,0,.06,0,.09,0,.18-.02.28-.03.01,0,.03,0,.04,0,.08-.01.15-.03.23-.04.03,0,.06-.01.09-.02.04,0,.09-.02.13-.03l1.37,2.29c.29.48.34,1.06.14,1.58h0Zm-30.66,1.87c-1.49,1.3-2.5,2.64-3.49,3.93-1.5,1.97-2.79,3.68-5.54,4.93-1.51.69-2.47.78-3.58.9-1.04.11-2.22.23-3.85.83-3.72,1.37-6.98,4.21-9.71,8.46l-2.1-3.5c2.56-4.39,5.61-7.26,9.09-8.54,1.33-.49,2.24-.58,3.21-.68,1.23-.13,2.5-.26,4.4-1.12,3.35-1.52,4.98-3.66,6.55-5.73.9-1.19,1.84-2.42,3.12-3.54,3.12-2.72,7.6-4.14,13.31-4.21l2.08,3.47c-5.64.3-10.18,1.92-13.49,4.81h0Zm-24.32,27.25c.43.72.32,1.64-.28,2.23l-5.59,5.53c-.4.4-.95.58-1.51.51-.56-.07-1.04-.39-1.33-.87l-1.37-2.29s.02-.03.04-.04c.04-.04.07-.08.11-.12.02-.02.04-.04.05-.07.03-.04.06-.08.09-.12.02-.02.03-.05.05-.07.03-.04.06-.09.09-.13.01-.02.03-.04.04-.06.04-.06.08-.13.12-.19.01-.02.02-.04.03-.06.02-.05.05-.09.07-.14.01-.03.03-.06.04-.09.02-.04.04-.08.06-.13.01-.03.03-.06.04-.09.02-.04.03-.09.05-.13.01-.03.02-.06.03-.09.02-.07.04-.14.06-.21,0,0,0-.01,0-.02.18-.68.19-1.39.02-2.07,0,0,0,0,0-.01-.02-.07-.03-.13-.05-.2,0,0,0,0,0,0-.02-.06-.04-.13-.06-.19,0,0,0,0,0-.01-.02-.06-.04-.11-.06-.17,0,0,0-.02-.01-.03-.02-.05-.04-.1-.07-.15,0-.01-.01-.03-.02-.04-.02-.04-.04-.07-.05-.11-.05-.09-.09-.18-.14-.26l-5.14-8.57-3.23-5.39c-.04-.06-.07-.12-.11-.18-.01-.02-.03-.04-.04-.06-.03-.04-.05-.08-.08-.11-.04-.05-.07-.09-.11-.14,0,0-.01-.02-.02-.02-.04-.05-.08-.09-.12-.14,0,0-.01-.01-.02-.02-.05-.05-.1-.1-.15-.15,0,0,0,0,0,0-.05-.05-.1-.09-.15-.14,0,0,0,0,0,0-.05-.04-.1-.09-.15-.13,0,0,0,0,0,0-.05-.04-.09-.07-.14-.11,0,0-.02-.01-.03-.02-.04-.03-.09-.06-.13-.09-.01,0-.03-.02-.04-.03-.04-.03-.08-.05-.12-.08-.02-.01-.04-.02-.06-.04-.04-.02-.07-.04-.11-.06-.03-.01-.05-.03-.08-.04-.03-.02-.06-.03-.1-.05-.03-.02-.06-.03-.09-.05-.03-.01-.06-.02-.09-.04-.04-.02-.07-.03-.11-.05-.03-.01-.05-.02-.08-.03-.04-.02-.08-.03-.12-.04-.02,0-.05-.01-.07-.02-.04-.01-.09-.03-.13-.04-.02,0-.04-.01-.07-.02-.04-.01-.09-.02-.13-.04,0,0,0,0,0,0,0,0,0,0,0,0-.08-.02-.15-.03-.23-.05-.03,0-.05,0-.08-.01-.05,0-.11-.02-.16-.02-.03,0-.06,0-.09,0-.05,0-.1,0-.15-.01-.03,0-.06,0-.08,0-.06,0-.12,0-.18,0-.02,0-.04,0-.06,0-.08,0-.15,0-.23.01-.02,0-.04,0-.06,0-.06,0-.11.01-.17.02-.03,0-.05,0-.08.01-.05,0-.1.02-.15.03-.03,0-.05.01-.08.02-.05.01-.11.02-.16.04-.02,0-.03,0-.05.01l-1.65-2.76c-.43-.72-.5-1.57-.18-2.35.32-.77.96-1.34,1.77-1.55l6.06-1.59c1.12-.29,2.33.2,2.92,1.19l13.68,22.82h0Zm1.51-26.29c1.33-.49,2.24-.58,3.21-.68,1.23-.13,2.5-.26,4.4-1.12,3.35-1.52,4.98-3.66,6.55-5.73.9-1.19,1.84-2.42,3.12-3.54,3.12-2.72,7.6-4.14,13.31-4.21l2.08,3.47c-5.64.3-10.18,1.92-13.49,4.81-1.49,1.3-2.5,2.64-3.49,3.93-1.5,1.97-2.79,3.68-5.54,4.93-1.51.69-2.47.78-3.58.9-1.04.11-2.22.23-3.85.83-3.72,1.37-6.98,4.21-9.71,8.46l-2.1-3.5c2.56-4.39,5.61-7.26,9.09-8.54h0Zm54.14-8.18c1-1.31,1.15-3.15.26-4.63l-8.43-14.06c-.57-.95-1.47-1.62-2.54-1.88-.55-.14-1.12-.16-1.67-.07l-1.73-2.88c-.86-1.43-2.31-2.36-3.97-2.53-1.66-.17-3.27.43-4.4,1.66l-4.25,4.6c-1.58,1.71-1.85,4.29-.65,6.28l2.29,3.82c-5.64.3-10.18,1.92-13.5,4.81-1.49,1.3-2.5,2.64-3.49,3.93-1.5,1.97-2.79,3.68-5.54,4.93-1.51.69-2.47.78-3.58.9-1.04.11-2.22.23-3.85.83-3.72,1.37-6.98,4.21-9.71,8.46l-2.32-3.87c-1.19-1.99-3.6-2.97-5.85-2.38l-6.06,1.59c-1.62.42-2.91,1.56-3.54,3.1-.63,1.55-.5,3.26.36,4.69l1.73,2.88c-.34.44-.59.96-.73,1.51-.27,1.07-.1,2.18.46,3.13h0l8.43,14.06c.77,1.28,2.14,2,3.55,2,.22,0,.44-.02.65-.05l1.44,2.41c.71,1.18,1.89,1.95,3.26,2.13.19.02.38.04.57.04,1.16,0,2.28-.45,3.12-1.29l5.59-5.53c1.46-1.45,1.75-3.69.69-5.45l-2.58-4.3c2.56-4.39,5.61-7.26,9.09-8.54,1.33-.49,2.24-.58,3.21-.68,1.23-.13,2.5-.26,4.4-1.12,3.35-1.52,4.98-3.66,6.55-5.73.9-1.19,1.84-2.42,3.12-3.54,3.12-2.72,7.6-4.14,13.31-4.21l2.59,4.32c.82,1.37,2.28,2.16,3.81,2.16.44,0,.89-.07,1.32-.2l7.51-2.33c1.31-.41,2.35-1.38,2.84-2.66.49-1.28.37-2.7-.34-3.88l-1.44-2.41h0Z"/>
        </g>
      </g>
    </g>
  </g>
</svg>