<?xml version="1.0" encoding="UTF-8"?>
<svg id="Capa_2" data-name="Capa 2" xmlns="http://www.w3.org/2000/svg" xmlns:xlink="http://www.w3.org/1999/xlink" viewBox="0 0 78.71 85">
  <defs>
    <style>
      .cls-1 {
        fill: none;
      }

      .cls-2 {
        clip-path: url(#clippath);
      }

      .cls-3 {
        fill: #515151;
      }
    </style>
    <clipPath id="clippath">
      <rect class="cls-1" width="78.71" height="85"/>
    </clipPath>
  </defs>
  <g id="Layer_1" data-name="Layer 1">
    <g id="NewGroupe15">
      <g id="NewGroup0-44">
        <g class="cls-2">
          <path class="cls-3" d="m21.64,6.82c0-2.23,1.82-4.05,4.05-4.05s4.05,1.82,4.05,4.05v.59s0,.01-.01.02c-.1.12-.2.25-.3.38-.02.02-.03.05-.05.07-.1.13-.19.26-.28.39-.01.02-.03.04-.04.07-.09.13-.18.27-.27.41,0,.01-.01.02-.02.04-.08.14-.17.28-.24.42,0,.01-.02.03-.02.04-.08.14-.15.28-.22.43-.01.02-.02.05-.04.07-.07.14-.14.28-.2.43-.01.03-.02.05-.04.08-.06.15-.12.29-.18.44,0,.02-.02.04-.02.06-.06.16-.12.32-.17.48-.39,1.19-.59,2.43-.59,3.7,0,.1,0,.2,0,.3.13,5.24,3.71,9.64,8.55,11.02.28.08.56.15.85.21.19.04.38.07.58.1.58.09,1.18.14,1.79.14s1.21-.05,1.79-.14c.19-.03.39-.06.58-.1.29-.06.57-.13.85-.21,4.84-1.38,8.41-5.78,8.55-11.02,0-.1,0-.2,0-.3,0-1.26-.2-2.51-.59-3.69-.03-.1-.07-.2-.1-.29-.01-.03-.02-.07-.04-.1-.02-.06-.05-.13-.07-.19-.02-.04-.03-.08-.05-.12-.02-.06-.05-.12-.07-.17-.02-.04-.04-.08-.05-.12-.02-.05-.05-.11-.07-.16-.02-.04-.04-.08-.06-.12-.03-.05-.05-.11-.08-.16-.02-.04-.04-.08-.06-.12-.03-.05-.05-.11-.08-.16-.02-.04-.04-.08-.06-.12-.03-.06-.06-.11-.09-.17-.02-.04-.04-.07-.06-.11-.04-.07-.08-.13-.12-.2-.01-.02-.03-.05-.04-.07-.05-.09-.11-.17-.16-.26-.02-.03-.04-.07-.07-.1-.04-.05-.07-.11-.11-.16-.03-.04-.05-.07-.08-.11-.03-.05-.07-.1-.1-.14-.03-.04-.06-.08-.08-.11-.03-.05-.07-.09-.1-.14-.03-.04-.06-.08-.09-.11-.03-.04-.07-.09-.11-.13-.03-.04-.06-.07-.09-.11-.04-.04-.07-.09-.11-.13-.03-.04-.06-.07-.09-.11,0-.01-.02-.02-.03-.03v-.34c0-2.23,1.82-4.05,4.05-4.05s4.05,1.82,4.05,4.05v10.74c0,1.11-.46,2.19-1.28,2.95l-10.55,9.92c-.28.26-.44.63-.44,1.01v13.38c0,.35.14.7.38.95l4.64,4.88c.4.43.72.95.91,1.51l6.08,18.28c.7,2.12-.45,4.42-2.56,5.12-.42.14-.85.21-1.28.21-1.75,0-3.29-1.11-3.84-2.77l-5.7-17.13c-.06-.19-.17-.37-.31-.52l-2.11-2.22c-.26-.28-.62-.43-1-.43-.38,0-.74.16-1,.43l-2.28,2.4c-.11.12-.2.25-.27.4l-7.54,17.39c-.64,1.48-2.1,2.44-3.72,2.44-.55,0-1.09-.11-1.61-.34-.99-.43-1.76-1.22-2.16-2.23-.4-1.01-.38-2.11.05-3.1l7.93-18.28c.19-.44.45-.83.78-1.18l4.64-4.88c.24-.26.38-.6.38-.95v-13.38c0-.38-.16-.75-.44-1.01l-10.55-9.92c-.81-.76-1.27-1.84-1.27-2.95V6.82h0Zm8.62,5.26c.39-1.2,1.03-2.28,1.89-3.23,0,0,0,0,0,0,1.7-1.87,4.13-2.95,6.66-2.95s4.77.98,6.48,2.75c.84.87,1.5,1.91,1.93,3.04.05.13.09.25.14.38.3.91.45,1.86.45,2.83,0,4.96-4.04,9-9,9s-9-4.04-9-9c0-.97.15-1.92.45-2.83h0ZM-.01,3.98v77.64c0,1.86,1.51,3.38,3.38,3.38h3.14c1.86,0,3.38-1.51,3.38-3.38V13.03h8.99v4.53c0,1.87.78,3.68,2.15,4.97l10.11,9.51v12.23l-4.26,4.48c-.55.58-.99,1.25-1.31,1.98l-7.93,18.28c-.72,1.67-.75,3.52-.09,5.22.67,1.69,1.96,3.03,3.63,3.75.86.37,1.78.56,2.71.56,2.72,0,5.18-1.61,6.26-4.11l7.45-17.17,1.11-1.17.89.94,5.6,16.84c.93,2.79,3.53,4.67,6.47,4.67.73,0,1.46-.12,2.15-.35,3.57-1.19,5.5-5.05,4.32-8.62l-6.08-18.28c-.32-.95-.84-1.82-1.53-2.54l-4.26-4.48v-12.23l10.11-9.51c1.36-1.28,2.15-3.09,2.15-4.97v-4.53h10.29v68.59c0,1.86,1.51,3.38,3.38,3.38h3.14c1.86,0,3.38-1.51,3.38-3.38V3.98c0-1.86-1.51-3.38-3.38-3.38h-3.14c-1.86,0-3.38,1.51-3.38,3.38v6.28h-10.29v-3.45c0-3.76-3.06-6.82-6.82-6.82-3.13,0-5.77,2.12-6.57,4.99-1.87-1.2-4.05-1.85-6.34-1.85s-4.6.7-6.51,1.97c-.76-2.94-3.43-5.11-6.6-5.11-3.76,0-6.82,3.06-6.82,6.82v3.45h-8.99V3.98c0-1.86-1.51-3.38-3.38-3.38h-3.14C1.5.6-.01,2.12-.01,3.98H-.01Z"/>
        </g>
      </g>
    </g>
  </g>
</svg>