<?xml version="1.0" encoding="UTF-8"?>
<svg id="Capa_2" data-name="Capa 2" xmlns="http://www.w3.org/2000/svg" viewBox="0 0 225.96 225.96">
  <defs>
    <style>
      .cls-1 {
        fill-rule: evenodd;
      }
    </style>
  </defs>
  <g id="Capa_1-2" data-name="Capa 1">
    <path class="cls-1" d="m112.98,0C50.62,0,0,50.62,0,112.98s50.62,112.98,112.98,112.98,112.98-50.62,112.98-112.98S175.33,0,112.98,0h0Zm0,7.79c58.05,0,105.19,47.13,105.19,105.19s-47.13,105.19-105.19,105.19S7.79,171.03,7.79,112.98,54.92,7.79,112.98,7.79h0Zm0,14.96c-49.8,0-90.23,40.43-90.23,90.22s40.43,90.22,90.23,90.22,90.22-40.43,90.22-90.22S162.77,22.75,112.98,22.75h0Zm27.26,122.75c-7.38,6.19-16.89,9.92-27.26,9.92s-19.77-3.69-27.13-9.81l-28.33,28.33c14.65,13.33,34.11,21.47,55.46,21.47s40.92-8.18,55.59-21.58l-28.32-28.32h0ZM52.13,57.39c-13.4,14.66-21.58,34.18-21.58,55.59s8.13,40.81,21.47,55.46l28.33-28.33c-6.12-7.36-9.81-16.82-9.81-27.13s3.73-19.89,9.92-27.26l-28.32-28.32h0Zm121.82.13l-28.33,28.33c6.12,7.36,9.81,16.82,9.81,27.13s-3.64,19.66-9.7,27l28.33,28.33c13.26-14.64,21.35-34.05,21.35-55.33s-8.13-40.81-21.46-55.46h0Zm-60.97,20.8c19.13,0,34.66,15.53,34.66,34.66s-15.53,34.66-34.66,34.66-34.66-15.53-34.66-34.66,15.53-34.66,34.66-34.66h0Zm0,14.39c-11.19,0-20.27,9.08-20.27,20.26s9.08,20.26,20.27,20.26,20.26-9.08,20.26-20.26-9.08-20.26-20.26-20.26h0Zm0,7.79c6.88,0,12.47,5.59,12.47,12.47s-5.59,12.47-12.47,12.47-12.47-5.59-12.47-12.47,5.59-12.47,12.47-12.47h0Zm55.46-48.49c-14.65-13.33-34.11-21.47-55.46-21.47s-40.69,8.08-55.33,21.35l28.33,28.33c7.34-6.06,16.74-9.7,27-9.7s19.77,3.69,27.13,9.81l28.33-28.33h0Z"/>
  </g>
</svg>