<?xml version="1.0" encoding="UTF-8"?>
<svg id="Capa_2" data-name="Capa 2" xmlns="http://www.w3.org/2000/svg" xmlns:xlink="http://www.w3.org/1999/xlink" viewBox="0 0 22.96 22.96">
  <defs>
    <style>
      .cls-1 {
        fill: url(#linear-gradient);
      }
    </style>
    <linearGradient id="linear-gradient" x1="11.48" y1="23.17" x2="11.48" y2="1" gradientUnits="userSpaceOnUse">
      <stop offset="0" stop-color="#332195"/>
      <stop offset="1" stop-color="#f167de"/>
    </linearGradient>
  </defs>
  <g id="icon_3-4" data-name="icon 3-4">
    <path class="cls-1" d="m22.34,16.34c.53-.6.96-1.6.22-2.78-.89-1.41-2.97-1.36-4.99-1.32-1.24.02-2.51.05-3.28-.3.05-.11.08-.24.08-.37,0-.23-.09-.46-.26-.62l-2.14-2.14c-.26-.26-.66-.32-.98-.18-.33-.77-.31-2.03-.28-3.25.04-2.02.08-4.1-1.32-4.99-1.28-.81-2.36-.23-2.93.36l-.28-.28c-.4-.4-1.06-.4-1.47,0L.34,4.87c-.4.4-.4,1.06,0,1.47l.28.28c-.53.6-.96,1.6-.22,2.78.89,1.41,2.97,1.36,4.99,1.32,1.27-.03,2.57-.05,3.33.32-.01.06-.02.12-.02.18,0,.23.09.46.26.62l2.14,2.14h0c.17.17.4.26.62.26.06,0,.12,0,.19-.02.39.76.36,2.08.34,3.36-.04,2.02-.08,4.1,1.32,4.99.45.28.88.4,1.27.4.71,0,1.29-.38,1.66-.76l.28.28c.2.2.47.3.73.3s.53-.1.73-.3l4.38-4.38c.4-.4.4-1.06,0-1.47l-.28-.28ZM.92,5.44L5.3,1.06s.1-.06.16-.06.11.02.16.06l1.18,1.18c.09.09.09.23,0,.31L2.41,6.93c-.09.09-.23.09-.31,0l-1.18-1.18c-.09-.09-.09-.23,0-.31Zm4.45,4.46c-1.79.04-3.64.07-4.28-.94-.5-.8-.19-1.42.11-1.77l.32.32c.2.2.47.3.73.3s.53-.1.73-.3L7.37,3.13c.4-.4.4-1.06,0-1.47l-.32-.32c.3-.31.99-.83,1.91-.25,1.02.64.98,2.49.94,4.28-.03,1.48-.06,2.88.46,3.82l-1.18,1.18c-.94-.52-2.34-.49-3.82-.46Zm6.39,3.5s-.06.02-.09,0l-2.14-2.14s-.02-.03-.02-.04,0-.03.02-.04l1.78-1.78s.06-.02.09,0l2.14,2.14s.02.03.02.04,0,.03-.02.04l-1.78,1.78Zm10.28,4.11l-4.38,4.38c-.09.09-.23.09-.31,0l-1.18-1.18c-.09-.09-.09-.23,0-.31l4.38-4.38s.1-.06.16-.06.11.02.16.06l1.18,1.18c.09.09.09.23,0,.31Zm-.28-1.75l-.32-.32c-.4-.4-1.06-.4-1.47,0l-4.38,4.38c-.4.4-.4,1.06,0,1.47l.32.32c-.3.31-.99.83-1.91.25-1.02-.64-.98-2.49-.94-4.28.03-1.49.06-2.91-.48-3.85l1.17-1.17c.94.54,2.36.51,3.85.48,1.79-.04,3.64-.07,4.28.94.5.8.19,1.42-.11,1.77Z"/>
  </g>
</svg>