<?xml version="1.0" encoding="UTF-8"?>
<svg id="Capa_2" data-name="Capa 2" xmlns="http://www.w3.org/2000/svg" viewBox="0 0 196.87 117.71">
  <g id="Layer_1" data-name="Layer 1">
    <g>
      <path d="m176.33,56.58h-55.33c-3.89,0-3.89,14.15,0,14.15h55.33c3.89,0,7.07-3.18,7.07-7.07h0c0-3.89-3.18-7.07-7.07-7.07Z"/>
      <path d="m107.1,68.11c3.29,2.08,10.86-9.87,7.57-11.95L27.3,1.09C24.01-.99,19.62,0,17.54,3.28s-1.1,7.68,2.19,9.76l41.13,25.92-1.4,2.67-17.27,32.99h-21.26c-8.5,0-15.42,6.92-15.42,15.42v17.66H0v10h21.03v-10h-5.52v-17.66c0-2.99,2.43-5.42,5.42-5.42h155c2.99,0,5.42,2.43,5.42,5.42v17.66h-5.52v10h21.03v-10h-5.52v-17.66c0-8.5-6.92-15.42-15.42-15.42H53.48l14.47-27.64,1.4-2.67,37.76,23.8Z"/>
    </g>
  </g>
</svg>