<?xml version="1.0" encoding="UTF-8"?>
<svg id="Capa_2" data-name="Capa 2" xmlns="http://www.w3.org/2000/svg" viewBox="0 0 204.82 103.62">
  <g id="Layer_1" data-name="Layer 1">
    <g>
      <path d="m5.18,80.79l.34,12.83H0v10h21.03v-10h-5.52v-4.44l162.64-35.82c2.78.23,4.96,2.57,4.96,5.4v34.85h-5.52v10h21.03v-10h-5.52v-34.85c0-8.5-6.92-15.42-15.42-15.42h-.54L15.52,78.95"/>
      <path d="m181.5,22.95c-.32.03-.63.07-.95.14l-53.97,12.18c-3.8.86-.68,14.66,3.12,13.8l53.97-12.18c3.8-.86,6.2-4.66,5.34-8.46-.1-.46-.26-.91-.44-1.33-2.73-.73-5.16-2.18-7.07-4.15Z"/>
      <path d="m117.78,37.26l-78.98,17.83c-3.8.86-6.2,4.66-5.34,8.46.86,3.8,4.66,6.2,8.46,5.34l78.98-17.83c3.79-.86.68-14.66-3.12-13.8Z"/>
      <path d="m192.51,0c-6.8,0-12.32,5.51-12.32,12.32s5.51,12.32,12.32,12.32,12.32-5.51,12.32-12.32-5.51-12.32-12.32-12.32Zm0,17.75c-3,0-5.43-2.43-5.43-5.43s2.43-5.43,5.43-5.43,5.43,2.43,5.43,5.43-2.43,5.43-5.43,5.43Z"/>
    </g>
  </g>
</svg>