<?xml version="1.0" encoding="UTF-8"?>
<svg id="Capa_2" data-name="Capa 2" xmlns="http://www.w3.org/2000/svg" viewBox="0 0 68.58 49.64">
  <defs>
    <style>
      .cls-1 {
        fill: #2d3540;
      }
    </style>
  </defs>
  <g id="Layer_1" data-name="Layer 1">
    <g>
      <g>
        <rect class="cls-1" x="6.74" width="5.34" height="20.99" rx="1.26" ry="1.26"/>
        <rect class="cls-1" width="5.34" height="20.99" rx="1.26" ry="1.26"/>
        <rect class="cls-1" x="63.24" width="5.34" height="20.99" rx="1.26" ry="1.26"/>
        <rect class="cls-1" x="56.49" width="5.34" height="20.99" rx="1.26" ry="1.26"/>
      </g>
      <path class="cls-1" d="m45.12,34.69h-21.66c-1.03,0-1.86.83-1.86,1.86v1.48c0,2.16,1.75,3.91,3.91,3.91h2.39v4.45c0,.25-.2.45-.45.45h-1.27c-.25,0-.45.2-.45.45v1.91c0,.25.2.45.45.45h16.22c.25,0,.45-.2.45-.45v-1.91c0-.25-.2-.45-.45-.45h-1.27c-.25,0-.45-.2-.45-.45v-4.45h2.39c2.16,0,3.91-1.75,3.91-3.91v-1.48c0-1.03-.83-1.86-1.86-1.86Zm-6.73,11.71c0,.25-.2.45-.45.45h-7.32c-.25,0-.45-.2-.45-.45v-4.45h8.21v4.45Z"/>
      <path class="cls-1" d="m50.04,9.26v1.12h0c-.37,0-.68-.3-.68-.68v-.45H13.39v2.48h5.14v-1.12h0c.37,0,.68.3.68.68v.45h35.98v-2.48h-5.15Z"/>
      <g>
        <rect class="cls-1" x="30.66" y="42.91" width="7.25" height="3.28"/>
        <path class="cls-1" d="m54.12,42.91h-.85c-.59,0-1.07-.48-1.07-1.07V8.89c0-.59-.48-1.07-1.07-1.07s-1.07.48-1.07,1.07v13.86h-1.87c0,.82.67,1.49,1.49,1.49h.38v17.6c0,.59-.48,1.07-1.07,1.07h-7.81v3.28h12.95c.59,0,1.07-.48,1.07-1.07v-1.13c0-.59-.48-1.07-1.07-1.07Z"/>
        <path class="cls-1" d="m18.54,41.84v-17.6h.38c.82,0,1.49-.67,1.49-1.49h-1.87v-13.86c0-.59-.48-1.07-1.07-1.07s-1.07.48-1.07,1.07v32.95c0,.59-.48,1.07-1.07,1.07h-.85c-.59,0-1.07.48-1.07,1.07v1.13c0,.59.48,1.07,1.07,1.07h12.95v-3.28h-7.81c-.59,0-1.07-.48-1.07-1.07Z"/>
      </g>
    </g>
  </g>
</svg>