<?xml version="1.0" encoding="UTF-8"?>
<svg id="Capa_2" data-name="Capa 2" xmlns="http://www.w3.org/2000/svg" viewBox="0 0 39.96 51.85">
  <defs>
    <style>
      .cls-1 {
        fill: #2d3540;
      }
    </style>
  </defs>
  <g id="Layer_1" data-name="Layer 1">
    <g>
      <path class="cls-1" d="m39.83,21.92c-.47-1.53-2.09-2.39-3.62-1.92l-8.46,2.61-5.59-7.51s0,0,0,0c0-.01-.02-.02-.02-.03-.02-.03-.04-.05-.06-.08,0-.01-.02-.02-.03-.03-.02-.02-.04-.05-.06-.07-.01-.01-.02-.02-.03-.03-.02-.02-.04-.04-.06-.06-.01-.01-.02-.02-.03-.03-.02-.02-.04-.04-.06-.06-.01-.01-.02-.02-.04-.03-.02-.02-.04-.04-.06-.05-.01-.01-.03-.02-.04-.03-.02-.02-.04-.03-.06-.05-.02-.01-.03-.02-.05-.04-.02-.01-.03-.02-.05-.04-.12-.08-.24-.16-.37-.22,0,0,0,0-.01,0-.03-.02-.07-.03-.1-.05,0,0,0,0-.01,0-.03-.01-.07-.03-.1-.04,0,0,0,0-.01,0-.13-.05-.27-.1-.42-.13-.02,0-.03,0-.05-.01-.02,0-.05,0-.07-.01-.02,0-.05,0-.07-.01-.02,0-.04,0-.06,0-.03,0-.06,0-.09-.01-.01,0-.02,0-.03,0,0,0,0,0,0,0-.09,0-.18-.01-.27-.01-.01,0-.03,0-.04,0-.03,0-.06,0-.09,0-.02,0-.04,0-.05,0-.03,0-.05,0-.08,0-.02,0-.04,0-.06,0-.02,0-.04,0-.07,0-.02,0-.05,0-.07,0-.02,0-.03,0-.05,0-.1.02-.2.04-.29.07-.01,0-.02,0-.03,0-.03,0-.06.02-.09.03-.01,0-.02,0-.04.01-.03,0-.06.02-.08.03-.01,0-.03.01-.04.02-.03.01-.05.02-.08.03,0,0-.01,0-.02,0l-11,4.96c-1.13.51-1.82,1.69-1.69,2.93l.88,8.76c.15,1.5,1.41,2.61,2.88,2.61.1,0,.19,0,.29-.01,1.59-.16,2.76-1.58,2.6-3.17l-.67-6.69,4.55-2.05-1.11,11.57-3.59,7.34-9.27,1.25c-1.59.21-2.7,1.67-2.48,3.26s1.67,2.7,3.26,2.48l10.8-1.46c.96-.13,1.79-.73,2.22-1.6l3.42-6.99,5.5,2.49-.4,8.94c-.07,1.6,1.17,2.95,2.77,3.03.04,0,.09,0,.13,0,1.54,0,2.82-1.21,2.89-2.77l.49-10.9c.05-1.18-.62-2.28-1.7-2.77l-8.08-3.66.68-7.15,2.32,3.11c.73.98,2.01,1.4,3.18,1.04l10.41-3.21c1.53-.47,2.39-2.09,1.92-3.62Z"/>
      <circle class="cls-1" cx="22.11" cy="6.1" r="6.1"/>
    </g>
  </g>
</svg>