<?xml version="1.0" encoding="UTF-8"?>
<svg id="Capa_2" data-name="Capa 2" xmlns="http://www.w3.org/2000/svg" viewBox="0 0 225.96 146.77">
  <defs>
    <style>
      .cls-1 {
        fill-rule: evenodd;
      }
    </style>
  </defs>
  <g id="Capa_1-2" data-name="Capa 1">
    <path class="cls-1" d="m25.48,13.55H3.9c-2.15,0-3.9,1.74-3.9,3.9v65.32c0,2.15,1.74,3.89,3.9,3.89h21.59v9.65c0,2.15,1.74,3.9,3.9,3.9h25.48c2.15,0,3.9-1.74,3.9-3.9v-29.5h20.16l.06.33c.77,4.53,3.48,8.5,7.42,10.87l15.73,9.46c-1.55,19.98-6.29,37.67-13.1,53.88-.83,1.98.1,4.27,2.08,5.1,1.98.83,4.27-.1,5.1-2.08,7.4-17.6,12.46-36.87,13.86-58.75.09-1.45-.63-2.84-1.88-3.59l-17.77-10.7c-1.99-1.2-3.36-3.21-3.75-5.5,0,0-4.15-24.46-4.15-24.46-.43-2.55.4-5.15,2.22-6.97l7.16-7.16c1.5-1.5,3.52-2.34,5.64-2.34h38.06c4.41,0,7.98,3.57,7.98,7.97v109.98c0,2.15,1.75,3.9,3.9,3.9s3.89-1.75,3.89-3.9v-76.06h15.84v29.5c0,2.15,1.74,3.9,3.9,3.9h25.48c2.15,0,3.9-1.74,3.9-3.9v-9.65h21.59c2.15,0,3.9-1.74,3.9-3.89V17.44c0-2.15-1.75-3.9-3.9-3.9h-21.59V3.9c0-2.15-1.74-3.9-3.9-3.9h-25.48c-2.15,0-3.9,1.74-3.9,3.9v29.5h-15.84v-.51c0-8.71-7.06-15.77-15.77-15.77h-38.06c-4.18,0-8.19,1.66-11.15,4.62-2.13,2.13-4.88,4.88-7.16,7.16-1.32,1.32-2.38,2.85-3.15,4.5h-17.31V3.9c0-2.15-1.75-3.9-3.9-3.9h-25.48c-2.15,0-3.9,1.74-3.9,3.9v9.65h0Zm167.2-5.76v84.63h-17.69V7.79h17.69Zm-159.41,0h17.69v84.63h-17.69V7.79h0Zm167.2,13.55v57.53h17.69V21.34h-17.69Zm-174.99,0H7.79v57.53h17.69V21.34h0Zm49.16,19.85h-15.88v17.83h18.84l-2.77-16.34c-.09-.5-.15-1-.18-1.49h0Zm76.71,0v17.83h15.84v-17.83h-15.84Z"/>
  </g>
</svg>