<?xml version="1.0" encoding="UTF-8"?>
<svg id="Capa_2" data-name="Capa 2" xmlns="http://www.w3.org/2000/svg" xmlns:xlink="http://www.w3.org/1999/xlink" viewBox="0 0 18.96 19.59">
  <defs>
    <style>
      .cls-1 {
        fill: url(#linear-gradient);
      }
    </style>
    <linearGradient id="linear-gradient" x1="9.48" y1="21.19" x2="9.48" y2="-.98" gradientUnits="userSpaceOnUse">
      <stop offset="0" stop-color="#332195"/>
      <stop offset="1" stop-color="#f167de"/>
    </linearGradient>
  </defs>
  <g id="icon_3-4" data-name="icon 3-4">
    <path class="cls-1" d="m17.91,9.28h-.25v-1.16C17.66,3.64,13.99,0,9.48,0S1.31,3.64,1.31,8.11v1.16h-.25c-.58,0-1.06.48-1.06,1.06v8.19c0,.58.47,1.06,1.06,1.06h1.32c.58,0,1.06-.48,1.06-1.06v-8.19c0-.58-.48-1.06-1.06-1.06h-.25v-1.16c0-2.34,1.11-4.42,2.84-5.75-.63.89-.99,1.98-.99,3.15,0,3.04,2.47,5.51,5.51,5.51s5.51-2.47,5.51-5.51c0-1.17-.37-2.26-.99-3.15,1.73,1.34,2.84,3.42,2.84,5.75v1.16h-.25c-.58,0-1.06.48-1.06,1.06v8.19c0,.58.47,1.06,1.06,1.06h1.32c.58,0,1.06-.48,1.06-1.06v-8.19c0-.58-.48-1.06-1.06-1.06Zm-15.53.82c.13,0,.24.11.24.24v8.19c0,.13-.11.24-.24.24h-1.32c-.13,0-.24-.11-.24-.24v-8.19c0-.13.11-.24.24-.24h1.32Zm11.8-4.58c0,2.59-2.11,4.69-4.69,4.69s-4.69-2.11-4.69-4.69S6.89.82,9.48.82s4.69,2.11,4.69,4.69Zm3.97,13.02c0,.13-.11.24-.24.24h-1.32c-.13,0-.24-.11-.24-.24v-8.19c0-.13.11-.24.24-.24h1.32c.13,0,.24.11.24.24v8.19Z"/>
  </g>
</svg>