<?xml version="1.0" encoding="UTF-8"?>
<svg id="Capa_2" data-name="Capa 2" xmlns="http://www.w3.org/2000/svg" viewBox="0 0 58.8 49.99">
  <defs>
    <style>
      .cls-1 {
        fill: #2d3540;
      }
    </style>
  </defs>
  <g id="Layer_1" data-name="Layer 1">
    <g>
      <g>
        <rect class="cls-1" x="35.08" y="25.22" width="6.92" height="10.89" rx="1.85" ry="1.85" transform="translate(54.07 77.4) rotate(-146.89)"/>
        <rect class="cls-1" x="16.96" y="13.4" width="6.92" height="10.89" rx="1.85" ry="1.85" transform="translate(27.23 45.79) rotate(-146.89)"/>
        <path class="cls-1" d="m39.72,35.68c.46.02,1.5.17,1.77-.24l2.62-4.01c.27-.42-.29-1.3-.49-1.72l-3.89,5.97Z"/>
        <polyline class="cls-1" points="24.51 19.78 22.36 18.38 20.78 20.81 23.35 22.48 33.68 29.21"/>
        <polyline class="cls-1" points="33.68 29.21 33.67 29.22 36.48 31.04 38.06 28.62 24.51 19.78"/>
        <path class="cls-1" d="m19.29,13.76c-.52-.09-1.63-.24-1.93.23l-2.62,4.01c-.3.47.28,1.42.57,1.86l3.98-6.1Z"/>
      </g>
      <path class="cls-1" d="m27.55,0C15.51.51,5.7,9.59,4.09,21.32l-3.24-1.4c-.53-.23-1.05.35-.76.85l4.91,8.51c.23.4.81.4,1.04,0l4.91-8.51c.29-.5-.23-1.08-.76-.85l-3.14,1.36c.27-1.74.73-3.44,1.42-5.07,1.1-2.6,2.68-4.94,4.69-6.95,2.01-2.01,4.35-3.59,6.95-4.69,2.37-1,4.87-1.54,7.45-1.66V0Z"/>
      <path class="cls-1" d="m58.72,29.17l-4.91-8.51c-.23-.4-.81-.4-1.04,0l-4.91,8.51c-.29.5.23,1.08.76.85l3.14-1.36c-.27,1.74-.73,3.44-1.42,5.07-1.1,2.6-2.68,4.94-4.69,6.95-2.01,2.01-4.35,3.59-6.95,4.69-2.69,1.14-5.56,1.72-8.51,1.72-.29,0-.56-.03-.85-.04v2.92c.28,0,.56.02.85.02,12.52,0,22.87-9.3,24.53-21.36l3.24,1.4c.53.23,1.05-.35.76-.85Z"/>
      <circle class="cls-1" cx="7.5" cy="34.64" r="2"/>
      <circle class="cls-1" cx="13.77" cy="42.84" r="2"/>
      <circle class="cls-1" cx="22.38" cy="47.61" r="2"/>
      <circle class="cls-1" cx="51.62" cy="15.03" r="2"/>
      <circle class="cls-1" cx="45.34" cy="6.83" r="2"/>
      <circle class="cls-1" cx="36.74" cy="2.07" r="2"/>
    </g>
  </g>
</svg>