<?xml version="1.0" encoding="UTF-8"?>
<svg id="Capa_2" data-name="Capa 2" xmlns="http://www.w3.org/2000/svg" viewBox="0 0 56.36 67.78">
  <defs>
    <style>
      .cls-1 {
        fill: #3fc1c9;
      }
    </style>
  </defs>
  <g id="Layer_1" data-name="Layer 1">
    <path class="cls-1" d="m11.96,61.14c.53.64,1.1,1.23,1.67,1.74,1.71,1.55,3.7,2.76,5.93,3.6,2.08.78,4.3,1.22,6.61,1.29,2.22.07,4.42-.19,6.52-.78,2.13-.59,4.06-1.49,5.73-2.66,2.6-1.82,4.43-4.23,5.3-6.96.97-3.05.74-6.36-.69-9.85-1.11-2.72-2.33-4.85-3.72-6.51-.2-.24-.4-.46-.6-.68-1.54-1.63-3.24-2.69-5.2-3.24-3.54-.99-7.17-.12-11.03.81-4.23,1.02-8.61,2.08-12.79.33.4-1.39.95-2.63,1.62-3.67,2.94-4.55,8.06-5.39,14.81-2.44,7.53,3.29,13.56,3.82,17.9,1.57,2.08-1.08,3.75-2.78,4.94-5.06.41-.79.76-1.65,1.06-2.57.52.1,1.05.18,1.57.24.44.04.88-.29.99-.76l.04-.16c.08-.31,0-.65-.2-.89-.07-.09-.17-.14-.27-.19,2.07-5.67,3.44-11.35,4.18-17.34.04-.29-.05-.6-.24-.82-.11-.13-.25-.23-.4-.28-1.34-.43-2.72-.77-4.11-1.01-.43-.07-.9.23-1.07.68-2.11,5.66-3.51,11.33-4.3,17.31-.41,0-.81.31-.91.75l-.04.16c-.08.31,0,.65.2.89.09.11.2.19.34.25.55.21,1.12.39,1.69.56-.97,2.83-2.52,4.84-4.66,5.95-3.61,1.87-8.88,1.32-15.67-1.65-4.13-1.8-7.83-2.35-10.99-1.63-1.49.34-2.86.96-4.07,1.85-1.14.84-2.13,1.91-2.96,3.19-.72,1.12-1.32,2.39-1.77,3.78-.08-.06-.17-.12-.25-.18-1.05-.77-1.93-1.57-2.61-2.39-1.43-1.71-2.06-3.54-1.89-5.43.35-3.84,3.92-8.32,10.31-12.96,1.29-.93,2.57-1.78,3.77-2.54.33.54.68,1.07,1.06,1.58l.02.03c.28.33.8.41,1.21.18l.14-.08c.39-.22.59-.68.48-1.08,5.55-2.35,10.65-5.21,15.54-8.75.39-.28.55-.82.37-1.21-.59-1.27-1.29-2.52-2.12-3.77-.26-.32-.76-.42-1.17-.25-5.58,2.31-10.69,5.14-15.6,8.64-.28-.31-.78-.38-1.17-.16l-.15.08c-.42.23-.63.74-.47,1.16.19.46.38.91.6,1.35-1.26.79-2.63,1.69-4.01,2.7-3.07,2.22-5.56,4.45-7.41,6.62C1.62,23.29.28,26.06.04,28.69c-.24,2.61.59,5.07,2.46,7.31.82.99,1.86,1.94,3.09,2.84.37.27.74.52,1.11.75-.04.23-.08.45-.11.69-.39,2.56-.38,5.39.03,8.18.73,4.93,2.63,9.43,5.34,12.68h0Zm-2.82-20.35c1.7.65,3.5.96,5.48.96,2.9,0,5.73-.68,8.49-1.35,3.51-.85,6.82-1.65,9.72-.83,1.7.48,3.18,1.49,4.51,3.08,1.21,1.44,2.29,3.35,3.3,5.84,2.25,5.49.9,10.49-3.7,13.71-5.48,3.84-15.28,4.46-21.57-1.24-.49-.45-.97-.95-1.43-1.49-2.41-2.88-4.1-6.93-4.76-11.4-.37-2.48-.38-4.99-.04-7.29Z"/>
  </g>
</svg>