<?xml version="1.0" encoding="UTF-8"?>
<svg id="Capa_2" data-name="Capa 2" xmlns="http://www.w3.org/2000/svg" xmlns:xlink="http://www.w3.org/1999/xlink" viewBox="0 0 20.05 21.5">
  <defs>
    <style>
      .cls-1 {
        fill: url(#linear-gradient);
      }
    </style>
    <linearGradient id="linear-gradient" x1="10.03" y1="22.44" x2="10.03" y2=".26" gradientUnits="userSpaceOnUse">
      <stop offset="0" stop-color="#332195"/>
      <stop offset="1" stop-color="#f167de"/>
    </linearGradient>
  </defs>
  <g id="icon_3-4" data-name="icon 3-4">
    <path class="cls-1" d="m19.94,14.88c-.45-2.08-1.74-2.56-3.87-3.36-1.03-.39-2.3-.86-3.83-1.65-.78-.4-1.27-.8-1.57-1.22-.04-.05-.08-.11-.11-.17-.01-.02-.02-.03-.03-.05-.03-.05-.05-.1-.08-.15-.3-.62-.28-1.28-.25-2.03.05-1.41.11-3.17-2.22-4.97C6.57.18,5.25-.21,4.05.11c-.88.23-1.53.81-1.99,1.39,0,0,0,0,0,0-.11.13-.2.27-.29.41,0,0,0,.01-.01.02-.03.04-.05.08-.08.13-.23.37-.37.69-.45.87-.01.03-.02.05-.02.05v.04c-.07.17-.12.33-.16.5-.24.79-.41,1.6-.7,2.4,0,0,0,0,0,0,0,.02-.02.05-.02.05v.04c-.96,2.83.3,5.41,3.35,6.89,2.69,1.31,5.72,3.06,7.77,6.09,1.01,1.5,3.01,2.5,4.76,2.5.37,0,.74-.05,1.08-.14,1.13-.32,1.81-1.16,1.88-2.32.2-.65.41-1.3.61-1.96.16-.32.25-.69.27-1.1.01-.34-.02-.71-.1-1.1ZM4.93,3.98c1.46.48,2.95,1.75,3.41,3.23.32,1.03.07,2.11.17,3.16.03.36.11.69.24.99-1.27-.87-2.59-1.57-3.84-2.18-.25-.12-.49-.25-.72-.39-1.46-.89-2.31-2.07-2.47-3.44,0-.06-.01-.13-.02-.19.75-1,1.89-1.6,3.23-1.17Zm13.41,15c-.05.83-.48,1.36-1.29,1.59-1.42.4-3.79-.33-4.94-2.03h0c-2.16-3.2-5.3-5.01-8.09-6.37-2.69-1.31-3.76-3.46-2.95-5.89v-.02c.03.06.05.12.07.18,0,.02.02.05.03.07.04.11.08.21.13.31.01.02.02.05.04.07.04.08.08.16.12.23.02.03.04.07.06.1.04.07.08.14.12.21.02.03.04.06.06.1.05.08.11.16.16.23.01.02.02.04.04.05.07.09.15.19.22.28.02.02.04.05.07.07.06.07.12.13.18.2.03.03.06.06.09.09.06.06.12.12.19.18.03.03.06.05.09.08.08.07.17.15.26.22.01,0,.02.02.03.03.1.08.21.16.32.23.03.02.07.04.1.07.08.05.16.11.24.16.04.02.08.05.12.07.08.05.17.1.25.15.04.02.08.04.11.06.12.07.25.13.38.2,2.69,1.31,5.72,3.06,7.77,6.09.07.11.15.22.24.32.03.03.05.06.08.1.06.07.12.14.19.21.03.03.06.07.1.1.07.07.14.13.21.2.03.03.06.06.09.08.1.09.21.17.31.25,0,0,.01,0,.02.01.1.08.21.15.32.22.04.02.08.05.11.07.08.05.16.1.24.14.04.02.09.05.13.07.08.04.16.08.25.12.04.02.08.04.12.06.12.05.24.11.37.15.02,0,.03.01.05.02.11.04.22.08.33.11.04.01.09.03.13.04.08.02.17.05.25.07.05.01.1.02.15.03.09.02.17.03.25.05.04,0,.09.02.13.02.12.02.25.03.37.04.02,0,.04,0,.06,0,.09,0,.18,0,.26,0,.02,0,.04,0,.06,0,.03,0,.05,0,.08,0,.12,0,.23-.01.34-.02.01,0,.03,0,.04,0,.11-.01.21-.03.32-.05.02,0,.04,0,.06-.01.11-.02.21-.05.31-.09,0,0,.01,0,.02,0,.03.19.05.39.05.61,0,.02,0,.04,0,.05Zm-6.53-4.95c.59.27,1.2.51,1.76.73,1.76.71,3.77,1.13,4.49,2.76-1.42.48-3.9-.25-5.07-1.98-.37-.55-.77-1.05-1.19-1.52Zm7.23,2.64s0,.02,0,.03l-.03.09c-.06.11-.14.22-.23.31-.42-.9-1.17-1.57-2.24-2.04-1-.44-2.04-.77-3.04-1.19-1.31-.54-3.17-1.16-3.89-2.49-.46-.85-.28-1.86-.29-2.79,0-1-.22-1.96-.78-2.8-1.09-1.62-3.4-3.26-5.45-2.66-.49.14-.92.39-1.29.71.04-.18.09-.36.15-.55l.02-.06c.06-.16.27-.62.63-1.1.02-.03.04-.06.07-.09,0,0,0,0,0,0,1.06-1.27,2.6-1.48,4.16-.5,1.26.79,2.33,1.94,2.49,3.46.1.9-.08,1.81.06,2.71.38,2.44,3.18,3.35,5.17,4.15,1.56.62,3.79,1.24,4.47,2.75.05.14.09.28.12.44.05.21.07.41.08.6,0,.31-.06.64-.18,1.01Z"/>
  </g>
</svg>