<?xml version="1.0" encoding="UTF-8"?>
<svg id="Capa_2" data-name="Capa 2" xmlns="http://www.w3.org/2000/svg" viewBox="0 0 68.58 68.86">
  <defs>
    <style>
      .cls-1 {
        fill: #2d3540;
      }
    </style>
  </defs>
  <g id="Layer_1" data-name="Layer 1">
    <g>
      <rect class="cls-1" x="6.74" y="3.57" width="5.34" height="20.99" rx="1.26" ry="1.26"/>
      <rect class="cls-1" y="3.57" width="5.34" height="20.99" rx="1.26" ry="1.26"/>
      <rect class="cls-1" x="63.24" y="3.57" width="5.34" height="20.99" rx="1.26" ry="1.26"/>
      <rect class="cls-1" x="56.49" y="3.57" width="5.34" height="20.99" rx="1.26" ry="1.26"/>
      <polygon class="cls-1" points="50.04 12.83 49.36 12.83 46.98 12.83 13.39 12.83 13.39 15.31 16.81 15.31 18.53 15.31 19.21 15.31 22.2 15.31 55.19 15.31 55.19 12.83 52.37 12.83 50.04 12.83"/>
      <path class="cls-1" d="m38.9,65.29h-2.62l-.23-1.8h-3.54l-.23,1.8h-2.62c-.99,0-1.78.8-1.78,1.78s.8,1.78,1.78,1.78h9.23c.99,0,1.78-.8,1.78-1.78s-.8-1.78-1.78-1.78Z"/>
      <path class="cls-1" d="m52.2,21.04v-4.98h-2.15v4.98c-.43.33-.71.84-.71,1.42v3.04h-5.21v3.15h5.21v3.04c0,.99.8,1.78,1.78,1.78s1.78-.8,1.78-1.78v-9.23c0-.58-.28-1.1-.71-1.42Z"/>
      <path class="cls-1" d="m19.25,22.46c0-.58-.28-1.1-.71-1.42v-4.98h-2.15v4.98c-.43.33-.71.84-.71,1.42v9.23c0,.99.8,1.78,1.78,1.78s1.78-.8,1.78-1.78v-3.04h5.2v-3.15h-5.2v-3.04Z"/>
      <path class="cls-1" d="m43.63,3.95c0-2.18-1.77-3.95-3.95-3.95h-10.78c-2.18,0-3.95,1.77-3.95,3.95v8.13h18.68V3.95Z"/>
      <path class="cls-1" d="m52.52,11.06c0-.77-.62-1.4-1.39-1.4s-1.4.62-1.4,1.4v1.03h2.79v-1.03Z"/>
      <path class="cls-1" d="m18.86,11.06c0-.77-.62-1.4-1.4-1.4s-1.39.62-1.39,1.4v1.03h2.79v-1.03Z"/>
      <g>
        <path class="cls-1" d="m26.68,39.74c5.08.62,10.15.62,15.23,0,1.04-.71,1.73-1.91,1.73-3.27v-20.42h-18.68v20.42c0,1.36.68,2.55,1.73,3.27Z"/>
        <path class="cls-1" d="m42.42,40.99c-5.42-.7-10.84-.7-16.26,0-.74.54-1.22,1.4-1.22,2.39v16.64c0,1.63,1.32,2.95,2.95,2.95h12.78c1.63,0,2.95-1.32,2.95-2.95v-16.64c0-.98-.48-1.85-1.21-2.39Z"/>
      </g>
    </g>
  </g>
</svg>