<?xml version="1.0" encoding="UTF-8"?>
<svg id="Capa_2" data-name="Capa 2" xmlns="http://www.w3.org/2000/svg" viewBox="0 0 40.49 55.34">
  <defs>
    <style>
      .cls-1 {
        fill: #3fc1c9;
      }
    </style>
  </defs>
  <g id="Layer_1" data-name="Layer 1">
    <path class="cls-1" d="m2.72,27.81C.94,30.79-.06,34.25,0,37.94c.1,5.59,2.6,10.57,6.55,14.07,3.69,3.26,3.79,3.47,14.01,3.28,10.22-.17,10.29-.37,13.86-3.76,3.83-3.63,6.17-8.71,6.07-14.3-.06-3.76-1.23-7.26-3.19-10.21-.79-1.18-.96-2.66-.42-3.97,1.95-4.65,3.63-11.07,1.07-15.91C35.42,2.34,28.86-.16,19.73,0,10.55.16,4.03,2.92,1.58,7.84c-2.48,5.01-.62,11.5,1.41,16.08.57,1.26.44,2.71-.27,3.89ZM7.54,11.59c1.41-2.84,5.51-4.41,12.31-4.52,6.73-.12,10.81,1.25,12.25,3.97,1.2,2.27.26,5.34-1.05,8.16-.37.78-1.28,1.1-2.05.75-2.75-1.27-5.84-1.96-9.09-1.91-3.33.06-6.45.89-9.2,2.31-.77.4-1.72.06-2.09-.72-1.32-2.72-2.22-5.72-1.08-8.03Z"/>
  </g>
</svg>